<?xml version="1.0" encoding="utf-8"?>
<svg version="1.1" xmlns="http://www.w3.org/2000/svg" xmlns:xlink="http://www.w3.org/1999/xlink" x="0px" y="0px" viewBox="0 0 1920 1080" enable-background="new 0 0 1920 1080" xml:space="preserve">

	<g>
		<g id="_avatar">
			<g>
				<path fill="#FBCC9A" d="M93.3,255L80.5,66.4H-74.9L-85.7,255l63.2,10.3l9.6-152.9c0.4-6.3,5.9-11.5,12.2-11.5h8.8
			c6.3,0,11.8,5.1,12.2,11.5l9.8,152.9L93.3,255z"/>
				<g>
					<path
						fill="#FBCC9A"
						d="M79.9-103.2c-8.7-8.8-22.9-8.8-31.6,0c-8.6,8.8-8.6,22.8,0,31.4l4.5,4.6C64.1-56,75.2-44.7,86.1-33.4
				C96.9-22,107.8-10.6,117.9,0.9c2.5,2.8,5,5.7,7.2,8.5l0.3,0.4l-2.4,3.7c-8.3,12.1-18.1,24.5-27.8,36.7L83.5,64.4L118,92.6
				l11.9-14.7c10.1-12.7,20-25.3,29.8-39.4l1.8-2.7l2.3-3.6c2-3.4,4.1-6.8,5.7-10.3c0.9-1.7,1.4-3.5,2.1-5.3
				c0.5-1.8,0.7-3.6,0.9-5.4l0.2-2.7l0.1-1.4c0-0.5-0.2-0.9-0.2-1.4c-0.4-1.8-0.8-3.5-1.3-5.3l-0.9-2.6c-0.3-0.9-0.5-1.7-1.1-2.6
				c-1-1.7-1.9-3.3-3-5l-3.5-4.8c-0.6-0.8-1.2-1.6-1.8-2.3l-1.6-1.9c-2.8-3.4-5.5-6.6-8.3-9.7c-11-12.5-22-24.1-33.2-35.7
				c-11.1-11.6-22.4-23-33.7-34.4L79.9-103.2z"/>
				</g>
				<g>
					<path
						fill="#FBCC9A"
						d="M-69.9-103.2c8.7-8.8,22.9-8.8,31.6,0c8.6,8.8,8.6,22.8,0,31.4l-4.5,4.6C-54-56-65.1-44.7-76-33.4
				C-86.9-22-97.7-10.6-107.8,0.9c-2.5,2.8-5,5.7-7.2,8.5l-0.3,0.4l2.4,3.7c8.3,12.1,18.1,24.5,27.8,36.7l11.6,14.3l-34.5,28.2
				l-11.9-14.7c-10.1-12.7-20-25.3-29.8-39.4l-1.8-2.7l-2.3-3.6c-2-3.4-4.1-6.8-5.7-10.3c-0.9-1.7-1.4-3.5-2.1-5.3
				c-0.5-1.8-0.7-3.6-0.9-5.4l-0.2-2.7l-0.1-1.4c0-0.5,0.2-0.9,0.2-1.4c0.4-1.8,0.8-3.5,1.3-5.3l0.9-2.6c0.3-0.9,0.5-1.7,1.1-2.6
				c1-1.7,1.9-3.3,3-5l3.5-4.8c0.6-0.8,1.2-1.6,1.8-2.3l1.6-1.9c2.8-3.4,5.5-6.6,8.3-9.7c11-12.5,22-24.1,33.2-35.7
				c11.1-11.6,22.4-23,33.7-34.4L-69.9-103.2z"/>
				</g>
				<path fill="#FDD995" d="M47.5-112.6C34.6-114.9,19-117,2.9-117c-16.1,0-31.7,1.9-44.7,4.1l42,12c0.6,0.8,1.6,1.3,2.6,1.3l0,0
			c1,0,2-0.5,2.6-1.3L47.5-112.6z"/>
				<path fill="#FDD995" d="M34.7-131.8l2.4,17.2c0,0-14.6,17.9-34.2,17.9c-19.6,0-34.2-17.9-34.2-17.9l2.4-17.3H34.7z"/>
				<path fill="#FBCC9A" d="M116.4,94.8l2.1-2.6l-34-28.2l-2.1,2.6c-7.6,9.4-6.4,23.3,2.9,31.3C94.5,105.8,108.5,104.4,116.4,94.8z"/>
				<path fill="#FBCC9A" d="M-72.7,66.2l-2-2.6L-109.4,91l2.1,2.7c7.6,9.8,21.6,11.4,31,3.7C-66.9,89.6-65.3,75.7-72.7,66.2z"/>
				<path fill="#ACCCCE" d="M-74.7,67.7"/>
				<path fill="#FBCC9A" d="M-69.6,72.1c-3.2,2.5-7.1,2.7-8.8,0.6s-0.4-6,2.7-8.4c3.2-2.5,7.1-2.7,8.8-0.6
			C-65.1,65.8-66.4,69.6-69.6,72.1z"/>
				<path fill="#FBCC9A" d="M79,72.3c3.2,2.5,7.1,2.7,8.8,0.6c1.7-2.2,0.4-6-2.7-8.4c-3.2-2.5-7.1-2.7-8.8-0.6
			C74.6,66,75.9,69.8,79,72.3z"/>
				<g>
					<ellipse fill="#CB9866" cx="109.8" cy="-229.3" rx="20.1" ry="25.9"/>
					<ellipse fill="#FBCC9A" cx="-107.4" cy="-229.3" rx="20.1" ry="25.9"/>
					<path fill="#FBCC9A" d="M-18-120.6c-48.6,0-88-39.9-88-89.1v-94.1c0-49.2,39.4-89.1,88-89.1H3.6v272.3H-18z"/>
					<path fill="#CB9866" d="M20.4-120.6c48.6,0,88-39.9,88-89.1v-94.1c0-49.2-39.4-89.1-88-89.1H1.3v272.3H20.4z"/>
				</g>
				<path fill="#261911" d="M1.3-264.1"/>
				<line fill="none" x1="1.3" y1="-264.1" x2="-155.4" y2="-264.1"/>
				<circle fill="#FBCC9A" cx="3.4" cy="-212.8" r="13.5"/>
			</g>
		</g>


		<g id="_SABATES_M_10">
			<g>
				<g>
					<polygon fill="#343434" points="-22,264.3 -89.8,264.3 -89.8,253 -84,242.7 -19.6,220.8 			"/>
					<polygon fill="#343434" points="29.7,264.3 97.5,264.3 97.5,253 91.7,242.7 27.2,220.5 			"/>
				</g>
			</g>
		</g>


		<g id="_SABATES_M_9">
			<g>
				<polygon fill="#4BB1B3" points="-22.7,273 -94.5,273 -94.5,261 -88.3,250.1 -22.3,260.8 		"/>
				<polygon fill="#4BB1B3" points="30,273 101.8,273 101.8,261 95.6,250.1 30,260.8 		"/>
				<circle fill="#4BB1B3" cx="-87.2" cy="248.8" r="7.2"/>
				<circle fill="#4BB1B3" cx="96.9" cy="249.5" r="7.2"/>
			</g>
		</g>


		<g id="_SABATES_M_8">
			<g>
				<g>
					<polygon fill="#FBCC9A" points="-22.6,276.2 -91.6,276.2 -91.6,264.9 -85.6,254.5 -22.6,264.6 			"/>
					<g>
						<polyline fill="#40572C" points="-22.6,270.4 -22.6,276.2 -91.6,276.2 -91.6,270.5 				"/>
					</g>
					<polyline fill="#40572C" points="-91.6,276.2 -91.6,264.9 -85.7,254.5 -80.7,255.3 -89.4,271.5 			"/>
					<polyline fill="#40572C" points="-80.7,255.3 -66.6,272.7 -60.1,272.7 -73.2,256.5 			"/>
				</g>
				<g>
					<polygon fill="#FBCC9A" points="30,276 99.2,276 99.2,264.7 93.3,254.3 30,264.4 			"/>
					<g>
						<polyline fill="#40572C" points="30,270.6 30,276.4 99.2,276.4 99.2,270.7 				"/>
					</g>
					<polyline fill="#40572C" points="99.2,276 99.2,264.7 93.4,254.3 88.4,255.1 97.1,271.3 			"/>
					<polyline fill="#40572C" points="92.1,254.5 77.9,271.9 71.5,271.9 84.6,255.8 			"/>
				</g>
			</g>
		</g>


		<g id="_SABATES_M_7">
			<g>
				<polygon fill="#3D3D3B" points="-22,272.3 -89.7,272.3 -89.7,260.9 -83.9,250.6 -22,260.7 		"/>
				<polygon fill="#3D3D3B" points="29.6,272.3 97.4,272.3 97.4,260.9 91.6,250.6 29.6,260.7 		"/>
			</g>
		</g>


		<g id="_SABATES_M_6">
			<g>
				<polygon fill="#9B4517" points="-22,272.3 -89.7,272.3 -89.7,260.9 -83.9,250.6 -22,260.7 		"/>
				<polygon fill="#9B4517" points="29.6,272.3 97.4,272.3 97.4,260.9 91.6,250.6 29.6,260.7 		"/>
			</g>
		</g>
		<g id="_SABATES_M_5">
			<g>
				<polygon fill="#531E53" points="-22,272.3 -89.7,272.3 -89.7,260.9 -83.9,250.6 -22,260.7 		"/>
				<polygon fill="#531E53" points="29.6,272.3 97.4,272.3 97.4,260.9 91.6,250.6 29.6,260.7 		"/>
			</g>
		</g>


		<g id="_SABATES_M_4">
			<g>
				<polygon fill="#958218" points="-21.9,272.5 -97.6,272.5 -97.6,259.7 -91.1,247.9 -21.9,259.4 		"/>
				<polygon fill="#958218" points="29.8,272.5 105.4,272.5 105.4,259.7 98.9,247.9 29.8,259.4 		"/>
				<polyline fill="#958218" points="-91,250.1 -102,218.5 -68.1,218.5 -72.4,253.1 		"/>
				<polyline fill="#958218" points="98.7,250.1 109.6,218.5 75.8,218.5 80.1,253.1 		"/>
			</g>
		</g>


		<g id="_SABATES_M_3">
			<g>
				<polygon fill="#3D3F91" points="-21.6,264.5 -88.7,264.5 -88.7,253.3 -83,242.1 -21.6,252.2 		"/>
				<polygon fill="#3D3F91" points="29.4,265.3 96.5,265.3 96.5,254.1 90.7,243 29.4,253 		"/>
				<polyline fill="#3D3F91" points="-83,252.9 -92.6,225.3 -63,225.3 -66.8,255.6 		"/>
				<polyline fill="#3D3F91" points="90.6,253.8 100.2,226.1 70.6,226.1 74.4,256.4 		"/>
			</g>
		</g>


		<g id="_SABATES_M_2">
			<g>
				<g>
					<polygon fill="#758628" points="-21.4,271.2 -92,271.1 -92,259.5 -86,248.8 -21.4,239.6 			"/>
					<polyline fill="#758628" points="-86,248.8 -93.4,227.3 -56,219.3 -57.7,253.5 			"/>
				</g>
				<polygon fill="#758628" points="28,273.9 100.9,274.2 100.9,262.6 94.9,252 28,242.8 		"/>
				<polyline fill="#758628" points="94.8,252.3 101.1,231 63.6,222.4 65.3,256.6 		"/>
			</g>
		</g>


		<g id="_SABATES_M_1">
			<g>
				<g>
					<polygon fill="#FBCC9A" points="29.7,263.3 95.7,263.3 95.7,252.6 90,242.9 29.7,252.4 			"/>
					<polyline fill="#645030" points="29.7,258.1 29.7,263.7 96.7,263.7 96.7,258.2 			"/>
					<polyline fill="#645030" points="96.7,263.7 96.7,252.7 90.9,242.6 86,243.4 94.6,259.1 			"/>
				</g>
				<g>
					<polygon fill="#FBCC9A" points="-22.6,265.3 -89,265.3 -89,254.4 -83.3,244.3 -22.6,254.1 			"/>
					<polyline fill="#645030" points="-22.6,259.7 -22.6,265.3 -89,265.3 -89,259.9 			"/>
					<polyline fill="#645030" points="-89,264.7 -89,253.7 -83.3,243.6 -78.4,244.4 -87,260.1 			"/>
				</g>
			</g>
		</g>


		<g id="_SAMARRETA_M_10">
			<g>
				<path fill="#DADAD9" d="M121.2-61.1c-11.6-11.7-22.1-25.5-33.9-37l-4.8-4.6c-9.1-8.8-23.9-8.8-32.8,0c-9,8.8-9,22.9,0,31.6
			l4.7,4.6c11.6,11.3,22,23.6,33.4,35"/>
				<path fill="#DADAD9" d="M-77.5-31.8c11.3-11.3,22.3-23.6,33.9-34.8l4.7-4.6c9-8.7,9.1-22.8,0.1-31.6c-8.9-8.8-23.7-8.9-32.8-0.1
			l-4.8,4.6C-88.1-87-98.2-74-109.8-62.5"/>
				<path fill="#DADAD9" d="M66.7-109.9c-15.3-3.3-38.8-7.3-63.4-7.3c-24.6,0-48.2,4-63.5,7.3c-9.7,2.1-17.4,12-17.4,21.6V67.8H84.1
			V-88.3C84.1-97.9,76.4-107.8,66.7-109.9z"/>
			</g>
		</g>


		<g id="_SAMARRETA_M_9">
			<g>
				<path fill="#3D3F91" d="M121.2-61.1c-11.6-11.7-22.1-25.5-33.9-37l-4.8-4.6c-9.1-8.8-23.9-8.8-32.8,0c-9,8.8-9,22.9,0,31.6
			l4.7,4.6c11.6,11.3,22,23.6,33.4,35"/>
				<path fill="#3D3F91" d="M-77.5-31.8c11.3-11.3,22.3-23.6,33.9-34.8l4.7-4.6c9-8.7,9.1-22.8,0.1-31.6c-8.9-8.8-23.7-8.9-32.8-0.1
			l-4.8,4.6C-88.1-87-98.2-74-109.8-62.5"/>
				<path fill="#3D3F91" d="M66.7-109.9c-15.3-3.3-38.8-7.3-63.4-7.3c-24.6,0-48.2,4-63.5,7.3c-9.7,2.1-17.4,12-17.4,21.6V67.8H84.1
			V-88.3C84.1-97.9,76.4-107.8,66.7-109.9z"/>
			</g>
		</g>


		<g id="_SAMARRETA_M_8">
			<g>
				<g>
					<path fill="#651511" d="M121.2-61.1c-11.6-11.7-22.1-25.5-33.9-37l-4.8-4.6c-9.1-8.8-23.9-8.8-32.8,0c-9,8.8-9,22.9,0,31.6
				l4.7,4.6c11.6,11.3,22,23.6,33.4,35"/>
					<path fill="#651511" d="M-77.5-31.8c11.3-11.3,22.3-23.6,33.9-34.8l4.7-4.6c9-8.7,9.1-22.8,0.1-31.6c-8.9-8.8-23.7-8.9-32.8-0.1
				l-4.8,4.6C-88.1-87-98.2-74-109.8-62.5"/>
					<path fill="#651511" d="M66.7-109.9c-15.3-3.3-38.8-7.3-63.4-7.3c-24.6,0-48.2,4-63.5,7.3c-9.7,2.1-17.4,12-17.4,21.6V67.8H84.1
				V-88.3C84.1-97.9,76.4-107.8,66.7-109.9z"/>
				</g>
				<rect x="-77.5" y="30.5" fill="#3D3D3B" width="161.7" height="37.1"/>
				<polyline fill="#3D3D3B" points="10,30.5 43,19.7 74.6,30.5 		"/>
			</g>
		</g>


		<g id="_SAMARRETA_M_7">
			<g>
				<g>
					<path
						fill="#253E1E"
						d="M76.9-105.3c-8.8-9-23-9-31.6,0c-8.6,9-8.6,23.3,0,32.2l4.5,4.7C61-57,72.1-45.4,83-33.8
				c10.9,11.6,21.8,23.3,31.8,35c2.5,2.9,5,5.8,7.2,8.7l0.3,0.4l-2.4,3.7c-8.4,12.4-18.1,25.1-27.9,37.6L80.5,66.2L115,95.1
				l11.9-15.1c10.1-13,20.1-25.9,29.9-40.3l1.8-2.8l2.3-3.7c2-3.4,4.1-6.9,5.7-10.5c0.9-1.8,1.4-3.6,2.1-5.4
				c0.5-1.8,0.7-3.7,0.9-5.5l0.2-2.8l0.1-1.4c0-0.5-0.2-0.9-0.3-1.4c-0.4-1.9-0.8-3.6-1.3-5.4l-0.9-2.7c-0.3-0.9-0.5-1.8-1.1-2.6
				c-1-1.7-1.9-3.4-3-5.1l-3.5-4.9c-0.6-0.8-1.2-1.6-1.8-2.4l-1.6-2c-2.8-3.5-5.5-6.7-8.3-10c-11-12.7-22-24.7-33.2-36.6
				C104-77.3,92.8-88.9,81.5-100.6L76.9-105.3z"/>
					<path
						fill="#253E1E"
						d="M-42-73.1c8.7-8.8,8.7-23.2,0.1-32.2c-8.6-9-22.8-9.1-31.6-0.1l-4.6,4.7c-11.3,11.5-22.5,23.1-33.6,34.8
				c-11.1,11.8-22.2,23.6-33.2,36.1c-2.7,3.2-5.5,6.4-8.3,9.8l-2.6,3.3c-1.2,1.5-2.4,3.2-3.5,4.8l-1.8,2.4l-1.5,2.5
				c-1,1.7-2.1,3.3-2.5,5.1l-0.9,2.6l-0.6,2.7c-0.3,1.8-1.1,3.6-0.7,5.5c0.2,3.7,0.6,7.4,2.1,11c1.4,3.6,3.2,7.2,5.2,10.7
				c0.5,0.9,1,1.8,1.5,2.6l1.2,2l1.8,2.8c9.4,14.7,19,27.7,28.8,40.8l11.6,15.3l40.5-32.2l-11.9-14c-9.4-12.6-19.7-24.5-27.7-36.9
				l0,0l-0.6-1.9c2.3-2.8,3-3.7,5.5-6.6c10.1-11.6,23.2-24.4,32.2-34.8c10.3-12,19.5-25.1,30.7-36.4L-42-73.1z"/>
					<path fill="#253E1E" d="M61.7-112.6C47-116,24.3-120,0.6-120c-10.8,0-30.9,2.6-45.2,4.8c-8.2,1.2-14.5,2.3-16,2.7
				c-9.3,2.1-16.7,12.2-16.7,22V68.3H78.4V-90.6C78.4-100.3,71-110.5,61.7-112.6z"/>
				</g>
				<path fill="#99CC99" d="M4-106.7V62.5V-106.7z"/>
				<ellipse fill="#99CC99" cx="15.7" cy="-69.4" rx="5.2" ry="5.3"/>
				<ellipse fill="#99CC99" cx="15.7" cy="-49.1" rx="5.2" ry="5.3"/>
				<ellipse fill="#99CC99" cx="15.7" cy="-26.5" rx="5.2" ry="5.3"/>
				<ellipse fill="#99CC99" cx="15.7" cy="-3.2" rx="5.2" ry="5.3"/>
				<ellipse fill="#99CC99" cx="15.7" cy="19.4" rx="5.2" ry="5.3"/>
				<path fill="#99CC99" d="M-49.2-114.5L-18-64.2L-3.2-120C-3.2-120-46.5-117.8-49.2-114.5z"/>
				<path fill="#99CC99" d="M64.9-112L33.7-64.1l-14.8-55.9C18.9-119.9,62.2-115.2,64.9-112z"/>
				<polygon fill="#99CC99" points="-74.7,62.1 -115.2,94.4 -121.9,85.6 -83.3,52.2 		"/>
				<polygon fill="#99CC99" points="79.9,66.7 115.5,96.9 121.7,86.1 87.3,57 		"/>
			</g>
		</g>


		<g id="_SAMARRETA_M_6">
			<g>
				<g>
					<path
						fill="#6F8128"
						d="M79.6-105.8c-8.7-9.1-22.9-9-31.5,0c-8.6,9.1-8.6,23.6,0,32.5l4.5,4.7c11.1,11.6,22.2,23.2,33.1,35
				C96.6-21.9,107.5-10,117.5,1.8c2.5,2.9,5,5.9,7.2,8.7l0.3,0.4l-2.4,3.8c-8.3,12.5-18,23-27.7,35.6L84.5,63.9l32.8,30.2l12.3-12.7
				c10.1-13.1,20-26.1,29.8-40.7l1.8-2.8l2.3-3.7c2-3.5,4.1-7,5.7-10.7c0.9-1.8,1.4-3.7,2.1-5.5c0.5-1.9,0.7-3.7,0.9-5.6l0.2-2.8
				l0.1-1.4c0-0.5-0.2-0.9-0.2-1.4c-0.4-1.9-0.8-3.7-1.3-5.5l-0.9-2.7c-0.3-0.9-0.5-1.8-1.1-2.7c-1-1.7-1.9-3.5-3-5.1l-3.5-4.9
				c-0.6-0.8-1.2-1.6-1.8-2.4l-1.6-2c-2.8-3.6-5.5-6.8-8.3-10.1c-11-12.9-22-24.9-33.1-36.9c-11.1-12-22.4-23.8-33.6-35.5
				L79.6-105.8z"/>
					<path
						fill="#6F8128"
						d="M-39-73.3c8.7-8.9,8.7-23.4,0.1-32.5c-8.6-9.1-22.8-9.2-31.5-0.1l-4.6,4.8C-86.3-89.6-97.5-77.9-108.6-66
				c-11.1,11.9-22.2,23.8-33.1,36.5c-2.7,3.2-5.5,6.4-8.2,9.9l-2.6,3.3c-1.2,1.6-2.3,3.2-3.5,4.9l-1.8,2.4l-1.5,2.6
				c-1,1.7-2.1,3.4-2.5,5.2l-0.9,2.7l-0.6,2.7c-0.3,1.8-1.1,3.7-0.7,5.6c0.2,3.7,0.6,7.4,2.1,11.1c1.4,3.7,3.2,7.3,5.2,10.8
				c0.5,0.9,1,1.8,1.5,2.6l1.2,2l1.8,2.9c9.4,14.8,21.3,26.9,31,40.2l13.2,13.4l35.7-28.8L-85,50.1c-9.4-12.7-19.9-24.2-27.8-36.7
				l-1.8-2.7l-1-0.9c2.3-2.9,4.8-5.8,7.3-8.7C-98.3-10.6-87.5-22.4-76.6-34c10.9-11.6,21.9-23.2,33.1-34.7L-39-73.3z"/>
					<path fill="#6F8128" d="M64.5-113.2c-14.7-3.4-37.3-7.5-60.9-7.5c-23.6,0-46.3,4.1-61,7.5c-9.3,2.1-16.7,12.4-16.7,22.2V69.5
				H81.2V-91C81.2-100.8,73.8-111.1,64.5-113.2z"/>
				</g>
				<g>
					<g>
						<path
							fill="#8C888B"
							d="M-55.9-113.1c-0.3,4.9,2.9,8,5.8,11.5c2.6,3.2,4.7,6.4,5.9,10.3c0.8,2.6,1.4,5.1,0.2,7.7
					c-0.7,1.5-1.9,2.7-2.7,4.1c-5.6,9.7,1.1,20.4,7.4,27.8c0.5,0.6,1.4-0.3,0.9-0.9c-4.4-5.2-9-11.3-9.1-18.5c0-3.6,1.1-6.7,3.1-9.6
					c1.2-1.8,2.3-3.1,2.4-5.3c0.3-4-1.9-8.5-3.9-11.8c-3-5-9.2-8.9-8.9-15.2C-54.6-113.9-55.9-113.9-55.9-113.1L-55.9-113.1z"/>
					</g>
				</g>
				<g>
					<g>
						<path
							fill="#8C888B"
							d="M61.5-113.1c0.4,6.2-5.4,9.8-8.4,14.5c-2.2,3.4-4.6,8.4-4.3,12.6c0.2,1.9,0.9,3.2,2,4.8
					c2,2.9,3.4,5.7,3.5,9.4c0.1,7.6-4.3,13.7-9,19.3c-0.5,0.6,0.4,1.5,0.9,0.9c6.3-7.4,13-18,7.4-27.8c-2.2-3.9-4.1-6-2.7-11
					c1.1-4.2,3.4-7.8,6.2-11.1c2.9-3.5,6.1-6.6,5.8-11.5C62.7-113.9,61.4-113.9,61.5-113.1L61.5-113.1z"/>
					</g>
				</g>
			</g>
		</g>


		<g id="_SAMARRETA_M_5">
			<g>
				<g>
					<path
						fill="#805E39"
						d="M80.9-104.1c-8.7-8.8-22.9-8.8-31.5,0c-8.6,8.8-8.6,22.9,0,31.6l4.5,4.6C65-56.7,76-45.5,86.1-33.4
				c9.7,11.7,21.7,22.7,31.8,34.2c2.5,2.9,5,5.7,7.2,8.5l0,0l-2.2,4.2c-8.3,12.1-18,24.3-27.7,36.6l-11,13.6l34.8,29l11.9-14.8
				c10.1-12.8,20-25.4,29.8-39.6l1.8-2.7l2.3-3.6c2-3.4,4.1-6.8,5.7-10.4c0.9-1.7,1.4-3.5,2.1-5.3c0.5-1.8,0.7-3.6,0.9-5.4l0.2-2.7
				l0.1-1.4c0-0.5-0.2-0.9-0.2-1.4c-0.4-1.8-0.8-3.5-1.3-5.3l-0.9-2.6c-0.3-0.9-0.5-1.8-1.1-2.6c-1-1.7-1.9-3.4-3-5l-3.5-4.8
				c-0.6-0.8-1.2-1.6-1.8-2.4l-1.6-1.9c-2.8-3.5-5.5-6.6-8.2-9.8c-10.9-12.5-22-24.2-33.1-35.9c-11.1-11.7-22.3-23.1-33.6-34.5
				L80.9-104.1z"/>
					<path
						fill="#805E39"
						d="M-37.6-72.5c8.6-8.7,8.7-22.8,0.1-31.6c-8.6-8.8-22.7-8.9-31.5-0.1l-4.6,4.6C-84.8-88.3-96-77-107.1-65.4
				c-11.1,11.6-22.1,23.2-33.1,35.5c-2.7,3.1-5.5,6.3-8.2,9.6l-2.6,3.2c-1.2,1.5-2.3,3.2-3.5,4.7l-1.8,2.4l-1.5,2.5
				c-1,1.7-2.1,3.3-2.5,5l-0.9,2.6l-0.6,2.6c-0.3,1.7-1.1,3.6-0.7,5.4c0.2,3.6,0.6,7.2,2.1,10.8c1.4,3.6,3.2,7.1,5.2,10.5
				c0.5,0.9,1,1.7,1.5,2.5l1.2,2l1.8,2.8c9.4,14.4,19,27.2,28.7,40.1l11.6,15.1l36.4-28.4l-10.9-14.2c-9.4-12.4-20.5-24.7-28.5-36.9
				l-1.8-2.8l1.1-1.4c2.3-2.8,4.7-5.6,7.3-8.5C-96.8-11.6-86-23-75.2-34.3c10.9-11.3,21.9-22.5,33-33.7L-37.6-72.5z"/>
					<path fill="#805E39" d="M65.7-111.3c-14.7-3.3-37.3-7.3-60.8-7.3c-23.6,0-46.3,4-61,7.3c-9.3,2.1-16.7,12-16.7,21.6v156H82.4
				v-156C82.4-99.3,75-109.2,65.7-111.3z"/>
				</g>
			</g>
		</g>


		<g id="_SAMARRETA_M_4">
			<g>
				<g>
					<path
						fill="#3D3D3B"
						d="M80.8-103.5c-8.7-8.8-22.9-8.8-31.5,0c-8.6,8.8-8.6,22.9,0,31.6l4.5,4.6C65-56,76-44.9,86-32.7
				C95.7-21,107.8-10,117.8,1.5c2.5,2.9,5,5.7,7.2,8.5l0,0l-2.2,4.2c-8.3,12.1-18,24.3-27.7,36.6L84,64.4l34.8,29l11.9-14.8
				c10.1-12.8,20-25.4,29.8-39.6l1.8-2.7l2.3-3.6c2-3.4,4.1-6.8,5.7-10.4c0.9-1.7,1.4-3.5,2.1-5.3c0.5-1.8,0.7-3.6,0.9-5.4l0.2-2.7
				l0.1-1.4c0-0.5-0.2-0.9-0.2-1.4c-0.4-1.8-0.8-3.5-1.3-5.3l-0.9-2.6c-0.3-0.9-0.5-1.8-1.1-2.6c-1-1.7-1.9-3.4-3-5l-3.5-4.8
				c-0.6-0.8-1.2-1.6-1.8-2.4l-1.6-1.9c-2.8-3.5-5.5-6.6-8.2-9.8c-10.9-12.5-22-24.2-33.1-35.9C107.9-76,96.7-87.4,85.4-98.9
				L80.8-103.5z"/>
					<path
						fill="#3D3D3B"
						d="M-37.6-71.9c8.6-8.7,8.7-22.8,0.1-31.6c-8.6-8.8-22.7-8.9-31.5-0.1l-4.6,4.6
				c-11.2,11.3-22.4,22.7-33.5,34.2c-11.1,11.6-22.1,23.2-33.1,35.5c-2.7,3.1-5.5,6.3-8.2,9.6l-2.6,3.2c-1.2,1.5-2.3,3.2-3.5,4.7
				l-1.8,2.4l-1.5,2.5c-1,1.7-2.1,3.3-2.5,5l-0.9,2.6l-0.6,2.6c-0.3,1.7-1.1,3.6-0.7,5.4c0.2,3.6,0.6,7.2,2.1,10.8
				c1.4,3.6,3.2,7.1,5.2,10.5c0.5,0.9,1,1.7,1.5,2.5l1.2,2l1.8,2.8c9.4,14.4,19,27.2,28.7,40.1l11.6,15.1l36.4-28.4L-85.1,50
				c-9.4-12.4-20.5-24.7-28.5-36.9l-1.8-2.8l1.1-1.4c2.3-2.8,4.7-5.6,7.3-8.5C-96.9-11-86.1-22.4-75.2-33.6
				c10.9-11.3,21.9-22.5,33-33.7L-37.6-71.9z"/>
					<path fill="#3D3D3B" d="M65.7-110.7c-14.7-3.3-37.4-5.7-60.9-5.7c-23.6,0-46.2,2.4-60.9,5.7c-9.3,2.1-16.7,12-16.7,21.6V67H82.4
				v-156C82.4-98.6,75-108.6,65.7-110.7z"/>
					<path fill="#5F64AA" d="M30.7-110.7c-6.2-3.3-15.9-5.7-25.9-5.7c-10,0-19.7,2.4-25.9,5.7c-4,2.1-7.1,12-7.1,21.6V67h66.1v-156
				C37.8-98.6,34.7-108.6,30.7-110.7z"/>
				</g>
				<g>
					<g>
						<path fill="#CCC9E5" d="M-23-37.3C-23-37.3-23-37.3-23-37.3l0.2,10.5l55.3,5.9v-3.4L-23-37.3z"/>
						<path fill="#CCC9E5" d="M32.6-35.9V-50c0,0-49.2-12.6-55,8.1L32.6-35.9z"/>
						<path fill="#CCC9E5" d="M-22.6-22.1l0.4,18.9c0,0,42.6,9.3,52.6-6.4L-22.6-22.1z"/>
					</g>
				</g>
			</g>
		</g>


		<g id="_SAMARRETA_M_3">
			<g>
				<g>
					<path
						fill="#958218"
						d="M80.9-104.1c-8.7-8.8-22.9-8.8-31.5,0c-8.6,8.8-8.6,22.9,0,31.6l4.5,4.6C65-56.7,76-45.5,86.1-33.4
				c9.7,11.7,21.7,22.7,31.8,34.2c2.5,2.9,5,5.7,7.2,8.5l0,0l-2.2,4.2c-8.3,12.1-18,24.3-27.7,36.6l-11,13.6l34.8,29l11.9-14.8
				c10.1-12.8,20-25.4,29.8-39.6l1.8-2.7l2.3-3.6c2-3.4,4.1-6.8,5.7-10.4c0.9-1.7,1.4-3.5,2.1-5.3c0.5-1.8,0.7-3.6,0.9-5.4l0.2-2.7
				l0.1-1.4c0-0.5-0.2-0.9-0.2-1.4c-0.4-1.8-0.8-3.5-1.3-5.3l-0.9-2.6c-0.3-0.9-0.5-1.8-1.1-2.6c-1-1.7-1.9-3.4-3-5l-3.5-4.8
				c-0.6-0.8-1.2-1.6-1.8-2.4l-1.6-1.9c-2.8-3.5-5.5-6.6-8.2-9.8c-10.9-12.5-22-24.2-33.1-35.9c-11.1-11.7-22.3-23.1-33.6-34.5
				L80.9-104.1z"/>
					<path
						fill="#958218"
						d="M-37.6-72.5c8.6-8.7,8.7-22.8,0.1-31.6c-8.6-8.8-22.7-8.9-31.5-0.1l-4.6,4.6C-84.8-88.3-96-77-107.1-65.4
				c-11.1,11.6-22.1,23.2-33.1,35.5c-2.7,3.1-5.5,6.3-8.2,9.6l-2.6,3.2c-1.2,1.5-2.3,3.2-3.5,4.7l-1.8,2.4l-1.5,2.5
				c-1,1.7-2.1,3.3-2.5,5l-0.9,2.6l-0.6,2.6c-0.3,1.7-1.1,3.6-0.7,5.4c0.2,3.6,0.6,7.2,2.1,10.8c1.4,3.6,3.2,7.1,5.2,10.5
				c0.5,0.9,1,1.7,1.5,2.5l1.2,2l1.8,2.8c9.4,14.4,19,27.2,28.7,40.1l11.6,15.1l36.4-28.4l-10.9-14.2c-9.4-12.4-20.5-24.7-28.5-36.9
				l-1.8-2.8l1.1-1.4c2.3-2.8,4.7-5.6,7.3-8.5C-96.8-11.6-86-23-75.2-34.3c10.9-11.3,21.9-22.5,33-33.7L-37.6-72.5z"/>
					<path fill="#958218" d="M65.7-111.3c-14.7-3.3-37.3-7.3-60.8-7.3c-23.6,0-46.3,4-61,7.3c-9.3,2.1-16.7,12-16.7,21.6v156H82.4
				v-156C82.4-99.3,75-109.2,65.7-111.3z"/>
				</g>
				<path
					fill="#E9CD02"
					stroke="#E9CD02"
					stroke-width="3"
					stroke-miterlimit="10"
					d="M-50.4-19.4c0-29.5,24.2-54.2,54.5-54.1
			c28.3,0.1,54.3,22.4,54.1,54.7c-0.2,32-26.3,54-53.8,54.1C-25.8,35.4-50.5,11-50.4-19.4z M56.3-19.2c0.1-29.1-24-52.6-52.3-52.4
			C-25.6-71.5-48.1-48.2-48.5-20C-49,11.4-23.4,33.2,3.2,33.4C33,33.7,56.6,9.1,56.3-19.2z"/>
				<path
					fill="#E9CD02"
					stroke="#E9CD02"
					stroke-width="3"
					stroke-miterlimit="10"
					d="M-35.8-18.6C-35.7-40.1-18.1-58.1,4-58
			C24.7-58,43.6-41.7,43.5-18.1C43.3,5.2,24.3,21.3,4.2,21.3C-17.8,21.4-35.8,3.6-35.8-18.6z M42.2-18.4C42.3-39.7,24.7-56.8,4-56.7
			C-17.6-56.6-34.1-39.6-34.4-19C-34.7,3.9-16,19.8,3.4,20C25.2,20.2,42.4,2.2,42.2-18.4z"/>
				<polygon fill="#E9CD02" stroke="#E9CD02" stroke-miterlimit="10" points="2.2,-41.8 7.5,-25.5 24.7,-25.5 10.8,-15.4 16.1,1
			2.2,-9.1 -11.7,1 -6.4,-15.4 -20.3,-25.5 -3.1,-25.5 		"/>
			</g>
		</g>


		<g id="_SAMARRETA_M_2">
			<g>
				<g>
					<path
						fill="#9B4517"
						d="M80.9-104.1c-8.7-8.8-22.9-8.8-31.5,0c-8.6,8.8-8.6,22.9,0,31.6l4.5,4.6C65-56.7,76-45.5,86.1-33.4
				c9.7,11.7,21.7,22.7,31.8,34.2c2.5,2.9,5,5.7,7.2,8.5l0,0l-2.2,4.2c-8.3,12.1-18,24.3-27.7,36.6l-11,13.6l34.8,29l11.9-14.8
				c10.1-12.8,20-25.4,29.8-39.6l1.8-2.7l2.3-3.6c2-3.4,4.1-6.8,5.7-10.4c0.9-1.7,1.4-3.5,2.1-5.3c0.5-1.8,0.7-3.6,0.9-5.4l0.2-2.7
				l0.1-1.4c0-0.5-0.2-0.9-0.2-1.4c-0.4-1.8-0.8-3.5-1.3-5.3l-0.9-2.6c-0.3-0.9-0.5-1.8-1.1-2.6c-1-1.7-1.9-3.4-3-5l-3.5-4.8
				c-0.6-0.8-1.2-1.6-1.8-2.4l-1.6-1.9c-2.8-3.5-5.5-6.6-8.2-9.8c-10.9-12.5-22-24.2-33.1-35.9c-11.1-11.7-22.3-23.1-33.6-34.5
				L80.9-104.1z"/>
					<path
						fill="#9B4517"
						d="M-37.6-72.5c8.6-8.7,8.7-22.8,0.1-31.6c-8.6-8.8-22.7-8.9-31.5-0.1l-4.6,4.6C-84.8-88.3-96-77-107.1-65.4
				c-11.1,11.6-22.1,23.2-33.1,35.5c-2.7,3.1-5.5,6.3-8.2,9.6l-2.6,3.2c-1.2,1.5-2.3,3.2-3.5,4.7l-1.8,2.4l-1.5,2.5
				c-1,1.7-2.1,3.3-2.5,5l-0.9,2.6l-0.6,2.6c-0.3,1.7-1.1,3.6-0.7,5.4c0.2,3.6,0.6,7.2,2.1,10.8c1.4,3.6,3.2,7.1,5.2,10.5
				c0.5,0.9,1,1.7,1.5,2.5l1.2,2l1.8,2.8c9.4,14.4,19,27.2,28.7,40.1l11.6,15.1l36.4-28.4l-10.9-14.2c-9.4-12.4-20.5-24.7-28.5-36.9
				l-1.8-2.8l1.1-1.4c2.3-2.8,4.7-5.6,7.3-8.5C-96.8-11.6-86-23-75.2-34.3c10.9-11.3,21.9-22.5,33-33.7L-37.6-72.5z"/>
					<path fill="#9B4517" d="M65.7-111.3c-14.7-3.3-39.4,11.8-62.9,11.7c-23.6,0-44.2-15-58.9-11.7c-9.3,2.1-16.7,12-16.7,21.6v156
				H82.4v-156C82.4-99.3,75-109.2,65.7-111.3z"/>
				</g>
				<path fill="#65360D" stroke="#65360D" stroke-width="2" stroke-miterlimit="10" d="M5.6-99.6l0,167.2L5.6-99.6z"/>
				<polyline fill="#65360D" points="8.8,-96.6 -39,-128 -54,-105.6 		"/>
				<polyline fill="#65360D" points="2.6,-96.6 40.8,-128 65.4,-107.1 		"/>
			</g>
		</g>


		<g id="_SAMARRETA_M_1">
			<g>
				<g>
					<g>
						<g>
							<path fill="#047A9A" d="M122.3-62.2c-11.6-12-23.2-23.9-35-35.7l-4.8-4.8c-9.1-9.1-23.8-9.1-32.8,0c-9,9.1-8.9,23.7,0,32.7
						l4.7,4.7C66.1-53.6,77.6-41.9,89-30.1"/>
							<path fill="#047A9A" d="M-79.7-30.5c11.3-11.7,22.8-23.3,34.3-34.8l4.7-4.7c9-9,9.1-23.5,0.1-32.7c-8.9-9.1-23.7-9.2-32.8-0.1
						l-4.8,4.8c-11.7,11.7-23.3,23.4-34.9,35.4"/>
							<path fill="#047A9A" d="M66.9-110.1c-15.3-3.4-38.8-7.5-63.3-7.5c-24.5,0-48.1,4.1-63.4,7.5c-9.7,2.1-17.4,12.4-17.4,22.3V73.5
						H84.2V-87.8C84.2-97.7,76.5-108,66.9-110.1z"/>
						</g>
					</g>
					<polygon fill="#67C0BF" points="-105.4,-70.7 -119.1,-56.1 -86.5,-22.9 -73.1,-36.5 			"/>
					<polygon fill="#67C0BF" points="108.3,-77.2 122.3,-62.6 89.1,-29.4 75.5,-43 			"/>
					<path fill="#67C0BF" d="M44.5-60.9h-6.9c-1.2,0-2.2-1-2.2-2.2v-4.4c0-1.2,1-2.2,2.2-2.2h6.9c1.2,0,2.2,1,2.2,2.2v4.4
				C46.7-61.9,45.7-60.9,44.5-60.9z"/>
				</g>
				<g>
					<path fill="#67C0BF" d="M-54.7-111.6l32.4,27.3l15.4-34.1C-6.9-118.3-51.9-113.5-54.7-111.6z"/>
					<path fill="#67C0BF" d="M61.9-111.8L28.3-83.5L12.9-118C12.9-118,59.1-113.8,61.9-111.8z"/>
				</g>
			</g>
		</g>


		<g id="_PANTALO_M_8">
			<path fill="#70706F" d="M104.9,167.2L83.8,66.4h-162L-95,168.6l82.8,6.3l-1.3-58.3c0.4-6.9,6.1-12.5,12.7-12.5h9.2
		c6.6,0,12.3,5.6,12.7,12.5l-1.4,58.3L104.9,167.2z"/>
		</g>


		<g id="_PANTALO_M_7">
			<g>
				<g>
					<path fill="#99CC99" d="M-55.9,67.1h-14.4v-175.9c0,0,6.4-5.6,14.4-5.7"/>
					<path fill="#99CC99" d="M61.4,67.1h14.4v-175.9c0,0-6.4-5.6-14.4-5.7"/>
					<path fill="#99CC99" d="M95,260l-13-192.8H-75.9L-86.8,260l64.1,10.5l9.7-156.3c0.4-6.5,6-11.7,12.4-11.7h8.9
				c6.4,0,12,5.3,12.4,11.7l9.9,156.3L95,260z"/>
				</g>
			</g>
		</g>


		<g id="_PANTALO_M_6">
			<g>
				<path fill="#3D3D3B" d="M-55.9,67.1h-14.4v-175.9c0,0,6.4-5.6,14.4-5.7"/>
				<path fill="#3D3D3B" d="M61.4,67.1h14.4v-175.9c0,0-6.4-5.6-14.4-5.7"/>
				<path fill="#3D3D3B" d="M89.4,197.3L81.9,67.1H-75.9l-6.6,131.3l64,0.5l5.6-84.8c0.4-6.5,6-11.7,12.4-11.7h8.9
			c6.4,0,12,5.3,12.4,11.7l5,84.8L89.4,197.3z"/>
			</g>
		</g>


		<g id="_PANTALO_M_5">
			<path fill="#ACCCCE" d="M95.7,256.1L82.5,66H-77l-11,190.1l64.8,10.4l9.9-78.1c0.4-6.4,6-11.6,12.5-11.6h9
		c6.5,0,12.1,5.2,12.6,11.6l9.9,78.1L95.7,256.1z"/>
		</g>


		<g id="_PANTALO_M_4">
			<g>
				<g>
					<line fill="#FCD894" x1="81.4" y1="65.9" x2="-75.6" y2="65.9"/>
					<path fill="#0C7A9A" d="M92.5,241.2l-11-175.3h-157L-83,206.2l-1.9,35.1h64.6l7.3-125.1c0.4-6.9,5.9-12.5,12.3-12.5h8.9
				c6.4,0,11.9,5.6,12.4,12.5l7.4,125.1H92.5z"/>
				</g>
				<polygon fill="#61C0C8" points="-83.5,215.8 -84.8,241.2 -20.2,241.2 -18.7,215.8 		"/>
				<polygon fill="#61C0C8" points="90.9,215.8 92.5,241.2 28.1,241.2 26.6,215.8 		"/>
			</g>
		</g>


		<g id="_PANTALO_M_3">
			<g>
				<g>
					<g>
						<line fill="#5F64AA" x1="81.4" y1="65.9" x2="-75.6" y2="65.9"/>
						<path fill="#5F64AA" d="M92.5,241.2l-11-175.3h-157L-83,206.2l-1.9,35.1h64.6l7.3-125.1c0.4-6.9,5.9-12.5,12.3-12.5h8.9
					c6.4,0,11.9,5.6,12.4,12.5l7.4,125.1H92.5z"/>
					</g>
				</g>
			</g>
		</g>


		<g id="_PANTALO_M_2">
			<path fill="#CCCC99" d="M88.6,176.5L80.8,68.1H-74l-7,108.2l63.6,10.3l5.1-72.6c0.4-6.3,5.8-11.4,12.2-11.4h8.8
		c6.3,0,11.8,5.1,12.2,11.4l4.1,72L88.6,176.5z"/>
		</g>


		<g id="_PANTALO_M_1">
			<path fill="#512A14" d="M-72.8-104.2c0,0,15.5-13.5,30.4-10.9v7.3v39v9.8v31.8l90.4,1v-88.9c0,0,22.5,1.6,31,9.6l14.4,333.6
		l-63.2,9.6L20.5,113c-0.4-5.9-5.9-10.7-12.2-10.7h-8.8c-6.4,0-11.8,4.8-12.2,10.7l-9.7,124.7l-63.2-9.6l10.2-261.3L-72.8-104.2z"/>
		</g>


		<g id="_MOUSTACHE_OR_LIPS_M_7">
			<g>
				<path
					fill="#F39669"
					d="M-41-137.3c0.7-5,0.3-21.1,5.6-24c7.9-4.2,22.2-5.2,35.4-5.2c12.5,0,28.5,0.8,37.4,6.2
			c4.2,2.6,5.8,16.7,6.9,21.2c0.7-2.3,7.8-18.5,0.9-27.5c-4.9-6.3-19.6-8.8-23.9-9.3c-6.8-0.8-13.6,2.8-20.4,2.6
			c-7.4-0.2-17.9-4.5-25.2-3.7c-5.6,0.6-14.2,4.3-19.8,10.4C-49.2-160.9-45.4-139.2-41-137.3z"/>
				<g>
					<path fill="#F39669" d="M3.2-140.3c-1.1-0.4-4.1-0.1-5.2-0.1c-1.8,0-1.7,9.9-6.9,12.7c-13,7-40.8,5.6-53.3-9.5
				c-0.8,0.1-25.1-64.7-26.6-67.6l-17.2-12.3c-1.4,30.8-1,73.3,30.2,105.5c14.8,15.2,41.6,21.6,47,23.2c14.9,4.4,24,3.4,30.5,1.3"/>
					<path fill="#F39669" d="M0.9-140.3c1.1-0.4,4.1-0.1,5.2-0.1c1.8,0,1.7,9.9,6.9,12.7c13,7,40.8,5.6,53.3-9.5
				c0.8,0.1,25.1-64.7,26.6-67.6l17.1-12.3c-1.5,28.2,6.9,65.9-30.1,105.5C65.4-96.3,38.4-90.1,33-88.6c-14.9,4.4-24.9,3.4-31.3,1.3
				"/>
				</g>
			</g>
		</g>


		<g id="_MOUSTACHE_OR_LIPS_M_6">
			<g>
				<g>
					<path
						fill="#D3C913"
						d="M-84.3-191c-2,5.2-1.5,42.4,29.9,35.4c8.8-1.9,6.1-13.1,19.2-21.5c9-5.8,22.5-7,37.6-7
				c14.2,0,32.4,1.2,42.5,8.7c4.8,3.6,12,23.9,24.8,19.5c20.7-7.1,17.7-34.3,17.7-34.3s-16.8,28.5-31.5,2.6
				c-7.4-13-16.8-10.9-21.7-11.6c-7.7-1.1-23,5.9-30.7,5.6c-8.4-0.2-20.3-6.3-28.6-5.2c-6.3,0.9-19.1,3.6-26.3,15.5
				C-63.4-163.6-82-182.9-84.3-191z"/>
				</g>
			</g>
		</g>


		<g id="_MOUSTACHE_OR_LIPS_M_5">
			<path
				fill="#512A14"
				d="M-0.9-152.6c7-0.6,9.2,1.9,9.2,1.9l3.5,10C41.2-126.9,38.3-178,38.3-178l7.8-8
		c0,0,26.2,99.7-43.9,108.6c-0.3,0-0.8-0.1-1.1-0.2c0.4,0.1,0.7,0.1,1.1,0.2c-5.6-0.8-11.1-2.1-16.3-4.3c-4.4-1.9-8.6-4.4-12.3-7.5
		c-3.5-2.9-6.5-6.3-9.1-10.1c-2.5-3.7-4.6-7.7-6.3-11.9c-1.7-4.2-3-8.6-4-13c-1-4.4-1.6-8.9-2.1-13.4c-0.4-4.3-0.6-8.7-0.6-13.1
		c0-4,0.1-8,0.4-12c0.2-3.4,0.6-6.8,1-10.2c0.3-2.6,0.7-5.2,1.2-7.8c0.3-1.5,0.5-3,0.9-4.5c0.1-0.3,0.1-0.6,0.2-0.9l7.8,8
		c0,0-2.9,51.2,26.5,37.3l3.5-10c0,0,2.1-2.5,9.2-1.9"/>
		</g>


		<g id="_MOUSTACHE_OR_LIPS_M_4">
			<path
				fill="#2D0E0F"
				d="M107.4-212c-7.8,10.2-16.1,21.1-23.2,31.7c-3.3,4.9-6.1,10-8.9,15.2c-1,1.8-2.6,4.9-4.9,5.5
		c-2.8,0.8-7.2-4.1-9.7-5.6c-3.8-2.2-7.8-4.1-11.9-5.7c-9.4-3.5-20.7-5.2-29.6,0.5c-4.6,2.9-12.6,1.5-17.7,1.3
		c-4.8-0.2-7.9,1.4-12.2-1.3c-10.7-6.8-24.2-3.4-34.8,1.7c-2.7,1.3-5.2,2.7-7.7,4.2c-2.1,1.3-4.1,3.8-6.2,4.8
		c-2.9,1.4-5.3-1-6.6-3.4c-9.5-17-25.1-36-38.5-50.4c0,0-17.6,149.6,75.8,155.3c1.7,0.1,2.9-1.7,4.6-1.8c1.6-0.1,2.9,0.8,3.9,1.8
		c2,1.9,2.7,5,5.6,6.1c6.5,2.6,13.6,1.5,20.5,1.6c6.1,0.1,13,1.5,18.4-2.2c2.6-1.8,4.1-5.1,7-6.5c3.2-1.5,5.5,0.9,8.6,0.7
		c5.4-0.3,11.2-2.2,16.2-4.2c9.6-3.8,17.9-10,24.5-17.6c13.8-15.8,20.5-36.4,24.2-56.4c3.4-18.2,4.4-36.9,3.9-55.4
		C108.5-198.6,108.2-205.3,107.4-212z M41.8-136c0,0-22.8,13.5-29.5,3.8c-0.5-0.7,0.2-2.8-0.4-3.9c-1.9-3.2-8-2.1-10.5-1.8
		c-3,0.3-5.6-1.5-7.5,1.8c-0.7,1.1,0.1,3.2-0.4,3.9c-6.7,9.7-29.5-3.8-29.5-3.8c-39.1-29,27-27.1,37.5-26.6
		C11.8-163.1,80.9-165,41.8-136z"/>
		</g>


		<g id="_MOUSTACHE_OR_LIPS_M_3">
			<path
				fill="#8A6353"
				stroke="#8A6353"
				stroke-miterlimit="10"
				d="M0.3-146.4c5.4-0.3,26.4,4.4,26.4,4.4
		c87,11.9,76.6-74.6,76.6-74.6S158.9-114.6,1.7-90.8h0.5C-152.4-98.1-100-216.6-100-216.6s-11.2,86.5,75.8,74.6
		c0,0,20.9-4.7,26.4-4.4"/>
		</g>


		<g id="_MOUSTACHE_OR_LIPS_M_2">
			<g>
				<path fill="#2B1012" d="M2.5-160.2c-1.1-0.4-4-0.1-5.2-0.1c-1.8,0-1.7,9.7-6.8,12.4c-12.9,6.8-40.3,5.5-52.8-9.3
			c-0.8,0.1-16.5-44-18-46.8l-25.3-8.7c-1.4,30.1-1,49,29.9,80.4c14.6,14.9,41.1,21.1,46.4,22.6c14.7,4.2,23.8,3.4,30.2,1.3"/>
				<path fill="#2B1012" d="M0.2-160.2c1.1-0.4,4-0.1,5.2-0.1c1.8,0,1.7,9.7,6.8,12.4c12.9,6.8,40.3,5.5,52.8-9.3
			c0.8,0.1,17.7-45.2,19.2-48l25.2-7.4c-1.5,27.5,5.7,41.7-30.9,80.3c-14.4,15.1-41.1,21.1-46.4,22.6c-14.7,4.2-24.6,3.4-31,1.3"/>
			</g>
		</g>


		<g id="_MOUSTACHE_OR_LIPS_M_1">
			<g>
				<circle fill="#B57C36" stroke="#B57C36" stroke-width="0.5" stroke-miterlimit="10" cx="10.7" cy="-261.2" r="2.9"/>
				<circle fill="#B57C36" stroke="#B57C36" stroke-width="0.5" stroke-miterlimit="10" cx="18.3" cy="-241.4" r="2.9"/>
				<circle fill="#B57C36" stroke="#B57C36" stroke-width="0.5" stroke-miterlimit="10" cx="-14.2" cy="-258.2" r="2.9"/>
				<circle fill="#B57C36" stroke="#B57C36" stroke-width="0.5" stroke-miterlimit="10" cx="0.6" cy="-247.4" r="2.9"/>
				<circle fill="#B57C36" stroke="#B57C36" stroke-width="0.5" stroke-miterlimit="10" cx="2.6" cy="-228.7" r="2.9"/>
				<circle fill="#B57C36" stroke="#B57C36" stroke-width="0.5" stroke-miterlimit="10" cx="-11.3" cy="-216.8" r="2.9"/>
				<circle fill="#B57C36" stroke="#B57C36" stroke-width="0.5" stroke-miterlimit="10" cx="-14.2" cy="-238.5" r="2.9"/>
				<circle fill="#B57C36" stroke="#B57C36" stroke-width="0.5" stroke-miterlimit="10" cx="21.3" cy="-222.9" r="2.9"/>
				<circle fill="#B57C36" stroke="#B57C36" stroke-width="0.5" stroke-miterlimit="10" cx="-29" cy="-247.4" r="2.9"/>
				<circle fill="#B57C36" stroke="#B57C36" stroke-width="0.5" stroke-miterlimit="10" cx="-26.1" cy="-229.7" r="2.9"/>
				<circle fill="#B57C36" stroke="#B57C36" stroke-width="0.5" stroke-miterlimit="10" cx="27.2" cy="-252" r="2.9"/>
				<circle fill="#B57C36" stroke="#B57C36" stroke-width="0.5" stroke-miterlimit="10" cx="30.1" cy="-234.2" r="2.9"/>
				<circle fill="#B57C36" stroke="#B57C36" stroke-width="0.5" stroke-miterlimit="10" cx="7.7" cy="-211.8" r="2.9"/>
			</g>
		</g>


		<g id="_ULLERES_M_9">
			<path
				fill="#3399CC"
				d="M-106.1-257.1c2.6,0.7,9.9,22.5,13.9,33.5c4,11.1,9.9,15.3,19.2,18.3
		c18.6,3.7,36.6-1.1,42-3.3c5.4-2.2,9.2-8.2,12.9-15c3.6-6.8,12.1-28.8,14.2-33.3l10.3,0c2.1,4.5,10.6,26.5,14.3,33.3
		c3.7,6.8,7.4,12.8,12.9,15c5.4,2.2,23.4,7,42,3.3c9.3-3,15.2-7.2,19.2-18.3c4-11.1,11.1-30.8,12.2-33.5c0.6-1.5,1.4-1.2,1.4-1.2
		v-17.5c0,0-5.9-3.4-18.8-4.2c-13-0.7-41.3-1.4-53.8-0.1c-12.6,1.2-15.1,2.1-17,3.7c-2,1.6-2.8,4-6.4,4.6h-22
		c-3.6-0.6-4.4-3-6.4-4.6c-2-1.6-4.5-2.5-17.1-3.7c-12.6-1.2-40.9-0.6-53.8,0.1c-13,0.7-19.1,5.9-19.1,5.9 M-16.1-240.8
		c-3.8,13.1-7.7,23-15,26.9c-7.4,3.9-35.3,10.7-48.2,0.5c-2.5-2-9.9-10.2-11.3-26.2c-1.3-16-2.9-24.5,6.2-29c0,0,17.9-6.5,32.2-6.4
		c16.2,0.1,30.4,2.8,33.7,7.4C-15.3-263.1-11.5-257.4-16.1-240.8z M93.2-239.7c-1.3,16-8.7,24.2-11.3,26.2
		c-12.9,10.2-40.8,3.4-48.2-0.5c-7.4-3.9-11.2-13.7-15-26.9c-4.6-16.6-0.8-22.3,2.4-26.9c3.2-4.6,17.5-7.3,33.7-7.4
		c14.3-0.1,32.2,6.4,32.2,6.4C96.1-264.1,94.5-255.6,93.2-239.7z"/>
		</g>


		<g id="_ULLERES_M_8">
			<g>
				<path fill="none" stroke="#9C9A9B" stroke-width="4" stroke-miterlimit="10" d="M-17.1-249.8h-69.2c-4.2,0-7.6-3.4-7.6-7.6v-13.9
			c0-4.2,3.4-7.6,7.6-7.6h69.2c4.2,0,7.6,3.4,7.6,7.6v13.9C-9.5-253.2-12.9-249.8-17.1-249.8z"/>
				<path fill="none" stroke="#9C9A9B" stroke-width="4" stroke-miterlimit="10" d="M85.3-249.8h-65c-4.2,0-7.6-3.4-7.6-7.6v-13.9
			c0-4.2,3.4-7.6,7.6-7.6h65c4.2,0,7.6,3.4,7.6,7.6v13.9C92.9-253.2,89.5-249.8,85.3-249.8z"/>
				<line fill="none" stroke="#9C9A9B" stroke-width="4" stroke-miterlimit="10" x1="-9.5" y1="-264.3" x2="12.7" y2="-264.3"/>
				<line fill="none" stroke="#9C9A9B" stroke-width="4" stroke-miterlimit="10" x1="92.9" y1="-264.3" x2="108.4" y2="-264.3"/>
				<line fill="none" stroke="#9C9A9B" stroke-width="4" stroke-miterlimit="10" x1="-93.9" y1="-264.3" x2="-106.2" y2="-264.3"/>
			</g>
		</g>


		<g id="_ULLERES_M_7">
			<g>
				<path fill="#261911" d="M1.1-256.1"/>
				<path fill="#3D3D3B" d="M-91.8-246.2c-0.4-7.5-14.4-5.4-14.4-5.4v-9.5l14.9-2.9"/>
				<path
					fill="#3D3D3B"
					d="M-49.7-209.6c-24.4,0-44.2-20.5-44.2-45.6c0-25.1,19.8-45.6,44.2-45.6c24.4,0,44.2,20.5,44.2,45.6
			C-5.4-230-25.3-209.6-49.7-209.6z M-49.7-295.4c-21.5,0-39,18.1-39,40.3s17.5,40.3,39,40.3c21.5,0,39-18.1,39-40.3
			S-28.2-295.4-49.7-295.4z"/>
				<path fill="#3D3D3B" d="M94.2-246.2c0.4-7.5,14-5.2,14-5.2l0-9.7l-14.6-3"/>
				<path
					fill="#3D3D3B"
					d="M51.8-209.6c-24.4,0-44.2-20.5-44.2-45.6c0-25.1,19.8-45.6,44.2-45.6c24.4,0,44.2,20.5,44.2,45.6
			C96-230,76.2-209.6,51.8-209.6z M51.8-295.4c-21.5,0-39,18.1-39,40.3s17.5,40.3,39,40.3c21.5,0,39-18.1,39-40.3
			S73.3-295.4,51.8-295.4z"/>
				<g>
					<polyline fill="#3D3D3B" points="-9.9,-254.1 0.7,-254.1 -0.4,-254.1 10.2,-254.1 10.2,-261.9 -0.4,-261.9 0.7,-261.9
				-9.9,-261.9 			"/>
				</g>
			</g>
		</g>


		<g id="_ULLERES_M_6">
			<path
				fill="#CC6634"
				d="M108.7-257.1c-0.7-1-2-0.8-2.6-3.1c-0.6-2.4-6.5-18.4-13.1-22.1c-6.5-3.7-19-9.9-49.4-12.1
		c-23.5-0.6-37.7-1.1-41.7-1.2v0c0,0-0.2,0-0.6,0c-0.4,0-0.6,0-0.6,0v0c-4,0.1-18.2,0.6-41.7,1.2c-30.4,2.2-42.9,8.4-49.4,12.1
		c-6.5,3.7-12.4,19.7-13.1,22.1c-0.6,2.4-1.9,2.2-2.6,3.1c-0.7,1,0.1,6.7,2.4,10.4c2.5,20.6,11,32.4,16.2,38.6
		c5.3,6.3,19.8,9.3,29.9,8.8c22.3-3.9,26.1-10.8,35.8-20.5c9.7-9.7,17.4-36.2,18.5-39.3c0.9-2.3,3.4-3.1,4.5-3.3
		c1.2,0.3,3.7,1.1,4.5,3.3c1.1,3,8.8,29.6,18.5,39.3c9.7,9.7,13.5,16.6,35.8,20.5c10.1,0.4,24.7-2.6,29.9-8.8
		c5.3-6.3,13.7-18,16.2-38.6C108.6-250.4,109.4-256.2,108.7-257.1z M-10.6-253.2c-1.7,7.8-7.6,23.5-14.3,31.1
		c-6.7,7.6-11.1,14.3-28.2,18.1c-9.8,1.3-24.3,0.2-31.1-8c-6.7-8.2-13.5-21.2-13.5-33.6c0-12.4,0.8-16.9,0.8-16.9s4-14,14.5-18.6
		c10.5-4.5,27.4-7.6,45.7-6.3c18.3,1.3,24.5,4.3,25.9,8.4C-9.1-274.8-8.9-261-10.6-253.2z M86.6-212c-6.7,8.2-21.3,9.3-31.1,8
		c-17-3.8-21.4-10.6-28.2-18.1c-6.7-7.5-12.6-23.3-14.3-31.1c-1.7-7.8-1.5-21.6,0-25.7c1.5-4.1,7.6-7.1,25.9-8.4
		c18.3-1.3,35.2,1.7,45.7,6.3c10.5,4.5,14.5,18.6,14.5,18.6s0.8,4.5,0.8,16.9C100.1-233.2,93.4-220.2,86.6-212z"/>
		</g>


		<g id="_ULLERES_M_5">
			<g>
				<path
					fill="#65360D"
					d="M-106.1-244.9c0,0,14.7-0.4,18.4,14.6c0,0,6.9,36.4,37,35c26.6,1.2,35.1-27.1,36.7-33.7
			c3.4-13,13.2-13.9,15.2-14c2.1,0.1,11.9,1,15.2,14c1.6,6.6,10.1,34.9,36.7,33.6c30.1,1.4,37-35,37-35c3.6-15,18.3-14.1,18.3-14.1
			V-258l-1.4,0.1c-1.6,0-12.2-0.6-15.5-14.4l0.4,1.4l-0.5-1.4c0,0-41.3-29.6-81.3,7.6l-8.9-0.2l-8.9,0.2c-40-37.2-81.3-7.6-81.3-7.6
			c-3.3,13.8-15.4,14.4-17.1,14.4 M-19.1-228.7c0,0-5.7,27.1-30.7,26c-21.7,0.9-28.9-19.3-30.4-24.7l0,0l0,0
			c-0.2-0.8-0.3-1.3-0.3-1.3l0.3,1.3l0,0c-2.3-8.4-0.3-21-0.3-21s5.7-27.1,30.7-26c23.2-1,29.8,22.3,30.6,25.6l0,0
			c0,0,2.2,7.7-0.2,21.4L-19.1-228.7z M0.8-242.9c0,0,0.1,0,0.3,0H0.8z M1.4-242.9c0.2,0,0.3,0,0.3,0H1.4z M84.9-229.5
			c0,0-5.7,27.1-30.7,26c-21.7,0.9-28.9-19.3-30.4-24.7l0,0l0,0c-0.2-0.8-0.3-1.3-0.3-1.3l0.3,1.3l0,0c-2.3-8.4-0.3-21-0.3-21
			s5.7-27.1,30.7-26c23.2-1,29.8,22.4,30.6,25.6l0,0c0,0,2.2,7.7-0.2,21.4L84.9-229.5z"/>
				<path fill="#65360D" d="M-104.8-257.9"/>
				<path fill="#65360D" d="M0.3-264.9"/>
			</g>
		</g>


		<g id="_ULLERES_M_4">
			<g>
				<path
					fill="#3D3F91"
					d="M107.8-269c0-0.7-0.4-1.2-1-1.3c-0.5-0.1-0.9-0.3-1.4-0.3c-6.7-1.1-13.4-2.2-20.1-2.6
			c-5.4-0.4-10.8-0.6-16.2-0.9c-10.4-0.5-20.8-0.2-31.1,1.1c-6.3,0.8-12.6,2-18.6,4.1c-3.1,1-6.1,2.2-9.2,3.3
			c-4.8,1.6-9.7,2.3-14.7,1.3c-3-0.6-5.9-1.5-8.9-2.5c-5.3-1.8-10.5-3.5-15.9-4.6c-10.6-2-21.3-3-31.2-2.9c-8.1,0-15.4,0.3-22.7,1.2
			c-6,0.7-11.9,1.6-17.8,2.4c-1.3,0.2-2.5,0.6-3.7,0.9c-0.7,0.2-1.1,0.6-1.1,1.4c-0.1,3.7-0.2,7.3-0.3,11c0,0.6,0.1,1.1,0.2,1.7
			c0.1,0.5,0.3,0.8,0.7,1c0.5,0.2,0.9,0.4,1.3,0.7c2,1.4,2.9,3.6,3.6,5.8c0.5,1.6,0.9,3.2,1.3,4.9c0.3,1,0.6,2,0.9,3
			c1,4.8,2,9.6,3,14.3c1,4.5,2.3,9,4.4,13.2c2.3,4.7,5.7,8.2,10.4,10.3c2.9,1.2,5.8,2,8.9,2.5c5.5,0.9,10.9,1,16.5,0.6
			c5.6-0.4,11.1-1.3,16.4-3c4-1.3,7.7-3,10.9-5.8c4.9-4.3,8.8-9.5,11.8-15.4c3-5.9,5.1-12.2,7-18.5c0.5-1.8,1.1-3.7,1.7-5.5
			c0.9-2.6,2.7-4.3,5.5-4.7c0.9-0.1,1.8-0.2,2.6-0.1c2,0.1,4,0.6,5.3,2.3c0.6,0.8,1.1,1.6,1.5,2.5c0.7,1.7,1.4,3.5,2,5.3
			c2.4,7.9,5.5,15.3,9.5,22.5c3.3,5.9,7.7,10.7,13.5,14c4.1,2.3,8.5,3.8,13,4.7c6.9,1.4,13.8,1.7,20.8,1.4c4.2-0.2,8.4-0.7,12.4-2
			c4.2-1.3,7.8-3.4,10.5-7c1.8-2.3,3.1-4.9,4.2-7.7c2.3-5.8,3.7-11.8,5.1-17.8c0.6-3,1.3-5.9,2-8.9c0.4-1.5,0.8-3.1,1.2-4.6
			c0.4-1.4,0.7-2.9,1.6-4.1c0.9-1.2,1.8-2.5,3.2-3c0.6-0.2,1-0.7,1.1-1.3c0.1-0.5,0.2-1,0.2-1.5c0-2.2,0-4.4-0.1-6.6
			C108.1-265.9,107.9-267.4,107.8-269 M-17.8-238.9c-1.4,6.4-3.8,12.4-7,18c-1.7,3.1-3.7,6-6.2,8.5c-3.3,3.3-7.3,5.2-11.6,6.4
			c-8.8,2.4-17.7,3-26.8,1.6c-1.8-0.3-3.5-0.8-5.2-1.2c-3.6-1-6.3-3.1-8.4-6.3c-2.3-3.5-3.7-7.4-4.6-11.6
			c-1.2-5.4-1.9-10.8-2.4-16.3c-0.3-3.2-0.2-6.4,0.1-9.5c0.2-1.6,0.3-3.2,0.7-4.8c1.2-5.6,4.5-9.1,9.8-10.5
			c4.8-1.3,9.8-2.1,14.7-2.5c3.7-0.3,7.4-0.5,9.8-0.6c8.5,0.1,15.6,0.7,22.6,2.4c2.9,0.7,5.8,1.3,8.4,2.8c1.3,0.7,2.5,1.6,3.7,2.5
			c1.9,1.6,2.8,3.8,3.2,6.2C-16.2-248.9-16.7-243.9-17.8-238.9 M92-241.3c-0.2,7.7-1.4,15.2-4.1,22.5c-1.1,2.9-2.5,5.6-4.7,7.8
			c-2.4,2.5-5.5,3.8-8.7,4.7c-4,1.1-8.2,1.4-12.3,1.4c-6.3,0.1-12.5-0.8-18.6-2.1c-6.1-1.3-10.9-4.7-14.8-9.7
			c-4.9-6.4-8.1-13.7-9.9-21.7c-0.8-3.7-1.5-7.4-1.4-11.2c0-1.6,0.2-3.3,0.5-4.9c0.7-4,3.1-6.7,6.7-8.2c3.6-1.5,7.3-2.4,11.1-3.2
			c4.2-0.9,8.5-1.5,12.8-1.8c3.4-0.2,6.7-0.3,9-0.4c9,0.5,16.8,1.1,24.5,3.4c1.4,0.4,2.7,1.1,4.1,1.7c1.3,0.6,2.2,1.6,2.9,2.9
			c0.7,1.4,1.4,2.9,1.9,4.4c0.6,1.8,0.8,3.6,0.8,5.5C92-247.2,92.1-244.3,92-241.3 M99.1-262.1"/>
			</g>
		</g>


		<g id="_ULLERES_M_3">
			<path
				fill="#651511"
				d="M108.4-282.3c0,0-4.5-0.8-50.3,2.2C19.7-277.6,5-265.7,1.3-265.7c-3.7,0-18.4-11.9-56.8-14.4
		c-45.9-3-50.3-2.2-50.3-2.2s-1.3,15.8,0,18.2c1.3,2.4,2.1,20.5,3,26.9c1,6.4,3,18.3,9.9,25.2c6.8,6.8,17.7,11.3,29.6,12.6
		c16.4,0.8,21.5-0.1,33.6-7.3c12.1-7.2,19.9-28.9,21.1-32.9c1.3-4,3.1-10.3,4.4-12.4c1.1-1.7,3-2.3,4.5-2.4v0.1c0,0,0.4-0.1,1-0.1
		c0.6,0,1,0.1,1,0.1v-0.1c1.5,0.1,3.5,0.6,4.5,2.4c1.3,2.2,3.1,8.4,4.4,12.4c1.3,4,9.1,25.8,21.1,32.9c12.1,7.2,17.2,8.1,33.6,7.3
		c11.9-1.3,22.8-5.7,29.6-12.6c6.8-6.8,8.9-18.8,9.9-25.2c1-6.4,1.8-24.5,3-26.9C109.7-266.5,108.4-282.3,108.4-282.3z M-15-249.8
		c-1.1,5.7-3.3,24.2-14.7,33.9c-5.6,4.9-12.2,10.2-24.6,10.5c-9,0.2-26.9-2.1-33.8-10.8c-3.2-4.9-8-10.4-8.1-24.1
		c-0.2-13.7-0.2-24.5,2.4-27.2c0,0,4.5-5.6,9.4-6.7c4.9-1.1,19-1.9,33,1c14,2.9,27.4,7.3,30.9,10.4C-17.1-259.9-13.9-255.6-15-249.8
		z M98.7-240.3c-0.2,13.7-4.9,19.1-8.1,24.1c-6.8,8.8-24.8,11-33.8,10.8c-12.5-0.3-19.1-5.6-24.7-10.5
		c-11.3-9.7-13.5-28.2-14.6-33.9c-1.1-5.7,2.1-10,5.6-13.1c3.5-3,16.9-7.5,30.9-10.4c14-2.9,28-2.1,33-1c4.9,1.1,9.4,6.7,9.4,6.7
		C98.9-264.8,98.9-254,98.7-240.3z"/>
		</g>


		<g id="_ULLERES_M_2">
			<g>
				<g>
					<path
						fill="#595858"
						d="M107.8-274.3c0-0.8-0.4-1.2-1-1.4c-0.5-0.1-0.9-0.3-1.4-0.4c-6.7-1.2-13.4-2.3-20.1-2.8
				c-5.4-0.4-10.8-0.7-16.2-1c-10.4-0.5-20.8-0.3-31.1,1.2c-6.3,0.9-12.6,2.2-18.6,4.3c-3.1,1.1-6.1,2.4-9.2,3.5
				c-4.8,1.7-9.7,2.5-14.7,1.4c-3-0.6-5.9-1.6-8.8-2.6c-5.2-1.9-10.5-3.8-15.9-4.9c-10.6-2.2-21.2-3.2-31.2-3.1
				c-8.1,0-15.4,0.3-22.6,1.3c-5.9,0.8-11.9,1.7-17.8,2.6c-1.3,0.2-2.5,0.6-3.7,1c-0.7,0.2-1.1,0.7-1.1,1.5
				c-0.1,3.9-0.2,7.8-0.3,11.7c0,0.6,0.1,1.2,0.2,1.8c0.1,0.5,0.3,0.8,0.7,1.1c0.5,0.2,0.9,0.4,1.3,0.8c1.9,1.5,2.9,3.8,3.6,6.2
				c0.5,1.7,0.9,3.5,1.3,5.2c0.3,1.1,0.6,2.1,0.9,3.2c1,5.1,2,10.2,3,15.3c1,4.9,2.3,9.6,4.4,14.1c2.3,5,5.7,8.8,10.4,11
				c2.9,1.3,5.8,2.2,8.9,2.7c5.5,1,10.9,1.1,16.4,0.6c5.6-0.4,11.1-1.4,16.4-3.2c4-1.3,7.7-3.2,10.9-6.2c4.9-4.6,8.8-10.1,11.8-16.4
				c3-6.3,5.1-13,7-19.8c0.5-1.9,1.1-3.9,1.7-5.8c0.9-2.8,2.7-4.6,5.4-5c0.9-0.1,1.7-0.2,2.6-0.1c2,0.1,4,0.6,5.3,2.5
				c0.6,0.8,1.1,1.7,1.5,2.7c0.7,1.9,1.4,3.8,2,5.7c2.4,8.4,5.5,16.4,9.5,24c3.3,6.3,7.7,11.4,13.5,14.9c4.1,2.5,8.5,4.1,13,5.1
				c6.9,1.5,13.8,1.8,20.7,1.5c4.2-0.2,8.4-0.8,12.4-2.1c4.2-1.4,7.8-3.6,10.5-7.5c1.8-2.5,3.1-5.3,4.2-8.2c2.3-6.2,3.7-12.6,5-19.1
				c0.6-3.2,1.3-6.3,2-9.5c0.4-1.7,0.8-3.3,1.2-4.9c0.4-1.5,0.7-3.1,1.6-4.4c0.9-1.3,1.8-2.6,3.2-3.2c0.6-0.3,1-0.7,1.1-1.4
				c0.1-0.5,0.2-1.1,0.2-1.6c0-2.3,0-4.7-0.1-7C108.1-270.9,107.9-272.6,107.8-274.3 M-97-266.9 M-64.6-272.4 M91.9-254.1
				c0.1,3.2,0.2,6.3,0.2,9.5 M86.2-267.8 M48.7-272.9c3.3-0.2,6.7-0.3,9-0.5 M24.9-267.5 M92-244.7 M99.1-266.9"/>
				</g>
			</g>
		</g>


		<g id="_ULLERES_M_1">
			<g>
				<path
					fill="#3D3D3B"
					d="M109-256.9c-0.7-1-2-0.8-2.6-3.1c-0.6-2.4-6.5-18.6-13-22.3c-6.5-3.7-19-10-49.3-12.2
			c-23.4-0.6-37.6-1.1-41.6-1.3v0c0,0-0.2,0-0.6,0c-0.4,0-0.6,0-0.6,0v0c-4,0.2-18.2,0.7-41.6,1.3c-30.3,2.2-42.8,8.5-49.3,12.2
			c-6.5,3.7-12.4,19.9-13,22.3c-0.6,2.4-1.9,2.2-2.6,3.1c-0.7,1,0.1,6.7,2.4,10.4c2.5,20.7,10.9,32.6,16.2,38.9
			c5.3,6.3,19.8,9.3,29.9,8.9c22.3-3.9,26.1-10.9,35.7-20.6c9.7-9.8,17.3-36.5,18.4-39.5c0.9-2.3,3.4-3.1,4.5-3.4
			c1.2,0.3,3.7,1.1,4.5,3.4c1.1,3,8.8,29.8,18.4,39.5c9.7,9.8,13.5,16.7,35.7,20.6c10.1,0.4,24.6-2.6,29.9-8.9
			c5.3-6.3,13.7-18.1,16.2-38.9C108.9-250.2,109.7-256,109-256.9z M-10-253c-1.7,7.8-7.6,23.7-14.3,31.3
			c-6.7,7.6-11.1,14.4-28.1,18.2c-9.7,1.3-24.2,0.2-31-8c-6.7-8.3-13.5-21.3-13.5-33.8c0-12.5,0.8-17,0.8-17s4-14.1,14.5-18.7
			c10.5-4.6,27.3-7.6,45.6-6.3c18.3,1.3,24.4,4.3,25.9,8.5C-8.5-274.8-8.3-260.9-10-253z M87-211.5c-6.7,8.3-21.2,9.3-31,8
			c-17-3.8-21.4-10.6-28.1-18.2c-6.7-7.6-12.6-23.5-14.3-31.3c-1.7-7.8-1.5-21.7,0-25.9c1.5-4.1,7.6-7.2,25.9-8.5
			c18.3-1.3,35.1,1.7,45.6,6.3c10.5,4.6,14.5,18.7,14.5,18.7s0.8,4.6,0.8,17C100.5-232.9,93.8-219.8,87-211.5z"/>
				<path
					fill="#9A9999"
					stroke="#3D3D3B"
					stroke-miterlimit="10"
					d="M89.4-211.6c-7,8.5-22.1,9.6-32.3,8.2
			c-17.7-3.9-22.3-10.9-29.3-18.7c-7-7.8-13.1-24.1-14.9-32.1c-1.8-8-1.5-22.3,0-26.5c1.5-4.2,7.9-7.4,26.9-8.7
			c19.1-1.3,36.6,1.8,47.5,6.5c11,4.7,15.1,19.2,15.1,19.2s0.9,4.7,0.9,17.5C103.4-233.5,96.4-220.1,89.4-211.6z"/>
				<path
					fill="#9A9999"
					stroke="#3D3D3B"
					stroke-miterlimit="10"
					d="M-99.3-246.3c0-12.8,0.9-17.5,0.9-17.5s4.1-14.5,15.1-19.2
			c10.9-4.7,28.4-7.8,47.3-6.5c19,1.3,25.3,4.5,26.8,8.7c1.5,4.2,1.7,18.5,0,26.5c-1.7,8-7.9,24.3-14.8,32.1
			c-7,7.8-11.5,14.8-29.2,18.7c-10.1,1.3-25.2,0.2-32.1-8.2C-92.3-220.1-99.3-233.5-99.3-246.3z"/>
			</g>
		</g>


		<g id="_CABELL_M_9">
			<g>
				<path
					fill="#2F1333"
					d="M130.7-366.7c-13.7-6.4-28.8-11.9-28.8-11.9s-3.4-19.2-8.8-31.1c-5.4-11.9-14.2-31.1-27.4-36.1
			c-20.5-7.8-64.5-7.8-64.5-7.8s-40.6,0-64.5,7.8c-13.4,4.4-22,24.2-27.4,36.1c-5.4,11.9-8.8,31.1-8.8,31.1s-15.1,5.5-28.8,11.9
			c-13.7,6.4-23.5,17.4-26.4,29.3c4.4,36.6,49.6,52.1,49.6,52.1s5.2-30.2,7.6-40.7c2.4-10.5,7.8-15.1,28.8-22.9
			c21-7.8,69.9-10.5,69.9-10.5s48.9,2.8,69.9,10.5c21,7.8,26.4,12.3,28.8,22.9c2.4,10.5,7.6,40.7,7.6,40.7s45.2-15.5,49.6-52.1
			C154.2-349.3,144.4-360.3,130.7-366.7z"/>
				<path fill="#531E53" d="M101.9-378.6c0,0-3.4-19.2-8.8-31.1c-5.4-11.9-14.2-31.1-27.4-36.1c-20.5-7.8-64.5-7.8-64.5-7.8
			s-40.6,0-64.5,7.8c-13.4,4.4-22,24.2-27.4,36.1c-5.4,11.9-8.8,31.1-8.8,31.1S6.8-407,101.9-378.6z"/>
			</g>
		</g>


		<g id="_CABELL_M_8">
			<g>
				<g>
					<path fill="#3D3D3B" d="M0.9-325.4c0,0-62.3-51.5-108.4,21.7c0,0,2.4-84.7,88.2-89.2h40.5"/>
					<path fill="#3D3D3B" d="M0.9-325.4c0,0,62.9-51.9,108.6,19.7c0,0-3.3-82.2-87.4-86.9h-40.2"/>
				</g>
			</g>
		</g>


		<g id="_CABELL_M_7">
			<g>
				<path fill="#FDCC68" d="M3.5-400.7c0,0-11.2,82.3-107,115.1C-161.4-265.7-81.7-445.3,3.5-400.7z"/>
				<path fill="#FDCC68" d="M-3.2-400.7c0,0,19.8,92.1,108.8,115.1C165-270.2,82.1-445.3-3.2-400.7z"/>
				<polyline fill="#FDCC68" points="-92.8,-290.9 -86.6,-207.7 -106.7,-207.7 -106.7,-297.2 		"/>
				<polyline fill="#FDCC68" points="94,-296.2 87.9,-208.4 107.9,-208.4 107.9,-302.6 		"/>
			</g>
		</g>


		<g id="_CABELL_M_6">
			<path
				fill="#3D3D3B"
				d="M50.9-339.2c-4.5,23.4,20,3.6,20,3.6C66.3-301.3,85.7-295,85.7-295
		c14.3,3,6.5,56.7,6.5,56.7c0.4,6.1,3.6,0,3.6,0c29.8-31.7,33.2-71.9,33.2-71.9c0.6-6.9,1.2-13.3,0-20.1c-1.1-6.4-3.2-12.6-6.1-18.3
		c-5.7-11.6-14.3-21.5-23.7-30.1c-8.5-7.7-17.9-14.5-27.7-20.4c-5.9-3.6-11.9-6.9-18.1-9.8c-3.5-1.6-1.9-9.6-1.3-12.8
		c1-5.1,3.1-10,6.7-13.7c0.7-0.7-1.6-4.5-2-5.2c-0.9-1.7-2-3.3-3.4-4.7c-3.7-4-8.7-6.3-14-7.1c-9.2-1.4-18.6,1.3-27.1,4.7
		c-16,6.4-30.6,16.5-44.3,26.9c-2.3,1.8-4.7,3.6-7,5.5c-2.1,1.7-4.6,4.7-7,5.7c-0.1,0-87.5,37.9-77.2,99.5c0,0,3.4,40.2,33.2,71.9
		c0,0,3.2,6.1,3.6,0c0,0-7.8-53.7,6.5-56.7c0,0,19.5-6.3,14.8-40.5c0.1,0.6,3,1.9,3.4,2.1c2.4,1.2,5,2.1,7.7,2.2
		c1.9,0,3.8-0.5,5.4-1.6c0.9-0.6,1.7-1.5,2.4-2.4c0.8-1.1,1-2.9,2.4-3.5c0.3-0.1,0.7-0.2,1-0.3c1.2-0.3,2.3-0.6,3.5-1
		c3.9-1,7.8-2,11.7-3c5.3-1.3,10.6-2.5,16-3.6c5.9-1.2,11.9-2.3,17.9-3.2c5.8-0.9,11.7-1.6,17.5-1.8c4.9-0.2,9.9-0.3,14.8,0.5
		c3.4,0.5,7.1,1.4,9.8,3.8C50.8-345.2,51.5-342.2,50.9-339.2z"/>
		</g>


		<g id="_CABELL_M_5">
			<path fill="#595858" d="M-112.7-366.8c0,0-20.1,51.5,19.6,61.7c0,0,106.4,32.3,202.5-6c0,0,20.9-14.9,4.7-55.7
		C114.1-366.8,51.4-340.3-112.7-366.8z"/>
			<path fill="#9A3334" d="M114.1-366.8c7-2.5-10.3-11.9-10.3-11.9c11-22.3-10.7-77.7-11.4-79.5C75.6-502.5,3.2-502.1-40.4-473
		c-30,20-61.5,63.9-72.5,96.7c-2.6,7.7,0.3,9.4,0.3,9.4C-112.7-366.8,24.6-335.3,114.1-366.8z"/>
		</g>


		<g id="_CABELL_M_4">
			<path
				fill="#CC6634"
				d="M-8-364.8c-5.6,26.6-82.3,46.4-82.3,46.4c21.9,22.5-0.5,21.8,4.1,43.6
		c4.6,21.8-2.8,46.4-2.8,46.4c0.9,5.2-2,1.5-2,1.5c-59.1-109.4-13.8-114.7-13.8-114.7c-8.3-39.8,36.1-52.6,36.1-52.6
		s3.7-9.6,11.4-14.6c0,0,78.7-54.3,137.6,14.6c0,0,44.4,12.9,36.1,52.6c0,0,45.3,5.3-13.8,114.7c0,0-2.9,3.7-2-1.5
		c0,0-7.4-24.6-2.8-46.4c4.6-21.8-17.8-21.1,4.1-43.6C101.6-318.4-2.3-338.2-8-364.8"/>
		</g>


		<g id="_CABELL_M_3">
			<path
				fill="#3D3D3B"
				d="M-30-345.3c0,0,1.2-90.8,116.1-17.8l67.4-94.5l-2.9-5.9l-39.2,51.2l21-59.7
		c0,0-49.1-55.1-131.6-60.6l5.4,47.1l-22.8-47.1c0,0-97.8,5-123.7,29.4c0,0,58.7,38.6,79.7,80.3c0,0-68.8-55.5-113.1-52.6
		C-173.8-475.6-27.2-420.7-30-345.3z"/>
		</g>


		<g id="_CABELL_M_2">
			<path
				fill="#805E39"
				d="M117.1-345.8c17.1-19,31.7-51.2,24.9-76.3c-0.3-1.1-2-1.9-3.1-1.2
		c-15.5,11-32.3,18.9-51.4,22.6c-21,4.1-42.5,2.2-63.7,0.8c-36.8-2.4-76.4-2.2-106,21.6c-25.2,20.2-32.5,62.6-24.6,92.1
		c0,0.4,0.2,0.8,0.5,1.1c0.5,0.7,1.4,0.8,2.2,0.6c0.5-0.1,0.9-0.3,1.2-0.7c0,0,0.1-0.1,0.1-0.1c0,0,0-0.1,0.1-0.1
		c0-0.1,0.1-0.2,0.1-0.3c0,0,0,0,0-0.1c4.7-13.7,11.4-33.7,24.9-41.4c10.7-6.1,24-5.3,35.8-3.3c26.4,4.5,50.9,14.2,77.8,16.3
		c15.3,1.2,30.7-0.5,45.1-5.5c3.7-1.3,7.2-2.9,10.4-4.7c0.6,1.3,1.1,2.5,1.6,3.6c4,9.3,6.4,25.1,10.4,34.5c0.8,1.8,3.3,1.9,4,0
		c5.9-14.7,6.4-36.6,1.7-51.3C111.8-340.1,114.5-342.9,117.1-345.8z"/>
		</g>


		<g id="_CABELL_M_1">
			<g>
				<polyline
					fill="#2D0E0F"
					points="-132.2,-83.3 -125.5,-95.1 -125.5,-94.7 -128.1,-81.4 -115.8,-76.2 -52.8,-164.2 -84.3,-208.6
				-165.9,-119.8 -157.5,-108.6 -149.4,-113.4 -148.9,-112.8 -158,-103.7 -147.6,-93.9 -138.1,-103.5 -137.1,-103.7 -143.7,-91.9
							"/>
				<circle fill="#2D0E0F" cx="-160.1" cy="-115.4" r="8.3"/>
				<circle fill="#2D0E0F" cx="-152" cy="-99.7" r="8.3"/>
				<circle fill="#2D0E0F" cx="-137.6" cy="-88" r="8.3"/>
				<circle fill="#2D0E0F" cx="-121" cy="-80.1" r="8.3"/>
			</g>
			<g>
				<polyline fill="#2D0E0F" points="133.9,-85.4 127.2,-97.3 127.2,-96.9 129.7,-83.5 117.5,-78.4 54.5,-166.4 86,-210.8
				167.5,-122 159.2,-110.8 151.1,-115.6 150.6,-114.9 159.7,-105.9 149.3,-96.1 139.7,-105.7 138.7,-105.9 145.4,-94.1 			"/>
				<circle fill="#2D0E0F" cx="161.8" cy="-117.6" r="8.3"/>
				<circle fill="#2D0E0F" cx="153.7" cy="-101.8" r="8.3"/>
				<circle fill="#2D0E0F" cx="139.3" cy="-90.2" r="8.3"/>
				<circle fill="#2D0E0F" cx="122.7" cy="-82.3" r="8.3"/>
			</g>
			<path
				fill="#2D0E0F"
				d="M0.9-355.1c13.7,37.8,52.9,7.6,52.9,7.6c3.2,12.3,26.1,14.8,26.1,14.8c-3.3,22.1,13.4,30.6,13.4,30.6
			c-3.1,13.4,7.9,17.9,7.9,17.9c-0.9,16.2,7.9,15.7,7.9,15.7c8.7-5,5.4-15.1,5.4-15.1s21.5-36.6-4-51.9c0,0,5-44.9-16.8-45.3
			c0,0-6.3-50.3-39.8-41.3c0,0-33.1-43.1-52.9-1.1c-19.7-42-52.9,1.1-52.9,1.1c-33.5-9-39.8,41.3-39.8,41.3
			c-21.8,0.4-16.8,45.3-16.8,45.3c-25.5,15.3-4,51.9-4,51.9s-3.3,10,5.4,15.1c0,0,8.7,0.6,7.9-15.7c0,0,11-4.5,7.9-17.9
			c0,0,16.6-8.5,13.4-30.6c0,0,22.9-2.5,26.1-14.8C-52-347.5-12.8-317.2,0.9-355.1z"/>
		</g>

	</g>
</svg>
