<?xml version="1.0" encoding="utf-8"?>
<svg version="1.1" xmlns="http://www.w3.org/2000/svg" xmlns:xlink="http://www.w3.org/1999/xlink" x="0px" y="0px" viewBox="0 0 1920 1080" enable-background="new 0 0 1920 1080" xml:space="preserve">

	<g>
		<g id="_avatar">
			<g>
				<path fill="#FBCC9A" d="M87.4,278.4L74.5,89.8H-80.9l-10.8,188.7l63.2,10.3l9.6-152.9c0.4-6.3,5.9-11.5,12.2-11.5h8.8
			c6.3,0,11.8,5.1,12.2,11.5l9.8,152.9L87.4,278.4z"/>
				<g>
					<path
						fill="#FBCC9A"
						d="M74-79.8c-8.7-8.8-22.9-8.8-31.6,0c-8.6,8.8-8.6,22.8,0,31.4l4.5,4.6C58.1-32.6,69.2-21.3,80.1-10
				C91,1.4,101.8,12.8,111.9,24.3c2.5,2.8,5,5.7,7.2,8.5l0.3,0.4l-2.4,3.7c-8.3,12.1-18.1,24.5-27.8,36.7L77.6,87.8L112,116
				l11.9-14.7c10.1-12.7,20-25.3,29.8-39.4l1.8-2.7l2.3-3.6c2-3.4,4.1-6.8,5.7-10.3c0.9-1.7,1.4-3.5,2.1-5.3
				c0.5-1.8,0.7-3.6,0.9-5.4l0.2-2.7l0.1-1.4c0-0.5-0.2-0.9-0.2-1.4c-0.4-1.8-0.8-3.5-1.3-5.3l-0.9-2.6c-0.3-0.9-0.5-1.7-1.1-2.6
				c-1-1.7-1.9-3.3-3-5L157,8.9c-0.6-0.8-1.2-1.6-1.8-2.3l-1.6-1.9c-2.8-3.4-5.5-6.6-8.3-9.7c-11-12.5-22-24.1-33.2-35.7
				c-11.1-11.6-22.4-23-33.7-34.4L74-79.8z"/>
				</g>
				<g>
					<path
						fill="#FBCC9A"
						d="M-75.8-79.8c8.7-8.8,22.9-8.8,31.6,0c8.6,8.8,8.6,22.8,0,31.4l-4.5,4.6C-60-32.6-71-21.3-81.9-10
				c-10.9,11.3-21.7,22.8-31.8,34.2c-2.5,2.8-5,5.7-7.2,8.5l-0.3,0.4l2.4,3.7c8.3,12.1,18.1,24.5,27.8,36.7l11.6,14.3l-34.5,28.2
				l-11.9-14.7c-10.1-12.7-20-25.3-29.8-39.4l-1.8-2.7l-2.3-3.6c-2-3.4-4.1-6.8-5.7-10.3c-0.9-1.7-1.4-3.5-2.1-5.3
				c-0.5-1.8-0.7-3.6-0.9-5.4l-0.2-2.7l-0.1-1.4c0-0.5,0.2-0.9,0.2-1.4c0.4-1.8,0.8-3.5,1.3-5.3l0.9-2.6c0.3-0.9,0.5-1.7,1.1-2.6
				c1-1.7,1.9-3.3,3-5l3.5-4.8c0.6-0.8,1.2-1.6,1.8-2.3l1.6-1.9c2.8-3.4,5.5-6.6,8.3-9.7c11-12.5,22-24.1,33.2-35.7
				c11.1-11.6,22.4-23,33.7-34.4L-75.8-79.8z"/>
				</g>
				<path fill="#FDD995" d="M41.5-89.2C28.6-91.5,13-93.6-3-93.6c-16.1,0-31.7,1.9-44.7,4.1l42,12c0.6,0.8,1.6,1.3,2.6,1.3l0,0
			c1,0,2-0.5,2.6-1.3L41.5-89.2z"/>
				<path fill="#FDD995" d="M28.7-108.4l2.4,17.2c0,0-14.6,17.9-34.2,17.9c-19.6,0-34.2-17.9-34.2-17.9l2.4-17.3H28.7z"/>
				<path fill="#FBCC9A" d="M110.4,118.2l2.1-2.6l-34-28.2l-2.1,2.6c-7.6,9.4-6.4,23.3,2.9,31.3C88.6,129.1,102.6,127.8,110.4,118.2z"/>
				<path fill="#FBCC9A" d="M-78.7,89.6l-2-2.6l-34.7,27.5l2.1,2.7c7.6,9.8,21.6,11.4,31,3.7C-72.8,113-71.3,99.1-78.7,89.6z"/>
				<path fill="#ACCCCE" d="M-80.7,91.1"/>
				<path fill="#FBCC9A" d="M-75.5,95.5c-3.2,2.5-7.1,2.7-8.8,0.6s-0.4-6,2.7-8.4c3.2-2.5,7.1-2.7,8.8-0.6
			C-71.1,89.2-72.3,93-75.5,95.5z"/>
				<path fill="#FBCC9A" d="M73.1,95.7c3.2,2.5,7.1,2.7,8.8,0.6c1.7-2.2,0.4-6-2.7-8.4c-3.2-2.5-7.1-2.7-8.8-0.6
			C68.7,89.4,69.9,93.2,73.1,95.7z"/>
				<g>
					<ellipse fill="#CB9866" cx="103.8" cy="-205.9" rx="20.1" ry="25.9"/>
					<ellipse fill="#FBCC9A" cx="-113.3" cy="-205.9" rx="20.1" ry="25.9"/>
					<path fill="#FBCC9A" d="M-23.9-97.2c-48.6,0-88-39.9-88-89.1v-94.1c0-49.2,39.4-89.1,88-89.1h21.6v272.3H-23.9z"/>
					<path fill="#CB9866" d="M14.4-97.2c48.6,0,88-39.9,88-89.1v-94.1c0-49.2-39.4-89.1-88-89.1H-4.7v272.3H14.4z"/>
				</g>
				<path fill="#261911" d="M-4.7-240.7"/>
				<line fill="none" x1="-4.7" y1="-240.7" x2="-161.4" y2="-240.7"/>
				<circle fill="#FBCC9A" cx="-2.6" cy="-189.4" r="13.5"/>
			</g>
		</g>

		<g id="_SABATES_F_10">
			<g>
				<g>
					<polygon fill="#9B4517" points="-27.4,290.9 -94.6,290.9 -94.6,279.8 -88.8,269.7 -27.4,279.6 			"/>
					<polygon fill="#9B4517" points="23.8,290.9 90.9,290.9 90.9,279.8 85.2,269.7 23.8,279.6 			"/>
				</g>
				<polyline fill="#9B4517" points="-47.3,286.6 -47.3,298.9 -27.4,298.9 -27.4,290.9 		"/>
				<polyline fill="#9B4517" points="43.7,286.6 43.7,298.9 23.8,298.9 23.8,290.9 		"/>
			</g>
		</g>

		<g id="_SABATES_F_9">
			<polygon fill="#958218" points="-28,293.5 -103.7,293.5 -103.7,280.6 -97.2,268.9 -28,280.3 	"/>
			<polygon fill="#958218" points="23.7,293.5 99.3,293.5 99.3,280.6 92.8,268.9 23.7,280.3 	"/>
			<polyline fill="#958218" points="-97.1,271 -108,239.4 -74.2,239.4 -78.5,274 	"/>
			<polyline fill="#958218" points="92.6,271 103.6,239.4 69.7,239.4 74,274 	"/>
		</g>

		<g id="_SABATES_F_8">
			<g>
				<polygon fill="#253E1E" points="-27.6,288.7 -94.7,288.7 -94.7,277.5 -88.9,266.4 -27.6,276.4 		"/>
				<polygon fill="#253E1E" points="23.4,289.6 90.6,289.6 90.6,278.4 84.8,267.2 23.4,277.3 		"/>
				<polyline fill="#253E1E" points="-88.9,277.2 -98.5,249.5 -68.9,249.5 -72.7,279.8 		"/>
				<polyline fill="#253E1E" points="84.7,278 94.3,250.4 64.7,250.4 68.5,280.7 		"/>
			</g>
		</g>

		<g id="_SABATES_F_7">
			<g>
				<g>
					<polygon fill="#3D3D3B" points="-26.7,290.7 -97.3,290.5 -97.3,278.9 -91.4,268.3 -26.7,259.1 			"/>
					<polyline fill="#3D3D3B" points="-91.4,268.3 -98.8,246.8 -61.3,238.8 -63.1,272.9 			"/>
				</g>
				<polygon fill="#3D3D3B" points="22.6,293.3 95.6,293.7 95.6,282 89.6,271.4 22.6,262.2 		"/>
				<polyline fill="#3D3D3B" points="89.5,271.7 95.7,250.4 58.3,241.8 60,276.1 		"/>
			</g>
		</g>

		<g id="_SABATES_F_6">
			<g>
				<g>
					<polygon fill="#FBCC9A" points="24,293.8 90.1,293.8 90.1,283.2 84.4,273.4 24,282.9 			"/>
					<polyline fill="#645030" points="24,288.6 24,294.2 91.1,294.2 91.1,288.7 			"/>
					<polyline fill="#645030" points="91.1,294.2 91.1,283.2 85.3,273.2 80.4,273.9 89,289.7 			"/>
				</g>
				<g>
					<polygon fill="#FBCC9A" points="-28.2,295.9 -94.7,295.9 -94.7,284.9 -89,274.8 -28.2,284.6 			"/>
					<polyline fill="#645030" points="-28.2,290.3 -28.2,295.9 -94.7,295.9 -94.7,290.4 			"/>
					<polyline fill="#645030" points="-94.7,295.2 -94.7,284.2 -88.9,274.2 -84,274.9 -92.6,290.7 			"/>
				</g>
			</g>
		</g>

		<g id="_SABATES_F_5">
			<g>
				<g>
					<polygon fill="#4BB1B3" points="-27.4,290.9 -94.6,290.9 -94.6,279.8 -88.8,269.7 -27.4,269.7 			"/>
					<polygon fill="#4BB1B3" points="23.8,290.9 90.9,290.9 90.9,279.8 85.2,269.7 23,269.7 			"/>
				</g>
			</g>
		</g>

		<g id="_SABATES_F_4">
			<g>
				<g>
					<polygon fill="#FBCC9A" points="-28.3,299.9 -98.9,299.9 -98.9,288.3 -92.9,277.6 -28.3,288 			"/>
					<g>
						<polyline fill="#40572C" points="-28.3,293.9 -28.3,299.9 -98.9,299.9 -98.9,294.1 				"/>
					</g>
					<polyline fill="#40572C" points="-98.9,299.9 -98.9,288.3 -93,277.6 -87.9,278.5 -96.8,295.1 			"/>
					<polyline fill="#40572C" points="-87.9,278.5 -73.3,296.2 -66.7,296.2 -80.2,279.7 			"/>
				</g>
				<g>
					<polygon fill="#FBCC9A" points="24.1,299.6 95.1,299.6 95.1,288 89,277.4 24.1,287.8 			"/>
					<g>
						<polyline fill="#40572C" points="24.1,294.1 24.1,300.1 95.1,300.1 95.1,294.3 				"/>
					</g>
					<polyline fill="#40572C" points="95.1,299.6 95.1,288 89.1,277.4 84,278.3 92.9,294.9 			"/>
					<polyline fill="#40572C" points="87.8,277.7 73.3,295.4 66.6,295.4 80.1,278.9 			"/>
				</g>
			</g>
		</g>

		<g id="_SABATES_F_3">
			<g>
				<polygon fill="#531E53" points="-28.3,291.4 -97.8,291.4 -97.8,279.8 -91.8,269.2 -25.8,246.7 		"/>
				<polygon fill="#531E53" points="24.1,291.5 93.5,291.5 93.5,279.9 87.5,269.3 21.5,246.6 		"/>
			</g>
		</g>

		<g id="_SABATES_F_2">
			<g>
				<polygon fill="#3D3D3B" points="-27.9,292.4 -97.3,292.4 -97.3,280.8 -91.4,270.2 -27.9,280.5 		"/>
				<polygon fill="#3D3D3B" points="23.5,292.4 92.9,292.4 92.9,280.8 87,270.2 23.5,280.5 		"/>
			</g>
		</g>

		<g id="_SABATES_F_1">
			<g>
				<polygon fill="#3D3F91" points="-27.9,292.4 -97.3,292.4 -97.3,280.8 -91.4,270.2 -27.9,280.5 		"/>
				<polygon fill="#3D3F91" points="23.5,292.4 92.9,292.4 92.9,280.8 87,270.2 23.5,280.5 		"/>
			</g>
		</g>

		<g id="_CABELL_F_9">
			<path fill="#E3850D" d="M-2.8-355.6c0,0-125.1-67.1-119.8,172.6l-0.2,50.9H-6.6L-2.8-355.6z"/>
			<path fill="#E3850D" d="M-6.6-355.6c0,0,125.1-67.1,119.8,172.6l0.2,50.9h-120V-355.6z"/>
			<path fill="#3D3D3B" stroke="#3D3D3B" stroke-miterlimit="10" d="M-109.8-320.6c0,0-18.8,48.3,18.4,57.9c0,0,99.9,30.3,190-5.6
		c0,0,19.6-14,4.4-52.2C103.1-320.6,44.2-295.8-109.8-320.6z"/>
			<path fill="#7B1812" d="M103.1-320.6c6.7-2-9.6-11.1-9.6-11.1c10.3-20.9-10.1-72.9-10.7-74.6C67-448-1-447.6-41.9-420.3
		c-28.2,18.8-46.9,49.2-59.9,79c-0.5,1.1-7.9,20.7-7.9,20.7C-109.8-320.6,20.2-296.2,103.1-320.6z"/>
		</g>

		<g id="_CABELL_F_8">
			<path fill="#512A14" d="M-127.3-254.5c0,0,10.5-138.1,120.2-131.9c0,0,134.3-19.5,118.5,211.1L102.8,9.3c0,0-27.6,76.1-119.6,46.6
		c0,0-97.9-26.9-120-55.2C-159-27.7-128.1-248.3-127.3-254.5z"/>
			<path fill="#2D0E0F" d="M-70.3-350.5c0,0,68.4,101.4,91.4,113.3c23,12,89,3.2,89,3.2S98-303.8,82.5-330.4
		c-8.6-14.7-18.1-40.2-98.6-39C-32.9-369.2-70.3-350.5-70.3-350.5z"/>
		</g>

		<g id="_CABELL_F_7">
			<path
				fill="#FFCC07"
				d="M66.2-21h36.7c0,0,9.5-6.3,0-29.8c0,0,12.6-22.3,1.2-44.4c0,0,22.1-50.5,4.8-87.7c0,0,14.2-42.9-3.5-91.2
		c0,0,27.3-89.5-62.4-117.2c0,0-142-97.5-176.9,119.4c0,0-25.5,40.6-8.3,98.5c0,0-16,61.7,0,89.6c0,0-15.7,65,12.8,62.8l34.7,0.1"/>
			<path fill="#FDCC68" d="M106.7-265.9c0,0,27.3-89.5-62.4-117.2c0,0-142-97.5-176.9,119.4v27.6l56.2-25.6c0,0,95-32.5,115.3-72.1
		c0,0-10.4,50,5.3,68c0,0,21.6,48.8,33.4,58.9C77.7-207,103.9-219.8,106.7-265.9z"/>
		</g>

		<g id="_CABELL_F_6">
			<path
				fill="#3D3D3B"
				stroke="#3D3D3B"
				stroke-miterlimit="10"
				d="M99.5-98.1c-0.4,4.3,1.2,8.5,0.1,12.8C99.2-84.1,99-84,97.7-84
		c-2.2-0.1-4.8-1.8-6.6-3l-10.3-7.1c0.6,0.4,0.1,3.9,0,4.6c0,1.4,0.2,4.6-2.3,3.6c-2.2-0.9-4.5-2-6.2-3.2c-4-2.8-7.4-6.3-10.5-10
		c-3.3-3.8-8-7.6-9.5-12.6c-0.1-0.3-0.2-0.6-0.2-0.8c-0.9-4.9,3.1-10.3,6.2-13.9c4.5-5.2,11.9-7.1,18.5-5.9
		c7.4,1.3,11.4,6.3,16,11.4c1.1,1.2,2.3,2.2,3.5,3.4c2.2,2.1,4.5,4.3,6.7,6.4c1.4,1.3,2.9,3.4,4.7,4.3c2,1.1,5.4,0.2,7.2,1.9
		c2.1,2-3.4,7.3-5.4,8c-1.6,0.6-3.4,0.6-5,0.3C102.9-97,101-98.1,99.5-98.1z"/>
			<path fill="#3D3D3B" stroke="#3D3D3B" stroke-miterlimit="10" d="M-62.7-371.9c0,0-98-15.4-59.5,142.2c0,0,71-29.7,73.1-89.3
		c0,0,55.9,78.9,146.9,96.7c0,0,85.7-105.9-67-179.4C30.8-401.6-35.3-419.2-62.7-371.9z"/>
		</g>

		<g id="_CABELL_F_5">
			<g>
				<path
					fill="#2D0E0F"
					d="M-85.9-136.4
			c-11.7-44.7,0.5-122.4,31.5-174l-0.1-0.3c12.8,29.6,70.7,53.2,101.4,53.3c1.7,0,3.4-0.2,5.1-0.5c11.3,22.2,34.5,128.8,34.5,128.8
			l10.7-25.8c0,0,35.6-79.1,4.6-149c-5.1-56.4-62-97.6-112.6-96.1l0,0c-16.9,0.5-33.9,5.9-49.7,17.3c-6,7.1-6.1,17.5-6.1,17.5
			c-64.1-12.4-62.6,101.1-61,113.3C-127.5-251.9-158.1-169.6-85.9-136.4z"/>
			</g>
		</g>

		<g id="_CABELL_F_4">
			<g>
				<g>
					<path
						fill="#805E39"
						d="M112.1-304.9c0,0-8.4-80-102.1-80c0,0-10.6-1.1-14.7,5.5c-4-6.5-14.7-5.5-14.7-5.5
				c-93.7,0-102.1,80-102.1,80c-4.2,40.5,24.2,21.6,46.3,9c6.3,27,34.7-15.3,39-21.6c8.4,18,25.3,1.8,30.5-9.9
				c0.3-0.7,0.7-1.5,1-2.3c0.3,0.8,0.6,1.6,1,2.3c5.3,11.7,22.1,27.9,30.5,9.9c4.2,6.3,32.6,48.6,39,21.6
				C87.9-283.3,116.3-264.4,112.1-304.9z"/>
				</g>
				<g>
					<path fill="#805E39" d="M-66.2-376.8c-16.8-20.7,8.4-38.7,33.7-28.8c1.1-9.9,2.1-17.1,14.7-19.8c12.6-2.7,23.2,3.6,24.2,13.5
				c17.9-9,50.5,1.8,36.9,21.6c11.6,0.9,24.2,8.1,16.8,18.9"/>
				</g>
			</g>
		</g>

		<g id="_CABELL_F_3">
			<g>
				<path
					fill="#2B1012"
					d="M-58.2-374.4c0,0-59.9-9.8-61.5,90.9c0,0-4.1,65.8,25.5,18.9l42.5-53.5c0,0,5.3-7.9,10.5,0.8
			c0,0,34.3,40.5,80,45.3c0,0-9.3,152.6,21.9,169.1c0,1.9,21.4,10.6,24,11.9c5.8,2.9,11.7,5.8,17.5,8.7c2.3,1.1,9.2,7,11.4,6.3
			c6.3-2,2.7-15.3,2.1-19.6c-0.6-4.1-0.5-7.4,0.2-11.4c1.3-7.6,2.5-15.1,3.6-22.7c4-27,7.1-54.1,9.3-81.2
			c2.7-33.6,3.9-67.4,2.1-101.1c-1.4-24.9-4.3-49.5-11.5-73.4c-4.5-14.9-11.5-35.8-29-39.3c-16.5-3.3-34.7,5.2-48.7,12.8
			c-5.4,2.9-10.6,6.1-15.6,9.5C26-402.7-17.5-430.8-58.2-374.4z"/>
				<path fill="#BF6919" d="M62.4-384.9L82-365.2C82-365.2,93.5-391.5,62.4-384.9z"/>
			</g>
		</g>

		<g id="_CABELL_F_2">
			<path
				fill="#3D3D3B"
				d="M-13.3-382.2c-1.3,0.4-4-0.4-5.4-0.5c-4.7-0.3-9.5-0.4-14.3-0.2c-6.7,0.2-13.3,0.9-19.9,2.2
		c-7.7,1.5-15.2,3.6-22.3,6.7c-7.9,3.4-15.2,7.8-21.5,13.3c-7.3,6.3-13.1,13.8-17.6,22.1c-5.5,10.3-8.7,21.5-10.4,32.9
		c-1.8,12.2-1.8,24.5-0.9,36.8c0.6,7.2,7.2,10.9,10,17c2.6,5.6,4.9,12.4,3.2,18.5c-2.1,7.6-4.7,21.8,5.8,25.4
		c-0.2,2-1.1,3.8-0.6,5.9c0.7,3.2,4.9,0.2,6.3-0.8c2.8-2.1,5.8-4.7,6.3-8.2c0.5-3.8-2.4-6.8-3.7-10.2c-0.6-1.7-1-3.6-1-5.4
		c-0.1-4.3,1.6-8.4,4.4-11.8c1.8-2.3,4.6-3.9,6.2-6.4c2-3,3.3-6.3,4.7-9.5c6.5-14.4,10.8-29.9,11.3-45.5c0.1-3.5,0-7-0.3-10.6
		c-0.2-1.8-0.4-3.6-0.7-5.3c-0.2-1-0.3-4.7-1.1-5.3c0,0,9.1,7.1,17.9,0c0,0,85.9,66.8,116.6,69.4c-1.7,6.4-3,12.8-4.1,19.3
		c-2.2,12.5-3.7,25.3-2.8,38c0.5,7.8,2.4,15.5,6.6,22.3c1.4,2.2,2.6,4.6,3.8,6.9c5.1,9.2,10.2,18.3,15.3,27.5c2,3.6,4,7.2,6.1,10.9
		c0.9,1.7,3.2,3.8,5.1,4.5c3.5,1.2,4.3-2.9,4.7-5.2c0.6-3.8,1-7.4,1.8-11.2c1.7-7.4,3.3-14.9,4.8-22.4c2.1-10.9,4-21.8,5.5-32.8
		c1.8-12.9,3.3-25.8,4.2-38.8c0.9-13.4,1.3-26.9,0.7-40.3c-0.6-12.6-1.9-25.2-5-37.5c-2.6-10.5-6.4-21-12.7-30.2
		c-0.6-0.9-1.2-1.7-1.9-2.6C48.6-399.3-13.3-382.2-13.3-382.2z"/>
		</g>

		<g id="_CABELL_F_1">
			<g>
				<path
					fill="#3D3D3B"
					d="M-74.4-148.5h-32.3c0,0-8.4-3.8,0-17.9c0,0-11.1-13.4-1.1-26.6c0,0-19.5-30.3-4.2-52.6
			c0,0-12.5-25.7,3.1-54.7c0,0-24.1-53.7,55-70.3c0,0,125.3-58.5,156,71.6c0,0,22.5,24.4,7.3,59.1c0,0,14.1,37,0,53.7
			c0,0,13.9,39-11.3,37.7l-30.6,0"/>
				<path fill="#676767" d="M-108.1-269.1c0,0-24.1-76.9,55-100.7c0,0,125.3-83.7,156,102.6v23.7l-49.6-22c0,0-83.8-27.9-101.7-62
			c0,0,9.1,43-4.7,58.4c0,0-19.1,41.9-29.5,50.6C-82.6-218.5-105.7-229.4-108.1-269.1z"/>
			</g>
			<path
				fill="#201621"
				d="M90.8-377.4c-10.6-5-22.3-9.2-22.3-9.2s-2.7-14.9-6.8-24.1c-4.2-9.2-11-24.1-21.2-28c-15.9-6-50-6-50-6
		s-31.4,0-50,6c-10.4,3.4-17,18.8-21.2,28c-4.2,9.2-6.8,24.1-6.8,24.1s-11.7,4.2-22.3,9.2c-10.6,5-18.2,13.5-20.4,22.7
		c3.4,28.3,38.4,40.4,38.4,40.4s4-23.4,5.9-31.5c1.9-8.1,6.1-11.7,22.3-17.7c16.3-6,54.1-8.2,54.1-8.2s37.9,2.1,54.1,8.2
		c16.3,6,20.4,9.6,22.3,17.7c1.9,8.1,5.9,31.5,5.9,31.5s35-12,38.4-40.4C109-364,101.4-372.5,90.8-377.4z"/>
			<path fill="#531E53" d="M68.5-386.7c0,0-2.7-14.9-6.8-24.1c-4.2-9.2-11-24.1-21.2-28c-15.9-6-50-6-50-6s-31.4,0-50,6
		c-10.4,3.4-17,18.8-21.2,28c-4.2,9.2-6.8,24.1-6.8,24.1S-5.2-408.7,68.5-386.7z"/>
		</g>

		<g id="_SAMARRETA_F_10">
			<g>
				<g>
					<path
						fill="#92AA2D"
						d="M78.1-79.6c-8.9-8.9-23.4-8.9-32.2,0c-8.8,8.9-8.8,23.1,0,31.8l4.6,4.6c11.4,11.3,21,24.3,32.1,35.8
				c11.1,11.5,21,22.4,31.3,34c2.5,2.9,2.9,3.4,5.2,6.1l0,0l-2.1,4.1C108.5,49,99.1,61.2,89.2,73.5L78.9,87.3l33.9,27.8l16.6-17.4
				c10.3-12.8,20.1-19.7,30.1-34l1.9-2.7l2.4-3.6c2.1-3.4,4.2-6.9,5.8-10.4c1-1.8,1.5-3.6,2.1-5.4c0.5-1.8,0.8-3.6,1-5.5l0.2-2.8
				L173,32c0-0.5-0.2-0.9-0.3-1.4c-0.5-1.9-0.8-3.6-1.3-5.4l-0.9-2.6c-0.3-0.9-0.6-1.8-1.1-2.6c-1-1.7-1.9-3.4-3-5l-3.6-4.8
				c-0.6-0.8-1.2-1.6-1.8-2.4l-1.6-2c-2.8-3.5-5.6-6.7-8.4-9.9c-11.2-12.6-22.5-24.4-33.8-36.1C105.7-51.9,94.3-63.5,82.8-75
				L78.1-79.6z"/>
					<path
						fill="#92AA2D"
						d="M-43.1-47.8c8.8-8.7,8.9-22.9,0.1-31.8c-8.8-8.9-23.2-9-32.2-0.1l-4.7,4.7
				c-11.5,11.4-22.9,22.8-34.3,34.4C-125.5-29-136.7-17.4-147.9-5c-2.8,3.1-5.6,6.3-8.4,9.7L-159,8c-1.2,1.5-2.4,3.2-3.6,4.8
				l-1.8,2.4l-1.5,2.5c-1,1.7-2.1,3.3-2.6,5.1l-0.9,2.6l-0.6,2.6c-0.3,1.8-1.1,3.6-0.8,5.5c0.3,3.7,0.6,7.3,2.1,10.9
				c1.5,3.6,3.3,7.1,5.3,10.6c0.5,0.9,1,1.7,1.5,2.6l1.2,2l1.8,2.8c9.6,14.5,20.4,25.7,30.4,38.8l13.1,14.9L-80.7,87L-91,73.5
				c-9.6-12.5-19.7-24.4-27.8-36.7l-2.5-3.3l0,0c2.3-2.8,4.9-5.7,7.4-8.5C-103.6,13.5-92.5,2-81.5-9.3C-70.3-20.7-59.1-32-47.7-43.3
				L-43.1-47.8z"/>
					<path fill="#253E1E" d="M62.6-86.9c-15-3.3-38.1-7.3-62.2-7.3c-24.1,0-47.3,4-62.3,7.3C-71.4-84.8-79-74.8-79-65.1v157H79.6v-157
				C79.6-74.8,72.1-84.8,62.6-86.9z"/>
				</g>
				<path fill="#92AA2D" d="M-26.4-92.6c-24.4,0-25.9,2.6-40.2,6.8c-9.4,2.8-15.1,12.2-15.1,22V97.4l56.2,75.4v-265"/>
				<path fill="#92AA2D" d="M26.3-92.3c24.4,0,24.1,1.7,38.9,6.3c9.4,2.9,17.3,12.4,17.3,22.2L81.7,97.8l-50.2,74.9L26.3-92.3"/>
			</g>
		</g>

		<g id="_SAMARRETA_F_9">
			<g>
				<g>
					<path
						fill="#6F8128"
						d="M78.1-79.6c-8.9-8.9-23.4-8.9-32.2,0c-8.8,8.9-8.8,23.1,0,31.8l4.6,4.6c11.4,11.3,21,24.3,32.1,35.8
				c11.1,11.5,21,22.4,31.3,34c2.5,2.9,2.9,3.4,5.2,6.1l0,0l-2.1,4.1C108.5,49,99.1,61.2,89.2,73.5L78.9,87.3l33.9,27.8l16.6-17.4
				c10.3-12.8,20.1-19.7,30.1-34l1.9-2.7l2.4-3.6c2.1-3.4,4.2-6.9,5.8-10.4c1-1.8,1.5-3.6,2.1-5.4c0.5-1.8,0.8-3.6,1-5.5l0.2-2.8
				L173,32c0-0.5-0.2-0.9-0.3-1.4c-0.5-1.9-0.8-3.6-1.3-5.4l-0.9-2.6c-0.3-0.9-0.6-1.8-1.1-2.6c-1-1.7-1.9-3.4-3-5l-3.6-4.8
				c-0.6-0.8-1.2-1.6-1.8-2.4l-1.6-2c-2.8-3.5-5.6-6.7-8.4-9.9c-11.2-12.6-22.5-24.4-33.8-36.1C105.7-51.9,94.3-63.5,82.8-75
				L78.1-79.6z"/>
					<path
						fill="#6F8128"
						d="M-43.1-47.8c8.8-8.7,8.9-22.9,0.1-31.8c-8.8-8.9-23.2-9-32.2-0.1l-4.7,4.7
				c-11.5,11.4-22.9,22.8-34.3,34.4C-125.5-29-136.7-17.4-147.9-5c-2.8,3.1-5.6,6.3-8.4,9.7L-159,8c-1.2,1.5-2.4,3.2-3.6,4.8
				l-1.8,2.4l-1.5,2.5c-1,1.7-2.1,3.3-2.6,5.1l-0.9,2.6l-0.6,2.6c-0.3,1.8-1.1,3.6-0.8,5.5c0.3,3.7,0.6,7.3,2.1,10.9
				c1.5,3.6,3.3,7.1,5.3,10.6c0.5,0.9,1,1.7,1.5,2.6l1.2,2l1.8,2.8c9.6,14.5,20.4,25.7,30.4,38.8l13.1,14.9L-80.7,87L-91,73.5
				c-9.6-12.5-19.7-24.4-27.8-36.7l-2.5-3.3l0,0c2.3-2.8,4.9-5.7,7.4-8.5C-103.6,13.5-92.5,2-81.5-9.3C-70.3-20.7-59.1-32-47.7-43.3
				L-43.1-47.8z"/>
					<path fill="#6F8128" d="M62.6-86.9c-15-3.3-38.1-7.3-62.2-7.3c-24.1,0-47.3,4-62.3,7.3C-71.4-84.8-79-74.8-79-65.1v157H79.6v-157
				C79.6-74.8,72.1-84.8,62.6-86.9z"/>
				</g>
				<g>
					<g>
						<path
							fill="#8E888C"
							d="M-48.9-87.8c-0.4,5.9,3.5,9.7,7.1,13.8c2.5,2.9,4.6,6.1,5.9,9.7c0.6,1.8,1.6,4.6,1.1,6.5
					c-0.5,2-2.4,3.5-3.5,5.2c-6.8,11.3,1,23.7,8.5,32.3c2.1,2.4,5.7-1.1,3.5-3.5c-4.5-5.1-9.2-11-9.6-18.1c-0.2-3.9,1-6.9,3.1-10
					c1.5-2.1,2.7-3.8,2.9-6.5c0.4-4.9-2.2-10.4-4.8-14.4c-3.1-4.7-9.8-9-9.4-15.1C-43.7-91-48.7-91-48.9-87.8L-48.9-87.8z"/>
					</g>
				</g>
				<g>
					<g>
						<path
							fill="#8E888C"
							d="M45.1-87c0.4,5.9-5.9,10-8.9,14.4c-2.8,4.1-5.6,10-5.2,15.1c0.2,2.7,1.4,4.4,2.9,6.5
					c2,2.9,3.2,5.7,3.2,9.3c-0.1,7.4-4.9,13.5-9.6,18.8c-2.1,2.4,1.4,6,3.5,3.5c7.6-8.5,15.3-20.9,8.5-32.3
					c-0.9-1.5-2.2-2.6-2.9-4.2c-1.1-2.5-0.4-5.1,0.5-7.6c1.3-3.7,3.4-6.8,5.9-9.7c3.6-4.1,7.5-8,7.1-13.8
					C49.9-90.2,44.9-90.3,45.1-87L45.1-87z"/>
					</g>
				</g>
			</g>
		</g>

		<g id="_SAMARRETA_F_8">
			<g>
				<g>
					<path
						fill="#805E39"
						d="M78.1-79.6c-8.9-8.9-23.4-8.9-32.2,0c-8.8,8.9-8.8,23.1,0,31.8l4.6,4.6c11.4,11.3,21,24.3,32.1,35.8
				c11.1,11.5,21,22.4,31.3,34c2.5,2.9,2.9,3.4,5.2,6.1l0,0l-2.1,4.1C108.5,49,99.1,61.2,89.2,73.5L78.9,87.3l33.9,27.8l16.6-17.4
				c10.3-12.8,20.1-19.7,30.1-34l1.9-2.7l2.4-3.6c2.1-3.4,4.2-6.9,5.8-10.4c1-1.8,1.5-3.6,2.1-5.4c0.5-1.8,0.8-3.6,1-5.5l0.2-2.8
				L173,32c0-0.5-0.2-0.9-0.3-1.4c-0.5-1.9-0.8-3.6-1.3-5.4l-0.9-2.6c-0.3-0.9-0.6-1.8-1.1-2.6c-1-1.7-1.9-3.4-3-5l-3.6-4.8
				c-0.6-0.8-1.2-1.6-1.8-2.4l-1.6-2c-2.8-3.5-5.6-6.7-8.4-9.9c-11.2-12.6-22.5-24.4-33.8-36.1C105.7-51.9,94.3-63.5,82.8-75
				L78.1-79.6z"/>
					<path
						fill="#805E39"
						d="M-43.1-47.8c8.8-8.7,8.9-22.9,0.1-31.8c-8.8-8.9-23.2-9-32.2-0.1l-4.7,4.7
				c-11.5,11.4-22.9,22.8-34.3,34.4C-125.5-29-136.7-17.4-147.9-5c-2.8,3.1-5.6,6.3-8.4,9.7L-159,8c-1.2,1.5-2.4,3.2-3.6,4.8
				l-1.8,2.4l-1.5,2.5c-1,1.7-2.1,3.3-2.6,5.1l-0.9,2.6l-0.6,2.6c-0.3,1.8-1.1,3.6-0.8,5.5c0.3,3.7,0.6,7.3,2.1,10.9
				c1.5,3.6,3.3,7.1,5.3,10.6c0.5,0.9,1,1.7,1.5,2.6l1.2,2l1.8,2.8c9.6,14.5,20.4,25.7,30.4,38.8l13.1,14.9L-80.7,87L-91,73.5
				c-9.6-12.5-19.7-24.4-27.8-36.7l-2.5-3.3l0,0c2.3-2.8,4.9-5.7,7.4-8.5C-103.6,13.5-92.5,2-81.5-9.3C-70.3-20.7-59.1-32-47.7-43.3
				L-43.1-47.8z"/>
					<path fill="#805E39" d="M62.6-86.9c-15-3.3-38.1-7.3-62.2-7.3c-24.1,0-47.3,4-62.3,7.3C-71.4-84.8-79-74.8-79-65.1v157H79.6v-157
				C79.6-74.8,72.1-84.8,62.6-86.9z"/>
				</g>
			</g>
		</g>

		<g id="_SAMARRETA_F_7">
			<g>
				<path
					fill="#3D3F91"
					d="M78.1-79.6c-8.9-8.9-23.4-8.9-32.2,0c-8.8,8.9-8.8,23.1,0,31.8l4.6,4.6c11.4,11.3,21,24.3,32.1,35.8
			c11.1,11.5,21,22.4,31.3,34c2.5,2.9,2.9,3.4,5.2,6.1l0,0l-2.1,4.1C108.5,49,99.1,61.2,89.2,73.5L78.9,87.3l33.9,27.8l16.6-17.4
			c10.3-12.8,20.1-19.7,30.1-34l1.9-2.7l2.4-3.6c2.1-3.4,4.2-6.9,5.8-10.4c1-1.8,1.5-3.6,2.1-5.4c0.5-1.8,0.8-3.6,1-5.5l0.2-2.8
			L173,32c0-0.5-0.2-0.9-0.3-1.4c-0.5-1.9-0.8-3.6-1.3-5.4l-0.9-2.6c-0.3-0.9-0.6-1.8-1.1-2.6c-1-1.7-1.9-3.4-3-5l-3.6-4.8
			c-0.6-0.8-1.2-1.6-1.8-2.4l-1.6-2c-2.8-3.5-5.6-6.7-8.4-9.9c-11.2-12.6-22.5-24.4-33.8-36.1C105.7-51.9,94.3-63.5,82.8-75
			L78.1-79.6z"/>
				<path
					fill="#3D3F91"
					d="M-43.1-47.8c8.8-8.7,8.9-22.9,0.1-31.8c-8.8-8.9-23.2-9-32.2-0.1l-4.7,4.7c-11.5,11.4-22.9,22.8-34.3,34.4
			C-125.5-29-136.7-17.4-147.9-5c-2.8,3.1-5.6,6.3-8.4,9.7L-159,8c-1.2,1.5-2.4,3.2-3.6,4.8l-1.8,2.4l-1.5,2.5
			c-1,1.7-2.1,3.3-2.6,5.1l-0.9,2.6l-0.6,2.6c-0.3,1.8-1.1,3.6-0.8,5.5c0.3,3.7,0.6,7.3,2.1,10.9c1.5,3.6,3.3,7.1,5.3,10.6
			c0.5,0.9,1,1.7,1.5,2.6l1.2,2l1.8,2.8c9.6,14.5,20.4,25.7,30.4,38.8l13.1,14.9L-80.7,87L-91,73.5c-9.6-12.5-19.7-24.4-27.8-36.7
			l-2.5-3.3l0,0c2.3-2.8,4.9-5.7,7.4-8.5C-103.6,13.5-92.5,2-81.5-9.3C-70.3-20.7-59.1-32-47.7-43.3L-43.1-47.8z"/>
				<path fill="#3D3F91" d="M62.6-86.9c-15-3.3-38.1-7.3-62.2-7.3c-24.1,0-47.3,4-62.3,7.3C-71.4-84.8-79-74.8-79-65.1v157H79.6v-157
			C79.6-74.8,72.1-84.8,62.6-86.9z"/>
			</g>
		</g>

		<g id="_SAMARRETA_F_6">
			<g>
				<path fill="#9294C9" d="M143.8-6.9c-11.3-12.8-15.8-19.2-27.3-31.1C105-50,93.5-61.8,81.8-73.5l-4.7-4.8c-9-9-23.6-9-32.5,0
			c-8.9,9-8.9,23.5,0,32.4l4.7,4.7C60.8-29.6,71.9-18.6,83.1-6.9"/>
				<path fill="#9294C9" d="M80.8,94.5"/>
				<path fill="#9294C9" d="M-85.6-6.1c11.2-11.6,21.9-23.6,33.3-35.1l4.7-4.7c8.9-8.9,9-23.3,0.1-32.4c-8.9-9.1-23.5-9.1-32.5-0.1
			l-4.7,4.7c-11.6,11.6-23.1,23.3-34.6,35.1c-11.5,11.9-15,19-26.3,31.6"/>
				<path fill="#9294C9" d="M61.5-85.6C46.3-89,23-93.1-1.3-93.1c-24.3,0-47.7,4.1-62.9,7.5c-9.6,2.1-17.2,12.3-17.2,22.1v160H78.7
			v-160C78.7-73.3,71-83.5,61.5-85.6z"/>
			</g>
		</g>

		<g id="_SAMARRETA_F_5">
			<g>
				<path fill="#CDCCCC" d="M115.4-37.7c-11.6-11.7-22.1-25.5-33.9-37l-4.8-4.6c-9.1-8.8-23.9-8.8-32.8,0c-9,8.8-9,22.9,0,31.6
			l4.7,4.6c11.6,11.3,22,23.6,33.4,35"/>
				<path fill="#CDCCCC" d="M-83.3-8.3C-72-19.7-61-32-49.5-43.2l4.7-4.6c9-8.7,9.1-22.8,0.1-31.6c-8.9-8.8-23.7-8.9-32.8-0.1
			l-4.8,4.6c-11.7,11.3-21.8,24.2-33.4,35.8"/>
				<path fill="#CDCCCC" d="M60.9-86.5c-15.3-3.3-38.8-7.3-63.4-7.3c-24.6,0-48.2,4-63.5,7.3c-9.7,2.1-17.4,12-17.4,21.6V91.2H78.3
			V-64.9C78.3-74.5,70.6-84.4,60.9-86.5z"/>
			</g>
		</g>

		<g id="_SAMARRETA_F_4">
			<g>
				<path fill="#651511" d="M115.4-37.7c-11.6-11.7-22.1-25.5-33.9-37l-4.8-4.6c-9.1-8.8-23.9-8.8-32.8,0c-9,8.8-9,22.9,0,31.6
			l4.7,4.6c11.6,11.3,22,23.6,33.4,35"/>
				<path fill="#651511" d="M-83.3-8.3C-72-19.7-61-32-49.5-43.2l4.7-4.6c9-8.7,9.1-22.8,0.1-31.6c-8.9-8.8-23.7-8.9-32.8-0.1
			l-4.8,4.6c-11.7,11.3-21.8,24.2-33.4,35.8"/>
				<path fill="#651511" d="M60.9-86.5c-15.3-3.3-38.8-7.3-63.4-7.3c-24.6,0-48.2,4-63.5,7.3c-9.7,2.1-17.4,12-17.4,21.6V91.2H78.3
			V-64.9C78.3-74.5,70.6-84.4,60.9-86.5z"/>
			</g>
			<rect x="-83.3" y="54.9" fill="#3D3D3B" width="161.7" height="36.9"/>
			<polyline fill="#3D3D3B" points="4.2,54.9 37.2,44.2 68.8,54.9 	"/>
		</g>

		<g id="_SAMARRETA_F_3">
			<g>
				<g>
					<path
						fill="#9B4517"
						stroke="#9B4517"
						stroke-miterlimit="10"
						d="M77.5-80.9c-9-9.5-23.5-9.5-32.4,0c-8.9,9.5-8.8,24.7,0,34
				l4.7,4.9c11.4,12.1,22.8,24.4,34,36.6C95,7.1,106.1,19.5,116.4,31.8c2.5,3.1,0.3,0.1,2.5,3.1l-2,1.9l-4.4,6.3
				C104,56.1,99.1,60.3,89.2,73.5L74,93.6l42.5,37.6l12.2-15.9c10.4-13.7,20.6-27.4,30.6-42.7l1.9-2.9l2.4-3.9
				c2.1-3.6,4.2-7.3,5.9-11.2c1-1.9,1.5-3.8,2.2-5.8c0.5-1.9,0.8-3.9,1-5.8l0.2-2.9l0.1-1.5c0-0.5-0.2-1-0.3-1.5
				c-0.5-2-0.8-3.8-1.3-5.7l-0.9-2.8c-0.3-0.9-0.6-1.9-1.1-2.8c-1-1.8-1.9-3.6-3.1-5.4l-3.6-5.2c-0.6-0.9-1.2-1.7-1.8-2.5l-1.6-2.1
				c-2.9-3.7-5.7-7.1-8.5-10.5c-11.3-13.5-22.6-26.1-34.1-38.7c-11.4-12.6-23-24.9-34.6-37.2L77.5-80.9z"/>
					<path
						fill="#9B4517"
						stroke="#9B4517"
						stroke-miterlimit="10"
						d="M-44.4-46.8c8.9-9.3,9-24.5,0.1-34c-8.8-9.5-23.4-9.6-32.4-0.1
				l-4.7,5c-11.6,12.2-23.1,24.4-34.5,36.9c-11.4,12.5-22.8,25-34,38.2c-2.8,3.3-5.6,6.7-8.5,10.3l-2.7,3.5
				c-1.2,1.6-2.4,3.4-3.6,5.1l-1.8,2.6l-1.5,2.7c-1,1.8-2.1,3.5-2.6,5.4l-1,2.8l-0.6,2.8c-0.4,1.9-1.1,3.9-0.8,5.9
				c0.3,3.9,0.6,7.8,2.1,11.7c1.5,3.8,3.3,7.6,5.4,11.3c0.5,0.9,1,1.9,1.5,2.7l1.3,2.1l1.8,3c9.6,15.5,19.5,29.3,29.5,43.2
				l11.9,16.2L-74,94.1l-14.3-17.2c-9.6-13.3-15.5-17.3-23.7-30.5l-3.4-4.7l-3.9-6.2c2.4-3,1.1-1.3,3.7-4.4
				C-105.3,18.8-94.1,6.6-83-5.6c11.2-12.2,22.5-24.3,34-36.3L-44.4-46.8z"/>
					<path fill="#9B4517" stroke="#9B4517" stroke-miterlimit="10" d="M61.9-88.6c-15.1-3.5-38.3-7.8-62.6-7.8
				c-24.2,0-47.6,4.3-62.7,7.9c-9.5,2.2-17.2,13-17.2,23.3v168.1H79.1V-65.3C79.1-75.6,71.5-86.4,61.9-88.6z"/>
				</g>
				<polyline fill="#9B4517" stroke="#9B4517" stroke-miterlimit="10" points="-80.5,102.8 -129.2,208.6 122.7,208.6 79.1,102.8 		"/>
			</g>
		</g>

		<g id="_SAMARRETA_F_2">
			<g>
				<g>
					<path fill="#968218" d="M114.4-40c-11.2-11.7-22.5-23.2-33.9-34.7l-4.6-4.7c-8.8-8.8-23.1-8.8-31.8,0c-8.7,8.8-8.7,23,0,31.7
				l4.6,4.6C59.9-31.7,71-20.3,82-8.8"/>
					<path fill="#968218" d="M-81.7-9.2c11-11.3,22.1-22.6,33.3-33.8l4.6-4.6c8.7-8.7,8.8-22.8,0.1-31.7c-8.7-8.9-23-8.9-31.8-0.1
				l-4.6,4.6C-91.5-63.4-102.8-52-114-40.4"/>
					<path fill="#968218" d="M60.6-86.5c-14.8-3.3-37.6-7.3-61.4-7.3c-23.8,0-46.7,4-61.6,7.3c-9.4,2.1-16.8,12.1-16.8,21.7V91.7H77.4
				V-64.8C77.4-74.4,69.9-84.4,60.6-86.5z"/>
				</g>
				<path
					fill="#EACE04"
					stroke="#EACE04"
					stroke-miterlimit="10"
					d="M-59.6,11.7C-59.5-20.6-33-47.7,0.2-47.6
			c31.1,0.1,59.6,24.6,59.4,60C59.3,47.5,30.7,71.6,0.5,71.7C-32.5,71.8-59.6,45.1-59.6,11.7z M57.6,11.9
			C57.7-20,31.3-45.7,0.2-45.6C-32.3-45.5-57-19.8-57.4,11c-0.5,34.5,27.5,58.4,56.7,58.7C32,70,57.9,43,57.6,11.9z"/>
				<g>
					<g>
						<path fill="#EACE04" stroke="#EACE04" stroke-miterlimit="10" d="M-9.1-57.6H7L50.5,79H32.2l-10-32.7h-46.8L-34.8,79h-17.8
					L-9.1-57.6z M15.8,25.2L-1.3-29.1l-17,54.2H15.8z"/>
					</g>
				</g>
			</g>
		</g>

		<g id="_SAMARRETA_F_1">
			<g>
				<path
					fill="#047A9A"
					stroke="#047A9A"
					stroke-miterlimit="10"
					d="M158.8,58.1l2.3-3.7c2-3.5,4-7,5.6-10.6c0.9-1.8,1.4-3.6,2-5.4
			c0.4-1.8,0.7-3.7,0.8-5.5l0.2-2.8l0.1-1.4c0-0.5-0.2-0.9-0.3-1.4c-0.5-1.8-0.9-3.6-1.4-5.3l-1-2.6c-0.3-0.9-0.6-1.8-1.2-2.6
			c-1-1.7-2-3.3-3.1-5l-3.6-4.8c-0.6-0.8-1.2-1.6-1.9-2.3l-1.6-1.9c-2.9-3.4-5.7-6.6-8.6-9.7c-11.4-12.4-22.9-23.9-34.4-35.5
			C101-53.8,89.4-65.2,77.7-76.4L72.9-81c-9.1-8.7-23.4-8.4-32,0.7c-8.5,9.1-8.2,23.3,0.7,31.9l4.7,4.5c11.6,11.1,23,22.3,34.3,33.6
			C92,1,101.4,12.9,111.9,24.3c2.6,2.8,4.9,5.7,7.2,8.5l2.4-0.2l-2.4,3.8"/>
				<path
					fill="#047A9A"
					stroke="#047A9A"
					stroke-miterlimit="10"
					d="M-121.9,41l4-2.8l-2.5-4.2c2.3-2.8,2.4-2.9,4.9-5.9
			c10-11.7,20.7-23.5,31.5-35.1c10.8-11.6,21.7-23.2,32.8-34.7l4.5-4.7c8.6-8.9,8.3-23.2-0.6-31.9c-8.9-8.7-23.3-8.5-32,0.6
			l-4.6,4.8c-11.2,11.7-22.3,23.4-33.3,35.3c-11,11.9-21.9,23.9-32.8,36.6c-2.7,3.2-5.4,6.4-8.1,9.9l-2.6,3.3
			c-1.2,1.6-2.3,3.2-3.5,4.8l-1.7,2.4l-1.5,2.5c-1,1.7-2,3.4-2.5,5.2l-0.9,2.6l-0.6,2.7c-0.3,1.8-1,3.6-0.6,5.5
			c0.3,3.7,0.8,7.3,2.4,10.9c1.5,3.6,3.4,7.1,5.5,10.5c0.5,0.9,1,1.7,1.6,2.5l1.3,2"/>
				<path fill="#047A9A" stroke="#047A9A" stroke-miterlimit="10" d="M57.4-87.9c-15-3-38-6.5-61.9-6c-11,0.2-31.2,3.3-45.6,5.7
			c-8.3,1.4-14.6,2.6-16.1,3c-9.4,2.3-16.7,12.5-16.5,22.2l3.5,157.4l157.5-3.5L74.8-66.5C74.6-76.1,66.9-86,57.4-87.9z"/>
				<path fill="#4AB2B4" d="M-54.9-88.4l32.5,39.6l14-45C-8.4-93.8-52.2-91-54.9-88.4z"/>
				<polygon fill="#4AB2B4" points="-109,50.3 -155.2,75 -161.3,63.5 -115.4,36.8 		"/>
				<polygon fill="#4AB2B4" points="113.5,41.7 154,69.2 159.2,57.9 119.1,32.7 		"/>
				<path fill="#4AB2B4" d="M62.1-88.8L29.6-49.3l-14-45C15.5-94.2,59.4-91.5,62.1-88.8z"/>
			</g>
		</g>

		<g id="_PANTALO_F_8">
			<g>
				<g>
					<polyline fill="#9ACDCD" points="24,292.5 87.1,282 74.3,89.7 -80.9,89.7 -91.7,282 -28.6,292.5 			"/>
				</g>
				<circle fill="#3D64AD" cx="-24.2" cy="271.2" r="6.6"/>
				<circle fill="#3D64AD" cx="-0.5" cy="271.2" r="6.6"/>
				<circle fill="#3D64AD" cx="19.4" cy="264.6" r="6.6"/>
				<circle fill="#3D64AD" cx="33.9" cy="250.3" r="6.6"/>
				<circle fill="#3D64AD" cx="47.1" cy="229.9" r="6.6"/>
				<circle fill="#3D64AD" cx="53.7" cy="212.3" r="6.6"/>
				<circle fill="#3D64AD" cx="60.4" cy="190.6" r="6.6"/>
				<circle fill="#3D64AD" cx="64.8" cy="168.9" r="6.6"/>
			</g>
		</g>

		<g id="_PANTALO_F_7">
			<path fill="#512A14" d="M-80.2-80.6c0,0,15.6-13.9,30.6-11.2v7.5v40.2V-34v32.8l91.1,1v-91.6c0,0,22.7,1.7,31.3,9.9l14.5,343.8
		l-63.7,9.9l-8.9-136.9c-0.4-6.1-5.9-11-12.3-11h-8.9c-6.4,0-11.9,4.9-12.3,11l-8.5,136.9l-63.3-9.5L-83-7.5L-80.2-80.6z"/>
		</g>

		<g id="_PANTALO_F_6">
			<path fill="#CCCC99" d="M82.6,197.9L74.8,89.6H-80l-7,108.2l63.6,10.3l5.1-72.6c0.4-6.3,5.8-11.4,12.2-11.4h8.8
		c6.3,0,11.8,5.1,12.2,11.4l4.1,72L82.6,197.9z"/>
		</g>

		<g id="_PANTALO_F_5">
			<g>
				<path fill="#9A6633" d="M82.6,197.9L74.8,89.6H-80l-7,108.2l63.7,9.7l5.1-72c0.4-6.3,5.8-11.4,12.2-11.4h8.8
			c6.3,0,11.8,5.1,12.2,11.4l4.1,72L82.6,197.9z"/>
				<polygon fill="#CB9866" points="-87,197.8 -88,215.8 -24.4,227.6 -23.3,207.5 		"/>
				<polygon fill="#CB9866" points="82.8,197.8 83.8,215.8 20.4,227.6 19,207.5 		"/>
			</g>
		</g>

		<g id="_PANTALO_F_4">
			<path fill="#33245E" d="M-21.7,246.1l-68.1,1.4l9-157.7l156,0.2l9.6,150.5l-36-30.2c-2.3-1.9-5.4-2.1-7.9-0.6l-58.4,35.2
		C-18.8,245.6-20.3,246.1-21.7,246.1z"/>
		</g>

		<g id="_PANTALO_F_3">
			<path fill="#70706F" d="M83.8,153.4L71.4,91.5H-78.6l-10.4,61.9l68.5,9.9l1.7-27.4c0.4-6.1,5.7-11.1,11.8-11.1h8.5
		c6.1,0,11.4,5,11.8,11.1l1.8,27.4L83.8,153.4z"/>
		</g>

		<g id="_PANTALO_F_2">
			<polyline fill="#CCCAE6" points="23.4,190.7 84.8,180.8 72.3,89.7 -78.6,89.7 -89,180.8 -27.7,190.7 	"/>
		</g>

		<g id="_PANTALO_F_1">
			<path fill="#5F64AA" d="M87.6,277.6l-12.8-188H-80l-10.7,188l62.9,10.3l9.6-152.4c0.4-6.3,5.8-11.4,12.2-11.4h8.8
		c6.3,0,11.8,5.1,12.2,11.4l9.7,152.4L87.6,277.6z"/>
		</g>

		<g id="_MOUSTACHE_OR_LIPS_F_7">
			<path
				fill="#641122"
				d="M29.7-134.6C29.7-134.6,29.7-134.6,29.7-134.6c0-0.1,0-0.1,0-0.2c0-0.1,0-0.1,0-0.2c0,0,0,0,0,0
		c0-0.1-0.1-0.1-0.1-0.1c0-0.1-0.1-0.1-0.2-0.2c0,0,0,0,0,0c-0.6-0.3-14.1-7-25.2-7c-3.6,0-6.6,0.7-8.9,2.1
		c-2.3-1.4-5.2-2.1-8.9-2.1c-11.1,0-24.7,6.7-25.2,7c0,0,0,0,0,0c-0.1,0-0.1,0.1-0.2,0.2c0,0-0.1,0.1-0.1,0.1c0,0,0,0,0,0
		c0,0.1,0,0.2,0,0.2c0,0,0,0.1,0,0.1c0,0,0,0,0,0c0,0.1,0.1,0.3,0.2,0.3c0.1,0.1,14.8,12.6,34.8,12.6l0,0c11.8,0,23.1-4.2,33.6-12.6
		c0,0,0,0,0,0c0,0,0-0.1,0.1-0.1C29.6-134.5,29.7-134.5,29.7-134.6z"/>
		</g>

		<g id="_MOUSTACHE_OR_LIPS_F_6">
			<path
				fill="#641122"
				d="M-38.2-132.1C-38.2-132.1-38.2-132.1-38.2-132.1c-0.1,0.1-0.2,0.1-0.2,0.2c0,0-0.1,0.1-0.1,0.1c0,0,0,0,0,0
		c0,0.1,0,0.2,0,0.2c0,0,0,0.1,0,0.1c0,0,0,0,0,0c0,0.1,0.1,0.3,0.2,0.3c0.1,0.1,14.8,12.6,34.8,12.6l0,0c11.8,0,23.1-4.2,33.6-12.6
		c0,0,0,0,0,0c0,0,0-0.1,0.1-0.1c0.1-0.1,0.1-0.2,0.1-0.2c0,0,0,0,0,0c0,0,0-0.1,0-0.1c0-0.1,0-0.1,0-0.2c0,0,0,0,0,0
		c0-0.1-0.1-0.1-0.1-0.1c0-0.1-0.1-0.1-0.2-0.2c0,0,0,0,0,0"/>
		</g>

		<g id="_MOUSTACHE_OR_LIPS_F_5">
			<g>
				<ellipse fill="#F29799" cx="48.9" cy="-197.4" rx="14.7" ry="12.6"/>
				<ellipse fill="#F29799" cx="-57.6" cy="-197.4" rx="14.7" ry="12.6"/>
			</g>
		</g>

		<g id="_MOUSTACHE_OR_LIPS_F_4">
			<ellipse fill="#CB6566" cx="-4.8" cy="-132.1" rx="9.3" ry="7.9"/>
		</g>

		<g id="_MOUSTACHE_OR_LIPS_F_3">
			<g>
				<path fill="#3D3D3B" d="M-15.5-164.6l-2.5-1c0.6-1.5,5.9-14.2,13.4-14.2c0,0,0.1,0,0.1,0c4.6,0.1,8.5,4.7,12,14.3L5-164.6
			c-3-8.1-6.3-12.4-9.5-12.5c0,0,0,0-0.1,0C-9.4-177.1-14.1-168.1-15.5-164.6z"/>
				<ellipse fill="#3D3D3B" stroke="#3D3D3B" stroke-width="0.5" stroke-miterlimit="10" cx="6.3" cy="-165.1" rx="2.9" ry="3.1"/>
				<ellipse fill="#3D3D3B" stroke="#3D3D3B" stroke-width="0.5" stroke-miterlimit="10" cx="-16.3" cy="-165.1" rx="2.9" ry="3.1"/>
			</g>
		</g>

		<g id="_MOUSTACHE_OR_LIPS_F_2">
			<circle fill="#3D3D3B" cx="-47.7" cy="-213.8" r="6.1"/>
		</g>

		<g id="_MOUSTACHE_OR_LIPS_F_1">
			<g>
				<circle fill="#B57C36" stroke="#B57C36" stroke-width="0.5" stroke-miterlimit="10" cx="2" cy="-230.6" r="2.9"/>
				<circle fill="#B57C36" stroke="#B57C36" stroke-width="0.5" stroke-miterlimit="10" cx="9.6" cy="-210.8" r="2.9"/>
				<circle fill="#B57C36" stroke="#B57C36" stroke-width="0.5" stroke-miterlimit="10" cx="-22.9" cy="-227.6" r="2.9"/>
				<circle fill="#B57C36" stroke="#B57C36" stroke-width="0.5" stroke-miterlimit="10" cx="-8.1" cy="-216.8" r="2.9"/>
				<circle fill="#B57C36" stroke="#B57C36" stroke-width="0.5" stroke-miterlimit="10" cx="-6.1" cy="-198.1" r="2.9"/>
				<circle fill="#B57C36" stroke="#B57C36" stroke-width="0.5" stroke-miterlimit="10" cx="-20" cy="-186.1" r="2.9"/>
				<circle fill="#B57C36" stroke="#B57C36" stroke-width="0.5" stroke-miterlimit="10" cx="-22.9" cy="-207.9" r="2.9"/>
				<circle fill="#B57C36" stroke="#B57C36" stroke-width="0.5" stroke-miterlimit="10" cx="12.5" cy="-192.2" r="2.9"/>
				<circle fill="#B57C36" stroke="#B57C36" stroke-width="0.5" stroke-miterlimit="10" cx="-37.7" cy="-216.8" r="2.9"/>
				<circle fill="#B57C36" stroke="#B57C36" stroke-width="0.5" stroke-miterlimit="10" cx="-34.8" cy="-199" r="2.9"/>
				<circle fill="#B57C36" stroke="#B57C36" stroke-width="0.5" stroke-miterlimit="10" cx="18.4" cy="-221.4" r="2.9"/>
				<circle fill="#B57C36" stroke="#B57C36" stroke-width="0.5" stroke-miterlimit="10" cx="21.4" cy="-203.6" r="2.9"/>
				<circle fill="#B57C36" stroke="#B57C36" stroke-width="0.5" stroke-miterlimit="10" cx="-1" cy="-181.2" r="2.9"/>
			</g>
		</g>

		<g id="_ULLERES_F_9">
			<g>
				<path fill="none" stroke="#9A6633" stroke-width="4" stroke-miterlimit="10" d="M-23-226.4h-69.2c-4.2,0-7.6-3.4-7.6-7.6v-13.9
			c0-4.2,3.4-7.6,7.6-7.6H-23c4.2,0,7.6,3.4,7.6,7.6v13.9C-15.5-229.8-18.9-226.4-23-226.4z"/>
				<path fill="none" stroke="#9A6633" stroke-width="4" stroke-miterlimit="10" d="M79.3-226.4h-65c-4.2,0-7.6-3.4-7.6-7.6v-13.9
			c0-4.2,3.4-7.6,7.6-7.6h65c4.2,0,7.6,3.4,7.6,7.6v13.9C86.9-229.8,83.5-226.4,79.3-226.4z"/>
				<line fill="none" stroke="#9A6633" stroke-width="4" stroke-miterlimit="10" x1="-15.5" y1="-240.9" x2="6.8" y2="-240.9"/>
				<line fill="none" stroke="#9A6633" stroke-width="4" stroke-miterlimit="10" x1="86.9" y1="-240.9" x2="102.5" y2="-240.9"/>
				<line fill="none" stroke="#9A6633" stroke-width="4" stroke-miterlimit="10" x1="-99.8" y1="-240.9" x2="-112.1" y2="-240.9"/>
			</g>
		</g>

		<g id="_ULLERES_F_8">
			<path
				fill="#CC6667"
				d="M102.6-258.6c0,0-4.5-0.8-50.3,2.2C13.8-253.9-0.8-242-4.6-242c-3.7,0-18.4-11.9-56.8-14.4
		c-45.9-3-50.3-2.2-50.3-2.2s-1.3,15.8,0,18.2c1.3,2.4,2.1,20.5,3,26.9c1,6.4,3,18.3,9.9,25.2c6.8,6.8,17.7,11.3,29.6,12.6
		c16.4,0.8,21.5-0.1,33.6-7.3c12.1-7.2,19.9-28.9,21.1-32.9c1.3-4,3.1-10.3,4.4-12.4c1.1-1.7,3-2.3,4.5-2.4v0.1c0,0,0.4-0.1,1-0.1
		c0.6,0,1,0.1,1,0.1v-0.1c1.5,0.1,3.5,0.6,4.5,2.4c1.3,2.2,3.1,8.4,4.4,12.4c1.3,4,9.1,25.8,21.1,32.9c12.1,7.2,17.2,8.1,33.6,7.3
		c11.9-1.3,22.8-5.7,29.6-12.6c6.8-6.8,8.9-18.8,9.9-25.2c1-6.4,1.8-24.5,3-26.9C103.9-242.9,102.6-258.6,102.6-258.6z M-20.8-226.2
		c-1.1,5.7-3.3,24.2-14.7,33.9c-5.6,4.9-12.2,10.2-24.6,10.5c-9,0.2-26.9-2.1-33.8-10.8c-3.2-4.9-8-10.4-8.1-24.1
		c-0.2-13.7-0.2-24.5,2.4-27.2c0,0,4.5-5.6,9.4-6.7c4.9-1.1,19-1.9,33,1c14,2.9,27.4,7.3,30.9,10.4
		C-22.9-236.2-19.7-231.9-20.8-226.2z M92.9-216.6c-0.2,13.7-4.9,19.1-8.1,24.1c-6.8,8.8-24.8,11-33.8,10.8
		c-12.5-0.3-19.1-5.6-24.7-10.5C15-202,12.8-220.4,11.7-226.2c-1.1-5.7,2.1-10,5.6-13.1c3.5-3,16.9-7.5,30.9-10.4
		c14-2.9,28-2.1,33-1c4.9,1.1,9.4,6.7,9.4,6.7C93-241.2,93-230.3,92.9-216.6z"/>
		</g>

		<g id="_ULLERES_F_7">
			<g>
				<path
					fill="#3D3D3B"
					d="M102.3-239.4c-0.7-1-2-0.8-2.6-3.1c-0.6-2.4-6.5-18.6-13-22.3c-6.5-3.7-19-10-49.3-12.2
			c-23.4-0.6-37.6-1.1-41.6-1.3v0c0,0-0.2,0-0.6,0c-0.4,0-0.6,0-0.6,0v0c-4,0.2-18.2,0.7-41.6,1.3c-30.3,2.2-42.8,8.5-49.3,12.2
			c-6.5,3.7-12.4,19.9-13,22.3c-0.6,2.4-1.9,2.2-2.6,3.1c-0.7,1,0.1,6.7,2.4,10.4c2.5,20.7,10.9,32.6,16.2,38.9
			c5.3,6.3,19.8,9.3,29.9,8.9c22.3-3.9,26.1-10.9,35.7-20.6c9.7-9.8,17.3-36.5,18.4-39.5c0.9-2.3,3.4-3.1,4.5-3.4
			c1.2,0.3,3.7,1.1,4.5,3.4c1.1,3,8.8,29.8,18.4,39.5c9.7,9.8,13.5,16.7,35.7,20.6c10.1,0.4,24.6-2.6,29.9-8.9
			c5.3-6.3,13.7-18.1,16.2-38.9C102.2-232.7,103.1-238.4,102.3-239.4z M-16.6-235.5c-1.7,7.8-7.6,23.7-14.3,31.3
			c-6.7,7.6-11.1,14.4-28.1,18.2c-9.7,1.3-24.2,0.2-31-8c-6.7-8.3-13.5-21.3-13.5-33.8c0-12.5,0.8-17,0.8-17s4-14.1,14.5-18.7
			c10.5-4.6,27.3-7.6,45.6-6.3c18.3,1.3,24.4,4.3,25.9,8.5C-15.2-257.2-15-243.3-16.6-235.5z M80.3-194c-6.7,8.3-21.2,9.3-31,8
			c-17-3.8-21.4-10.6-28.1-18.2c-6.7-7.6-12.6-23.5-14.3-31.3c-1.7-7.8-1.5-21.7,0-25.9c1.5-4.1,7.6-7.2,25.9-8.5
			c18.3-1.3,35.1,1.7,45.6,6.3C89-259,93-244.9,93-244.9s0.8,4.6,0.8,17C93.8-215.4,87.1-202.3,80.3-194z"/>
				<path
					fill="#9A9999"
					stroke="#3D3D3B"
					stroke-miterlimit="10"
					d="M82.7-194.1c-7,8.5-22.1,9.6-32.3,8.2
			c-17.7-3.9-22.3-10.9-29.3-18.7c-7-7.8-13.1-24.1-14.9-32.1c-1.8-8-1.5-22.3,0-26.5c1.5-4.2,7.9-7.4,26.9-8.7
			c19.1-1.3,36.6,1.8,47.5,6.5c11,4.7,15.1,19.2,15.1,19.2s0.9,4.7,0.9,17.5C96.7-216,89.7-202.5,82.7-194.1z"/>
				<path
					fill="#9A9999"
					stroke="#3D3D3B"
					stroke-miterlimit="10"
					d="M-106-228.8c0-12.8,0.9-17.5,0.9-17.5s4.1-14.5,15.1-19.2
			c10.9-4.7,28.4-7.8,47.3-6.5c19,1.3,25.3,4.5,26.8,8.7c1.5,4.2,1.7,18.5,0,26.5c-1.7,8-7.9,24.3-14.8,32.1
			c-7,7.8-11.5,14.8-29.2,18.7c-10.1,1.3-25.2,0.2-32.1-8.2C-99-202.5-106-216-106-228.8z"/>
			</g>
		</g>

		<g id="_ULLERES_F_6">
			<g>
				<path fill="#261911" d="M-4.7-231.6"/>
				<path fill="#3D3D3B" d="M-97.6-221.8c-0.4-7.5-14.4-5.4-14.4-5.4v-9.5l14.9-2.9"/>
				<path fill="#3D3D3B" d="M-55.4-185.1c-24.4,0-44.2-20.5-44.2-45.6s19.8-45.6,44.2-45.6c24.4,0,44.2,20.5,44.2,45.6
			S-31-185.1-55.4-185.1z M-55.4-271c-21.5,0-39,18.1-39,40.3s17.5,40.3,39,40.3c21.5,0,39-18.1,39-40.3S-33.9-271-55.4-271z"/>
				<path fill="#3D3D3B" d="M88.4-221.8c0.4-7.5,14-5.2,14-5.2l0-9.7l-14.6-3"/>
				<path fill="#3D3D3B" d="M46-185.1c-24.4,0-44.2-20.5-44.2-45.6s19.8-45.6,44.2-45.6c24.4,0,44.2,20.5,44.2,45.6
			S70.4-185.1,46-185.1z M46-271c-21.5,0-39,18.1-39,40.3s17.5,40.3,39,40.3c21.5,0,39-18.1,39-40.3S67.5-271,46-271z"/>
				<g>
					<polyline fill="#3D3D3B" points="-15.7,-229.7 -5.1,-229.7 -6.1,-229.7 4.5,-229.7 4.5,-237.5 -6.1,-237.5 -5.1,-237.5
				-15.7,-237.5 			"/>
				</g>
			</g>
		</g>

		<g id="_ULLERES_F_5">
			<path
				fill="#99CC99"
				d="M102.7-233.7c-0.7-1-2-0.8-2.6-3.1c-0.6-2.4-6.5-18.4-13.1-22.1c-6.5-3.7-19-9.9-49.4-12.1
		c-23.5-0.6-37.7-1.1-41.7-1.2v0c0,0-0.2,0-0.6,0c-0.4,0-0.6,0-0.6,0v0c-4,0.1-18.2,0.6-41.7,1.2c-30.4,2.2-42.9,8.4-49.4,12.1
		c-6.5,3.7-12.4,19.7-13.1,22.1c-0.6,2.4-1.9,2.2-2.6,3.1c-0.7,1,0.1,6.7,2.4,10.4c2.5,20.6,11,32.4,16.2,38.6
		c5.3,6.3,19.8,9.3,29.9,8.8c22.3-3.9,26.1-10.8,35.8-20.5c9.7-9.7,17.4-36.2,18.5-39.3c0.9-2.3,3.4-3.1,4.5-3.3
		c1.2,0.3,3.7,1.1,4.5,3.3c1.1,3,8.8,29.6,18.5,39.3c9.7,9.7,13.5,16.6,35.8,20.5c10.1,0.4,24.7-2.6,29.9-8.8
		c5.3-6.3,13.7-18,16.2-38.6C102.6-227,103.5-232.8,102.7-233.7z M-16.5-229.8c-1.7,7.8-7.6,23.5-14.3,31.1
		c-6.7,7.6-11.1,14.3-28.2,18.1c-9.8,1.3-24.3,0.2-31.1-8c-6.7-8.2-13.5-21.2-13.5-33.6c0-12.4,0.8-16.9,0.8-16.9s4-14,14.5-18.6
		c10.5-4.5,27.4-7.6,45.7-6.3c18.3,1.3,24.5,4.3,25.9,8.4C-15.1-251.4-14.8-237.6-16.5-229.8z M80.7-188.6c-6.7,8.2-21.3,9.3-31.1,8
		c-17-3.8-21.4-10.6-28.2-18.1c-6.7-7.5-12.6-23.3-14.3-31.1c-1.7-7.8-1.5-21.6,0-25.7c1.5-4.1,7.6-7.1,25.9-8.4
		c18.3-1.3,35.2,1.7,45.7,6.3c10.5,4.5,14.5,18.6,14.5,18.6s0.8,4.5,0.8,16.9C94.2-209.8,87.5-196.8,80.7-188.6z"/>
		</g>

		<g id="_ULLERES_F_4">
			<g>
				<path
					fill="#3D3F91"
					d="M101.9-252.6c0-0.7-0.4-1.2-1-1.3c-0.5-0.1-0.9-0.3-1.4-0.3c-6.7-1.1-13.4-2.2-20.1-2.6
			c-5.4-0.4-10.8-0.6-16.2-0.9c-10.4-0.5-20.8-0.2-31.1,1.1c-6.3,0.8-12.6,2-18.6,4.1c-3.1,1-6.1,2.2-9.2,3.3
			c-4.8,1.6-9.7,2.3-14.7,1.3c-3-0.6-5.9-1.5-8.9-2.5c-5.3-1.8-10.5-3.5-15.9-4.6c-10.6-2-21.3-3-31.2-2.9c-8.1,0-15.4,0.3-22.7,1.2
			c-6,0.7-11.9,1.6-17.8,2.4c-1.3,0.2-2.5,0.6-3.7,0.9c-0.7,0.2-1.1,0.6-1.1,1.4c-0.1,3.7-0.2,7.3-0.3,11c0,0.6,0.1,1.1,0.2,1.7
			c0.1,0.5,0.3,0.8,0.7,1c0.5,0.2,0.9,0.4,1.3,0.7c2,1.4,2.9,3.6,3.6,5.8c0.5,1.6,0.9,3.2,1.3,4.9c0.3,1,0.6,2,0.9,3
			c1,4.8,2,9.6,3,14.3c1,4.5,2.3,9,4.4,13.2c2.3,4.7,5.7,8.2,10.4,10.3c2.9,1.2,5.8,2,8.9,2.5c5.5,0.9,10.9,1,16.5,0.6
			c5.6-0.4,11.1-1.3,16.4-3c4-1.3,7.7-3,10.9-5.8c4.9-4.3,8.8-9.5,11.8-15.4c3-5.9,5.1-12.2,7-18.5c0.5-1.8,1.1-3.7,1.7-5.5
			c0.9-2.6,2.7-4.3,5.5-4.7c0.9-0.1,1.8-0.2,2.6-0.1c2,0.1,4,0.6,5.3,2.3c0.6,0.8,1.1,1.6,1.5,2.5c0.7,1.7,1.4,3.5,2,5.3
			c2.4,7.9,5.5,15.3,9.5,22.5c3.3,5.9,7.7,10.7,13.5,14c4.1,2.3,8.5,3.8,13,4.7c6.9,1.4,13.8,1.7,20.8,1.4c4.2-0.2,8.4-0.7,12.4-2
			c4.2-1.3,7.8-3.4,10.5-7c1.8-2.3,3.1-4.9,4.2-7.7c2.3-5.8,3.7-11.8,5.1-17.8c0.6-3,1.3-5.9,2-8.9c0.4-1.5,0.8-3.1,1.2-4.6
			c0.4-1.4,0.7-2.9,1.6-4.1c0.9-1.2,1.8-2.5,3.2-3c0.6-0.2,1-0.7,1.1-1.3c0.1-0.5,0.2-1,0.2-1.5c0-2.2,0-4.4-0.1-6.6
			C102.2-249.5,102-251,101.9-252.6 M-23.8-222.5c-1.4,6.4-3.8,12.4-7,18c-1.7,3.1-3.7,6-6.2,8.5c-3.3,3.3-7.3,5.2-11.6,6.4
			c-8.8,2.4-17.7,3-26.8,1.6c-1.8-0.3-3.5-0.8-5.2-1.2c-3.6-1-6.3-3.1-8.4-6.3c-2.3-3.5-3.7-7.4-4.6-11.6
			c-1.2-5.4-1.9-10.8-2.4-16.3c-0.3-3.2-0.2-6.4,0.1-9.5c0.2-1.6,0.3-3.2,0.7-4.8c1.2-5.6,4.5-9.1,9.8-10.5
			c4.8-1.3,9.8-2.1,14.7-2.5c3.7-0.3,7.4-0.5,9.8-0.6c8.5,0.1,15.6,0.7,22.6,2.4c2.9,0.7,5.8,1.3,8.4,2.8c1.3,0.7,2.5,1.6,3.7,2.5
			c1.9,1.6,2.8,3.8,3.2,6.2C-22.2-232.5-22.6-227.5-23.8-222.5 M86.1-224.9c-0.2,7.7-1.4,15.2-4.1,22.5c-1.1,2.9-2.5,5.6-4.7,7.8
			c-2.4,2.5-5.5,3.8-8.7,4.7c-4,1.1-8.2,1.4-12.3,1.4c-6.3,0.1-12.5-0.8-18.6-2.1c-6.1-1.3-10.9-4.7-14.8-9.7
			c-4.9-6.4-8.1-13.7-9.9-21.7c-0.8-3.7-1.5-7.4-1.4-11.2c0-1.6,0.2-3.3,0.5-4.9c0.7-4,3.1-6.7,6.7-8.2c3.6-1.5,7.3-2.4,11.1-3.2
			c4.2-0.9,8.5-1.5,12.8-1.8c3.4-0.2,6.7-0.3,9-0.4c9,0.5,16.8,1.1,24.5,3.4c1.4,0.4,2.7,1.1,4.1,1.7c1.3,0.6,2.2,1.6,2.9,2.9
			c0.7,1.4,1.4,2.9,1.9,4.4c0.6,1.8,0.8,3.6,0.8,5.5C86-230.8,86.2-227.9,86.1-224.9 M93.2-245.7"/>
			</g>
		</g>

		<g id="_ULLERES_F_3">
			<g>
				<path
					fill="#9A3515"
					d="M-112-221.5c0,0,14.7-0.4,18.4,14.6c0,0,6.9,36.4,37,35c26.6,1.2,35.1-27.1,36.7-33.7
			c3.4-13,13.2-13.9,15.2-14c2.1,0.1,11.9,1,15.2,14c1.6,6.6,10.1,34.9,36.7,33.6c30.1,1.4,37-35,37-35c3.6-15,18.3-14.1,18.3-14.1
			v-13.6l-1.4,0.1c-1.6,0-12.2-0.6-15.5-14.4l0.4,1.4l-0.5-1.4c0,0-41.3-29.6-81.3,7.6l-8.9-0.2l-8.9,0.2
			c-40-37.2-81.3-7.6-81.3-7.6c-3.3,13.8-15.4,14.4-17.1,14.4 M-25-205.3c0,0-5.7,27.1-30.7,26c-21.7,0.9-28.9-19.3-30.4-24.7l0,0
			l0,0c-0.2-0.8-0.3-1.3-0.3-1.3l0.3,1.3l0,0c-2.3-8.4-0.3-21-0.3-21s5.7-27.1,30.7-26c23.2-1,29.8,22.3,30.6,25.6l0,0
			c0,0,2.2,7.7-0.2,21.4L-25-205.3z M-5.1-219.5c0,0,0.1,0,0.3,0H-5.1z M-4.6-219.5c0.2,0,0.3,0,0.3,0H-4.6z M78.9-206.1
			c0,0-5.7,27.1-30.7,26c-21.7,0.9-28.9-19.3-30.4-24.7l0,0l0,0c-0.2-0.8-0.3-1.3-0.3-1.3l0.3,1.3l0,0c-2.3-8.4-0.3-21-0.3-21
			s5.7-27.1,30.7-26c23.2-1,29.8,22.4,30.6,25.6l0,0c0,0,2.2,7.7-0.2,21.4L78.9-206.1z"/>
				<path fill="#9A3515" d="M-110.7-234.5"/>
				<path fill="#9A3515" d="M-5.7-241.5"/>
			</g>
		</g>

		<g id="_ULLERES_F_2">
			<g>
				<g>
					<path
						fill="#65140F"
						d="M101.9-250.9c0-0.8-0.4-1.2-1-1.4c-0.5-0.1-0.9-0.3-1.4-0.4c-6.7-1.2-13.4-2.3-20.1-2.8
				c-5.4-0.4-10.8-0.7-16.2-1c-10.4-0.5-20.8-0.3-31.1,1.2c-6.3,0.9-12.6,2.2-18.6,4.3c-3.1,1.1-6.1,2.4-9.2,3.5
				c-4.8,1.7-9.7,2.5-14.7,1.4c-3-0.6-5.9-1.6-8.8-2.6c-5.2-1.9-10.5-3.8-15.9-4.9c-10.6-2.2-21.2-3.2-31.2-3.1
				c-8.1,0-15.4,0.3-22.6,1.3c-5.9,0.8-11.9,1.7-17.8,2.6c-1.3,0.2-2.5,0.6-3.7,1c-0.7,0.2-1.1,0.7-1.1,1.5
				c-0.1,3.9-0.2,7.8-0.3,11.7c0,0.6,0.1,1.2,0.2,1.8c0.1,0.5,0.3,0.8,0.7,1.1c0.5,0.2,0.9,0.4,1.3,0.8c1.9,1.5,2.9,3.8,3.6,6.2
				c0.5,1.7,0.9,3.5,1.3,5.2c0.3,1.1,0.6,2.1,0.9,3.2c1,5.1,2,10.2,3,15.3c1,4.9,2.3,9.6,4.4,14.1c2.3,5,5.7,8.8,10.4,11
				c2.9,1.3,5.8,2.2,8.9,2.7c5.5,1,10.9,1.1,16.4,0.6c5.6-0.4,11.1-1.4,16.4-3.2c4-1.3,7.7-3.2,10.9-6.2c4.9-4.6,8.8-10.1,11.8-16.4
				c3-6.3,5.1-13,7-19.8c0.5-1.9,1.1-3.9,1.7-5.8c0.9-2.8,2.7-4.6,5.4-5c0.9-0.1,1.7-0.2,2.6-0.1c2,0.1,4,0.6,5.3,2.5
				c0.6,0.8,1.1,1.7,1.5,2.7c0.7,1.9,1.4,3.8,2,5.7c2.4,8.4,5.5,16.4,9.5,24c3.3,6.3,7.7,11.4,13.5,14.9c4.1,2.5,8.5,4.1,13,5.1
				c6.9,1.5,13.8,1.8,20.7,1.5c4.2-0.2,8.4-0.8,12.4-2.1c4.2-1.4,7.8-3.6,10.5-7.5c1.8-2.5,3.1-5.3,4.2-8.2c2.3-6.2,3.7-12.6,5-19.1
				c0.6-3.2,1.3-6.3,2-9.5c0.4-1.7,0.8-3.3,1.2-4.9c0.4-1.5,0.7-3.1,1.6-4.4c0.9-1.3,1.8-2.6,3.2-3.2c0.6-0.3,1-0.7,1.1-1.4
				c0.1-0.5,0.2-1.1,0.2-1.6c0-2.3,0-4.7-0.1-7C102.1-247.5,102-249.2,101.9-250.9 M-103-243.5 M-70.5-249 M85.9-230.8
				c0.1,3.2,0.2,6.3,0.2,9.5 M80.3-244.4 M42.8-249.5c3.3-0.2,6.7-0.3,9-0.5 M18.9-244.1 M86.1-221.3 M93.2-243.5"/>
				</g>
			</g>
		</g>

		<g id="_ULLERES_F_1">
			<path
				fill="#669999"
				d="M-111.6-231.8c2.6,0.7,9.9,23.7,13.9,35.3c4,11.7,9.9,16.1,19.2,19.3
		c18.6,3.9,36.5-1.1,41.9-3.4c5.4-2.3,9.2-8.7,12.8-15.8c3.6-7.2,12.1-30.3,14.2-35.1l10.3,0c2.1,4.7,10.6,27.9,14.2,35
		c3.6,7.2,7.4,13.5,12.8,15.8c5.4,2.3,23.3,7.4,41.9,3.4c9.3-3.2,15.2-7.6,19.2-19.3c4-11.7,11.1-32.4,12.1-35.3
		c0.6-1.6,1.6-1.3,1.6-1.3v-18.5c0,0-6-3.6-18.9-4.4c-13-0.8-41.2-1.4-53.7-0.1c-12.5,1.3-15.1,2.3-17,3.9c-2,1.7-2.8,4.2-6.4,4.8
		h-22c-3.6-0.6-4.4-3.2-6.4-4.8c-2-1.7-4.5-2.6-17-3.9c-12.5-1.3-40.8-0.6-53.7,0.1c-13,0.8-19.1,6.2-19.1,6.2 M-21.8-214.6
		c-3.8,13.8-7.7,24.2-15,28.3c-7.3,4.1-35.2,11.3-48.1,0.5c-2.5-2.1-9.9-10.8-11.3-27.6c-1.3-16.8-2.8-25.8,6.1-30.6
		c0,0,17.9-6.8,32.2-6.8c16.1,0.1,30.4,2.9,33.6,7.8C-21.1-238-17.3-232-21.8-214.6z M87.3-213.3c-1.3,16.8-8.7,25.5-11.3,27.6
		c-12.8,10.7-40.7,3.6-48.1-0.5c-7.4-4.1-11.2-14.5-15-28.3c-4.6-17.5-0.8-23.5,2.4-28.3c3.2-4.8,17.5-7.7,33.6-7.8
		c14.3-0.1,32.2,6.8,32.2,6.8C90.1-239.1,88.6-230.2,87.3-213.3z"/>
		</g>
	</g>
</svg>
