<?xml version="1.0" encoding="utf-8"?>
<svg version="1.1" xmlns="http://www.w3.org/2000/svg" xmlns:xlink="http://www.w3.org/1999/xlink" x="0px" y="0px" viewBox="0 0 1920 1080" enable-background="new 0 0 1920 1080" xml:space="preserve">

	<g>
		<g id="customized-avatar">

			<g id="_CABELL_F_8-behind" ng-if="dressroom.displayElement.hair[7]">
				<path
					id="capa_sota"
					fill="#FFCC07"
					d="M67-14.9h35c0,0,9.1-6,0-28.5c0,0,12-21.3,1.2-42.4c0,0,21.1-48.3,4.5-83.9
		c0,0,13.6-41-3.3-87.2c0,0,26.1-85.5-59.6-112c0,0-135.7-93.2-169.1,114.1c0,0-24.4,38.8-8,94.2c0,0-15.3,59,0,85.6
		c0,0-15,62.1,12.2,60.1l33.2,0.1"/>
			</g>

			<g id="_CABELL_F_7-behind" ng-if="dressroom.displayElement.hair[6]">
				<path id="capa_sota_1_" fill="#512A14" d="M-118.1-238.1c0,0,10.1-132,114.9-126.1c0,0,128.4-18.6,113.3,201.7L101.9,14
		c0,0-26.4,72.7-114.3,44.5c0,0-93.5-25.7-114.7-52.8C-148.3-21.3-118.8-232.2-118.1-238.1z"/>
			</g>

			<g id="_CABELL_F_6-behind" ng-if="dressroom.displayElement.hair[5]">
				<path
					id="Capa_sota"
					fill="#3D3D3B"
					d="M-67.5-109.1h-30.9c0,0-8-3.6,0-17.1c0,0-10.6-12.8-1-25.5c0,0-18.7-29-4-50.3
		c0,0-12-24.6,2.9-52.3c0,0-23-51.3,52.6-67.2c0,0,119.7-55.9,149.1,68.5c0,0,21.5,23.3,7,56.5c0,0,13.5,35.4,0,51.4
		c0,0,13.2,37.3-10.8,36l-29.3,0"/>
			</g>

			<g id="_CABELL_F_5-behind" ng-if="dressroom.displayElement.hair[4]">
				<g id="cabell_sota">
					<path fill="#E3850D" d="M0.9-326.7c0,0-119.6-64.2-114.6,165l-0.2,48.6H-2.6L0.9-326.7z"/>
					<path fill="#E3850D" d="M-2.6-326.7c0,0,119.6-64.2,114.6,165l0.2,48.6H-2.6V-326.7z"/>
				</g>
			</g>

			<g id="_avatar">
				<g id="body">
					<g>
						<g>
							<g>
								<g>
									<polygon fill="{{dressroom.currentSkinColorPalette.adret}}" points="-24.2,321.5 -89.6,321.5 -89.6,310.5 -84,300.4 -24.2,310.2 						"/>
								</g>
								<g>
									<path
										fill="{{dressroom.currentSkinColorPalette.adret}}"
										d="M71.8-42.9c-8.3-8.4-21.7-8.4-29.9,0c-8.2,8.4-8.1,21.8,0,30.1l4.3,4.4C56.8,2.4,67.3,13.2,77.6,24
							c10.3,10.9,20.6,21.8,30.1,32.8c2.3,2.7,4.7,5.5,6.8,8.1l0.3,0.4l-2.3,3.5c-7.9,11.6-17.1,23.5-26.3,35.2l-11,13.7l32.6,27.1
							l11.3-14.1c9.6-12.2,19-24.2,28.2-37.8l1.7-2.6l2.2-3.4c1.9-3.2,3.9-6.5,5.4-9.9c0.9-1.7,1.4-3.4,2-5.1
							c0.4-1.7,0.7-3.4,0.9-5.2l0.2-2.6l0.1-1.3c0-0.4-0.2-0.9-0.2-1.3c-0.4-1.8-0.7-3.4-1.2-5.1l-0.9-2.5c-0.3-0.8-0.5-1.7-1-2.5
							c-0.9-1.6-1.8-3.2-2.8-4.8l-3.3-4.6c-0.5-0.8-1.1-1.5-1.7-2.2l-1.5-1.9c-2.6-3.3-5.2-6.3-7.8-9.3C129,16.8,118.6,5.6,108-5.5
							C97.5-16.6,86.8-27.6,76.2-38.5L71.8-42.9z"/>
								</g>
								<g>
									<path
										fill="{{dressroom.currentSkinColorPalette.adret}}"
										d="M-40.5-12.8c8.2-8.3,8.3-21.7,0.1-30.1c-8.1-8.4-21.6-8.5-29.9-0.1l-4.4,4.4
							C-85.3-27.8-95.9-17-106.4-6c-10.5,11-21,22.1-31.3,33.8c-2.6,3-5.2,6-7.8,9.1l-2.5,3.1c-1.1,1.4-2.2,3-3.3,4.5l-1.7,2.3
							l-1.4,2.4c-0.9,1.6-2,3.1-2.4,4.8l-0.9,2.5l-0.6,2.5c-0.3,1.7-1,3.4-0.7,5.2c0.2,3.5,0.6,6.9,2,10.3c1.3,3.4,3,6.7,4.9,10
							c0.5,0.8,0.9,1.6,1.4,2.4l1.2,1.9l1.7,2.7c8.9,13.7,18,25.9,27.2,38.2l11,14.4l33.2-26.3l-10.7-14
							C-96.1,92-105,79.9-112.5,68.3l-1.7-2.7l1.1-1.3c2.2-2.6,4.5-5.4,6.9-8.1c9.6-10.9,19.8-21.7,30.1-32.5
							C-65.8,12.9-55.4,2.2-44.8-8.4L-40.5-12.8z"/>
								</g>
								<g>
									<path fill="{{dressroom.currentSkinColorPalette.adret}}" d="M57.5-49.7c-13.9-3.1-35.3-6.9-57.7-6.9c-22.3,0-43.9,3.8-57.8,6.9c-8.8,2-15.8,11.5-15.8,20.6v148.8
							H73.3V-29.1C73.3-38.3,66.3-47.8,57.5-49.7z"/>
								</g>
								<g>
									<path fill="{{dressroom.currentSkinColorPalette.adret}}" d="M42.5-52.7c-12.4-2.1-27.3-3.9-42.7-3.9c-15.4,0-30.4,1.8-42.8,4l40.2,11.5c0.6,0.8,1.5,1.2,2.5,1.2
							l0,0c1,0,1.9-0.5,2.5-1.2L42.5-52.7z"/>
								</g>
								<g>
									<path fill="{{dressroom.currentSkinColorPalette.adret}}" d="M30.2-70.8l2.3,16.5c0,0-14,17.1-32.7,17.1C-19-37.1-33-54.3-33-54.3l2.3-16.5H30.2z"/>
								</g>
								<g>
									<path fill="{{dressroom.currentSkinColorPalette.adret}}" d="M86,301.9L73.3,119.6H-73.8L-84,300.4l59.8,9.9l9.1-146.5c0.4-6.1,5.6-11,11.6-11h8.3
							c6,0,11.2,4.9,11.6,11l9.3,146.5L86,301.9z"/>
								</g>
								<g>
									<path fill="{{dressroom.currentSkinColorPalette.adret}}" d="M105.8,147.3l2-2.5l-32.6-27.1l-2,2.5c-7.3,9-6.1,22.3,2.8,30C84.9,157.8,98.3,156.5,105.8,147.3z"/>
								</g>
								<g>
									<path fill="{{dressroom.currentSkinColorPalette.adret}}" d="M-74.6,120.2l-1.9-2.5l-33.2,26.3l2,2.6c7.3,9.4,20.7,10.9,29.7,3.5C-69,142.7-67.5,129.4-74.6,120.2z
							"/>
								</g>
								<g>
									<path fill="#B4CBCD" d="M-74.6,120.2"/>
								</g>
								<g>
									<path fill="{{dressroom.currentSkinColorPalette.adret}}" d="M-71.5,125.9c-3,2.4-6.8,2.6-8.4,0.5c-1.6-2.1-0.4-5.7,2.6-8.1c3-2.4,6.8-2.6,8.4-0.5
							C-67.3,119.9-68.5,123.5-71.5,125.9z"/>
								</g>
								<g>
									<path fill="{{dressroom.currentSkinColorPalette.adret}}" d="M70,125.7c3,2.4,6.8,2.6,8.4,0.5c1.6-2.1,0.4-5.7-2.6-8.1c-3-2.4-6.8-2.6-8.4-0.5
							C65.8,119.7,67,123.3,70,125.7z"/>
								</g>
								<g>
									<g>
										<ellipse fill="{{dressroom.currentSkinColorPalette.ubac}}" cx="103.7" cy="-166.6" rx="19.3" ry="24.8"/>
									</g>
									<g>
										<ellipse fill="{{dressroom.currentSkinColorPalette.adret}}" cx="-104.3" cy="-166.6" rx="19.3" ry="24.8"/>
									</g>
									<g>
										<path fill="{{dressroom.currentSkinColorPalette.adret}}" d="M-18.7-62.5c-46.6,0-84.3-38.2-84.3-85.4V-238c0-47.1,37.8-85.4,84.3-85.4H2v260.9H-18.7z"/>
									</g>
									<g>
										<path fill="{{dressroom.currentSkinColorPalette.ubac}}" d="M18.1-62.5c46.6,0,84.3-38.2,84.3-85.4V-238c0-47.1-37.8-85.4-84.3-85.4H-0.2v260.9H18.1z"/>
									</g>
								</g>
							</g>
						</g>
					</g>
					<g>
						<polygon fill="{{dressroom.currentSkinColorPalette.adret}}" points="25.7,321.5 90.8,321.5 90.8,310.5 85.1,300.4 25.7,310.2 			"/>
					</g>
				</g>
				<circle fill="{{dressroom.currentSkinColorPalette.adret}}" cx="1.2" cy="-159.1" r="12.9"/>

				<g id="fulles">
					<g id="fulles-dalt" ng-if="dressroom.displayElement.topLeaf">
						<g>
							<path
								display="inline"
								fill="#50773A"
								d="M29.4,90.3c1.1-4.8-8.3-17-10.6-21.6c-3.8-7.6-7.4-15.3-9.7-23.2
			C4.7,30.1,5.2,11,18.8-0.4c8.4-7,25-9.6,30.7-18.7c-0.3,0.4,9.1,12,9.7,12.9c5.5,9,11.1,19.7,11.1,29.9c0,8.5-5.1,16.5-9.9,23.5
			C50.4,61.9,33.2,72.7,29.4,90.3z"/>
						</g>
						<g>
							<path
								display="inline"
								fill="#50773A"
								d="M-41.1,87.3c1.1-4.8-8.3-17-10.6-21.6c-3.8-7.6-7.4-15.3-9.7-23.2
			c-4.4-15.4-3.9-34.5,9.7-46c8.4-7,25-9.6,30.7-18.7c-0.3,0.4,9.1,12,9.7,12.9c5.5,9,11.1,19.7,11.1,29.9c0,8.5-5.1,16.5-9.9,23.5
			C-20.1,58.8-37.2,69.6-41.1,87.3z"/>
						</g>
					</g>
					<g id="fulla-baix" ng-if="dressroom.displayElement.bottomLeaf">
						<path
							display="inline"
							fill="#50773A"
							d="M-2.4,237.3c1.1-4.8-8.3-17-10.6-21.6c-3.8-7.6-7.4-15.3-9.7-23.2
			c-4.4-15.4-3.9-34.5,9.7-46c8.4-7,25-9.6,30.7-18.7c-0.3,0.4,9.1,12,9.7,12.9c5.5,9,11.1,19.7,11.1,29.9c0,8.5-5.1,16.5-9.9,23.5
			C18.5,208.9,1.4,219.7-2.4,237.3z"/>
					</g>
				</g>
			</g>

			<g id="_ULLERES_F_9" ng-if="dressroom.displayElement.glasses[8]">
				<path
					id="gafas_3_2_"
					fill="#99CC99"
					d="M102.8-218.5c-0.7-0.9-1.9-0.7-2.5-3c-0.6-2.3-6.3-17.7-12.5-21.2
		c-6.3-3.5-18.3-9.5-47.4-11.6c-22.6-0.6-36.2-1.1-40.1-1.2v0c0,0-0.2,0-0.6,0c-0.4,0-0.6,0-0.6,0v0c-3.9,0.1-17.5,0.6-40.1,1.2
		c-29.2,2.1-41.2,8.1-47.4,11.6c-6.3,3.5-11.9,19-12.6,21.2c-0.6,2.3-1.8,2.1-2.5,3c-0.7,0.9,0.1,6.4,2.3,9.9
		c2.4,19.8,10.5,31.1,15.6,37.1c5.1,6,19,8.9,28.8,8.5c21.5-3.7,25.1-10.4,34.4-19.7c9.3-9.3,16.7-34.8,17.7-37.7
		c0.8-2.2,3.2-3,4.3-3.2c1.1,0.2,3.5,1,4.3,3.2c1.1,2.9,8.4,28.4,17.8,37.7c9.3,9.3,13,16,34.4,19.7c9.7,0.4,23.7-2.5,28.7-8.5
		c5.1-6,13.2-17.3,15.6-37.1C102.7-212.1,103.6-217.6,102.8-218.5z M-11.7-214.8c-1.6,7.5-7.3,22.6-13.8,29.8
		c-6.5,7.3-10.7,13.8-27.1,17.4c-9.4,1.2-23.4,0.2-29.8-7.7c-6.5-7.9-13-20.4-13-32.2c0-11.9,0.8-16.2,0.8-16.2s3.8-13.5,14-17.8
		c10.1-4.4,26.3-7.3,43.9-6c17.6,1.2,23.5,4.1,24.9,8.1C-10.3-235.5-10.1-222.2-11.7-214.8z M81.7-175.2c-6.5,7.9-20.4,8.9-29.8,7.7
		c-16.4-3.6-20.6-10.2-27.1-17.4c-6.5-7.3-12.1-22.4-13.8-29.8c-1.6-7.5-1.4-20.7,0-24.7c1.4-3.9,7.3-6.8,24.9-8.1
		c17.6-1.2,33.8,1.7,43.9,6c10.1,4.4,14,17.8,14,17.8s0.8,4.4,0.8,16.2C94.6-195.6,88.2-183.1,81.7-175.2z"/>
			</g>
			<g id="_ULLERES_F_8" ng-if="dressroom.displayElement.glasses[7]">
				<g>
					<path
						fill="#3D3D3B"
						d="M102.4-224c-0.7-0.9-1.9-0.7-2.5-3c-0.6-2.3-6.3-17.8-12.5-21.4c-6.3-3.5-18.2-9.6-47.3-11.7
			c-22.5-0.6-36.1-1.1-40-1.2v0c0,0-0.2,0-0.6,0c-0.4,0-0.6,0-0.6,0v0c-3.9,0.1-17.5,0.6-40,1.2c-29.1,2.1-41.1,8.1-47.3,11.7
			c-6.3,3.5-11.9,19.1-12.5,21.4c-0.6,2.3-1.8,2.1-2.5,3c-0.7,0.9,0.1,6.5,2.3,10c2.4,19.9,10.5,31.3,15.5,37.4c5,6.1,19,9,28.7,8.6
			c21.4-3.8,25-10.4,34.3-19.8c9.3-9.4,16.6-35.1,17.7-38c0.8-2.2,3.2-3,4.3-3.2c1.1,0.2,3.5,1,4.3,3.2c1.1,2.9,8.4,28.6,17.7,38
			c9.3,9.4,12.9,16.1,34.3,19.8c9.7,0.4,23.6-2.5,28.7-8.6c5.1-6.1,13.1-17.4,15.5-37.4C102.3-217.5,103.2-223,102.4-224z
			 M-11.8-220.2c-1.6,7.5-7.3,22.7-13.7,30c-6.5,7.3-10.7,13.9-27,17.5c-9.4,1.3-23.3,0.2-29.8-7.7c-6.5-7.9-12.9-20.5-12.9-32.5
			c0-12,0.8-16.4,0.8-16.4s3.8-13.6,13.9-17.9c10.1-4.4,26.3-7.3,43.8-6.1c17.6,1.3,23.4,4.2,24.8,8.1
			C-10.4-241.1-10.2-227.7-11.8-220.2z M81.3-180.4c-6.5,7.9-20.4,9-29.7,7.7c-16.3-3.7-20.5-10.2-27-17.5
			c-6.5-7.3-12.1-22.5-13.7-30c-1.6-7.5-1.4-20.9,0-24.8c1.4-4,7.3-6.9,24.8-8.1c17.6-1.3,33.7,1.7,43.8,6.1
			c10.1,4.4,13.9,17.9,13.9,17.9s0.8,4.4,0.8,16.4C94.3-200.9,87.8-188.3,81.3-180.4z"/>
					<path
						fill="#9A9999"
						stroke="#3D3D3B"
						stroke-miterlimit="10"
						d="M83.6-180.4c-6.7,8.1-21.2,9.2-31,7.9c-17-3.8-21.4-10.5-28.1-18
			c-6.7-7.5-12.6-23.1-14.3-30.8c-1.7-7.7-1.5-21.4,0-25.5c1.5-4.1,7.6-7.1,25.9-8.4c18.3-1.3,35.1,1.7,45.6,6.2
			c10.5,4.5,14.5,18.4,14.5,18.4s0.8,4.5,0.8,16.8C97.1-201.5,90.4-188.5,83.6-180.4z"/>
					<path
						fill="#9A9999"
						stroke="#3D3D3B"
						stroke-miterlimit="10"
						d="M-97.6-213.7c0-12.3,0.8-16.8,0.8-16.8s4-13.9,14.5-18.4
			c10.5-4.5,27.2-7.5,45.5-6.2c18.2,1.3,24.3,4.3,25.8,8.4c1.5,4.1,1.7,17.8,0,25.5c-1.7,7.7-7.5,23.3-14.2,30.8
			c-6.7,7.5-11.1,14.2-28,18c-9.7,1.3-24.2,0.2-30.9-7.9C-90.9-188.5-97.6-201.5-97.6-213.7z"/>
				</g>
			</g>
			<g id="_ULLERES_F_7" ng-if="dressroom.displayElement.glasses[6]">
				<g>
					<g>
						<path
							fill="#65140F"
							d="M102.4-235.1c0-0.7-0.4-1.2-1-1.4c-0.4-0.1-0.9-0.3-1.3-0.3c-6.4-1.1-12.9-2.2-19.3-2.7
				c-5.2-0.4-10.4-0.7-15.6-0.9c-10-0.5-20-0.3-29.9,1.1c-6.1,0.9-12.1,2.1-17.9,4.2c-3,1.1-5.9,2.3-8.8,3.3
				c-4.6,1.6-9.3,2.4-14.1,1.4c-2.9-0.6-5.7-1.5-8.5-2.5c-5-1.8-10.1-3.6-15.3-4.7c-10.2-2.1-20.4-3.1-30-2.9
				c-7.8,0-14.8,0.3-21.8,1.2c-5.7,0.8-11.4,1.6-17.1,2.5c-1.2,0.2-2.4,0.6-3.6,0.9c-0.6,0.2-1.1,0.7-1.1,1.4
				c-0.1,3.8-0.2,7.5-0.3,11.3c0,0.6,0.1,1.1,0.2,1.7c0.1,0.5,0.3,0.8,0.7,1c0.4,0.2,0.9,0.4,1.3,0.7c1.9,1.5,2.8,3.7,3.5,6
				c0.5,1.6,0.8,3.3,1.3,5c0.3,1,0.6,2.1,0.8,3.1c1,4.9,1.9,9.8,2.9,14.8c1,4.7,2.2,9.3,4.2,13.5c2.2,4.8,5.4,8.4,10,10.6
				c2.7,1.3,5.6,2.1,8.5,2.6c5.2,0.9,10.5,1,15.8,0.6c5.4-0.4,10.7-1.3,15.8-3.1c3.8-1.3,7.4-3.1,10.5-6c4.7-4.5,8.5-9.7,11.4-15.8
				c2.9-6.1,4.9-12.5,6.8-19c0.5-1.9,1-3.8,1.6-5.6c0.9-2.7,2.6-4.4,5.2-4.8c0.8-0.1,1.7-0.2,2.5-0.1c1.9,0.1,3.8,0.6,5.1,2.4
				c0.6,0.8,1.1,1.7,1.5,2.6c0.7,1.8,1.4,3.6,1.9,5.5c2.3,8.1,5.3,15.8,9.2,23.1c3.2,6.1,7.4,11,13,14.4c3.9,2.4,8.1,3.9,12.5,4.9
				c6.6,1.4,13.3,1.8,20,1.4c4-0.2,8.1-0.8,11.9-2.1c4-1.3,7.5-3.5,10.1-7.2c1.7-2.4,3-5.1,4-7.9c2.2-5.9,3.6-12.1,4.9-18.4
				c0.6-3.1,1.3-6.1,1.9-9.1c0.3-1.6,0.8-3.1,1.2-4.7c0.4-1.5,0.7-3,1.5-4.2c0.8-1.3,1.7-2.5,3.1-3.1c0.6-0.2,0.9-0.7,1.1-1.4
				c0.1-0.5,0.2-1,0.2-1.5c0-2.2,0-4.5-0.1-6.7C102.7-231.9,102.5-233.5,102.4-235.1 M-94.7-227.9 M-63.6-233.1 M81.3-228.8
				 M45.3-233.6c3.2-0.2,6.4-0.3,8.6-0.4 M22.3-228.5 M86.9-206.5 M93.7-227.9"/>
					</g>
				</g>
			</g>
			<g id="_ULLERES_F_6" ng-if="dressroom.displayElement.glasses[5]">
				<path
					id="gafas_2_2_"
					fill="#669999"
					d="M-103-216.5c2.5,0.7,9.5,22.7,13.3,33.9c3.8,11.2,9.5,15.5,18.4,18.5
		c17.9,3.8,35-1.1,40.2-3.3c5.2-2.2,8.8-8.3,12.3-15.2c3.5-6.9,11.6-29.1,13.6-33.7l9.9,0c2,4.5,10.2,26.7,13.7,33.6
		c3.5,6.9,7.1,13,12.3,15.2c5.2,2.2,22.4,7.1,40.2,3.3c8.9-3,14.6-7.3,18.4-18.5c3.8-11.2,10.7-31.1,11.7-33.8
		c0.5-1.5,1.5-1.3,1.5-1.3v-17.7c0,0-5.7-3.5-18.2-4.2c-12.4-0.8-39.5-1.4-51.5-0.1c-12,1.2-14.5,2.2-16.3,3.8
		c-1.9,1.6-2.7,4-6.1,4.6h-21.1c-3.4-0.6-4.2-3-6.1-4.6c-1.9-1.6-4.3-2.5-16.3-3.8c-12-1.2-39.1-0.6-51.5,0.1
		c-12.4,0.8-18.3,5.9-18.3,5.9 M-16.9-200.1c-3.7,13.3-7.4,23.2-14.4,27.2c-7,4-33.8,10.8-46.1,0.5c-2.4-2.1-9.5-10.3-10.8-26.5
		c-1.3-16.2-2.7-24.7,5.9-29.3c0,0,17.2-6.5,30.9-6.5c15.5,0.1,29.1,2.8,32.2,7.4C-16.2-222.6-12.5-216.8-16.9-200.1z M87.8-198.9
		c-1.3,16.2-8.4,24.4-10.8,26.5c-12.3,10.3-39.1,3.4-46.1-0.5c-7.1-4-10.7-13.9-14.4-27.2c-4.4-16.8-0.8-22.5,2.3-27.1
		c3.1-4.6,16.7-7.4,32.2-7.4c13.7-0.1,30.9,6.5,30.9,6.5C90.5-223.6,89-215,87.8-198.9z"/>
			</g>
			<g id="_ULLERES_F_5" ng-if="dressroom.displayElement.glasses[4]">
				<g>
					<path
						fill="#3D3F91"
						d="M102.3-236.7c0-0.7-0.4-1.1-1-1.3c-0.4-0.1-0.9-0.3-1.3-0.3c-6.4-1.1-12.9-2.1-19.3-2.5
			c-5.2-0.4-10.4-0.6-15.6-0.9c-10-0.5-20-0.2-29.9,1.1c-6.1,0.8-12.1,1.9-17.9,3.9c-3,1-5.9,2.2-8.8,3.1c-4.6,1.5-9.3,2.2-14.1,1.3
			c-2.9-0.6-5.7-1.4-8.5-2.4c-5.1-1.7-10.1-3.4-15.3-4.4c-10.2-2-20.5-2.9-30-2.8c-7.8,0-14.8,0.3-21.8,1.2
			c-5.7,0.7-11.4,1.5-17.2,2.3c-1.2,0.2-2.4,0.5-3.6,0.9c-0.6,0.2-1.1,0.6-1.1,1.4c-0.1,3.5-0.2,7-0.3,10.6c0,0.5,0.1,1.1,0.2,1.6
			c0.1,0.4,0.3,0.8,0.7,0.9c0.4,0.2,0.9,0.4,1.3,0.7c1.9,1.4,2.8,3.4,3.5,5.6c0.5,1.5,0.8,3.1,1.3,4.7c0.3,1,0.6,1.9,0.8,2.9
			c1,4.6,1.9,9.2,2.9,13.8c1,4.4,2.2,8.7,4.2,12.7c2.2,4.5,5.4,7.9,10,9.9c2.7,1.2,5.6,2,8.5,2.4c5.2,0.9,10.5,1,15.8,0.6
			c5.4-0.4,10.7-1.2,15.8-2.9c3.8-1.2,7.5-2.9,10.5-5.6c4.7-4.2,8.5-9.1,11.4-14.8c2.9-5.7,4.9-11.7,6.8-17.8c0.5-1.8,1-3.5,1.6-5.2
			c0.9-2.5,2.6-4.1,5.2-4.5c0.8-0.1,1.7-0.2,2.5-0.1c1.9,0.1,3.8,0.5,5.1,2.2c0.6,0.7,1.1,1.6,1.5,2.4c0.7,1.7,1.4,3.4,1.9,5.1
			c2.3,7.6,5.3,14.8,9.2,21.6c3.2,5.7,7.4,10.3,13,13.4c3.9,2.2,8.2,3.7,12.5,4.6c6.6,1.3,13.3,1.7,20,1.4c4.1-0.2,8.1-0.7,12-1.9
			c4-1.2,7.5-3.3,10.1-6.8c1.7-2.2,3-4.7,4-7.4c2.2-5.5,3.6-11.3,4.9-17.2c0.6-2.9,1.3-5.7,1.9-8.5c0.3-1.5,0.8-2.9,1.2-4.4
			c0.4-1.4,0.7-2.8,1.5-4c0.8-1.2,1.7-2.4,3.1-2.9c0.6-0.2,0.9-0.7,1.1-1.3c0.1-0.5,0.2-0.9,0.2-1.4c0-2.1,0-4.2-0.1-6.3
			C102.6-233.7,102.4-235.2,102.3-236.7 M-18.5-207.8c-1.4,6.1-3.7,11.9-6.7,17.3c-1.7,3-3.6,5.8-6,8.1c-3.2,3.2-7,5-11.2,6.2
			c-8.5,2.3-17.1,2.9-25.7,1.5c-1.7-0.3-3.4-0.7-5-1.2c-3.4-0.9-6.1-3-8-6.1c-2.2-3.4-3.5-7.2-4.5-11.1c-1.2-5.2-1.8-10.4-2.3-15.7
			c-0.3-3.1-0.2-6.1,0.1-9.2c0.2-1.5,0.3-3.1,0.6-4.6c1.2-5.3,4.3-8.7,9.4-10.1c4.7-1.3,9.4-2,14.2-2.4c3.5-0.3,7.1-0.5,9.4-0.6
			c8.2,0.1,15,0.6,21.8,2.3c2.8,0.7,5.5,1.2,8.1,2.6c1.2,0.7,2.4,1.5,3.5,2.4c1.8,1.5,2.7,3.6,3.1,6
			C-17-217.4-17.5-212.6-18.5-207.8 M87.1-210.1c-0.2,7.4-1.4,14.7-3.9,21.6c-1,2.8-2.4,5.4-4.5,7.5c-2.3,2.4-5.2,3.6-8.3,4.5
			c-3.9,1.1-7.8,1.4-11.8,1.4c-6,0.1-12-0.7-17.9-2c-5.8-1.3-10.5-4.5-14.2-9.3c-4.7-6.2-7.8-13.2-9.5-20.9
			c-0.8-3.6-1.5-7.1-1.4-10.8c0-1.6,0.2-3.2,0.5-4.7c0.7-3.9,3-6.4,6.4-7.9c3.5-1.5,7.1-2.3,10.7-3.1c4.1-0.8,8.1-1.5,12.3-1.7
			c3.2-0.2,6.4-0.3,8.6-0.4c8.6,0.4,16.2,1.1,23.5,3.3c1.4,0.4,2.6,1,3.9,1.7c1.2,0.6,2.1,1.6,2.7,2.8c0.7,1.4,1.3,2.8,1.9,4.2
			c0.6,1.7,0.7,3.5,0.8,5.3C87-215.8,87.2-212.9,87.1-210.1 M93.9-230.1"/>
				</g>
			</g>
			<g id="_ULLERES_F_4" ng-if="dressroom.displayElement.glasses[3]">
				<g>
					<path fill="none" stroke="#9A6633" stroke-width="4" stroke-miterlimit="10" d="M-18.1-211.4h-65.6c-4.2,0-7.6-3.4-7.6-7.6v-12.6
			c0-4.2,3.4-7.6,7.6-7.6h65.6c4.2,0,7.6,3.4,7.6,7.6v12.6C-10.5-214.8-13.9-211.4-18.1-211.4z"/>
					<path fill="none" stroke="#9A6633" stroke-width="4" stroke-miterlimit="10" d="M79.9-211.4H18.3c-4.2,0-7.6-3.4-7.6-7.6v-12.6
			c0-4.2,3.4-7.6,7.6-7.6h61.6c4.2,0,7.6,3.4,7.6,7.6v12.6C87.5-214.8,84.1-211.4,79.9-211.4z"/>
					<line fill="none" stroke="#9A6633" stroke-width="4" stroke-miterlimit="10" x1="-10.5" y1="-225.3" x2="10.7" y2="-225.3"/>
					<line fill="none" stroke="#9A6633" stroke-width="4" stroke-miterlimit="10" x1="87.5" y1="-225.3" x2="102.3" y2="-225.3"/>
					<line fill="none" stroke="#9A6633" stroke-width="4" stroke-miterlimit="10" x1="-91.3" y1="-225.3" x2="-103.1" y2="-225.3"/>
				</g>
			</g>
			<g id="_ULLERES_F_3" ng-if="dressroom.displayElement.glasses[2]">
				<g>
					<path fill="#261911" d="M-0.3-216.4"/>
					<path fill="#3D3D3B" d="M-89.2-206.9c-0.4-7.2-13.8-5.2-13.8-5.2v-9.1l14.3-2.8"/>
					<path
						fill="#3D3D3B"
						d="M-48.8-171.8c-23.4,0-42.4-19.6-42.4-43.7s19-43.7,42.4-43.7c23.4,0,42.4,19.6,42.4,43.7
			S-25.5-171.8-48.8-171.8z M-48.8-254.1c-20.6,0-37.4,17.3-37.4,38.6s16.8,38.6,37.4,38.6c20.6,0,37.4-17.3,37.4-38.6
			S-28.2-254.1-48.8-254.1z"/>
					<path fill="#3D3D3B" d="M88.9-206.9c0.4-7.2,13.4-5,13.4-5l0-9.3L88.4-224"/>
					<path fill="#3D3D3B" d="M48.3-171.8C25-171.8,6-191.4,6-215.5s19-43.7,42.4-43.7c23.4,0,42.4,19.6,42.4,43.7
			S71.7-171.8,48.3-171.8z M48.3-254.1c-20.6,0-37.4,17.3-37.4,38.6s16.8,38.6,37.4,38.6c20.6,0,37.4-17.3,37.4-38.6
			S68.9-254.1,48.3-254.1z"/>
					<g>
						<polyline fill="#3D3D3B" points="-10.8,-214.5 -0.6,-214.5 -1.6,-214.5 8.5,-214.5 8.5,-222 -1.6,-222 -0.6,-222 -10.8,-222
				"/>
					</g>
				</g>
			</g>
			<g id="_ULLERES_F_2" ng-if="dressroom.displayElement.glasses[1]">
				<g id="gafas_1_1_">
					<path
						fill="#9A3515"
						d="M-103-206.6c0,0,14.1-0.3,17.6,14c0,0,6.6,34.9,35.4,33.5c25.5,1.2,33.6-25.9,35.1-32.2
			c3.2-12.4,12.6-13.4,14.6-13.4c2,0.1,11.4,1,14.6,13.4c1.5,6.3,9.7,33.4,35.1,32.2c28.8,1.3,35.4-33.5,35.4-33.5
			c3.5-14.3,17.5-13.5,17.5-13.5v-13l-1.4,0.1c-1.5,0-11.7-0.6-14.9-13.8l0.4,1.3l-0.4-1.3c0,0-39.6-28.4-77.8,7.3l-8.5-0.2
			l-8.5,0.2c-38.3-35.7-77.8-7.3-77.8-7.3c-3.2,13.2-14.8,13.8-16.3,13.8 M-19.7-191.1c0,0-5.5,25.9-29.4,24.9
			c-20.7,0.9-27.6-18.5-29.1-23.7l0,0l0,0c-0.2-0.8-0.3-1.2-0.3-1.2l0.3,1.2l0,0c-2.2-8-0.3-20.1-0.3-20.1s5.5-25.9,29.4-24.9
			c22.2-0.9,28.5,21.4,29.3,24.5l0,0c0,0,2.1,7.3-0.2,20.5L-19.7-191.1z M-0.6-204.7c0,0,0.1,0,0.2,0H-0.6z M-0.1-204.7
			c0.1,0,0.2,0,0.2,0H-0.1z M79.9-191.9c0,0-5.5,25.9-29.4,24.9c-20.7,0.9-27.6-18.5-29.1-23.7l0,0l0,0c-0.2-0.8-0.3-1.2-0.3-1.2
			l0.3,1.2l0,0c-2.2-8-0.3-20.1-0.3-20.1s5.5-25.9,29.4-24.9c22.2-0.9,28.5,21.4,29.3,24.5l0,0c0,0,2.1,7.3-0.2,20.5L79.9-191.9z"/>
					<path fill="#9A3515" d="M-101.7-219"/>
					<path fill="#9A3515" d="M-1.2-225.8"/>
				</g>
			</g>
			<g id="_ULLERES_F_1" ng-if="dressroom.displayElement.glasses[0]">
				<path
					fill="#CC6667"
					d="M102.5-242.2c0,0-4.3-0.8-48.2,2.1c-36.8,2.4-50.9,13.8-54.5,13.8c-3.6,0-17.6-11.4-54.5-13.8
		c-43.9-2.9-48.2-2.1-48.2-2.1s-1.2,15.1,0,17.4c1.2,2.3,2,19.7,2.9,25.8c0.9,6.1,2.9,17.5,9.5,24.1c6.6,6.6,16.9,10.8,28.4,12.1
		c15.7,0.8,20.6-0.1,32.1-7c11.6-6.9,19-27.7,20.3-31.5c1.2-3.8,3-9.8,4.2-11.9c1-1.7,2.9-2.2,4.3-2.3v0.1c0,0,0.4-0.1,1-0.1
		c0.6,0,1,0.1,1,0.1v-0.1c1.4,0.1,3.3,0.6,4.3,2.3c1.2,2.1,3,8.1,4.2,11.9c1.2,3.8,8.7,24.7,20.3,31.5c11.6,6.9,16.4,7.7,32.1,7
		c11.4-1.2,21.8-5.5,28.4-12.1c6.6-6.6,8.5-18,9.5-24.1c0.9-6.1,1.7-23.5,2.9-25.8C103.7-227.1,102.5-242.2,102.5-242.2z
		 M-15.8-211.1c-1.1,5.5-3.2,23.2-14,32.5c-5.3,4.7-11.7,9.8-23.6,10.1c-8.6,0.2-25.8-2-32.4-10.4c-3.1-4.7-7.6-10-7.8-23.1
		c-0.2-13.1-0.2-23.5,2.3-26.1c0,0,4.3-5.3,9-6.4c4.7-1.1,18.2-1.8,31.6,0.9c13.4,2.7,26.2,7,29.6,9.9
		C-17.7-220.7-14.7-216.6-15.8-211.1z M93.2-202c-0.2,13.1-4.7,18.3-7.8,23.1c-6.6,8.4-23.8,10.5-32.4,10.4
		c-11.9-0.3-18.3-5.3-23.6-10.1c-10.8-9.3-13-27-14-32.5c-1.1-5.5,2-9.6,5.3-12.5c3.4-2.9,16.2-7.2,29.6-9.9
		c13.4-2.7,26.8-2,31.6-0.9c4.7,1.1,9,6.4,9,6.4C93.3-225.5,93.3-215.1,93.2-202z"/>
			</g>

			<g id="_SABATES_F_10" ng-if="dressroom.displayElement.shoes[9]">
				<g>
					<polygon fill="#531E53" points="-23.9,321.7 -90.3,321.7 -90.3,310.6 -84,300.3 -22.3,279 		"/>
					<polygon fill="#531E53" points="25.7,321.5 92,321.5 92,310.5 85.8,300.1 23.6,278.6 		"/>
				</g>
			</g>
			<g id="_SABATES_F_9" ng-if="dressroom.displayElement.shoes[8]">
				<g>
					<g>
						<polygon fill="#3D3D3B" points="-23.1,322.7 -90.6,322.5 -90.6,311.4 -84.9,301.3 -23.1,292.5 			"/>
						<polyline fill="#3D3D3B" points="-84.9,301.3 -92,280.7 -56.2,273.1 -57.8,305.7 			"/>
					</g>
					<polygon fill="#3D3D3B" points="24.1,322.7 93.8,322.8 93.8,311.9 88,301.7 24.1,293 		"/>
					<polyline fill="#3D3D3B" points="87.9,302 93.9,281.7 58.1,273.5 59.8,306.2 		"/>
				</g>
			</g>
			<g id="_SABATES_F_8" ng-if="dressroom.displayElement.shoes[7]">
				<g>
					<g>
						<polygon fill="#4BB1B3" points="-23.6,321.5 -89.6,321.5 -89.6,310.5 -84,300.4 -23.6,301.2 			"/>
						<polygon fill="#4BB1B3" points="24.8,321.5 90.8,321.5 90.8,310.6 86,301.8 24.8,301.2 			"/>
					</g>
				</g>
			</g>
			<g id="_SABATES_F_7" ng-if="dressroom.displayElement.shoes[6]">
				<g>
					<polygon fill="#253E1E" points="-24.2,321.5 -89.7,321.5 -89.6,310.5 -83.9,299.8 -24.2,309.5 		"/>
					<polygon fill="#253E1E" points="25.5,321.8 90.9,321.8 90.9,310.9 85.3,300.1 25.5,309.8 		"/>
					<polyline fill="#253E1E" points="-83.9,310.3 -93.3,283.4 -64.5,283.4 -68.1,312.8 		"/>
					<polyline fill="#253E1E" points="85.2,310.6 94.5,283.7 65.7,283.7 69.4,313.1 		"/>
				</g>
			</g>
			<g id="_SABATES_F_6" ng-if="dressroom.displayElement.shoes[5]">
				<g>
					<g>
						<polygon fill="#9B4517" points="-24.2,321.5 -89.6,321.5 -89.6,310.5 -84,300.4 -24.2,310.7 			"/>
						<polygon fill="#9B4517" points="25.8,322.7 91.8,322.7 91.8,311.8 86.1,301.8 25.8,311.6 			"/>
					</g>
					<polyline fill="#9B4517" points="-43.2,316.9 -43.2,328.8 -24.2,328.8 -24.2,321.1 		"/>
					<polyline fill="#9B4517" points="44.9,318.5 44.9,330.4 25.8,330.4 25.8,322.7 		"/>
				</g>
			</g>
			<g id="_SABATES_F_5" ng-if="dressroom.displayElement.shoes[4]">
				<polygon fill="#958218" points="-23.6,321.5 -89.8,321.5 -89.8,310.3 -84.1,300 -23.6,310.1 	"/>
				<polygon fill="#958218" points="25.8,321.5 90.8,321.5 90.8,310.5 85.2,300.4 25.8,310.2 	"/>
				<polyline fill="#958218" points="-84,301.9 -93.6,274.2 -64,274.2 -67.8,304.6 	"/>
				<polyline fill="#958218" points="85.1,302.2 94.5,275 65.4,275 69.1,304.8 	"/>
			</g>
			<g id="_SABATES_F_4" ng-if="dressroom.displayElement.shoes[3]">
				<g id="zapatos_2_1_">
					<polygon fill="#3D3F91" points="-24.2,321.6 -89.8,321.6 -89.8,310.5 -84.1,300.4 -24.2,310.3 		"/>
					<polygon fill="#3D3F91" points="25.7,321.6 92,321.6 92,310.5 85.9,300.5 25.7,310.3 		"/>
				</g>
			</g>
			<g id="_SABATES_F_3" ng-if="dressroom.displayElement.shoes[2]">
				<g>
					<g>
						<polygon fill="#FBCC9A" points="-24.2,321.6 -89.6,321.6 -89.6,310.5 -83.8,300.3 -24.2,310.2 			"/>
						<g>
							<polyline fill="#40572C" points="-24.2,315.9 -24.2,321.6 -89.6,321.6 -89.6,316 				"/>
						</g>
						<polyline fill="#40572C" points="-89.6,321.6 -89.6,310.5 -83.9,300.3 -79.1,301.1 -87.6,317 			"/>
						<polyline fill="#40572C" points="-79.1,301.1 -65.2,318.1 -58.9,318.1 -71.7,302.3 			"/>
					</g>
					<g>
						<polygon fill="#FBCC9A" points="25.6,321.1 90.8,321.1 90.8,310.1 85.8,301.8 25.6,309.7 			"/>
						<g>
							<polyline fill="#40572C" points="25.6,315.8 25.6,321.5 90.8,321.5 90.8,316 				"/>
						</g>
						<polyline fill="#40572C" points="90.8,321.1 90.8,310.1 86,301.8 80.2,301.7 88.7,316.6 			"/>
						<polygon fill="#40572C" points="84.7,301.8 69.9,317.1 63.6,317.1 76.5,301.7 80.2,301.7 			"/>
					</g>
				</g>
			</g>
			<g id="_SABATES_F_2" ng-if="dressroom.displayElement.shoes[1]">
				<g id="zapatos_2_4_">
					<polygon fill="#3D3D3B" points="-24.2,321.6 -89.8,321.6 -89.8,310.5 -84.1,300.3 -24.2,310.2 		"/>
					<polygon fill="#3D3D3B" points="25.7,321.6 92,321.6 92,310.5 85.9,300.5 25.7,310.2 		"/>
				</g>
			</g>
			<g id="_SABATES_F_1" ng-if="dressroom.displayElement.shoes[0]">
				<g>
					<g>
						<polygon fill="#FBCC9A" points="25.7,321.1 89.8,321.1 89.8,310.8 84.3,301.3 25.7,310.6 			"/>
						<polyline fill="#645030" points="25.7,316.1 25.7,321.5 90.8,321.5 90.8,316.2 			"/>
						<polyline fill="#645030" points="90.8,321.5 90.8,310.4 86,301.3 80.4,301.8 88.8,317.1 			"/>
					</g>
					<g>
						<polygon fill="#FBCC9A" points="-24.2,321.5 -89.6,321.5 -89.6,310.7 -84,300.8 -24.2,310.5 			"/>
						<polyline fill="#645030" points="-24.2,316 -24.2,321.5 -89.6,321.5 -89.6,316.1 			"/>
						<polyline fill="#645030" points="-89.6,320.9 -89.6,310.1 -84,300.3 -79.2,301.1 -87.6,316.4 			"/>
					</g>
				</g>
			</g>

			<g id="_CABELL_F_9" ng-if="dressroom.displayElement.hair[8]">
				<g>
					<g>
						<path
							fill="#805E39"
							d="M110.8-286.2c0,0-8.1-76.5-97.6-76.5c0,0-10.2-1-14,5.2c-3.8-6.3-14-5.2-14-5.2
				c-89.6,0-97.6,76.5-97.6,76.5c-4,38.7,23.1,20.6,44.3,8.6c6,25.8,33.2-14.6,37.2-20.6c8.1,17.2,24.2,1.7,29.2-9.5
				c0.3-0.7,0.6-1.4,0.9-2.2c0.3,0.8,0.6,1.5,0.9,2.2c5,11.2,21.1,26.6,29.2,9.5c4,6,31.2,46.4,37.2,20.6
				C87.6-265.6,114.8-247.5,110.8-286.2z"/>
					</g>
					<g>
						<path fill="#805E39" d="M-59.7-355c-16.1-19.8,8.1-37,32.2-27.5c1-9.5,2-16.3,14.1-18.9C-1.3-404,8.8-398,9.8-388.5
				c17.1-8.6,48.3,1.7,35.2,20.6c11.1,0.9,23.1,7.7,16.1,18.1"/>
					</g>
				</g>
			</g>

			<g id="_CABELL_F_8" ng-if="dressroom.displayElement.hair[7]">

				<path id="capa_sobre_1_" fill="#FDCC68" d="M105.6-248.9c0,0,26.1-85.5-59.6-112c0,0-135.7-93.2-169.1,114.1v26.3l53.7-24.5
		c0,0,90.8-31,110.2-68.9c0,0-9.9,47.8,5.1,65c0,0,20.7,46.6,32,56.3C78-192.6,103-204.9,105.6-248.9z"/>
			</g>

			<g id="_CABELL_F_7" ng-if="dressroom.displayElement.hair[6]">
				<path id="capa_sobre_2_" fill="#2D0E0F" d="M-63.5-329.8c0,0,65.4,96.9,87.3,108.3c21.9,11.4,85.1,3.1,85.1,3.1
		s-11.6-66.8-26.4-92.2c-8.2-14.1-17.3-38.4-94.2-37.3C-27.8-347.7-63.5-329.8-63.5-329.8z"/>
			</g>

			<g id="_CABELL_F_6" ng-if="dressroom.displayElement.hair[5]">
				<path id="capa_sobre" fill="#676767" d="M-99.7-224.4c0,0-23-73.5,52.6-96.2c0,0,119.7-80,149.1,98v22.6l-47.4-21.1
		c0,0-80.1-26.7-97.2-59.2c0,0,8.7,41.1-4.5,55.9c0,0-18.2,40.1-28.2,48.4C-75.3-176-97.3-186.5-99.7-224.4z"/>
				<g id="barret_sobre_1_">
					<path
						id="barret_sobre"
						opacity="0.5"
						fill="#201621"
						d="M90.4-328c-10.1-4.7-21.4-8.8-21.4-8.8s-2.5-14.2-6.5-23
			c-4-8.8-10.5-23.1-20.3-26.8c-15.2-5.8-47.8-5.8-47.8-5.8s-30,0-47.8,5.8c-10,3.2-16.3,18-20.3,26.8c-4,8.8-6.5,23-6.5,23
			s-11.2,4.1-21.4,8.8c-10.1,4.7-17.4,12.9-19.5,21.7c3.3,27.1,36.7,38.6,36.7,38.6s3.8-22.4,5.6-30.1c1.8-7.8,5.8-11.2,21.4-16.9
			c15.6-5.8,51.8-7.8,51.8-7.8s36.2,2,51.8,7.8c15.6,5.8,19.5,9.1,21.4,16.9c1.8,7.8,5.6,30.1,5.6,30.1s33.5-11.5,36.7-38.6
			C107.8-315.1,100.6-323.3,90.4-328z"/>
					<path opacity="0.5" fill="#531E53" d="M69.1-336.8c0,0-2.5-14.2-6.5-23c-4-8.8-10.5-23.1-20.3-26.8c-15.2-5.8-47.8-5.8-47.8-5.8
			s-30,0-47.8,5.8c-10,3.2-16.3,18-20.3,26.8c-4,8.8-6.5,23-6.5,23S-1.3-357.9,69.1-336.8z"/>
				</g>
			</g>

			<g id="_CABELL_F_5" ng-if="dressroom.displayElement.hair[4]">
				<g id="gorro_sobre">
					<path fill="#3D3D3B" stroke="#3D3D3B" stroke-miterlimit="10" d="M-101.3-293.3c0,0-18,46.1,17.6,55.3c0,0,95.5,28.9,181.6-5.4
			c0,0,18.7-13.4,4.2-49.9C102.2-293.3,45.9-269.5-101.3-293.3z"/>
					<path fill="#7B1812" d="M102.2-293.3c6.4-1.9-9.2-10.6-9.2-10.6c9.9-20-9.6-69.7-10.2-71.3C67.7-415,2.7-414.6-36.4-388.5
			c-26.9,18-44.8,47-57.2,75.5c-0.5,1.1-7.5,19.8-7.6,19.7C-101.3-293.3,23-269.9,102.2-293.3z"/>
				</g>
			</g>

			<g id="_CABELL_F_4" ng-if="dressroom.displayElement.hair[3]">
				<g id="path24826_2_">
					<path
						id="XMLID_2_"
						fill="#2D0E0F"
						d="M-78.5-125.2
			c-11.2-42.7,0.5-117,30.1-166.3l-0.1-0.3c12.2,28.3,67.6,50.9,96.9,50.9c1.6,0,3.3-0.2,4.9-0.4c10.8,21.2,33,123.1,33,123.1
			l10.2-24.6c0,0,34-75.6,4.4-142.4c-4.8-54-59.3-93.3-107.6-91.8l0,0c-16.1,0.5-32.4,5.6-47.5,16.5c-5.7,6.8-5.8,16.8-5.8,16.8
			c-61.2-11.9-59.9,96.7-58.3,108.3C-118.2-235.6-147.5-156.9-78.5-125.2z"/>
				</g>
			</g>

			<g id="_CABELL_F_3" ng-if="dressroom.displayElement.hair[2]">
				<g>
					<path
						fill="#2B1012"
						d="M-52-352.7c0,0-57.3-9.3-58.8,86.9c0,0-3.9,62.9,24.4,18.1l40.6-51.2c0,0,5-7.6,10,0.7
			c0,0,32.8,38.7,76.4,43.3c0,0-8.9,145.9,20.9,161.6c0,1.9,20.5,10.1,22.9,11.3c5.6,2.8,11.2,5.5,16.7,8.3c2.2,1.1,8.8,6.7,10.9,6
			c6-1.9,2.6-14.6,2-18.7c-0.6-3.9-0.5-7.1,0.2-10.9c1.2-7.2,2.4-14.5,3.4-21.7c3.8-25.8,6.8-51.7,8.9-77.6
			c2.5-32.1,3.8-64.5,2-96.7c-1.3-23.8-4.1-47.3-11-70.1c-4.3-14.2-11-34.2-27.7-37.6c-15.7-3.1-33.1,5-46.6,12.2
			c-5.1,2.8-10.1,5.8-14.9,9.1C28.5-379.7-13.1-406.6-52-352.7z"/>
					<path fill="#BF6919" d="M63.3-362.7L82-343.9C82-343.9,93.1-369,63.3-362.7z"/>
				</g>
			</g>

			<g id="_CABELL_F_2" ng-if="dressroom.displayElement.hair[1]">
				<path
					fill="#3D3D3B"
					stroke="#3D3D3B"
					stroke-miterlimit="10"
					d="M98.7-88.6c-0.4,4.1,1.1,8.1,0.1,12.2c-0.3,1.1-0.6,1.3-1.8,1.2
		c-2.1-0.1-4.6-1.7-6.3-2.9l-9.9-6.8c0.6,0.4,0.1,3.8,0,4.4c0,1.3,0.2,4.4-2.2,3.4c-2.1-0.9-4.3-1.9-5.9-3
		c-3.8-2.7-7.1-6.1-10.1-9.5c-3.1-3.6-7.6-7.3-9.1-12c-0.1-0.3-0.1-0.5-0.2-0.8c-0.9-4.7,3-9.9,5.9-13.3c4.3-5,11.4-6.8,17.7-5.7
		c7.1,1.2,10.9,6,15.3,10.8c1,1.1,2.2,2.1,3.3,3.2c2.1,2,4.3,4.1,6.4,6.1c1.3,1.3,2.8,3.3,4.5,4.1c2,1,5.1,0.2,6.8,1.8
		c2,1.9-3.3,7-5.2,7.7c-1.5,0.6-3.2,0.5-4.8,0.3C102-87.6,100.1-88.6,98.7-88.6z"/>
				<path fill="#3D3D3B" stroke="#3D3D3B" stroke-miterlimit="10" d="M-56.3-350.2c0,0-93.6-14.7-56.9,136c0,0,67.9-28.3,69.9-85.4
		c0,0,53.4,75.4,140.5,92.4c0,0,82-101.2-64.1-171.4C33-378.7-30.1-395.5-56.3-350.2z"/>
			</g>

			<g id="_CABELL_F_1" ng-if="dressroom.displayElement.hair[0]">
				<path
					fill="#3D3D3B"
					d="M-9.1-360.2c-1.3,0.4-3.9-0.4-5.2-0.5c-4.5-0.3-9.1-0.4-13.6-0.2c-6.4,0.2-12.8,0.9-19,2.1
		c-7.3,1.4-14.5,3.5-21.3,6.4c-7.5,3.2-14.5,7.5-20.6,12.7c-6.9,6-12.6,13.2-16.8,21.1c-5.3,9.8-8.3,20.6-9.9,31.5
		c-1.7,11.6-1.8,23.4-0.8,35.1c0.5,6.9,6.9,10.5,9.6,16.3c2.5,5.3,4.7,11.9,3.1,17.7c-2,7.3-4.5,20.8,5.5,24.3
		c-0.1,1.9-1,3.7-0.6,5.6c0.7,3.1,4.6,0.2,6-0.8c2.7-2,5.6-4.5,6-7.9c0.5-3.7-2.3-6.5-3.6-9.8c-0.6-1.6-0.9-3.4-1-5.2
		c-0.1-4.1,1.5-8.1,4.2-11.3c1.8-2.2,4.4-3.7,5.9-6.1c1.9-2.8,3.1-6.1,4.5-9.1c6.2-13.8,10.4-28.6,10.8-43.5c0.1-3.4,0-6.7-0.3-10.1
		c-0.2-1.7-0.4-3.4-0.7-5.1c-0.2-1-0.3-4.5-1-5.1c0,0,8.7,6.8,17.1,0c0,0,82.1,63.8,111.4,66.4c-1.6,6.1-2.8,12.3-3.9,18.4
		c-2.1,12-3.5,24.2-2.7,36.3c0.5,7.4,2.3,14.8,6.3,21.3c1.3,2.1,2.5,4.4,3.7,6.6c4.9,8.8,9.8,17.5,14.6,26.3
		c1.9,3.5,3.9,6.9,5.8,10.4c0.9,1.6,3.1,3.7,4.9,4.3c3.3,1.2,4.1-2.8,4.5-4.9c0.5-3.7,0.9-7.1,1.8-10.8c1.7-7.1,3.2-14.3,4.5-21.4
		c2-10.4,3.8-20.9,5.3-31.4c1.8-12.3,3.1-24.7,4-37.1c0.9-12.8,1.2-25.7,0.7-38.5c-0.5-12-1.9-24.1-4.7-35.8
		c-2.5-10.1-6.1-20.1-12.2-28.8c-0.6-0.8-1.2-1.6-1.8-2.4C50.1-376.5-9-360.2-9.1-360.2z"/>
			</g>

			<g id="_SAMARRETA_F_10" ng-if="dressroom.displayElement.topClothe[9]">
				<g>
					<g>
						<path fill="#968218" d="M110.1-3.8C99.4-14.9,89.4-27.7,78.6-38.6l-4.4-4.4c-8.4-8.5-22.1-8.4-30.4,0c-8.3,8.5-8.3,22,0,30.3
				l4.4,4.4C58.9,2.4,68.7,15.1,79.2,26"/>
						<path fill="#968218" d="M-76.2,24.1C-65.7,13.3-55.3,2.3-44.6-8.4l4.4-4.4c8.3-8.3,8.4-21.8,0.1-30.3c-8.3-8.5-21.9-8.5-30.4-0.1
				l-4.4,4.4C-85.8-28-96.6-17-107.3-6"/>
						<path fill="#968218" d="M59.5-50c-14.1-3.2-36-7-58.7-7c-22.7,0-44.6,3.8-58.8,7c-9,2-16.1,11.5-16.1,20.7v149.6H75.6V-29.3
				C75.6-38.4,68.5-48,59.5-50z"/>
					</g>
					<path
						fill="#EACE04"
						stroke="#EACE04"
						stroke-miterlimit="10"
						d="M-55.3,43.9C-55.2,13-29.9-12.9,1.8-12.8
			c29.7,0.1,56.9,23.5,56.7,57.3C58.3,78.1,31,101.1,2.1,101.2C-29.4,101.3-55.3,75.8-55.3,43.9z M56.7,44.1
			c0.1-30.5-25.2-55.1-54.8-55c-31.1,0.1-54.7,24.7-55.1,54.1c-0.5,33,26.3,55.8,54.2,56.1C32.3,99.6,57,73.8,56.7,44.1z"/>
					<g>
						<g>
							<path fill="#EACE04" stroke="#EACE04" stroke-miterlimit="10" d="M-7.1-22.3H8.3l41.6,130.5H32.4l-9.6-31.3h-44.7l-9.7,31.3h-17
					L-7.1-22.3z M16.7,56.7L0.4,4.9l-16.2,51.8H16.7z"/>
						</g>
					</g>
				</g>
			</g>

			<g id="_SAMARRETA_F_9" ng-if="dressroom.displayElement.topClothe[8]">
				<g>
					<path
						fill="#047A9A"
						stroke="#047A9A"
						stroke-miterlimit="10"
						d="M152.5,89.2l2.2-3.5c1.9-3.3,3.9-6.7,5.3-10.1
			c0.9-1.7,1.3-3.5,1.9-5.2c0.4-1.7,0.6-3.5,0.8-5.2l0.2-2.6l0.1-1.4c0-0.4-0.2-0.9-0.3-1.3c-0.5-1.8-0.8-3.4-1.3-5.1l-0.9-2.5
			c-0.3-0.8-0.6-1.7-1.1-2.5c-1-1.6-1.9-3.2-3-4.8l-3.5-4.6c-0.6-0.8-1.2-1.5-1.8-2.2l-1.6-1.8c-2.8-3.3-5.5-6.3-8.2-9.3
			c-10.9-11.8-21.8-22.9-32.9-33.9c-11-11-22.2-21.8-33.4-32.6l-4.5-4.4c-8.7-8.3-22.4-8-30.6,0.7c-8.2,8.7-7.8,22.3,0.7,30.5
			L45-8.3c11,10.6,22,21.3,32.8,32.1c10.8,10.8,19.8,22.2,29.8,33c2.5,2.7,4.6,5.5,6.9,8.1l-0.3,1.3l0.3,2.1"/>
					<path
						fill="#047A9A"
						stroke="#047A9A"
						stroke-miterlimit="10"
						d="M-114.8,71.9l3.9-2.7l-2.4-4c2.2-2.7,2.3-2.8,4.7-5.6
			c9.6-11.2,19.8-22.4,30.1-33.6C-68.3,14.9-57.8,3.8-47.3-7.2l4.3-4.5c8.2-8.5,8-22.1-0.6-30.5c-8.5-8.3-22.3-8.1-30.6,0.6
			l-4.4,4.6c-10.7,11.1-21.3,22.4-31.8,33.7c-10.5,11.4-21,22.8-31.3,34.9c-2.6,3-5.2,6.2-7.8,9.4l-2.5,3.2
			c-1.1,1.5-2.2,3.1-3.3,4.6l-1.6,2.3l-1.4,2.4c-0.9,1.6-1.9,3.2-2.3,4.9l-0.8,2.5l-0.6,2.5c-0.3,1.7-1,3.5-0.6,5.3
			c0.3,3.5,0.7,7,2.3,10.4c1.5,3.4,3.3,6.7,5.3,10c0.5,0.8,1,1.6,1.5,2.4l1.2,1.9"/>
					<path
						fill="#047A9A"
						stroke="#047A9A"
						stroke-miterlimit="10"
						d="M56.5-51.3C42.2-54.2,20.2-57.5-2.7-57
			c-10.5,0.2-29.8,3.1-43.6,5.5c-7.9,1.3-14,2.5-15.4,2.9c-9,2.2-15.9,12-15.7,21.2l3.3,150.5l150.6-3.3L73.1-30.9
			C72.9-40.1,65.5-49.5,56.5-51.3z"/>
					<path fill="#4AB2B4" d="M-51.9-51l31.1,37.8l12.6-44.1C-8.2-57.4-49.3-53.6-51.9-51z"/>
					<polygon fill="#4AB2B4" points="-102.5,80.8 -145.8,106.6 -153.3,93.9 -109.7,68.5 		"/>
					<polygon fill="#4AB2B4" points="108.7,73.5 147.5,98.8 153.9,88.1 114.1,65 		"/>
					<path fill="#4AB2B4" d="M61-50.8L29.9-14.4l-13.4-43C16.5-57.4,58.4-53.3,61-50.8z"/>
				</g>
			</g>
			<g id="_SAMARRETA_F_8" ng-if="dressroom.displayElement.topClothe[7]">
				<g>
					<path fill="#651511" d="M111.2-2.7c-11.1-11.1-20.4-25.1-31.7-36L75-43.1c-8.7-8.4-22.8-8.4-31.4,0c-8.6,8.4-8.6,21.9,0,30.2
			l4.5,4.4C59.2,2.3,68.5,15.3,79.3,26.2"/>
					<path fill="#651511" d="M-80.1,28C-69.3,17.2-58.8,5.4-47.7-5.3l4.5-4.4c8.6-8.3,8.7-21.8,0.1-30.2c-8.6-8.5-21.3-11-30-2.6
			l-5.9,6.9c-11.2,10.8-20.8,23.2-31.9,34.2"/>
					<path fill="#651511" d="M59.9-50c-14.6-3.1-37.1-7-60.6-7c-23.5,0-46.1,3.8-60.7,7C-70.6-48-78-38.5-78-29.3v149.2H76.5V-29.3
			C76.5-38.5,69.1-48,59.9-50z"/>
				</g>
				<rect x="-76" y="57.6" fill="#3D3D3B" width="154.5" height="35.2"/>
				<polyline fill="#3D3D3B" points="7.7,57.6 39.2,47.4 69.4,57.6 	"/>
			</g>
			<g id="_SAMARRETA_F_7" ng-if="dressroom.displayElement.topClothe[6]">
				<g>
					<path
						fill="#3D3F91"
						d="M74.3-43.4c-8.5-8.5-22.4-8.5-30.8,0c-8.4,8.5-8.4,22,0,30.4l4.4,4.4C58.8,2.2,68,14.6,78.6,25.6
			c10.6,11,20.1,21.4,29.9,32.5c2.4,2.8,2.8,3.2,4.9,5.9l0,0l-2,3.9c-8.1,11.7-17.1,23.3-26.6,35.1L75,116.2l33.4,27.8l14.9-17.9
			c9.9-12.3,19.2-18.8,28.8-32.5l1.8-2.6l2.3-3.5c2-3.3,4-6.6,5.6-10c0.9-1.7,1.4-3.4,2-5.1c0.4-1.7,0.7-3.5,0.9-5.2l0.2-2.6
			l0.1-1.3c0-0.4-0.2-0.9-0.2-1.3c-0.4-1.8-0.7-3.4-1.2-5.1l-0.9-2.5c-0.3-0.8-0.5-1.7-1.1-2.5c-1-1.6-1.8-3.2-2.9-4.8l-3.4-4.6
			c-0.6-0.8-1.1-1.5-1.7-2.3l-1.5-1.9c-2.7-3.3-5.4-6.4-8.1-9.4c-10.7-12-21.5-23.3-32.3-34.5C100.7-16.9,89.8-28,78.7-39L74.3-43.4
			z"/>
					<path
						fill="#3D3F91"
						d="M-41.3-12.8c8.4-8.3,8.5-21.9,0.1-30.4c-8.4-8.5-22.2-8.6-30.8-0.1l-4.5,4.4C-87.4-28-98.3-17.1-109.2-6
			c-10.9,11.1-21.6,22.3-32.3,34.2c-2.7,3-5.3,6-8,9.2l-2.6,3.1c-1.2,1.5-2.3,3-3.4,4.5l-1.7,2.3l-1.5,2.4c-1,1.6-2,3.2-2.5,4.9
			l-0.9,2.5l-0.6,2.5c-0.3,1.7-1.1,3.4-0.7,5.2c0.2,3.5,0.6,7,2,10.4c1.4,3.4,3.1,6.8,5.1,10.1c0.5,0.8,0.9,1.7,1.4,2.5l1.2,1.9
			l1.7,2.7c9.2,13.9,19.5,24.6,29.1,37l12.5,14.2l33.1-27.6l-9.8-12.9c-9.2-11.9-16.3-21.9-24-33.6l-2.4-3.1l0,0
			c2.2-2.7,3.7-5.7,6.1-8.4c9.9-11,20.3-22.6,30.9-33.5c10.6-10.9,19.9-22.2,30.8-33L-41.3-12.8z"/>
					<path fill="#3D3F91" d="M59.5-50.3c-14.3-3.2-36.4-7-59.4-7c-23,0-45.2,3.8-59.6,7c-9.1,2-16.3,11.6-16.3,20.8v150.1H75.8V-29.6
			C75.8-38.8,68.5-48.3,59.5-50.3z"/>
				</g>
			</g>
			<g id="_SAMARRETA_F_6" ng-if="dressroom.displayElement.topClothe[5]">
				<g>
					<path fill="#9294C9" d="M139.4,27.5C128.6,15.3,124,7.7,113-3.7c-11-11.4-22-22.7-33.1-33.9l-4.5-4.5c-8.6-8.6-22.6-8.6-31.1,0
			c-8.5,8.6-8.5,22.4,0,31l4.5,4.5c11,11,20.9,23,31.6,34.2"/>
					<path fill="#9294C9" d="M78.9,123"/>
					<path fill="#9294C9" d="M-79.6,27.5c10.7-11.1,19.1-21.8,30-32.8l4.5-4.5c8.5-8.5,8.6-22.3,0.1-31c-8.5-8.7-22.4-8.7-31.1-0.1
			l-4.5,4.5C-91.6-25.2-102.7-14-113.6-2.7c-11,11.3-14.4,18.2-25.1,30.2"/>
					<path fill="#9294C9" d="M60.4-50.2c-14.5-3.2-36.8-7.1-60-7.1c-23.2,0-45.6,3.9-60.1,7.1c-9.2,2-16.5,11.8-16.5,21.2v152.9h153
			V-29C76.8-38.4,69.5-48.1,60.4-50.2z"/>
				</g>
			</g>
			<g id="_SAMARRETA_F_5" ng-if="dressroom.displayElement.topClothe[4]">
				<g>
					<g>
						<path
							fill="#6F8128"
							d="M76.3-43.4c-8.5-8.5-22.4-8.5-30.8,0c-8.4,8.5-8.4,22,0,30.4l4.4,4.4C60.8,2.2,69,15.2,79.6,26.2
				c10.6,11,20,21.7,29.9,32.8c2.4,2.8,3.8,4.7,6,7.4l0-2.3l-2,3.9c-8.1,11.7-17.1,23.3-26.6,35.1l-9.8,12.3l32.4,27.4l15.9-16.6
				c9.9-12.3,19.2-18.8,28.8-32.5l1.8-2.6l2.3-3.5c2-3.3,4-6.6,5.6-10c0.9-1.7,1.4-3.4,2-5.1c0.4-1.7,0.7-3.5,0.9-5.2l0.2-2.6
				l0.1-1.3c0-0.4-0.2-0.9-0.2-1.3c-0.4-1.8-0.7-3.4-1.2-5.1l-0.9-2.5c-0.3-0.8-0.5-1.7-1.1-2.5c-1-1.6-1.8-3.2-2.9-4.8l-3.4-4.6
				c-0.6-0.8-1.1-1.5-1.7-2.3l-1.5-1.9c-2.7-3.3-5.4-6.4-8.1-9.4c-10.7-12-21.5-23.3-32.3-34.5C102.7-16.9,91.8-28,80.7-39
				L76.3-43.4z"/>
						<path
							fill="#6F8128"
							d="M-39.5-13c8.4-8.3,8.5-21.9,0.1-30.4c-8.4-8.5-22.2-8.6-30.8-0.1l-4.5,4.4c-11,10.9-21.9,21.8-32.8,32.9
				C-118.3,4.9-129,16.1-139.7,28c-2.7,3-5.3,6-8,9.2l-2.6,3.1c-1.2,1.5-2.3,3-3.4,4.5l-1.7,2.3l-1.5,2.4c-1,1.6-2,3.2-2.5,4.9
				l-0.9,2.5l-0.6,2.5c-0.3,1.7-1.1,3.4-0.7,5.2c0.2,3.5,0.6,7,2,10.4c1.4,3.4,3.1,6.8,5.1,10.1c0.5,0.8,0.9,1.7,1.4,2.5l1.2,1.9
				l1.7,2.7c9.2,13.9,19.5,24.6,29.1,37l11.4,14.9l33.5-27.7l-9.8-13.2c-9.2-11.9-18.2-23.6-25.9-35.3l-1.6-2.1l0,0
				c2.2-2.7,4.5-6.4,7-9.1c9.9-11,30.9-32.9,30.9-32.9C-65,12.9-54.8,2.1-43.9-8.7L-39.5-13z"/>
						<path fill="#6F8128" d="M59.5-50.3c-14.3-3.2-36.4-7-59.4-7c-23,0-45.2,3.8-59.6,7c-9.1,2-16.3,11.6-16.3,20.8v150.1H75.8V-29.6
				C75.8-38.8,68.5-48.3,59.5-50.3z"/>
					</g>
					<g>
						<g>
							<path
								fill="#8E888C"
								d="M-45.2-51.2c-0.4,5,2.7,8.7,5.9,12.2c2.2,2.5,4.1,5,5.7,8c0.8,1.6,1.3,3.4,1.8,5.2
					c0.9,3.4-0.9,5.1-2.8,7.6c-7.7,10.4,0.8,23.7,7.8,31.6c2.1,2.4,5.7-1.1,3.5-3.5C-27.9,4.8-32-0.8-32.5-7.9c-0.2-3.4,1.1-6.3,3-9
					c1.4-1.9,3-4,2.8-6.5c-0.3-5.1-2.3-9.9-5.1-14.1c-2.8-4.4-8.9-8-8.5-13.7C-40-54.4-45-54.4-45.2-51.2L-45.2-51.2z"/>
						</g>
					</g>
					<g>
						<g>
							<path
								fill="#8E888C"
								d="M44.7-50.5c0.4,5.5-5.5,9.6-8.5,13.7c-2.9,4-4.8,9.2-5.1,14.1C31-20.7,32-18.8,33-17.3
					c2.2,3.4,3.8,5.8,3.9,10.1c0.1,6.9-4.9,12.9-9.1,17.8c-2.1,2.4,1.4,6,3.5,3.5C39,5.5,45.9-6.1,39.1-17.4
					c-0.9-1.6-2.2-2.6-2.9-4.4c-0.7-1.6,0.5-4.6,1-6.2c1.1-3.5,3.3-6.5,5.6-9.2c3.5-3.9,7.2-7.7,6.8-13.3
					C49.5-53.7,44.5-53.7,44.7-50.5L44.7-50.5z"/>
						</g>
					</g>
				</g>
			</g>
			<g id="_SAMARRETA_F_4" ng-if="dressroom.displayElement.topClothe[3]">
				<g>
					<path fill="#CDCCCC" d="M110.9-3.4C99.8-14.5,89.8-27.8,78.5-38.7L74-43.1c-8.7-8.4-22.8-8.4-31.4,0c-8.6,8.4-8.6,21.9,0,30.2
			l4.5,4.4C58.2,2.3,67.4,15,78.2,25.9"/>
					<path fill="#CDCCCC" d="M-79.9,28.1c10.8-10.8,22.2-26,33.3-36.6l4.5-4.4c8.6-8.3,8.7-21.8,0.1-30.2c-8.6-8.5-22.6-8.5-31.4-0.1
			l-4.6,4.4c-11.2,10.8-22.1,26-33.1,37"/>
					<path fill="#CDCCCC" d="M59.9-50c-14.6-3.1-37.1-7-60.6-7c-23.5,0-46.1,3.8-60.7,7C-70.6-48-78-38.5-78-29.3v149.2H76.5V-29.3
			C76.5-38.5,69.1-48,59.9-50z"/>
				</g>
			</g>
			<g id="_SAMARRETA_F_3" ng-if="dressroom.displayElement.topClothe[2]">
				<g>
					<g>
						<path
							fill="#805E39"
							d="M76.3-43.4c-8.5-8.5-22.4-8.5-30.8,0c-8.4,8.5-8.4,22,0,30.4l4.4,4.4C60.8,2.2,68.7,14.9,79.3,25.9
				c10.6,11,19.7,21.3,29.6,32.4c2.4,2.8,3.4,4,5.6,6.6l0,0l-1,3c-8.1,11.7-17.1,23.3-26.6,35.1l-10,12.7l32.6,27.1l15.9-16.6
				c9.9-12.3,19.2-18.8,28.8-32.5l1.8-2.6l2.3-3.5c2-3.3,4-6.6,5.6-10c0.9-1.7,1.4-3.4,2-5.1c0.4-1.7,0.7-3.5,0.9-5.2l0.2-2.6
				l0.1-1.3c0-0.4-0.2-0.9-0.2-1.3c-0.4-1.8-0.7-3.4-1.2-5.1l-0.9-2.5c-0.3-0.8-0.5-1.7-1.1-2.5c-1-1.6-1.8-3.2-2.9-4.8l-3.4-4.6
				c-0.6-0.8-1.1-1.5-1.7-2.3l-1.5-1.9c-2.7-3.3-5.4-6.4-8.1-9.4c-10.7-12-21.5-23.3-32.3-34.5C102.7-16.9,91.8-28,80.7-39
				L76.3-43.4z"/>
						<path
							fill="#805E39"
							d="M-39.3-13.1c8.4-8.3,8.5-21.9,0.1-30.4C-47.6-52-61.4-52-70-43.6l-4.5,4.4c-11,10.9-21.9,21.8-32.8,32.9
				c-10.9,11.1-21.6,22.3-32.3,34.2c-2.7,3-5.3,6-8,9.2l-2.6,3.1c-1.2,1.5-2.3,3-3.4,4.5l-1.7,2.3l-1.5,2.4c-1,1.6-2,3.2-2.5,4.9
				l-0.9,2.5l-0.6,2.5c-0.3,1.7-1.1,3.4-0.7,5.2c0.2,3.5,0.6,7,2,10.4c1.4,3.4,3.1,6.8,5.1,10.1c0.5,0.8,0.9,1.7,1.4,2.5l1.2,1.9
				l1.7,2.7c9.2,13.9,19.5,24.6,29.1,37l11.4,14.9l34.2-28.2l-9.8-12.9C-94.3,91-104,79.6-111.7,67.8l-1.2-1.5l0,0
				c2.2-2.7,6.3-8.4,8.8-11.1c9.9-11,17.5-20.6,28.1-31.4C-65.4,12.9-54.6,2.1-43.8-8.7L-39.3-13.1z"/>
						<path fill="#805E39" d="M59.5-50.5c-14.3-3.2-36.4-7-59.4-7c-23,0-45.2,3.8-59.6,7c-9.1,2-16.3,11.6-16.3,20.8v150.1H75.8V-29.7
				C75.8-38.9,68.6-48.5,59.5-50.5z"/>
					</g>
				</g>
			</g>
			<g id="_SAMARRETA_F_2" ng-if="dressroom.displayElement.topClothe[1]">
				<g>
					<g>
						<path
							fill="#92AA2D"
							d="M76.3-43.4c-8.5-8.5-22.4-8.5-30.8,0c-8.4,8.5-8.4,22,0,30.4l4.4,4.4C60.8,2.2,69.6,15.8,80.2,26.8
				c10.6,11,28,30.6,28,30.6c2.4,2.8,4.6,5.6,6.8,8.3l0.5-1.7l-2.8,4.4c-8.1,11.7-16.3,22.8-25.8,34.5l-10.2,12.7l32.7,27.1
				l15.9-16.6c9.9-12.3,19.2-18.8,28.8-32.5l1.8-2.6l2.3-3.5c2-3.3,4-6.6,5.6-10c0.9-1.7,1.4-3.4,2-5.1c0.4-1.7,0.7-3.5,0.9-5.2
				l0.2-2.6l0.1-1.3c0-0.4-0.2-0.9-0.2-1.3c-0.4-1.8-0.7-3.4-1.2-5.1l-0.9-2.5c-0.3-0.8-0.5-1.7-1.1-2.5c-1-1.6-1.8-3.2-2.9-4.8
				l-3.4-4.6c-0.6-0.8-1.1-1.5-1.7-2.3l-1.5-1.9c-2.7-3.3-5.4-6.4-8.1-9.4c-10.7-12-21.5-23.3-32.3-34.5C102.7-16.9,91.8-28,80.7-39
				L76.3-43.4z"/>
						<path
							fill="#92AA2D"
							d="M-39.5-13c8.4-8.3,8.5-21.9,0.1-30.4c-8.4-8.5-22.2-8.6-30.8-0.1l-4.5,4.4c-11,10.9-21.9,21.8-32.8,32.9
				C-118.3,4.9-129,16.1-139.7,28c-2.7,3-5.3,6-8,9.2l-2.6,3.1c-1.2,1.5-2.3,3-3.4,4.5l-1.7,2.3l-1.5,2.4c-1,1.6-2,3.2-2.5,4.9
				l-0.9,2.5l-0.6,2.5c-0.3,1.7-1.1,3.4-0.7,5.2c0.2,3.5,0.6,7,2,10.4c1.4,3.4,3.1,6.8,5.1,10.1c0.5,0.8,0.9,1.7,1.4,2.5l1.2,1.9
				l1.7,2.7c9.2,13.9,19.5,24.6,29.1,37l11.4,14.9l33.2-27.4L-86,103c-9.2-11.9-18.2-23.4-25.9-35.2l-1-1.3l-0.8-1
				c2.2-2.7,4.6-6.1,7.1-8.8c9.9-11,30.1-32.3,30.4-32.9c6.9-13.6,21.4-21.7,32.3-32.4L-39.5-13z"/>
						<path fill="#253E1E" d="M61.5-50.3c-14.3-3.2-36.4-7-59.4-7c-23,0-45.2,3.8-59.6,7c-9.1,2-16.3,11.6-16.3,20.8v150.1H77.8V-29.6
				C77.8-38.8,70.5-48.3,61.5-50.3z"/>
					</g>
					<path fill="#92AA2D" d="M-25.6-55.8c-23.3,0-24.7,2.5-38.5,6.5c-9,2.6-14.4,11.6-14.4,21v154.1l53.7,72V-55.5"/>
					<path fill="#92AA2D" d="M24.8-55.5c23.3,0,23,1.6,37.2,6c9,2.8,16.5,11.8,16.5,21.2l-0.7,154.5l-48,71.6L24.8-55.5"/>
				</g>
			</g>
			<g id="_SAMARRETA_F_1" ng-if="dressroom.displayElement.topClothe[0]">
				<g>
					<g>
						<path
							fill="#9B4517"
							stroke="#9B4517"
							stroke-miterlimit="10"
							d="M75.7-44.6c-8.6-9.1-22.5-9.1-31,0c-8.5,9.1-8.4,23.6,0,32.5
				l4.5,4.7C60.2,4.3,71,16,81.7,27.7c10.7,11.7,21.3,23.6,31.2,35.4c2.4,2.9,0.2,0.1,2.4,2.9l-1.9,1.8l-4.2,6
				c-8.2,12.5-12.8,16.5-22.4,29.1l-14.5,19.2l40.7,36l11.7-15.2c9.9-13.1,19.7-26.2,29.2-40.8l1.8-2.8l2.3-3.7
				c2-3.5,4.1-7,5.6-10.7c0.9-1.8,1.4-3.7,2.1-5.5c0.4-1.9,0.7-3.7,0.9-5.6l0.2-2.8l0.1-1.4c0-0.5-0.2-0.9-0.2-1.4
				c-0.4-1.9-0.8-3.7-1.2-5.5l-0.9-2.7c-0.3-0.9-0.5-1.8-1.1-2.7c-1-1.7-1.9-3.5-2.9-5.1l-3.4-5c-0.6-0.8-1.1-1.6-1.7-2.4l-1.5-2
				c-2.7-3.6-5.4-6.8-8.1-10.1c-10.8-12.9-21.6-24.9-32.5-37c-10.9-12-22-23.8-33-35.6L75.7-44.6z"/>
						<path
							fill="#9B4517"
							stroke="#9B4517"
							stroke-miterlimit="10"
							d="M-40.7-12.1c8.5-8.9,8.6-23.4,0.1-32.5
				c-8.4-9.1-22.4-9.2-31-0.1l-4.5,4.8c-11.1,11.6-22,23.4-33,35.2c-10.9,11.9-21.8,23.9-32.5,36.6c-2.7,3.2-5.4,6.4-8.1,9.9
				l-2.6,3.3c-1.2,1.6-2.3,3.2-3.5,4.9l-1.7,2.5l-1.5,2.6c-1,1.7-2,3.4-2.5,5.2l-0.9,2.7l-0.6,2.7c-0.3,1.8-1.1,3.7-0.7,5.6
				c0.2,3.7,0.6,7.5,2,11.1c1.4,3.7,3.1,7.3,5.1,10.8c0.5,0.9,1,1.8,1.4,2.6l1.2,2l1.7,2.9c9.2,14.8,18.6,28,28.2,41.3l11.4,15.5
				l43.4-34.8l-13.6-16.4c-9.2-12.7-14.8-16.6-22.6-29.1l-3.3-4.5l-3.8-5.9c2.3-2.9,1-1.3,3.5-4.2C-99,50.7-88.3,39-77.7,27.3
				C-67,15.7-56.1,4.1-45.2-7.4L-40.7-12.1z"/>
						<path fill="#9B4517" stroke="#9B4517" stroke-miterlimit="10" d="M60.8-52c-14.4-3.4-36.6-7.5-59.8-7.5
				c-23.2,0-45.5,4.1-59.9,7.5c-9.1,2.1-16.4,12.4-16.4,22.2v160.7H77.2V-29.8C77.2-39.6,70-49.9,60.8-52z"/>
					</g>
					<polyline fill="#9B4517" stroke="#9B4517" stroke-miterlimit="10" points="-75.3,130.9 -121.8,232.1 118.9,232.1 77.2,130.9 		"/>
				</g>
			</g>

			<g id="_PANTALO_F_8" ng-if="dressroom.displayElement.bottomClothe[7]">
				<path fill="#CCCC99" d="M82,223.8l-7.5-103.6h-148l-6.7,103.4l60.8,9.8l4.9-69.4c0.4-6,5.6-10.9,11.6-10.9h8.4
		c6,0,10.7,4.5,11.1,10.6l4,69.7L82,223.8z"/>
			</g>
			<g id="_PANTALO_F_7" ng-if="dressroom.displayElement.bottomClothe[6]">
				<path fill="#70706F" d="M85.8,180.9L73.7,120H-73.7l-10.2,60.8l67.9,9.8l1.7-27c0.4-6,5-10.9,11-10.9h8.4
		c5.2,0.1,10.6,4.9,10.9,10.9l1.7,27L85.8,180.9z"/>
			</g>
			<g id="_PANTALO_F_6" ng-if="dressroom.displayElement.bottomClothe[5]">
				<g>
					<path fill="#9A6633" d="M82.1,223.4l-7.5-103.6h-148L-80,223.3l60.9,9.3l4.9-68.8c0.4-6,5.6-10.9,11.6-10.9h8.4
			c4.2-0.1,10.2,4.9,10.6,10.9l4.1,68.8L82.1,223.4z"/>
					<polygon fill="#CB9866" points="-80.5,222.6 -81.5,239.8 -20.2,251.1 -19.1,231.9 		"/>
					<polygon fill="#CB9866" points="82.1,222.6 83.1,239.8 21.7,251.1 20.4,231.9 		"/>
				</g>
			</g>
			<g id="_PANTALO_F_5" ng-if="dressroom.displayElement.bottomClothe[4]">
				<path fill="#5F64AA" d="M85.8,299.2L73.4,119.6H-73.8l-10.7,179.7l60.4,9.9l9-145.5c0.4-6,5.4-11,11.4-11h8.4
		c6,0,11.2,4.9,11.6,10.9l9.3,145.4L85.8,299.2z"/>
			</g>
			<g id="_PANTALO_F_4" ng-if="dressroom.displayElement.bottomClothe[3]">
				<polyline fill="#CCCAE6" points="25,215.9 83.7,206.4 71.8,119.4 -72.5,119.4 -82.5,206.4 -23.8,215.9 	"/>
			</g>
			<g id="_PANTALO_F_3" ng-if="dressroom.displayElement.bottomClothe[2]">
				<path fill="#33245E" d="M-18.1,268.8l-65.1,1.3l8.6-150.8l149.1,0.2l9.2,143.8l-34.4-28.8c-2.2-1.8-5.1-2-7.5-0.6l-55.8,33.7
		C-15.4,268.4-16.7,268.8-18.1,268.8z"/>
			</g>
			<g id="_PANTALO_F_2" ng-if="dressroom.displayElement.bottomClothe[1]">
				<g>
					<g>
						<polyline fill="#9ACDCD" points="25.6,311.9 85.9,301.9 73.7,118.1 -74.7,118.1 -84.9,301.9 -24.6,311.9 			"/>
					</g>
					<circle fill="#3D64AD" cx="-20.5" cy="292.8" r="6.3"/>
					<circle fill="#3D64AD" cx="2.2" cy="292.8" r="6.3"/>
					<circle fill="#3D64AD" cx="21.2" cy="286.5" r="6.3"/>
					<circle fill="#3D64AD" cx="35.1" cy="272.8" r="6.3"/>
					<circle fill="#3D64AD" cx="47.7" cy="253.3" r="6.3"/>
					<circle fill="#3D64AD" cx="54" cy="236.5" r="6.3"/>
					<circle fill="#3D64AD" cx="60.3" cy="215.7" r="6.3"/>
					<circle fill="#3D64AD" cx="64.6" cy="195" r="6.3"/>
				</g>
			</g>
			<g id="_PANTALO_F_1" ng-if="dressroom.displayElement.bottomClothe[0]">
				<path fill="#512A14" d="M-73.7-42c0,0,14.9-13.2,29.2-10.7v7.2v38.3v9.6v31.2l86.8,0.9v-87.3c0,0,21.6,1.6,29.8,9.4l13.8,327.5
		l-61.3,9.6l-8.1-130c-0.4-5.8-5.4-11-11.4-11h-8.5c-6.1,0-11.2,5.2-11.6,11l-8,129.9l-60.5-9.1l7.4-256.9L-73.7-42z"/>
			</g>

			<g id="_MOUSTACHE_OR_LIPS_F_7" ng-if="dressroom.displayElement.moustacheOrLips[6]">
				<g>
					<ellipse fill="#F29799" cx="50.4" cy="-153.9" rx="20.7" ry="17.8"/>
					<ellipse fill="#F29799" cx="-51.5" cy="-153.9" rx="19.8" ry="16.9"/>
				</g>
			</g>
			<g id="_MOUSTACHE_OR_LIPS_F_6" ng-if="dressroom.displayElement.moustacheOrLips[5]">
				<g>
					<circle fill="#B57C36" stroke="#B57C36" stroke-width="0.5" stroke-miterlimit="10" cx="-44.2" cy="-185.1" r="2.8"/>
					<circle fill="#B57C36" stroke="#B57C36" stroke-width="0.5" stroke-miterlimit="10" cx="-36.9" cy="-166.2" r="2.8"/>
					<circle fill="#B57C36" stroke="#B57C36" stroke-width="0.5" stroke-miterlimit="10" cx="-68" cy="-182.2" r="2.8"/>
					<circle fill="#B57C36" stroke="#B57C36" stroke-width="0.5" stroke-miterlimit="10" cx="-53.8" cy="-171.9" r="2.8"/>
					<circle fill="#B57C36" stroke="#B57C36" stroke-width="0.5" stroke-miterlimit="10" cx="-51.9" cy="-154.1" r="2.8"/>
					<circle fill="#B57C36" stroke="#B57C36" stroke-width="0.5" stroke-miterlimit="10" cx="-65.2" cy="-142.6" r="2.8"/>
					<circle fill="#B57C36" stroke="#B57C36" stroke-width="0.5" stroke-miterlimit="10" cx="-68" cy="-163.4" r="2.8"/>
					<circle fill="#B57C36" stroke="#B57C36" stroke-width="0.5" stroke-miterlimit="10" cx="-34.1" cy="-148.4" r="2.8"/>
					<circle fill="#B57C36" stroke="#B57C36" stroke-width="0.5" stroke-miterlimit="10" cx="-82.2" cy="-171.9" r="2.8"/>
					<circle fill="#B57C36" stroke="#B57C36" stroke-width="0.5" stroke-miterlimit="10" cx="-79.4" cy="-154.9" r="2.8"/>
					<circle fill="#B57C36" stroke="#B57C36" stroke-width="0.5" stroke-miterlimit="10" cx="-28.5" cy="-176.3" r="2.8"/>
					<circle fill="#B57C36" stroke="#B57C36" stroke-width="0.5" stroke-miterlimit="10" cx="-25.7" cy="-159.3" r="2.8"/>
					<circle fill="#B57C36" stroke="#B57C36" stroke-width="0.5" stroke-miterlimit="10" cx="-47" cy="-137.8" r="2.8"/>
				</g>
				<g>
					<circle fill="#B57C36" stroke="#B57C36" stroke-width="0.5" stroke-miterlimit="10" cx="60.8" cy="-185.1" r="2.8"/>
					<circle fill="#B57C36" stroke="#B57C36" stroke-width="0.5" stroke-miterlimit="10" cx="68.1" cy="-166.2" r="2.8"/>
					<circle fill="#B57C36" stroke="#B57C36" stroke-width="0.5" stroke-miterlimit="10" cx="37" cy="-182.2" r="2.8"/>
					<circle fill="#B57C36" stroke="#B57C36" stroke-width="0.5" stroke-miterlimit="10" cx="51.2" cy="-171.9" r="2.8"/>
					<circle fill="#B57C36" stroke="#B57C36" stroke-width="0.5" stroke-miterlimit="10" cx="53.1" cy="-154.1" r="2.8"/>
					<circle fill="#B57C36" stroke="#B57C36" stroke-width="0.5" stroke-miterlimit="10" cx="39.8" cy="-142.6" r="2.8"/>
					<circle fill="#B57C36" stroke="#B57C36" stroke-width="0.5" stroke-miterlimit="10" cx="37" cy="-163.4" r="2.8"/>
					<circle fill="#B57C36" stroke="#B57C36" stroke-width="0.5" stroke-miterlimit="10" cx="70.9" cy="-148.4" r="2.8"/>
					<circle fill="#B57C36" stroke="#B57C36" stroke-width="0.5" stroke-miterlimit="10" cx="22.8" cy="-171.9" r="2.8"/>
					<circle fill="#B57C36" stroke="#B57C36" stroke-width="0.5" stroke-miterlimit="10" cx="25.7" cy="-154.9" r="2.8"/>
					<circle fill="#B57C36" stroke="#B57C36" stroke-width="0.5" stroke-miterlimit="10" cx="76.5" cy="-176.3" r="2.8"/>
					<circle fill="#B57C36" stroke="#B57C36" stroke-width="0.5" stroke-miterlimit="10" cx="79.4" cy="-159.3" r="2.8"/>
					<circle fill="#B57C36" stroke="#B57C36" stroke-width="0.5" stroke-miterlimit="10" cx="58" cy="-137.8" r="2.8"/>
				</g>
			</g>
			<g id="_MOUSTACHE_OR_LIPS_F_5" ng-if="dressroom.displayElement.moustacheOrLips[4]">
				<path
					fill="#641122"
					d="M32-120.1C32-120.1,32-120.1,32-120.1c0-0.1,0-0.1,0-0.2c0-0.1,0-0.1,0-0.2c0,0,0,0,0,0
		c0-0.1-0.1-0.1-0.1-0.1c0-0.1-0.1-0.1-0.1-0.2c0,0,0,0,0,0c-0.5-0.3-13.5-6.7-24.1-6.7c-3.5,0-6.3,0.7-8.5,2c-2.2-1.4-5-2-8.5-2
		c-10.6,0-23.6,6.4-24.1,6.7c0,0,0,0,0,0c-0.1,0-0.1,0.1-0.2,0.2c0,0-0.1,0.1-0.1,0.1c0,0,0,0,0,0c0,0.1,0,0.2,0,0.2
		c0,0,0,0.1,0,0.1c0,0,0,0,0,0c0,0.1,0.1,0.2,0.2,0.3c0.1,0.1,14.1,12,33.3,12l0,0c11.2,0,22-4,32.1-12c0,0,0,0,0,0
		c0,0,0-0.1,0.1-0.1C32-119.9,32-120,32-120.1z"/>
			</g>
			<g id="_MOUSTACHE_OR_LIPS_F_4" ng-if="dressroom.displayElement.moustacheOrLips[3]">
				<g>
					<path fill="#3D3D3B" d="M-10.3-140.1l-2.4-1c0.6-1.4,5.6-13.6,12.8-13.6c0,0,0.1,0,0.1,0c4.4,0.1,8.2,4.5,11.5,13.6l-2.4,0.9
			c-2.8-7.8-6-11.9-9.1-11.9c0,0,0,0-0.1,0C-4.5-152.1-9-143.4-10.3-140.1z"/>
					<ellipse fill="#3D3D3B" stroke="#3D3D3B" stroke-width="0.5" stroke-miterlimit="10" cx="10.5" cy="-140.6" rx="2.8" ry="2.9"/>
					<ellipse fill="#3D3D3B" stroke="#3D3D3B" stroke-width="0.5" stroke-miterlimit="10" cx="-11" cy="-140.6" rx="2.8" ry="2.9"/>
				</g>
			</g>

			<g id="_MOUSTACHE_OR_LIPS_F_3" ng-if="dressroom.displayElement.moustacheOrLips[2]">
				<path
					fill="#641122"
					d="M-32.8-121.1C-32.9-121.1-32.9-121.1-32.8-121.1C-33-121-33-121-33-120.9c0,0-0.1,0.1-0.1,0.1c0,0,0,0,0,0
		c0,0.1,0,0.2,0,0.2c0,0,0,0.1,0,0.1c0,0,0,0,0,0c0,0.1,0.1,0.2,0.2,0.3c0.1,0.1,14.1,12,33.3,12l0,0c11.2,0,22-4,32.1-12
		c0,0,0,0,0,0c0,0,0-0.1,0.1-0.1c0.1-0.1,0.1-0.1,0.1-0.2c0,0,0,0,0,0c0,0,0-0.1,0-0.1c0-0.1,0-0.1,0-0.2c0,0,0,0,0,0
		c0-0.1-0.1-0.1-0.1-0.1c0-0.1-0.1-0.1-0.1-0.2c0,0,0,0,0,0"/>
			</g>
			<g id="_MOUSTACHE_OR_LIPS_F_2" ng-if="dressroom.displayElement.moustacheOrLips[1]">
				<circle fill="#3D3D3B" cx="-34.3" cy="-140.6" r="4.6"/>
			</g>
			<g id="_MOUSTACHE_OR_LIPS_F_1" ng-if="dressroom.displayElement.moustacheOrLips[0]">
				<ellipse fill="#CB6566" cx="-1" cy="-109.5" rx="13.5" ry="11.6"/>
			</g>

		</g>
	</g>
</svg>
