<?xml version="1.0" encoding="utf-8"?>
<!-- Generator: Adobe Illustrator 18.1.0, SVG Export Plug-In . SVG Version: 6.00 Build 0)  -->
<svg version="1.1" id="Capa_1" xmlns="http://www.w3.org/2000/svg" xmlns:xlink="http://www.w3.org/1999/xlink" x="0px" y="0px" viewBox="0 0 626 626" enable-background="new 0 0 626 626" xml:space="preserve">
	<g>
		<defs>
			<rect id="SVGID_11_" x="0" y="0" width="626" height="626"/>
		</defs>
		<clipPath id="SVGID_2_">
			<use xlink:href="#SVGID_11_" overflow="visible"/>
		</clipPath>
		<rect x="-0.7" y="-0.6" clip-path="url(#SVGID_2_)" fill="#CEE4C3" width="626.7" height="626.6"/>
		<path
			clip-path="url(#SVGID_2_)"
			fill="#9ACDCD"
			d="M259.8,627.1c-3.5-51.1-15-219.2-19.5-266c-4.7-48.6-16.4-122-19.2-139.2
		c4.1-1.6,7-5,7-9c0-5.6-5.6-10.2-12.4-10.1c-6.6,0.1-12,4.9-11.8,10.4c0.2,4.1,3.4,7.5,7.8,8.9c-1.1,23.3-6.6,140.4-9.3,168
		c0,0-16.9-169.2-21.4-198.9c4.3-1.5,7.4-5,7.4-9.2c0-5.6-5.6-10.2-12.4-10.1c-6.6,0.1-12.1,4.9-11.8,10.5c0.2,4.1,3.4,7.5,7.9,8.9
		c-1,13.7-8.3,108.2-13.7,175c-4.6-1.5-10.7-2.9-18.4-3.4c0.9-2.8,1.8-6.5,2.2-10.2c0.8-8.2-7.8-11.2-7.8-11.2s-8.6,2.9-7.9,11.2
		c0.3,3.7,1.2,7.4,2.1,10.2c-7.8,0.5-14,1.9-18.5,3.4c-4.7-66.9-10.9-161.5-11.8-175.2c4.6-1.4,8-5,8-9.3c0-5.5-5.4-10-12-10.1
		c-6.7,0-12.1,4.4-12.1,10c0,4.1,3,7.7,7.3,9.2c-4.9,29.7-23.6,198.7-23.6,198.7c-2.4-27.6-6.6-144.7-7.5-168c4.6-1.4,7.9-5,7.9-9.3
		c0-5.5-5.4-10-12-10.1c-6.7,0-12.1,4.4-12.1,10c0,4,2.8,7.4,6.9,9.1c-3,17.2-15.5,90.5-20.7,139.1c-5,46-17.9,209.4-22.2,263.3
		c-0.7,8.8,7.1,16.4,17.4,17.4c1.2-9.9,12.3-100.9,28-100.9c15.5,0,26.6,89.3,28,101.5l15.2,0.1c1.4-11.8,16.4-135.6,37.6-135.6
		c20.7,0,35.5,118.8,37.5,135.8l18.9,0l-4.2-0.1c0,0,11.5-101.8,28.2-101.8c15.7,0,26.8,91.1,28,101.8l2,0
		C252.6,641.9,260.4,635.1,259.8,627.1z M126.9,415.2l-12.8,5.3c-0.8-10.2-1.9-25.7-3.2-44c2.9-1.3,8.2-3.2,16.1-4
		c-1.1,2.1-2,5.3-2,10.2c-0.1,12.4,5.6,14.2,5.6,14.2L126.9,415.2z M153.9,420.6l-12.8-5.4l-3.5-18.3c0,0,5.7-1.7,5.8-14.1
		c0-4.9-0.9-8.1-1.9-10.3c7.6,0.7,13,2.5,16.1,3.9C156.1,394.7,154.8,410.3,153.9,420.6z"/>
		<path clip-path="url(#SVGID_2_)" fill="#A6CE88" d="M631,626c0.4-8.3,0.6-16.7,0.6-25.2c0-171.6-75.3-310.7-168.2-310.7
		c-92.9,0-168.2,139.1-168.2,310.7c0,8.5,0.2,16.9,0.6,25.2H631z"/>
		<path
			clip-path="url(#SVGID_2_)"
			fill="#9ACDCD"
			d="M41.9,121.9c-0.2-2-0.2-2.9-0.2-4.5c0-28.6,23.2-51.5,51.7-51.5
		c1.3,0,2.4,0.4,3.6,0.5c7.6-19.1,26.1-32.7,48-32.7c17.1,0,32.2,8.4,41.5,21.3c3.3-0.7,6.7-1,10.1-1c25,0,45.8,17.2,50.6,40.8
		c16,4.1,28.6,14.2,33.7,27.2H41.9z"/>
		<path
			clip-path="url(#SVGID_2_)"
			fill="#9ACDCD"
			d="M393.3,87.9c-0.1-2-0.2-2.2-0.2-3.4c0-21.3,17.3-38.5,38.6-38.5
		c0.9,0,1.8,0.3,2.7,0.3c5.6-14.3,19.5-24.4,35.8-24.4c12.8,0,24,6.3,31,15.9c2.5-0.5,5-0.8,7.5-0.8c18.7,0,34.2,12.9,37.8,30.5
		c11.9,3.1,21.4,10.4,25.2,20.4H393.3z"/>
		<rect x="0" y="0" clip-path="url(#SVGID_2_)" fill="none" width="626" height="626"/>
		<g clip-path="url(#SVGID_2_)">
			<defs>
				<rect id="SVGID_13_" x="0" y="0" width="626" height="626"/>
			</defs>
			<clipPath id="SVGID_4_">
				<use xlink:href="#SVGID_13_" overflow="visible"/>
			</clipPath>
		</g>
	</g>
</svg>
