<?xml version="1.0" encoding="utf-8"?>
<!-- Generator: Adobe Illustrator 18.1.0, SVG Export Plug-In . SVG Version: 6.00 Build 0)  -->
<svg version="1.1" id="Capa_1" xmlns="http://www.w3.org/2000/svg" xmlns:xlink="http://www.w3.org/1999/xlink" x="0px" y="0px" viewBox="0 0 626 626" enable-background="new 0 0 626 626" xml:space="preserve">
	<g>
		<rect x="0.1" y="0.1" fill="#D0EAF1" width="625.7" height="625.8"/>
		<g>
			<defs>
				<rect id="SVGID_7_" x="0.1" y="0.1" width="625.8" height="625.8"/>
			</defs>
			<clipPath id="SVGID_2_">
				<use xlink:href="#SVGID_7_" overflow="visible"/>
			</clipPath>
			<path
				clip-path="url(#SVGID_2_)"
				fill="#FBCC9A"
				d="M135.8,426.7c-11.7,19.7-12.3,36.7-12.8,50.3c-0.6,17.6-1,28.3-26.8,43.1
		c-7.7,4.4-14.4,8-20.4,11.2C33.1,554,25.2,564.6,31.2,639.9h20.9c-5.5-65.9-2.9-67.3,32.2-86c6.2-3.3,13.1-7,21-11.5
		c37-21.2,37.8-44.1,38.6-64.3c0.4-12,0.9-23.4,9-37.1L135.8,426.7z"/>
			<path clip-path="url(#SVGID_2_)" fill="#FBCC9A" d="M49.1,559.9c-30.9-24-28.3-55.3-26.4-78.1c2-24.3,3.1-36.5-24.3-45.2l5.3-23.9
		c44.5,14.1,41.7,47.3,39.6,71.5c-1.8,21.9-3.3,39.1,17.1,54.9L49.1,559.9z"/>
			<path clip-path="url(#SVGID_2_)" fill="#FBCC9A" d="M-9.4,549.5c-4.5,0-9-0.7-13.4-2.2c-10.8-3.9-19.1-12.9-24.1-26.1l18.9-10.1
		c2.5,6.7,6.1,10.7,11.2,12.6c12.7,4.6,32.4-5.2,45.5-14.9l11,20.9C30.9,536.2,10.7,549.5-9.4,549.5z"/>
			<path clip-path="url(#SVGID_2_)" fill="#CEE4C3" d="M-37.1,403.4c0-27.6,18.8-50,42-50c23.2,0,42,22.4,42,50c0,27.6-18.8,50-42,50
		C-18.3,453.4-37.1,431-37.1,403.4z"/>
			<ellipse clip-path="url(#SVGID_2_)" fill="#CEE4C3" cx="127.7" cy="449" rx="42" ry="50"/>
			<path
				clip-path="url(#SVGID_2_)"
				fill="#9ACDCD"
				d="M30,189.4c-0.2-2-0.2-3.1-0.2-4.7c0-28.6,23.2-51.6,51.7-51.6
		c1.3,0,2.4,0.4,3.6,0.4c7.6-19.1,26.1-32.7,48-32.7c17.1,0,32.1,8.4,41.5,21.3c3.3-0.7,6.7-1,10.1-1c25,0,45.8,17.4,50.6,41
		c16,4.1,28.6,14.4,33.7,27.4H30z"/>
		</g>
		<rect x="0.1" y="0.1" fill="none" width="625.7" height="625.8"/>
		<path
			fill-rule="evenodd"
			clip-rule="evenodd"
			fill="#9ACDCD"
			d="M583.5,266.7c-0.9-51.2-13.8-229.7-65.8-229.2
	c-53.6,0.6-65.9,180.7-65.9,229.4v166.7v40.1v152.1h83.1h48.6v-19.1v-3.5v-21.9v-3.5V556v-3.5v-21.9v0v-3.5v-21.9v-3.5v-21.9v-3.5
	v-2.7v-19.2v-3.5v-17.5v-4.4v-3.5v-21.9v-3.5v-21.9V375v-21.9v-3.5v-21.9v-3.5v-21.9v-3.5V277v0v-3.5v-1.3
	C583.5,270.7,583.5,268.8,583.5,266.7z"/>
	</g>
</svg>
