<?xml version="1.0" encoding="utf-8"?>
<!-- Generator: Adobe Illustrator 18.1.0, SVG Export Plug-In . SVG Version: 6.00 Build 0)  -->
<svg version="1.1" id="Capa_1" xmlns="http://www.w3.org/2000/svg" xmlns:xlink="http://www.w3.org/1999/xlink" x="0px" y="0px" viewBox="0 0 626 626" enable-background="new 0 0 626 626" xml:space="preserve">
	<g>
		<rect x="0" y="0" fill="#D0EAF1" width="626" height="626"/>
		<path fill="#FCF8CE" d="M55.7,127.7c0-50.1,40.6-90.7,90.7-90.7c50.1,0,90.7,40.6,90.7,90.7c0,50.1-40.6,90.7-90.7,90.7
	C96.3,218.4,55.7,177.8,55.7,127.7z"/>
		<g>
			<defs>
				<rect id="SVGID_21_" x="0" y="0" width="626" height="626"/>
			</defs>
			<clipPath id="SVGID_2_">
				<use xlink:href="#SVGID_21_" overflow="visible"/>
			</clipPath>

			<rect x="49.8" y="207.3" clip-path="url(#SVGID_2_)" fill-rule="evenodd" clip-rule="evenodd" fill="#CCC9E5" width="83.8" height="30.3"/>
			<path
				clip-path="url(#SVGID_2_)"
				fill-rule="evenodd"
				clip-rule="evenodd"
				fill="#9294C9"
				d="M137.3,168.4l2.3-7.3
		c1.3-4.2-2.4-8.4-7.5-8.4H51.4c-5.1,0-8.8,4.2-7.5,8.4l2.3,7.3c0.2,0.6,0.3,1.1,0.3,1.7v10.1c0,3.7,3.5,6.7,7.7,6.7h75
		c4.3,0,7.7-3,7.7-6.7v-10.1C137,169.6,137.1,169,137.3,168.4z"/>
			<path
				clip-path="url(#SVGID_2_)"
				fill-rule="evenodd"
				clip-rule="evenodd"
				fill="#9294C9"
				d="M144.9,198.3
		c-0.1,0.4-0.1,0.8-0.1,1.1v38.4c0,2.2-1.5,4-3.3,4h-13c-1.8,0-3.3-1.8-3.3-4l0-17.7c0.1-4.1-2.5-7.6-5.8-7.6
		c-3.4,0-5.8,3.5-5.8,7.6v17.7c0,2.2-1.5,4-3.3,4l0,0c-1.8,0-3.3-1.8-3.3-4l0-17.7c0.1-4.1-2.5-7.6-5.8-7.6c-3.4,0-5.8,3.5-5.8,7.6
		v17.7c0,2.2-1.5,4-3.3,4h0c-1.8,0-3.3-1.8-3.3-4l0-17.7c0.1-4.1-2.5-7.6-5.8-7.6c-3.4,0-5.8,3.5-5.8,7.6v17.7c0,2.2-1.5,4-3.3,4h0
		c-1.8,0-3.3-1.8-3.3-4l0-17.7c0.1-4.1-2.5-7.6-5.8-7.6c-3.4,0-5.8,3.5-5.8,7.6v17.7c0,2.2-1.5,4-3.3,4h-13c-1.8,0-3.3-1.8-3.3-4
		v-38.4c0-0.4,0-0.8-0.1-1.1L144.9,198.3z"/>
			<path clip-path="url(#SVGID_2_)" fill-rule="evenodd" clip-rule="evenodd" fill="#CCC9E5" d="M145.7,201.6l3.6-10.5
		c0.8-2.3-1.2-4.6-4-4.6H38.2c-2.8,0-4.8,2.3-4,4.6l3.6,10.5c0.5,1.5,2.1,2.5,4,2.5h99.9C143.5,204.2,145.2,203.1,145.7,201.6z"/>
			<path clip-path="url(#SVGID_2_)" fill-rule="evenodd" clip-rule="evenodd" fill="#CCC9E5" d="M54.3,250.4h74.9
		c7.4,0,13.4,5.4,13.4,12v361c0,6.6-6,12-13.4,12H54.3c-7.4,0-13.4-5.4-13.4-12v-361C40.9,255.8,46.9,250.4,54.3,250.4z"/>
			<path
				clip-path="url(#SVGID_2_)"
				fill-rule="evenodd"
				clip-rule="evenodd"
				fill="#9294C9"
				d="M148.9,249.5l1.4-3.6
		c2.4-6.1-3.5-12.3-11.9-12.3H45c-8.3,0-14.3,6.2-11.9,12.3l1.4,3.6c0.1,0.4,0.2,0.7,0.2,1.1v7.5c0,5.3,5.6,9.5,12.4,9.5h89.1
		c6.9,0,12.4-4.3,12.4-9.5v-7.5C148.7,250.2,148.8,249.9,148.9,249.5z"/>
			<path clip-path="url(#SVGID_2_)" fill-rule="evenodd" clip-rule="evenodd" fill="#CCC9E5" d="M142.8,249.5l5.2-14.8
		c0.2-0.5-0.3-1.1-0.9-1.1H36.4c-0.6,0-1.1,0.5-0.9,1.1l5.2,14.8c0.1,0.3,0.5,0.6,0.9,0.6h100.3C142.3,250,142.7,249.8,142.8,249.5z
		"/>
			<path clip-path="url(#SVGID_2_)" fill-rule="evenodd" clip-rule="evenodd" fill="#CCC9E5" d="M83.3,90.4c4.2-6.5,15.2-6.5,19.4,0
		l20.6,31.9l16.2,25.1c6.3,9.8,11.3,22.1-15,21.8H93H61.5c-24.8,0.6-21.4-12-15-21.8l16.2-25.1L83.3,90.4z"/>

			<rect x="485.4" y="208.8" clip-path="url(#SVGID_2_)" fill-rule="evenodd" clip-rule="evenodd" fill="#CCC9E5" width="83.8" height="30.3"/>
			<path
				clip-path="url(#SVGID_2_)"
				fill-rule="evenodd"
				clip-rule="evenodd"
				fill="#9294C9"
				d="M572.8,169.9l2.3-7.3
		c1.3-4.2-2.4-8.4-7.5-8.4H487c-5.1,0-8.8,4.2-7.5,8.4l2.3,7.3c0.2,0.6,0.3,1.1,0.3,1.7v10.1c0,3.7,3.5,6.7,7.7,6.7h75
		c4.3,0,7.7-3,7.7-6.7v-10.1C572.6,171.1,572.7,170.5,572.8,169.9z"/>
			<path
				clip-path="url(#SVGID_2_)"
				fill-rule="evenodd"
				clip-rule="evenodd"
				fill="#9294C9"
				d="M580.5,199.8
		c-0.1,0.4-0.1,0.8-0.1,1.1v38.4c0,2.2-1.5,4-3.3,4h-13c-1.8,0-3.3-1.8-3.3-4l0-17.7c0.1-4.1-2.5-7.6-5.8-7.6
		c-3.4,0-5.8,3.5-5.8,7.6v17.7c0,2.2-1.5,4-3.3,4l0,0c-1.8,0-3.3-1.8-3.3-4l0-17.7c0.1-4.1-2.5-7.6-5.8-7.6c-3.4,0-5.8,3.5-5.8,7.6
		v17.7c0,2.2-1.5,4-3.3,4h0c-1.8,0-3.3-1.8-3.3-4l0-17.7c0.1-4.1-2.5-7.6-5.8-7.6c-3.4,0-5.8,3.5-5.8,7.6v17.7c0,2.2-1.5,4-3.3,4h0
		c-1.8,0-3.3-1.8-3.3-4l0-17.7c0.1-4.1-2.5-7.6-5.8-7.6c-3.4,0-5.8,3.5-5.8,7.6v17.7c0,2.2-1.5,4-3.3,4h-13c-1.8,0-3.3-1.8-3.3-4
		v-38.4c0-0.4,0-0.8-0.1-1.1L580.5,199.8z"/>
			<path clip-path="url(#SVGID_2_)" fill-rule="evenodd" clip-rule="evenodd" fill="#CCC9E5" d="M581.3,203.1l3.6-10.5
		c0.8-2.3-1.2-4.6-4-4.6H473.8c-2.8,0-4.8,2.3-4,4.6l3.6,10.5c0.5,1.5,2.1,2.5,4,2.5h99.9C579.1,205.7,580.7,204.6,581.3,203.1z"/>
			<path clip-path="url(#SVGID_2_)" fill-rule="evenodd" clip-rule="evenodd" fill="#CCC9E5" d="M489.9,251.9h74.9
		c7.4,0,13.4,5.4,13.4,12v361c0,6.6-6,12-13.4,12h-74.9c-7.4,0-13.4-5.4-13.4-12v-361C476.5,257.3,482.5,251.9,489.9,251.9z"/>
			<path
				clip-path="url(#SVGID_2_)"
				fill-rule="evenodd"
				clip-rule="evenodd"
				fill="#9294C9"
				d="M584.5,251l1.4-3.6
		c2.4-6.1-3.5-12.3-11.9-12.3h-93.5c-8.3,0-14.3,6.2-11.9,12.3l1.4,3.6c0.1,0.4,0.2,0.7,0.2,1.1v7.5c0,5.3,5.6,9.5,12.4,9.5h89.1
		c6.8,0,12.4-4.3,12.4-9.5v-7.5C584.3,251.7,584.4,251.4,584.5,251z"/>
			<path clip-path="url(#SVGID_2_)" fill-rule="evenodd" clip-rule="evenodd" fill="#CCC9E5" d="M578.4,251l5.2-14.8
		c0.2-0.5-0.3-1.1-0.9-1.1H471.9c-0.6,0-1.1,0.5-0.9,1.1l5.2,14.8c0.1,0.3,0.5,0.6,0.9,0.6h100.3C577.9,251.5,578.3,251.3,578.4,251
		z"/>
			<path clip-path="url(#SVGID_2_)" fill-rule="evenodd" clip-rule="evenodd" fill="#CCC9E5" d="M518.9,91.9c4.2-6.5,15.2-6.5,19.4,0
		l20.6,31.9l16.2,25.1c6.3,9.8,11.3,22.1-15,21.8h-31.5h-31.6c-24.8,0.6-21.4-12-15-21.8l16.2-25.1L518.9,91.9z"/>
			<rect x="427.8" y="434.9" clip-path="url(#SVGID_2_)" fill="#FBCC9A" width="27" height="191"/>
			<path clip-path="url(#SVGID_2_)" fill="#CEE4C3" d="M550.7,432.4c0,61.8-50.1,111.9-111.9,111.9l0,0C377,544.3,327,494.2,327,432.4
		l0,0c0-61.8,50.1-111.9,111.9-111.9l0,0C500.6,320.6,550.7,370.7,550.7,432.4L550.7,432.4z"/>
			<rect x="0.1" y="0.6" clip-path="url(#SVGID_2_)" fill="none" width="625.7" height="625.8"/>
		</g>
	</g>
</svg>
