<?xml version="1.0" encoding="utf-8"?>
<!-- Generator: Adobe Illustrator 18.1.0, SVG Export Plug-In . SVG Version: 6.00 Build 0)  -->
<svg version="1.1" id="Capa_1" xmlns="http://www.w3.org/2000/svg" xmlns:xlink="http://www.w3.org/1999/xlink" x="0px" y="0px" viewBox="0 0 626 626" enable-background="new 0 0 626 626" xml:space="preserve">

	<g>
		<rect x="-876.8" y="779.7" fill="#CEE4C3" width="626" height="626"/>
		<path fill="#D0EAF1" d="M-520,987.1c-0.1-0.9-0.2-2.2-0.2-3.5c0-22.2,18-40,40.2-40c1,0,1.9,0.3,2.8,0.4
	c5.9-14.9,20.3-25.4,37.3-25.4c13.3,0,25,6.6,32.3,16.5c2.6-0.5,5.2-0.8,7.9-0.8c19.4,0,35.6,13.3,39.3,31.6
	c12.4,3.2,22.2,11,26.2,21.1H-520z"/>
		<rect x="-1799.5" y="1565.2" fill="#D0EAF1" width="626" height="626"/>
		<path fill="#FCF8CE" d="M-1743.8,1692.8c0-50.1,40.6-90.7,90.7-90.7c50.1,0,90.7,40.6,90.7,90.7c0,50.1-40.6,90.7-90.7,90.7
	C-1703.2,1783.6-1743.8,1742.9-1743.8,1692.8z"/>
		<rect x="-812.4" y="953.4" fill="#9ACDCD" width="140.9" height="56"/>
		<rect x="-846.8" y="1009.2" fill="#9ACDCD" width="209.5" height="396.5"/>
		<rect x="-846.8" y="1068.9" fill="#CEE4C3" width="209.5" height="9.7"/>
		<rect x="-846.8" y="1132.9" fill="#CEE4C3" width="209.5" height="9.8"/>
		<rect x="-846.8" y="1198" fill="#CEE4C3" width="209.5" height="9.7"/>
		<rect x="-846.8" y="1263.3" fill="#CEE4C3" width="209.5" height="9.7"/>
		<rect x="-846.8" y="1329.1" fill="#CEE4C3" width="209.5" height="9.7"/>
		<rect x="-784.7" y="1008.1" fill="#CEE4C3" width="9.7" height="397.6"/>
		<rect x="-709.2" y="1008.1" fill="#CEE4C3" width="9.8" height="397.6"/>
		<polygon fill="#CEE4C3" points="-778,1015 -839.9,1076.8 -846.8,1076.8 -846.8,1069.9 -784.9,1008.1 "/>
		<polygon fill="#CEE4C3" points="-778,1078 -839.9,1139.9 -846.8,1139.9 -846.8,1133 -784.9,1071.1 "/>
		<polygon fill="#CEE4C3" points="-778,1142.4 -839.9,1204.2 -846.8,1204.2 -846.8,1197.4 -784.9,1135.5 "/>
		<polygon fill="#CEE4C3" points="-778,1211.1 -839.9,1273 -846.8,1273 -846.8,1266.1 -784.9,1204.2 "/>
		<polygon fill="#CEE4C3" points="-778,1275 -839.9,1336.9 -846.8,1336.9 -846.8,1330 -784.9,1268.1 "/>
		<polygon fill="#CEE4C3" points="-778,1343.8 -839.9,1405.7 -846.8,1405.7 -846.8,1398.8 -784.9,1336.9 "/>
		<polygon fill="#CEE4C3" points="-705.9,1015 -644,1076.8 -637.1,1076.8 -637.1,1069.9 -699,1008.1 "/>
		<polygon fill="#CEE4C3" points="-705.9,1078 -644,1139.9 -637.1,1139.9 -637.1,1133 -699,1071.1 "/>
		<polygon fill="#CEE4C3" points="-705.9,1142.4 -644,1204.2 -637.1,1204.2 -637.1,1197.4 -699,1135.5 "/>
		<polygon fill="#CEE4C3" points="-705.9,1211.1 -644,1273 -637.1,1273 -637.1,1266.1 -699,1204.2 "/>
		<polygon fill="#CEE4C3" points="-705.9,1275 -644,1336.9 -637.1,1336.9 -637.1,1330 -699,1268.1 "/>
		<polygon fill="#CEE4C3" points="-705.9,1343.8 -644,1405.7 -637.1,1405.7 -637.1,1398.8 -699,1336.9 "/>
		<rect x="-441.9" y="941.4" fill="#9ACDCD" width="140.9" height="56"/>
		<polygon fill-rule="evenodd" clip-rule="evenodd" fill="#9ACDCD" points="-464.4,996 -278.6,996 -278.6,1405.7 -464.4,1405.7
	-464.4,996 "/>
		<polygon fill-rule="evenodd" clip-rule="evenodd" fill="#CEE4C3" points="-456.5,1025.6 -456.5,1035.8 -286.5,1035.8 -286.5,1025.6
	-456.5,1025.6 "/>
		<polygon fill-rule="evenodd" clip-rule="evenodd" fill="#CEE4C3" points="-456.5,1047.7 -456.5,1058 -286.5,1058 -286.5,1047.7
	-456.5,1047.7 "/>
		<polygon fill-rule="evenodd" clip-rule="evenodd" fill="#CEE4C3" points="-456.5,1069.9 -456.5,1080.1 -286.5,1080.1 -286.5,1069.9
	-456.5,1069.9 "/>
		<polygon fill-rule="evenodd" clip-rule="evenodd" fill="#CEE4C3" points="-456.5,1092 -456.5,1102.3 -286.5,1102.3 -286.5,1092
	-456.5,1092 "/>
		<polygon fill-rule="evenodd" clip-rule="evenodd" fill="#CEE4C3" points="-456.5,1114.2 -456.5,1124.4 -286.5,1124.4 -286.5,1114.2
	-456.5,1114.2 "/>
		<polygon fill-rule="evenodd" clip-rule="evenodd" fill="#CEE4C3" points="-456.5,1136.3 -456.5,1146.6 -286.5,1146.6 -286.5,1136.3
	-456.5,1136.3 "/>
		<polygon fill-rule="evenodd" clip-rule="evenodd" fill="#CEE4C3" points="-456.5,1158.5 -456.5,1168.7 -286.5,1168.7 -286.5,1158.5
	-456.5,1158.5 "/>
		<polygon fill-rule="evenodd" clip-rule="evenodd" fill="#CEE4C3" points="-456.5,1180.6 -456.5,1190.8 -286.5,1190.8 -286.5,1180.6
	-456.5,1180.6 "/>
		<polygon fill-rule="evenodd" clip-rule="evenodd" fill="#CEE4C3" points="-456.5,1202.8 -456.5,1213 -286.5,1213 -286.5,1202.8
	-456.5,1202.8 "/>
		<polygon fill-rule="evenodd" clip-rule="evenodd" fill="#CEE4C3" points="-456.5,1224.9 -456.5,1235.1 -286.5,1235.1 -286.5,1224.9
	-456.5,1224.9 "/>
		<polygon fill-rule="evenodd" clip-rule="evenodd" fill="#CEE4C3" points="-456.5,1247.1 -456.5,1257.3 -286.5,1257.3 -286.5,1247.1
	-456.5,1247.1 "/>
		<polygon fill-rule="evenodd" clip-rule="evenodd" fill="#CEE4C3" points="-456.5,1269.2 -456.5,1279.4 -286.5,1279.4 -286.5,1269.2
	-456.5,1269.2 "/>
		<polygon fill-rule="evenodd" clip-rule="evenodd" fill="#CEE4C3" points="-456.5,1291.4 -456.5,1301.6 -286.5,1301.6 -286.5,1291.4
	-456.5,1291.4 "/>
		<polygon fill-rule="evenodd" clip-rule="evenodd" fill="#CEE4C3" points="-456.5,1313.5 -456.5,1323.7 -286.5,1323.7 -286.5,1313.5
	-456.5,1313.5 "/>
		<polygon fill-rule="evenodd" clip-rule="evenodd" fill="#CEE4C3" points="-456.5,1335.7 -456.5,1345.9 -286.5,1345.9 -286.5,1335.7
	-456.5,1335.7 "/>
		<polygon fill-rule="evenodd" clip-rule="evenodd" fill="#CEE4C3" points="-456.5,1357.8 -456.5,1368 -286.5,1368 -286.5,1357.8
	-456.5,1357.8 "/>
		<rect x="-456.5" y="1380" fill-rule="evenodd" clip-rule="evenodd" fill="#CEE4C3" width="169.9" height="10.2"/>
		<path fill="#D0EAF1" d="M-828.5,926.1c-0.2-2-0.2-3.1-0.2-4.7c0-28.6,23.2-51.6,51.7-51.6c1.3,0,2.4,0.4,3.6,0.4
	c7.6-19.1,26.1-32.7,48-32.7c17.1,0,32.1,8.4,41.5,21.3c3.3-0.7,6.7-1,10.1-1c25,0,45.8,17.4,50.6,41c16,4.1,28.6,14.4,33.7,27.4
	H-828.5z"/>
		<rect x="-2639.4" y="779.8" fill="#CCC9E5" width="625.7" height="625.8"/>
		<g>
			<defs>
				<rect id="SVGID_1_" x="-2639.4" y="779.8" width="625.8" height="625.8"/>
			</defs>
			<clipPath id="SVGID_2_">
				<use xlink:href="#SVGID_1_" overflow="visible"/>
			</clipPath>
			<path
				clip-path="url(#SVGID_2_)"
				fill="#FBCC9A"
				d="M-2503.7,1206.4c-11.7,19.7-12.3,36.7-12.8,50.3c-0.6,17.6-1,28.3-26.8,43.1
		c-7.7,4.4-14.4,8-20.4,11.2c-42.7,22.7-50.5,33.3-44.6,108.6h20.9c-5.5-65.9-2.9-67.3,32.2-86c6.2-3.3,13.1-7,21-11.5
		c37-21.2,37.8-44.1,38.6-64.3c0.4-12,0.9-23.4,9-37.1L-2503.7,1206.4z"/>
			<path clip-path="url(#SVGID_2_)" fill="#FBCC9A" d="M-2590.4,1339.6c-30.9-24-28.3-55.3-26.4-78.1c2-24.3,3.1-36.5-24.3-45.2
		l5.3-23.9c44.5,14.1,41.7,47.3,39.6,71.5c-1.8,21.9-3.3,39.1,17.1,54.9L-2590.4,1339.6z"/>
			<path clip-path="url(#SVGID_2_)" fill="#FBCC9A" d="M-2648.9,1329.1c-4.5,0-9-0.7-13.4-2.2c-10.8-3.9-19.1-12.9-24.1-26.1
		l18.9-10.1c2.5,6.7,6.1,10.7,11.2,12.6c12.7,4.6,32.4-5.2,45.5-14.9l11,20.9C-2608.6,1315.9-2628.9,1329.1-2648.9,1329.1z"/>
			<path clip-path="url(#SVGID_2_)" fill="#76BA5C" d="M-2734.2,1292.7c0-27.6,18.8-50,42-50c23.2,0,42,22.4,42,50
		c0,27.6-18.8,50-42,50C-2715.4,1342.7-2734.2,1320.3-2734.2,1292.7z"/>
			<path clip-path="url(#SVGID_2_)" fill="#CEE4C3" d="M-2676.7,1183c0-27.6,18.8-50,42-50c23.2,0,42,22.4,42,50c0,27.6-18.8,50-42,50
		C-2657.9,1233.1-2676.7,1210.7-2676.7,1183z"/>
			<ellipse clip-path="url(#SVGID_2_)" fill="#CEE4C3" cx="-2511.9" cy="1228.7" rx="42" ry="50"/>
			<path
				clip-path="url(#SVGID_2_)"
				fill="#FCF8CE"
				d="M-2609.5,969.1c-0.2-2-0.2-3.1-0.2-4.7c0-28.6,23.2-51.6,51.7-51.6
		c1.3,0,2.4,0.4,3.6,0.4c7.6-19.1,26.1-32.7,48-32.7c17.1,0,32.1,8.4,41.5,21.3c3.3-0.7,6.7-1,10.1-1c25,0,45.8,17.4,50.6,41
		c16,4.1,28.6,14.4,33.7,27.4H-2609.5z"/>
		</g>
		<rect x="-2639.4" y="779.8" fill="none" width="625.7" height="625.8"/>
		<g>
			<defs>
				<rect id="SVGID_3_" x="-876.4" y="777.8" width="625.8" height="625.8"/>
			</defs>
			<clipPath id="SVGID_4_">
				<use xlink:href="#SVGID_3_" overflow="visible"/>
			</clipPath>
		</g>
		<rect x="-876.4" y="777.8" fill="none" width="625.7" height="625.8"/>
		<rect x="-16.8" y="779.7" fill="#D0EAF1" width="626" height="626"/>
		<path fill="#9ACDCD" d="M340,987.1c-0.1-0.9-0.2-2.2-0.2-3.5c0-22.2,18-40,40.2-40c1,0,1.9,0.3,2.8,0.4
	c5.9-14.9,20.3-25.4,37.3-25.4c13.3,0,25,6.6,32.3,16.5c2.6-0.5,5.2-0.8,7.9-0.8c19.4,0,35.6,13.3,39.3,31.6
	c12.4,3.2,22.2,11,26.2,21.1H340z"/>
		<rect x="47.6" y="953.4" fill="#CCC9E5" width="140.9" height="56"/>
		<rect x="13.2" y="1009.2" fill="#CCC9E5" width="209.5" height="396.5"/>
		<rect x="13.2" y="1068.9" fill="#D0EAF1" width="209.5" height="9.7"/>
		<rect x="13.2" y="1132.9" fill="#D0EAF1" width="209.5" height="9.8"/>
		<rect x="13.2" y="1198" fill="#D0EAF1" width="209.5" height="9.7"/>
		<rect x="13.2" y="1263.3" fill="#D0EAF1" width="209.5" height="9.7"/>
		<rect x="13.2" y="1329.1" fill="#D0EAF1" width="209.5" height="9.7"/>
		<rect x="75.3" y="1008.1" fill="#D0EAF1" width="9.7" height="397.6"/>
		<rect x="150.8" y="1008.1" fill="#D0EAF1" width="9.8" height="397.6"/>
		<polygon fill="#D0EAF1" points="82,1015 20.1,1076.8 13.2,1076.8 13.2,1069.9 75.1,1008.1 "/>
		<polygon fill="#D0EAF1" points="82,1078 20.1,1139.9 13.2,1139.9 13.2,1133 75.1,1071.1 "/>
		<polygon fill="#D0EAF1" points="82,1142.4 20.1,1204.2 13.2,1204.2 13.2,1197.4 75.1,1135.5 "/>
		<polygon fill="#D0EAF1" points="82,1211.1 20.1,1273 13.2,1273 13.2,1266.1 75.1,1204.2 "/>
		<polygon fill="#D0EAF1" points="82,1275 20.1,1336.9 13.2,1336.9 13.2,1330 75.1,1268.1 "/>
		<polygon fill="#D0EAF1" points="82,1343.8 20.1,1405.7 13.2,1405.7 13.2,1398.8 75.1,1336.9 "/>
		<polygon fill="#D0EAF1" points="154.1,1015 216,1076.8 222.9,1076.8 222.9,1069.9 161,1008.1 "/>
		<polygon fill="#D0EAF1" points="154.1,1078 216,1139.9 222.9,1139.9 222.9,1133 161,1071.1 "/>
		<polygon fill="#D0EAF1" points="154.1,1142.4 216,1204.2 222.9,1204.2 222.9,1197.4 161,1135.5 "/>
		<polygon fill="#D0EAF1" points="154.1,1211.1 216,1273 222.9,1273 222.9,1266.1 161,1204.2 "/>
		<polygon fill="#D0EAF1" points="154.1,1275 216,1336.9 222.9,1336.9 222.9,1330 161,1268.1 "/>
		<polygon fill="#D0EAF1" points="154.1,1343.8 216,1405.7 222.9,1405.7 222.9,1398.8 161,1336.9 "/>
		<rect x="418.1" y="941.4" fill="#CCC9E5" width="140.9" height="56"/>
		<polygon fill-rule="evenodd" clip-rule="evenodd" fill="#CCC9E5" points="395.6,996 581.4,996 581.4,1405.7 395.6,1405.7 395.6,996
	"/>
		<polygon fill-rule="evenodd" clip-rule="evenodd" fill="#D0EAF1" points="403.5,1025.6 403.5,1035.8 573.5,1035.8 573.5,1025.6
	403.5,1025.6 "/>
		<polygon fill-rule="evenodd" clip-rule="evenodd" fill="#D0EAF1" points="403.5,1047.7 403.5,1058 573.5,1058 573.5,1047.7
	403.5,1047.7 "/>
		<polygon fill-rule="evenodd" clip-rule="evenodd" fill="#D0EAF1" points="403.5,1069.9 403.5,1080.1 573.5,1080.1 573.5,1069.9
	403.5,1069.9 "/>
		<polygon fill-rule="evenodd" clip-rule="evenodd" fill="#D0EAF1" points="403.5,1092 403.5,1102.3 573.5,1102.3 573.5,1092
	403.5,1092 "/>
		<polygon fill-rule="evenodd" clip-rule="evenodd" fill="#D0EAF1" points="403.5,1114.2 403.5,1124.4 573.5,1124.4 573.5,1114.2
	403.5,1114.2 "/>
		<polygon fill-rule="evenodd" clip-rule="evenodd" fill="#D0EAF1" points="403.5,1136.3 403.5,1146.6 573.5,1146.6 573.5,1136.3
	403.5,1136.3 "/>
		<polygon fill-rule="evenodd" clip-rule="evenodd" fill="#D0EAF1" points="403.5,1158.5 403.5,1168.7 573.5,1168.7 573.5,1158.5
	403.5,1158.5 "/>
		<polygon fill-rule="evenodd" clip-rule="evenodd" fill="#D0EAF1" points="403.5,1180.6 403.5,1190.8 573.5,1190.8 573.5,1180.6
	403.5,1180.6 "/>
		<polygon fill-rule="evenodd" clip-rule="evenodd" fill="#D0EAF1" points="403.5,1202.8 403.5,1213 573.5,1213 573.5,1202.8
	403.5,1202.8 "/>
		<polygon fill-rule="evenodd" clip-rule="evenodd" fill="#D0EAF1" points="403.5,1224.9 403.5,1235.1 573.5,1235.1 573.5,1224.9
	403.5,1224.9 "/>
		<polygon fill-rule="evenodd" clip-rule="evenodd" fill="#D0EAF1" points="403.5,1247.1 403.5,1257.3 573.5,1257.3 573.5,1247.1
	403.5,1247.1 "/>
		<polygon fill-rule="evenodd" clip-rule="evenodd" fill="#D0EAF1" points="403.5,1269.2 403.5,1279.4 573.5,1279.4 573.5,1269.2
	403.5,1269.2 "/>
		<polygon fill-rule="evenodd" clip-rule="evenodd" fill="#D0EAF1" points="403.5,1291.4 403.5,1301.6 573.5,1301.6 573.5,1291.4
	403.5,1291.4 "/>
		<polygon fill-rule="evenodd" clip-rule="evenodd" fill="#D0EAF1" points="403.5,1313.5 403.5,1323.7 573.5,1323.7 573.5,1313.5
	403.5,1313.5 "/>
		<polygon fill-rule="evenodd" clip-rule="evenodd" fill="#D0EAF1" points="403.5,1335.7 403.5,1345.9 573.5,1345.9 573.5,1335.7
	403.5,1335.7 "/>
		<polygon fill-rule="evenodd" clip-rule="evenodd" fill="#D0EAF1" points="403.5,1357.8 403.5,1368 573.5,1368 573.5,1357.8
	403.5,1357.8 "/>
		<rect x="403.5" y="1380" fill-rule="evenodd" clip-rule="evenodd" fill="#D0EAF1" width="169.9" height="10.2"/>
		<path fill="#9ACDCD" d="M31.5,926.1c-0.2-2-0.2-3.1-0.2-4.7c0-28.6,23.2-51.6,51.7-51.6c1.3,0,2.4,0.4,3.6,0.4
	c7.6-19.1,26.1-32.7,48-32.7c17.1,0,32.1,8.4,41.5,21.3c3.3-0.7,6.7-1,10.1-1c25,0,45.8,17.4,50.6,41c16,4.1,28.6,14.4,33.7,27.4
	H31.5z"/>
		<g>
			<defs>
				<rect id="SVGID_5_" x="-16.4" y="777.8" width="625.8" height="625.8"/>
			</defs>
			<clipPath id="SVGID_6_">
				<use xlink:href="#SVGID_5_" overflow="visible"/>
			</clipPath>
		</g>
		<rect x="-16.4" y="777.8" fill="none" width="625.7" height="625.8"/>
		<path
			fill-rule="evenodd"
			clip-rule="evenodd"
			fill="#FCF8CE"
			d="M-2050.1,1046.4c-0.9-51.2-13.8-229.7-65.8-229.2
	c-53.6,0.6-65.9,180.7-65.9,229.4v166.7v40.1v152.1h83.1h48.6v-19.1v-3.5v-21.9v-3.5v-21.9v-3.5v-21.9v0v-3.5V1285v-3.5v-21.9v-3.5
	v-2.7v-19.2v-3.5v-17.5v-4.4v-3.5v-21.9v-3.5v-21.9v-3.5v-21.9v-3.5v-21.9v-3.5v-21.9v-3.5v-21.9v0v-3.5v-1.3
	C-2050,1050.4-2050,1048.5-2050.1,1046.4z"/>
		<rect x="-1799.4" y="779.8" fill="#D0EAF1" width="625.7" height="625.8"/>
		<g>
			<defs>
				<rect id="SVGID_7_" x="-1799.4" y="779.8" width="625.8" height="625.8"/>
			</defs>
			<clipPath id="SVGID_8_">
				<use xlink:href="#SVGID_7_" overflow="visible"/>
			</clipPath>
			<path
				clip-path="url(#SVGID_8_)"
				fill="#FBCC9A"
				d="M-1663.7,1206.4c-11.7,19.7-12.3,36.7-12.8,50.3c-0.6,17.6-1,28.3-26.8,43.1
		c-7.7,4.4-14.4,8-20.4,11.2c-42.7,22.7-50.5,33.3-44.6,108.6h20.9c-5.5-65.9-2.9-67.3,32.2-86c6.2-3.3,13.1-7,21-11.5
		c37-21.2,37.8-44.1,38.6-64.3c0.4-12,0.9-23.4,9-37.1L-1663.7,1206.4z"/>
			<path clip-path="url(#SVGID_8_)" fill="#FBCC9A" d="M-1750.4,1339.6c-30.9-24-28.3-55.3-26.4-78.1c2-24.3,3.1-36.5-24.3-45.2
		l5.3-23.9c44.5,14.1,41.7,47.3,39.6,71.5c-1.8,21.9-3.3,39.1,17.1,54.9L-1750.4,1339.6z"/>
			<path clip-path="url(#SVGID_8_)" fill="#FBCC9A" d="M-1808.9,1329.1c-4.5,0-9-0.7-13.4-2.2c-10.8-3.9-19.1-12.9-24.1-26.1
		l18.9-10.1c2.5,6.7,6.1,10.7,11.2,12.6c12.7,4.6,32.4-5.2,45.5-14.9l11,20.9C-1768.6,1315.9-1788.9,1329.1-1808.9,1329.1z"/>
			<path clip-path="url(#SVGID_8_)" fill="#76BA5C" d="M-1894.2,1292.7c0-27.6,18.8-50,42-50c23.2,0,42,22.4,42,50
		c0,27.6-18.8,50-42,50C-1875.4,1342.7-1894.2,1320.3-1894.2,1292.7z"/>
			<path clip-path="url(#SVGID_8_)" fill="#CEE4C3" d="M-1836.7,1183c0-27.6,18.8-50,42-50c23.2,0,42,22.4,42,50c0,27.6-18.8,50-42,50
		C-1817.9,1233.1-1836.7,1210.7-1836.7,1183z"/>
			<ellipse clip-path="url(#SVGID_8_)" fill="#CEE4C3" cx="-1671.9" cy="1228.7" rx="42" ry="50"/>
			<path
				clip-path="url(#SVGID_8_)"
				fill="#9ACDCD"
				d="M-1769.5,969.1c-0.2-2-0.2-3.1-0.2-4.7c0-28.6,23.2-51.6,51.7-51.6
		c1.3,0,2.4,0.4,3.6,0.4c7.6-19.1,26.1-32.7,48-32.7c17.1,0,32.1,8.4,41.5,21.3c3.3-0.7,6.7-1,10.1-1c25,0,45.8,17.4,50.6,41
		c16,4.1,28.6,14.4,33.7,27.4H-1769.5z"/>
		</g>
		<rect x="-1799.4" y="779.8" fill="none" width="625.7" height="625.8"/>
		<path
			fill-rule="evenodd"
			clip-rule="evenodd"
			fill="#9ACDCD"
			d="M-1216.1,1046.4c-0.9-51.2-13.8-229.7-65.8-229.2
	c-53.6,0.6-65.9,180.7-65.9,229.4v166.7v40.1v152.1h83.1h48.6v-19.1v-3.5v-21.9v-3.5v-21.9v-3.5v-21.9v0v-3.5V1285v-3.5v-21.9v-3.5
	v-2.7v-19.2v-3.5v-17.5v-4.4v-3.5v-21.9v-3.5v-21.9v-3.5v-21.9v-3.5v-21.9v-3.5v-21.9v-3.5v-21.9v0v-3.5v-1.3
	C-1216,1050.4-1216,1048.5-1216.1,1046.4z"/>
		<g>
			<defs>
				<rect id="SVGID_9_" x="-2639.5" y="1565.2" width="626" height="626"/>
			</defs>
			<clipPath id="SVGID_10_">
				<use xlink:href="#SVGID_9_" overflow="visible"/>
			</clipPath>
			<rect x="-2639.5" y="1565.2" clip-path="url(#SVGID_10_)" fill="#FCF8CE" width="626" height="626"/>
			<path clip-path="url(#SVGID_10_)" fill="#FBCC9A" d="M-2583.8,1692.8c0-50.1,40.6-90.7,90.7-90.7c50.1,0,90.7,40.6,90.7,90.7
		c0,50.1-40.6,90.7-90.7,90.7C-2543.2,1783.6-2583.8,1742.9-2583.8,1692.8z"/>

			<rect x="-2589.7" y="1772.4" clip-path="url(#SVGID_10_)" fill-rule="evenodd" clip-rule="evenodd" fill="#CCC9E5" width="83.8" height="30.3"/>
			<path
				clip-path="url(#SVGID_10_)"
				fill-rule="evenodd"
				clip-rule="evenodd"
				fill="#9294C9"
				d="M-2502.3,1733.6l2.3-7.3
		c1.3-4.2-2.4-8.4-7.5-8.4h-80.6c-5.1,0-8.8,4.2-7.5,8.4l2.3,7.3c0.2,0.6,0.3,1.1,0.3,1.7v10.1c0,3.7,3.5,6.7,7.7,6.7h75
		c4.3,0,7.7-3,7.7-6.7v-10.1C-2502.5,1734.7-2502.5,1734.1-2502.3,1733.6z"/>
			<path
				clip-path="url(#SVGID_10_)"
				fill-rule="evenodd"
				clip-rule="evenodd"
				fill="#9294C9"
				d="M-2494.6,1763.4
		c-0.1,0.4-0.1,0.8-0.1,1.1v38.4c0,2.2-1.5,4-3.3,4h-13c-1.8,0-3.3-1.8-3.3-4l0-17.7c0.1-4.1-2.5-7.6-5.8-7.6
		c-3.4,0-5.8,3.5-5.8,7.6v17.7c0,2.2-1.5,4-3.3,4l0,0c-1.8,0-3.3-1.8-3.3-4l0-17.7c0.1-4.1-2.5-7.6-5.8-7.6c-3.4,0-5.8,3.5-5.8,7.6
		v17.7c0,2.2-1.5,4-3.3,4h0c-1.8,0-3.3-1.8-3.3-4l0-17.7c0.1-4.1-2.5-7.6-5.8-7.6c-3.4,0-5.8,3.5-5.8,7.6v17.7c0,2.2-1.5,4-3.3,4h0
		c-1.8,0-3.3-1.8-3.3-4l0-17.7c0.1-4.1-2.5-7.6-5.8-7.6c-3.4,0-5.8,3.5-5.8,7.6v17.7c0,2.2-1.5,4-3.3,4h-13c-1.8,0-3.3-1.8-3.3-4
		v-38.4c0-0.4,0-0.8-0.1-1.1L-2494.6,1763.4z"/>
			<path
				clip-path="url(#SVGID_10_)"
				fill-rule="evenodd"
				clip-rule="evenodd"
				fill="#CCC9E5"
				d="M-2493.9,1766.8l3.6-10.5
		c0.8-2.3-1.2-4.6-4-4.6h-107.2c-2.8,0-4.8,2.3-4,4.6l3.6,10.5c0.5,1.5,2.1,2.5,4,2.5h99.9
		C-2496,1769.3-2494.4,1768.3-2493.9,1766.8z"/>
			<path clip-path="url(#SVGID_10_)" fill-rule="evenodd" clip-rule="evenodd" fill="#CCC9E5" d="M-2585.3,1815.6h74.9
		c7.4,0,13.4,5.4,13.4,12v361c0,6.6-6,12-13.4,12h-74.9c-7.4,0-13.4-5.4-13.4-12v-361C-2598.6,1820.9-2592.6,1815.6-2585.3,1815.6z"/>
			<path
				clip-path="url(#SVGID_10_)"
				fill-rule="evenodd"
				clip-rule="evenodd"
				fill="#9294C9"
				d="M-2490.6,1814.7l1.4-3.6
		c2.4-6.1-3.5-12.3-11.9-12.3h-93.5c-8.3,0-14.3,6.2-11.9,12.3l1.4,3.6c0.1,0.4,0.2,0.7,0.2,1.1v7.5c0,5.3,5.6,9.5,12.4,9.5h89.1
		c6.9,0,12.4-4.3,12.4-9.5v-7.5C-2490.8,1815.4-2490.7,1815-2490.6,1814.7z"/>
			<path
				clip-path="url(#SVGID_10_)"
				fill-rule="evenodd"
				clip-rule="evenodd"
				fill="#CCC9E5"
				d="M-2496.7,1814.6l5.2-14.8
		c0.2-0.5-0.3-1.1-0.9-1.1h-110.8c-0.6,0-1.1,0.5-0.9,1.1l5.2,14.8c0.1,0.3,0.5,0.6,0.9,0.6h100.3
		C-2497.2,1815.2-2496.8,1815-2496.7,1814.6z"/>
			<path clip-path="url(#SVGID_10_)" fill-rule="evenodd" clip-rule="evenodd" fill="#CCC9E5" d="M-2556.2,1655.6
		c4.2-6.5,15.2-6.5,19.4,0l20.6,31.9l16.2,25.1c6.3,9.8,11.3,22.1-15,21.8h-31.5h-31.6c-24.8,0.6-21.4-12-15-21.8l16.2-25.1
		L-2556.2,1655.6z"/>

			<rect x="-2154.1" y="1773.9" clip-path="url(#SVGID_10_)" fill-rule="evenodd" clip-rule="evenodd" fill="#CCC9E5" width="83.8" height="30.3"/>
			<path
				clip-path="url(#SVGID_10_)"
				fill-rule="evenodd"
				clip-rule="evenodd"
				fill="#9294C9"
				d="M-2066.7,1735.1l2.3-7.3
		c1.3-4.2-2.4-8.4-7.5-8.4h-80.6c-5.1,0-8.8,4.2-7.5,8.4l2.3,7.3c0.2,0.6,0.3,1.1,0.3,1.7v10.1c0,3.7,3.5,6.7,7.7,6.7h75
		c4.3,0,7.7-3,7.7-6.7v-10.1C-2067,1736.2-2066.9,1735.6-2066.7,1735.1z"/>
			<path
				clip-path="url(#SVGID_10_)"
				fill-rule="evenodd"
				clip-rule="evenodd"
				fill="#9294C9"
				d="M-2059,1764.9
		c-0.1,0.4-0.1,0.8-0.1,1.1v38.4c0,2.2-1.5,4-3.3,4h-13c-1.8,0-3.3-1.8-3.3-4l0-17.7c0.1-4.1-2.5-7.6-5.8-7.6
		c-3.4,0-5.8,3.5-5.8,7.6v17.7c0,2.2-1.5,4-3.3,4l0,0c-1.8,0-3.3-1.8-3.3-4l0-17.7c0.1-4.1-2.5-7.6-5.8-7.6c-3.4,0-5.8,3.5-5.8,7.6
		v17.7c0,2.2-1.5,4-3.3,4h0c-1.8,0-3.3-1.8-3.3-4l0-17.7c0.1-4.1-2.5-7.6-5.8-7.6c-3.4,0-5.8,3.5-5.8,7.6v17.7c0,2.2-1.5,4-3.3,4h0
		c-1.8,0-3.3-1.8-3.3-4l0-17.7c0.1-4.1-2.5-7.6-5.8-7.6c-3.4,0-5.8,3.5-5.8,7.6v17.7c0,2.2-1.5,4-3.3,4h-13c-1.8,0-3.3-1.8-3.3-4
		v-38.4c0-0.4,0-0.8-0.1-1.1L-2059,1764.9z"/>
			<path
				clip-path="url(#SVGID_10_)"
				fill-rule="evenodd"
				clip-rule="evenodd"
				fill="#CCC9E5"
				d="M-2058.3,1768.3l3.6-10.5
		c0.8-2.3-1.2-4.6-4-4.6h-107.2c-2.8,0-4.8,2.3-4,4.6l3.6,10.5c0.5,1.5,2.1,2.5,4,2.5h99.9
		C-2060.4,1770.8-2058.8,1769.8-2058.3,1768.3z"/>
			<path clip-path="url(#SVGID_10_)" fill-rule="evenodd" clip-rule="evenodd" fill="#CCC9E5" d="M-2149.7,1817.1h74.9
		c7.4,0,13.4,5.4,13.4,12v361c0,6.6-6,12-13.4,12h-74.9c-7.4,0-13.4-5.4-13.4-12v-361C-2163.1,1822.4-2157.1,1817.1-2149.7,1817.1z"/>
			<path
				clip-path="url(#SVGID_10_)"
				fill-rule="evenodd"
				clip-rule="evenodd"
				fill="#9294C9"
				d="M-2055,1816.2l1.4-3.6
		c2.4-6.1-3.5-12.3-11.9-12.3h-93.5c-8.3,0-14.3,6.2-11.9,12.3l1.4,3.6c0.1,0.4,0.2,0.7,0.2,1.1v7.5c0,5.3,5.6,9.5,12.4,9.5h89.1
		c6.9,0,12.4-4.3,12.4-9.5v-7.5C-2055.2,1816.9-2055.2,1816.5-2055,1816.2z"/>
			<path
				clip-path="url(#SVGID_10_)"
				fill-rule="evenodd"
				clip-rule="evenodd"
				fill="#CCC9E5"
				d="M-2061.1,1816.1l5.2-14.8
		c0.2-0.5-0.3-1.1-0.9-1.1h-110.8c-0.6,0-1.1,0.5-0.9,1.1l5.2,14.8c0.1,0.3,0.5,0.6,0.9,0.6h100.3
		C-2061.6,1816.7-2061.3,1816.5-2061.1,1816.1z"/>
			<path clip-path="url(#SVGID_10_)" fill-rule="evenodd" clip-rule="evenodd" fill="#CCC9E5" d="M-2120.6,1657.1
		c4.2-6.5,15.2-6.5,19.4,0l20.6,31.9l16.2,25.1c6.3,9.8,11.3,22.1-15,21.8h-31.5h-31.6c-24.8,0.6-21.4-12-15-21.8l16.2-25.1
		L-2120.6,1657.1z"/>
			<rect x="-2211.7" y="2000.1" clip-path="url(#SVGID_10_)" fill="#FBCC9A" width="27" height="191"/>
			<path clip-path="url(#SVGID_10_)" fill="#CEE4C3" d="M-2088.8,1997.6c0,61.8-50.1,111.9-111.9,111.9l0,0
		c-61.8,0-111.9-50.1-111.9-111.9l0,0c0-61.8,50.1-111.9,111.9-111.9l0,0C-2138.9,1885.7-2088.8,1935.8-2088.8,1997.6
		L-2088.8,1997.6z"/>
			<rect x="-2639.4" y="1565.8" clip-path="url(#SVGID_10_)" fill="none" width="625.7" height="625.8"/>
		</g>
		<g>
			<defs>
				<rect id="SVGID_11_" x="-876.8" y="1565.2" width="626" height="626"/>
			</defs>
			<clipPath id="SVGID_12_">
				<use xlink:href="#SVGID_11_" overflow="visible"/>
			</clipPath>
			<rect x="-877.5" y="1564.5" clip-path="url(#SVGID_12_)" fill="#CEE4C3" width="626.7" height="626.6"/>
			<path
				clip-path="url(#SVGID_12_)"
				fill="#9ACDCD"
				d="M-617,2192.2c-3.5-51.1-15-219.2-19.5-266c-4.7-48.6-16.4-122-19.2-139.2
		c4.1-1.6,7-5,7-9c0-5.6-5.6-10.2-12.4-10.1c-6.6,0.1-12,4.9-11.8,10.4c0.2,4.1,3.4,7.5,7.8,8.9c-1.1,23.3-6.6,140.4-9.3,168
		c0,0-16.9-169.2-21.4-198.9c4.3-1.5,7.4-5,7.4-9.2c0-5.6-5.6-10.2-12.4-10.1c-6.6,0.1-12.1,4.9-11.8,10.5c0.2,4.1,3.4,7.5,7.9,8.9
		c-1,13.7-8.3,108.2-13.7,175c-4.6-1.5-10.7-2.9-18.4-3.4c0.9-2.8,1.8-6.5,2.2-10.2c0.8-8.2-7.8-11.2-7.8-11.2s-8.6,2.9-7.9,11.2
		c0.3,3.7,1.2,7.4,2.1,10.2c-7.8,0.5-14,1.9-18.5,3.4c-4.7-66.9-10.9-161.5-11.8-175.2c4.6-1.4,8-5,8-9.3c0-5.5-5.4-10-12-10.1
		c-6.7,0-12.1,4.4-12.1,10c0,4.1,3,7.7,7.3,9.2c-4.9,29.7-23.6,198.7-23.6,198.7c-2.4-27.6-6.6-144.7-7.5-168c4.6-1.4,7.9-5,7.9-9.3
		c0-5.5-5.4-10-12-10.1c-6.7,0-12.1,4.4-12.1,10c0,4,2.8,7.4,6.9,9.1c-3,17.2-15.5,90.5-20.7,139.1c-5,46-17.9,209.4-22.2,263.3
		c-0.7,8.8,7.1,16.4,17.4,17.4c1.2-9.9,12.3-100.9,28-100.9c15.5,0,26.6,89.3,28,101.5l15.2,0.1c1.4-11.8,16.4-135.6,37.6-135.6
		c20.7,0,35.5,118.8,37.5,135.8l18.9,0l-4.2-0.1c0,0,11.5-101.8,28.2-101.8c15.7,0,26.8,91.1,28,101.8l2,0
		C-624.2,2207.1-616.5,2200.3-617,2192.2z M-749.9,1980.3l-12.8,5.3c-0.8-10.2-1.9-25.7-3.2-44c2.9-1.3,8.2-3.2,16.1-4
		c-1.1,2.1-2,5.3-2,10.2c-0.1,12.4,5.6,14.2,5.6,14.2L-749.9,1980.3z M-722.9,1985.7l-12.8-5.3l-3.5-18.3c0,0,5.7-1.7,5.8-14.1
		c0-4.9-0.9-8.1-1.9-10.3c7.6,0.7,13,2.5,16.1,3.9C-720.7,1959.9-722,1975.5-722.9,1985.7z"/>
			<path clip-path="url(#SVGID_12_)" fill="#1C3660" d="M-782.1,2206.9c-0.1,0.6-0.1,0.9-0.1,0.9l75.5,1.4c0,0-0.1-0.7-0.2-2l-37.1,0
		L-782.1,2206.9z"/>
			<path clip-path="url(#SVGID_12_)" fill="#1C3660" d="M-853.3,2206.2c-0.1,0.6-0.1,0.9-0.1,0.9l56.3,1.1c0,0-0.1-0.5-0.2-1.4
		l-53.7-0.4C-851.8,2206.3-852.6,2206.3-853.3,2206.2z"/>
			<path clip-path="url(#SVGID_12_)" fill="#1C3660" d="M-635.9,2208.1c0,0,0-0.4-0.1-1l-52,0L-635.9,2208.1z"/>
			<path clip-path="url(#SVGID_12_)" fill="#A6CE88" d="M-245.8,2191.2c0.4-8.3,0.6-16.7,0.6-25.2c0-171.6-75.3-310.7-168.2-310.7
		c-92.9,0-168.2,139.1-168.2,310.7c0,8.5,0.2,16.9,0.6,25.2H-245.8z"/>
			<path
				clip-path="url(#SVGID_12_)"
				fill="#9ACDCD"
				d="M-834.9,1687.1c-0.2-2-0.2-2.9-0.2-4.5c0-28.6,23.2-51.5,51.7-51.5
		c1.3,0,2.4,0.4,3.6,0.5c7.6-19.1,26.1-32.7,48-32.7c17.1,0,32.2,8.4,41.5,21.3c3.3-0.7,6.7-1,10.1-1c25,0,45.8,17.2,50.6,40.8
		c16,4.1,28.6,14.2,33.7,27.2H-834.9z"/>
			<path
				clip-path="url(#SVGID_12_)"
				fill="#9ACDCD"
				d="M-483.6,1653.1c-0.1-2-0.2-2.2-0.2-3.4c0-21.3,17.3-38.5,38.6-38.5
		c0.9,0,1.8,0.3,2.7,0.3c5.6-14.3,19.5-24.4,35.8-24.4c12.8,0,24,6.3,31,15.9c2.5-0.5,5-0.8,7.5-0.8c18.7,0,34.2,12.9,37.8,30.5
		c11.9,3.1,21.4,10.4,25.2,20.4H-483.6z"/>
			<rect x="-876.8" y="1565.2" clip-path="url(#SVGID_12_)" fill="none" width="626" height="626"/>
			<g clip-path="url(#SVGID_12_)">
				<defs>
					<rect id="SVGID_13_" x="-876.8" y="1565.2" width="626" height="626"/>
				</defs>
				<clipPath id="SVGID_14_">
					<use xlink:href="#SVGID_13_" overflow="visible"/>
				</clipPath>
			</g>
		</g>
		<g>
			<defs>
				<rect id="SVGID_15_" x="-16.8" y="1565.2" width="626" height="626"/>
			</defs>
			<clipPath id="SVGID_16_">
				<use xlink:href="#SVGID_15_" overflow="visible"/>
			</clipPath>
			<rect x="-17.5" y="1564.5" clip-path="url(#SVGID_16_)" fill="#FCF8CE" width="626.7" height="626.6"/>
			<path
				clip-path="url(#SVGID_16_)"
				fill="#D0EAF1"
				d="M243,2192.2c-3.5-51.1-15-219.2-19.5-266c-4.7-48.6-16.4-122-19.2-139.2
		c4.1-1.6,7-5,7-9c0-5.6-5.6-10.2-12.4-10.1c-6.6,0.1-12,4.9-11.8,10.4c0.2,4.1,3.4,7.5,7.8,8.9c-1.1,23.3-6.6,140.4-9.3,168
		c0,0-16.9-169.2-21.4-198.9c4.3-1.5,7.4-5,7.4-9.2c0-5.6-5.6-10.2-12.4-10.1c-6.6,0.1-12.1,4.9-11.8,10.5c0.2,4.1,3.4,7.5,7.9,8.9
		c-1,13.7-8.3,108.2-13.7,175c-4.6-1.5-10.7-2.9-18.4-3.4c0.9-2.8,1.8-6.5,2.2-10.2c0.8-8.2-7.8-11.2-7.8-11.2s-8.6,2.9-7.9,11.2
		c0.3,3.7,1.2,7.4,2.1,10.2c-7.8,0.5-14,1.9-18.5,3.4c-4.7-66.9-10.9-161.5-11.8-175.2c4.6-1.4,8-5,8-9.3c0-5.5-5.4-10-12-10.1
		c-6.7,0-12.1,4.4-12.1,10c0,4.1,3,7.7,7.3,9.2c-4.9,29.7-23.6,198.7-23.6,198.7c-2.4-27.6-6.6-144.7-7.5-168c4.6-1.4,7.9-5,7.9-9.3
		c0-5.5-5.4-10-12-10.1c-6.7,0-12.1,4.4-12.1,10c0,4,2.8,7.4,6.9,9.1c-3,17.2-15.5,90.5-20.7,139.1c-5,46-17.9,209.4-22.2,263.3
		c-0.7,8.8,7.1,16.4,17.4,17.4c1.2-9.9,12.3-100.9,28-100.9c15.5,0,26.6,89.3,28,101.5l15.2,0.1c1.4-11.8,16.4-135.6,37.6-135.6
		c20.7,0,35.5,118.8,37.5,135.8l18.9,0l-4.2-0.1c0,0,11.5-101.8,28.2-101.8c15.7,0,26.8,91.1,28,101.8l2,0
		C235.8,2207.1,243.5,2200.3,243,2192.2z M110.1,1980.3l-12.8,5.3c-0.8-10.2-1.9-25.7-3.2-44c2.9-1.3,8.2-3.2,16.1-4
		c-1.1,2.1-2,5.3-2,10.2c-0.1,12.4,5.6,14.2,5.6,14.2L110.1,1980.3z M137.1,1985.7l-12.8-5.3l-3.5-18.3c0,0,5.7-1.7,5.8-14.1
		c0-4.9-0.9-8.1-1.9-10.3c7.6,0.7,13,2.5,16.1,3.9C139.3,1959.9,138,1975.5,137.1,1985.7z"/>
			<path clip-path="url(#SVGID_16_)" fill="#1C3660" d="M77.9,2206.9c-0.1,0.6-0.1,0.9-0.1,0.9l75.5,1.4c0,0-0.1-0.7-0.2-2l-37.1,0
		L77.9,2206.9z"/>
			<path clip-path="url(#SVGID_16_)" fill="#1C3660" d="M6.7,2206.2c-0.1,0.6-0.1,0.9-0.1,0.9l56.3,1.1c0,0-0.1-0.5-0.2-1.4L9,2206.3
		C8.2,2206.3,7.4,2206.3,6.7,2206.2z"/>
			<path clip-path="url(#SVGID_16_)" fill="#1C3660" d="M224.1,2208.1c0,0,0-0.4-0.1-1l-52,0L224.1,2208.1z"/>
			<path clip-path="url(#SVGID_16_)" fill="#CEE4C3" d="M614.2,2191.2c0.4-8.3,0.6-16.7,0.6-25.2c0-171.6-75.3-310.7-168.2-310.7
		c-92.9,0-168.2,139.1-168.2,310.7c0,8.5,0.2,16.9,0.6,25.2H614.2z"/>
			<path
				clip-path="url(#SVGID_16_)"
				fill="#D0EAF1"
				d="M25.1,1687.1c-0.2-2-0.2-2.9-0.2-4.5c0-28.6,23.2-51.5,51.7-51.5
		c1.3,0,2.4,0.4,3.6,0.5c7.6-19.1,26.1-32.7,48-32.7c17.1,0,32.2,8.4,41.5,21.3c3.3-0.7,6.7-1,10.1-1c25,0,45.8,17.2,50.6,40.8
		c16,4.1,28.6,14.2,33.7,27.2H25.1z"/>
			<path
				clip-path="url(#SVGID_16_)"
				fill="#D0EAF1"
				d="M376.4,1653.1c-0.1-2-0.2-2.2-0.2-3.4c0-21.3,17.3-38.5,38.6-38.5
		c0.9,0,1.8,0.3,2.7,0.3c5.6-14.3,19.5-24.4,35.8-24.4c12.8,0,24,6.3,31,15.9c2.5-0.5,5-0.8,7.5-0.8c18.7,0,34.2,12.9,37.8,30.5
		c11.9,3.1,21.4,10.4,25.2,20.4H376.4z"/>
			<rect x="-16.8" y="1565.2" clip-path="url(#SVGID_16_)" fill="none" width="626" height="626"/>
			<g clip-path="url(#SVGID_16_)">
				<defs>
					<rect id="SVGID_17_" x="-16.8" y="1565.2" width="626" height="626"/>
				</defs>
				<clipPath id="SVGID_18_">
					<use xlink:href="#SVGID_17_" overflow="visible"/>
				</clipPath>
			</g>
		</g>
		<g>
			<defs>
				<rect id="SVGID_19_" x="-2639.3" y="0.2" width="625.7" height="625.8"/>
			</defs>
			<clipPath id="SVGID_20_">
				<use xlink:href="#SVGID_19_" overflow="visible"/>
			</clipPath>
			<rect x="-2639.3" y="0.2" clip-path="url(#SVGID_20_)" fill="#FCF8CE" width="625.7" height="625.8"/>
			<path clip-path="url(#SVGID_20_)" fill="#FBCC9A" d="M-2477.9,181.6c-13.2-6.5-11.1-12.3-11.1-18.7c-9,0-9,0-9,0s0,0-9,0
		c0,6.5,2.1,12.3-11.1,18.7c-13.2,6.4-15.7,64.5-15.7,64.5l35.8,22.4l35.8-22.4C-2462.2,246.1-2464.7,188.1-2477.9,181.6z"/>
			<path clip-path="url(#SVGID_20_)" fill="#FBCC9A" d="M-2276.8,186.5c-13.2-6.5-11.1-12.3-11.1-18.7c-9,0-9,0-9,0s0,0-9,0
		c0,6.5,2.1,12.3-11.1,18.7c-13.2,6.5-15.7,64.5-15.7,64.5l35.8,22.4l35.8-22.4C-2261.1,251-2263.6,192.9-2276.8,186.5z"/>
			<path clip-path="url(#SVGID_20_)" fill="#FBCC9A" d="M-2417.4,197.4c-6.9-6.1-14.2-6.1-21.1,0c-6.9,6.1-8.2,61-8.2,61l18.8,21.2
		l18.8-21.2C-2409.1,258.4-2410.5,203.5-2417.4,197.4z"/>
			<path clip-path="url(#SVGID_20_)" fill="#FBCC9A" d="M-2350.9,195.1c-6.9-6.1-14.2-6.1-21.1,0c-6.9,6.1-8.2,61-8.2,61l18.8,21.2
		l18.8-21.2C-2342.6,256.1-2344,201.2-2350.9,195.1z"/>
			<path
				clip-path="url(#SVGID_20_)"
				fill="#FBCC9A"
				d="M-2148.6,303.2c0,0-79.1-65.1-102.8-65.1c-18.5,0-36.7,21-45.7,21.4
		c-10.3,0.4-31.2-21.4-49.5-21.4c-19.2,0-38.1,21.7-46.4,22.1c-9.6,0.4-31.4-22.1-50.4-22.1c-19.3,0-38.4,21.9-46.6,22.2
		c-9.4,0.4-31.5-22.2-50.6-22.2c-23.7,0-98,64.8-98,64.8L-2148.6,303.2z"/>
			<path
				clip-path="url(#SVGID_20_)"
				fill="#FBCC9A"
				d="M-2148.6,303.2c0,0-37.5-24.6-67.2-24.6c-23.2,0-45.8,21-57.1,21.4
		c-12.9,0.5-39-21.4-61.9-21.4c-24,0-47.6,21.7-58,22.1c-12,0.4-39.3-22.1-63-22.1c-24.2,0-48,21.9-58.2,22.2
		c-11.8,0.4-39.4-22.2-63.3-22.2c-29.6,0-61.2,24.4-61.2,24.4L-2148.6,303.2z"/>
			<rect x="-2638.6" y="302.9" clip-path="url(#SVGID_20_)" fill="#FBCC9A" width="489.9" height="47.5"/>
			<rect x="-2638.6" y="350.4" clip-path="url(#SVGID_20_)" fill="#FBCC9A" width="489.9" height="47.5"/>
			<path
				clip-path="url(#SVGID_20_)"
				fill="#FCF8CE"
				d="M-2148.6,398.8c0,0-37.5-12.3-67.2-12.3c-23.2,0-45.8,10.5-57.1,10.7
		c-12.9,0.2-39-10.7-61.9-10.7c-24,0-47.6,10.8-58,11c-12,0.2-39.3-11-63-11c-24.2,0-48,10.9-58.2,11.1
		c-11.8,0.2-39.4-11.1-63.3-11.1c-29.6,0-61.2,12.2-61.2,12.2L-2148.6,398.8z"/>
			<rect x="-2638.6" y="398.6" clip-path="url(#SVGID_20_)" fill="#FBCC9A" width="489.9" height="47.5"/>
			<rect x="-2638.6" y="446.8" clip-path="url(#SVGID_20_)" fill="#FBCC9A" width="489.9" height="47.5"/>
			<path
				clip-path="url(#SVGID_20_)"
				fill="#FCF8CE"
				d="M-2148.6,447c0,0-37.5-13-67.2-13c-23.2,0-45.8,11.1-57.1,11.3
		c-12.9,0.2-39-11.3-61.9-11.3c-24,0-47.6,11.4-58,11.6c-12,0.2-39.3-11.6-63-11.6c-24.2,0-48,11.5-58.2,11.7
		c-11.8,0.2-39.4-11.7-63.3-11.7c-29.6,0-61.2,12.9-61.2,12.9L-2148.6,447z"/>
			<path
				clip-path="url(#SVGID_20_)"
				fill="#FCF8CE"
				d="M-2148.6,350.6c0,0-37.5-13-67.2-13c-23.2,0-45.8,11.1-57.1,11.3
		c-12.9,0.2-39-11.3-61.9-11.3c-24,0-47.6,11.5-58,11.7c-12,0.2-39.3-11.7-63-11.7c-24.2,0-48,11.5-58.2,11.7
		c-11.8,0.2-39.4-11.7-63.3-11.7c-29.6,0-61.2,12.9-61.2,12.9L-2148.6,350.6z"/>
			<path
				clip-path="url(#SVGID_20_)"
				fill="#FCF8CE"
				d="M-2148.6,495.1c0,0-37.5-12.3-67.2-12.3c-23.2,0-45.8,10.5-57.1,10.7
		c-12.9,0.2-39-10.7-61.9-10.7c-24,0-47.6,10.9-58,11c-12,0.2-39.3-11-63-11c-24.2,0-48,10.9-58.2,11.1
		c-11.8,0.2-39.4-11.1-63.3-11.1c-29.6,0-61.2,12.2-61.2,12.2L-2148.6,495.1z"/>
			<rect x="-2638.6" y="494.9" clip-path="url(#SVGID_20_)" fill="#FBCC9A" width="489.9" height="47.5"/>
			<rect x="-2638.6" y="543.1" clip-path="url(#SVGID_20_)" fill="#FBCC9A" width="489.9" height="88"/>
			<path
				clip-path="url(#SVGID_20_)"
				fill="#FCF8CE"
				d="M-2148.6,543.3c0,0-37.5-12.3-67.2-12.3c-23.2,0-45.8,10.5-57.1,10.7
		c-12.9,0.2-39-10.7-61.9-10.7c-24,0-47.6,10.8-58,11c-12,0.2-39.3-11-63-11c-24.2,0-48,10.9-58.2,11.1
		c-11.8,0.2-39.4-11.1-63.3-11.1c-29.6,0-61.2,12.2-61.2,12.2L-2148.6,543.3z"/>
			<path
				clip-path="url(#SVGID_20_)"
				fill="#D0EAF1"
				d="M-2581.5,106.1c-0.2-2-0.2-3.1-0.2-4.7c0-28.6,23.2-51.6,51.7-51.6
		c1.3,0,2.4,0.4,3.6,0.4c7.6-19.1,26.1-32.7,48-32.7c17.1,0,32.1,8.4,41.5,21.3c3.3-0.7,6.7-1,10.1-1c25,0,45.8,17.4,50.6,41
		c16,4.1,28.6,14.4,33.7,27.4H-2581.5z"/>
			<path
				clip-path="url(#SVGID_20_)"
				fill="#D0EAF1"
				d="M-2303.3,126.1c-0.1-2-0.2-2.4-0.2-3.6c0-21.3,17.3-38.6,38.6-38.6
		c0.9,0,1.8,0.2,2.7,0.3c5.6-14.3,19.5-24.4,35.8-24.4c12.8,0,24,6.3,31,15.9c2.5-0.5,5-0.8,7.5-0.8c18.7,0,34.2,13.1,37.8,30.7
		c11.9,3.1,21.4,10.5,25.2,20.5H-2303.3z"/>

			<rect x="-2106.3" y="290.6" clip-path="url(#SVGID_20_)" fill-rule="evenodd" clip-rule="evenodd" fill="#FBCC9A" width="22.7" height="260.1"/>
			<path clip-path="url(#SVGID_20_)" fill-rule="evenodd" clip-rule="evenodd" fill="#FBCC9A" d="M-2103.3,457.2l-77.2,163.2
		c-2.6,5.6,1.7,11.9,8.2,11.9h156.2c6.5,0,10.8-6.4,8.1-12l-79-163.2C-2090.2,450.5-2100.2,450.6-2103.3,457.2z"/>
			<path clip-path="url(#SVGID_20_)" fill-rule="evenodd" clip-rule="evenodd" fill="#FBCC9A" d="M-2086,298.4h-17.2
		c-5.4,0-9.9-4.4-9.9-9.9V259c0-5.4,4.4-9.9,9.9-9.9h17.2c5.4,0,9.9,4.4,9.9,9.9v29.5C-2076.1,293.9-2080.5,298.4-2086,298.4z"/>
			<polygon clip-path="url(#SVGID_20_)" fill="#FBCC9A" points="-2098.8,256.6 -2109.1,256.6 -2109.1,254.9 -2108.2,253.3
		-2098.8,254.9 	"/>
			<polygon clip-path="url(#SVGID_20_)" fill="#FBCC9A" points="-2091.1,256.3 -2080.8,256.9 -2080.7,255.2 -2081.5,253.5
		-2091,254.6 	"/>
			<path
				clip-path="url(#SVGID_20_)"
				fill="#FBCC9A"
				d="M-2083.8,199.4c-1.3-1.3-3.4-1.3-4.7,0c-1.3,1.3-1.3,3.4,0,4.7l0.7,0.7
		c1.7,1.7,3.3,3.4,4.9,5.1c1.6,1.7,3.2,3.4,4.7,5.2c0.4,0.4,0.7,0.9,1.1,1.3l0,0.1l-0.4,0.6c-1.2,1.8-2.7,3.7-4.1,5.5l-1.7,2.2
		l5.1,4.3l1.8-2.2c1.5-1.9,3-3.8,4.4-5.9l0.3-0.4l0.3-0.5c0.3-0.5,0.6-1,0.9-1.6c0.1-0.3,0.2-0.5,0.3-0.8c0.1-0.3,0.1-0.5,0.1-0.8
		l0-0.4l0-0.2c0-0.1,0-0.1,0-0.2c-0.1-0.3-0.1-0.5-0.2-0.8l-0.1-0.4c0-0.1-0.1-0.3-0.2-0.4c-0.1-0.2-0.3-0.5-0.4-0.7l-0.5-0.7
		c-0.1-0.1-0.2-0.2-0.3-0.4l-0.2-0.3c-0.4-0.5-0.8-1-1.2-1.5c-1.6-1.9-3.3-3.6-4.9-5.4c-1.7-1.7-3.3-3.5-5-5.2L-2083.8,199.4z"/>
			<path
				clip-path="url(#SVGID_20_)"
				fill="#FBCC9A"
				d="M-2133.9,191.6c0.4,0.1,16.9,4.3,17.4,4.4c1.9,0.5,3.8,1,5.7,1.4
		c1.9,0.4,3.9,0.8,5.8,1.2l0.8,0.2c1.5,0.3,2.6,2,2.3,3.8c-0.2,1.8-1.7,3.1-3.2,2.8l-0.8-0.2c-2-0.4-3.9-0.8-5.9-1.2
		c-2-0.4-19.9-4.9-22-5.4"/>
			<path clip-path="url(#SVGID_20_)" fill="#FBCC9A" d="M-2086,198.3c-2.2-0.5-5.6-1.1-9.1-1.1c-3.5,0-6.9,0.6-9.1,1.1
		c-1.4,0.3-2.5,1.8-2.5,3.2v23.4h23.1v-23.4C-2083.5,200.1-2084.6,198.6-2086,198.3z"/>
			<path clip-path="url(#SVGID_20_)" fill="#FBCC9A" d="M-2088.4,197.8c-1.9-0.3-4.3-0.6-6.7-0.6c-2.4,0-4.8,0.3-6.7,0.6l6.3,1.8
		c0.1,0.1,0.2,0.2,0.4,0.2l0,0c0.2,0,0.3-0.1,0.4-0.2L-2088.4,197.8z"/>
			<path clip-path="url(#SVGID_20_)" fill="#FBCC9A" d="M-2090.3,195l0.4,2.6c0,0-2.2,2.7-5.1,2.7c-2.9,0-5.1-2.7-5.1-2.7l0.4-2.6
		H-2090.3z"/>
			<path clip-path="url(#SVGID_20_)" fill="#FBCC9A" d="M-2081.5,253.5l-2-28.6h-23.1l-1.6,28.4l9.4,1.6l1.4-23c0.1-1,0.9-1.7,1.8-1.7
		h1.3c0.9,0,1.8,0.8,1.8,1.7l1.5,23L-2081.5,253.5z"/>
			<path clip-path="url(#SVGID_20_)" fill="#FBCC9A" d="M-2078.4,229.3l0.3-0.4l-5.1-4.3l-0.3,0.4c-1.1,1.4-1,3.5,0.4,4.7
		C-2081.7,230.9-2079.6,230.7-2078.4,229.3z"/>
			<path clip-path="url(#SVGID_20_)" fill="#FBCC9A" d="M-2133.1,191.8l0.4,0.1l-0.8,6.7l-0.4-0.1c-1.6-0.2-2.7-1.9-2.4-3.8
		C-2136.1,192.8-2134.6,191.6-2133.1,191.8z"/>
			<path clip-path="url(#SVGID_20_)" fill="#F39669" d="M-2106.8,225"/>
			<path clip-path="url(#SVGID_20_)" fill="#FBCC9A" d="M-2133.9,191.8c-0.1,0.6,0.2,1.1,0.5,1.2c0.4,0,0.7-0.4,0.8-1
		c0.1-0.6-0.2-1.1-0.5-1.2C-2133.5,190.8-2133.9,191.2-2133.9,191.8z"/>
			<path clip-path="url(#SVGID_20_)" fill="#FBCC9A" d="M-2084,225.9c0.5,0.4,1.1,0.4,1.3,0.1c0.2-0.3,0.1-0.9-0.4-1.3
		c-0.5-0.4-1.1-0.4-1.3-0.1C-2084.7,224.9-2084.5,225.5-2084,225.9z"/>
			<ellipse clip-path="url(#SVGID_20_)" fill="#FBCC9A" cx="-2078.8" cy="180" rx="3" ry="3.9"/>
			<ellipse clip-path="url(#SVGID_20_)" fill="#FBCC9A" cx="-2111.4" cy="180" rx="3" ry="3.9"/>
			<path clip-path="url(#SVGID_20_)" fill="#FBCC9A" d="M-2098,196.3c-7.3,0-13.2-6-13.2-13.4v-14.2c0-7.4,5.9-13.4,13.2-13.4h3.2v41
		H-2098z"/>
			<path clip-path="url(#SVGID_20_)" fill="#FBCC9A" d="M-2092.2,196.3c7.3,0,13.2-6,13.2-13.4v-14.2c0-7.4-5.9-13.4-13.2-13.4h-2.9
		v41H-2092.2z"/>
			<path
				id="pelo_4_1_"
				clip-path="url(#SVGID_20_)"
				fill="#FBCC9A"
				d="M-2077.1,160.6c2.6-2.6,4.9-7.1,3.8-10.6
		c0-0.2-0.3-0.3-0.5-0.2c-2.4,1.5-5,2.6-7.9,3.2c-3.2,0.6-6.5,0.3-9.8,0.1c-5.7-0.3-11.7-0.3-16.3,3c-3.9,2.8-5,8.7-3.8,12.8
		c0,0.1,0,0.1,0.1,0.2c0.1,0.1,0.2,0.1,0.3,0.1c0.1,0,0.1,0,0.2-0.1c0,0,0,0,0,0c0,0,0,0,0,0c0,0,0,0,0,0c0,0,0,0,0,0
		c0.7-1.9,1.7-4.7,3.8-5.8c1.6-0.8,3.7-0.7,5.5-0.5c4.1,0.6,7.8,2,12,2.3c2.3,0.2,4.7-0.1,6.9-0.8c0.6-0.2,1.1-0.4,1.6-0.7
		c0.1,0.2,0.2,0.3,0.2,0.5c0.6,1.3,1,3.5,1.6,4.8c0.1,0.3,0.5,0.3,0.6,0c0.9-2,1-5.1,0.3-7.1C-2077.9,161.4-2077.5,161-2077.1,160.6
		z"/>
			<rect x="-2639.4" y="-0.2" clip-path="url(#SVGID_20_)" fill="none" width="625.7" height="625.8"/>
			<path clip-path="url(#SVGID_20_)" fill="#FCF8CE" d="M-2369.2,626v-35.6c0-11.1,16.4-20.1,36.6-20.1l0,0c20.2,0,36.6,9,36.6,20.1
		V626L-2369.2,626z"/>
			<path clip-path="url(#SVGID_20_)" fill="#FCF8CE" d="M-2250.3,626v-35.6c0-11.1,16.4-20.1,36.6-20.1l0,0c20.2,0,36.6,9,36.6,20.1
		V626L-2250.3,626z"/>
			<path clip-path="url(#SVGID_20_)" fill="#FCF8CE" d="M-2612.2,626v-35.6c0-11.1,16.4-20.1,36.6-20.1l0,0c20.2,0,36.6,9,36.6,20.1
		V626L-2612.2,626z"/>
			<path clip-path="url(#SVGID_20_)" fill="#FCF8CE" d="M-2493.3,626v-35.6c0-11.1,16.4-20.1,36.6-20.1l0,0c20.2,0,36.6,9,36.6,20.1
		V626L-2493.3,626z"/>
		</g>
		<g>
			<defs>
				<rect id="SVGID_21_" x="-1799.5" y="1565.2" width="626" height="626"/>
			</defs>
			<clipPath id="SVGID_22_">
				<use xlink:href="#SVGID_21_" overflow="visible"/>
			</clipPath>

			<rect x="-1749.7" y="1772.4" clip-path="url(#SVGID_22_)" fill-rule="evenodd" clip-rule="evenodd" fill="#CCC9E5" width="83.8" height="30.3"/>
			<path
				clip-path="url(#SVGID_22_)"
				fill-rule="evenodd"
				clip-rule="evenodd"
				fill="#9294C9"
				d="M-1662.3,1733.6l2.3-7.3
		c1.3-4.2-2.4-8.4-7.5-8.4h-80.6c-5.1,0-8.8,4.2-7.5,8.4l2.3,7.3c0.2,0.6,0.3,1.1,0.3,1.7v10.1c0,3.7,3.5,6.7,7.7,6.7h75
		c4.3,0,7.7-3,7.7-6.7v-10.1C-1662.5,1734.7-1662.5,1734.1-1662.3,1733.6z"/>
			<path
				clip-path="url(#SVGID_22_)"
				fill-rule="evenodd"
				clip-rule="evenodd"
				fill="#9294C9"
				d="M-1654.6,1763.4
		c-0.1,0.4-0.1,0.8-0.1,1.1v38.4c0,2.2-1.5,4-3.3,4h-13c-1.8,0-3.3-1.8-3.3-4l0-17.7c0.1-4.1-2.5-7.6-5.8-7.6
		c-3.4,0-5.8,3.5-5.8,7.6v17.7c0,2.2-1.5,4-3.3,4l0,0c-1.8,0-3.3-1.8-3.3-4l0-17.7c0.1-4.1-2.5-7.6-5.8-7.6c-3.4,0-5.8,3.5-5.8,7.6
		v17.7c0,2.2-1.5,4-3.3,4h0c-1.8,0-3.3-1.8-3.3-4l0-17.7c0.1-4.1-2.5-7.6-5.8-7.6c-3.4,0-5.8,3.5-5.8,7.6v17.7c0,2.2-1.5,4-3.3,4h0
		c-1.8,0-3.3-1.8-3.3-4l0-17.7c0.1-4.1-2.5-7.6-5.8-7.6c-3.4,0-5.8,3.5-5.8,7.6v17.7c0,2.2-1.5,4-3.3,4h-13c-1.8,0-3.3-1.8-3.3-4
		v-38.4c0-0.4,0-0.8-0.1-1.1L-1654.6,1763.4z"/>
			<path
				clip-path="url(#SVGID_22_)"
				fill-rule="evenodd"
				clip-rule="evenodd"
				fill="#CCC9E5"
				d="M-1653.9,1766.8l3.6-10.5
		c0.8-2.3-1.2-4.6-4-4.6h-107.2c-2.8,0-4.8,2.3-4,4.6l3.6,10.5c0.5,1.5,2.1,2.5,4,2.5h99.9
		C-1656,1769.3-1654.4,1768.3-1653.9,1766.8z"/>
			<path clip-path="url(#SVGID_22_)" fill-rule="evenodd" clip-rule="evenodd" fill="#CCC9E5" d="M-1745.3,1815.6h74.9
		c7.4,0,13.4,5.4,13.4,12v361c0,6.6-6,12-13.4,12h-74.9c-7.4,0-13.4-5.4-13.4-12v-361C-1758.6,1820.9-1752.6,1815.6-1745.3,1815.6z"/>
			<path
				clip-path="url(#SVGID_22_)"
				fill-rule="evenodd"
				clip-rule="evenodd"
				fill="#9294C9"
				d="M-1650.6,1814.7l1.4-3.6
		c2.4-6.1-3.5-12.3-11.9-12.3h-93.5c-8.3,0-14.3,6.2-11.9,12.3l1.4,3.6c0.1,0.4,0.2,0.7,0.2,1.1v7.5c0,5.3,5.6,9.5,12.4,9.5h89.1
		c6.8,0,12.4-4.3,12.4-9.5v-7.5C-1650.8,1815.4-1650.7,1815-1650.6,1814.7z"/>
			<path
				clip-path="url(#SVGID_22_)"
				fill-rule="evenodd"
				clip-rule="evenodd"
				fill="#CCC9E5"
				d="M-1656.7,1814.6l5.2-14.8
		c0.2-0.5-0.3-1.1-0.9-1.1h-110.8c-0.6,0-1.1,0.5-0.9,1.1l5.2,14.8c0.1,0.3,0.5,0.6,0.9,0.6h100.3
		C-1657.2,1815.2-1656.8,1815-1656.7,1814.6z"/>
			<path clip-path="url(#SVGID_22_)" fill-rule="evenodd" clip-rule="evenodd" fill="#CCC9E5" d="M-1716.2,1655.6
		c4.2-6.5,15.2-6.5,19.4,0l20.6,31.9l16.2,25.1c6.3,9.8,11.3,22.1-15,21.8h-31.5h-31.6c-24.8,0.6-21.4-12-15-21.8l16.2-25.1
		L-1716.2,1655.6z"/>

			<rect x="-1314.1" y="1773.9" clip-path="url(#SVGID_22_)" fill-rule="evenodd" clip-rule="evenodd" fill="#CCC9E5" width="83.8" height="30.3"/>
			<path
				clip-path="url(#SVGID_22_)"
				fill-rule="evenodd"
				clip-rule="evenodd"
				fill="#9294C9"
				d="M-1226.7,1735.1l2.3-7.3
		c1.3-4.2-2.4-8.4-7.5-8.4h-80.6c-5.1,0-8.8,4.2-7.5,8.4l2.3,7.3c0.2,0.6,0.3,1.1,0.3,1.7v10.1c0,3.7,3.5,6.7,7.7,6.7h75
		c4.3,0,7.7-3,7.7-6.7v-10.1C-1227,1736.2-1226.9,1735.6-1226.7,1735.1z"/>
			<path
				clip-path="url(#SVGID_22_)"
				fill-rule="evenodd"
				clip-rule="evenodd"
				fill="#9294C9"
				d="M-1219,1764.9
		c-0.1,0.4-0.1,0.8-0.1,1.1v38.4c0,2.2-1.5,4-3.3,4h-13c-1.8,0-3.3-1.8-3.3-4l0-17.7c0.1-4.1-2.5-7.6-5.8-7.6
		c-3.4,0-5.8,3.5-5.8,7.6v17.7c0,2.2-1.5,4-3.3,4l0,0c-1.8,0-3.3-1.8-3.3-4l0-17.7c0.1-4.1-2.5-7.6-5.8-7.6c-3.4,0-5.8,3.5-5.8,7.6
		v17.7c0,2.2-1.5,4-3.3,4h0c-1.8,0-3.3-1.8-3.3-4l0-17.7c0.1-4.1-2.5-7.6-5.8-7.6c-3.4,0-5.8,3.5-5.8,7.6v17.7c0,2.2-1.5,4-3.3,4h0
		c-1.8,0-3.3-1.8-3.3-4l0-17.7c0.1-4.1-2.5-7.6-5.8-7.6c-3.4,0-5.8,3.5-5.8,7.6v17.7c0,2.2-1.5,4-3.3,4h-13c-1.8,0-3.3-1.8-3.3-4
		v-38.4c0-0.4,0-0.8-0.1-1.1L-1219,1764.9z"/>
			<path
				clip-path="url(#SVGID_22_)"
				fill-rule="evenodd"
				clip-rule="evenodd"
				fill="#CCC9E5"
				d="M-1218.3,1768.3l3.6-10.5
		c0.8-2.3-1.2-4.6-4-4.6h-107.2c-2.8,0-4.8,2.3-4,4.6l3.6,10.5c0.5,1.5,2.1,2.5,4,2.5h99.9
		C-1220.4,1770.8-1218.8,1769.8-1218.3,1768.3z"/>
			<path clip-path="url(#SVGID_22_)" fill-rule="evenodd" clip-rule="evenodd" fill="#CCC9E5" d="M-1309.7,1817.1h74.9
		c7.4,0,13.4,5.4,13.4,12v361c0,6.6-6,12-13.4,12h-74.9c-7.4,0-13.4-5.4-13.4-12v-361C-1323.1,1822.4-1317.1,1817.1-1309.7,1817.1z"/>
			<path
				clip-path="url(#SVGID_22_)"
				fill-rule="evenodd"
				clip-rule="evenodd"
				fill="#9294C9"
				d="M-1215,1816.2l1.4-3.6
		c2.4-6.1-3.5-12.3-11.9-12.3h-93.5c-8.3,0-14.3,6.2-11.9,12.3l1.4,3.6c0.1,0.4,0.2,0.7,0.2,1.1v7.5c0,5.3,5.6,9.5,12.4,9.5h89.1
		c6.8,0,12.4-4.3,12.4-9.5v-7.5C-1215.2,1816.9-1215.2,1816.5-1215,1816.2z"/>
			<path
				clip-path="url(#SVGID_22_)"
				fill-rule="evenodd"
				clip-rule="evenodd"
				fill="#CCC9E5"
				d="M-1221.1,1816.1l5.2-14.8
		c0.2-0.5-0.3-1.1-0.9-1.1h-110.8c-0.6,0-1.1,0.5-0.9,1.1l5.2,14.8c0.1,0.3,0.5,0.6,0.9,0.6h100.3
		C-1221.6,1816.7-1221.3,1816.5-1221.1,1816.1z"/>
			<path clip-path="url(#SVGID_22_)" fill-rule="evenodd" clip-rule="evenodd" fill="#CCC9E5" d="M-1280.6,1657.1
		c4.2-6.5,15.2-6.5,19.4,0l20.6,31.9l16.2,25.1c6.3,9.8,11.3,22.1-15,21.8h-31.5h-31.6c-24.8,0.6-21.4-12-15-21.8l16.2-25.1
		L-1280.6,1657.1z"/>
			<rect x="-1371.7" y="2000.1" clip-path="url(#SVGID_22_)" fill="#FBCC9A" width="27" height="191"/>
			<path clip-path="url(#SVGID_22_)" fill="#CEE4C3" d="M-1248.8,1997.6c0,61.8-50.1,111.9-111.9,111.9l0,0
		c-61.8,0-111.9-50.1-111.9-111.9l0,0c0-61.8,50.1-111.9,111.9-111.9l0,0C-1298.9,1885.7-1248.8,1935.8-1248.8,1997.6
		L-1248.8,1997.6z"/>
			<rect x="-1799.4" y="1565.8" clip-path="url(#SVGID_22_)" fill="none" width="625.7" height="625.8"/>
		</g>
		<g>
			<defs>
				<rect id="SVGID_23_" x="-876.6" y="0.2" width="625.7" height="625.8"/>
			</defs>
			<clipPath id="SVGID_24_">
				<use xlink:href="#SVGID_23_" overflow="visible"/>
			</clipPath>
			<rect x="-876.6" y="0.2" clip-path="url(#SVGID_24_)" fill="#CEE4C3" width="625.7" height="625.8"/>
			<path
				clip-path="url(#SVGID_24_)"
				fill="#9ACDCD"
				d="M-485.2,483.7h-367.2c-14.2,0-25.7,11.5-25.7,25.7v93.2
		c0,14.2,11.5,25.7,25.7,25.7h8.6v-63.5c0-26.6,20.4-48.1,45.5-48.1s45.5,21.5,45.5,48.1v63.5h38.5v-63.4
		c0-26.6,20.4-48.1,45.5-48.1c25.1,0,45.5,21.5,45.5,48.1v63.4h41.1v-63.5c0-26.6,20.4-48.1,45.5-48.1s45.5,21.5,45.5,48.1v63.5h5.9
		c14.2,0,25.7-11.5,25.7-25.7v-93.2C-459.5,495.2-471,483.7-485.2,483.7z"/>
			<rect x="-714.4" y="628.3" clip-path="url(#SVGID_24_)" fill="#993415" width="91" height="0"/>
			<path clip-path="url(#SVGID_24_)" fill="#9ACDCD" d="M-303,642.1h-186.7c-39.7,0-71.9-21.9-71.9-48.9V263.9
		c0-27,32.2-48.9,71.9-48.9H-303c39.7,0,71.9,21.9,71.9,48.9v329.2C-231.1,620.2-263.3,642.1-303,642.1z"/>
			<path clip-path="url(#SVGID_24_)" fill="#CEE4C3" d="M-269,607.7h-254.7c-2.2,0-4-2.9-4-6.5l0,0c0-3.6,1.8-6.5,4-6.5H-269
		c2.2,0,4,2.9,4,6.5l0,0C-265.1,604.8-266.8,607.7-269,607.7z"/>
			<path clip-path="url(#SVGID_24_)" fill="#CEE4C3" d="M-269,581.2h-254.7c-2.2,0-4-2.9-4-6.5v0c0-3.6,1.8-6.5,4-6.5H-269
		c2.2,0,4,2.9,4,6.5v0C-265.1,578.3-266.8,581.2-269,581.2z"/>
			<path clip-path="url(#SVGID_24_)" fill="#CEE4C3" d="M-269,553.9h-254.7c-2.2,0-4-2.9-4-6.5v0c0-3.6,1.8-6.5,4-6.5H-269
		c2.2,0,4,2.9,4,6.5v0C-265.1,551-266.8,553.9-269,553.9z"/>
			<path clip-path="url(#SVGID_24_)" fill="#CEE4C3" d="M-269,527.4h-254.7c-2.2,0-4-2.9-4-6.5l0,0c0-3.6,1.8-6.5,4-6.5H-269
		c2.2,0,4,2.9,4,6.5l0,0C-265.1,524.5-266.8,527.4-269,527.4z"/>
			<path clip-path="url(#SVGID_24_)" fill="#CEE4C3" d="M-269,499.3h-254.7c-2.2,0-4-2.9-4-6.5l0,0c0-3.6,1.8-6.5,4-6.5H-269
		c2.2,0,4,2.9,4,6.5l0,0C-265.1,496.4-266.8,499.3-269,499.3z"/>
			<path clip-path="url(#SVGID_24_)" fill="#CEE4C3" d="M-269,472.8h-254.7c-2.2,0-4-2.9-4-6.5l0,0c0-3.6,1.8-6.5,4-6.5H-269
		c2.2,0,4,2.9,4,6.5l0,0C-265.1,469.9-266.8,472.8-269,472.8z"/>
			<path clip-path="url(#SVGID_24_)" fill="#CEE4C3" d="M-269,445.5h-254.7c-2.2,0-4-2.9-4-6.5l0,0c0-3.6,1.8-6.5,4-6.5H-269
		c2.2,0,4,2.9,4,6.5l0,0C-265.1,442.6-266.8,445.5-269,445.5z"/>
			<path clip-path="url(#SVGID_24_)" fill="#CEE4C3" d="M-269,419h-254.7c-2.2,0-4-2.9-4-6.5l0,0c0-3.6,1.8-6.5,4-6.5H-269
		c2.2,0,4,2.9,4,6.5l0,0C-265.1,416.1-266.8,419-269,419z"/>
			<path clip-path="url(#SVGID_24_)" fill="#CEE4C3" d="M-269,391.7h-254.7c-2.2,0-4-2.9-4-6.5l0,0c0-3.6,1.8-6.5,4-6.5H-269
		c2.2,0,4,2.9,4,6.5l0,0C-265.1,388.8-266.8,391.7-269,391.7z"/>
			<path clip-path="url(#SVGID_24_)" fill="#CEE4C3" d="M-269,365.2h-254.7c-2.2,0-4-2.9-4-6.5l0,0c0-3.6,1.8-6.5,4-6.5H-269
		c2.2,0,4,2.9,4,6.5l0,0C-265.1,362.3-266.8,365.2-269,365.2z"/>
			<path clip-path="url(#SVGID_24_)" fill="#CEE4C3" d="M-269,337.9h-254.7c-2.2,0-4-2.9-4-6.5l0,0c0-3.6,1.8-6.5,4-6.5H-269
		c2.2,0,4,2.9,4,6.5l0,0C-265.1,335-266.8,337.9-269,337.9z"/>
			<path clip-path="url(#SVGID_24_)" fill="#CEE4C3" d="M-269,311.4h-254.7c-2.2,0-4-2.9-4-6.5l0,0c0-3.6,1.8-6.5,4-6.5H-269
		c2.2,0,4,2.9,4,6.5l0,0C-265.1,308.5-266.8,311.4-269,311.4z"/>
			<path clip-path="url(#SVGID_24_)" fill="#CEE4C3" d="M-269,283.8h-254.7c-2.2,0-4-2.9-4-6.5l0,0c0-3.6,1.8-6.5,4-6.5H-269
		c2.2,0,4,2.9,4,6.5l0,0C-265.1,280.9-266.8,283.8-269,283.8z"/>
			<path clip-path="url(#SVGID_24_)" fill="#CEE4C3" d="M-269,257.2h-254.7c-2.2,0-4-2.9-4-6.5l0,0c0-3.6,1.8-6.5,4-6.5H-269
		c2.2,0,4,2.9,4,6.5l0,0C-265.1,254.3-266.8,257.2-269,257.2z"/>
			<path clip-path="url(#SVGID_24_)" fill="#FCF8CE" d="M-849.8,107.8c0-50.1,40.6-90.7,90.7-90.7c50.1,0,90.7,40.6,90.7,90.7
		c0,50.1-40.6,90.7-90.7,90.7C-809.2,198.6-849.8,157.9-849.8,107.8z"/>
			<path
				clip-path="url(#SVGID_24_)"
				fill="#D0EAF1"
				d="M-767.9,198.1c-0.1-1.7-0.2-2.5-0.2-3.9c0-23.7,19.2-42.8,42.9-42.8
		c1.1,0,2,0.3,3,0.3c6.3-15.9,21.7-27.1,39.8-27.1c14.2,0,26.7,7,34.5,17.6c2.8-0.6,5.5-0.8,8.4-0.8c20.7,0,38,14.5,42,34
		c13.2,3.4,23.7,11.9,28,22.7H-767.9z"/>
			<rect x="-876.4" y="-2.2" clip-path="url(#SVGID_24_)" fill="none" width="625.7" height="625.8"/>
			<g clip-path="url(#SVGID_24_)">
				<defs>
					<rect id="SVGID_25_" x="-876.4" y="-2.2" width="625.7" height="625.8"/>
				</defs>
				<clipPath id="SVGID_26_">
					<use xlink:href="#SVGID_25_" overflow="visible"/>
				</clipPath>
			</g>
		</g>
		<g>
			<defs>
				<rect id="SVGID_27_" x="0.3" y="0.2" width="625.7" height="625.8"/>
			</defs>
			<clipPath id="SVGID_28_">
				<use xlink:href="#SVGID_27_" overflow="visible"/>
			</clipPath>
			<rect x="0.3" y="0.2" clip-path="url(#SVGID_28_)" fill="#CCC9E5" width="625.7" height="625.8"/>
			<path
				clip-path="url(#SVGID_28_)"
				fill="#D0EAF1"
				d="M391.6,483.7H24.4c-14.2,0-25.7,11.5-25.7,25.7v93.2
		c0,14.2,11.5,25.7,25.7,25.7H33v-63.5c0-26.6,20.4-48.1,45.5-48.1s45.5,21.5,45.5,48.1v63.5h38.5v-63.4c0-26.6,20.4-48.1,45.5-48.1
		c25.1,0,45.5,21.5,45.5,48.1v63.4h41.1v-63.5c0-26.6,20.4-48.1,45.5-48.1s45.5,21.5,45.5,48.1v63.5h5.9c14.2,0,25.7-11.5,25.7-25.7
		v-93.2C417.3,495.2,405.8,483.7,391.6,483.7z"/>
			<path clip-path="url(#SVGID_28_)" fill="#D0EAF1" d="M573.8,642.1H387.1c-39.7,0-71.9-21.9-71.9-48.9V263.9
		c0-27,32.2-48.9,71.9-48.9h186.7c39.7,0,71.9,21.9,71.9,48.9v329.2C645.8,620.2,613.6,642.1,573.8,642.1z"/>
			<path clip-path="url(#SVGID_28_)" fill="#CCC9E5" d="M607.8,607.7H353.1c-2.2,0-4-2.9-4-6.5l0,0c0-3.6,1.8-6.5,4-6.5h254.7
		c2.2,0,4,2.9,4,6.5l0,0C611.8,604.8,610,607.7,607.8,607.7z"/>
			<path clip-path="url(#SVGID_28_)" fill="#CCC9E5" d="M607.8,581.2H353.1c-2.2,0-4-2.9-4-6.5v0c0-3.6,1.8-6.5,4-6.5h254.7
		c2.2,0,4,2.9,4,6.5v0C611.8,578.3,610,581.2,607.8,581.2z"/>
			<path clip-path="url(#SVGID_28_)" fill="#CCC9E5" d="M607.8,553.9H353.1c-2.2,0-4-2.9-4-6.5v0c0-3.6,1.8-6.5,4-6.5h254.7
		c2.2,0,4,2.9,4,6.5v0C611.8,551,610,553.9,607.8,553.9z"/>
			<path clip-path="url(#SVGID_28_)" fill="#CCC9E5" d="M607.8,527.4H353.1c-2.2,0-4-2.9-4-6.5l0,0c0-3.6,1.8-6.5,4-6.5h254.7
		c2.2,0,4,2.9,4,6.5l0,0C611.8,524.5,610,527.4,607.8,527.4z"/>
			<path clip-path="url(#SVGID_28_)" fill="#CCC9E5" d="M607.8,499.3H353.1c-2.2,0-4-2.9-4-6.5l0,0c0-3.6,1.8-6.5,4-6.5h254.7
		c2.2,0,4,2.9,4,6.5l0,0C611.8,496.4,610,499.3,607.8,499.3z"/>
			<path clip-path="url(#SVGID_28_)" fill="#CCC9E5" d="M607.8,472.8H353.1c-2.2,0-4-2.9-4-6.5l0,0c0-3.6,1.8-6.5,4-6.5h254.7
		c2.2,0,4,2.9,4,6.5l0,0C611.8,469.9,610,472.8,607.8,472.8z"/>
			<path clip-path="url(#SVGID_28_)" fill="#CCC9E5" d="M607.8,445.5H353.1c-2.2,0-4-2.9-4-6.5l0,0c0-3.6,1.8-6.5,4-6.5h254.7
		c2.2,0,4,2.9,4,6.5l0,0C611.8,442.6,610,445.5,607.8,445.5z"/>
			<path clip-path="url(#SVGID_28_)" fill="#CCC9E5" d="M607.8,419H353.1c-2.2,0-4-2.9-4-6.5l0,0c0-3.6,1.8-6.5,4-6.5h254.7
		c2.2,0,4,2.9,4,6.5l0,0C611.8,416.1,610,419,607.8,419z"/>
			<path clip-path="url(#SVGID_28_)" fill="#CCC9E5" d="M607.8,391.7H353.1c-2.2,0-4-2.9-4-6.5l0,0c0-3.6,1.8-6.5,4-6.5h254.7
		c2.2,0,4,2.9,4,6.5l0,0C611.8,388.8,610,391.7,607.8,391.7z"/>
			<path clip-path="url(#SVGID_28_)" fill="#CCC9E5" d="M607.8,365.2H353.1c-2.2,0-4-2.9-4-6.5l0,0c0-3.6,1.8-6.5,4-6.5h254.7
		c2.2,0,4,2.9,4,6.5l0,0C611.8,362.3,610,365.2,607.8,365.2z"/>
			<path clip-path="url(#SVGID_28_)" fill="#CCC9E5" d="M607.8,337.9H353.1c-2.2,0-4-2.9-4-6.5l0,0c0-3.6,1.8-6.5,4-6.5h254.7
		c2.2,0,4,2.9,4,6.5l0,0C611.8,335,610,337.9,607.8,337.9z"/>
			<path clip-path="url(#SVGID_28_)" fill="#CCC9E5" d="M607.8,311.4H353.1c-2.2,0-4-2.9-4-6.5l0,0c0-3.6,1.8-6.5,4-6.5h254.7
		c2.2,0,4,2.9,4,6.5l0,0C611.8,308.5,610,311.4,607.8,311.4z"/>
			<path clip-path="url(#SVGID_28_)" fill="#CCC9E5" d="M607.8,283.8H353.1c-2.2,0-4-2.9-4-6.5l0,0c0-3.6,1.8-6.5,4-6.5h254.7
		c2.2,0,4,2.9,4,6.5l0,0C611.8,280.9,610,283.8,607.8,283.8z"/>
			<path clip-path="url(#SVGID_28_)" fill="#CCC9E5" d="M607.8,257.2H353.1c-2.2,0-4-2.9-4-6.5l0,0c0-3.6,1.8-6.5,4-6.5h254.7
		c2.2,0,4,2.9,4,6.5l0,0C611.8,254.3,610,257.2,607.8,257.2z"/>
			<path clip-path="url(#SVGID_28_)" fill="#FCF8CE" d="M27,107.8c0-50.1,40.6-90.7,90.7-90.7c50.1,0,90.7,40.6,90.7,90.7
		c0,50.1-40.6,90.7-90.7,90.7C67.6,198.6,27,157.9,27,107.8z"/>
			<path
				clip-path="url(#SVGID_28_)"
				fill="#D0EAF1"
				d="M109,198.1c-0.1-1.7-0.2-2.5-0.2-3.9c0-23.7,19.2-42.8,42.9-42.8
		c1.1,0,2,0.3,3,0.3c6.3-15.9,21.7-27.1,39.8-27.1c14.2,0,26.7,7,34.5,17.6c2.8-0.6,5.5-0.8,8.4-0.8c20.7,0,38,14.5,42,34
		c13.2,3.4,23.7,11.9,28,22.7H109z"/>
			<rect x="0.4" y="-2.2" clip-path="url(#SVGID_28_)" fill="none" width="625.7" height="625.8"/>
			<g clip-path="url(#SVGID_28_)">
				<defs>
					<rect id="SVGID_29_" x="0.4" y="-2.2" width="625.7" height="625.8"/>
				</defs>
				<clipPath id="SVGID_30_">
					<use xlink:href="#SVGID_29_" overflow="visible"/>
				</clipPath>
			</g>
		</g>
		<g>
			<defs>
				<rect id="SVGID_31_" x="-1799.3" y="0.2" width="625.7" height="625.8"/>
			</defs>
			<clipPath id="SVGID_32_">
				<use xlink:href="#SVGID_31_" overflow="visible"/>
			</clipPath>
			<rect x="-1799.3" y="0.2" clip-path="url(#SVGID_32_)" fill="#CCC9E5" width="625.7" height="625.8"/>
			<g clip-path="url(#SVGID_32_)">
				<path fill="#FCF8CE" d="M-1637.9,181.6c-13.2-6.5-11.1-12.3-11.1-18.7c-9,0-9,0-9,0s0,0-9,0c0,6.5,2.1,12.3-11.1,18.7
			c-13.2,6.4-15.7,64.5-15.7,64.5l35.8,22.4l35.8-22.4C-1622.2,246.1-1624.7,188.1-1637.9,181.6z"/>
				<path fill="#FCF8CE" d="M-1436.8,186.5c-13.2-6.5-11.1-12.3-11.1-18.7c-9,0-9,0-9,0s0,0-9,0c0,6.5,2.1,12.3-11.1,18.7
			c-13.2,6.5-15.7,64.5-15.7,64.5l35.8,22.4l35.8-22.4C-1421.1,251-1423.6,192.9-1436.8,186.5z"/>
				<path fill="#FCF8CE" d="M-1577.4,197.4c-6.9-6.1-14.2-6.1-21.1,0c-6.9,6.1-8.2,61-8.2,61l18.8,21.2l18.8-21.2
			C-1569.1,258.4-1570.5,203.5-1577.4,197.4z"/>
				<path fill="#FCF8CE" d="M-1510.9,195.1c-6.9-6.1-14.2-6.1-21.1,0c-6.9,6.1-8.2,61-8.2,61l18.8,21.2l18.8-21.2
			C-1502.6,256.1-1504,201.2-1510.9,195.1z"/>
				<path
					fill="#FCF8CE"
					d="M-1308.6,303.2c0,0-79.1-65.1-102.8-65.1c-18.5,0-36.7,21-45.7,21.4c-10.3,0.4-31.2-21.4-49.5-21.4
			c-19.2,0-38.1,21.7-46.4,22.1c-9.6,0.4-31.4-22.1-50.4-22.1c-19.3,0-38.4,21.9-46.6,22.2c-9.4,0.4-31.5-22.2-50.6-22.2
			c-23.7,0-98,64.8-98,64.8L-1308.6,303.2z"/>
				<path
					fill="#FCF8CE"
					d="M-1308.6,303.2c0,0-37.5-24.6-67.2-24.6c-23.2,0-45.8,21-57.1,21.4c-12.9,0.5-39-21.4-61.9-21.4
			c-24,0-47.6,21.7-58,22.1c-12,0.4-39.3-22.1-63-22.1c-24.2,0-48,21.9-58.2,22.2c-11.8,0.4-39.4-22.2-63.3-22.2
			c-29.6,0-61.2,24.4-61.2,24.4L-1308.6,303.2z"/>
				<rect x="-1798.6" y="302.9" fill="#FCF8CE" width="489.9" height="47.5"/>
				<rect x="-1798.6" y="350.4" fill="#FCF8CE" width="489.9" height="47.5"/>
				<path
					fill="#CCC9E5"
					d="M-1308.6,398.8c0,0-37.5-12.3-67.2-12.3c-23.2,0-45.8,10.5-57.1,10.7c-12.9,0.2-39-10.7-61.9-10.7
			c-24,0-47.6,10.8-58,11c-12,0.2-39.3-11-63-11c-24.2,0-48,10.9-58.2,11.1c-11.8,0.2-39.4-11.1-63.3-11.1
			c-29.6,0-61.2,12.2-61.2,12.2L-1308.6,398.8z"/>
				<rect x="-1798.6" y="398.6" fill="#FCF8CE" width="489.9" height="47.5"/>
				<rect x="-1798.6" y="446.8" fill="#FCF8CE" width="489.9" height="47.5"/>
				<path
					fill="#CCC9E5"
					d="M-1308.6,447c0,0-37.5-13-67.2-13c-23.2,0-45.8,11.1-57.1,11.3c-12.9,0.2-39-11.3-61.9-11.3
			c-24,0-47.6,11.4-58,11.6c-12,0.2-39.3-11.6-63-11.6c-24.2,0-48,11.5-58.2,11.7c-11.8,0.2-39.4-11.7-63.3-11.7
			c-29.6,0-61.2,12.9-61.2,12.9L-1308.6,447z"/>
				<path
					fill="#CCC9E5"
					d="M-1308.6,350.6c0,0-37.5-13-67.2-13c-23.2,0-45.8,11.1-57.1,11.3c-12.9,0.2-39-11.3-61.9-11.3
			c-24,0-47.6,11.5-58,11.7c-12,0.2-39.3-11.7-63-11.7c-24.2,0-48,11.5-58.2,11.7c-11.8,0.2-39.4-11.7-63.3-11.7
			c-29.6,0-61.2,12.9-61.2,12.9L-1308.6,350.6z"/>
				<path
					fill="#CCC9E5"
					d="M-1308.6,495.1c0,0-37.5-12.3-67.2-12.3c-23.2,0-45.8,10.5-57.1,10.7c-12.9,0.2-39-10.7-61.9-10.7
			c-24,0-47.6,10.9-58,11c-12,0.2-39.3-11-63-11c-24.2,0-48,10.9-58.2,11.1c-11.8,0.2-39.4-11.1-63.3-11.1
			c-29.6,0-61.2,12.2-61.2,12.2L-1308.6,495.1z"/>
				<rect x="-1798.6" y="494.9" fill="#FCF8CE" width="489.9" height="47.5"/>
				<rect x="-1798.6" y="542.3" fill="#FCF8CE" width="489.9" height="88"/>
				<path
					fill="#CCC9E5"
					d="M-1308.6,543.3c0,0-37.5-12.3-67.2-12.3c-23.2,0-45.8,10.5-57.1,10.7c-12.9,0.2-39-10.7-61.9-10.7
			c-24,0-47.6,10.8-58,11c-12,0.2-39.3-11-63-11c-24.2,0-48,10.9-58.2,11.1c-11.8,0.2-39.4-11.1-63.3-11.1
			c-29.6,0-61.2,12.2-61.2,12.2L-1308.6,543.3z"/>
				<path
					fill="#D0EAF1"
					d="M-1754.5,132.1c-0.2-2-0.2-3.1-0.2-4.7c0-28.6,23.2-51.6,51.7-51.6c1.3,0,2.4,0.4,3.6,0.4
			c7.6-19.1,26.1-32.7,48-32.7c17.1,0,32.1,8.4,41.5,21.3c3.3-0.7,6.7-1,10.1-1c25,0,45.8,17.4,50.6,41c16,4.1,28.6,14.4,33.7,27.4
			H-1754.5z"/>
				<path
					fill="#D0EAF1"
					d="M-1486.3,147.1c-0.1-2-0.2-2.4-0.2-3.6c0-21.3,17.3-38.6,38.6-38.6c0.9,0,1.8,0.2,2.7,0.3
			c5.6-14.3,19.5-24.4,35.8-24.4c12.8,0,24,6.3,31,15.9c2.5-0.5,5-0.8,7.5-0.8c18.7,0,34.2,13.1,37.8,30.7
			c11.9,3.1,21.4,10.5,25.2,20.5H-1486.3z"/>
				<rect x="-1266.3" y="290.6" fill-rule="evenodd" clip-rule="evenodd" fill="#FCF8CE" width="22.7" height="260.1"/>
				<path fill-rule="evenodd" clip-rule="evenodd" fill="#FCF8CE" d="M-1263.3,457.2l-77.2,163.2c-2.6,5.6,1.7,11.9,8.2,11.9h156.2
			c6.5,0,10.8-6.4,8.1-12l-79-163.2C-1250.2,450.5-1260.2,450.6-1263.3,457.2z"/>
				<path fill-rule="evenodd" clip-rule="evenodd" fill="#FCF8CE" d="M-1246,298.4h-17.2c-5.4,0-9.9-4.4-9.9-9.9V259
			c0-5.4,4.4-9.9,9.9-9.9h17.2c5.4,0,9.9,4.4,9.9,9.9v29.5C-1236.1,293.9-1240.5,298.4-1246,298.4z"/>
				<polygon fill="#FCF8CE" points="-1258.8,256.6 -1269.1,256.6 -1269.1,254.9 -1268.2,253.3 -1258.8,254.9 		"/>
				<polygon fill="#FCF8CE" points="-1251.1,256.3 -1240.8,256.9 -1240.7,255.2 -1241.5,253.5 -1251,254.6 		"/>
				<path
					fill="#FCF8CE"
					d="M-1243.8,199.4c-1.3-1.3-3.4-1.3-4.7,0c-1.3,1.3-1.3,3.4,0,4.7l0.7,0.7c1.7,1.7,3.3,3.4,4.9,5.1
			c1.6,1.7,3.2,3.4,4.7,5.2c0.4,0.4,0.7,0.9,1.1,1.3l0,0.1l-0.4,0.6c-1.2,1.8-2.7,3.7-4.1,5.5l-1.7,2.2l5.1,4.3l1.8-2.2
			c1.5-1.9,3-3.8,4.4-5.9l0.3-0.4l0.3-0.5c0.3-0.5,0.6-1,0.9-1.6c0.1-0.3,0.2-0.5,0.3-0.8c0.1-0.3,0.1-0.5,0.1-0.8l0-0.4l0-0.2
			c0-0.1,0-0.1,0-0.2c-0.1-0.3-0.1-0.5-0.2-0.8l-0.1-0.4c0-0.1-0.1-0.3-0.2-0.4c-0.1-0.2-0.3-0.5-0.4-0.7l-0.5-0.7
			c-0.1-0.1-0.2-0.2-0.3-0.4l-0.2-0.3c-0.4-0.5-0.8-1-1.2-1.5c-1.6-1.9-3.3-3.6-4.9-5.4c-1.7-1.7-3.3-3.5-5-5.2L-1243.8,199.4z"/>
				<path fill="#FCF8CE" d="M-1293.9,191.6c0.4,0.1,16.9,4.3,17.4,4.4c1.9,0.5,3.8,1,5.7,1.4c1.9,0.4,3.9,0.8,5.8,1.2l0.8,0.2
			c1.5,0.3,2.6,2,2.3,3.8c-0.2,1.8-1.7,3.1-3.2,2.8l-0.8-0.2c-2-0.4-3.9-0.8-5.9-1.2c-2-0.4-19.9-4.9-22-5.4"/>
				<path fill="#FCF8CE" d="M-1246,198.3c-2.2-0.5-5.6-1.1-9.1-1.1c-3.5,0-6.9,0.6-9.1,1.1c-1.4,0.3-2.5,1.8-2.5,3.2v23.4h23.1v-23.4
			C-1243.5,200.1-1244.6,198.6-1246,198.3z"/>
				<path fill="#FCF8CE" d="M-1248.4,197.8c-1.9-0.3-4.3-0.6-6.7-0.6c-2.4,0-4.8,0.3-6.7,0.6l6.3,1.8c0.1,0.1,0.2,0.2,0.4,0.2l0,0
			c0.2,0,0.3-0.1,0.4-0.2L-1248.4,197.8z"/>
				<path fill="#FCF8CE" d="M-1250.3,195l0.4,2.6c0,0-2.2,2.7-5.1,2.7c-2.9,0-5.1-2.7-5.1-2.7l0.4-2.6H-1250.3z"/>
				<path fill="#FCF8CE" d="M-1241.5,253.5l-2-28.6h-23.1l-1.6,28.4l9.4,1.6l1.4-23c0.1-1,0.9-1.7,1.8-1.7h1.3c0.9,0,1.8,0.8,1.8,1.7
			l1.5,23L-1241.5,253.5z"/>
				<path fill="#FCF8CE" d="M-1238.4,229.3l0.3-0.4l-5.1-4.3l-0.3,0.4c-1.1,1.4-1,3.5,0.4,4.7
			C-1241.7,230.9-1239.6,230.7-1238.4,229.3z"/>
				<path fill="#FCF8CE" d="M-1293.1,191.8l0.4,0.1l-0.8,6.7l-0.4-0.1c-1.6-0.2-2.7-1.9-2.4-3.8
			C-1296.1,192.8-1294.6,191.6-1293.1,191.8z"/>
				<path fill="#FCF8CE" d="M-1266.8,225"/>
				<path fill="#FCF8CE" d="M-1293.9,191.8c-0.1,0.6,0.2,1.1,0.5,1.2c0.4,0,0.7-0.4,0.8-1c0.1-0.6-0.2-1.1-0.5-1.2
			C-1293.5,190.8-1293.9,191.2-1293.9,191.8z"/>
				<path fill="#FCF8CE" d="M-1244,225.9c0.5,0.4,1.1,0.4,1.3,0.1c0.2-0.3,0.1-0.9-0.4-1.3c-0.5-0.4-1.1-0.4-1.3-0.1
			C-1244.7,224.9-1244.5,225.5-1244,225.9z"/>
				<ellipse fill="#FCF8CE" cx="-1238.8" cy="180" rx="3" ry="3.9"/>
				<ellipse fill="#FCF8CE" cx="-1271.4" cy="180" rx="3" ry="3.9"/>
				<path fill="#FCF8CE" d="M-1258,196.3c-7.3,0-13.2-6-13.2-13.4v-14.2c0-7.4,5.9-13.4,13.2-13.4h3.2v41H-1258z"/>
				<path fill="#FCF8CE" d="M-1252.2,196.3c7.3,0,13.2-6,13.2-13.4v-14.2c0-7.4-5.9-13.4-13.2-13.4h-2.9v41H-1252.2z"/>
				<path
					id="pelo_4_4_"
					fill="#FCF8CE"
					d="M-1237.1,160.6c2.6-2.6,4.9-7.1,3.8-10.6c0-0.2-0.3-0.3-0.5-0.2c-2.4,1.5-5,2.6-7.9,3.2
			c-3.2,0.6-6.5,0.3-9.8,0.1c-5.7-0.3-11.7-0.3-16.3,3c-3.9,2.8-5,8.7-3.8,12.8c0,0.1,0,0.1,0.1,0.2c0.1,0.1,0.2,0.1,0.3,0.1
			c0.1,0,0.1,0,0.2-0.1c0,0,0,0,0,0c0,0,0,0,0,0c0,0,0,0,0,0c0,0,0,0,0,0c0.7-1.9,1.7-4.7,3.8-5.8c1.6-0.8,3.7-0.7,5.5-0.5
			c4.1,0.6,7.8,2,12,2.3c2.3,0.2,4.7-0.1,6.9-0.8c0.6-0.2,1.1-0.4,1.6-0.7c0.1,0.2,0.2,0.3,0.2,0.5c0.6,1.3,1,3.5,1.6,4.8
			c0.1,0.3,0.5,0.3,0.6,0c0.9-2,1-5.1,0.3-7.1C-1237.9,161.4-1237.5,161-1237.1,160.6z"/>
				<rect x="-1799.4" y="-0.2" fill="none" width="625.7" height="625.8"/>
				<path fill="#CCC9E5" d="M-1529.2,625.5v-35.6c0-11.1,16.4-20.1,36.6-20.1l0,0c20.2,0,36.6,9,36.6,20.1v35.6L-1529.2,625.5z"/>
				<path fill="#CCC9E5" d="M-1410.3,625.5v-35.6c0-11.1,16.4-20.1,36.6-20.1l0,0c20.2,0,36.6,9,36.6,20.1v35.6L-1410.3,625.5z"/>
				<path fill="#CCC9E5" d="M-1772.8,625.5v-35.6c0-11.1,16.4-20.1,36.6-20.1l0,0c20.2,0,36.6,9,36.6,20.1v35.6L-1772.8,625.5z"/>
				<path fill="#CCC9E5" d="M-1653.9,625.5v-35.6c0-11.1,16.4-20.1,36.6-20.1l0,0c20.2,0,36.6,9,36.6,20.1v35.6L-1653.9,625.5z"/>
			</g>
		</g>
	</g>
</svg>
