<?xml version="1.0" encoding="utf-8"?>
<!-- Generator: Adobe Illustrator 18.1.0, SVG Export Plug-In . SVG Version: 6.00 Build 0)  -->
<svg version="1.1" id="Capa_1" xmlns="http://www.w3.org/2000/svg" xmlns:xlink="http://www.w3.org/1999/xlink" x="0px" y="0px" viewBox="0 0 626 626" enable-background="new 0 0 626 626" xml:space="preserve">
	<g>
		<defs>
			<rect id="SVGID_31_" x="0.3" y="0.2" width="625.7" height="625.8"/>
		</defs>
		<clipPath id="SVGID_2_">
			<use xlink:href="#SVGID_31_" overflow="visible"/>
		</clipPath>
		<rect x="0.3" y="0.2" clip-path="url(#SVGID_2_)" fill="#CCC9E5" width="625.7" height="625.8"/>
		<g clip-path="url(#SVGID_2_)">
			<path fill="#FCF8CE" d="M161.7,181.6c-13.2-6.5-11.1-12.3-11.1-18.7c-9,0-9,0-9,0s0,0-9,0c0,6.5,2.1,12.3-11.1,18.7
			c-13.2,6.4-15.7,64.5-15.7,64.5l35.8,22.4l35.8-22.4C177.3,246.1,174.8,188.1,161.7,181.6z"/>
			<path fill="#FCF8CE" d="M362.8,186.5c-13.2-6.5-11.1-12.3-11.1-18.7c-9,0-9,0-9,0s0,0-9,0c0,6.5,2.1,12.3-11.1,18.7
			c-13.2,6.5-15.7,64.5-15.7,64.5l35.8,22.4l35.8-22.4C378.4,251,375.9,192.9,362.8,186.5z"/>
			<path fill="#FCF8CE" d="M222.2,197.4c-6.9-6.1-14.2-6.1-21.1,0c-6.9,6.1-8.2,61-8.2,61l18.8,21.2l18.8-21.2
			C230.4,258.4,229.1,203.5,222.2,197.4z"/>
			<path fill="#FCF8CE" d="M288.7,195.1c-6.9-6.1-14.2-6.1-21.1,0c-6.9,6.1-8.2,61-8.2,61l18.8,21.2l18.8-21.2
			C296.9,256.1,295.6,201.2,288.7,195.1z"/>
			<path
				fill="#FCF8CE"
				d="M490.9,303.2c0,0-79.1-65.1-102.8-65.1c-18.5,0-36.7,21-45.7,21.4c-10.3,0.4-31.2-21.4-49.5-21.4
			c-19.2,0-38.1,21.7-46.4,22.1c-9.6,0.4-31.4-22.1-50.4-22.1c-19.3,0-38.4,21.9-46.6,22.2c-9.4,0.4-31.5-22.2-50.6-22.2
			c-23.7,0-98,64.8-98,64.8L490.9,303.2z"/>
			<path
				fill="#FCF8CE"
				d="M490.9,303.2c0,0-37.5-24.6-67.2-24.6c-23.2,0-45.8,21-57.1,21.4c-12.9,0.5-39-21.4-61.9-21.4
			c-24,0-47.6,21.7-58,22.1c-12,0.4-39.3-22.1-63-22.1c-24.2,0-48,21.9-58.2,22.2c-11.8,0.4-39.4-22.2-63.3-22.2
			C32.6,278.5,1,302.9,1,302.9L490.9,303.2z"/>
			<rect x="1" y="302.9" fill="#FCF8CE" width="489.9" height="47.5"/>
			<rect x="1" y="350.4" fill="#FCF8CE" width="489.9" height="47.5"/>
			<path
				fill="#CCC9E5"
				d="M490.9,398.8c0,0-37.5-12.3-67.2-12.3c-23.2,0-45.8,10.5-57.1,10.7c-12.9,0.2-39-10.7-61.9-10.7
			c-24,0-47.6,10.8-58,11c-12,0.2-39.3-11-63-11c-24.2,0-48,10.9-58.2,11.1c-11.8,0.2-39.4-11.1-63.3-11.1
			C32.6,386.5,1,398.7,1,398.7L490.9,398.8z"/>
			<rect x="1" y="398.6" fill="#FCF8CE" width="489.9" height="47.5"/>
			<rect x="1" y="446.8" fill="#FCF8CE" width="489.9" height="47.5"/>
			<path
				fill="#CCC9E5"
				d="M490.9,447c0,0-37.5-13-67.2-13c-23.2,0-45.8,11.1-57.1,11.3c-12.9,0.2-39-11.3-61.9-11.3
			c-24,0-47.6,11.4-58,11.6c-12,0.2-39.3-11.6-63-11.6c-24.2,0-48,11.5-58.2,11.7c-11.8,0.2-39.4-11.7-63.3-11.7
			C32.6,434,1,446.9,1,446.9L490.9,447z"/>
			<path
				fill="#CCC9E5"
				d="M490.9,350.6c0,0-37.5-13-67.2-13c-23.2,0-45.8,11.1-57.1,11.3c-12.9,0.2-39-11.3-61.9-11.3
			c-24,0-47.6,11.5-58,11.7c-12,0.2-39.3-11.7-63-11.7c-24.2,0-48,11.5-58.2,11.7c-11.8,0.2-39.4-11.7-63.3-11.7
			C32.6,337.6,1,350.5,1,350.5L490.9,350.6z"/>
			<path
				fill="#CCC9E5"
				d="M490.9,495.1c0,0-37.5-12.3-67.2-12.3c-23.2,0-45.8,10.5-57.1,10.7c-12.9,0.2-39-10.7-61.9-10.7
			c-24,0-47.6,10.9-58,11c-12,0.2-39.3-11-63-11c-24.2,0-48,10.9-58.2,11.1c-11.8,0.2-39.4-11.1-63.3-11.1C32.6,482.8,1,495,1,495
			L490.9,495.1z"/>
			<rect x="1" y="494.9" fill="#FCF8CE" width="489.9" height="47.5"/>
			<rect x="1" y="542.3" fill="#FCF8CE" width="489.9" height="88"/>
			<path
				fill="#CCC9E5"
				d="M490.9,543.3c0,0-37.5-12.3-67.2-12.3c-23.2,0-45.8,10.5-57.1,10.7c-12.9,0.2-39-10.7-61.9-10.7
			c-24,0-47.6,10.8-58,11c-12,0.2-39.3-11-63-11c-24.2,0-48,10.9-58.2,11.1c-11.8,0.2-39.4-11.1-63.3-11.1C32.6,531,1,543.2,1,543.2
			L490.9,543.3z"/>
			<path fill="#D0EAF1" d="M45,132.1c-0.2-2-0.2-3.1-0.2-4.7c0-28.6,23.2-51.6,51.7-51.6c1.3,0,2.4,0.4,3.6,0.4
			c7.6-19.1,26.1-32.7,48-32.7c17.1,0,32.1,8.4,41.5,21.3c3.3-0.7,6.7-1,10.1-1c25,0,45.8,17.4,50.6,41c16,4.1,28.6,14.4,33.7,27.4
			H45z"/>
			<path
				fill="#D0EAF1"
				d="M313.2,147.1c-0.1-2-0.2-2.4-0.2-3.6c0-21.3,17.3-38.6,38.6-38.6c0.9,0,1.8,0.2,2.7,0.3
			c5.6-14.3,19.5-24.4,35.8-24.4c12.8,0,24,6.3,31,15.9c2.5-0.5,5-0.8,7.5-0.8c18.7,0,34.2,13.1,37.8,30.7
			c11.9,3.1,21.4,10.5,25.2,20.5H313.2z"/>
			<rect x="533.3" y="290.6" fill-rule="evenodd" clip-rule="evenodd" fill="#FCF8CE" width="22.7" height="260.1"/>
			<path fill-rule="evenodd" clip-rule="evenodd" fill="#FCF8CE" d="M536.3,457.2L459,620.4c-2.6,5.6,1.7,11.9,8.2,11.9h156.2
			c6.5,0,10.8-6.4,8.1-12l-79-163.2C549.3,450.5,539.4,450.6,536.3,457.2z"/>
			<path fill-rule="evenodd" clip-rule="evenodd" fill="#FCF8CE" d="M553.6,298.4h-17.2c-5.4,0-9.9-4.4-9.9-9.9V259
			c0-5.4,4.4-9.9,9.9-9.9h17.2c5.4,0,9.9,4.4,9.9,9.9v29.5C563.4,293.9,559,298.4,553.6,298.4z"/>
			<polygon fill="#FCF8CE" points="540.7,256.6 530.4,256.6 530.4,254.9 531.3,253.3 540.7,254.9 		"/>
			<polygon fill="#FCF8CE" points="548.4,256.3 558.7,256.9 558.8,255.2 558,253.5 548.5,254.6 		"/>
			<path
				fill="#FCF8CE"
				d="M555.8,199.4c-1.3-1.3-3.4-1.3-4.7,0c-1.3,1.3-1.3,3.4,0,4.7l0.7,0.7c1.7,1.7,3.3,3.4,4.9,5.1
			c1.6,1.7,3.2,3.4,4.7,5.2c0.4,0.4,0.7,0.9,1.1,1.3l0,0.1l-0.4,0.6c-1.2,1.8-2.7,3.7-4.1,5.5l-1.7,2.2l5.1,4.3l1.8-2.2
			c1.5-1.9,3-3.8,4.4-5.9l0.3-0.4l0.3-0.5c0.3-0.5,0.6-1,0.9-1.6c0.1-0.3,0.2-0.5,0.3-0.8c0.1-0.3,0.1-0.5,0.1-0.8l0-0.4l0-0.2
			c0-0.1,0-0.1,0-0.2c-0.1-0.3-0.1-0.5-0.2-0.8l-0.1-0.4c0-0.1-0.1-0.3-0.2-0.4c-0.1-0.2-0.3-0.5-0.4-0.7l-0.5-0.7
			c-0.1-0.1-0.2-0.2-0.3-0.4l-0.2-0.3c-0.4-0.5-0.8-1-1.2-1.5c-1.6-1.9-3.3-3.6-4.9-5.4c-1.7-1.7-3.3-3.5-5-5.2L555.8,199.4z"/>
			<path fill="#FCF8CE" d="M505.7,191.6c0.4,0.1,16.9,4.3,17.4,4.4c1.9,0.5,3.8,1,5.7,1.4c1.9,0.4,3.9,0.8,5.8,1.2l0.8,0.2
			c1.5,0.3,2.6,2,2.3,3.8c-0.2,1.8-1.7,3.1-3.2,2.8l-0.8-0.2c-2-0.4-3.9-0.8-5.9-1.2c-2-0.4-19.9-4.9-22-5.4"/>
			<path fill="#FCF8CE" d="M553.5,198.3c-2.2-0.5-5.6-1.1-9.1-1.1c-3.5,0-6.9,0.6-9.1,1.1c-1.4,0.3-2.5,1.8-2.5,3.2v23.4H556v-23.4
			C556,200.1,554.9,198.6,553.5,198.3z"/>
			<path fill="#FCF8CE" d="M551.2,197.8c-1.9-0.3-4.3-0.6-6.7-0.6c-2.4,0-4.8,0.3-6.7,0.6l6.3,1.8c0.1,0.1,0.2,0.2,0.4,0.2l0,0
			c0.2,0,0.3-0.1,0.4-0.2L551.2,197.8z"/>
			<path fill="#FCF8CE" d="M549.2,195l0.4,2.6c0,0-2.2,2.7-5.1,2.7c-2.9,0-5.1-2.7-5.1-2.7l0.4-2.6H549.2z"/>
			<path fill="#FCF8CE" d="M558,253.5l-2-28.6h-23.1l-1.6,28.4l9.4,1.6l1.4-23c0.1-1,0.9-1.7,1.8-1.7h1.3c0.9,0,1.8,0.8,1.8,1.7
			l1.5,23L558,253.5z"/>
			<path fill="#FCF8CE" d="M561.1,229.3l0.3-0.4l-5.1-4.3L556,225c-1.1,1.4-1,3.5,0.4,4.7C557.8,230.9,559.9,230.7,561.1,229.3z"/>
			<path fill="#FCF8CE" d="M506.5,191.8l0.4,0.1l-0.8,6.7l-0.4-0.1c-1.6-0.2-2.7-1.9-2.4-3.8C503.5,192.8,504.9,191.6,506.5,191.8z"/>
			<path fill="#FCF8CE" d="M532.8,225"/>
			<path fill="#FCF8CE" d="M505.6,191.8c-0.1,0.6,0.2,1.1,0.5,1.2c0.4,0,0.7-0.4,0.8-1c0.1-0.6-0.2-1.1-0.5-1.2
			C506,190.8,505.7,191.2,505.6,191.8z"/>
			<path fill="#FCF8CE" d="M555.5,225.9c0.5,0.4,1.1,0.4,1.3,0.1c0.2-0.3,0.1-0.9-0.4-1.3c-0.5-0.4-1.1-0.4-1.3-0.1
			C554.8,224.9,555,225.5,555.5,225.9z"/>
			<ellipse fill="#FCF8CE" cx="560.8" cy="180" rx="3" ry="3.9"/>
			<ellipse fill="#FCF8CE" cx="528.1" cy="180" rx="3" ry="3.9"/>
			<path fill="#FCF8CE" d="M541.6,196.3c-7.3,0-13.2-6-13.2-13.4v-14.2c0-7.4,5.9-13.4,13.2-13.4h3.2v41H541.6z"/>
			<path fill="#FCF8CE" d="M547.3,196.3c7.3,0,13.2-6,13.2-13.4v-14.2c0-7.4-5.9-13.4-13.2-13.4h-2.9v41H547.3z"/>
			<path
				id="pelo_4_4_"
				fill="#FCF8CE"
				d="M562.4,160.6c2.6-2.6,4.9-7.1,3.8-10.6c0-0.2-0.3-0.3-0.5-0.2c-2.4,1.5-5,2.6-7.9,3.2
			c-3.2,0.6-6.5,0.3-9.8,0.1c-5.7-0.3-11.7-0.3-16.3,3c-3.9,2.8-5,8.7-3.8,12.8c0,0.1,0,0.1,0.1,0.2c0.1,0.1,0.2,0.1,0.3,0.1
			c0.1,0,0.1,0,0.2-0.1c0,0,0,0,0,0c0,0,0,0,0,0c0,0,0,0,0,0c0,0,0,0,0,0c0.7-1.9,1.7-4.7,3.8-5.8c1.6-0.8,3.7-0.7,5.5-0.5
			c4.1,0.6,7.8,2,12,2.3c2.3,0.2,4.7-0.1,6.9-0.8c0.6-0.2,1.1-0.4,1.6-0.7c0.1,0.2,0.2,0.3,0.2,0.5c0.6,1.3,1,3.5,1.6,4.8
			c0.1,0.3,0.5,0.3,0.6,0c0.9-2,1-5.1,0.3-7.1C561.6,161.4,562,161,562.4,160.6z"/>
			<rect x="0.1" y="-0.2" fill="none" width="625.7" height="625.8"/>
			<path fill="#CCC9E5" d="M270.3,625.5v-35.6c0-11.1,16.4-20.1,36.6-20.1l0,0c20.2,0,36.6,9,36.6,20.1v35.6L270.3,625.5z"/>
			<path fill="#CCC9E5" d="M389.3,625.5v-35.6c0-11.1,16.4-20.1,36.6-20.1l0,0c20.2,0,36.6,9,36.6,20.1v35.6L389.3,625.5z"/>
			<path fill="#CCC9E5" d="M26.7,625.5v-35.6c0-11.1,16.4-20.1,36.6-20.1l0,0c20.2,0,36.6,9,36.6,20.1v35.6L26.7,625.5z"/>
			<path fill="#CCC9E5" d="M145.7,625.5v-35.6c0-11.1,16.4-20.1,36.6-20.1l0,0c20.2,0,36.6,9,36.6,20.1v35.6L145.7,625.5z"/>
		</g>
	</g>
</svg>
