<?xml version="1.0" encoding="utf-8"?>
<!-- Generator: Adobe Illustrator 18.1.0, SVG Export Plug-In . SVG Version: 6.00 Build 0)  -->
<svg version="1.1" id="Capa_1" xmlns="http://www.w3.org/2000/svg" xmlns:xlink="http://www.w3.org/1999/xlink" x="0px" y="0px" viewBox="0 0 626 626" enable-background="new 0 0 626 626" xml:space="preserve">

	<g>
		<rect x="0" y="0" fill="#CEE4C3" width="626" height="626"/>
		<path fill="#D0EAF1" d="M356.9,207.4c-0.1-0.9-0.2-2.2-0.2-3.5c0-22.2,18-40,40.2-40c1,0,1.9,0.3,2.8,0.4
	c5.9-14.9,20.3-25.4,37.3-25.4c13.3,0,25,6.6,32.3,16.5c2.6-0.5,5.2-0.8,7.9-0.8c19.4,0,35.6,13.3,39.3,31.6
	c12.4,3.2,22.2,11,26.2,21.1H356.9z"/>
		<rect x="64.4" y="173.8" fill="#9ACDCD" width="140.9" height="56"/>
		<rect x="30" y="229.5" fill="#9ACDCD" width="209.5" height="396.5"/>
		<rect x="30" y="289.3" fill="#CEE4C3" width="209.5" height="9.7"/>
		<rect x="30" y="353.2" fill="#CEE4C3" width="209.5" height="9.8"/>
		<rect x="30" y="418.3" fill="#CEE4C3" width="209.5" height="9.7"/>
		<rect x="30" y="483.6" fill="#CEE4C3" width="209.5" height="9.7"/>
		<rect x="30" y="549.4" fill="#CEE4C3" width="209.5" height="9.7"/>
		<rect x="92.1" y="228.4" fill="#CEE4C3" width="9.7" height="397.6"/>
		<rect x="167.7" y="228.4" fill="#CEE4C3" width="9.8" height="397.6"/>
		<polygon fill="#CEE4C3" points="98.8,235.3 36.9,297.2 30,297.2 30,290.3 91.9,228.4 "/>
		<polygon fill="#CEE4C3" points="98.8,298.3 36.9,360.2 30,360.2 30,353.3 91.9,291.4 "/>
		<polygon fill="#CEE4C3" points="98.8,362.7 36.9,424.6 30,424.6 30,417.7 91.9,355.8 "/>
		<polygon fill="#CEE4C3" points="98.8,431.4 36.9,493.3 30,493.3 30,486.4 91.9,424.6 "/>
		<polygon fill="#CEE4C3" points="98.8,495.4 36.9,557.2 30,557.2 30,550.3 91.9,488.5 "/>
		<polygon fill="#CEE4C3" points="98.8,564.1 36.9,626 30,626 30,619.1 91.9,557.2 "/>
		<polygon fill="#CEE4C3" points="170.9,235.3 232.8,297.2 239.7,297.2 239.7,290.3 177.8,228.4 "/>
		<polygon fill="#CEE4C3" points="170.9,298.3 232.8,360.2 239.7,360.2 239.7,353.3 177.8,291.4 "/>
		<polygon fill="#CEE4C3" points="170.9,362.7 232.8,424.6 239.7,424.6 239.7,417.7 177.8,355.8 "/>
		<polygon fill="#CEE4C3" points="170.9,431.4 232.8,493.3 239.7,493.3 239.7,486.4 177.8,424.6 "/>
		<polygon fill="#CEE4C3" points="170.9,495.4 232.8,557.2 239.7,557.2 239.7,550.3 177.8,488.5 "/>
		<polygon fill="#CEE4C3" points="170.9,564.1 232.8,626 239.7,626 239.7,619.1 177.8,557.2 "/>
		<rect x="434.9" y="161.7" fill="#9ACDCD" width="140.9" height="56"/>
		<polygon fill-rule="evenodd" clip-rule="evenodd" fill="#9ACDCD" points="412.5,216.3 598.2,216.3 598.2,626 412.5,626 412.5,216.3
	"/>
		<polygon fill-rule="evenodd" clip-rule="evenodd" fill="#CEE4C3" points="420.4,245.9 420.4,256.1 590.3,256.1 590.3,245.9
	420.4,245.9 "/>
		<polygon fill-rule="evenodd" clip-rule="evenodd" fill="#CEE4C3" points="420.4,268.1 420.4,278.3 590.3,278.3 590.3,268.1
	420.4,268.1 "/>
		<polygon fill-rule="evenodd" clip-rule="evenodd" fill="#CEE4C3" points="420.4,290.2 420.4,300.4 590.3,300.4 590.3,290.2
	420.4,290.2 "/>
		<polygon fill-rule="evenodd" clip-rule="evenodd" fill="#CEE4C3" points="420.4,312.4 420.4,322.6 590.3,322.6 590.3,312.4
	420.4,312.4 "/>
		<polygon fill-rule="evenodd" clip-rule="evenodd" fill="#CEE4C3" points="420.4,334.5 420.4,344.7 590.3,344.7 590.3,334.5
	420.4,334.5 "/>
		<polygon fill-rule="evenodd" clip-rule="evenodd" fill="#CEE4C3" points="420.4,356.6 420.4,366.9 590.3,366.9 590.3,356.6
	420.4,356.6 "/>
		<polygon fill-rule="evenodd" clip-rule="evenodd" fill="#CEE4C3" points="420.4,378.8 420.4,389 590.3,389 590.3,378.8 420.4,378.8
	"/>
		<polygon fill-rule="evenodd" clip-rule="evenodd" fill="#CEE4C3" points="420.4,400.9 420.4,411.2 590.3,411.2 590.3,400.9
	420.4,400.9 "/>
		<polygon fill-rule="evenodd" clip-rule="evenodd" fill="#CEE4C3" points="420.4,423.1 420.4,433.3 590.3,433.3 590.3,423.1
	420.4,423.1 "/>
		<polygon fill-rule="evenodd" clip-rule="evenodd" fill="#CEE4C3" points="420.4,445.2 420.4,455.5 590.3,455.5 590.3,445.2
	420.4,445.2 "/>
		<polygon fill-rule="evenodd" clip-rule="evenodd" fill="#CEE4C3" points="420.4,467.4 420.4,477.6 590.3,477.6 590.3,467.4
	420.4,467.4 "/>
		<polygon fill-rule="evenodd" clip-rule="evenodd" fill="#CEE4C3" points="420.4,489.5 420.4,499.8 590.3,499.8 590.3,489.5
	420.4,489.5 "/>
		<polygon fill-rule="evenodd" clip-rule="evenodd" fill="#CEE4C3" points="420.4,511.7 420.4,521.9 590.3,521.9 590.3,511.7
	420.4,511.7 "/>
		<polygon fill-rule="evenodd" clip-rule="evenodd" fill="#CEE4C3" points="420.4,533.8 420.4,544.1 590.3,544.1 590.3,533.8
	420.4,533.8 "/>
		<polygon fill-rule="evenodd" clip-rule="evenodd" fill="#CEE4C3" points="420.4,556 420.4,566.2 590.3,566.2 590.3,556 420.4,556
	"/>
		<polygon fill-rule="evenodd" clip-rule="evenodd" fill="#CEE4C3" points="420.4,578.1 420.4,588.4 590.3,588.4 590.3,578.1
	420.4,578.1 "/>
		<rect x="420.4" y="600.3" fill-rule="evenodd" clip-rule="evenodd" fill="#CEE4C3" width="169.9" height="10.2"/>
		<path fill="#D0EAF1" d="M48.3,146.4c-0.2-2-0.2-3.1-0.2-4.7c0-28.6,23.2-51.6,51.7-51.6c1.3,0,2.4,0.4,3.6,0.4
	c7.6-19.1,26.1-32.7,48-32.7c17.1,0,32.1,8.4,41.5,21.3c3.3-0.7,6.7-1,10.1-1c25,0,45.8,17.4,50.6,41c16,4.1,28.6,14.4,33.7,27.4
	H48.3z"/>
		<g>
			<defs>
				<rect id="SVGID_3_" x="0.4" y="-1.9" width="625.8" height="625.8"/>
			</defs>
			<clipPath id="SVGID_2_">
				<use xlink:href="#SVGID_3_" overflow="visible"/>
			</clipPath>
		</g>
		<rect x="0.4" y="-1.9" fill="none" width="625.7" height="625.8"/>
	</g>
</svg>
