<?xml version="1.0" encoding="utf-8"?>
<!-- Generator: Adobe Illustrator 18.1.0, SVG Export Plug-In . SVG Version: 6.00 Build 0)  -->
<svg version="1.1" id="Capa_1" xmlns="http://www.w3.org/2000/svg" xmlns:xlink="http://www.w3.org/1999/xlink" x="0px" y="0px" viewBox="0 0 626 626" enable-background="new 0 0 626 626" xml:space="preserve">
	<g>
		<defs>
			<rect id="SVGID_23_" x="0.3" y="0.2" width="625.7" height="625.8"/>
		</defs>
		<clipPath id="SVGID_2_">
			<use xlink:href="#SVGID_23_" overflow="visible"/>
		</clipPath>
		<rect x="0.3" y="0.2" clip-path="url(#SVGID_2_)" fill="#CEE4C3" width="625.7" height="625.8"/>
		<path
			clip-path="url(#SVGID_2_)"
			fill="#9ACDCD"
			d="M391.6,483.7H24.4c-14.2,0-25.7,11.5-25.7,25.7v93.2
		c0,14.2,11.5,25.7,25.7,25.7H33v-63.5c0-26.6,20.4-48.1,45.5-48.1s45.5,21.5,45.5,48.1v63.5h38.5v-63.4c0-26.6,20.4-48.1,45.5-48.1
		c25.1,0,45.5,21.5,45.5,48.1v63.4h41.1v-63.5c0-26.6,20.4-48.1,45.5-48.1s45.5,21.5,45.5,48.1v63.5h5.9c14.2,0,25.7-11.5,25.7-25.7
		v-93.2C417.3,495.2,405.8,483.7,391.6,483.7z"/>
		<path clip-path="url(#SVGID_2_)" fill="#9ACDCD" d="M573.8,642.1H387.1c-39.7,0-71.9-21.9-71.9-48.9V263.9
		c0-27,32.2-48.9,71.9-48.9h186.7c39.7,0,71.9,21.9,71.9,48.9v329.2C645.8,620.2,613.6,642.1,573.8,642.1z"/>
		<path clip-path="url(#SVGID_2_)" fill="#CEE4C3" d="M607.8,607.7H353.1c-2.2,0-4-2.9-4-6.5l0,0c0-3.6,1.8-6.5,4-6.5h254.7
		c2.2,0,4,2.9,4,6.5l0,0C611.8,604.8,610,607.7,607.8,607.7z"/>
		<path clip-path="url(#SVGID_2_)" fill="#CEE4C3" d="M607.8,581.2H353.1c-2.2,0-4-2.9-4-6.5v0c0-3.6,1.8-6.5,4-6.5h254.7
		c2.2,0,4,2.9,4,6.5v0C611.8,578.3,610,581.2,607.8,581.2z"/>
		<path clip-path="url(#SVGID_2_)" fill="#CEE4C3" d="M607.8,553.9H353.1c-2.2,0-4-2.9-4-6.5v0c0-3.6,1.8-6.5,4-6.5h254.7
		c2.2,0,4,2.9,4,6.5v0C611.8,551,610,553.9,607.8,553.9z"/>
		<path clip-path="url(#SVGID_2_)" fill="#CEE4C3" d="M607.8,527.4H353.1c-2.2,0-4-2.9-4-6.5l0,0c0-3.6,1.8-6.5,4-6.5h254.7
		c2.2,0,4,2.9,4,6.5l0,0C611.8,524.5,610,527.4,607.8,527.4z"/>
		<path clip-path="url(#SVGID_2_)" fill="#CEE4C3" d="M607.8,499.3H353.1c-2.2,0-4-2.9-4-6.5l0,0c0-3.6,1.8-6.5,4-6.5h254.7
		c2.2,0,4,2.9,4,6.5l0,0C611.8,496.4,610,499.3,607.8,499.3z"/>
		<path clip-path="url(#SVGID_2_)" fill="#CEE4C3" d="M607.8,472.8H353.1c-2.2,0-4-2.9-4-6.5l0,0c0-3.6,1.8-6.5,4-6.5h254.7
		c2.2,0,4,2.9,4,6.5l0,0C611.8,469.9,610,472.8,607.8,472.8z"/>
		<path clip-path="url(#SVGID_2_)" fill="#CEE4C3" d="M607.8,445.5H353.1c-2.2,0-4-2.9-4-6.5l0,0c0-3.6,1.8-6.5,4-6.5h254.7
		c2.2,0,4,2.9,4,6.5l0,0C611.8,442.6,610,445.5,607.8,445.5z"/>
		<path clip-path="url(#SVGID_2_)" fill="#CEE4C3" d="M607.8,419H353.1c-2.2,0-4-2.9-4-6.5l0,0c0-3.6,1.8-6.5,4-6.5h254.7
		c2.2,0,4,2.9,4,6.5l0,0C611.8,416.1,610,419,607.8,419z"/>
		<path clip-path="url(#SVGID_2_)" fill="#CEE4C3" d="M607.8,391.7H353.1c-2.2,0-4-2.9-4-6.5l0,0c0-3.6,1.8-6.5,4-6.5h254.7
		c2.2,0,4,2.9,4,6.5l0,0C611.8,388.8,610,391.7,607.8,391.7z"/>
		<path clip-path="url(#SVGID_2_)" fill="#CEE4C3" d="M607.8,365.2H353.1c-2.2,0-4-2.9-4-6.5l0,0c0-3.6,1.8-6.5,4-6.5h254.7
		c2.2,0,4,2.9,4,6.5l0,0C611.8,362.3,610,365.2,607.8,365.2z"/>
		<path clip-path="url(#SVGID_2_)" fill="#CEE4C3" d="M607.8,337.9H353.1c-2.2,0-4-2.9-4-6.5l0,0c0-3.6,1.8-6.5,4-6.5h254.7
		c2.2,0,4,2.9,4,6.5l0,0C611.8,335,610,337.9,607.8,337.9z"/>
		<path clip-path="url(#SVGID_2_)" fill="#CEE4C3" d="M607.8,311.4H353.1c-2.2,0-4-2.9-4-6.5l0,0c0-3.6,1.8-6.5,4-6.5h254.7
		c2.2,0,4,2.9,4,6.5l0,0C611.8,308.5,610,311.4,607.8,311.4z"/>
		<path clip-path="url(#SVGID_2_)" fill="#CEE4C3" d="M607.8,283.8H353.1c-2.2,0-4-2.9-4-6.5l0,0c0-3.6,1.8-6.5,4-6.5h254.7
		c2.2,0,4,2.9,4,6.5l0,0C611.8,280.9,610,283.8,607.8,283.8z"/>
		<path clip-path="url(#SVGID_2_)" fill="#CEE4C3" d="M607.8,257.2H353.1c-2.2,0-4-2.9-4-6.5l0,0c0-3.6,1.8-6.5,4-6.5h254.7
		c2.2,0,4,2.9,4,6.5l0,0C611.8,254.3,610,257.2,607.8,257.2z"/>
		<path clip-path="url(#SVGID_2_)" fill="#FCF8CE" d="M27,107.8c0-50.1,40.6-90.7,90.7-90.7c50.1,0,90.7,40.6,90.7,90.7
		c0,50.1-40.6,90.7-90.7,90.7C67.6,198.6,27,157.9,27,107.8z"/>
		<path
			clip-path="url(#SVGID_2_)"
			fill="#D0EAF1"
			d="M109,198.1c-0.1-1.7-0.2-2.5-0.2-3.9c0-23.7,19.2-42.8,42.9-42.8
		c1.1,0,2,0.3,3,0.3c6.3-15.9,21.7-27.1,39.8-27.1c14.2,0,26.7,7,34.5,17.6c2.8-0.6,5.5-0.8,8.4-0.8c20.7,0,38,14.5,42,34
		c13.2,3.4,23.7,11.9,28,22.7H109z"/>
		<rect x="0.4" y="-2.2" clip-path="url(#SVGID_2_)" fill="none" width="625.7" height="625.8"/>
		<g clip-path="url(#SVGID_2_)">
			<defs>
				<rect id="SVGID_25_" x="0.4" y="-2.2" width="625.7" height="625.8"/>
			</defs>
			<clipPath id="SVGID_4_">
				<use xlink:href="#SVGID_25_" overflow="visible"/>
			</clipPath>
		</g>
	</g>
</svg>
