<?xml version="1.0" encoding="utf-8"?>
<!-- Generator: Adobe Illustrator 18.1.0, SVG Export Plug-In . SVG Version: 6.00 Build 0)  -->
<svg version="1.1" xmlns="http://www.w3.org/2000/svg" xmlns:xlink="http://www.w3.org/1999/xlink" x="0px" y="0px" viewBox="0 0 1920.1 1081" enable-background="new 0 0 1920.1 1081" xml:space="preserve">

	<g>
		<g>
			<polygon fill="#3D3D3C" points="-47.2,29.5 -45.6,29.3 -45.2,27.3 -46.8,27.5 			"/>
			<path fill="#3D3D3C" d="M-36.3,23l-0.7,0.1l0,6.7l0.7-0.1c1.8-0.3,3.3-1.5,3.4-3.9C-33,23.7-34.4,22.7-36.3,23z"/>
			<path fill="#3D3D3C" d="M-2.4,17.4l-0.3,0l0,3l0.3,0c1-0.2,2.1-0.5,2.1-1.8C-0.3,17.3-1.5,17.3-2.4,17.4z"/>
			<path fill="#3D3D3C" d="M72.3,5.8c-1.8,0.3-3.3,2-3.3,3.7c0,2.1,1.5,3.3,3.3,3c1.8-0.3,3.3-2,3.3-4.1C75.5,6.8,74.1,5.5,72.3,5.8
				z"/>
			<path fill="#3D3D3C" d="M59.3,7.6l-0.3,0l0,3l0.3,0c1-0.2,2.1-0.5,2.1-1.8C61.4,7.5,60.2,7.5,59.3,7.6z"/>
			<path
				fill="#3D3D3C"
				d="M39.8-2.2v-43l-127.7,20v46.4l29.1-4.6v28.4l146.8-23V-9.7L39.8-2.2z M-58.9,13.3l-25.7,4v-39.6l121-19
				v39.6L-58.9,13.3L-58.9,13.3z M-42.1,26.8l-1.5,0.2l-0.4,2l1.4-0.2l0,1.8l-1.8,0.3l-0.5,2.8l-1.6,0.3l0.5-2.8l-1.6,0.2l-0.5,2.8
				l-1.6,0.3l0.5-2.8l-1.4,0.2l0-1.8l1.7-0.3l0.4-2l-1.5,0.2l0-1.8l1.8-0.3l0.6-3.3l1.6-0.3l-0.6,3.3l1.6-0.2l0.6-3.3l1.6-0.3
				l-0.6,3.3l1.2-0.2L-42.1,26.8z M-35.8,32.2l-4.3,0.7l0-11.9l4.3-0.7c3.2-0.5,5.9,1.7,5.9,5C-29.9,28.7-32.5,31.7-35.8,32.2z
				 M-28.5,31.1l0-11.9l3-0.5l0,11.9L-28.5,31.1z M-16.6,28.4c-0.9,0.9-2.1,1.5-3.3,1.6c-1.5,0.2-2.9,0-4.1-0.7l1.3-2.7
				c0.8,0.6,1.7,1,2.7,0.8c0.7-0.1,1.5-0.6,1.5-1.4c0-0.9-1.2-1-1.8-1.1c-1.9-0.3-3.2-0.6-3.1-2.9c0-2.4,1.7-4.3,4-4.6
				c1.2-0.2,2.6,0,3.6,0.4l-1.2,2.6c-0.6-0.4-1.3-0.6-2-0.5c-0.6,0.1-1.3,0.5-1.3,1.2c0,0.7,0.8,0.8,1.3,0.9l0.8,0.1
				c1.6,0.2,2.9,0.9,2.9,2.8C-15.4,26.2-15.7,27.4-16.6,28.4z M-9.3,28.1l-3,0.5l0-9.3l-2.5,0.4l0-2.6l8-1.3l0,2.6l-2.5,0.4
				L-9.3,28.1z M0.1,26.5l-2.8-4.1l0,0l0,4.6l-3,0.5l0-11.9l4.5-0.7c2.3-0.4,4,0.5,4,3c0,1.6-0.9,3.2-2.5,3.8L3.9,26L0.1,26.5z
				 M4.7,25.8l0-11.9l3-0.5l0,11.9L4.7,25.8z M15.4,21.4c1-0.2,2-0.8,2.6-1.7l0,3.7c-1,0.5-1.7,0.8-2.7,1c-1.6,0.3-3.2-0.1-4.4-1.1
				c-1.3-1-1.9-2.4-1.9-4.2c0-1.6,0.6-3.3,1.7-4.6c1.1-1.4,2.8-2.4,4.4-2.6c1-0.2,1.9-0.1,2.8,0.2l0,3.7c-0.6-0.8-1.6-1.1-2.7-0.9
				c-1.8,0.3-3.1,1.9-3.1,3.8C12.3,20.6,13.5,21.7,15.4,21.4z M24.5,22.7l-3,0.5l0-9.3L19,14.3l0-2.6l8-1.3l0,2.6l-2.5,0.4
				L24.5,22.7z M28.1,22.1l0-11.9l6.6-1l0,2.6l-3.6,0.6l0,2l3.4-0.5l0,2.6L31.1,17l0,2.1l3.6-0.6l0,2.6L28.1,22.1z M45.7,16.7l0,2.6
				l-10,1.6l5.5-10.2l-4.6,0.7l0-2.6l9.6-1.5l-5.5,10.2L45.7,16.7z M47.5,19.1l0-11.9l6.6-1l0,2.6l-3.6,0.6l0,2l3.4-0.5l0,2.6
				l-3.4,0.5l0,2.1l3.6-0.6l0,2.6L47.5,19.1z M61.8,16.8L59,12.6l0,0l0,4.6l-3,0.5l0-11.9l4.5-0.7c2.3-0.4,4,0.5,4.1,3
				c0,1.6-0.9,3.2-2.5,3.8l3.7,4.3L61.8,16.8z M72.3,15.5c-3.7,0.6-6.4-1.7-6.4-5.6c0-3.6,3.1-6.6,6.4-7.1c3.3-0.5,6.4,1.5,6.4,5.1
				C78.7,11.8,76,14.9,72.3,15.5z"/>
		</g>
		<g>
			<g>
				<path
					fill="#3D3D3C"
					d="M-63.7-10.6c-0.9-0.6-2-0.9-3.1-0.7c-0.9,0.1-2,0.8-2,1.9c0,1.1,1.3,1.3,2.1,1.4l1.2,0.2
					c2.5,0.4,4.5,1.4,4.5,4.4c0,1.8-0.4,3.8-1.9,5.3c-1.4,1.5-3.3,2.3-5.1,2.6c-2.3,0.4-4.5-0.1-6.4-1.1l2-4.2
					c1.2,0.9,2.6,1.5,4.2,1.3c1.1-0.2,2.3-0.9,2.3-2.2c0-1.4-1.8-1.5-2.9-1.7c-3-0.4-4.9-0.9-4.9-4.5c0-3.8,2.6-6.6,6.3-7.2
					c1.8-0.3,4.1,0,5.7,0.6L-63.7-10.6z"/>
			</g>
			<g>
				<path fill="#3D3D3C" d="M-58.9-16.1l7.2-1.1c3.9-0.6,6.6,0.8,6.6,5.1c0,4.4-2.3,6.7-6.4,7.3l-2.7,0.4l0,6.2l-4.7,0.7L-58.9-16.1
					z M-54.1-8.3l0.8-0.1c1.7-0.3,3.4-0.5,3.4-2.8c0-2.3-1.6-2.1-3.4-1.8l-0.8,0.1L-54.1-8.3z"/>
			</g>
			<g>
				<path
					fill="#3D3D3C"
					d="M-23.8-12.7c0,6-4.2,10.9-10,11.8c-5.8,0.9-10-2.7-10-8.7c0-5.6,4.8-10.3,10-11.1
					C-28.6-21.5-23.8-18.3-23.8-12.7z M-39-10.3c0,3.2,2.3,5.2,5.1,4.7c2.8-0.4,5.1-3.1,5.1-6.4c0-2.6-2.3-4.5-5.1-4.1
					C-36.7-15.5-39-12.8-39-10.3z"/>
			</g>
			<g>
				<path fill="#3D3D3C" d="M-16.9-4.1l-4.7,0.7l0-18.6l4.7-0.7L-16.9-4.1z"/>
			</g>
			<g>
				<path fill="#3D3D3C" d="M-9.1-9.4l5.7-0.9l0,4.1l-10.4,1.6l0-18.6l4.7-0.7L-9.1-9.4z"/>
			</g>
			<g>
				<path fill="#3D3D3C" d="M2.8-21.7l0,3.1l5.3-0.8l0,4.1l-5.3,0.8l0,3.2l5.6-0.9l0,4.1L-1.9-6.5l0-18.6l10.3-1.6l0,4.1L2.8-21.7z"/>
			</g>
			<g>
				<path fill="#3D3D3C" d="M26.4-10.9L20.5-10l-4.4-6.5l0,0l0,7.1l-4.7,0.7l0-18.6l7-1.1c3.6-0.6,6.3,0.8,6.3,4.7
					c0,2.6-1.4,5-4,5.9L26.4-10.9z M16-19.6l0.5-0.1c1.5-0.2,3.3-0.8,3.3-2.8c0-2-1.7-2-3.3-1.8L16-24.2L16-19.6z"/>
			</g>
		</g>
	</g>
</svg>
