<?xml version="1.0" encoding="utf-8"?>
<!-- Generator: Adobe Illustrator 18.0.0, SVG Export Plug-In . SVG Version: 6.00 Build 0)  -->
<!DOCTYPE svg PUBLIC "-//W3C//DTD SVG 1.1//EN" "http://www.w3.org/Graphics/SVG/1.1/DTD/svg11.dtd">
<svg version="1.1" xmlns="http://www.w3.org/2000/svg" xmlns:xlink="http://www.w3.org/1999/xlink" x="0px" y="0px" viewBox="0 0 1920 1080" enable-background="new 0 0 1920 1080" xml:space="preserve">
	<g id="FONS">
		<rect x="0" y="0" fill="#FBCC9A" width="1920" height="1080"/>
	</g>
	<g id="ONADES_1_CAPA_INFERIOR">
		<path fill="none" stroke="#154174" stroke-width="3" stroke-miterlimit="10" d="M478.1,67.4"/>
		<g>
			<path
				fill="none"
				stroke="#CEE3C3"
				stroke-width="30"
				stroke-linecap="round"
				stroke-linejoin="round"
				stroke-miterlimit="10"
				d="
			M27,844.6c46.5,0,46.5,6.4,93.1,6.4c46.5,0,46.5-6.4,93.1-6.4c46.5,0,46.5,6.4,93.1,6.4c46.5,0,46.5-6.4,93.1-6.4
			c46.5,0,46.5,6.4,93.1,6.4c46.5,0,46.5-6.4,93.1-6.4c46.5,0,46.5,6.4,93.1,6.4c46.5,0,46.5-6.4,93.1-6.4c46.5,0,46.5,6.4,93.1,6.4
			c46.5,0,46.5-6.4,93.1-6.4c46.5,0,46.5,6.4,93.1,6.4c46.5,0,46.5-6.4,93.1-6.4c46.5,0,46.5,6.4,93.1,6.4c46.5,0,46.5-6.4,93.1-6.4
			c46.5,0,46.5,6.4,93.1,6.4c46.5,0,46.5-6.4,93.1-6.4c46.5,0,46.5,6.4,93.1,6.4c46.5,0,46.5-6.4,93.1-6.4c46.5,0,46.5,6.4,93.1,6.4
			c46.5,0,46.5-6.4,93.1-6.4"/>
		</g>
		<g>
			<path
				fill="none"
				stroke="#CEE3C3"
				stroke-width="30"
				stroke-linecap="round"
				stroke-linejoin="round"
				stroke-miterlimit="10"
				d="
			M27,906c46.5,0,46.5,6.4,93.1,6.4c46.5,0,46.5-6.4,93.1-6.4c46.5,0,46.5,6.4,93.1,6.4c46.5,0,46.5-6.4,93.1-6.4
			c46.5,0,46.5,6.4,93.1,6.4c46.5,0,46.5-6.4,93.1-6.4c46.5,0,46.5,6.4,93.1,6.4c46.5,0,46.5-6.4,93.1-6.4c46.5,0,46.5,6.4,93.1,6.4
			c46.5,0,46.5-6.4,93.1-6.4c46.5,0,46.5,6.4,93.1,6.4c46.5,0,46.5-6.4,93.1-6.4c46.5,0,46.5,6.4,93.1,6.4c46.5,0,46.5-6.4,93.1-6.4
			c46.5,0,46.5,6.4,93.1,6.4c46.5,0,46.5-6.4,93.1-6.4c46.5,0,46.5,6.4,93.1,6.4c46.5,0,46.5-6.4,93.1-6.4c46.5,0,46.5,6.4,93.1,6.4
			c46.5,0,46.5-6.4,93.1-6.4"/>
		</g>
		<g>
			<path
				fill="none"
				stroke="#CEE3C3"
				stroke-width="30"
				stroke-linecap="round"
				stroke-linejoin="round"
				stroke-miterlimit="10"
				d="
			M27,783.3c46.5,0,46.5,6.4,93.1,6.4c46.5,0,46.5-6.4,93.1-6.4c46.5,0,46.5,6.4,93.1,6.4c46.5,0,46.5-6.4,93.1-6.4
			c46.5,0,46.5,6.4,93.1,6.4c46.5,0,46.5-6.4,93.1-6.4c46.5,0,46.5,6.4,93.1,6.4c46.5,0,46.5-6.4,93.1-6.4c46.5,0,46.5,6.4,93.1,6.4
			c46.5,0,46.5-6.4,93.1-6.4c46.5,0,46.5,6.4,93.1,6.4c46.5,0,46.5-6.4,93.1-6.4c46.5,0,46.5,6.4,93.1,6.4c46.5,0,46.5-6.4,93.1-6.4
			c46.5,0,46.5,6.4,93.1,6.4c46.5,0,46.5-6.4,93.1-6.4c46.5,0,46.5,6.4,93.1,6.4c46.5,0,46.5-6.4,93.1-6.4c46.5,0,46.5,6.4,93.1,6.4
			c46.5,0,46.5-6.4,93.1-6.4"/>
		</g>
		<g>
			<path
				fill="none"
				stroke="#CEE3C3"
				stroke-width="30"
				stroke-linecap="round"
				stroke-linejoin="round"
				stroke-miterlimit="10"
				d="
			M27,724.3c46.5,0,46.5,6.4,93.1,6.4c46.5,0,46.5-6.4,93.1-6.4c46.5,0,46.5,6.4,93.1,6.4c46.5,0,46.5-6.4,93.1-6.4
			c46.5,0,46.5,6.4,93.1,6.4c46.5,0,46.5-6.4,93.1-6.4c46.5,0,46.5,6.4,93.1,6.4c46.5,0,46.5-6.4,93.1-6.4c46.5,0,46.5,6.4,93.1,6.4
			c46.5,0,46.5-6.4,93.1-6.4c46.5,0,46.5,6.4,93.1,6.4c46.5,0,46.5-6.4,93.1-6.4c46.5,0,46.5,6.4,93.1,6.4c46.5,0,46.5-6.4,93.1-6.4
			c46.5,0,46.5,6.4,93.1,6.4c46.5,0,46.5-6.4,93.1-6.4c46.5,0,46.5,6.4,93.1,6.4c46.5,0,46.5-6.4,93.1-6.4c46.5,0,46.5,6.4,93.1,6.4
			c46.5,0,46.5-6.4,93.1-6.4"/>
		</g>
	</g>
	<g id="SOL">
		<path fill="#FBCD00" d="M130.9,127.5c0-50.1,40.6-90.7,90.7-90.7c50.1,0,90.7,40.6,90.7,90.7c0,50.1-40.6,90.7-90.7,90.7
		C171.5,218.2,130.9,177.6,130.9,127.5z"/>
	</g>
	<g id="EDIFICI_2">
		<g>
			<path fill="#F39669" d="M1072,577.8H835.5c-9.8,0-17.7-8.3-17.7-18.6V325.6c0-10.3,7.9-18.6,17.7-18.6H1072
			c9.8,0,17.7,8.3,17.7,18.6v233.6C1089.7,569.5,1081.8,577.8,1072,577.8z"/>
			<path fill="#F39669" d="M1208.7,577.8h-89.4c-8.5,0-15.4-6.9-15.4-15.4V296.5c0-8.5,6.9-15.4,15.4-15.4h89.4
			c8.5,0,15.4,6.9,15.4,15.4v265.9C1224.1,570.9,1217.2,577.8,1208.7,577.8z"/>
			<path fill="#F39669" d="M1206.7,277.2h-85.5c-9.6,0-17.4-7.8-17.4-17.4v-11.9c0-9.6,7.8-17.4,17.4-17.4h85.5
			c9.6,0,17.4,7.8,17.4,17.4v11.9C1224.1,269.4,1216.3,277.2,1206.7,277.2z"/>
			<path fill="#FBCC9A" d="M1093.4,479.6H814.1c-3.2,0-5.7-2.4-5.7-5.4l0,0c0-3,2.6-5.4,5.7-5.4h279.4c3.2,0,5.7,2.4,5.7,5.4l0,0
			C1099.2,477.2,1096.6,479.6,1093.4,479.6z"/>
			<path fill="#FBCC9A" d="M1227.3,445.2h-126.7c-4.3,0-7.9-3-7.9-6.6l0,0c0-3.7,3.5-6.6,7.9-6.6h126.7c4.3,0,7.9,3,7.9,6.6l0,0
			C1235.2,442.2,1231.6,445.2,1227.3,445.2z"/>
			<path fill="#FBCC9A" d="M1218.7,282.5H1109c-3,0-5.4-2.4-5.4-5.4v0c0-3,2.4-5.4,5.4-5.4h109.6c3,0,5.4,2.4,5.4,5.4v0
			C1224,280.1,1221.6,282.5,1218.7,282.5z"/>
			<path fill="#FBCC9A" d="M966.8,568.3H938c-7.1,0-12.9-5.8-12.9-12.9v-36.1c0-7.1,5.8-12.9,12.9-12.9h28.9
			c7.1,0,12.9,5.8,12.9,12.9v36.1C979.8,562.5,974,568.3,966.8,568.3z"/>
			<path fill="#FBCC9A" d="M873.8,568.3h-23.9c-5.9,0-10.6-4.8-10.6-10.6V517c0-5.9,4.8-10.6,10.6-10.6h23.9
			c5.9,0,10.6,4.8,10.6,10.6v40.7C884.5,563.6,879.7,568.3,873.8,568.3z"/>
			<path fill="#FBCC9A" d="M1058.1,568.3h-22c-6.4,0-11.6-5.2-11.6-11.6V518c0-6.4,5.2-11.6,11.6-11.6h22c6.4,0,11.6,5.2,11.6,11.6
			v38.8C1069.7,563.1,1064.5,568.3,1058.1,568.3z"/>
			<path fill="#F39669" d="M1116.6,211.8l44.8-28.9c1.5-1,3.4-1,4.9,0l44.8,28.9c3.8,2.4,2,8.3-2.4,8.3h-89.6
			C1114.6,220,1112.8,214.2,1116.6,211.8z"/>
			<path fill="#FBCC9A" d="M979.6,394.7c-0.6-11.9-12.5-21.5-27.2-21.5c-14.7,0-26.6,9.6-27.3,21.5H925v53.4
			c0,6.9,5.6,12.6,12.6,12.6h29.6c6.9,0,12.6-5.6,12.6-12.6v-53.4H979.6z"/>
			<path fill="#FBCC9A" d="M884.4,405.7c-0.5-9.9-10.3-17.8-22.5-17.8c-12.2,0-22,7.9-22.5,17.8h-0.1v40.9c0,7.5,6,13.5,13.5,13.5
			H871c7.5,0,13.5-6,13.5-13.5L884.4,405.7L884.4,405.7z"/>
			<path fill="#FBCC9A" d="M1069.6,405.7c-0.5-9.9-10.3-17.8-22.5-17.8c-12.2,0-22,7.9-22.5,17.8h-0.1v42.2c0,6.7,5.5,12.2,12.2,12.2
			h20.7c6.7,0,12.2-5.5,12.2-12.2v-42.2H1069.6z"/>
			<path
				fill="#F39669"
				d="M1033.4,292.7l-79.7-16.9c-2.6-0.5-5.3-0.5-7.9,0l-79.7,16.9c-1.3,0.3-2.6,0.4-3.9,0.4h-25.5
			c-10.5,0-19,8.5-19,19v7.4c0,10.5,8.5,19,19,19H1068c10.5,0,19-8.5,19-19v-7.4c0-10.5-8.5-19-19-19h-30.7
			C1036,293.1,1034.7,293,1033.4,292.7z"/>
			<path fill="#F39669" d="M696.4,577.8h96.3c6.6,0,12-5.4,12-12V296.3c0-6.6-5.4-12-12-12h-96.3c-6.6,0-12,5.4-12,12v269.6
			C684.4,572.5,689.8,577.8,696.4,577.8z"/>
			<path fill="#F39669" d="M701.4,277.2h86.5c9.3,0,16.9-7.6,16.9-16.9v-12.9c0-9.3-7.6-16.9-16.9-16.9h-86.5
			c-9.3,0-16.9,7.6-16.9,16.9v12.9C684.4,269.6,692,277.2,701.4,277.2z"/>
			<path fill="#FBCC9A" d="M686.9,445.2h115.4c4,0,7.2-3,7.2-6.6l0,0c0-3.7-3.2-6.6-7.2-6.6H686.9c-4,0-7.2,3-7.2,6.6l0,0
			C679.7,442.2,682.9,445.2,686.9,445.2z"/>
			<path fill="#FBCC9A" d="M691.1,283.8h107c3.7,0,6.6-3,6.6-6.6v0c0-3.7-3-6.6-6.6-6.6h-107c-3.7,0-6.6,3-6.6,6.6v0
			C684.4,280.8,687.4,283.8,691.1,283.8z"/>
			<path fill="#F39669" d="M795,213.8l-48.4-31.3c-1.1-0.7-2.6-0.7-3.7,0l-48.4,31.3c-2.9,1.9-1.6,6.3,1.9,6.3h96.9
			C796.6,220.2,797.9,215.7,795,213.8z"/>
		</g>
	</g>
	<g id="ARBRES">
		<g>
			<rect x="685.2" y="462.9" fill="#CB6B15" width="19" height="113"/>
			<path fill="#CEE3C3" d="M758.9,462.9c0,36.4-29.5,65.9-65.9,65.9l0,0c-36.4,0-65.9-29.5-65.9-65.9l0,0c0-36.4,29.5-65.9,65.9-65.9
			l0,0C729.4,397,758.9,426.5,758.9,462.9L758.9,462.9z"/>
		</g>
		<g>
			<rect x="154.2" y="385.9" fill="#CB6B15" width="27" height="191"/>
			<path fill="#CEE3C3" d="M276.9,387.2c0,61.8-50.1,111.9-111.9,111.9l0,0c-61.8,0-111.9-50.1-111.9-111.9l0,0
			c0-61.8,50.1-111.9,111.9-111.9l0,0C226.8,275.4,276.9,325.5,276.9,387.2L276.9,387.2z"/>
		</g>
	</g>
	<g id="EDIFICI_3">
		<g>
			<path fill="#F39669" d="M1406.3,219.1c-13.2-6.5-11.1-12.3-11.1-18.7c-9,0-9,0-9,0s0,0-9,0c0,6.5,2.1,12.3-11.1,18.7
			c-13.2,6.4-15.7,64.5-15.7,64.5l35.8,22.4l35.8-22.4C1422,283.6,1419.5,225.5,1406.3,219.1z"/>
			<path fill="#F39669" d="M1607.4,224c-13.2-6.5-11.1-12.3-11.1-18.7c-9,0-9,0-9,0s0,0-9,0c0,6.5,2.1,12.3-11.1,18.7
			c-13.2,6.5-15.7,64.5-15.7,64.5l35.8,22.4l35.8-22.4C1623.1,288.4,1620.6,230.4,1607.4,224z"/>
			<path fill="#F39669" d="M1466.8,234.9c-6.9-6.1-14.2-6.1-21.1,0c-6.9,6.1-8.2,61-8.2,61l18.8,21.2l18.8-21.2
			C1475.1,295.8,1473.7,240.9,1466.8,234.9z"/>
			<path fill="#F39669" d="M1533.3,232.6c-6.9-6.1-14.2-6.1-21.1,0c-6.9,6.1-8.2,61-8.2,61l18.8,21.2l18.8-21.2
			C1541.6,293.5,1540.2,238.6,1533.3,232.6z"/>
			<path
				fill="#F39669"
				d="M1735.6,340.6c0,0-79.1-65.1-102.8-65.1c-18.5,0-36.7,21-45.7,21.4c-10.3,0.4-31.2-21.4-49.5-21.4
			c-19.2,0-38.1,21.7-46.4,22.1c-9.6,0.4-31.4-22.1-50.4-22.1c-19.3,0-38.4,21.9-46.6,22.2c-9.4,0.4-31.5-22.2-50.6-22.2
			c-23.7,0-98,64.8-98,64.8L1735.6,340.6z"/>
			<path
				fill="#F39669"
				d="M1735.6,340.6c0,0-37.5-24.6-67.2-24.6c-23.2,0-45.8,21-57.1,21.4c-12.9,0.5-39-21.4-61.9-21.4
			c-24,0-47.6,21.7-58,22.1c-12,0.4-39.3-22.1-63-22.1c-24.2,0-48,21.9-58.2,22.2c-11.8,0.4-39.4-22.2-63.3-22.2
			c-29.6,0-61.2,24.4-61.2,24.4L1735.6,340.6z"/>
			<rect x="1245.6" y="340.4" fill="#F39669" width="489.9" height="47.5"/>
			<rect x="1245.6" y="387.9" fill="#F39669" width="489.9" height="47.5"/>
			<path fill="#FBCC9A" d="M1271.8,388v-35.6c0-11.1,16.4-20.1,36.6-20.1l0,0c20.2,0,36.6,9,36.6,20.1V388L1271.8,388z"/>
			<path fill="#FBCC9A" d="M1392.8,388v-35.6c0-11.1,16.4-20.1,36.6-20.1l0,0c20.2,0,36.6,9,36.6,20.1V388L1392.8,388z"/>
			<path fill="#FBCC9A" d="M1515,388v-35.6c0-11.1,16.4-20.1,36.6-20.1l0,0c20.2,0,36.6,9,36.6,20.1V388L1515,388z"/>
			<path fill="#FBCC9A" d="M1633.9,388v-35.6c0-11.1,16.4-20.1,36.6-20.1l0,0c20.2,0,36.6,9,36.6,20.1V388L1633.9,388z"/>
			<path
				fill="#FBCC9A"
				d="M1735.6,436.3c0,0-37.5-12.3-67.2-12.3c-23.2,0-45.8,10.5-57.1,10.7c-12.9,0.2-39-10.7-61.9-10.7
			c-24,0-47.6,10.8-58,11c-12,0.2-39.3-11-63-11c-24.2,0-48,10.9-58.2,11.1c-11.8,0.2-39.4-11.1-63.3-11.1
			c-29.6,0-61.2,12.2-61.2,12.2L1735.6,436.3z"/>
			<rect x="1245.6" y="436" fill="#F39669" width="489.9" height="47.5"/>
			<rect x="1245.6" y="484.2" fill="#F39669" width="489.9" height="47.5"/>
			<path
				fill="#FBCC9A"
				d="M1735.6,484.4c0,0-37.5-13-67.2-13c-23.2,0-45.8,11.1-57.1,11.3c-12.9,0.2-39-11.3-61.9-11.3
			c-24,0-47.6,11.4-58,11.6c-12,0.2-39.3-11.6-63-11.6c-24.2,0-48,11.5-58.2,11.7c-11.8,0.2-39.4-11.7-63.3-11.7
			c-29.6,0-61.2,12.9-61.2,12.9L1735.6,484.4z"/>
			<path
				fill="#FBCC9A"
				d="M1735.6,388.1c0,0-37.5-13-67.2-13c-23.2,0-45.8,11.1-57.1,11.3c-12.9,0.2-39-11.3-61.9-11.3
			c-24,0-47.6,11.5-58,11.7c-12,0.2-39.3-11.7-63-11.7c-24.2,0-48,11.5-58.2,11.7c-11.8,0.2-39.4-11.7-63.3-11.7
			c-29.6,0-61.2,12.9-61.2,12.9L1735.6,388.1z"/>
			<path
				fill="#FBCC9A"
				d="M1735.6,532.6c0,0-37.5-12.3-67.2-12.3c-23.2,0-45.8,10.5-57.1,10.7c-12.9,0.2-39-10.7-61.9-10.7
			c-24,0-47.6,10.9-58,11c-12,0.2-39.3-11-63-11c-24.2,0-48,10.9-58.2,11.1c-11.8,0.2-39.4-11.1-63.3-11.1
			c-29.6,0-61.2,12.2-61.2,12.2L1735.6,532.6z"/>
			<rect x="1245.6" y="532.4" fill="#F39669" width="489.9" height="47.5"/>
			<rect x="1245.6" y="580.5" fill="#F39669" width="489.9" height="67.8"/>
			<path
				fill="#FBCC9A"
				d="M1735.6,580.8c0,0-37.5-12.3-67.2-12.3c-23.2,0-45.8,10.5-57.1,10.7c-12.9,0.2-39-10.7-61.9-10.7
			c-24,0-47.6,10.8-58,11c-12,0.2-39.3-11-63-11c-24.2,0-48,10.9-58.2,11.1c-11.8,0.2-39.4-11.1-63.3-11.1
			c-29.6,0-61.2,12.2-61.2,12.2L1735.6,580.8z"/>
		</g>
	</g>
	<g id="CARRETERA">
		<path fill="#999999" d="M0,669h1421.8c62.4,0,113.2,50.8,113.2,113.2v307c0,0,50.3,0,52.9,0c1.7,0,37.4,0.1,37.4,0.1V782.2
		c0-112.2-91.3-203.4-203.4-203.4H-0.2"/>
		<path fill="#CDCCCC" d="M1580.1,990.1c2.8,0,5-2.2,5-5v-90c0-2.8-2.2-5-5-5c-2.8,0-5,2.2-5,5v90
		C1575.1,987.8,1577.4,990.1,1580.1,990.1z"/>
		<path fill="#CDCCCC" d="M1575.1,1079.5c4.2,0,7.7,0,10,0v-4.4c0-2.8-2.2-5-5-5c-2.8,0-5,2.2-5,5V1079.5z"/>
		<path fill="#CDCCCC" d="M1575.1,772.5v32.6c0,2.8,2.2,5,5,5c2.8,0,5-2.2,5-5v-32.6c0-19.9-3.6-39.4-10.6-57.9
		c-1-2.6-3.9-3.9-6.4-2.9c-2.6,1-3.9,3.9-2.9,6.4C1571.8,735.4,1575.1,753.7,1575.1,772.5z"/>
		<path fill="#CDCCCC" d="M-0.8,609.1h-5.9c-2.8,0-5,2.2-5,5c0,2.8,2.2,5,5,5h6C-0.8,615.9-0.8,612.5-0.8,609.1z"/>
		<path fill="#CDCCCC" d="M83.2,609.1H0c0,3.4,0,6.8,0,10h83.2c2.8,0,5-2.2,5-5C88.2,611.4,86,609.1,83.2,609.1z"/>
		<path fill="#CDCCCC" d="M443.2,609.1h-90c-2.8,0-5,2.2-5,5c0,2.8,2.2,5,5,5h90c2.8,0,5-2.2,5-5C448.2,611.4,446,609.1,443.2,609.1z
		"/>
		<path fill="#CDCCCC" d="M263.2,609.1h-90c-2.8,0-5,2.2-5,5c0,2.8,2.2,5,5,5h90c2.8,0,5-2.2,5-5C268.2,611.4,266,609.1,263.2,609.1z
		"/>
		<path fill="#CDCCCC" d="M623.2,609.1h-90c-2.8,0-5,2.2-5,5c0,2.8,2.2,5,5,5h90c2.8,0,5-2.2,5-5C628.2,611.4,626,609.1,623.2,609.1z
		"/>
		<path fill="#CDCCCC" d="M1519.4,641.5c-25-18.7-54.7-29.7-85.8-31.9c-2.8-0.2-5.1,1.9-5.3,4.6c-0.2,2.8,1.9,5.1,4.6,5.3
		c29.2,2.1,57.1,12.4,80.6,30c0.9,0.7,1.9,1,3,1c1.5,0,3-0.7,4-2C1522.1,646.2,1521.6,643.1,1519.4,641.5z"/>
		<path fill="#CDCCCC" d="M983.2,609.1h-90c-2.8,0-5,2.2-5,5c0,2.8,2.2,5,5,5h90c2.8,0,5-2.2,5-5C988.2,611.4,986,609.1,983.2,609.1z
		"/>
		<path fill="#CDCCCC" d="M803.2,609.1h-90c-2.8,0-5,2.2-5,5c0,2.8,2.2,5,5,5h90c2.8,0,5-2.2,5-5C808.2,611.4,806,609.1,803.2,609.1z
		"/>
		<path fill="#CDCCCC" d="M1163.2,609.1h-90c-2.8,0-5,2.2-5,5c0,2.8,2.2,5,5,5h90c2.8,0,5-2.2,5-5
		C1168.2,611.4,1166,609.1,1163.2,609.1z"/>
		<path fill="#CDCCCC" d="M1343.2,609.1h-90c-2.8,0-5,2.2-5,5c0,2.8,2.2,5,5,5h90c2.8,0,5-2.2,5-5
		C1348.2,611.4,1346,609.1,1343.2,609.1z"/>
		<g display="none">
			<path
				display="inline"
				fill="#999999"
				d="M1587.9,1080.6c-2.6,0-47.1,0.1-52.9-0.4v687.3c0,62.4-50.8,113.2-113.2,113.2H-2921
			c-62.4,0-113.2-50.8-113.2-113.2v-624.7c0-62.4,50.8-113.2,113.2-113.2h249.3c112.2,0,203.4-91.3,203.4-203.4v-79.2
			c0-62.4,50.8-113.2,113.2-113.2h206.7c112.2,0,203.4-91.3,203.4-203.4v-726.7c0-112.2-91.3-203.4-203.4-203.4h-2199.5
			c-112.2,0-203.4,91.3-203.4,203.4v20.8c0,62.4-50.8,113.2-113.2,113.2h-853.5c-62.4,0-113.2-50.8-113.2-113.2v-1092
			c0-62.4,50.8-113.2,113.2-113.2h578.2c112.2,0,203.4-91.3,203.4-203.4v-765.1c0-62.4,50.8-113.2,113.2-113.2h783v-90.2h-783
			c-112.2,0-203.4,91.3-203.4,203.4v765.1c0,62.4-50.8,113.2-113.2,113.2h-578.2c-112.2,0-203.4,91.3-203.4,203.4v1092
			c0,112.2,91.3,203.4,203.4,203.4h853.5c112.2,0,203.4-91.3,203.4-203.4v-20.8c0-62.4,50.8-113.2,113.2-113.2h2199.5
			c62.4,0,113.2,50.8,113.2,113.2v726.7c0,62.4-50.8,113.2-113.2,113.2H-2355c-112.2,0-203.4,91.3-203.4,203.4v79.2
			c0,62.4-50.8,113.2-113.2,113.2H-2921c-112.2,0-203.4,91.3-203.4,203.4v624.7c0,112.2,91.3,203.4,203.4,203.4h4342.8
			c112.2,0,203.4-91.3,203.4-203.4v-686.9C1610.2,1080.6,1589.7,1080.6,1587.9,1080.6z"/>
			<path display="inline" fill="#CDCCCC" d="M-4781.4-1888c-2.8,0-5,2.2-5,5v90c0,2.8,2.2,5,5,5c2.8,0,5-2.2,5-5v-90
			C-4776.4-1885.8-4778.6-1888-4781.4-1888z"/>
			<path display="inline" fill="#CDCCCC" d="M-4781.4-2068c-2.8,0-5,2.2-5,5v90c0,2.8,2.2,5,5,5c2.8,0,5-2.2,5-5v-90
			C-4776.4-2065.8-4778.6-2068-4781.4-2068z"/>
			<path display="inline" fill="#CDCCCC" d="M-4625.1-127.4c-12.8,3.4-26,5.1-39.3,5.1h-48.9c-2.8,0-5,2.2-5,5c0,2.8,2.2,5,5,5h48.9
			c14.2,0,28.3-1.8,41.9-5.4c2.7-0.7,4.3-3.4,3.6-6.1C-4619.7-126.5-4622.4-128.1-4625.1-127.4z"/>
			<path display="inline" fill="#CDCCCC" d="M-4803.3-122.3h-90c-2.8,0-5,2.2-5,5c0,2.8,2.2,5,5,5h90c2.8,0,5-2.2,5-5
			C-4798.3-120-4800.6-122.3-4803.3-122.3z"/>
			<path display="inline" fill="#CDCCCC" d="M-4781.4-2248c-2.8,0-5,2.2-5,5v90c0,2.8,2.2,5,5,5c2.8,0,5-2.2,5-5v-90
			C-4776.4-2245.8-4778.6-2248-4781.4-2248z"/>
			<path display="inline" fill="#CDCCCC" d="M-5523.2-122.4c-29.3-1-57.5-10.3-81.6-26.9c-2.3-1.6-5.4-1-7,1.3c-1.6,2.3-1,5.4,1.3,7
			c25.7,17.7,55.8,27.6,87,28.6c0.1,0,0.1,0,0.2,0c2.7,0,4.9-2.1,5-4.8C-5518.2-120-5520.4-122.3-5523.2-122.4z"/>
			<path display="inline" fill="#CDCCCC" d="M-4781.4-2428c-2.8,0-5,2.2-5,5v90c0,2.8,2.2,5,5,5c2.8,0,5-2.2,5-5v-90
			C-4776.4-2425.8-4778.6-2428-4781.4-2428z"/>
			<path
				display="inline"
				fill="#CDCCCC"
				d="M-4781.4-1708c-2.8,0-5,2.2-5,5v18.7c0,23.4-5.1,45.8-15.2,66.7
			c-1.2,2.5-0.2,5.5,2.3,6.7c0.7,0.3,1.4,0.5,2.2,0.5c1.9,0,3.6-1,4.5-2.8c10.8-22.2,16.2-46.1,16.2-71v-18.7
			C-4776.4-1705.8-4778.6-1708-4781.4-1708z"/>
			<path display="inline" fill="#CDCCCC" d="M-5343.3-122.3h-90c-2.8,0-5,2.2-5,5c0,2.8,2.2,5,5,5h90c2.8,0,5-2.2,5-5
			C-5338.3-120-5340.6-122.3-5343.3-122.3z"/>
			<path display="inline" fill="#CDCCCC" d="M-4852.3-1552.2c-1.5-2.3-4.5-3.1-6.9-1.6c-24.1,14.9-52,22.8-80.5,22.8h-2.5
			c-2.8,0-5,2.2-5,5c0,2.8,2.2,5,5,5h2.5c30.4,0,60-8.4,85.8-24.3C-4851.6-1546.7-4850.9-1549.8-4852.3-1552.2z"/>
			<path display="inline" fill="#CDCCCC" d="M-5387.2-1526c0-2.8-2.2-5-5-5h-90c-2.8,0-5,2.2-5,5c0,2.8,2.2,5,5,5h90
			C-5389.4-1521-5387.2-1523.2-5387.2-1526z"/>
			<path display="inline" fill="#CDCCCC" d="M-5207.2-1526c0-2.8-2.2-5-5-5h-90c-2.8,0-5,2.2-5,5c0,2.8,2.2,5,5,5h90
			C-5209.4-1521-5207.2-1523.2-5207.2-1526z"/>
			<path display="inline" fill="#CDCCCC" d="M-5163.3-122.3h-90c-2.8,0-5,2.2-5,5c0,2.8,2.2,5,5,5h90c2.8,0,5-2.2,5-5
			C-5158.3-120-5160.6-122.3-5163.3-122.3z"/>
			<path display="inline" fill="#CDCCCC" d="M-4983.3-122.3h-90c-2.8,0-5,2.2-5,5c0,2.8,2.2,5,5,5h90c2.8,0,5-2.2,5-5
			C-4978.3-120-4980.6-122.3-4983.3-122.3z"/>
			<path display="inline" fill="#CDCCCC" d="M-3079.3,1445.1c-2.8,0-5,2.2-5,5v90c0,2.8,2.2,5,5,5c2.8,0,5-2.2,5-5v-90
			C-3074.3,1447.4-3076.5,1445.1-3079.3,1445.1z"/>
			<path
				display="inline"
				fill="#CDCCCC"
				d="M-4708.4-2582.8c-1.6-2.3-4.7-2.9-7-1.3c-25.8,17.7-45.8,42.2-58,70.9
			c-1.1,2.5,0.1,5.5,2.6,6.6c0.6,0.3,1.3,0.4,2,0.4c1.9,0,3.8-1.1,4.6-3c11.4-26.9,30.3-49.9,54.5-66.5
			C-4707.4-2577.5-4706.8-2580.6-4708.4-2582.8z"/>
			<path display="inline" fill="#CDCCCC" d="M-3565-459.7h-90c-2.8,0-5,2.2-5,5c0,2.8,2.2,5,5,5h90c2.8,0,5-2.2,5-5
			C-3560-457.5-3562.3-459.7-3565-459.7z"/>
			<path display="inline" fill="#CDCCCC" d="M-3385-459.7h-90c-2.8,0-5,2.2-5,5c0,2.8,2.2,5,5,5h90c2.8,0,5-2.2,5-5
			C-3380-457.5-3382.3-459.7-3385-459.7z"/>
			<path display="inline" fill="#CDCCCC" d="M-3745-459.7h-90c-2.8,0-5,2.2-5,5c0,2.8,2.2,5,5,5h90c2.8,0,5-2.2,5-5
			C-3740-457.5-3742.3-459.7-3745-459.7z"/>
			<path
				display="inline"
				fill="#CDCCCC"
				d="M-4507.6-253c-2.7-0.5-5.3,1.3-5.8,4.1c-5.1,28.8-18.2,55.4-38.1,77
			c-1.9,2-1.7,5.2,0.3,7.1c1,0.9,2.2,1.3,3.4,1.3c1.4,0,2.7-0.5,3.7-1.6c21.2-23,35.2-51.4,40.6-82.1
			C-4503.1-249.9-4504.9-252.5-4507.6-253z"/>
			<path display="inline" fill="#CDCCCC" d="M-3205-459.7h-90c-2.8,0-5,2.2-5,5c0,2.8,2.2,5,5,5h90c2.8,0,5-2.2,5-5
			C-3200-457.5-3202.3-459.7-3205-459.7z"/>
			<path display="inline" fill="#CDCCCC" d="M-3074.3,1270.1c0-2.8-2.2-5-5-5c-2.8,0-5,2.2-5,5v90c0,2.8,2.2,5,5,5c2.8,0,5-2.2,5-5
			V1270.1z"/>
			<path display="inline" fill="#CDCCCC" d="M-3835-2607.7c0-2.8-2.2-5-5-5h-68.2c-2.8,0-5,2.2-5,5c0,2.8,2.2,5,5,5h68.2
			C-3837.2-2602.7-3835-2605-3835-2607.7z"/>
			<path display="inline" fill="#CDCCCC" d="M-3020-454.7c0-2.8-2.2-5-5-5h-90c-2.8,0-5,2.2-5,5c0,2.8,2.2,5,5,5h90
			C-3022.3-449.7-3020-451.9-3020-454.7z"/>
			<path display="inline" fill="#CDCCCC" d="M-4353.2-2607.7c0-2.8-2.2-5-5-5h-90c-2.8,0-5,2.2-5,5c0,2.8,2.2,5,5,5h90
			C-4355.4-2602.7-4353.2-2605-4353.2-2607.7z"/>
			<path display="inline" fill="#CDCCCC" d="M-4285-459.7h-62.7c-9.4,0-18.8,0.8-28,2.4c-2.7,0.5-4.5,3.1-4.1,5.8
			c0.4,2.4,2.5,4.1,4.9,4.1c0.3,0,0.6,0,0.9-0.1c8.6-1.5,17.5-2.2,26.3-2.2h62.7c2.8,0,5-2.2,5-5
			C-4280-457.5-4282.3-459.7-4285-459.7z"/>
			<path
				display="inline"
				fill="#CDCCCC"
				d="M-4457.9-416.9c-23.1,21.1-39.6,48.2-47.6,78.2c-0.7,2.7,0.9,5.4,3.5,6.1
			c0.4,0.1,0.9,0.2,1.3,0.2c2.2,0,4.2-1.5,4.8-3.7c7.5-28.2,23-53.6,44.7-73.4c2-1.9,2.2-5,0.3-7.1
			C-4452.7-418.7-4455.9-418.8-4457.9-416.9z"/>
			<path display="inline" fill="#CDCCCC" d="M-3925-459.7h-90c-2.8,0-5,2.2-5,5c0,2.8,2.2,5,5,5h90c2.8,0,5-2.2,5-5
			C-3920-457.5-3922.3-459.7-3925-459.7z"/>
			<path display="inline" fill="#CDCCCC" d="M-3993.2-2607.7c0-2.8-2.2-5-5-5h-90c-2.8,0-5,2.2-5,5c0,2.8,2.2,5,5,5h90
			C-3995.4-2602.7-3993.2-2605-3993.2-2607.7z"/>
			<path display="inline" fill="#CDCCCC" d="M-4173.2-2607.7c0-2.8-2.2-5-5-5h-90c-2.8,0-5,2.2-5,5c0,2.8,2.2,5,5,5h90
			C-4175.4-2602.7-4173.2-2605-4173.2-2607.7z"/>
			<path display="inline" fill="#CDCCCC" d="M-4105-459.7h-90c-2.8,0-5,2.2-5,5c0,2.8,2.2,5,5,5h90c2.8,0,5-2.2,5-5
			C-4100-457.5-4102.3-459.7-4105-459.7z"/>
			<path display="inline" fill="#CDCCCC" d="M-5027.2-1526c0-2.8-2.2-5-5-5h-90c-2.8,0-5,2.2-5,5c0,2.8,2.2,5,5,5h90
			C-5029.4-1521-5027.2-1523.2-5027.2-1526z"/>
			<path display="inline" fill="#CDCCCC" d="M-1994.9-251.9v90c0,2.8,2.2,5,5,5c2.8,0,5-2.2,5-5v-90c0-2.8-2.2-5-5-5
			C-1992.7-256.9-1994.9-254.7-1994.9-251.9z"/>
			<path display="inline" fill="#CDCCCC" d="M-1984.9,378.1v-90c0-2.8-2.2-5-5-5c-2.8,0-5,2.2-5,5v90c0,2.8,2.2,5,5,5
			C-1987.2,383.1-1984.9,380.8-1984.9,378.1z"/>
			<path display="inline" fill="#CDCCCC" d="M-1984.9,108.1c0-2.8-2.2-5-5-5c-2.8,0-5,2.2-5,5v90c0,2.8,2.2,5,5,5c2.8,0,5-2.2,5-5
			V108.1z"/>
			<path
				display="inline"
				fill="#CDCCCC"
				d="M-1993.2,462.8c-2.7-0.6-5.4,1-6,3.7c-6.9,28.4-21.7,54.1-42.9,74.5
			c-2,1.9-2.1,5.1-0.2,7.1c1,1,2.3,1.5,3.6,1.5c1.2,0,2.5-0.5,3.5-1.4c22.6-21.7,38.4-49.1,45.7-79.3
			C-1988.9,466.2-1990.5,463.5-1993.2,462.8z"/>
			<path display="inline" fill="#CDCCCC" d="M-1984.9-71.9c0-2.8-2.2-5-5-5c-2.8,0-5,2.2-5,5v90c0,2.8,2.2,5,5,5c2.8,0,5-2.2,5-5
			V-71.9z"/>
			<path display="inline" fill="#CDCCCC" d="M-4628.2-2602.6c0.1,0,0.1,0,0.2,0c1.6-0.1,3.3-0.1,5-0.1h84.8c2.8,0,5-2.2,5-5
			c0-2.8-2.2-5-5-5h-84.8c-1.8,0-3.6,0-5.3,0.1c-2.8,0.1-4.9,2.4-4.8,5.2C-4633.1-2604.8-4630.9-2602.6-4628.2-2602.6z"/>
			<path display="inline" fill="#CDCCCC" d="M-5676.2-747.2c2.8,0,5-2.2,5-5v-90c0-2.8-2.2-5-5-5c-2.8,0-5,2.2-5,5v90
			C-5681.2-749.5-5679-747.2-5676.2-747.2z"/>
			<path display="inline" fill="#CDCCCC" d="M-5676.2-927.2c2.8,0,5-2.2,5-5v-90c0-2.8-2.2-5-5-5c-2.8,0-5,2.2-5,5v90
			C-5681.2-929.5-5679-927.2-5676.2-927.2z"/>
			<path display="inline" fill="#CDCCCC" d="M-5676.2-1107.2c2.8,0,5-2.2,5-5v-90c0-2.8-2.2-5-5-5c-2.8,0-5,2.2-5,5v90
			C-5681.2-1109.5-5679-1107.2-5676.2-1107.2z"/>
			<path display="inline" fill="#CDCCCC" d="M-5671.2-275.6v-26.6c0-2.8-2.2-5-5-5c-2.8,0-5,2.2-5,5v26.6c0,22.1,4.3,43.5,12.9,63.7
			c0.8,1.9,2.7,3.1,4.6,3.1c0.7,0,1.3-0.1,1.9-0.4c2.5-1.1,3.7-4,2.7-6.6C-5667.2-234.8-5671.2-254.9-5671.2-275.6z"/>
			<path display="inline" fill="#CDCCCC" d="M-5676.2-567.2c2.8,0,5-2.2,5-5v-90c0-2.8-2.2-5-5-5c-2.8,0-5,2.2-5,5v90
			C-5681.2-569.5-5679-567.2-5676.2-567.2z"/>
			<path display="inline" fill="#CDCCCC" d="M-2001.2-339.9c0.6,2.2,2.6,3.6,4.8,3.6c0.5,0,0.9-0.1,1.4-0.2c2.6-0.8,4.2-3.6,3.4-6.2
			c-8.8-29.8-26-56.5-49.6-77c-2.1-1.8-5.2-1.6-7.1,0.5c-1.8,2.1-1.6,5.2,0.5,7.1C-2025.6-392.9-2009.5-367.9-2001.2-339.9z"/>
			<path display="inline" fill="#CDCCCC" d="M-5676.2-387.2c2.8,0,5-2.2,5-5v-90c0-2.8-2.2-5-5-5c-2.8,0-5,2.2-5,5v90
			C-5681.2-389.5-5679-387.2-5676.2-387.2z"/>
			<path display="inline" fill="#CDCCCC" d="M-5676.2-1287.2c2.8,0,5-2.2,5-5v-75.4c0-4.7,0.2-9.4,0.6-14.1c0.2-2.8-1.8-5.2-4.5-5.4
			c-2.7-0.2-5.2,1.8-5.4,4.5c-0.5,5-0.7,10-0.7,15v75.4C-5681.2-1289.5-5679-1287.2-5676.2-1287.2z"/>
			<path display="inline" fill="#CDCCCC" d="M-2575-449.7h90c2.8,0,5-2.2,5-5c0-2.8-2.2-5-5-5h-90c-2.8,0-5,2.2-5,5
			C-2580-451.9-2577.8-449.7-2575-449.7z"/>
			<path display="inline" fill="#CDCCCC" d="M-2395-449.7h90c2.8,0,5-2.2,5-5c0-2.8-2.2-5-5-5h-90c-2.8,0-5,2.2-5,5
			C-2400-451.9-2397.8-449.7-2395-449.7z"/>
			<path display="inline" fill="#CDCCCC" d="M-2215-449.7h66.8c7.5,0,15.1,0.5,22.4,1.6c0.2,0,0.5,0.1,0.7,0.1c2.4,0,4.6-1.8,4.9-4.3
			c0.4-2.7-1.5-5.3-4.2-5.7c-7.9-1.2-15.9-1.7-23.9-1.7h-66.8c-2.8,0-5,2.2-5,5C-2220-451.9-2217.8-449.7-2215-449.7z"/>
			<path display="inline" fill="#CDCCCC" d="M-2530.8,886.6c-1.1,2.5,0.1,5.5,2.6,6.6c0.6,0.3,1.3,0.4,2,0.4c1.9,0,3.8-1.1,4.6-3
			c8.8-20.4,13.2-42.1,13.2-64.5v-25.7c0-2.8-2.2-5-5-5c-2.8,0-5,2.2-5,5v25.7C-2518.4,847.1-2522.5,867.5-2530.8,886.6z"/>
			<path display="inline" fill="#CDCCCC" d="M-5566.4-1518.5c-0.9-2.6-3.8-4-6.4-3c-29.3,10.4-55,29-74.2,53.7
			c-1.7,2.2-1.3,5.3,0.9,7c0.9,0.7,2,1.1,3.1,1.1c1.5,0,3-0.7,4-1.9c18-23.2,42.1-40.6,69.6-50.4
			C-5566.8-1513-5565.5-1515.9-5566.4-1518.5z"/>
			<path display="inline" fill="#CDCCCC" d="M-2935-449.7h90c2.8,0,5-2.2,5-5c0-2.8-2.2-5-5-5h-90c-2.8,0-5,2.2-5,5
			C-2940-451.9-2937.8-449.7-2935-449.7z"/>
			<path display="inline" fill="#CDCCCC" d="M-2755-449.7h90c2.8,0,5-2.2,5-5c0-2.8-2.2-5-5-5h-90c-2.8,0-5,2.2-5,5
			C-2760-451.9-2757.8-449.7-2755-449.7z"/>
			<path display="inline" fill="#CDCCCC" d="M-2297.3,583.6h-57.8c-11.1,0-22.2,1.1-33,3.3c-2.7,0.6-4.4,3.2-3.9,5.9
			c0.5,2.4,2.6,4,4.9,4c0.3,0,0.7,0,1-0.1c10.1-2.1,20.6-3.1,31-3.1h57.8c2.8,0,5-2.2,5-5C-2292.3,585.8-2294.5,583.6-2297.3,583.6z
			"/>
			<path display="inline" fill="#CDCCCC" d="M203,1920.7h-90c-2.8,0-5,2.2-5,5c0,2.8,2.2,5,5,5h90c2.8,0,5-2.2,5-5
			C208,1923,205.7,1920.7,203,1920.7z"/>
			<path display="inline" fill="#CDCCCC" d="M23,1920.7h-90c-2.8,0-5,2.2-5,5c0,2.8,2.2,5,5,5h90c2.8,0,5-2.2,5-5
			C28,1923,25.7,1920.7,23,1920.7z"/>
			<path display="inline" fill="#CDCCCC" d="M-517,1920.7h-90c-2.8,0-5,2.2-5,5c0,2.8,2.2,5,5,5h90c2.8,0,5-2.2,5-5
			C-512,1923-514.3,1920.7-517,1920.7z"/>
			<path display="inline" fill="#CDCCCC" d="M563,1920.7h-90c-2.8,0-5,2.2-5,5c0,2.8,2.2,5,5,5h90c2.8,0,5-2.2,5-5
			C568,1923,565.7,1920.7,563,1920.7z"/>
			<path display="inline" fill="#CDCCCC" d="M383,1920.7h-90c-2.8,0-5,2.2-5,5c0,2.8,2.2,5,5,5h90c2.8,0,5-2.2,5-5
			C388,1923,385.7,1920.7,383,1920.7z"/>
			<path display="inline" fill="#CDCCCC" d="M-337,1920.7h-90c-2.8,0-5,2.2-5,5c0,2.8,2.2,5,5,5h90c2.8,0,5-2.2,5-5
			C-332,1923-334.3,1920.7-337,1920.7z"/>
			<path display="inline" fill="#CDCCCC" d="M-157,1920.7h-90c-2.8,0-5,2.2-5,5c0,2.8,2.2,5,5,5h90c2.8,0,5-2.2,5-5
			C-152,1923-154.3,1920.7-157,1920.7z"/>
			<path display="inline" fill="#CDCCCC" d="M1580.1,1610.1c-2.8,0-5,2.2-5,5v90c0,2.8,2.2,5,5,5c2.8,0,5-2.2,5-5v-90
			C1585.1,1612.3,1582.9,1610.1,1580.1,1610.1z"/>
			<path display="inline" fill="#CDCCCC" d="M743,1920.7h-90c-2.8,0-5,2.2-5,5c0,2.8,2.2,5,5,5h90c2.8,0,5-2.2,5-5
			C748,1923,745.7,1920.7,743,1920.7z"/>
			<path display="inline" fill="#CDCCCC" d="M1580.1,1430.1c-2.8,0-5,2.2-5,5v90c0,2.8,2.2,5,5,5c2.8,0,5-2.2,5-5v-90
			C1585.1,1432.3,1582.9,1430.1,1580.1,1430.1z"/>
			<path display="inline" fill="#CDCCCC" d="M1575.1,1080.6v84.5c0,2.8,2.2,5,5,5c2.8,0,5-2.2,5-5v-84.5
			C1582.8,1080.6,1579.3,1080.6,1575.1,1080.6z"/>
			<path display="inline" fill="#CDCCCC" d="M1461.2,1915.6c-12.8,3.4-26,5.1-39.4,5.1H1373c-2.8,0-5,2.2-5,5c0,2.8,2.2,5,5,5h48.9
			c14.2,0,28.3-1.8,41.9-5.4c2.7-0.7,4.3-3.4,3.6-6.1C1466.6,1916.5,1463.9,1914.9,1461.2,1915.6z"/>
			<path display="inline" fill="#CDCCCC" d="M1580.1,1250.1c-2.8,0-5,2.2-5,5v90c0,2.8,2.2,5,5,5c2.8,0,5-2.2,5-5v-90
			C1585.1,1252.3,1582.9,1250.1,1580.1,1250.1z"/>
			<path
				display="inline"
				fill="#CDCCCC"
				d="M1578.6,1790c-2.7-0.5-5.3,1.3-5.8,4.1c-5,28.8-18.2,55.4-38.1,77.1
			c-1.9,2-1.7,5.2,0.3,7.1c1,0.9,2.2,1.3,3.4,1.3c1.4,0,2.7-0.5,3.7-1.6c21.2-23,35.2-51.4,40.6-82.1
			C1583.2,1793.1,1581.3,1790.5,1578.6,1790z"/>
			<path display="inline" fill="#CDCCCC" d="M923,1920.7h-90c-2.8,0-5,2.2-5,5c0,2.8,2.2,5,5,5h90c2.8,0,5-2.2,5-5
			C928,1923,925.7,1920.7,923,1920.7z"/>
			<path display="inline" fill="#CDCCCC" d="M1283,1920.7h-90c-2.8,0-5,2.2-5,5c0,2.8,2.2,5,5,5h90c2.8,0,5-2.2,5-5
			C1288,1923,1285.7,1920.7,1283,1920.7z"/>
			<path display="inline" fill="#CDCCCC" d="M1103,1920.7h-90c-2.8,0-5,2.2-5,5c0,2.8,2.2,5,5,5h90c2.8,0,5-2.2,5-5
			C1108,1923,1105.7,1920.7,1103,1920.7z"/>
			<path display="inline" fill="#CDCCCC" d="M-2317,1920.7h-90c-2.8,0-5,2.2-5,5c0,2.8,2.2,5,5,5h90c2.8,0,5-2.2,5-5
			C-2312,1923-2314.3,1920.7-2317,1920.7z"/>
			<path display="inline" fill="#CDCCCC" d="M-2468.9,629.9c-22.4,21.8-38,49.4-45.1,79.7c-0.6,2.7,1,5.4,3.7,6
			c0.4,0.1,0.8,0.1,1.1,0.1c2.3,0,4.3-1.6,4.9-3.9c6.7-28.4,21.3-54.3,42.4-74.8c2-1.9,2-5.1,0.1-7.1
			C-2463.8,628-2466.9,628-2468.9,629.9z"/>
			<path display="inline" fill="#CDCCCC" d="M-2137,1920.7h-90c-2.8,0-5,2.2-5,5c0,2.8,2.2,5,5,5h90c2.8,0,5-2.2,5-5
			C-2132,1923-2134.3,1920.7-2137,1920.7z"/>
			<path display="inline" fill="#CDCCCC" d="M-2497,1920.7h-90c-2.8,0-5,2.2-5,5c0,2.8,2.2,5,5,5h90c2.8,0,5-2.2,5-5
			C-2492,1923-2494.3,1920.7-2497,1920.7z"/>
			<path display="inline" fill="#CDCCCC" d="M-1777,1920.7h-90c-2.8,0-5,2.2-5,5c0,2.8,2.2,5,5,5h90c2.8,0,5-2.2,5-5
			C-1772,1923-1774.3,1920.7-1777,1920.7z"/>
			<path display="inline" fill="#CDCCCC" d="M-2118.4,580.7c-9.8,1.9-19.8,2.9-29.8,2.9h-59c-2.8,0-5,2.2-5,5c0,2.8,2.2,5,5,5h59
			c10.7,0,21.4-1,31.8-3.1c2.7-0.5,4.5-3.2,3.9-5.9C-2113.1,581.9-2115.7,580.2-2118.4,580.7z"/>
			<path display="inline" fill="#CDCCCC" d="M-1957,1920.7h-90c-2.8,0-5,2.2-5,5c0,2.8,2.2,5,5,5h90c2.8,0,5-2.2,5-5
			C-1952,1923-1954.3,1920.7-1957,1920.7z"/>
			<path
				display="inline"
				fill="#CDCCCC"
				d="M-2932.1,984.7c-0.3-2.7-2.7-4.7-5.5-4.5c-31,3.1-60.4,15.1-84.8,34.5
			c-2.2,1.7-2.5,4.9-0.8,7c1,1.2,2.4,1.9,3.9,1.9c1.1,0,2.2-0.4,3.1-1.1c23-18.2,50.5-29.4,79.6-32.4
			C-2933.9,989.9-2931.9,987.5-2932.1,984.7z"/>
			<path display="inline" fill="#CDCCCC" d="M-1597,1920.7h-90c-2.8,0-5,2.2-5,5c0,2.8,2.2,5,5,5h90c2.8,0,5-2.2,5-5
			C-1592,1923-1594.3,1920.7-1597,1920.7z"/>
			<path display="inline" fill="#CDCCCC" d="M-3068.8,1808.3c-0.7-2.7-3.5-4.2-6.2-3.5s-4.2,3.5-3.5,6.1c8.3,30,24.9,56.9,48.2,77.9
			c1,0.9,2.2,1.3,3.3,1.3c1.4,0,2.7-0.6,3.7-1.7c1.8-2.1,1.7-5.2-0.4-7.1C-3045.4,1861.7-3061,1836.4-3068.8,1808.3z"/>
			<path display="inline" fill="#CDCCCC" d="M-3074.3,1720.1v-90c0-2.8-2.2-5-5-5c-2.8,0-5,2.2-5,5v90c0,2.8,2.2,5,5,5
			C-3076.5,1725.1-3074.3,1722.9-3074.3,1720.1z"/>
			<path display="inline" fill="#CDCCCC" d="M-2677,1920.7h-90c-2.8,0-5,2.2-5,5c0,2.8,2.2,5,5,5h90c2.8,0,5-2.2,5-5
			C-2672,1923-2674.3,1920.7-2677,1920.7z"/>
			<path
				display="inline"
				fill="#CDCCCC"
				d="M-2578.6,954.3c-1.6-2.3-4.7-2.9-6.9-1.3c-24.2,16.5-52.5,25.6-81.8,26.4
			c-2.8,0.1-4.9,2.4-4.9,5.1c0.1,2.7,2.3,4.9,5,4.9c0,0,0.1,0,0.1,0c31.2-0.9,61.4-10.6,87.1-28.2
			C-2577.6,959.6-2577,956.5-2578.6,954.3z"/>
			<path display="inline" fill="#CDCCCC" d="M-2752.2,984.4c0-2.8-2.2-5-5-5h-90c-2.8,0-5,2.2-5,5c0,2.8,2.2,5,5,5h90
			C-2754.4,989.4-2752.2,987.2-2752.2,984.4z"/>
			<path display="inline" fill="#CDCCCC" d="M-2857,1920.7h-63.9c-8.4,0-16.9-0.7-25.1-2c-2.7-0.4-5.3,1.4-5.7,4.1
			c-0.4,2.7,1.4,5.3,4.1,5.7c8.8,1.4,17.8,2.2,26.7,2.2h63.9c2.8,0,5-2.2,5-5C-2852,1923-2854.3,1920.7-2857,1920.7z"/>
			<path display="inline" fill="#CDCCCC" d="M-1237,1920.7h-90c-2.8,0-5,2.2-5,5c0,2.8,2.2,5,5,5h90c2.8,0,5-2.2,5-5
			C-1232,1923-1234.3,1920.7-1237,1920.7z"/>
			<path display="inline" fill="#CDCCCC" d="M-877,1920.7h-90c-2.8,0-5,2.2-5,5c0,2.8,2.2,5,5,5h90c2.8,0,5-2.2,5-5
			C-872,1923-874.3,1920.7-877,1920.7z"/>
			<path display="inline" fill="#CDCCCC" d="M-3074.3,1142.7c0-17.1,2.8-34,8.3-50c0.9-2.6-0.5-5.5-3.1-6.4c-2.6-0.9-5.5,0.5-6.4,3.1
			c-5.9,17.1-8.9,35-8.9,53.3v37.4c0,2.8,2.2,5,5,5c2.8,0,5-2.2,5-5V1142.7z"/>
			<path display="inline" fill="#CDCCCC" d="M-697,1920.7h-90c-2.8,0-5,2.2-5,5c0,2.8,2.2,5,5,5h90c2.8,0,5-2.2,5-5
			C-692,1923-694.3,1920.7-697,1920.7z"/>
			<path display="inline" fill="#CDCCCC" d="M-1417,1920.7h-90c-2.8,0-5,2.2-5,5c0,2.8,2.2,5,5,5h90c2.8,0,5-2.2,5-5
			C-1412,1923-1414.3,1920.7-1417,1920.7z"/>
			<path display="inline" fill="#CDCCCC" d="M-1057,1920.7h-90c-2.8,0-5,2.2-5,5c0,2.8,2.2,5,5,5h90c2.8,0,5-2.2,5-5
			C-1052,1923-1054.3,1920.7-1057,1920.7z"/>
		</g>
	</g>
	<g id="EDIFICI_1">
		<g>
			<g>
				<g>
					<g>
						<path
							fill="#F39669"
							d="M648.8,852.9c-5.8-86.1-25.2-369.1-32.9-447.9c-8-81.9-27.7-205.4-32.4-234.5
						c6.9-2.7,11.8-8.4,11.8-15.2c0.1-9.5-9.4-17.2-20.9-16.9c-11.2,0.2-20.3,8.3-19.8,17.6c0.4,6.9,5.7,12.7,13.2,15
						c-1.8,39.2-11.1,236.5-15.6,282.8c0,0-28.5-284.9-36.1-334.9c7.3-2.6,12.4-8.5,12.4-15.5c0-9.5-9.4-17.2-20.9-16.9
						c-11.2,0.2-20.3,8.3-19.8,17.6c0.4,6.9,5.8,12.7,13.3,15c-1.8,23.1-14,182.2-23,294.7c-7.7-2.6-18-4.9-31-5.8
						c1.5-4.8,3.1-10.9,3.7-17.2c1.3-13.9-13.1-18.9-13.1-18.9s-14.4,4.9-13.3,18.8c0.5,6.3,2,12.4,3.5,17.2
						c-13.2,0.8-23.5,3.2-31.1,5.7c-7.9-112.6-18.3-272-19.9-295.1c7.8-2.3,13.4-8.5,13.5-15.7c0.1-9.3-9-16.9-20.3-16.9
						c-11.2,0-20.4,7.5-20.5,16.8c0,7,5,12.9,12.3,15.6c-8.2,49.9-39.7,334.6-39.7,334.6c-4.1-46.4-11.2-243.7-12.6-283
						c7.8-2.4,13.3-8.5,13.4-15.7c0-9.3-9-16.9-20.3-16.9c-11.2,0-20.4,7.5-20.5,16.8c0,6.7,4.7,12.5,11.6,15.3
						c-5,29-26.1,152.4-34.9,234.2c-8.4,77.5-30.2,352.7-37.4,443.4c-1.2,14.8,11.9,27.5,29.2,29.3c2-16.7,20.7-169.9,47.2-169.9
						c26.1,0,44.7,150.4,47.1,170.9l25.6,0.2c2.3-19.9,27.6-228.3,63.4-228.3c34.9,0,59.8,200.1,63.2,228.8l31.9,0l-7-0.1
						c0,0,19.4-171.4,47.4-171.4c26.4,0,45.1,153.5,47.2,171.4l3.4,0C636.7,877.9,649.7,866.5,648.8,852.9z M425,496l-21.6,8.9
						c-1.4-17.2-3.3-43.3-5.4-74c4.8-2.3,13.7-5.4,27.1-6.7c-1.8,3.6-3.4,9-3.4,17.3c-0.1,20.8,9.5,23.8,9.5,23.8L425,496z
						 M470.5,505.1l-21.5-9l-5.8-30.8c0,0,9.6-2.9,9.7-23.8c0-8.3-1.4-13.7-3.2-17.3c12.9,1.3,21.8,4.2,27.1,6.5
						C474.2,461.6,472,487.9,470.5,505.1z"/>
					</g>
				</g>
			</g>
		</g>
	</g>
	<g id="NUVOLS">
		<path fill="#AFDCE3" d="M130.2,239.9c-0.2-2-0.2-3.2-0.2-4.8c0-28.6,23.2-51.6,51.7-51.6c1.3,0,2.4,0.3,3.6,0.4
		c7.6-19.1,26.1-32.7,48-32.7c17.1,0,32.1,8.4,41.5,21.2c3.3-0.7,6.7-1,10.1-1c25,0,45.8,17.5,50.6,41.1c16,4.1,28.6,14.5,33.7,27.5
		H130.2z"/>
		<path fill="#AFDCE3" d="M882.1,235.9c0.9-18,15.7-32.4,33.9-32.4c4.2,0,8.3,0.9,12,2.3c3.2-20.5,20.9-36.3,42.3-36.3
		c23.7,0,43,19.2,43,43c0,0.5-0.2,1.1-0.2,1.6c0.5,0,1.1-0.1,1.6-0.1c12.4,0,22.5,10,23.1,22H882.1z"/>
		<path
			fill="#AFDCE3"
			d="M1458.2,159.9c-0.2-2-0.2-3.2-0.2-4.8c0-28.6,23.2-51.6,51.7-51.6c1.3,0,2.4,0.3,3.6,0.4
		c7.6-19.1,26.1-32.7,48-32.7c17.1,0,32.1,8.4,41.5,21.2c3.3-0.7,6.7-1,10.1-1c25,0,45.8,17.5,50.6,41.1c16,4.1,28.6,14.5,33.7,27.5
		H1458.2z"/>
	</g>
	<g id="EIXAMPLE">
		<g>
			<path fill="#FFFFFF" d="M196.1,821.1v31.5h55.2v41.5h-55.2v32.5h58.2v41.5H147.1V779.6h107.2v41.5H196.1z"/>
			<path fill="#FFFFFF" d="M314.8,968.1h-49V779.6h49V968.1z"/>
			<path fill="#FFFFFF" d="M341.1,779.6h60.2l28.8,48.8l28.8-48.8h60.3l-60.3,87.8l69.8,100.8h-59l-39.5-61.5l-43.2,61.5h-59.2
			l73.8-100.8L341.1,779.6z"/>
			<path fill="#FFFFFF" d="M604.8,935.3l-13,32.8h-52l72.5-188.5h53.5l71,188.5h-52.2l-12.2-32.8H604.8z M639.1,837.8h-0.5l-20.2,60
			h40.8L639.1,837.8z"/>
			<path fill="#FFFFFF" d="M786.1,779.6h48.2l38.2,100.8l40.5-100.8h48.8l28.5,188.5h-49l-13.8-108.5h-0.5l-45.2,108.5h-19.5
			l-43.2-108.5h-0.5l-15.8,108.5h-48.8L786.1,779.6z"/>
			<path fill="#FFFFFF" d="M997.3,779.6h75c40.5,0,68.5,18.8,68.5,62c0,44.5-24,64-66.8,64h-27.8v62.5h-49V779.6z M1046.3,866.1h8.2
			c17.8,0,35.2,0,35.2-23c0-23.8-16.2-24-35.2-24h-8.2V866.1z"/>
			<path fill="#FFFFFF" d="M1197.8,926.6h58.8v41.5h-107.8V779.6h49V926.6z"/>
			<path fill="#FFFFFF" d="M1320.2,821.1v31.5h55.2v41.5h-55.2v32.5h58.2v41.5h-107.2V779.6h107.2v41.5H1320.2z"/>
		</g>
		<path
			fill="#FFFFFF"
			stroke="#FFFFFF"
			stroke-width="15"
			stroke-miterlimit="10"
			d="M1409.2,973.3c12.6,0,22.8-10.2,22.8-22.8
		V790.3c0-12.6-10.2-22.8-22.8-22.8h0c-5,0-9.1-4.1-9.1-9.1v-5c0-5,4.1-9.1,9.1-9.1l0,0c25.4,0,46.1,20.6,46.1,46.1v160.3
		c0,25.4-20.6,46-46,46h0c-5,0-9.1-4.1-9.1-9.1v-5C1400.1,977.4,1404.2,973.3,1409.2,973.3L1409.2,973.3z"/>
		<path
			fill="#FFFFFF"
			stroke="#FFFFFF"
			stroke-width="15"
			stroke-miterlimit="10"
			d="M123.1,972.3c-12.6,0-22.8-10.2-22.8-22.8
		V789.3c0-12.6,10.2-22.8,22.8-22.8h0c5,0,9.1-4.1,9.1-9.1v-5c0-5-4.1-9.1-9.1-9.1l0,0c-25.4,0-46.1,20.6-46.1,46.1v160.3
		c0,25.4,20.6,46,46,46h0c5,0,9.1-4.1,9.1-9.1v-5C132.2,976.4,128.1,972.3,123.1,972.3L123.1,972.3z"/>
	</g>
	<g id="ONADES_1_CAPA_SUPERIOR">
		<g>
			<path
				fill="none"
				stroke="#CEE3C3"
				stroke-width="30"
				stroke-linecap="round"
				stroke-linejoin="round"
				stroke-miterlimit="10"
				d="
			M27,967.3c46.5,0,46.5,6.4,93.1,6.4c46.5,0,46.5-6.4,93.1-6.4c46.5,0,46.5,6.4,93.1,6.4c46.5,0,46.5-6.4,93.1-6.4
			c46.5,0,46.5,6.4,93.1,6.4c46.5,0,46.5-6.4,93.1-6.4c46.5,0,46.5,6.4,93.1,6.4c46.5,0,46.5-6.4,93.1-6.4c46.5,0,46.5,6.4,93.1,6.4
			c46.5,0,46.5-6.4,93.1-6.4c46.5,0,46.5,6.4,93.1,6.4c46.5,0,46.5-6.4,93.1-6.4c46.5,0,46.5,6.4,93.1,6.4c46.5,0,46.5-6.4,93.1-6.4
			c46.5,0,46.5,6.4,93.1,6.4c46.5,0,46.5-6.4,93.1-6.4c46.5,0,46.5,6.4,93.1,6.4c46.5,0,46.5-6.4,93.1-6.4c46.5,0,46.5,6.4,93.1,6.4
			c46.5,0,46.5-6.4,93.1-6.4"/>
		</g>
	</g>
	<g id="AVATAR">
		<g>
			<path fill="#F9C997" d="M1699.7,601.9c-11.8-2.1-26.1-4-40.8-4c-14.7,0-29.1,1.7-41,3.8l38.5,11c0.6,0.8,1.5,1.2,2.4,1.2l0,0
			c0.9,0,1.8-0.4,2.4-1.2L1699.7,601.9z"/>
			<path fill="#F9C997" d="M1688,584.3l2.2,15.8c0,0-13.4,27.6-31.3,27.6c-17.9,0-31.3-27.6-31.3-27.6l2.2-15.8H1688z"/>
			<g>
				<path id="pantalones_2_3_" fill="#3D3D3C" d="M1743.5,943.1l-11.9-174.8h-144l-10,174.8l58.5,9.6l8.9-141.7
				c0.4-5.9,5.4-10.6,11.3-10.6h8.2c5.9,0,11,4.8,11.3,10.6l9.1,141.7L1743.5,943.1z"/>
				<path fill="#F9C997" d="M1762.9,792l2-2.4l-31.2-25.9l-1.9,2.3c-7,8.6-5.8,21.4,2.7,28.7C1742.9,802,1755.7,800.8,1762.9,792z"/>
				<path fill="#F9C997" d="M1587.7,764.9l-1.9-2.4l-32.3,25.3l2.4,2.3c7,9,19.8,10.5,28.4,3.4C1593,786.4,1594.5,773.7,1587.7,764.9
				z"/>
				<ellipse fill="#C99666" cx="1756.8" cy="495" rx="18.5" ry="23.7"/>
				<ellipse fill="#F9C997" cx="1557.8" cy="495" rx="18.5" ry="23.7"/>
				<path fill="#F9C997" d="M1639.7,594.6c-44.6,0-80.7-36.6-80.7-81.7v-86.3c0-45.1,36.1-81.7,80.7-81.7h19.8v249.6H1639.7z"/>
				<path fill="#C99666" d="M1674.9,594.6c44.6,0,80.7-36.6,80.7-81.7v-86.3c0-45.1-36.1-81.7-80.7-81.7h-17.5v249.6H1674.9z"/>
				<circle fill="#F9C997" cx="1659.3" cy="510.1" r="12.4"/>
				<polygon fill="#994618" points="1636.5,958.5 1572.4,958.5 1572.4,947.9 1577.9,938.2 1636.5,947.6 			"/>
				<polygon fill="#994618" points="1684.5,958.5 1746.4,959.4 1747,948.8 1743.3,939.8 1684.5,945 			"/>
				<g>
					<path
						fill="#994618"
						d="M1729.4,608.9c-8-8-21-8-28.9,0c-7.9,8-7.9,20.9,0,28.8l4.2,4.2c10.2,10.3,20.4,20.6,30.4,31
					c10,10.4,19.9,20.9,29.2,31.4c2.3,2.6,4.5,5.2,6.6,7.8l0.3,0.4l-2.2,3.4c-7.6,11.1-16.6,22.5-25.5,33.7l-9.6,14.7l31.1,25.4
					l10.8-14c9.3-11.6,18-23.8,27-36.7l1.7-2.5l2.1-3.3c1.9-3.1,3.8-6.2,5.2-9.5c0.9-1.6,1.3-3.2,1.9-4.9c0.4-1.6,0.7-3.3,0.9-4.9
					l0.2-2.5l0.1-1.3c0-0.4-0.2-0.8-0.2-1.2c-0.4-1.7-0.7-3.2-1.2-4.9l-0.8-2.4c-0.3-0.8-0.5-1.6-1-2.4c-0.9-1.5-1.7-3.1-2.7-4.6
					l-3.2-4.4c-0.5-0.7-1.1-1.4-1.6-2.2l-1.4-1.8c-2.5-3.2-5.1-6-7.6-8.9c-10.1-11.4-20.2-22.1-30.4-32.8
					c-10.2-10.6-20.5-21.1-30.9-31.5L1729.4,608.9z"/>
					<path
						fill="#994618"
						d="M1620.6,637.7c7.9-7.9,8-20.8,0.1-28.8c-7.9-8.1-20.9-8.1-28.9-0.1l-4.2,4.2
					c-10.3,10.3-20.6,20.7-30.8,31.2c-10.2,10.6-20.3,21.2-30.4,32.4c-2.5,2.8-5,5.7-7.6,8.8l-2.4,3c-1.1,1.4-2.2,2.9-3.2,4.3
					l-1.6,2.2l-1.4,2.3c-0.9,1.5-1.9,3-2.3,4.6l-0.9,2.4l-0.6,2.4c-0.3,1.6-1,3.3-0.7,5c0.2,3.3,0.6,6.6,1.9,9.9
					c1.3,3.2,2.9,6.5,4.8,9.6c0.4,0.8,0.9,1.6,1.4,2.3l1.1,1.8l1.6,2.5c8.6,13.2,17.4,24.8,26.4,36.6l10.6,13.7l32.2-25.2
					l-10.3-13.4c-8.6-11.3-17.3-22.9-24.5-34l-1.6-2.6l1-1.3c2.1-2.5,4.4-5.1,6.7-7.7c9.3-10.4,19.2-20.8,29.2-31.1
					c10-10.3,20.1-20.6,30.3-30.8L1620.6,637.7z"/>
					<path fill="#994618" d="M1715.5,601.6c-7.5-1.7-17.1-3.5-28-4.8c-8.7-1.1-18.3,20.8-28,20.8c-10.3,0-20.4-21.7-29.7-20.5
					c-10.1,1.3-19.2,3.1-26.2,4.6c-8.5,1.9-15.3,11-15.3,19.7V770h142.5V621.3C1730.8,612.6,1724,603.5,1715.5,601.6z"/>
					<path fill="#65360D" stroke="#65360D" stroke-width="4" stroke-miterlimit="10" d="M1659.6,617.5l0,152.5L1659.6,617.5z"/>
					<polyline fill="#65360D" points="1659.6,618.2 1617,580 1603.6,607.2 				"/>
					<polyline fill="#65360D" points="1659.6,618.2 1693.6,580 1715.5,605.4 				"/>
				</g>
				<path fill="#F9C997" d="M1728.7,771.4c2.9,2.3,6.5,2.5,8,0.5c1.5-2,0.4-5.5-2.5-7.7c-2.9-2.3-6.5-2.5-8-0.5
				C1724.6,765.6,1725.7,769.1,1728.7,771.4z"/>
				<path fill="#F9C997" d="M1590.6,770.3c-2.9,2.3-6.5,2.5-8,0.5c-1.5-2-0.4-5.5,2.5-7.7c2.9-2.3,6.5-2.5,8-0.5
				C1594.7,764.6,1593.5,768.1,1590.6,770.3z"/>
				<path
					id="gafas_3_5_"
					fill="#3D3D3C"
					d="M1751.6,464.6c-0.6-0.9-1.8-0.7-2.3-2.7c-0.6-2.1-5.7-16.2-11.5-19.4
				c-5.7-3.2-16.7-8.7-43.3-10.6c-20.6-0.5-33.1-1-36.6-1.1v0c0,0-0.2,0-0.5,0c-0.4,0-0.5,0-0.5,0v0c-3.5,0.1-16,0.6-36.6,1.1
				c-26.6,1.9-37.6,7.4-43.4,10.6c-5.7,3.2-10.9,17.3-11.5,19.4c-0.6,2.1-1.7,1.9-2.3,2.7c-0.6,0.9,0.1,5.9,2.1,9.1
				c2.2,18.1,9.6,28.4,14.2,33.9c4.6,5.5,17.4,8.1,26.3,7.8c19.6-3.4,22.9-9.5,31.5-18c8.5-8.5,15.2-31.8,16.2-34.5
				c0.7-2,3-2.7,4-2.9c1,0.2,3.2,0.9,4,2.9c1,2.7,7.7,25.9,16.2,34.5c8.5,8.5,11.8,14.6,31.5,18c8.9,0.4,21.6-2.3,26.3-7.8
				c4.6-5.5,12-15.8,14.2-33.9C1751.5,470.4,1752.3,465.4,1751.6,464.6z M1647,468c-1.5,6.8-6.7,20.6-12.6,27.3
				c-5.9,6.6-9.8,12.6-24.7,15.9c-8.6,1.1-21.3,0.2-27.3-7c-5.9-7.2-11.8-18.6-11.8-29.5c0-10.9,0.7-14.8,0.7-14.8
				s3.5-12.3,12.8-16.3c9.3-4,24-6.6,40.1-5.5c16.1,1.1,21.5,3.8,22.8,7.4C1648.3,449,1648.5,461.2,1647,468z M1732.3,504.1
				c-5.9,7.2-18.7,8.1-27.3,7c-14.9-3.3-18.8-9.3-24.7-15.9c-5.9-6.6-11.1-20.4-12.6-27.3c-1.5-6.8-1.3-18.9,0-22.5
				c1.3-3.6,6.7-6.2,22.8-7.4c16.1-1.1,30.9,1.5,40.1,5.5c9.3,4,12.8,16.3,12.8,16.3s0.7,4,0.7,14.8
				C1744.1,485.5,1738.2,496.9,1732.3,504.1z"/>
				<path
					id="pelo_2_3_"
					fill="#65360D"
					d="M1704.7,380.2c-4.5,22.9,19.9,3.5,19.9,3.5c-4.6,33.4,14.7,39.6,14.7,39.6
				c14.2,3,6.5,55.4,6.5,55.4c0.4,6,3.6,0,3.6,0c29.7-31,33-70.2,33-70.3c0.6-6.7,1.2-13,0-19.7c-1.1-6.2-3.2-12.3-6.1-17.9
				c-5.7-11.3-14.2-21-23.6-29.4c-8.5-7.6-17.8-14.2-27.6-20c-5.8-3.5-11.9-6.7-18.1-9.5c-3.5-1.6-1.9-9.3-1.3-12.5
				c1-5,3.1-9.8,6.7-13.4c0.7-0.7-1.6-4.4-2-5.1c-0.9-1.7-2-3.2-3.3-4.6c-3.7-3.9-8.6-6.2-13.9-7c-9.1-1.3-18.5,1.3-26.9,4.6
				c-15.9,6.3-30.5,16.1-44.1,26.3c-2.3,1.7-4.6,3.5-6.9,5.3c-2.1,1.6-4.6,4.6-7,5.6c-0.1,0-87.2,37-76.9,97.1c0,0,3.4,39.3,33,70.3
				c0,0,3.2,6,3.6,0c0,0-7.8-52.4,6.5-55.4c0,0,19.4-6.2,14.7-39.6c0.1,0.6,2.9,1.8,3.4,2c2.4,1.2,5,2.1,7.7,2.1
				c1.9,0,3.8-0.5,5.3-1.5c0.9-0.6,1.7-1.4,2.4-2.3c0.8-1.1,1-2.8,2.3-3.4c0.3-0.1,0.7-0.2,1-0.3c1.2-0.3,2.3-0.6,3.5-0.9
				c3.9-1,7.7-2,11.6-2.9c5.3-1.3,10.6-2.4,15.9-3.5c5.9-1.2,11.9-2.3,17.9-3.1c5.8-0.8,11.6-1.5,17.5-1.8c4.9-0.2,9.9-0.3,14.8,0.5
				c3.4,0.5,7.1,1.4,9.7,3.7C1704.6,374.4,1705.3,377.3,1704.7,380.2z"/>
			</g>
		</g>
	</g>
</svg>
