<?xml version="1.0" encoding="utf-8"?>
<!-- Generator: Adobe Illustrator 18.1.0, SVG Export Plug-In . SVG Version: 6.00 Build 0)  -->
<svg version="1.1" xmlns="http://www.w3.org/2000/svg" xmlns:xlink="http://www.w3.org/1999/xlink" x="0px" y="0px" viewBox="0 0 1919 1080" enable-background="new 0 0 1919 1080" xml:space="preserve">
	<g id="FONS">
		<rect x="0" y="0" fill="#ECCDE3" width="1919" height="1080"/>
	</g>
	<g id="CARRETERA">
		<path fill="#999999" d="M981.2,1080.3c0.4,0,20.8,0,41.9,0.1V790.3c0-62.4,50.8-113.2,113.2-113.2h783v-90.2h-783
		c-112.2,0-203.4,91.3-203.4,203.4v290.1C954.6,1080.3,977.8,1080.3,981.2,1080.3z"/>
		<path fill="#CDCCCC" d="M981.2,1080.3c0.1,0,0.7,0,1.8,0v-83.7c0-2.8-2.2-5-5-5c-2.8,0-5,2.2-5,5v83.7
		C977.2,1080.3,980.1,1080.3,981.2,1080.3z"/>
		<path fill="#CDCCCC" d="M1050.9,656.8c-1.6-2.3-4.7-2.9-7-1.3c-25.8,17.7-45.8,42.2-58,70.9c-1.1,2.5,0.1,5.5,2.6,6.6
		c0.6,0.3,1.3,0.4,2,0.4c1.9,0,3.8-1.1,4.6-3c11.4-26.9,30.3-49.9,54.5-66.5C1051.9,662.2,1052.5,659.1,1050.9,656.8z"/>
		<path fill="#CDCCCC" d="M1924.3,632c0-2.8-2.2-5-5-5h-68.2c-2.8,0-5,2.2-5,5c0,2.8,2.2,5,5,5h68.2
		C1922.1,637,1924.3,634.7,1924.3,632z"/>
		<path fill="#CDCCCC" d="M1406.1,632c0-2.8-2.2-5-5-5h-90c-2.8,0-5,2.2-5,5c0,2.8,2.2,5,5,5h90C1403.9,637,1406.1,634.7,1406.1,632z
		"/>
		<path fill="#CDCCCC" d="M1766.1,632c0-2.8-2.2-5-5-5h-90c-2.8,0-5,2.2-5,5c0,2.8,2.2,5,5,5h90C1763.9,637,1766.1,634.7,1766.1,632z
		"/>
		<path fill="#CDCCCC" d="M1586.1,632c0-2.8-2.2-5-5-5h-90c-2.8,0-5,2.2-5,5c0,2.8,2.2,5,5,5h90C1583.9,637,1586.1,634.7,1586.1,632z
		"/>
		<path fill="#CDCCCC" d="M1131.1,637c0.1,0,0.1,0,0.2,0c1.6-0.1,3.3-0.1,5-0.1h84.8c2.8,0,5-2.2,5-5c0-2.8-2.2-5-5-5h-84.8
		c-1.8,0-3.6,0-5.3,0.1c-2.8,0.1-4.9,2.4-4.8,5.2C1126.2,634.9,1128.5,637,1131.1,637z"/>
	</g>
	<g id="SOL">
		<path fill="#FBCD00" d="M949.2,138.8c0-50.1-40.6-90.7-90.7-90.7c-50.1,0-90.7,40.6-90.7,90.7c0,50.1,40.6,90.7,90.7,90.7
		C908.5,229.5,949.2,188.9,949.2,138.8z"/>
	</g>
	<g id="ONADES_1_CAPA_INFERIOR">
		<g>
			<path
				fill="none"
				stroke="#AFDCE3"
				stroke-width="30.597"
				stroke-linecap="round"
				stroke-miterlimit="10"
				d="M32,870.6
			c46.5,0,46.5,6.4,93.1,6.4c46.5,0,46.5-6.4,93.1-6.4c46.5,0,46.5,6.4,93.1,6.4c46.5,0,46.5-6.4,93.1-6.4c46.5,0,46.5,6.4,93.1,6.4
			c46.5,0,46.5-6.4,93.1-6.4c46.5,0,46.5,6.4,93.1,6.4c46.5,0,46.5-6.4,93.1-6.4c46.5,0,46.5,6.4,93.1,6.4c46.5,0,46.5-6.4,93.1-6.4
			c46.5,0,46.5,6.4,93.1,6.4c46.5,0,46.5-6.4,93.1-6.4c46.5,0,46.5,6.4,93.1,6.4c46.5,0,46.5-6.4,93.1-6.4c46.5,0,46.5,6.4,93.1,6.4
			c46.5,0,46.5-6.4,93.1-6.4c46.5,0,46.5,6.4,93.1,6.4c46.5,0,46.5-6.4,93.1-6.4c46.5,0,46.5,6.4,93.1,6.4c46.5,0,46.5-6.4,93.1-6.4
			"/>
		</g>
		<g>
			<path
				fill="none"
				stroke="#AFDCE3"
				stroke-width="30.597"
				stroke-linecap="round"
				stroke-miterlimit="10"
				d="M32,681.6
			c46.5,0,46.5,6.4,93.1,6.4c46.5,0,46.5-6.4,93.1-6.4c46.5,0,46.5,6.4,93.1,6.4c46.5,0,46.5-6.4,93.1-6.4c46.5,0,46.5,6.4,93.1,6.4
			c46.5,0,46.5-6.4,93.1-6.4c46.5,0,46.5,6.4,93.1,6.4c46.5,0,46.5-6.4,93.1-6.4c46.5,0,46.5,6.4,93.1,6.4c46.5,0,46.5-6.4,93.1-6.4
			c46.5,0,46.5,6.4,93.1,6.4c46.5,0,46.5-6.4,93.1-6.4c46.5,0,46.5,6.4,93.1,6.4c46.5,0,46.5-6.4,93.1-6.4c46.5,0,46.5,6.4,93.1,6.4
			c46.5,0,46.5-6.4,93.1-6.4c46.5,0,46.5,6.4,93.1,6.4c46.5,0,46.5-6.4,93.1-6.4c46.5,0,46.5,6.4,93.1,6.4c46.5,0,46.5-6.4,93.1-6.4
			"/>
		</g>
		<g>
			<path
				fill="none"
				stroke="#AFDCE3"
				stroke-width="30.597"
				stroke-linecap="round"
				stroke-miterlimit="10"
				d="M32,739.9
			c46.5,0,46.5,6.4,93.1,6.4c46.5,0,46.5-6.4,93.1-6.4c46.5,0,46.5,6.4,93.1,6.4c46.5,0,46.5-6.4,93.1-6.4c46.5,0,46.5,6.4,93.1,6.4
			c46.5,0,46.5-6.4,93.1-6.4c46.5,0,46.5,6.4,93.1,6.4c46.5,0,46.5-6.4,93.1-6.4c46.5,0,46.5,6.4,93.1,6.4c46.5,0,46.5-6.4,93.1-6.4
			c46.5,0,46.5,6.4,93.1,6.4c46.5,0,46.5-6.4,93.1-6.4c46.5,0,46.5,6.4,93.1,6.4c46.5,0,46.5-6.4,93.1-6.4c46.5,0,46.5,6.4,93.1,6.4
			c46.5,0,46.5-6.4,93.1-6.4c46.5,0,46.5,6.4,93.1,6.4c46.5,0,46.5-6.4,93.1-6.4c46.5,0,46.5,6.4,93.1,6.4c46.5,0,46.5-6.4,93.1-6.4
			"/>
		</g>
		<g>
			<path
				fill="none"
				stroke="#AFDCE3"
				stroke-width="30.597"
				stroke-linecap="round"
				stroke-miterlimit="10"
				d="M32,803.3
			c46.5,0,46.5,6.4,93.1,6.4c46.5,0,46.5-6.4,93.1-6.4c46.5,0,46.5,6.4,93.1,6.4c46.5,0,46.5-6.4,93.1-6.4c46.5,0,46.5,6.4,93.1,6.4
			c46.5,0,46.5-6.4,93.1-6.4c46.5,0,46.5,6.4,93.1,6.4c46.5,0,46.5-6.4,93.1-6.4c46.5,0,46.5,6.4,93.1,6.4c46.5,0,46.5-6.4,93.1-6.4
			c46.5,0,46.5,6.4,93.1,6.4c46.5,0,46.5-6.4,93.1-6.4c46.5,0,46.5,6.4,93.1,6.4c46.5,0,46.5-6.4,93.1-6.4c46.5,0,46.5,6.4,93.1,6.4
			c46.5,0,46.5-6.4,93.1-6.4c46.5,0,46.5,6.4,93.1,6.4c46.5,0,46.5-6.4,93.1-6.4c46.5,0,46.5,6.4,93.1,6.4c46.5,0,46.5-6.4,93.1-6.4
			"/>
		</g>
	</g>
	<g id="MONTANYA" display="none"></g>
	<g id="EDIFICI_1">
		<g>
			<g>
				<g>
					<rect x="1335.7" y="133.9" fill="#BC78AF" width="140.9" height="56"/>
				</g>
				<g>
					<rect x="1301.3" y="189.7" fill="#BC78AF" width="209.5" height="396.5"/>
				</g>
				<g>
					<rect x="1301.3" y="249.4" fill="#ECCDE3" width="209.5" height="9.7"/>
				</g>
				<g>
					<rect x="1301.3" y="313.4" fill="#ECCDE3" width="209.5" height="9.8"/>
				</g>
				<g>
					<rect x="1301.3" y="378.5" fill="#ECCDE3" width="209.5" height="9.7"/>
				</g>
				<g>
					<rect x="1301.3" y="443.8" fill="#ECCDE3" width="209.5" height="9.7"/>
				</g>
				<g>
					<rect x="1301.3" y="509.6" fill="#ECCDE3" width="209.5" height="9.7"/>
				</g>
				<g>
					<rect x="1363.4" y="188.6" fill="#ECCDE3" width="9.7" height="397.6"/>
				</g>
				<g>
					<rect x="1438.9" y="188.6" fill="#ECCDE3" width="9.8" height="397.6"/>
				</g>
				<g>
					<polygon fill="#ECCDE3" points="1370.1,195.4 1308.2,257.3 1301.3,257.3 1301.3,250.4 1363.2,188.6 				"/>
				</g>
				<g>
					<polygon fill="#ECCDE3" points="1370.1,258.5 1308.2,320.3 1301.3,320.3 1301.3,313.5 1363.2,251.6 				"/>
				</g>
				<g>
					<polygon fill="#ECCDE3" points="1370.1,322.8 1308.2,384.7 1301.3,384.7 1301.3,377.8 1363.2,316 				"/>
				</g>
				<g>
					<polygon fill="#ECCDE3" points="1370.1,391.6 1308.2,453.5 1301.3,453.5 1301.3,446.6 1363.2,384.7 				"/>
				</g>
				<g>
					<polygon fill="#ECCDE3" points="1370.1,455.5 1308.2,517.4 1301.3,517.4 1301.3,510.5 1363.2,448.6 				"/>
				</g>
				<g>
					<polygon fill="#ECCDE3" points="1370.1,524.3 1308.2,586.2 1301.3,586.2 1301.3,579.3 1363.2,517.4 				"/>
				</g>
				<g>
					<polygon fill="#ECCDE3" points="1442.2,195.4 1504.1,257.3 1511,257.3 1511,250.4 1449.1,188.6 				"/>
				</g>
				<g>
					<polygon fill="#ECCDE3" points="1442.2,258.5 1504.1,320.3 1511,320.3 1511,313.5 1449.1,251.6 				"/>
				</g>
				<g>
					<polygon fill="#ECCDE3" points="1442.2,322.8 1504.1,384.7 1511,384.7 1511,377.8 1449.1,316 				"/>
				</g>
				<g>
					<polygon fill="#ECCDE3" points="1442.2,391.6 1504.1,453.5 1511,453.5 1511,446.6 1449.1,384.7 				"/>
				</g>
				<g>
					<polygon fill="#ECCDE3" points="1442.2,455.5 1504.1,517.4 1511,517.4 1511,510.5 1449.1,448.6 				"/>
				</g>
				<g>
					<polygon fill="#ECCDE3" points="1442.2,524.3 1504.1,586.2 1511,586.2 1511,579.3 1449.1,517.4 				"/>
				</g>
			</g>
		</g>
	</g>
	<g id="EDIFICI_2">
		<g>
			<g>
				<g>
					<path
						fill-rule="evenodd"
						clip-rule="evenodd"
						fill="#BC78AF"
						d="M297.7,309.8c-1-53.6-14.4-240.5-68.9-239.9
					c-56.1,0.6-68.9,189.2-68.9,240.1v174.5v42v159.3h87h50.9v-20v-3.6v-22.9v-3.6v-22.9V609v-22.9v0v-3.6v-22.9v-3.6V533v-3.6v-2.9
					v-20.1v-3.6v-18.3v-4.6v-3.6v-22.9v-3.6v-22.9v-3.6v-22.9v-3.6v-22.9v-3.6v-22.9v-3.6v-22.9v0V317v-1.3
					C297.8,313.9,297.8,312,297.7,309.8z"/>
				</g>
			</g>
		</g>
	</g>
	<g id="EDIFICI_3">
		<g>
			<rect x="1631.8" y="131.9" fill="#BC78AF" width="140.9" height="56"/>
			<polygon fill-rule="evenodd" clip-rule="evenodd" fill="#BC78AF" points="1609.4,186.6 1795.1,186.6 1795.1,596.3 1609.4,596.3
			1609.4,186.6 		"/>
			<polygon fill-rule="evenodd" clip-rule="evenodd" fill="#ECCDE3" points="1617.3,216.2 1617.3,226.4 1787.2,226.4 1787.2,216.2
			1617.3,216.2 		"/>
			<polygon fill-rule="evenodd" clip-rule="evenodd" fill="#ECCDE3" points="1617.3,238.3 1617.3,248.5 1787.2,248.5 1787.2,238.3
			1617.3,238.3 		"/>
			<polygon fill-rule="evenodd" clip-rule="evenodd" fill="#ECCDE3" points="1617.3,260.5 1617.3,270.7 1787.2,270.7 1787.2,260.5
			1617.3,260.5 		"/>
			<polygon fill-rule="evenodd" clip-rule="evenodd" fill="#ECCDE3" points="1617.3,282.6 1617.3,292.8 1787.2,292.8 1787.2,282.6
			1617.3,282.6 		"/>
			<polygon fill-rule="evenodd" clip-rule="evenodd" fill="#ECCDE3" points="1617.3,304.8 1617.3,315 1787.2,315 1787.2,304.8
			1617.3,304.8 		"/>
			<polygon fill-rule="evenodd" clip-rule="evenodd" fill="#ECCDE3" points="1617.3,326.9 1617.3,337.1 1787.2,337.1 1787.2,326.9
			1617.3,326.9 		"/>
			<polygon fill-rule="evenodd" clip-rule="evenodd" fill="#ECCDE3" points="1617.3,349.1 1617.3,359.3 1787.2,359.3 1787.2,349.1
			1617.3,349.1 		"/>
			<polygon fill-rule="evenodd" clip-rule="evenodd" fill="#ECCDE3" points="1617.3,371.2 1617.3,381.4 1787.2,381.4 1787.2,371.2
			1617.3,371.2 		"/>
			<polygon fill-rule="evenodd" clip-rule="evenodd" fill="#ECCDE3" points="1617.3,393.4 1617.3,403.6 1787.2,403.6 1787.2,393.4
			1617.3,393.4 		"/>
			<polygon fill-rule="evenodd" clip-rule="evenodd" fill="#ECCDE3" points="1617.3,415.5 1617.3,425.7 1787.2,425.7 1787.2,415.5
			1617.3,415.5 		"/>
			<polygon fill-rule="evenodd" clip-rule="evenodd" fill="#ECCDE3" points="1617.3,437.7 1617.3,447.9 1787.2,447.9 1787.2,437.7
			1617.3,437.7 		"/>
			<polygon fill-rule="evenodd" clip-rule="evenodd" fill="#ECCDE3" points="1617.3,459.8 1617.3,470 1787.2,470 1787.2,459.8
			1617.3,459.8 		"/>
			<polygon fill-rule="evenodd" clip-rule="evenodd" fill="#ECCDE3" points="1617.3,481.9 1617.3,492.2 1787.2,492.2 1787.2,481.9
			1617.3,481.9 		"/>
			<polygon fill-rule="evenodd" clip-rule="evenodd" fill="#ECCDE3" points="1617.3,504.1 1617.3,514.3 1787.2,514.3 1787.2,504.1
			1617.3,504.1 		"/>
			<polygon fill-rule="evenodd" clip-rule="evenodd" fill="#ECCDE3" points="1617.3,526.2 1617.3,536.5 1787.2,536.5 1787.2,526.2
			1617.3,526.2 		"/>
			<polygon fill-rule="evenodd" clip-rule="evenodd" fill="#ECCDE3" points="1617.3,548.4 1617.3,558.6 1787.2,558.6 1787.2,548.4
			1617.3,548.4 		"/>
			<rect x="1617.3" y="570.5" fill-rule="evenodd" clip-rule="evenodd" fill="#ECCDE3" width="169.9" height="10.2"/>
		</g>
	</g>
	<g id="NUVOLS">
		<path
			fill="#AFDCE3"
			d="M1726.8,226.9c0.2-2,0.2-3,0.2-4.7c0-28.6-23.2-51.5-51.7-51.5c-1.3,0-2.4,0.4-3.6,0.4
		c-7.6-19.1-26.1-32.7-48-32.7c-17.1,0-32.1,8.4-41.5,21.3c-3.3-0.7-6.7-1-10.1-1c-25,0-45.8,17.4-50.6,40.9
		c-16,4.1-28.6,14.3-33.7,27.3H1726.8z"/>
		<path fill="#AFDCE3" d="M1266.9,259.9c-0.9-18-15.7-32.2-33.9-32.2c-4.2,0-8.3,1-12,2.4c-3.2-20.5-20.9-36.3-42.3-36.3
		c-23.7,0-43,19.3-43,43c0,0.5,0.2,1.1,0.2,1.6c-0.5,0-1.1-0.3-1.6-0.3c-12.4,0-22.5,9.9-23.1,21.9H1266.9z"/>
		<path
			fill="#AFDCE3"
			d="M416.8,260.9c0.2-2,0.2-3,0.2-4.7c0-28.6-23.2-51.5-51.7-51.5c-1.3,0-2.4,0.4-3.6,0.4
		c-7.6-19.1-26.1-32.7-48-32.7c-17.1,0-32.1,8.4-41.5,21.3c-3.3-0.7-6.7-1-10.1-1c-25,0-45.8,17.4-50.6,40.9
		c-16,4.1-28.6,14.3-33.7,27.3H416.8z"/>
	</g>
	<g id="SANT_MARTI" ng-click="">
		<g>
			<path
				fill="#FFFFFF"
				stroke="#FFFFFF"
				stroke-width="15"
				stroke-miterlimit="10"
				d="M1635.9,918c12.6,0,22.8-10.2,22.8-22.8V735
			c0-12.6-10.2-22.8-22.8-22.8h0c-5,0-9.1-4.1-9.1-9.1v-5c0-5,4.1-9.1,9.1-9.1l0,0c25.4,0,46.1,20.6,46.1,46.1v160.3
			c0,25.4-20.6,46-46,46h0c-5,0-9.1-4.1-9.1-9.1v-5C1626.8,922.1,1630.9,918,1635.9,918L1635.9,918z"/>
			<path
				fill="#FFFFFF"
				stroke="#FFFFFF"
				stroke-width="15"
				stroke-miterlimit="10"
				d="M84,924.1c-12.6,0-22.8-10.2-22.8-22.8V741.1
			c0-12.6,10.2-22.8,22.8-22.8h0c5,0,9.1-4.1,9.1-9.1v-5c0-5-4.1-9.1-9.1-9.1l0,0C58.6,695,38,715.6,38,741.1v160.3
			c0,25.4,20.6,46,46,46h0c5,0,9.1-4.1,9.1-9.1v-5C93.2,928.2,89.1,924.1,84,924.1L84,924.1z"/>
			<g>
				<path
					fill="#FFFFFF"
					d="M222.2,791.3c-9-7.5-20.5-12.5-32.5-12.5c-9,0-21,5.2-21,15.8c0,11,13.2,15.2,21.8,18l12.5,3.8
				c26.2,7.8,46.5,21,46.5,51.5c0,18.8-4.5,38-19.5,50.8c-14.8,12.5-34.5,17.8-53.5,17.8c-23.8,0-47-8-66.2-21.5l21-39.5
				c12.2,10.8,26.8,19.5,43.5,19.5c11.5,0,23.8-5.8,23.8-19c0-13.8-19.2-18.5-29.8-21.5c-30.8-8.8-51-16.8-51-53.2
				c0-38.2,27.2-63.2,65-63.2c19,0,42.2,6,59,15.5L222.2,791.3z"/>
				<path fill="#FFFFFF" d="M302.7,898.5l-13,32.8h-52l72.5-188.5h53.5l71,188.5h-52.2l-12.2-32.8H302.7z M337,801h-0.5l-20.2,60H357
				L337,801z"/>
				<path fill="#FFFFFF" d="M432,742.8h49L570.7,858h0.5V742.8h49v188.5h-49l-89.7-115.5H481v115.5h-49V742.8z"/>
				<path fill="#FFFFFF" d="M717.2,931.3h-49v-147h-40.5v-41.5h130v41.5h-40.5V931.3z"/>
				<path fill="#FFFFFF" d="M838,742.8h48.2l38.2,100.8L965,742.8h48.8l28.5,188.5h-49l-13.8-108.5H979l-45.2,108.5h-19.5L871,822.8
				h-0.5l-15.8,108.5H806L838,742.8z"/>
				<path fill="#FFFFFF" d="M1118,898.5l-13,32.8h-52l72.5-188.5h53.5l71,188.5h-52.2l-12.2-32.8H1118z M1152.2,801h-0.5l-20.2,60
				h40.8L1152.2,801z"/>
				<path fill="#FFFFFF" d="M1415.9,931.3h-61l-46.2-72.5h-0.5v72.5h-49V742.8h73.2c37.2,0,65.5,17.8,65.5,58
				c0,26-14.5,48.5-41.2,53.2L1415.9,931.3z M1308.2,827.3h4.8c16,0,34-3,34-23.5s-18-23.5-34-23.5h-4.8V827.3z"/>
				<path fill="#FFFFFF" d="M1492.2,931.3h-49v-147h-40.5v-41.5h130v41.5h-40.5V931.3z"/>
				<path fill="#FFFFFF" d="M1561.4,731.3l-20.2-14.8l35.2-43l27.8,20L1561.4,731.3z M1593.4,931.3h-49V742.8h49V931.3z"/>
			</g>
		</g>
	</g>
	<g id="AVATAR">
		<g>
			<path fill="#FBCC9A" d="M637.4,666.7l-10.5-154.6H499.6l-8.8,154.6l51.8,8.4l7.9-125.4c0.3-5.2,4.8-9.4,10-9.4h7.2
			c5.2,0,9.7,4.2,10,9.4l8,125.4L637.4,666.7z"/>
			<path fill="#3D3D3B" d="M634.6,624.7l-7.7-112.6H499.6l-6,105.4l-0.4,7.2h52.5l4.7-74.9c0.3-5.2,4.8-9.4,10-9.4h7.2
			c5.2,0,9.7,4.2,10,9.4l4.8,74.9H634.6z"/>
			<g>
				<path
					fill="#FBCC9A"
					d="M626.5,373.1c-7.2-7.2-18.8-7.2-25.9,0c-7.1,7.2-7.1,18.7,0,25.8l3.7,3.7c9.1,9.2,18.2,18.4,27.2,27.7
				c8.9,9.3,17.8,18.7,26.1,28.1c2,2.3,4.1,4.7,5.9,6.9l0.3,0.3l-2,3c-6.8,9.9-14.8,20.1-22.8,30.1l-9.5,11.7l28.2,23.1l9.8-12.1
				c8.3-10.4,16.4-20.7,24.4-32.3l1.5-2.2l1.9-2.9c1.7-2.8,3.4-5.6,4.7-8.4c0.8-1.4,1.2-2.9,1.7-4.4c0.4-1.5,0.6-2.9,0.8-4.4
				l0.2-2.2l0.1-1.1c0-0.4-0.1-0.7-0.2-1.1c-0.4-1.5-0.6-2.9-1-4.3l-0.7-2.1c-0.2-0.7-0.4-1.4-0.9-2.1c-0.8-1.4-1.6-2.7-2.4-4.1
				l-2.9-3.9c-0.5-0.7-1-1.3-1.5-1.9l-1.3-1.6c-2.3-2.8-4.5-5.4-6.8-8c-9-10.2-18-19.8-27.2-29.3c-9.1-9.5-18.3-18.9-27.6-28.2
				L626.5,373.1z"/>
			</g>
			<g>
				<path
					fill="#FBCC9A"
					d="M503.7,373.1c7.2-7.2,18.8-7.2,25.9,0c7.1,7.2,7.1,18.7,0,25.8l-3.7,3.7c-9.1,9.2-18.2,18.4-27.2,27.7
				c-8.9,9.3-17.8,18.7-26.1,28.1c-2,2.3-4.1,4.7-5.9,6.9l-0.3,0.3l2,3c6.8,9.9,14.8,20.1,22.8,30.1l9.5,11.7l-28.2,23.1l-9.8-12.1
				c-8.3-10.4-16.4-20.7-24.4-32.3l-1.5-2.2l-1.9-2.9c-1.7-2.8-3.4-5.6-4.7-8.4c-0.8-1.4-1.2-2.9-1.7-4.4c-0.4-1.5-0.6-2.9-0.8-4.4
				l-0.2-2.2l-0.1-1.1c0-0.4,0.1-0.7,0.2-1.1c0.4-1.5,0.6-2.9,1-4.3l0.7-2.1c0.2-0.7,0.4-1.4,0.9-2.1c0.8-1.4,1.6-2.7,2.4-4.1
				l2.9-3.9c0.5-0.7,1-1.3,1.5-1.9l1.3-1.6c2.3-2.8,4.5-5.4,6.8-8c9-10.2,18-19.8,27.2-29.3c9.1-9.5,18.3-18.9,27.6-28.2
				L503.7,373.1z"/>
			</g>
			<g>
				<path fill="#F8FAFA" d="M658.1,405c-9.1-9.5-18.3-18.9-27.6-28.2l-3.8-3.8c-7.2-7.2-18.8-7.2-25.9,0c-7.1,7.2-7.1,18.7,0,25.8
				l3.7,3.7c9.1,9.2,18.2,18.4,27.2,27.7"/>
				<path fill="#F8FAFA" d="M498.7,430c8.9-9.2,18-18.4,27.1-27.5l3.7-3.7c7.1-7.1,7.2-18.6,0.1-25.8c-7-7.2-18.7-7.3-25.9-0.1
				l-3.8,3.8c-9.2,9.2-18.4,18.5-27.5,27.9"/>
				<path fill="#F8FAFA" d="M614.3,367.2c-12-2.7-30.6-5.9-49.9-5.9c-19.3,0-38,3.3-50,5.9c-7.6,1.7-13.7,9.8-13.7,17.6v127.3H628
				V384.8C628,377,621.9,368.9,614.3,367.2z"/>
			</g>
			<path fill="#3D3D3B" d="M517.6,512.1H506v-141c0,0,5.1-4.5,11.6-4.5"/>
			<path fill="#3D3D3B" d="M612.3,512.1h11.6v-141c0,0-5.1-4.5-11.6-4.5"/>
			<path fill="#FDD995" d="M599.9,365.4c-10.6-1.8-23.4-3.6-36.5-3.6c-13.2,0-26,1.5-36.6,3.4l34.4,9.8c0.5,0.7,1.3,1.1,2.2,1.1l0,0
			c0.8,0,1.6-0.4,2.2-1.1L599.9,365.4z"/>
			<path fill="#FDD995" d="M589.4,349.7l1.9,14.1c0,0-12,14.7-28,14.7c-16,0-28-14.7-28-14.7l1.9-14.1H589.4z"/>
			<path fill="#FBCC9A" d="M656.3,535.4l1.7-2.2l-27.9-23.1l-1.7,2.1c-6.2,7.7-5.2,19.1,2.4,25.6
			C638.4,544.4,649.9,543.3,656.3,535.4z"/>
			<path fill="#FBCC9A" d="M501.3,511.9l-1.7-2.1l-28.4,22.5l1.7,2.2c6.2,8,17.7,9.4,25.4,3C506.1,531.1,507.4,519.8,501.3,511.9z"/>
			<path fill="#ACCCCE" d="M499.7,513.2"/>
			<path fill="#FBCC9A" d="M503.9,516.8c-2.6,2-5.8,2.2-7.2,0.5c-1.4-1.8-0.4-4.9,2.3-6.9c2.6-2,5.8-2.2,7.2-0.5
			C507.6,511.6,506.6,514.7,503.9,516.8z"/>
			<path fill="#FBCC9A" d="M625.7,516.9c2.6,2,5.8,2.2,7.2,0.5c1.4-1.8,0.4-4.9-2.3-6.9c-2.6-2-5.8-2.2-7.2-0.5
			C622.1,511.8,623.1,514.9,625.7,516.9z"/>
			<g>
				<ellipse fill="#CB9866" cx="650.9" cy="269.8" rx="16.5" ry="21.2"/>
				<ellipse fill="#FBCC9A" cx="472.9" cy="269.8" rx="16.5" ry="21.2"/>
				<path fill="#FBCC9A" d="M546.2,358.9c-39.9,0-72.2-32.7-72.2-73v-77.1c0-40.3,32.3-73,72.2-73h17.7v223.2H546.2z"/>
				<path fill="#CB9866" d="M577.7,358.9c39.9,0,72.2-32.7,72.2-73v-77.1c0-40.3-32.3-73-72.2-73H562v223.2H577.7z"/>
			</g>
			<path fill="#261911" d="M562,241.2"/>
			<circle fill="#FBCC9A" cx="563.7" cy="283.3" r="11.1"/>
			<path
				fill="#531E53"
				d="M669,163.7c-11.3-5.3-23.8-9.8-23.8-9.8s-2.8-15.9-7.3-25.7c-4.4-9.8-11.7-25.7-22.6-29.8
			c-17-6.4-53.3-6.4-53.3-6.4s-33.5,0-53.3,6.4c-11.1,3.6-18.2,20-22.6,29.8c-4.4,9.8-7.3,25.7-7.3,25.7s-12.5,4.5-23.8,9.8
			c-11.3,5.3-19.4,14.3-21.8,24.2c3.6,30.2,41,43.1,41,43.1s4.3-24.9,6.3-33.6c2-8.7,6.5-12.5,23.8-18.9c17.4-6.4,57.7-8.7,57.7-8.7
			s40.4,2.3,57.7,8.7c17.4,6.4,21.8,10.2,23.8,18.9c2,8.7,6.3,33.6,6.3,33.6s37.3-12.8,41-43.1C688.3,178,680.3,169,669,163.7z"/>
			<path fill="#BC78AF" d="M645.1,153.8c0,0-2.8-15.9-7.3-25.7c-4.4-9.8-11.7-25.7-22.6-29.8c-17-6.4-53.3-6.4-53.3-6.4
			s-33.5,0-53.3,6.4c-11.1,3.6-18.2,20-22.6,29.8c-4.4,9.8-7.3,25.7-7.3,25.7S566.6,130.3,645.1,153.8z"/>
			<path fill="#3D3D3B" d="M485.9,249.1c-0.3-6.1-11.8-4.4-11.8-4.4v-7.6l12.2-2.4"/>
			<path fill="#3D3D3B" d="M520.4,279.7c-20.6,0-37.4-16.9-37.4-37.8s16.8-37.8,37.4-37.8c20.6,0,37.4,16.9,37.4,37.8
			S541,279.7,520.4,279.7z M520.4,210.7c-17,0-30.9,14-30.9,31.3s13.8,31.3,30.9,31.3c17,0,30.9-14,30.9-31.3
			S537.4,210.7,520.4,210.7z"/>
			<path fill="#3D3D3B" d="M638.3,249.1c0.3-6.1,11.5-4.2,11.5-4.2l0-7.8l-11.9-2.4"/>
			<path
				fill="#3D3D3B"
				d="M603.6,279.7c-20.6,0-37.4-16.9-37.4-37.8s16.8-37.8,37.4-37.8c20.6,0,37.4,16.9,37.4,37.8
			S624.2,279.7,603.6,279.7z M603.6,210.7c-17,0-30.9,14-30.9,31.3s13.8,31.3,30.9,31.3c17,0,30.9-14,30.9-31.3
			S620.6,210.7,603.6,210.7z"/>
			<g>
				<g>
					<polyline fill="#3D3D3B" points="553,242.8 561.7,242.8 560.8,242.8 569.5,242.8 569.5,236.5 560.8,236.5 561.7,236.5
					553,236.5 				"/>
					<rect x="553" y="233.2" fill="#3D3D3B" width="19.8" height="12.8"/>
				</g>
			</g>
			<path id="barba_5_2_" fill="#3D3D3B" d="M560,329.1c4.7-0.3,22.8,4.2,22.8,4.2c75.2,11.2,66.2-70.1,66.2-70.1s48,95.8-87.9,118.3
			h0.4c-133.6-6.9-88.3-118.3-88.3-118.3s-9.7,81.3,65.5,70.1c0,0,18.1-4.4,22.8-4.2"/>
			<polygon fill="#531E53" points="542.7,684.2 486.1,684.2 486.1,674.8 490.9,666.1 542.7,674.6 		"/>
			<polygon fill="#531E53" points="585.6,684.3 641.6,685.1 642.1,675.6 637.8,666.7 585.6,672.2 		"/>
		</g>
	</g>
	<g id="ARBRES">
		<g>
			<rect x="103.5" y="563.9" fill="#CB9866" width="18" height="117"/>
			<path fill="#CEE3C3" d="M179.5,564.5c0,37.8-30.6,68.4-68.4,68.4h-0.2c-37.8,0-68.4-30.6-68.4-68.4v-0.2
			c0-37.8,30.6-68.4,68.4-68.4h0.2c37.8,0,68.4,30.6,68.4,68.4V564.5z"/>
		</g>
		<g>
			<rect x="1283.5" y="467.9" fill="#CB9866" width="19" height="120"/>
			<path fill="#CEE3C3" d="M1362.5,468.4c0,38.9-31.5,70.5-70.5,70.5h-0.1c-38.9,0-70.5-31.5-70.5-70.5v-0.1
			c0-38.9,31.5-70.5,70.5-70.5h0.1C1331,397.9,1362.5,429.4,1362.5,468.4L1362.5,468.4z"/>
		</g>
		<g>
			<g>
				<path
					fill="#CB9866"
					d="M1666.7,413.1c-11.3,15.9-11.8,29.7-12.3,40.8c-0.6,14.3-1,22.9-25.9,34.9c-7.4,3.6-13.9,6.5-19.7,9.1
				c-41.2,18.4-48.7,27-43,88h20.1c-5.3-53.4-2.8-54.5,31-69.7c5.9-2.7,12.7-5.7,20.3-9.3c35.7-17.2,36.5-35.7,37.2-52.1
				c0.4-9.7,0.8-19,8.7-30.1L1666.7,413.1z"/>
			</g>
			<g>
				<path fill="#CB9866" d="M1583,521.1c-29.9-19.4-27.3-44.8-25.5-63.3c2-19.7,3-29.6-23.5-36.6l5.2-19.4
				c42.9,11.4,40.2,38.3,38.2,58c-1.8,17.7-3.2,31.7,16.5,44.5L1583,521.1z"/>
			</g>
			<g>
				<path fill="#CB9866" d="M1526.6,512.6c-4.4,0-8.7-0.5-12.9-1.8c-10.4-3.2-18.4-10.5-23.2-21.1l18.3-8.2
				c2.5,5.5,5.9,8.7,10.8,10.2c12.2,3.7,31.3-4.2,43.9-12.1l10.6,17C1565.5,501.9,1545.9,512.6,1526.6,512.6z"/>
			</g>
			<g>
				<path fill="#CEE3C3" d="M1444.3,483c0-22.4,18.1-40.5,40.5-40.5s40.5,18.1,40.5,40.5c0,22.4-18.1,40.5-40.5,40.5
				S1444.3,505.4,1444.3,483z"/>
			</g>
			<g>
				<path fill="#CEE3C3" d="M1499.9,394.2c0-22.4,18.1-40.5,40.5-40.5c22.4,0,40.5,18.1,40.5,40.5c0,22.4-18.1,40.5-40.5,40.5
				C1518,434.7,1499.9,416.6,1499.9,394.2z"/>
			</g>
			<g>
				<circle fill="#CEE3C3" cx="1658.8" cy="431.2" r="40.5"/>
			</g>
		</g>
		<g>
			<g>
				<path
					fill="#CB9866"
					d="M825.7,507.1c-11.3,15.9-11.8,29.7-12.3,40.8c-0.6,14.3-1,22.9-25.9,34.9c-7.4,3.6-13.9,6.5-19.7,9.1
				c-41.2,18.4-48.7,27-43,88h20.1c-5.3-53.4-2.8-54.5,31-69.7c5.9-2.7,12.7-5.7,20.3-9.3c35.7-17.2,36.5-35.7,37.2-52.1
				c0.4-9.7,0.8-19,8.7-30.1L825.7,507.1z"/>
			</g>
			<g>
				<path fill="#CB9866" d="M742,615.1c-29.9-19.4-27.3-44.8-25.5-63.3c2-19.7,3-29.6-23.5-36.6l5.2-19.4
				c42.9,11.4,40.2,38.3,38.2,58c-1.8,17.7-3.2,31.7,16.5,44.5L742,615.1z"/>
			</g>
			<g>
				<path fill="#CB9866" d="M685.6,606.6c-4.4,0-8.7-0.5-12.9-1.8c-10.4-3.2-18.4-10.5-23.2-21.1l18.3-8.2c2.5,5.5,5.9,8.7,10.8,10.2
				c12.2,3.7,31.3-4.2,43.9-12.1l10.6,17C724.5,595.9,704.9,606.6,685.6,606.6z"/>
			</g>
			<g>
				<path fill="#CEE3C3" d="M603.3,577c0-22.4,18.1-40.5,40.5-40.5c22.4,0,40.5,18.1,40.5,40.5c0,22.4-18.1,40.5-40.5,40.5
				C621.5,617.6,603.3,599.4,603.3,577z"/>
			</g>
			<g>
				<path fill="#CEE3C3" d="M658.9,488.2c0-22.4,18.1-40.5,40.5-40.5c22.4,0,40.5,18.1,40.5,40.5c0,22.4-18.1,40.5-40.5,40.5
				C677,528.7,658.9,510.6,658.9,488.2z"/>
			</g>
			<g>
				<circle fill="#CEE3C3" cx="817.8" cy="525.2" r="40.5"/>
			</g>
		</g>
	</g>
	<g id="ONADES_1_CAPA_SUPERIOR">
		<g>
			<path
				fill="none"
				stroke="#AFDCE3"
				stroke-width="30.597"
				stroke-linecap="round"
				stroke-miterlimit="10"
				d="M32,944.6
			c46.5,0,46.5,6.4,93.1,6.4c46.5,0,46.5-6.4,93.1-6.4c46.5,0,46.5,6.4,93.1,6.4c46.5,0,46.5-6.4,93.1-6.4c46.5,0,46.5,6.4,93.1,6.4
			c46.5,0,46.5-6.4,93.1-6.4c46.5,0,46.5,6.4,93.1,6.4c46.5,0,46.5-6.4,93.1-6.4c46.5,0,46.5,6.4,93.1,6.4c46.5,0,46.5-6.4,93.1-6.4
			c46.5,0,46.5,6.4,93.1,6.4c46.5,0,46.5-6.4,93.1-6.4c46.5,0,46.5,6.4,93.1,6.4c46.5,0,46.5-6.4,93.1-6.4c46.5,0,46.5,6.4,93.1,6.4
			c46.5,0,46.5-6.4,93.1-6.4c46.5,0,46.5,6.4,93.1,6.4c46.5,0,46.5-6.4,93.1-6.4c46.5,0,46.5,6.4,93.1,6.4c46.5,0,46.5-6.4,93.1-6.4
			"/>
		</g>
	</g>
</svg>
