<?xml version="1.0" encoding="utf-8"?>
<!-- Generator: Adobe Illustrator 18.0.0, SVG Export Plug-In . SVG Version: 6.00 Build 0)  -->
<!DOCTYPE svg PUBLIC "-//W3C//DTD SVG 1.1//EN" "http://www.w3.org/Graphics/SVG/1.1/DTD/svg11.dtd">
<svg version="1.1" xmlns="http://www.w3.org/2000/svg" xmlns:xlink="http://www.w3.org/1999/xlink" x="0px" y="0px" viewBox="0 0 1920 1080" enable-background="new 0 0 1920 1080" xml:space="preserve">
	<g id="FONS">
		<rect x="0" y="0" fill="#F7EF98" width="1920" height="1080"/>
	</g>
	<g id="CARRETERA">
		<g>
			<path
				fill="#999999"
				d="M569.8,659.5h1349.8c-0.5-11.4-0.2-47.8-0.2-50.1c0-1.8,0.1-24.9,0.3-40.1H569.8
			c-62.4,0-113.2-50.8-113.2-113.2V48.6c0-17.6,3.8-33.7,11-48.6c0,0-44.5,0-46.6,0c-2.2,0-48.7,0-48.7,0
			c-3.9,15.7-5.9,31.7-5.9,48.6v407.5C366.3,568.3,457.6,659.5,569.8,659.5z"/>
			<path fill="#CDCCCC" d="M411.4,343.4c2.8,0,5-2.2,5-5v-90c0-2.8-2.2-5-5-5c-2.8,0-5,2.2-5,5v90
			C406.4,341.1,408.7,343.4,411.4,343.4z"/>
			<path fill="#CDCCCC" d="M1913.2,619.4h6.1c0-3.3,0-6.7,0-10h-6.1c-2.8,0-5,2.2-5,5C1908.2,617.2,1910.5,619.4,1913.2,619.4z"/>
			<path fill="#CDCCCC" d="M411.4,163.4c2.8,0,5-2.2,5-5v-90c0-2.8-2.2-5-5-5c-2.8,0-5,2.2-5,5v90
			C406.4,161.1,408.7,163.4,411.4,163.4z"/>
			<path fill="#CDCCCC" d="M1823.2,609.4h-90c-2.8,0-5,2.2-5,5c0,2.8,2.2,5,5,5h90c2.8,0,5-2.2,5-5
			C1828.2,611.7,1826,609.4,1823.2,609.4z"/>
			<path fill="#CDCCCC" d="M1643.2,609.4h-90c-2.8,0-5,2.2-5,5c0,2.8,2.2,5,5,5h90c2.8,0,5-2.2,5-5
			C1648.2,611.7,1646,609.4,1643.2,609.4z"/>
			<path fill="#CDCCCC" d="M1463.2,609.4h-90c-2.8,0-5,2.2-5,5c0,2.8,2.2,5,5,5h90c2.8,0,5-2.2,5-5
			C1468.2,611.7,1466,609.4,1463.2,609.4z"/>
			<path fill="#CDCCCC" d="M923.2,609.4h-90c-2.8,0-5,2.2-5,5c0,2.8,2.2,5,5,5h90c2.8,0,5-2.2,5-5C928.2,611.7,926,609.4,923.2,609.4
			z"/>
			<path fill="#CDCCCC" d="M1103.2,609.4h-90c-2.8,0-5,2.2-5,5c0,2.8,2.2,5,5,5h90c2.8,0,5-2.2,5-5
			C1108.2,611.7,1106,609.4,1103.2,609.4z"/>
			<path fill="#CDCCCC" d="M1283.2,609.4h-90c-2.8,0-5,2.2-5,5c0,2.8,2.2,5,5,5h90c2.8,0,5-2.2,5-5
			C1288.2,611.7,1286,609.4,1283.2,609.4z"/>
			<path fill="#CDCCCC" d="M423.5,521.8c0.6,0,1.3-0.1,1.9-0.4c2.6-1.1,3.8-4,2.7-6.5c-7.7-18.6-11.7-38.4-11.7-58.7v-27.7
			c0-2.8-2.2-5-5-5c-2.8,0-5,2.2-5,5v27.7c0,21.7,4.2,42.7,12.4,62.6C419.6,520.6,421.5,521.8,423.5,521.8z"/>
			<path fill="#CDCCCC" d="M563.4,609.3c-29.3-1.2-57.5-10.7-81.4-27.5c-2.3-1.6-5.4-1-7,1.2c-1.6,2.3-1,5.4,1.2,7
			c25.6,17.9,55.6,28,86.8,29.3c0.1,0,0.1,0,0.2,0c2.7,0,4.9-2.1,5-4.8C568.3,611.7,566.2,609.4,563.4,609.3z"/>
			<path fill="#CDCCCC" d="M743.2,609.4h-90c-2.8,0-5,2.2-5,5c0,2.8,2.2,5,5,5h90c2.8,0,5-2.2,5-5C748.2,611.7,746,609.4,743.2,609.4
			z"/>
		</g>
	</g>
	<g id="MONTANYA">
		<g>
			<defs>
				<polygon id="SVGID_1_" points="613.9,920.8 4.1,936.1 4.1,413.7 613.9,398.3 			"/>
			</defs>
			<clipPath id="SVGID_2_">
				<use xlink:href="#SVGID_1_" overflow="visible"/>
			</clipPath>
			<g clip-path="url(#SVGID_2_)">
				<path fill="#CEE3C3" d="M602.7,913.6c0.7-8.6,1.1-134.9,1.1-143.6c0-176.6-143.1-319.7-319.7-319.7
				C107.5,450.2-35.6,593.4-35.6,770c0,8.7,0.4,135.1,1.1,143.6H602.7z"/>
			</g>
		</g>
	</g>
	<g id="ONADES_1_CAPA_INFERIOR">
		<g>
			<path
				fill="none"
				stroke="#AFDCE3"
				stroke-width="30.5974"
				stroke-linecap="round"
				stroke-miterlimit="10"
				d="M29,851.9
			c46.5,0,46.5,6.4,93.1,6.4c46.5,0,46.5-6.4,93.1-6.4c46.5,0,46.5,6.4,93.1,6.4c46.5,0,46.5-6.4,93.1-6.4c46.5,0,46.5,6.4,93.1,6.4
			c46.5,0,46.5-6.4,93.1-6.4c46.5,0,46.5,6.4,93.1,6.4c46.5,0,46.5-6.4,93.1-6.4c46.5,0,46.5,6.4,93.1,6.4c46.5,0,46.5-6.4,93.1-6.4
			c46.5,0,46.5,6.4,93.1,6.4c46.5,0,46.5-6.4,93.1-6.4c46.5,0,46.5,6.4,93.1,6.4c46.5,0,46.5-6.4,93.1-6.4c46.5,0,46.5,6.4,93.1,6.4
			c46.5,0,46.5-6.4,93.1-6.4c46.5,0,46.5,6.4,93.1,6.4c46.5,0,46.5-6.4,93.1-6.4c46.5,0,46.5,6.4,93.1,6.4c46.5,0,46.5-6.4,93.1-6.4
			"/>
		</g>
		<g>
			<path
				fill="none"
				stroke="#AFDCE3"
				stroke-width="30.5974"
				stroke-linecap="round"
				stroke-miterlimit="10"
				d="M29,790.6
			c46.5,0,46.5,6.4,93.1,6.4c46.5,0,46.5-6.4,93.1-6.4c46.5,0,46.5,6.4,93.1,6.4c46.5,0,46.5-6.4,93.1-6.4c46.5,0,46.5,6.4,93.1,6.4
			c46.5,0,46.5-6.4,93.1-6.4c46.5,0,46.5,6.4,93.1,6.4c46.5,0,46.5-6.4,93.1-6.4c46.5,0,46.5,6.4,93.1,6.4c46.5,0,46.5-6.4,93.1-6.4
			c46.5,0,46.5,6.4,93.1,6.4c46.5,0,46.5-6.4,93.1-6.4c46.5,0,46.5,6.4,93.1,6.4c46.5,0,46.5-6.4,93.1-6.4c46.5,0,46.5,6.4,93.1,6.4
			c46.5,0,46.5-6.4,93.1-6.4c46.5,0,46.5,6.4,93.1,6.4c46.5,0,46.5-6.4,93.1-6.4c46.5,0,46.5,6.4,93.1,6.4c46.5,0,46.5-6.4,93.1-6.4
			"/>
		</g>
		<g>
			<path
				fill="none"
				stroke="#AFDCE3"
				stroke-width="30.5974"
				stroke-linecap="round"
				stroke-miterlimit="10"
				d="M29,733.6
			c46.5,0,46.5,6.4,93.1,6.4c46.5,0,46.5-6.4,93.1-6.4c46.5,0,46.5,6.4,93.1,6.4c46.5,0,46.5-6.4,93.1-6.4c46.5,0,46.5,6.4,93.1,6.4
			c46.5,0,46.5-6.4,93.1-6.4c46.5,0,46.5,6.4,93.1,6.4c46.5,0,46.5-6.4,93.1-6.4c46.5,0,46.5,6.4,93.1,6.4c46.5,0,46.5-6.4,93.1-6.4
			c46.5,0,46.5,6.4,93.1,6.4c46.5,0,46.5-6.4,93.1-6.4c46.5,0,46.5,6.4,93.1,6.4c46.5,0,46.5-6.4,93.1-6.4c46.5,0,46.5,6.4,93.1,6.4
			c46.5,0,46.5-6.4,93.1-6.4c46.5,0,46.5,6.4,93.1,6.4c46.5,0,46.5-6.4,93.1-6.4c46.5,0,46.5,6.4,93.1,6.4c46.5,0,46.5-6.4,93.1-6.4
			"/>
		</g>
		<g>
			<path
				fill="none"
				stroke="#AFDCE3"
				stroke-width="30.5974"
				stroke-linecap="round"
				stroke-miterlimit="10"
				d="M29,913.3
			c46.5,0,46.5,6.4,93.1,6.4c46.5,0,46.5-6.4,93.1-6.4c46.5,0,46.5,6.4,93.1,6.4c46.5,0,46.5-6.4,93.1-6.4c46.5,0,46.5,6.4,93.1,6.4
			c46.5,0,46.5-6.4,93.1-6.4c46.5,0,46.5,6.4,93.1,6.4c46.5,0,46.5-6.4,93.1-6.4c46.5,0,46.5,6.4,93.1,6.4c46.5,0,46.5-6.4,93.1-6.4
			c46.5,0,46.5,6.4,93.1,6.4c46.5,0,46.5-6.4,93.1-6.4c46.5,0,46.5,6.4,93.1,6.4c46.5,0,46.5-6.4,93.1-6.4c46.5,0,46.5,6.4,93.1,6.4
			c46.5,0,46.5-6.4,93.1-6.4c46.5,0,46.5,6.4,93.1,6.4c46.5,0,46.5-6.4,93.1-6.4c46.5,0,46.5,6.4,93.1,6.4c46.5,0,46.5-6.4,93.1-6.4
			"/>
		</g>
	</g>
	<g id="NUVOLS">
		<path fill="#AFDCE3" d="M536.2,348.2c-0.2-2-0.2-3.2-0.2-4.8c0-28.6,23.2-51.6,51.7-51.6c1.3,0,2.4,0.3,3.6,0.4
		c7.6-19.1,26.1-32.7,48-32.7c17.1,0,32.1,8.4,41.5,21.2c3.3-0.7,6.7-1,10.1-1c25,0,45.8,17.5,50.6,41.1c16,4.1,28.6,14.5,33.7,27.5
		H536.2z"/>
		<path fill="#AFDCE3" d="M1066.1,240.2c0.9-18,15.7-32.4,33.9-32.4c4.2,0,8.3,0.9,12,2.3c3.2-20.5,20.9-36.3,42.3-36.3
		c23.7,0,43,19.2,43,43c0,0.5-0.2,1.1-0.2,1.6c0.5,0,1.1-0.1,1.6-0.1c12.4,0,22.5,10,23.1,22H1066.1z"/>
		<path
			fill="#AFDCE3"
			d="M1635.1,131.2c-0.1-2-0.2-3.1-0.2-4.6c0-25.7,20.9-46.5,46.5-46.5c1.1,0,2.2,0.2,3.3,0.3
		c6.8-17.2,23.5-29.5,43.2-29.5c15.4,0,28.9,7.6,37.4,19.1c3-0.6,6-0.9,9.1-0.9c22.5,0,41.2,16,45.5,37.2
		c14.4,3.7,25.7,12.9,30.3,24.9H1635.1z"/>
		<path
			fill="#AFDCE3"
			d="M307.6,228.2c0.2-2,0.2-3.2,0.2-4.8c0-28.6-23.2-51.6-51.7-51.6c-1.3,0-2.4,0.3-3.6,0.4
		c-7.6-19.1-26.1-32.7-48-32.7c-17.1,0-32.1,8.4-41.5,21.2c-3.3-0.7-6.7-1-10.1-1c-25,0-45.8,17.5-50.6,41.1
		c-16,4.1-28.6,14.5-33.7,27.5H307.6z"/>
	</g>
	<g id="SOL">
		<path fill="#FBCD00" d="M31.9,260.8c0-50.1,40.6-90.7,90.7-90.7c50.1,0,90.7,40.6,90.7,90.7c0,50.1-40.6,90.7-90.7,90.7
		C72.5,351.5,31.9,310.9,31.9,260.8z"/>
	</g>
	<g id="AVATAR">
		<g>
			<g>
				<path
					fill="#F9C997"
					d="M428.4,628.7c-6.3-6.3-16.6-6.3-22.8,0c-6.2,6.3-6.2,16.5,0,22.7l3.3,3.3c8.1,8.1,16.1,16.3,23.9,24.5
				c7.9,8.2,15.7,16.5,23,24.7c1.8,2.1,3.6,4.1,5.2,6.1l0.2,0.3l-1.8,2.6c-6,8.7-13.1,17.7-20.1,26.5l-8.4,10.3l24.9,20.4l8.6-10.6
				c7.3-9.2,14.5-18.3,21.5-28.5l1.3-2l1.7-2.6c1.5-2.4,3-4.9,4.1-7.4c0.7-1.3,1-2.6,1.5-3.8c0.3-1.3,0.5-2.6,0.7-3.9l0.2-2l0.1-1
				c0-0.3-0.1-0.7-0.2-1c-0.3-1.3-0.6-2.6-0.9-3.8l-0.7-1.9c-0.2-0.6-0.4-1.3-0.8-1.9c-0.7-1.2-1.4-2.4-2.1-3.6l-2.5-3.5
				c-0.4-0.6-0.8-1.1-1.3-1.7l-1.1-1.4c-2-2.5-4-4.8-6-7c-7.9-9-15.9-17.4-24-25.8c-8.1-8.4-16.2-16.6-24.3-24.8L428.4,628.7z"/>
				<path
					fill="#F9C997"
					d="M320.1,628.7c6.3-6.3,16.6-6.3,22.8,0c6.2,6.3,6.2,16.5,0,22.7l-3.3,3.3c-8.1,8.1-16.1,16.3-23.9,24.5
				c-7.9,8.2-15.7,16.5-23,24.7c-1.8,2.1-3.6,4.1-5.2,6.1l-0.2,0.3l1.8,2.6c6,8.7,13.1,17.7,20.1,26.5l8.4,10.3l-24.9,20.4
				l-8.6-10.6c-7.3-9.2-14.5-18.3-21.5-28.5l-1.3-2l-1.7-2.6c-1.5-2.4-3-4.9-4.1-7.4c-0.7-1.3-1-2.6-1.5-3.8
				c-0.3-1.3-0.5-2.6-0.7-3.9l-0.2-2l-0.1-1c0-0.3,0.1-0.7,0.2-1c0.3-1.3,0.6-2.6,0.9-3.8l0.7-1.9c0.2-0.6,0.4-1.3,0.8-1.9
				c0.7-1.2,1.4-2.4,2.1-3.6l2.5-3.5c0.4-0.6,0.8-1.1,1.3-1.7l1.1-1.4c2-2.5,4-4.8,6-7c7.9-9,15.9-17.4,24-25.8
				c8.1-8.4,16.2-16.6,24.3-24.8L320.1,628.7z"/>
				<path fill="#938119" d="M456.1,657c-8.1-8.4-16-16.8-24.2-25l-3.3-3.3c-6.3-6.3-16.6-6.3-22.8,0c-6.2,6.3-6.2,16.5,0,22.7
				l3.3,3.3c8.1,8.1,16,16.4,23.8,24.6"/>
				<path fill="#938119" d="M315.8,679c7.9-8.1,15.7-16.3,23.8-24.4l3.3-3.3c6.3-6.2,6.3-16.4,0.1-22.7c-6.2-6.4-16.5-6.4-22.8-0.1
				l-3.3,3.3c-8.1,8.1-16.1,16.4-24.1,24.7"/>
				<path fill="#938119" d="M417.6,623.5c-10.6-2.4-27-5.2-44-5.2c-17.1,0-33.5,2.9-44.1,5.2c-6.7,1.5-12.1,8.7-12.1,15.5v112.2
				h112.3V639C429.7,632.2,424.4,625,417.6,623.5z"/>
				<path fill="#F9C997" d="M438.1,885.6l-9.3-136.4H316.6l-7.8,136.4l45.7,7.5l6.9-110.5c0.3-4.6,4.2-8.3,8.8-8.3h6.4
				c4.6,0,8.5,3.7,8.8,8.3l7.1,110.5L438.1,885.6z"/>
				<path fill="#3D3D3A" d="M443.5,816.1l-14.6-66.8H316.6L304.9,817l57.4,4.2l-0.9-38.6c0.3-4.6,4.2-8.3,8.8-8.3h6.4
				c4.6,0,8.5,3.7,8.8,8.3l-1,38.6L443.5,816.1z"/>
				<path fill="#F9C997" d="M406,621.2c-9.3-1.6-20.7-2.9-32.3-2.9c-11.6,0-23.1,1.3-32.5,2.9l30.5,8.7c0.5,0.6,1.2,0.9,1.9,0.9l0,0
				c0.7,0,1.4-0.3,1.9-0.9L406,621.2z"/>
				<path fill="#F9C997" d="M396.6,607.6l1.7,12.5c0,0-10.6,12.9-24.7,12.9c-14.1,0-24.7-12.9-24.7-12.9l1.7-12.5L396.6,607.6z"/>
				<path fill="#F9C997" d="M454.6,771.8l1.5-1.9l-24.6-20.4l-1.5,1.9c-5.5,6.8-4.6,16.8,2.1,22.6
				C438.8,779.7,448.9,778.8,454.6,771.8z"/>
				<path fill="#F9C997" d="M318.3,751.3l-1.5-1.9l-25.1,19.8l1.5,1.9c5.5,7.1,15.6,8.3,22.4,2.7
				C322.5,768.2,323.7,758.2,318.3,751.3z"/>
				<path fill="#AACACD" d="M317.5,751.7"/>
				<path fill="#F9C997" d="M320.6,755.6c-2.3,1.8-5.1,2-6.3,0.4c-1.2-1.6-0.3-4.3,2-6.1s5.1-2,6.3-0.4
				C323.8,751,322.9,753.8,320.6,755.6z"/>
				<path fill="#F9C997" d="M427.6,755.6c2.3,1.8,5.1,2,6.3,0.4c1.2-1.6,0.3-4.3-2-6.1c-2.3-1.8-5.1-2-6.3-0.4
				C424.4,751,425.3,753.8,427.6,755.6z"/>
				<ellipse fill="#C99666" cx="450.9" cy="537.2" rx="14.6" ry="18.7"/>
				<ellipse fill="#F9C997" cx="294" cy="537.1" rx="14.6" ry="18.7"/>
				<path fill="#F9C997" d="M358.6,615.7c-35.1,0-63.6-28.9-63.6-64.4l0-68c0-35.6,28.5-64.4,63.7-64.4l15.6,0l-0.1,196.8
				L358.6,615.7z"/>
				<path fill="#C99666" d="M386.3,615.7c35.1,0,63.6-28.8,63.7-64.4l0-68c0-35.6-28.5-64.4-63.6-64.4l-13.8,0l-0.1,196.8
				L386.3,615.7z"/>
				<path fill="#261A11" d="M372.5,511.9"/>
				<circle fill="#F9C997" cx="374" cy="549" r="9.8"/>
				<path fill="none" stroke="#3D3D3A" stroke-width="2" stroke-miterlimit="10" d="M366.5,562.3c0,0,7.4-18.6,14.2,0"/>
				<ellipse fill="#3D3D3A" stroke="#3D3D3A" stroke-width="0.5" stroke-miterlimit="10" cx="380.7" cy="562.3" rx="1.8" ry="1.9"/>
				<ellipse fill="#3D3D3A" stroke="#3D3D3A" stroke-width="0.5" stroke-miterlimit="10" cx="366.8" cy="562.3" rx="1.8" ry="1.9"/>
				<polygon fill="#938119" points="354.4,898.1 304.5,898.1 304.5,889.8 308.8,882.2 355.5,875.9 			"/>
				<polyline fill="#938119" points="308.8,882.2 299.1,856.5 330.3,849.8 329.1,885.5 			"/>
				<polygon fill="#938119" points="393.1,898.2 443,898.2 443,889.8 438.7,882.2 391.3,875.8 			"/>
				<polyline fill="#938119" points="438.7,882.2 448.4,856.6 417.2,849.9 418.4,885.6 			"/>
				<path
					fill="#E7CB06"
					stroke="#E7CB06"
					stroke-width="5"
					stroke-miterlimit="10"
					d="M331.5,693.9c0-23.2,19-42.6,42.8-42.5
				c22.3,0.1,42.7,17.6,42.6,43c-0.2,25.2-20.7,42.5-42.3,42.5C351,737,331.5,717.8,331.5,693.9z M415.5,694.1
				c0.1-22.9-18.9-41.3-41.1-41.3c-23.3,0.1-41,18.5-41.3,40.6c-0.4,24.7,19.7,41.9,40.6,42.1C397.2,735.7,415.8,716.3,415.5,694.1z
				"/>
				<path fill="#E7CB06" stroke="#E7CB06" stroke-miterlimit="10" d="M367.7,644.2h11.6l31.2,97.9h-13.2l-7.2-23.5h-33.5l-7.3,23.5
				h-12.8L367.7,644.2z M385.5,703.5l-12.3-38.9l-12.2,38.9H385.5z"/>
			</g>
			<path
				id="pelo6_2_"
				fill="#3D3D3A"
				d="M349,455.5c0,0,27.8-67.7,86.3-13.3l51.8-71.2l-2.2-4.4L455.4,405l15.8-44.9
			c0,0-36.9-41.5-99.1-45.6l4.1,35.4l-17.2-35.4c0,0-73.6,3.7-93.1,22.1c0,0,44.2,29.1,60,60.4c0,0-51.8-41.7-85.1-39.6
			C240.8,357.4,351.2,398.8,349,455.5z"/>
		</g>
	</g>
	<g id="CIUTAT_VELLA" ng-clik="">
		<path
			fill="#FFFFFF"
			stroke="#FFFFFF"
			stroke-width="15"
			stroke-miterlimit="10"
			d="M1823.9,990c12.6,0,22.8-10.2,22.8-22.8V807
		c0-12.6-10.2-22.8-22.8-22.8h0c-5,0-9.1-4.1-9.1-9.1v-5c0-5,4.1-9.1,9.1-9.1h0c25.4,0,46.1,20.6,46.1,46.1v160.3
		c0,25.4-20.6,46-46,46h0c-5,0-9.1-4.1-9.1-9.1v-5C1814.7,994.1,1818.8,990,1823.9,990L1823.9,990z"/>
		<g>
			<path
				fill="#FFFFFF"
				d="M337.2,839.3c-10-13.5-26.2-20.8-43-20.8c-30,0-50.2,23-50.2,52.2c0,29.8,20.5,51.2,51,51.2
			c16,0,32-7.8,42.2-20v58.8c-16.2,5-28,8.8-43.2,8.8c-26.2,0-51.2-10-70.8-27.8c-20.8-18.8-30.2-43.2-30.2-71.2
			c0-25.8,9.8-50.5,27.8-69c18.5-19,45.2-30.5,71.8-30.5c15.8,0,30.2,3.5,44.8,9.5V839.3z"/>
			<path fill="#FFFFFF" d="M402.7,964.6h-49V776.1h49V964.6z"/>
			<path fill="#FFFFFF" d="M584.5,776.1v106c0,24.2-1,48.2-19.8,66.5c-15.8,15.5-40.5,21-62.5,21c-22,0-46.8-5.5-62.5-21
			C421,930.3,420,906.3,420,882.1v-106h49v99.2c0,24.5,1.8,51.2,33.2,51.2s33.2-26.8,33.2-51.2v-99.2H584.5z"/>
			<path fill="#FFFFFF" d="M679.7,964.6h-49v-147h-40.5v-41.5h130v41.5h-40.5V964.6z"/>
			<path fill="#FFFFFF" d="M757.2,931.8l-13,32.8h-52l72.5-188.5h53.5l71,188.5H837l-12.2-32.8H757.2z M791.5,834.3H791l-20.2,60
			h40.8L791.5,834.3z"/>
			<path fill="#FFFFFF" d="M950.7,964.6h-49v-147h-40.5v-41.5h130v41.5h-40.5V964.6z"/>
			<path fill="#FFFFFF" d="M1154.2,890.6l45.8-114.5h53.2l-80.5,188.5h-38l-79.2-188.5h53.2L1154.2,890.6z"/>
			<path fill="#FFFFFF" d="M1300.7,817.6v31.5h55.2v41.5h-55.2v32.5h58.2v41.5h-107.2V776.1h107.2v41.5H1300.7z"/>
			<path fill="#FFFFFF" d="M1424.4,923.1h58.8v41.5h-107.8V776.1h49V923.1z"/>
			<path fill="#FFFFFF" d="M1548.7,923.1h58.8v41.5h-107.8V776.1h49V923.1z"/>
			<path fill="#FFFFFF" d="M1682.5,931.8l-13,32.8h-52l72.5-188.5h53.5l71,188.5h-52.2l-12.2-32.8H1682.5z M1716.8,834.3h-0.5
			l-20.2,60h40.8L1716.8,834.3z"/>
		</g>
		<path
			fill="#FFFFFF"
			stroke="#FFFFFF"
			stroke-width="15"
			stroke-miterlimit="10"
			d="M178.3,779.8c-12.6,0-22.8,10.2-22.8,22.8
		v160.3c0,12.6,10.2,22.8,22.8,22.8h0c5,0,9.1,4.1,9.1,9.1v5c0,5-4.1,9.1-9.1,9.1l0,0c-25.4,0-46.1-20.6-46.1-46.1V802.6
		c0-25.4,20.6-46,46-46h0c5,0,9.1,4.1,9.1,9.1v5C187.5,775.7,183.4,779.8,178.3,779.8L178.3,779.8z"/>
	</g>
	<g id="ONADES_1_CAPA_SUPERIOR">
		<g>
			<path
				fill="none"
				stroke="#AFDCE3"
				stroke-width="30.597"
				stroke-linecap="round"
				stroke-miterlimit="10"
				d="M29,974.6
			c46.5,0,46.5,6.4,93.1,6.4c46.5,0,46.5-6.4,93.1-6.4c46.5,0,46.5,6.4,93.1,6.4c46.5,0,46.5-6.4,93.1-6.4c46.5,0,46.5,6.4,93.1,6.4
			c46.5,0,46.5-6.4,93.1-6.4c46.5,0,46.5,6.4,93.1,6.4c46.5,0,46.5-6.4,93.1-6.4c46.5,0,46.5,6.4,93.1,6.4c46.5,0,46.5-6.4,93.1-6.4
			c46.5,0,46.5,6.4,93.1,6.4c46.5,0,46.5-6.4,93.1-6.4c46.5,0,46.5,6.4,93.1,6.4c46.5,0,46.5-6.4,93.1-6.4c46.5,0,46.5,6.4,93.1,6.4
			c46.5,0,46.5-6.4,93.1-6.4c46.5,0,46.5,6.4,93.1,6.4c46.5,0,46.5-6.4,93.1-6.4c46.5,0,46.5,6.4,93.1,6.4c46.5,0,46.5-6.4,93.1-6.4
			"/>
		</g>
	</g>
	<g id="EDIFICI_1">
		<g>
			<path fill="#CCCC98" d="M638.3,339.4V317c0-4.3,3.5-7.7,7.7-7.7h177.5c4.3,0,7.7-3.5,7.7-7.7l0,0c0-4.3,3.5-7.7,7.7-7.7h24.5
			h131.9c4.3,0,7.7,3.5,7.7,7.7l0,0c0,4.3,3.5,7.7,7.7,7.7h179c4.3,0,7.7,3.5,7.7,7.7v24.8"/>
			<path fill="#CCCC98" stroke="#CCCC98" stroke-width="6" stroke-miterlimit="10" d="M952.4,291.9v-65.4c0-3.8-4.7-5.6-7.3-2.8
			l-9.7,10.5c-2.4,2.6-0.7,6.8,2.8,7l14.1,0.9"/>
			<path fill="#CCCC98" stroke="#CCCC98" stroke-width="6" stroke-miterlimit="10" d="M917.9,270v-67.9c0-2.9-3.6-4.3-5.6-2.2
			l-12.7,13.8c-1.8,2-0.5,5.2,2.2,5.4l16.1,1.1"/>
			<path fill="#CCCC98" stroke="#CCCC98" stroke-width="6" stroke-miterlimit="10" d="M885.7,293.9v-65.2c0-3.9-4.8-5.8-7.4-2.9
			l-9.4,10.2c-2.4,2.6-0.7,6.9,2.9,7.2l13.9,0.9"/>
			<path fill="#CCCC98" d="M644.3,570.4h547.1c3.3,0,6-2.7,6-6V354.7c0-3.3-2.7-6-6-6h-173.6c-3.3,0-6-2.7-6-6l0,0c0-3.3-2.7-6-6-6
			H832.2c-3.3,0-6,2.7-6,6l0,0c0,3.3-2.7,6-6,6H644.3c-3.3,0-6,2.7-6,6v209.6C638.3,567.7,641,570.4,644.3,570.4z"/>
			<path fill="#F7EF98" d="M1011.8,341.5"/>
			<rect x="831.3" y="357.9" fill="#F7EF98" width="12.2" height="114.7"/>
			<rect x="883.9" y="357.9" fill="#F7EF98" width="12.2" height="114.7"/>
			<rect x="944.4" y="357.9" fill="#F7EF98" width="12.2" height="114.7"/>
			<rect x="997" y="357.9" fill="#F7EF98" width="12.2" height="114.7"/>
			<path fill="#F7EF98" d="M844.3,486.7h-14.6c-2,0-3.6-1.6-3.6-3.6V473c0-2,1.6-3.6,3.6-3.6h14.6c2,0,3.6,1.6,3.6,3.6v10.1
			C847.9,485.1,846.3,486.7,844.3,486.7z"/>
			<path fill="#F7EF98" d="M896.8,486.7h-13.7c-2.2,0-4-1.8-4-4v-9.3c0-2.2,1.8-4,4-4h13.7c2.2,0,4,1.8,4,4v9.3
			C900.9,484.9,899.1,486.7,896.8,486.7z"/>
			<path fill="#F7EF98" d="M957.7,486.7h-14.2c-2.1,0-3.8-1.7-3.8-3.8v-9.7c0-2.1,1.7-3.8,3.8-3.8h14.2c2.1,0,3.8,1.7,3.8,3.8v9.7
			C961.5,485,959.8,486.7,957.7,486.7z"/>
			<path fill="#F7EF98" d="M1010.5,486.7h-13.8c-2.2,0-4-1.8-4-4v-9.4c0-2.2,1.8-4,4-4h13.8c2.2,0,4,1.8,4,4v9.4
			C1014.4,484.9,1012.7,486.7,1010.5,486.7z"/>
			<rect x="844.7" y="472.6" fill="#F7EF98" width="164.5" height="14.1"/>
			<path fill="none" stroke="#F7EF98" stroke-width="7" stroke-miterlimit="10" d="M1014.4,570.8v-73c0-6.1-5-11.1-11.1-11.1H837.2
			c-6.1,0-11.1,5-11.1,11.1v72.6"/>
			<path
				fill="#F7EF98"
				d="M1198.6,347.9l7.4-5.8c3.1-2.4,1.4-7.4-2.6-7.4l-184.1,1.7c-3.3,0-5.3-3.5-3.5-6.3l2.1-3.4
			c1.7-2.8-0.3-6.3-3.5-6.3H820.8c-3.1,0-5.1,3.3-3.7,6.1h0c1.5,2.8-0.5,6.1-3.7,6.1H632.1c-3.7,0-5.5,4.4-2.9,7.1l7.9,7.9
			c0.8,0.8,1.8,1.2,2.9,1.2h182c2.3,0,4.1-1.8,4.1-4.1v-4c0-2.3,1.8-4.1,4.1-4.1h174.8c2.3,0,4.1,1.8,4.1,4.1v3.8
			c0,2.3,1.8,4.1,4.1,4.1l182.8,0.1C1197,348.8,1197.9,348.5,1198.6,347.9z"/>
			<path fill="#CCCC98" d="M957.8,291.7l-39.2-39.2c-0.5-0.5-1.3-0.5-1.9,0l-39.2,39.2c-0.8,0.8-0.2,2.2,0.9,2.2h77.9
			c0.1,0,0.2,0,0.2,0l0,0C957.9,294.1,958.7,292.6,957.8,291.7z"/>
			<path fill="#F7EF98" d="M1008.1,359.9H832.4c-3.9,0-7.1-3.2-7.1-7.1v-11c0-3.9,3.2-7.1,7.1-7.1h175.7c3.9,0,7.1,3.2,7.1,7.1v11
			C1015.2,356.7,1012,359.9,1008.1,359.9z"/>
			<g>
				<path fill="#F7EF98" d="M918.7,502.9c-13.5,0-17.8,13.2-17.8,13.2v54.1h35.7v-54.1C936.6,516.1,932.2,502.9,918.7,502.9"/>
			</g>
			<g>
				<path fill="#F7EF98" d="M974.5,507.8c-10.9,0-14.4,12.2-14.4,12.2v50.2h28.8V520C988.9,520,985.4,507.8,974.5,507.8"/>
			</g>
			<g>
				<path fill="#F7EF98" d="M862.3,507.8c-10.9,0-14.4,12.2-14.4,12.2v50.2h28.8V520C876.7,520,873.2,507.8,862.3,507.8"/>
			</g>
			<g>
				<path fill="#F7EF98" d="M1050.9,507.8c-10.9,0-14.4,12.2-14.4,12.2v50.2h28.8V520C1065.3,520,1061.7,507.8,1050.9,507.8"/>
			</g>
			<g>
				<path fill="#F7EF98" d="M1103.7,507.8c-10.9,0-14.4,12.2-14.4,12.2v50.2h28.8V520C1118.1,520,1114.5,507.8,1103.7,507.8"/>
			</g>
			<g>
				<path fill="#F7EF98" d="M1157.9,508.1c-10.9,0-14.4,12.2-14.4,12.2v50.2h28.8v-50.2C1172.3,520.3,1168.8,508.1,1157.9,508.1"/>
			</g>
			<g>
				<path fill="#F7EF98" d="M678.3,508.1c10.9,0,14.4,12.2,14.4,12.2v50.2h-28.8v-50.2C663.9,520.3,667.4,508.1,678.3,508.1"/>
			</g>
			<g>
				<path fill="#F7EF98" d="M731.1,508.1c10.9,0,14.4,12.2,14.4,12.2v50.2h-28.8v-50.2C716.7,520.3,720.2,508.1,731.1,508.1"/>
			</g>
			<g>
				<path fill="#F7EF98" d="M785.3,508.3c10.9,0,14.4,12.2,14.4,12.2v50.2h-28.8v-50.2C770.9,520.5,774.5,508.3,785.3,508.3"/>
			</g>
		</g>
	</g>
	<g id="EDIFICI_2">
		<g>
			<rect x="1296" y="303.8" fill-rule="evenodd" clip-rule="evenodd" fill="#CCCC98" width="17.5" height="200.8"/>
			<path fill-rule="evenodd" clip-rule="evenodd" fill="#CCCC98" d="M1298.3,432.4l-59.6,126c-2,4.3,1.3,9.2,6.3,9.2h120.6
			c5,0,8.4-4.9,6.3-9.3l-61-126C1308.4,427.3,1300.7,427.3,1298.3,432.4z"/>
			<path fill-rule="evenodd" clip-rule="evenodd" fill="#CCCC98" d="M1309.4,309.8h-8.8c-5.4,0-9.9-4.4-9.9-9.9v-18.3
			c0-5.4,4.4-9.9,9.9-9.9h8.8c5.4,0,9.9,4.4,9.9,9.9V300C1319.3,305.4,1314.9,309.8,1309.4,309.8z"/>
			<g>
				<g>
					<polygon fill="#CCCC98" points="1301.8,277.6 1293.8,277.6 1293.8,276.3 1294.5,275 1301.8,276.2 				"/>
					<polygon fill="#CCCC98" points="1307.7,277.4 1315.7,277.8 1315.7,276.5 1315.1,275.2 1307.8,276 				"/>
					<path
						fill="#CCCC98"
						d="M1313.4,233.4c-1-1-2.6-1-3.6,0c-1,1-1,2.6,0,3.7l0.5,0.5c1.3,1.3,2.6,2.6,3.8,3.9
					c1.2,1.3,2.5,2.6,3.6,4c0.3,0.3,0.6,0.7,0.8,1l0,0l-0.3,0.4c-1,1.4-2.1,2.8-3.2,4.3l-1.3,1.7l4,3.3l1.4-1.7
					c1.2-1.5,2.3-2.9,3.4-4.6l0.2-0.3l0.3-0.4c0.2-0.4,0.5-0.8,0.7-1.2c0.1-0.2,0.2-0.4,0.2-0.6c0.1-0.2,0.1-0.4,0.1-0.6l0-0.3
					l0-0.2c0-0.1,0-0.1,0-0.2c-0.1-0.2-0.1-0.4-0.1-0.6l-0.1-0.3c0-0.1-0.1-0.2-0.1-0.3c-0.1-0.2-0.2-0.4-0.3-0.6l-0.4-0.6
					c-0.1-0.1-0.1-0.2-0.2-0.3l-0.2-0.2c-0.3-0.4-0.6-0.8-0.9-1.1c-1.3-1.4-2.5-2.8-3.8-4.2c-1.3-1.3-2.6-2.7-3.9-4L1313.4,233.4z"/>
					<path fill="#CCCC98" d="M1274.7,227.4c0.3,0.1,13,3.3,13.4,3.4c1.4,0.4,2.9,0.7,4.4,1.1c1.5,0.3,3,0.6,4.5,0.9l0.6,0.1
					c1.2,0.2,2,1.5,1.8,3c-0.2,1.4-1.3,2.4-2.5,2.1l-0.6-0.1c-1.5-0.3-3-0.6-4.6-1c-1.5-0.3-15.4-3.8-17-4.2"/>
					<path fill="#CCCC98" d="M1311.7,232.6c-1.7-0.4-4.3-0.8-7-0.8c-2.7,0-5.3,0.5-7,0.8c-1.1,0.2-1.9,1.4-1.9,2.5v18h17.8v-18
					C1313.6,234,1312.7,232.8,1311.7,232.6z"/>
					<path fill="#CCCC98" d="M1309.8,232.2c-1.5-0.3-3.3-0.5-5.2-0.5c-1.9,0-3.7,0.2-5.2,0.5l4.9,1.4c0.1,0.1,0.2,0.2,0.3,0.2l0,0
					c0.1,0,0.2-0.1,0.3-0.2L1309.8,232.2z"/>
					<path fill="#CCCC98" d="M1308.4,230l0.3,2c0,0-1.7,2.1-4,2.1c-2.3,0-4-2.1-4-2.1l0.3-2H1308.4z"/>
					<path fill="#CCCC98" d="M1315.1,275.2l-1.5-22.1h-17.8l-1.2,21.9l7.3,1.2l1.1-17.8c0-0.7,0.7-1.3,1.4-1.3h1
					c0.7,0,1.4,0.6,1.4,1.3l1.1,17.8L1315.1,275.2z"/>
					<path fill="#CCCC98" d="M1317.5,256.5l0.2-0.3l-4-3.3l-0.2,0.3c-0.9,1.1-0.7,2.7,0.3,3.6C1315,257.7,1316.6,257.6,1317.5,256.5z
					"/>
					<path fill="#CCCC98" d="M1275.3,227.5l0.3,0l-0.6,5.1l-0.3,0c-1.2-0.2-2.1-1.5-1.9-2.9C1273,228.4,1274.1,227.4,1275.3,227.5z"/>
					<path fill="#CCCC98" d="M1295.6,253.2"/>
					<path fill="#CCCC98" d="M1274.7,227.6c-0.1,0.5,0.1,0.9,0.4,0.9c0.3,0,0.5-0.3,0.6-0.8c0.1-0.5-0.1-0.9-0.4-0.9
					C1275,226.8,1274.7,227.1,1274.7,227.6z"/>
					<path fill="#CCCC98" d="M1313.2,253.9c0.4,0.3,0.8,0.3,1,0.1c0.2-0.3,0.1-0.7-0.3-1c-0.4-0.3-0.8-0.3-1-0.1
					C1312.7,253.1,1312.8,253.6,1313.2,253.9z"/>
					<g>
						<ellipse fill="#CCCC98" cx="1317.3" cy="218.4" rx="2.3" ry="3"/>
						<ellipse fill="#CCCC98" cx="1292" cy="218.4" rx="2.3" ry="3"/>
						<path fill="#CCCC98" d="M1302.4,231c-5.6,0-10.2-4.6-10.2-10.3v-10.9c0-5.7,4.6-10.3,10.2-10.3h2.5V231H1302.4z"/>
						<path fill="#CCCC98" d="M1306.9,231c5.6,0,10.2-4.6,10.2-10.3v-10.9c0-5.7-4.6-10.3-10.2-10.3h-2.2V231H1306.9z"/>
					</g>
				</g>
				<path
					id="pelo_4_9_"
					fill="#CCCC98"
					d="M1318.5,203.5c2-2,3.8-5.5,3-8.2c0-0.1-0.2-0.2-0.4-0.1c-1.8,1.2-3.8,2-6.1,2.4
				c-2.5,0.4-5,0.2-7.6,0.1c-4.4-0.3-9.1-0.2-12.6,2.3c-3,2.2-3.9,6.7-2.9,9.9c0,0,0,0.1,0.1,0.1c0.1,0.1,0.2,0.1,0.3,0.1
				c0.1,0,0.1,0,0.1-0.1c0,0,0,0,0,0c0,0,0,0,0,0c0,0,0,0,0,0c0,0,0,0,0,0c0.6-1.5,1.3-3.6,3-4.5c1.3-0.7,2.8-0.6,4.2-0.4
				c3.1,0.5,6,1.5,9.2,1.8c1.8,0.1,3.6-0.1,5.4-0.6c0.4-0.1,0.9-0.3,1.2-0.5c0.1,0.1,0.1,0.3,0.2,0.4c0.5,1,0.8,2.7,1.2,3.7
				c0.1,0.2,0.4,0.2,0.5,0c0.7-1.6,0.8-3.9,0.2-5.5C1317.9,204.1,1318.2,203.8,1318.5,203.5z"/>
			</g>
		</g>
	</g>
	<g id="EDIFICI_3">
		<g>
			<path fill="#CCCC98" d="M1667.3,195.5c-65.6,0-76.5,55.5-76.5,55.5l151.8,0c0,0-10.9-55.5-76.3-55.5"/>
			<path fill="#CCCC98" d="M1433.9,566.9V284.9c0-18.9,15.3-34.2,34.2-34.2h386.1c18.9,0,34.2,15.3,34.2,34.2v282.9"/>
			<path fill="none" stroke="#C26520" stroke-width="1.3241" stroke-miterlimit="10" d="M1591.2,251"/>
			<circle fill="#F7EF98" cx="1666.7" cy="227.8" r="16.2"/>
			<rect x="1434" y="435.8" fill="#F7EF98" width="454.5" height="13"/>
			<path fill="#F7EF98" d="M1716,438.6v-65.1c0-27.3-22.1-49.4-49.4-49.4c-27.3,0-49.4,22.1-49.4,49.4v65.1H1716z"/>
			<path fill="#F7EF98" d="M1864.1,438.6v-65.1c0-27.3-22.1-49.4-49.4-49.4c-27.3,0-49.4,22.1-49.4,49.4v65.1H1864.1z"/>
			<path fill="#F7EF98" d="M1568,438.6v-65.1c0-27.3-22.1-49.4-49.4-49.4c-27.3,0-49.4,22.1-49.4,49.4v65.1H1568z"/>
			<path fill="#F7EF98" d="M1716,567.4v-65.1c0-27.3-22.1-49.4-49.4-49.4c-27.3,0-49.4,22.1-49.4,49.4v65.1H1716z"/>
			<path fill="#F7EF98" d="M1864.1,567.4v-65.1c0-27.3-22.1-49.4-49.4-49.4c-27.3,0-49.4,22.1-49.4,49.4v65.1H1864.1z"/>
			<path fill="#F7EF98" d="M1568,567.4v-65.1c0-27.3-22.1-49.4-49.4-49.4c-27.3,0-49.4,22.1-49.4,49.4v65.1H1568z"/>
		</g>
	</g>
</svg>
