<?xml version="1.0" encoding="utf-8"?>
<!-- Generator: Adobe Illustrator 18.0.0, SVG Export Plug-In . SVG Version: 6.00 Build 0)  -->
<!DOCTYPE svg PUBLIC "-//W3C//DTD SVG 1.1//EN" "http://www.w3.org/Graphics/SVG/1.1/DTD/svg11.dtd">
<svg version="1.1" xmlns="http://www.w3.org/2000/svg" xmlns:xlink="http://www.w3.org/1999/xlink" x="0px" y="0px" viewBox="0 0 1920 1080" enable-background="new 0 0 1920 1080" xml:space="preserve">
	<g id="FONS">
		<rect x="0" y="0" fill="#CBC8E4" width="1920" height="1080"/>
	</g>
	<g id="SOL">
		<path fill="#FBCD00" d="M437.9,161.8c0-50.1,40.6-90.7,90.7-90.7c50.1,0,90.7,40.6,90.7,90.7c0,50.1-40.6,90.7-90.7,90.7
		C478.5,252.5,437.9,211.9,437.9,161.8z"/>
	</g>
	<g id="EDIFICI_2">
		<g>
			<g>
				<g>
					<rect x="129.2" y="304.5" fill-rule="evenodd" clip-rule="evenodd" fill="#9193C9" width="83.8" height="35.3"/>
					<path
						fill-rule="evenodd"
						clip-rule="evenodd"
						fill="#CBC8E4"
						d="M216.6,259.3l2.3-8.5c1.3-4.9-2.4-9.8-7.5-9.8h-80.6
					c-5.1,0-8.8,4.8-7.5,9.8l2.3,8.5c0.2,0.7,0.3,1.3,0.3,2v11.8c0,4.3,3.5,7.7,7.7,7.7h75c4.3,0,7.7-3.5,7.7-7.7v-11.8
					C216.3,260.6,216.4,259.9,216.6,259.3z"/>
					<path
						fill-rule="evenodd"
						clip-rule="evenodd"
						fill="#CBC8E4"
						d="M224.3,294c-0.1,0.4-0.1,0.9-0.1,1.3V340
					c0,2.6-1.5,4.7-3.3,4.7h-13c-1.8,0-3.3-2.1-3.3-4.7l0-20.6c0.1-4.7-2.5-8.8-5.8-8.8c-3.4,0-5.8,4-5.8,8.8V340
					c0,2.6-1.5,4.7-3.3,4.7l0,0c-1.8,0-3.3-2.1-3.3-4.7l0-20.6c0.1-4.7-2.5-8.8-5.8-8.8c-3.4,0-5.8,4-5.8,8.8V340
					c0,2.6-1.5,4.7-3.3,4.7h0c-1.8,0-3.3-2.1-3.3-4.7l0-20.6c0.1-4.7-2.5-8.8-5.8-8.8c-3.4,0-5.8,4-5.8,8.8V340
					c0,2.6-1.5,4.7-3.3,4.7h0c-1.8,0-3.3-2.1-3.3-4.7l0-20.6c0.1-4.7-2.5-8.8-5.8-8.8c-3.4,0-5.8,4-5.8,8.8V340
					c0,2.6-1.5,4.7-3.3,4.7h-13c-1.8,0-3.3-2.1-3.3-4.7v-44.7c0-0.5,0-0.9-0.1-1.3L224.3,294z"/>
					<path fill-rule="evenodd" clip-rule="evenodd" fill="#9193C9" d="M225,297.9l3.6-12.2c0.8-2.7-1.2-5.3-4-5.3H117.5
					c-2.8,0-4.8,2.7-4,5.3l3.6,12.2c0.5,1.8,2.1,3,4,3h99.9C222.9,300.9,224.5,299.7,225,297.9z"/>
					<path fill-rule="evenodd" clip-rule="evenodd" fill="#9193C9" d="M133.6,354.7h74.9c7.4,0,13.4,6.2,13.4,13.9v420.1
					c0,7.7-6,13.9-13.4,13.9h-74.9c-7.4,0-13.4-6.2-13.4-13.9V368.6C120.3,360.9,126.2,354.7,133.6,354.7z"/>
					<path
						fill-rule="evenodd"
						clip-rule="evenodd"
						fill="#CBC8E4"
						d="M228.3,353.6l1.4-4.2c2.4-7.1-3.5-14.3-11.9-14.3h-93.5
					c-8.3,0-14.3,7.2-11.9,14.3l1.4,4.2c0.1,0.4,0.2,0.8,0.2,1.3v8.8c0,6.1,5.6,11.1,12.4,11.1h89.1c6.9,0,12.4-5,12.4-11.1v-8.8
					C228.1,354.5,228.1,354,228.3,353.6z"/>
					<path fill-rule="evenodd" clip-rule="evenodd" fill="#9193C9" d="M222.2,353.6l5.2-17.2c0.2-0.6-0.3-1.2-0.9-1.2H115.7
					c-0.6,0-1.1,0.6-0.9,1.2l5.2,17.2c0.1,0.4,0.5,0.7,0.9,0.7h100.3C221.7,354.2,222,354,222.2,353.6z"/>
					<path fill-rule="evenodd" clip-rule="evenodd" fill="#9193C9" d="M162.7,168.5c4.2-7.6,15.2-7.6,19.4,0l20.6,37.1l16.2,29.2
					c6.3,11.4,11.3,25.7-15,25.4h-31.5h-31.6c-24.8,0.7-21.4-14-15-25.4l16.2-29.2L162.7,168.5z"/>
				</g>
			</g>
			<g>
				<g>
					<rect x="367.6" y="304.5" fill-rule="evenodd" clip-rule="evenodd" fill="#9193C9" width="83.8" height="35.3"/>
					<path
						fill-rule="evenodd"
						clip-rule="evenodd"
						fill="#CBC8E4"
						d="M455,259.3l2.3-8.5c1.3-4.9-2.4-9.8-7.5-9.8h-80.6
					c-5.1,0-8.8,4.8-7.5,9.8l2.3,8.5c0.2,0.7,0.3,1.3,0.3,2v11.8c0,4.3,3.5,7.7,7.7,7.7h75c4.3,0,7.7-3.5,7.7-7.7v-11.8
					C454.8,260.6,454.9,259.9,455,259.3z"/>
					<path
						fill-rule="evenodd"
						clip-rule="evenodd"
						fill="#CBC8E4"
						d="M462.7,294c-0.1,0.4-0.1,0.9-0.1,1.3V340
					c0,2.6-1.5,4.7-3.3,4.7h-13c-1.8,0-3.3-2.1-3.3-4.7l0-20.6c0.1-4.7-2.5-8.8-5.8-8.8c-3.4,0-5.8,4-5.8,8.8V340
					c0,2.6-1.5,4.7-3.3,4.7l0,0c-1.8,0-3.3-2.1-3.3-4.7l0-20.6c0.1-4.7-2.5-8.8-5.8-8.8c-3.4,0-5.8,4-5.8,8.8V340
					c0,2.6-1.5,4.7-3.3,4.7h0c-1.8,0-3.3-2.1-3.3-4.7l0-20.6c0.1-4.7-2.5-8.8-5.8-8.8c-3.4,0-5.8,4-5.8,8.8V340
					c0,2.6-1.5,4.7-3.3,4.7h0c-1.8,0-3.3-2.1-3.3-4.7l0-20.6c0.1-4.7-2.5-8.8-5.8-8.8c-3.4,0-5.8,4-5.8,8.8V340
					c0,2.6-1.5,4.7-3.3,4.7h-13c-1.8,0-3.3-2.1-3.3-4.7v-44.7c0-0.5,0-0.9-0.1-1.3L462.7,294z"/>
					<path fill-rule="evenodd" clip-rule="evenodd" fill="#9193C9" d="M463.5,297.9l3.6-12.2c0.8-2.7-1.2-5.3-4-5.3H356
					c-2.8,0-4.8,2.7-4,5.3l3.6,12.2c0.5,1.8,2.1,3,4,3h99.9C461.3,300.9,462.9,299.7,463.5,297.9z"/>
					<path fill-rule="evenodd" clip-rule="evenodd" fill="#9193C9" d="M372.1,354.7H447c7.4,0,13.4,6.2,13.4,13.9v420.1
					c0,7.7-6,13.9-13.4,13.9h-74.9c-7.4,0-13.4-6.2-13.4-13.9V368.6C358.7,360.9,364.7,354.7,372.1,354.7z"/>
					<path
						fill-rule="evenodd"
						clip-rule="evenodd"
						fill="#CBC8E4"
						d="M466.7,353.6l1.4-4.2c2.4-7.1-3.5-14.3-11.9-14.3h-93.5
					c-8.3,0-14.3,7.2-11.9,14.3l1.4,4.2c0.1,0.4,0.2,0.8,0.2,1.3v8.8c0,6.1,5.6,11.1,12.4,11.1h89.1c6.9,0,12.4-5,12.4-11.1v-8.8
					C466.5,354.5,466.6,354,466.7,353.6z"/>
					<path fill-rule="evenodd" clip-rule="evenodd" fill="#9193C9" d="M460.6,353.6l5.2-17.2c0.2-0.6-0.3-1.2-0.9-1.2H354.1
					c-0.6,0-1.1,0.6-0.9,1.2l5.2,17.2c0.1,0.4,0.5,0.7,0.9,0.7h100.3C460.1,354.2,460.5,354,460.6,353.6z"/>
					<path fill-rule="evenodd" clip-rule="evenodd" fill="#9193C9" d="M401.1,168.5c4.2-7.6,15.2-7.6,19.4,0l20.6,37.1l16.2,29.2
					c6.3,11.4,11.3,25.7-15,25.4h-31.5h-31.6c-24.8,0.7-21.4-14-15-25.4l16.2-29.2L401.1,168.5z"/>
				</g>
			</g>
		</g>
	</g>
	<g id="EDIFICI_3">
		<g>
			<path fill-rule="evenodd" clip-rule="evenodd" fill="#9193C9" d="M1778.7,310l2.3,42.4c0.1,1.4,1.4,1.3,1.5,0l2.1-44.2"/>
			<g>
				<g>
					<g>
						<path
							fill-rule="evenodd"
							clip-rule="evenodd"
							fill="#9193C9"
							d="M1797.6,518.7c7.7-6,5.4-13.5,3-23.2
						c-2.2-9-36.7-156.1-36.7-156.1s-4.2-15.9-0.2-30c0.1-0.2,0.1-0.4,0.2-0.6l0-0.1c0.1-0.2,0.1-0.4,0.2-0.7l0,0l0,0
						c0.1-0.2,0.1-0.4,0.2-0.6l0-0.1l0,0l0-0.1c0.1-0.2,0.2-0.4,0.2-0.6l0,0l0,0c0.1-0.2,0.2-0.4,0.3-0.7l0,0
						c0.1-0.2,0.2-0.5,0.3-0.7l0-0.1l0-0.1l0-0.1l0-0.1l0-0.1l0-0.1l0-0.1l0-0.1l0-0.1l0-0.1l0-0.1l0-0.1l0-0.1l0,0l0,0l0-0.1l0,0
						l0-0.1l0-0.1l0-0.1l0-0.1l0.1-0.1l0-0.1l0-0.1l0,0l0,0l0-0.1l0.1-0.1l0-0.1l0,0l0-0.1l0,0l0,0l0,0l0,0l0,0l0,0l0,0l0,0l0,0l0,0
						l0,0l0,0l0,0l0-0.1l0,0l0,0l0,0l0,0l0,0l0,0l0,0l0,0l0,0l0,0l0,0l0,0l0,0l0,0l0,0l0,0c1.2-2.7,2.4-5.1,3.5-7.2
						c2.4-4.4-0.4-10.1-4.9-10.1c-0.2,0-0.3,0-0.5,0c-1.4,0-2.8,0.6-3.9,1.8l-17.5,18.6c-1.6,1.7-2.2,4.2-1.6,6.5l36.4,155.1
						c0.1,0.3,0.1,0.5,0.2,0.8c0.8,2.2,5.1,16.1-4.5,30.7c-5.7,8.6-17.1,17-34.1,25.3c-3.2,1.6-1.9,7,1.5,6.5
						C1762.9,526.9,1792.9,522.3,1797.6,518.7z M1764.9,305.8c0.1-0.2,0.2-0.5,0.3-0.7L1764.9,305.8z"/>
					</g>
				</g>
				<path
					fill-rule="evenodd"
					clip-rule="evenodd"
					fill="#9193C9"
					d="M1778.7,309.7l0-0.1l0-0.1l0-0.1l0-0.1l0-0.1v0l0-0.1l0-0.1
				l0-0.1l0-0.1l0-0.1l0-0.1l0-0.1l0-0.1l0-0.1l0,0l0-0.1l0-0.1l0-0.1l0-0.1l0-0.1l0-0.1l0-0.1l0-0.1v0l0-0.1l0-0.1l0-0.1l0-0.1
				l0-0.1l0-0.1l0-0.1l0-0.1l0,0l0-0.1l0-0.1l0-0.1l0-0.1l0-0.1l0-0.1l0-0.1l0-0.1l0-0.1l0,0l0-0.1l0-0.1l0-0.1l0-0.1l0-0.1l0-0.1
				l0-0.1l0-0.1v0l0-0.1l0-0.1l0-0.1l0-0.1l0-0.1l0-0.1l0-0.1l0-0.1l0-0.1l0,0l0-0.1l0-0.1l0-0.1l0-0.1l0-0.1l0-0.1l0-0.1l0-0.1
				c-0.1-2.3-0.1-5.6-0.2-8.4c0-1.7,1.2-3.2,2.8-3.1c0.5,0,1,0,1.5,0c1.6,0,2.8,1.5,2.7,3.3c-0.1,2.4-0.3,5.2-0.4,7.1l0,0.1l0,0.1
				l0,0.1l0,0.1l0,0.1l0,0.1l0,0.1l0,0.1l0,0.1l0,0.1l0,0.2l0,0.1l0,0l0,0.1l0,0.2l0,0.1l0,0.2l0,0.1l0,0.1l0,0.6l0,0.1l0,0.2l0,0
				l0,0.3l0,0.1l0,0.3l0,0.1v0l0,0.1l0,0.1l0,0.1l0,0.1l0,0.1l0,0.1l0,0.1l0,0.1v0l0,0.1l0,0.1l0,0.1l0,0.1l0,0.1l0,0.1l0,0.1l0,0.1
				v0l0,0.1l0,0.1l0,0.2l0,0.1l0,0.1l0,0.1l0,0.1v0l0,0.1l0,0.1l0,0.1l0,0.1 M1777.4,268.9c-0.4-28.3,0.3-56.3,2-86.4
				c0.2-3.8,5.3-3.8,5.5,0c1.6,29.7,2,58.2,1.3,86.7c0,1.8-1.4,3.1-3,3c-1.2-0.1-2.3-0.2-3.2-0.3
				C1778.6,271.9,1777.4,270.5,1777.4,268.9z"/>
				<path
					fill-rule="evenodd"
					clip-rule="evenodd"
					fill="#9193C9"
					d="M1787,291.5c-9-0.2-36.9-0.6-43.1,0.2
				c-7.4,0.9-14.9,0.5-15.3-5.8c-0.4-6.3,2.9-10.1,17.5-12.3c17.9-2.8,44.1-3.2,60.5,5.3c12.1,6.3,15.1,22.3-0.3,26.7
				c-5.5,1.6-14.1,2.3-22.6,3.2l-9.6,1.3c-4.1,0.7-10.5,2.7-14.2,4.3l0.2-0.5l0,0l0,0c0.1-0.2,0.1-0.4,0.2-0.6l0-0.1l0,0l0-0.1
				c0.1-0.2,0.2-0.4,0.2-0.6l0,0l0,0c0.1-0.2,0.2-0.4,0.3-0.7l0,0l0,0l0,0l0,0l0,0l0,0l0,0l0,0l0,0l0,0l0,0l0,0l0,0l0,0l0,0l0,0l0,0
				h0l0,0h0l0,0l0,0l0,0h0l0,0h0l0,0h0l0,0h0l0,0l0,0l0,0h0l0,0l0,0l0,0h0l0,0l0,0l0,0h0l0,0l0,0l0,0l0,0l0,0h0l0,0l0,0l0,0h0l0,0h0
				l0,0l0,0l0,0h0l0,0l0,0l0,0l0,0l0,0l0,0l0,0l0,0l0,0l0,0l0,0l0,0l0,0l0,0l0,0l0,0l0,0l0,0l0,0l0,0l0,0l0,0l0,0l0,0l0,0l0,0l0,0
				l0,0l0,0l0,0l0-0.1l0-0.1l0,0l0-0.1l0,0l0,0l0-0.1l0,0l0-0.1l0,0l0,0l0,0l0,0l0,0l0,0l0,0l0-0.1l0-0.1l0,0l0,0l0.1-0.1l0,0l0-0.1
				l0,0l0,0l0,0l0.1-0.1l0,0l0,0l0,0l0,0l0,0l0,0l0,0l0,0l0,0l0,0l0,0l0,0l0,0l0,0l0,0l0,0l0-0.1l0,0l0,0l0,0l0,0l0,0l0,0l0,0l0,0
				l0,0l0,0l0,0l0,0l0,0l0,0l0,0l0,0l0.3-0.6c2.9-1.3,7.9-3.4,10.7-4.1c0.1,0,0.1,0,0.2-0.1c2.2-0.8,10.2-1.7,10.2-1.7
				C1814.1,298.2,1801.1,291.7,1787,291.5z"/>
				<path
					fill-rule="evenodd"
					clip-rule="evenodd"
					fill="#9193C9"
					d="M1802.4,281.4c-1.5-2.9,1.2-6.3,3.9-4.8c0.1,0,0.1,0.1,0.2,0.1
				c12.3,6.9,15.2,24.3-0.3,29.1c-5.6,1.7-14.3,2.5-22.8,3.5l-9.7,1.4c-4.2,0.7-10.7,3-14.3,4.7l0.2-0.5l0,0l0,0
				c0.1-0.2,0.1-0.4,0.2-0.6l0-0.1l0,0l0-0.1c0.1-0.2,0.2-0.5,0.3-0.7l0,0l0,0c0.1-0.2,0.2-0.5,0.3-0.7l0,0l0,0l0,0l0,0l0,0l0,0l0,0
				l0,0l0,0l0,0l0,0l0,0l0,0l0,0l0,0l0,0l0,0h0l0,0h0l0,0l0,0l0,0h0l0,0h0l0,0h0l0,0h0l0,0l0,0l0,0h0l0,0l0,0l0,0h0l0,0l0,0l0,0h0
				l0,0l0,0l0,0l0,0l0,0h0l0,0l0,0l0,0h0l0,0h0l0,0l0,0l0,0h0l0,0l0,0l0,0l0,0l0,0l0,0l0,0l0,0l0,0l0,0l0,0l0,0l0,0l0,0l0,0l0,0l0,0
				l0,0l0,0l0,0l0,0l0,0l0,0l0,0l0,0l0,0l0,0l0,0l0,0l0-0.1l0-0.1l0-0.1l0-0.1l0-0.1l0-0.1l0-0.1l0-0.1l0-0.1l0-0.1l0-0.1l0-0.1
				l0-0.1l0,0l0,0l0-0.1l0-0.1l0-0.1l0-0.1l0-0.1l0-0.1l0.1-0.2l0-0.1l0-0.1l0,0l0,0l0-0.1l0.1-0.2l0-0.1l0-0.1l0-0.1l0-0.1l0-0.1
				l0-0.1l0-0.1l0-0.1l0,0l0,0l0-0.1l0,0l0-0.1l0-0.1l0-0.1l0,0l0-0.1l0,0l0-0.1l0,0l0,0l0-0.1l0,0l0,0l0-0.1l0,0l0,0l0,0l0,0l0,0
				l0,0l0,0l0,0l0.3-0.6c2.9-1.5,8-3.7,10.9-4.5c0.1,0,0.2,0,0.2-0.1c2.3-0.9,10.4-1.8,10.4-1.8c11.7-1.4,16.9-3.3,18.1-5.2l0,0
				C1805.8,291.2,1804.8,285.8,1802.4,281.4z"/>
			</g>
		</g>
	</g>
	<g id="ARBRES">
		<path fill="none" d="M2078.4,853.9"/>
		<g>
			<defs>
				<rect id="SVGID_1_" x="1460.1" y="380.9" width="459.9" height="494.2"/>
			</defs>
			<clipPath id="SVGID_2_">
				<use xlink:href="#SVGID_1_" overflow="visible"/>
			</clipPath>
			<g clip-path="url(#SVGID_2_)">
				<path fill="#CEE3C3" d="M2037.1,838.1c0.6-9.7,1-19.5,1-29.4c0-200-120.1-362.1-268.2-362.1c-148.1,0-268.2,162.1-268.2,362.1
				c0,9.9,0.4,19.7,1,29.4H2037.1z"/>
			</g>
		</g>
	</g>
	<g id="ONADES_1_CAPA_INFERIOR">
		<g>
			<path
				fill="none"
				stroke="#AFDCE3"
				stroke-width="30.5974"
				stroke-linecap="round"
				stroke-miterlimit="10"
				d="M24,844.6
			c46.5,0,46.5,6.4,93.1,6.4c46.5,0,46.5-6.4,93.1-6.4c46.5,0,46.5,6.4,93.1,6.4c46.5,0,46.5-6.4,93.1-6.4c46.5,0,46.5,6.4,93.1,6.4
			c46.5,0,46.5-6.4,93.1-6.4c46.5,0,46.5,6.4,93.1,6.4c46.5,0,46.5-6.4,93.1-6.4c46.5,0,46.5,6.4,93.1,6.4c46.5,0,46.5-6.4,93.1-6.4
			c46.5,0,46.5,6.4,93.1,6.4c46.5,0,46.5-6.4,93.1-6.4c46.5,0,46.5,6.4,93.1,6.4c46.5,0,46.5-6.4,93.1-6.4c46.5,0,46.5,6.4,93.1,6.4
			c46.5,0,46.5-6.4,93.1-6.4c46.5,0,46.5,6.4,93.1,6.4c46.5,0,46.5-6.4,93.1-6.4c46.5,0,46.5,6.4,93.1,6.4c46.5,0,46.5-6.4,93.1-6.4
			"/>
		</g>
		<g>
			<path
				fill="none"
				stroke="#AFDCE3"
				stroke-width="30.5974"
				stroke-linecap="round"
				stroke-miterlimit="10"
				d="M24,914.6
			c46.5,0,46.5,6.4,93.1,6.4c46.5,0,46.5-6.4,93.1-6.4c46.5,0,46.5,6.4,93.1,6.4c46.5,0,46.5-6.4,93.1-6.4c46.5,0,46.5,6.4,93.1,6.4
			c46.5,0,46.5-6.4,93.1-6.4c46.5,0,46.5,6.4,93.1,6.4c46.5,0,46.5-6.4,93.1-6.4c46.5,0,46.5,6.4,93.1,6.4c46.5,0,46.5-6.4,93.1-6.4
			c46.5,0,46.5,6.4,93.1,6.4c46.5,0,46.5-6.4,93.1-6.4c46.5,0,46.5,6.4,93.1,6.4c46.5,0,46.5-6.4,93.1-6.4c46.5,0,46.5,6.4,93.1,6.4
			c46.5,0,46.5-6.4,93.1-6.4c46.5,0,46.5,6.4,93.1,6.4c46.5,0,46.5-6.4,93.1-6.4c46.5,0,46.5,6.4,93.1,6.4c46.5,0,46.5-6.4,93.1-6.4
			"/>
		</g>
	</g>
	<g id="CARRETERA">
		<path fill="#CDCCCC" d="M1575.1-0.5c4.2,0,7.7,0,10,0v-4.4c0-2.8-2.2-5-5-5c-2.8,0-5,2.2-5,5V-0.5z"/>
		<path fill="#999999" d="M1587.9,0.6c-2.6,0-47.1,0.1-52.9-0.4v687.3c0,62.4-50.8,113.2-113.2,113.2L0,800.7v90.2h1421.8
		c112.2,0,203.4-91.3,203.4-203.4V0.5C1610.2,0.6,1589.7,0.6,1587.9,0.6z"/>
		<path fill="#CDCCCC" d="M203,840.7h-90c-2.8,0-5,2.2-5,5c0,2.8,2.2,5,5,5h90c2.8,0,5-2.2,5-5C208,843,205.7,840.7,203,840.7z"/>
		<path fill="#CDCCCC" d="M23,840.7H0c0,3.3,0,6.7,0,10h23c2.8,0,5-2.2,5-5C28,843,25.7,840.7,23,840.7z"/>
		<path fill="#CDCCCC" d="M563,840.7h-90c-2.8,0-5,2.2-5,5c0,2.8,2.2,5,5,5h90c2.8,0,5-2.2,5-5C568,843,565.7,840.7,563,840.7z"/>
		<path fill="#CDCCCC" d="M383,840.7h-90c-2.8,0-5,2.2-5,5c0,2.8,2.2,5,5,5h90c2.8,0,5-2.2,5-5C388,843,385.7,840.7,383,840.7z"/>
		<path fill="#CDCCCC" d="M1580.1,530.1c-2.8,0-5,2.2-5,5v90c0,2.8,2.2,5,5,5c2.8,0,5-2.2,5-5v-90
		C1585.1,532.3,1582.9,530.1,1580.1,530.1z"/>
		<path fill="#CDCCCC" d="M743,840.7h-90c-2.8,0-5,2.2-5,5c0,2.8,2.2,5,5,5h90c2.8,0,5-2.2,5-5C748,843,745.7,840.7,743,840.7z"/>
		<path fill="#CDCCCC" d="M1580.1,350.1c-2.8,0-5,2.2-5,5v90c0,2.8,2.2,5,5,5c2.8,0,5-2.2,5-5v-90
		C1585.1,352.3,1582.9,350.1,1580.1,350.1z"/>
		<path fill="#CDCCCC" d="M1575.1,0.6v84.5c0,2.8,2.2,5,5,5c2.8,0,5-2.2,5-5V0.6C1582.8,0.6,1579.3,0.6,1575.1,0.6z"/>
		<path fill="#CDCCCC" d="M1461.2,835.6c-12.8,3.4-26,5.1-39.4,5.1H1373c-2.8,0-5,2.2-5,5c0,2.8,2.2,5,5,5h48.9
		c14.2,0,28.3-1.8,41.9-5.4c2.7-0.7,4.3-3.4,3.6-6.1C1466.6,836.5,1463.9,834.9,1461.2,835.6z"/>
		<path fill="#CDCCCC" d="M1580.1,170.1c-2.8,0-5,2.2-5,5v90c0,2.8,2.2,5,5,5c2.8,0,5-2.2,5-5v-90
		C1585.1,172.3,1582.9,170.1,1580.1,170.1z"/>
		<path fill="#CDCCCC" d="M1578.6,710c-2.7-0.5-5.3,1.3-5.8,4.1c-5,28.8-18.2,55.4-38.1,77.1c-1.9,2-1.7,5.2,0.3,7.1
		c1,0.9,2.2,1.3,3.4,1.3c1.4,0,2.7-0.5,3.7-1.6c21.2-23,35.2-51.4,40.6-82.1C1583.2,713.1,1581.3,710.5,1578.6,710z"/>
		<path fill="#CDCCCC" d="M923,840.7h-90c-2.8,0-5,2.2-5,5c0,2.8,2.2,5,5,5h90c2.8,0,5-2.2,5-5C928,843,925.7,840.7,923,840.7z"/>
		<path fill="#CDCCCC" d="M1283,840.7h-90c-2.8,0-5,2.2-5,5c0,2.8,2.2,5,5,5h90c2.8,0,5-2.2,5-5C1288,843,1285.7,840.7,1283,840.7z"/>
		<path fill="#CDCCCC" d="M1103,840.7h-90c-2.8,0-5,2.2-5,5c0,2.8,2.2,5,5,5h90c2.8,0,5-2.2,5-5C1108,843,1105.7,840.7,1103,840.7z"/>
		<g display="none">
			<path
				display="inline"
				fill="#999999"
				d="M-0.3,800.6H-2921c-62.4,0-113.2-50.8-113.2-113.2V62.7c0-62.4,50.8-113.2,113.2-113.2
			h249.3c112.2,0,203.4-91.3,203.4-203.4v-79.2c0-62.4,50.8-113.2,113.2-113.2h206.7c112.2,0,203.4-91.3,203.4-203.4v-726.7
			c0-112.2-91.3-203.4-203.4-203.4h-2199.5c-112.2,0-203.4,91.3-203.4,203.4v20.8c0,62.4-50.8,113.2-113.2,113.2h-853.5
			c-62.4,0-113.2-50.8-113.2-113.2v-1092c0-62.4,50.8-113.2,113.2-113.2h578.2c112.2,0,203.4-91.3,203.4-203.4v-765.1
			c0-62.4,50.8-113.2,113.2-113.2h783v-90.2h-783c-112.2,0-203.4,91.3-203.4,203.4v765.1c0,62.4-50.8,113.2-113.2,113.2h-578.2
			c-112.2,0-203.4,91.3-203.4,203.4v1092c0,112.2,91.3,203.4,203.4,203.4h853.5c112.2,0,203.4-91.3,203.4-203.4v-20.8
			c0-62.4,50.8-113.2,113.2-113.2h2199.5c62.4,0,113.2,50.8,113.2,113.2v726.7c0,62.4-50.8,113.2-113.2,113.2H-2355
			c-112.2,0-203.4,91.3-203.4,203.4v79.2c0,62.4-50.8,113.2-113.2,113.2H-2921c-112.2,0-203.4,91.3-203.4,203.4v624.7
			c0,112.2,91.3,203.4,203.4,203.4H-0.4C-0.7,867.8-0.7,817-0.3,800.6z"/>
			<path display="inline" fill="#CDCCCC" d="M-4781.4-2968c-2.8,0-5,2.2-5,5v90c0,2.8,2.2,5,5,5c2.8,0,5-2.2,5-5v-90
			C-4776.4-2965.8-4778.6-2968-4781.4-2968z"/>
			<path display="inline" fill="#CDCCCC" d="M-4781.4-3148c-2.8,0-5,2.2-5,5v90c0,2.8,2.2,5,5,5c2.8,0,5-2.2,5-5v-90
			C-4776.4-3145.8-4778.6-3148-4781.4-3148z"/>
			<path display="inline" fill="#CDCCCC" d="M-4625.1-1207.4c-12.8,3.4-26,5.1-39.3,5.1h-48.9c-2.8,0-5,2.2-5,5c0,2.8,2.2,5,5,5h48.9
			c14.2,0,28.3-1.8,41.9-5.4c2.7-0.7,4.3-3.4,3.6-6.1C-4619.7-1206.5-4622.4-1208.1-4625.1-1207.4z"/>
			<path display="inline" fill="#CDCCCC" d="M-4803.3-1202.3h-90c-2.8,0-5,2.2-5,5c0,2.8,2.2,5,5,5h90c2.8,0,5-2.2,5-5
			C-4798.3-1200-4800.6-1202.3-4803.3-1202.3z"/>
			<path display="inline" fill="#CDCCCC" d="M-4781.4-3328c-2.8,0-5,2.2-5,5v90c0,2.8,2.2,5,5,5c2.8,0,5-2.2,5-5v-90
			C-4776.4-3325.8-4778.6-3328-4781.4-3328z"/>
			<path display="inline" fill="#CDCCCC" d="M-5523.2-1202.4c-29.3-1-57.5-10.3-81.6-26.9c-2.3-1.6-5.4-1-7,1.3c-1.6,2.3-1,5.4,1.3,7
			c25.7,17.7,55.8,27.6,87,28.6c0.1,0,0.1,0,0.2,0c2.7,0,4.9-2.1,5-4.8C-5518.2-1200-5520.4-1202.3-5523.2-1202.4z"/>
			<path display="inline" fill="#CDCCCC" d="M-4781.4-3508c-2.8,0-5,2.2-5,5v90c0,2.8,2.2,5,5,5c2.8,0,5-2.2,5-5v-90
			C-4776.4-3505.8-4778.6-3508-4781.4-3508z"/>
			<path
				display="inline"
				fill="#CDCCCC"
				d="M-4781.4-2788c-2.8,0-5,2.2-5,5v18.7c0,23.4-5.1,45.8-15.2,66.7
			c-1.2,2.5-0.2,5.5,2.3,6.7c0.7,0.3,1.4,0.5,2.2,0.5c1.9,0,3.6-1,4.5-2.8c10.8-22.2,16.2-46.1,16.2-71v-18.7
			C-4776.4-2785.8-4778.6-2788-4781.4-2788z"/>
			<path display="inline" fill="#CDCCCC" d="M-5343.3-1202.3h-90c-2.8,0-5,2.2-5,5c0,2.8,2.2,5,5,5h90c2.8,0,5-2.2,5-5
			C-5338.3-1200-5340.6-1202.3-5343.3-1202.3z"/>
			<path display="inline" fill="#CDCCCC" d="M-4852.3-2632.2c-1.5-2.3-4.5-3.1-6.9-1.6c-24.1,14.9-52,22.8-80.5,22.8h-2.5
			c-2.8,0-5,2.2-5,5c0,2.8,2.2,5,5,5h2.5c30.4,0,60-8.4,85.8-24.3C-4851.6-2626.7-4850.9-2629.8-4852.3-2632.2z"/>
			<path display="inline" fill="#CDCCCC" d="M-5387.2-2606c0-2.8-2.2-5-5-5h-90c-2.8,0-5,2.2-5,5c0,2.8,2.2,5,5,5h90
			C-5389.4-2601-5387.2-2603.2-5387.2-2606z"/>
			<path display="inline" fill="#CDCCCC" d="M-5207.2-2606c0-2.8-2.2-5-5-5h-90c-2.8,0-5,2.2-5,5c0,2.8,2.2,5,5,5h90
			C-5209.4-2601-5207.2-2603.2-5207.2-2606z"/>
			<path display="inline" fill="#CDCCCC" d="M-5163.3-1202.3h-90c-2.8,0-5,2.2-5,5c0,2.8,2.2,5,5,5h90c2.8,0,5-2.2,5-5
			C-5158.3-1200-5160.6-1202.3-5163.3-1202.3z"/>
			<path display="inline" fill="#CDCCCC" d="M-4983.3-1202.3h-90c-2.8,0-5,2.2-5,5c0,2.8,2.2,5,5,5h90c2.8,0,5-2.2,5-5
			C-4978.3-1200-4980.6-1202.3-4983.3-1202.3z"/>
			<path display="inline" fill="#CDCCCC" d="M-3079.3,365.1c-2.8,0-5,2.2-5,5v90c0,2.8,2.2,5,5,5c2.8,0,5-2.2,5-5v-90
			C-3074.3,367.4-3076.5,365.1-3079.3,365.1z"/>
			<path
				display="inline"
				fill="#CDCCCC"
				d="M-4708.4-3662.8c-1.6-2.3-4.7-2.9-7-1.3c-25.8,17.7-45.8,42.2-58,70.9
			c-1.1,2.5,0.1,5.5,2.6,6.6c0.6,0.3,1.3,0.4,2,0.4c1.9,0,3.8-1.1,4.6-3c11.4-26.9,30.3-49.9,54.5-66.5
			C-4707.4-3657.5-4706.8-3660.6-4708.4-3662.8z"/>
			<path display="inline" fill="#CDCCCC" d="M-3565-1539.7h-90c-2.8,0-5,2.2-5,5c0,2.8,2.2,5,5,5h90c2.8,0,5-2.2,5-5
			C-3560-1537.5-3562.3-1539.7-3565-1539.7z"/>
			<path display="inline" fill="#CDCCCC" d="M-3385-1539.7h-90c-2.8,0-5,2.2-5,5c0,2.8,2.2,5,5,5h90c2.8,0,5-2.2,5-5
			C-3380-1537.5-3382.3-1539.7-3385-1539.7z"/>
			<path display="inline" fill="#CDCCCC" d="M-3745-1539.7h-90c-2.8,0-5,2.2-5,5c0,2.8,2.2,5,5,5h90c2.8,0,5-2.2,5-5
			C-3740-1537.5-3742.3-1539.7-3745-1539.7z"/>
			<path
				display="inline"
				fill="#CDCCCC"
				d="M-4507.6-1333c-2.7-0.5-5.3,1.3-5.8,4.1c-5.1,28.8-18.2,55.4-38.1,77
			c-1.9,2-1.7,5.2,0.3,7.1c1,0.9,2.2,1.3,3.4,1.3c1.4,0,2.7-0.5,3.7-1.6c21.2-23,35.2-51.4,40.6-82.1
			C-4503.1-1329.9-4504.9-1332.5-4507.6-1333z"/>
			<path display="inline" fill="#CDCCCC" d="M-3205-1539.7h-90c-2.8,0-5,2.2-5,5c0,2.8,2.2,5,5,5h90c2.8,0,5-2.2,5-5
			C-3200-1537.5-3202.3-1539.7-3205-1539.7z"/>
			<path display="inline" fill="#CDCCCC" d="M-3074.3,190.1c0-2.8-2.2-5-5-5c-2.8,0-5,2.2-5,5v90c0,2.8,2.2,5,5,5c2.8,0,5-2.2,5-5
			V190.1z"/>
			<path display="inline" fill="#CDCCCC" d="M-3835-3687.7c0-2.8-2.2-5-5-5h-68.2c-2.8,0-5,2.2-5,5c0,2.8,2.2,5,5,5h68.2
			C-3837.2-3682.7-3835-3685-3835-3687.7z"/>
			<path display="inline" fill="#CDCCCC" d="M-3020-1534.7c0-2.8-2.2-5-5-5h-90c-2.8,0-5,2.2-5,5c0,2.8,2.2,5,5,5h90
			C-3022.3-1529.7-3020-1531.9-3020-1534.7z"/>
			<path display="inline" fill="#CDCCCC" d="M-4353.2-3687.7c0-2.8-2.2-5-5-5h-90c-2.8,0-5,2.2-5,5c0,2.8,2.2,5,5,5h90
			C-4355.4-3682.7-4353.2-3685-4353.2-3687.7z"/>
			<path display="inline" fill="#CDCCCC" d="M-4285-1539.7h-62.7c-9.4,0-18.8,0.8-28,2.4c-2.7,0.5-4.5,3.1-4.1,5.8
			c0.4,2.4,2.5,4.1,4.9,4.1c0.3,0,0.6,0,0.9-0.1c8.6-1.5,17.5-2.2,26.3-2.2h62.7c2.8,0,5-2.2,5-5
			C-4280-1537.5-4282.3-1539.7-4285-1539.7z"/>
			<path
				display="inline"
				fill="#CDCCCC"
				d="M-4457.9-1496.9c-23.1,21.1-39.6,48.2-47.6,78.2c-0.7,2.7,0.9,5.4,3.5,6.1
			c0.4,0.1,0.9,0.2,1.3,0.2c2.2,0,4.2-1.5,4.8-3.7c7.5-28.2,23-53.6,44.7-73.4c2-1.9,2.2-5,0.3-7.1
			C-4452.7-1498.7-4455.9-1498.8-4457.9-1496.9z"/>
			<path display="inline" fill="#CDCCCC" d="M-3925-1539.7h-90c-2.8,0-5,2.2-5,5c0,2.8,2.2,5,5,5h90c2.8,0,5-2.2,5-5
			C-3920-1537.5-3922.3-1539.7-3925-1539.7z"/>
			<path display="inline" fill="#CDCCCC" d="M-3993.2-3687.7c0-2.8-2.2-5-5-5h-90c-2.8,0-5,2.2-5,5c0,2.8,2.2,5,5,5h90
			C-3995.4-3682.7-3993.2-3685-3993.2-3687.7z"/>
			<path display="inline" fill="#CDCCCC" d="M-4173.2-3687.7c0-2.8-2.2-5-5-5h-90c-2.8,0-5,2.2-5,5c0,2.8,2.2,5,5,5h90
			C-4175.4-3682.7-4173.2-3685-4173.2-3687.7z"/>
			<path display="inline" fill="#CDCCCC" d="M-4105-1539.7h-90c-2.8,0-5,2.2-5,5c0,2.8,2.2,5,5,5h90c2.8,0,5-2.2,5-5
			C-4100-1537.5-4102.3-1539.7-4105-1539.7z"/>
			<path display="inline" fill="#CDCCCC" d="M-5027.2-2606c0-2.8-2.2-5-5-5h-90c-2.8,0-5,2.2-5,5c0,2.8,2.2,5,5,5h90
			C-5029.4-2601-5027.2-2603.2-5027.2-2606z"/>
			<path display="inline" fill="#CDCCCC" d="M-1994.9-1331.9v90c0,2.8,2.2,5,5,5c2.8,0,5-2.2,5-5v-90c0-2.8-2.2-5-5-5
			C-1992.7-1336.9-1994.9-1334.7-1994.9-1331.9z"/>
			<path display="inline" fill="#CDCCCC" d="M-1984.9-701.9v-90c0-2.8-2.2-5-5-5c-2.8,0-5,2.2-5,5v90c0,2.8,2.2,5,5,5
			C-1987.2-696.9-1984.9-699.2-1984.9-701.9z"/>
			<path display="inline" fill="#CDCCCC" d="M-1984.9-971.9c0-2.8-2.2-5-5-5c-2.8,0-5,2.2-5,5v90c0,2.8,2.2,5,5,5c2.8,0,5-2.2,5-5
			V-971.9z"/>
			<path
				display="inline"
				fill="#CDCCCC"
				d="M-1993.2-617.2c-2.7-0.6-5.4,1-6,3.7c-6.9,28.4-21.7,54.1-42.9,74.5
			c-2,1.9-2.1,5.1-0.2,7.1c1,1,2.3,1.5,3.6,1.5c1.2,0,2.5-0.5,3.5-1.4c22.6-21.7,38.4-49.1,45.7-79.3
			C-1988.9-613.8-1990.5-616.5-1993.2-617.2z"/>
			<path display="inline" fill="#CDCCCC" d="M-1984.9-1151.9c0-2.8-2.2-5-5-5c-2.8,0-5,2.2-5,5v90c0,2.8,2.2,5,5,5c2.8,0,5-2.2,5-5
			V-1151.9z"/>
			<path display="inline" fill="#CDCCCC" d="M-4628.2-3682.6c0.1,0,0.1,0,0.2,0c1.6-0.1,3.3-0.1,5-0.1h84.8c2.8,0,5-2.2,5-5
			c0-2.8-2.2-5-5-5h-84.8c-1.8,0-3.6,0-5.3,0.1c-2.8,0.1-4.9,2.4-4.8,5.2C-4633.1-3684.8-4630.9-3682.6-4628.2-3682.6z"/>
			<path display="inline" fill="#CDCCCC" d="M-5676.2-1827.2c2.8,0,5-2.2,5-5v-90c0-2.8-2.2-5-5-5c-2.8,0-5,2.2-5,5v90
			C-5681.2-1829.5-5679-1827.2-5676.2-1827.2z"/>
			<path display="inline" fill="#CDCCCC" d="M-5676.2-2007.2c2.8,0,5-2.2,5-5v-90c0-2.8-2.2-5-5-5c-2.8,0-5,2.2-5,5v90
			C-5681.2-2009.5-5679-2007.2-5676.2-2007.2z"/>
			<path display="inline" fill="#CDCCCC" d="M-5676.2-2187.2c2.8,0,5-2.2,5-5v-90c0-2.8-2.2-5-5-5c-2.8,0-5,2.2-5,5v90
			C-5681.2-2189.5-5679-2187.2-5676.2-2187.2z"/>
			<path display="inline" fill="#CDCCCC" d="M-5671.2-1355.6v-26.6c0-2.8-2.2-5-5-5c-2.8,0-5,2.2-5,5v26.6c0,22.1,4.3,43.5,12.9,63.7
			c0.8,1.9,2.7,3.1,4.6,3.1c0.7,0,1.3-0.1,1.9-0.4c2.5-1.1,3.7-4,2.7-6.6C-5667.2-1314.8-5671.2-1334.9-5671.2-1355.6z"/>
			<path display="inline" fill="#CDCCCC" d="M-5676.2-1647.2c2.8,0,5-2.2,5-5v-90c0-2.8-2.2-5-5-5c-2.8,0-5,2.2-5,5v90
			C-5681.2-1649.5-5679-1647.2-5676.2-1647.2z"/>
			<path
				display="inline"
				fill="#CDCCCC"
				d="M-2001.2-1419.9c0.6,2.2,2.6,3.6,4.8,3.6c0.5,0,0.9-0.1,1.4-0.2c2.6-0.8,4.2-3.6,3.4-6.2
			c-8.8-29.8-26-56.5-49.6-77c-2.1-1.8-5.2-1.6-7.1,0.5c-1.8,2.1-1.6,5.2,0.5,7.1C-2025.6-1472.9-2009.5-1447.9-2001.2-1419.9z"/>
			<path display="inline" fill="#CDCCCC" d="M-5676.2-1467.2c2.8,0,5-2.2,5-5v-90c0-2.8-2.2-5-5-5c-2.8,0-5,2.2-5,5v90
			C-5681.2-1469.5-5679-1467.2-5676.2-1467.2z"/>
			<path display="inline" fill="#CDCCCC" d="M-5676.2-2367.2c2.8,0,5-2.2,5-5v-75.4c0-4.7,0.2-9.4,0.6-14.1c0.2-2.8-1.8-5.2-4.5-5.4
			c-2.7-0.2-5.2,1.8-5.4,4.5c-0.5,5-0.7,10-0.7,15v75.4C-5681.2-2369.5-5679-2367.2-5676.2-2367.2z"/>
			<path display="inline" fill="#CDCCCC" d="M-2575-1529.7h90c2.8,0,5-2.2,5-5c0-2.8-2.2-5-5-5h-90c-2.8,0-5,2.2-5,5
			C-2580-1531.9-2577.8-1529.7-2575-1529.7z"/>
			<path display="inline" fill="#CDCCCC" d="M-2395-1529.7h90c2.8,0,5-2.2,5-5c0-2.8-2.2-5-5-5h-90c-2.8,0-5,2.2-5,5
			C-2400-1531.9-2397.8-1529.7-2395-1529.7z"/>
			<path
				display="inline"
				fill="#CDCCCC"
				d="M-2215-1529.7h66.8c7.5,0,15.1,0.5,22.4,1.6c0.2,0,0.5,0.1,0.7,0.1
			c2.4,0,4.6-1.8,4.9-4.3c0.4-2.7-1.5-5.3-4.2-5.7c-7.9-1.2-15.9-1.7-23.9-1.7h-66.8c-2.8,0-5,2.2-5,5
			C-2220-1531.9-2217.8-1529.7-2215-1529.7z"/>
			<path display="inline" fill="#CDCCCC" d="M-2530.8-193.4c-1.1,2.5,0.1,5.5,2.6,6.6c0.6,0.3,1.3,0.4,2,0.4c1.9,0,3.8-1.1,4.6-3
			c8.8-20.4,13.2-42.1,13.2-64.5v-25.7c0-2.8-2.2-5-5-5c-2.8,0-5,2.2-5,5v25.7C-2518.4-232.9-2522.5-212.5-2530.8-193.4z"/>
			<path display="inline" fill="#CDCCCC" d="M-5566.4-2598.5c-0.9-2.6-3.8-4-6.4-3c-29.3,10.4-55,29-74.2,53.7
			c-1.7,2.2-1.3,5.3,0.9,7c0.9,0.7,2,1.1,3.1,1.1c1.5,0,3-0.7,4-1.9c18-23.2,42.1-40.6,69.6-50.4
			C-5566.8-2593-5565.5-2595.9-5566.4-2598.5z"/>
			<path display="inline" fill="#CDCCCC" d="M-2935-1529.7h90c2.8,0,5-2.2,5-5c0-2.8-2.2-5-5-5h-90c-2.8,0-5,2.2-5,5
			C-2940-1531.9-2937.8-1529.7-2935-1529.7z"/>
			<path display="inline" fill="#CDCCCC" d="M-2755-1529.7h90c2.8,0,5-2.2,5-5c0-2.8-2.2-5-5-5h-90c-2.8,0-5,2.2-5,5
			C-2760-1531.9-2757.8-1529.7-2755-1529.7z"/>
			<path display="inline" fill="#CDCCCC" d="M-2297.3-496.4h-57.8c-11.1,0-22.2,1.1-33,3.3c-2.7,0.6-4.4,3.2-3.9,5.9
			c0.5,2.4,2.6,4,4.9,4c0.3,0,0.7,0,1-0.1c10.1-2.1,20.6-3.1,31-3.1h57.8c2.8,0,5-2.2,5-5C-2292.3-494.2-2294.5-496.4-2297.3-496.4z
			"/>
			<path display="inline" fill="#CDCCCC" d="M-0.6,840.7H-67c-2.8,0-5,2.2-5,5c0,2.8,2.2,5,5,5h66.4C-0.6,847.4-0.6,844-0.6,840.7z"/>
			<path display="inline" fill="#CDCCCC" d="M-517,840.7h-90c-2.8,0-5,2.2-5,5c0,2.8,2.2,5,5,5h90c2.8,0,5-2.2,5-5
			C-512,843-514.3,840.7-517,840.7z"/>
			<path display="inline" fill="#CDCCCC" d="M-337,840.7h-90c-2.8,0-5,2.2-5,5c0,2.8,2.2,5,5,5h90c2.8,0,5-2.2,5-5
			C-332,843-334.3,840.7-337,840.7z"/>
			<path display="inline" fill="#CDCCCC" d="M-157,840.7h-90c-2.8,0-5,2.2-5,5c0,2.8,2.2,5,5,5h90c2.8,0,5-2.2,5-5
			C-152,843-154.3,840.7-157,840.7z"/>
			<path display="inline" fill="#CDCCCC" d="M-2317,840.7h-90c-2.8,0-5,2.2-5,5c0,2.8,2.2,5,5,5h90c2.8,0,5-2.2,5-5
			C-2312,843-2314.3,840.7-2317,840.7z"/>
			<path display="inline" fill="#CDCCCC" d="M-2468.9-450.1c-22.4,21.8-38,49.4-45.1,79.7c-0.6,2.7,1,5.4,3.7,6
			c0.4,0.1,0.8,0.1,1.1,0.1c2.3,0,4.3-1.6,4.9-3.9c6.7-28.4,21.3-54.3,42.4-74.8c2-1.9,2-5.1,0.1-7.1
			C-2463.8-452-2466.9-452-2468.9-450.1z"/>
			<path display="inline" fill="#CDCCCC" d="M-2137,840.7h-90c-2.8,0-5,2.2-5,5c0,2.8,2.2,5,5,5h90c2.8,0,5-2.2,5-5
			C-2132,843-2134.3,840.7-2137,840.7z"/>
			<path display="inline" fill="#CDCCCC" d="M-2497,840.7h-90c-2.8,0-5,2.2-5,5c0,2.8,2.2,5,5,5h90c2.8,0,5-2.2,5-5
			C-2492,843-2494.3,840.7-2497,840.7z"/>
			<path display="inline" fill="#CDCCCC" d="M-1777,840.7h-90c-2.8,0-5,2.2-5,5c0,2.8,2.2,5,5,5h90c2.8,0,5-2.2,5-5
			C-1772,843-1774.3,840.7-1777,840.7z"/>
			<path display="inline" fill="#CDCCCC" d="M-2118.4-499.3c-9.8,1.9-19.8,2.9-29.8,2.9h-59c-2.8,0-5,2.2-5,5c0,2.8,2.2,5,5,5h59
			c10.7,0,21.4-1,31.8-3.1c2.7-0.5,4.5-3.2,3.9-5.9C-2113.1-498.1-2115.7-499.8-2118.4-499.3z"/>
			<path display="inline" fill="#CDCCCC" d="M-1957,840.7h-90c-2.8,0-5,2.2-5,5c0,2.8,2.2,5,5,5h90c2.8,0,5-2.2,5-5
			C-1952,843-1954.3,840.7-1957,840.7z"/>
			<path
				display="inline"
				fill="#CDCCCC"
				d="M-2932.1-95.3c-0.3-2.7-2.7-4.7-5.5-4.5c-31,3.1-60.4,15.1-84.8,34.5
			c-2.2,1.7-2.5,4.9-0.8,7c1,1.2,2.4,1.9,3.9,1.9c1.1,0,2.2-0.4,3.1-1.1c23-18.2,50.5-29.4,79.6-32.4
			C-2933.9-90.1-2931.9-92.5-2932.1-95.3z"/>
			<path display="inline" fill="#CDCCCC" d="M-1597,840.7h-90c-2.8,0-5,2.2-5,5c0,2.8,2.2,5,5,5h90c2.8,0,5-2.2,5-5
			C-1592,843-1594.3,840.7-1597,840.7z"/>
			<path display="inline" fill="#CDCCCC" d="M-3068.8,728.3c-0.7-2.7-3.5-4.2-6.2-3.5s-4.2,3.5-3.5,6.1c8.3,30,24.9,56.9,48.2,77.9
			c1,0.9,2.2,1.3,3.3,1.3c1.4,0,2.7-0.6,3.7-1.7c1.8-2.1,1.7-5.2-0.4-7.1C-3045.4,781.7-3061,756.4-3068.8,728.3z"/>
			<path display="inline" fill="#CDCCCC" d="M-3074.3,640.1v-90c0-2.8-2.2-5-5-5c-2.8,0-5,2.2-5,5v90c0,2.8,2.2,5,5,5
			C-3076.5,645.1-3074.3,642.9-3074.3,640.1z"/>
			<path display="inline" fill="#CDCCCC" d="M-2677,840.7h-90c-2.8,0-5,2.2-5,5c0,2.8,2.2,5,5,5h90c2.8,0,5-2.2,5-5
			C-2672,843-2674.3,840.7-2677,840.7z"/>
			<path
				display="inline"
				fill="#CDCCCC"
				d="M-2578.6-125.7c-1.6-2.3-4.7-2.9-6.9-1.3c-24.2,16.5-52.5,25.6-81.8,26.4
			c-2.8,0.1-4.9,2.4-4.9,5.1c0.1,2.7,2.3,4.9,5,4.9c0,0,0.1,0,0.1,0c31.2-0.9,61.4-10.6,87.1-28.2
			C-2577.6-120.4-2577-123.5-2578.6-125.7z"/>
			<path display="inline" fill="#CDCCCC" d="M-2752.2-95.6c0-2.8-2.2-5-5-5h-90c-2.8,0-5,2.2-5,5c0,2.8,2.2,5,5,5h90
			C-2754.4-90.6-2752.2-92.8-2752.2-95.6z"/>
			<path display="inline" fill="#CDCCCC" d="M-2857,840.7h-63.9c-8.4,0-16.9-0.7-25.1-2c-2.7-0.4-5.3,1.4-5.7,4.1
			c-0.4,2.7,1.4,5.3,4.1,5.7c8.8,1.4,17.8,2.2,26.7,2.2h63.9c2.8,0,5-2.2,5-5C-2852,843-2854.3,840.7-2857,840.7z"/>
			<path display="inline" fill="#CDCCCC" d="M-1237,840.7h-90c-2.8,0-5,2.2-5,5c0,2.8,2.2,5,5,5h90c2.8,0,5-2.2,5-5
			C-1232,843-1234.3,840.7-1237,840.7z"/>
			<path display="inline" fill="#CDCCCC" d="M-877,840.7h-90c-2.8,0-5,2.2-5,5c0,2.8,2.2,5,5,5h90c2.8,0,5-2.2,5-5
			C-872,843-874.3,840.7-877,840.7z"/>
			<path display="inline" fill="#CDCCCC" d="M-3074.3,62.7c0-17.1,2.8-34,8.3-50c0.9-2.6-0.5-5.5-3.1-6.4c-2.6-0.9-5.5,0.5-6.4,3.1
			c-5.9,17.1-8.9,35-8.9,53.3v37.4c0,2.8,2.2,5,5,5c2.8,0,5-2.2,5-5V62.7z"/>
			<path display="inline" fill="#CDCCCC" d="M-697,840.7h-90c-2.8,0-5,2.2-5,5c0,2.8,2.2,5,5,5h90c2.8,0,5-2.2,5-5
			C-692,843-694.3,840.7-697,840.7z"/>
			<path display="inline" fill="#CDCCCC" d="M-1417,840.7h-90c-2.8,0-5,2.2-5,5c0,2.8,2.2,5,5,5h90c2.8,0,5-2.2,5-5
			C-1412,843-1414.3,840.7-1417,840.7z"/>
			<path display="inline" fill="#CDCCCC" d="M-1057,840.7h-90c-2.8,0-5,2.2-5,5c0,2.8,2.2,5,5,5h90c2.8,0,5-2.2,5-5
			C-1052,843-1054.3,840.7-1057,840.7z"/>
		</g>
	</g>
	<g id="EDIFICI_1">
		<g>
			<path
				fill-rule="evenodd"
				clip-rule="evenodd"
				fill="#9193C9"
				d="M594.4,715V548.9c0-33.6,11.1-65.3,29.9-84.5
			c75.3-76.9,163.6-100.2,258.4-96.9v0h24v344.7l-2.6,4.6l-13.9-1.8h-10H594.4L594.4,715z M602.8,538.3L602.8,538.3
			c3.3-1.8,7.7-4,13.1-6.5 M626.2,527.1L626.2,527.1c5-2.2,10.7-4.5,17-6.9 M654.7,516L654.7,516c6.2-2.2,12.9-4.4,20-6.6
			 M689,505.2L689,505.2c7.6-2.2,15.8-4.3,24.4-6.4 M733.8,494.1L733.8,494.1c9.2-2,19-3.9,29.2-5.7 M788.3,484.3L788.3,484.3
			c11.5-1.7,23.5-3.3,36.1-4.6 M845.3,477.6L845.3,477.6c11.9-1.1,24.2-2,37.1-2.7 M602.8,610.3L602.8,610.3c3.3-1.6,7.7-3.7,13.1-6
			 M626.2,600.1L626.2,600.1c5-1.9,10.7-4,17-6.1 M654.7,590.2L654.7,590.2c6.2-1.9,12.9-3.9,20-5.8 M689,580.8L689,580.8
			c7.6-1.9,15.8-3.7,24.4-5.4 M733.8,571.5L733.8,571.5c9.2-1.6,19-3.1,29.2-4.5 M788.3,564L788.3,564c11.5-1.2,23.5-2.3,36.1-3.2
			 M845.3,559.6L845.3,559.6c11.9-0.6,24.2-1,37.1-1.2 M601,712.2c3.6-0.4,8-0.9,13.1-1.5v-30.6c0-10.9-2.9-26-6.5-26
			c-3.6,0-6.5,15.1-6.5,26V712.2L601,712.2z M624.4,709.6c5.2-0.6,10.9-1.1,17-1.7v-44.8c0-10.9-3.8-26-8.5-26
			c-4.7,0-8.5,15.1-8.5,26V709.6L624.4,709.6z M653,706.8c6.3-0.6,13-1.2,20-1.7v-48.9c0-10.9-4.5-26-10-26c-5.5,0-10,15.1-10,26
			V706.8L653,706.8z M687.2,703.9c7.9-0.6,16-1.1,24.4-1.6v-50.6c0-10.9-5.5-26-12.2-26c-6.7,0-12.2,15.1-12.2,26V703.9L687.2,703.9
			z M732.1,701.1c9.6-0.5,19.3-0.8,29.2-1.1v-58.6c0-10.9-6.5-26-14.6-26c-8.1,0-14.6,15.1-14.6,26V701.1L732.1,701.1z M786.5,699.6
			c12.1-0.1,24.2,0,36.1,0.4v-62.6c0-11.6-8.1-27.7-18.1-27.7c-10,0-18.1,16-18.1,27.7V699.6L786.5,699.6z M843.6,700.9
			c12.7,0.7,25.2,1.7,37.1,3.1v-68.2c0-11.9-8.3-28.4-18.5-28.4c-10.2,0-18.5,16.5-18.5,28.4V700.9z"/>
			<path
				fill-rule="evenodd"
				clip-rule="evenodd"
				fill="#9193C9"
				d="M1434.2,715V555.9c0-38.6-13-74.9-34.8-96.4
			c-74.2-73-160.8-95.2-253.5-92l0,0h-24v344.7l2.6,4.6l13.9-1.8h10H1434.2L1434.2,715z M1402.4,527.1L1402.4,527.1
			c-5-2.2-10.7-4.5-17-6.9 M1373.9,516L1373.9,516c-6.2-2.2-12.9-4.4-20-6.6 M1339.6,505.2L1339.6,505.2c-7.6-2.2-15.8-4.3-24.4-6.4
			 M1294.8,494.1L1294.8,494.1c-9.2-2-19-3.9-29.2-5.7 M1240.3,484.3L1240.3,484.3c-11.5-1.7-23.5-3.3-36.1-4.6 M1183.3,477.6
			L1183.3,477.6c-11.9-1.1-24.2-2-37-2.7 M1425.9,610.3c-3.3-1.6-7.7-3.7-13.1-6 M1425.9,576.7 M1402.4,600.1L1402.4,600.1
			c-5-1.9-10.7-4-17-6.1 M1373.9,590.2L1373.9,590.2c-6.2-1.9-12.9-3.9-20-5.8 M1339.6,580.8L1339.6,580.8
			c-7.6-1.9-15.8-3.7-24.4-5.4 M1294.8,571.5L1294.8,571.5c-9.2-1.6-19-3.1-29.2-4.5 M1240.3,564L1240.3,564
			c-11.5-1.2-23.5-2.3-36.1-3.2 M1183.3,559.6L1183.3,559.6c-11.9-0.6-24.2-1-37-1.2 M1427.6,712.2c-3.6-0.4-8-0.9-13.1-1.5v-30.6
			c0-10.9,2.9-26,6.5-26c3.6,0,6.5,15.1,6.5,26V712.2L1427.6,712.2z M1404.2,709.6c-5.2-0.6-10.9-1.1-17-1.7v-44.8
			c0-10.9,3.8-26,8.5-26c4.7,0,8.5,15.1,8.5,26V709.6L1404.2,709.6z M1375.6,706.8c-6.3-0.6-13-1.2-20-1.7v-48.9
			c0-10.9,4.5-26,10-26c5.5,0,10,15.1,10,26V706.8L1375.6,706.8z M1341.4,703.9c-7.9-0.6-16-1.1-24.4-1.6v-50.6
			c0-10.9,5.5-26,12.2-26c6.7,0,12.2,15.1,12.2,26V703.9L1341.4,703.9z M1296.5,701.1c-9.6-0.5-19.3-0.8-29.2-1.1v-58.6
			c0-10.9,6.5-26,14.6-26c8.1,0,14.6,15.1,14.6,26V701.1L1296.5,701.1z M1242.1,699.6c-12.1-0.1-24.2,0-36.1,0.4v-62.6
			c0-11.6,8.1-27.7,18.1-27.7c10,0,18.1,16,18.1,27.7V699.6L1242.1,699.6z M1185,700.9c-12.7,0.7-25.2,1.7-37,3.1v-68.2
			c0-11.9,8.3-28.4,18.5-28.4c10.2,0,18.5,16.5,18.5,28.4V700.9z"/>
			<polygon fill-rule="evenodd" clip-rule="evenodd" fill="#CBC8E4" points="943.8,333.4 935.4,356.3 935.4,359.8 1087,359.8
			1077.3,333.4 		"/>
			<path fill-rule="evenodd" clip-rule="evenodd" fill="#9193C9" d="M594.4,733.8v45.5c0,10.5,6,19,13.5,19.1l293,2.7
			c7.5,0.1,13.7-8.5,13.7-19.1v-48.2c0-10.5-6.1-19.1-13.6-19.1H608C600.5,714.7,594.4,723.3,594.4,733.8z"/>
			<path fill-rule="evenodd" clip-rule="evenodd" fill="#9193C9" d="M1132.9,803.1l288.5-2.7c10.4-0.1,18.8-11.8,18.8-26.2v-33
			c0-14.5-8.5-26.2-18.9-26.2h-288.5c-10.5,0-18.9,11.7-18.9,26.2v35.7C1113.8,791.4,1122.4,803.2,1132.9,803.1z"/>
			<path fill-rule="evenodd" clip-rule="evenodd" fill="#CBC8E4" d="M1143,315.6v-2.8c0-9.9-5.4-17.9-12.1-17.9l0,0h-36.4h-9.1
			c-6.7,0-12.1,8-12.1,17.9v2.8c0,9.9,5.4,17.9,12.1,17.9h45.5C1137.5,333.4,1143,325.4,1143,315.6z"/>
			<path fill-rule="evenodd" clip-rule="evenodd" fill="#9193C9" d="M1133.1,359.8v-1.2l0.3-1.1l0.7-2.4v-0.3l2.4-7.6
			c2-6.5-1.2-13.9-6.1-13.9h-45.2c-4.9,0-8.1,7.4-6.1,13.9l3.5,11.4l0.3,1H1133.1z"/>
			<g>
				<g>
					<path
						fill-rule="evenodd"
						clip-rule="evenodd"
						fill="#9193C9"
						d="M1043.3,607.9c8.6,13.9,14.1,34,14.1,56.2h-14.1V607.9
					L1043.3,607.9z M1052.9,706h8.5v15.4h-4.8v53.8V804v0l4.5,0h0.3l10.5-0.1l0,0h26.7V359.8h-20.5h-9.3H959.6l0,0h-24.3v444.1h24.3
					l9.8,0.1v-28.7v-53.8h-4.8V706h8.5 M985.3,664.2h-14.1c0-22.3,5.4-42.3,14.1-56.2V664.2L985.3,664.2z M1014.3,588.1
					c7.6,0,14.7,3.4,20.8,9.5v66.5h-41.7v-66.5C999.6,591.6,1006.7,588.1,1014.3,588.1L1014.3,588.1z M1039.4,556.4h-13.6v-37.6
					c0-6,3.1-10.8,6.8-10.8c3.8,0,6.8,4.8,6.8,10.8V556.4L1039.4,556.4z M1021.1,556.4h-13.6v-37.6c0-6,3.1-10.8,6.8-10.8
					c3.8,0,6.8,4.8,6.8,10.8V556.4L1021.1,556.4z M1002.8,556.4h-13.6v-37.6c0-6,3.1-10.8,6.8-10.8c3.8,0,6.8,4.8,6.8,10.8V556.4
					L1002.8,556.4z M1068,447.4h-15v-43.8c0-7,3.4-12.6,7.5-12.6s7.5,5.6,7.5,12.6V447.4L1068,447.4z M1044.9,447.4h-15v-43.8
					c0-7,3.4-12.6,7.5-12.6s7.5,5.6,7.5,12.6V447.4L1044.9,447.4z M1021.8,447.4h-15v-43.8c0-7,3.4-12.6,7.5-12.6
					c4.1,0,7.5,5.6,7.5,12.6V447.4L1021.8,447.4z M998.7,447.4h-15v-43.8c0-7,3.4-12.6,7.5-12.6c4.1,0,7.5,5.6,7.5,12.6V447.4
					L998.7,447.4z M975.6,447.4h-15v-43.8c0-7,3.4-12.6,7.5-12.6c4.1,0,7.5,5.6,7.5,12.6V447.4z"/>
					<rect x="959.6" y="359.8" fill-rule="evenodd" clip-rule="evenodd" fill="#9193C9" width="108.6" height="313.5"/>
				</g>
			</g>
			<path fill-rule="evenodd" clip-rule="evenodd" fill="#CBC8E4" d="M894.1,730.7v51.8c0,12,6.5,21.8,14.6,21.9l21.4,0.2
			c8.2,0.1,14.8-9.7,14.8-21.9v-51.9c0-12.1-6.6-21.9-14.7-21.9h-21.4C900.7,708.8,894.1,718.6,894.1,730.7z"/>
			<path fill-rule="evenodd" clip-rule="evenodd" fill="#CBC8E4" d="M1133.1,689.2V383.1c0-12.9-6.5-23.3-14.4-23.3h-21.2
			c-8,0-14.4,10.5-14.4,23.3v306.1c0,12.9,6.5,23.3,14.4,23.3h21.2C1126.6,712.6,1133.1,702.1,1133.1,689.2z"/>
			<path fill-rule="evenodd" clip-rule="evenodd" fill="#CBC8E4" d="M1096.9,807.4l22.4-0.2c7.8-0.1,14.1-9.8,14.1-21.7v-52.7
			c0-12-6.4-21.7-14.2-21.7h-22.4c-7.8,0-14.2,9.7-14.2,21.7v52.9C1082.6,797.7,1089,807.5,1096.9,807.4z"/>
			<path fill-rule="evenodd" clip-rule="evenodd" fill="#CBC8E4" d="M944.3,688.7V379.9c0-13-6.5-23.5-14.4-23.5h-21.2
			c-8,0-14.4,10.5-14.4,23.5v308.7c0,13,6.5,23.5,14.4,23.5h21.2C937.9,712.2,944.3,701.7,944.3,688.7z"/>
			<path fill-rule="evenodd" clip-rule="evenodd" fill="#9193C9" d="M944.5,356.4v-1.2l0.3-1.1l0.7-2.4v-0.3l2.4-7.6
			c2-6.5-1.2-13.9-6.1-13.9h-45.2c-4.9,0-8.1,7.4-6.1,13.9l3.5,11.4l0.3,1H944.5z"/>
			<path fill-rule="evenodd" clip-rule="evenodd" fill="#CBC8E4" d="M954.4,312.2v-2.8c0-9.9-5.4-17.9-12.1-17.9l0,0h-36.4h-9.1
			c-6.7,0-12.1,8-12.1,17.9v2.8c0,9.9,5.4,17.9,12.1,17.9h45.5C948.9,330,954.4,322,954.4,312.2z"/>
		</g>
	</g>
	<g id="NUVOLS">
		<path
			fill="#AFDCE3"
			d="M332,511.9c0.1-1,0.2-2.1,0.2-3.3c0-20-16.2-36.1-36.2-36.1c-0.9,0-1.7,0.3-2.6,0.3
		c-5.3-13.4-18.3-22.9-33.6-22.9c-12,0-22.5,5.9-29.1,14.9c-2.3-0.5-4.7-0.7-7.1-0.7c-17.5,0-32.1,12.2-35.4,28.7
		c-11.2,2.9-20,10.1-23.6,19.1H332z"/>
		<path fill="#AFDCE3" d="M527.2,249.9c-0.2-2-0.2-3-0.2-4.7c0-28.6,23.2-51.5,51.7-51.5c1.3,0,2.4,0.4,3.6,0.4
		c7.6-19.1,26.1-32.7,48-32.7c17.1,0,32.1,8.4,41.5,21.3c3.3-0.7,6.7-1,10.1-1c25,0,45.8,17.4,50.6,40.9c16,4.1,28.6,14.3,33.7,27.3
		H527.2z"/>
		<path fill="#AFDCE3" d="M1340.1,273.9c0.9-18,15.7-32.3,33.9-32.3c4.2,0,8.3,0.9,12,2.4c3.2-20.5,20.9-36.3,42.3-36.3
		c23.7,0,43,19.3,43,43c0,0.5-0.2,1.1-0.2,1.6c0.5,0,1.1-0.3,1.6-0.3c12.4,0,22.5,9.9,23.1,21.9H1340.1z"/>
		<path fill="#AFDCE3" d="M1492.2,156.9c-0.2-2-0.2-3-0.2-4.7c0-28.6,23.2-51.5,51.7-51.5c1.3,0,2.4,0.4,3.6,0.4
		c7.6-19.1,26.1-32.7,48-32.7c17.1,0,32.1,8.4,41.5,21.3c3.3-0.7,6.7-1,10.1-1c25,0,45.8,17.4,50.6,40.9c16,4.1,28.6,14.3,33.7,27.3
		H1492.2z"/>
	</g>
	<g id="LES_CORTS">
		<path
			fill="#FFFFFF"
			stroke="#FFFFFF"
			stroke-width="15"
			stroke-miterlimit="10"
			d="M100.8,982C88.2,982,78,971.8,78,959.2v-394
		c0-12.6,10.2-22.8,22.8-22.8h0c5,0,9.1-4.1,9.1-9.1v-5c0-5-4.1-9.1-9.1-9.1l0,0c-25.4,0-46.1,20.6-46.1,46.1v394
		c0,25.4,20.6,46,46,46h0c5,0,9.1-4.1,9.1-9.1v-5C109.9,986.1,105.8,982,100.8,982L100.8,982z"/>
		<g>
			<g>
				<path
					fill="#FFFFFF"
					d="M245.5,611c-9-7.5-20.5-12.5-32.5-12.5c-9,0-21,5.2-21,15.8c0,11,13.2,15.2,21.8,18l12.5,3.8
				c26.2,7.8,46.5,21,46.5,51.5c0,18.8-4.5,38-19.5,50.8c-14.8,12.5-34.5,17.8-53.5,17.8c-23.8,0-47-8-66.2-21.5l21-39.5
				c12.2,10.8,26.8,19.5,43.5,19.5c11.5,0,23.8-5.8,23.8-19c0-13.8-19.2-18.5-29.8-21.5c-30.8-8.8-51-16.8-51-53.2
				c0-38.2,27.2-63.2,65-63.2c19,0,42.2,6,59,15.5L245.5,611z"/>
				<path fill="#FFFFFF" d="M330.2,718.2l-13,32.8h-52l72.5-188.5h53.5l71,188.5H410l-12.2-32.8H330.2z M364.5,620.7H364l-20.2,60
				h40.8L364.5,620.7z"/>
				<path fill="#FFFFFF" d="M469.7,562.5h49l89.8,115.2h0.5V562.5h49V751h-49l-89.8-115.5h-0.5V751h-49V562.5z"/>
				<path fill="#FFFFFF" d="M756.2,751h-49V604h-40.5v-41.5h130V604h-40.5V751z"/>
				<path
					fill="#FFFFFF"
					d="M908.2,611c-9-7.5-20.5-12.5-32.5-12.5c-9,0-21,5.2-21,15.8c0,11,13.2,15.2,21.8,18L889,636
				c26.2,7.8,46.5,21,46.5,51.5c0,18.8-4.5,38-19.5,50.8c-14.8,12.5-34.5,17.8-53.5,17.8c-23.8,0-47-8-66.2-21.5l21-39.5
				c12.2,10.8,26.8,19.5,43.5,19.5c11.5,0,23.8-5.8,23.8-19c0-13.8-19.2-18.5-29.8-21.5c-30.8-8.8-51-16.8-51-53.2
				c0-38.2,27.2-63.2,65-63.2c19,0,42.2,6,59,15.5L908.2,611z"/>
				<path fill="#FFFFFF" d="M1017.7,652v37.5h-71.5V652H1017.7z"/>
				<path fill="#FFFFFF" d="M162.7,782.5H211l38.2,100.8l40.5-100.8h48.8L367,971h-49l-13.8-108.5h-0.5L258.5,971H239l-43.2-108.5
				h-0.5L179.5,971h-48.8L162.7,782.5z"/>
				<path fill="#FFFFFF" d="M573,873.2c0,61-43.8,104-104.2,104s-104.2-43-104.2-104c0-57,50-97,104.2-97S573,816.2,573,873.2z
				 M415.5,873.5c0,32.5,24,56.2,53.2,56.2S522,906,522,873.5c0-26-24-49.8-53.2-49.8S415.5,847.5,415.5,873.5z"/>
				<path fill="#FFFFFF" d="M582,782.5h49l89.8,115.2h0.5V782.5h49V971h-49l-89.8-115.5H631V971h-49V782.5z"/>
				<path fill="#FFFFFF" d="M868.5,971h-49V824H779v-41.5h130V824h-40.5V971z"/>
				<path fill="#FFFFFF" d="M1004.2,782.5v127.2c0,39.8-20.8,66.2-62.5,66.2c-21,0-37.2-10.5-48.5-27.8l28.2-29.8
				c5.5,7.5,13.2,16,19.8,16c14.5,0,14-17.2,14-27.8V782.5H1004.2z"/>
				<path fill="#FFFFFF" d="M1185,782.5v106c0,24.2-1,48.2-19.8,66.5c-15.8,15.5-40.5,21-62.5,21s-46.8-5.5-62.5-21
				c-18.8-18.2-19.8-42.2-19.8-66.5v-106h49v99.2c0,24.5,1.8,51.2,33.2,51.2s33.2-26.8,33.2-51.2v-99.2H1185z"/>
				<path
					fill="#FFFFFF"
					d="M1219.2,742.7c0,13.8-11,24.5-24.5,24.5c-13.8,0-24.8-10.8-24.8-24.5c0-13.5,11-24.5,24.8-24.5
				C1208.2,718.2,1219.2,729.2,1219.2,742.7z M1251.2,971h-49V782.5h49V971z M1283.2,742.7c0,13.8-11,24.5-24.5,24.5
				c-13.8,0-24.8-10.8-24.8-24.5c0-13.5,11-24.5,24.8-24.5C1272.2,718.2,1283.2,729.2,1283.2,742.7z"/>
				<path
					fill="#FFFFFF"
					d="M1407.2,845.7c-10-13.5-26.2-20.8-43-20.8c-30,0-50.2,23-50.2,52.2c0,29.8,20.5,51.2,51,51.2
				c16,0,32-7.8,42.2-20v58.8c-16.2,5-28,8.8-43.2,8.8c-26.2,0-51.2-10-70.8-27.8c-20.8-18.8-30.2-43.2-30.2-71.2
				c0-25.8,9.8-50.5,27.8-69c18.5-19,45.2-30.5,71.8-30.5c15.8,0,30.2,3.5,44.8,9.5V845.7z"/>
			</g>
		</g>
		<path
			fill="#FFFFFF"
			stroke="#FFFFFF"
			stroke-width="15"
			stroke-miterlimit="10"
			d="M1437.5,996c12.6,0,22.8-10.2,22.8-22.8v-394
		c0-12.6-10.2-22.8-22.8-22.8h0c-5,0-9.1-4.1-9.1-9.1v-5c0-5,4.1-9.1,9.1-9.1l0,0c25.4,0,46.1,20.6,46.1,46.1v394
		c0,25.4-20.6,46-46,46h0c-5,0-9.1-4.1-9.1-9.1v-5C1428.4,1000,1432.5,996,1437.5,996L1437.5,996z"/>
	</g>
	<g id="ONADES_1_CAPA_SUPERIOR">
		<g id="AVATAR">
			<g>
				<path id="pantalones_2_5_" fill="#9193C9" d="M1669.8,948.6l-11.5-169.5h-139.6l-9.7,169.5l56.7,9.3l8.6-137.4
				c0.4-5.7,5.3-10.3,11-10.3h7.9c5.7,0,10.6,4.6,11,10.3l8.8,137.4L1669.8,948.6z"/>
				<g>
					<path
						fill="#595858"
						d="M1655.1,626.7c-7.9-7.9-20.6-7.9-28.3,0c-7.7,7.9-7.7,20.5,0,28.2l4.1,4.1c10,10.1,20,20.2,29.8,30.4
					c9.8,10.2,19.5,20.5,28.6,30.8c2.2,2.6,4.4,5.1,6.4,7.6l0.3,0.4l-2.2,3.3c-7.5,10.8-16.2,22-25,33l-10.4,12.9l30.9,25.4
					l10.7-13.2c9.1-11.4,18-22.7,26.8-35.4l1.6-2.4l2.1-3.2c1.8-3,3.7-6.1,5.1-9.3c0.8-1.6,1.3-3.2,1.9-4.8c0.4-1.6,0.7-3.2,0.8-4.8
					l0.2-2.4l0.1-1.3c0-0.4-0.2-0.8-0.2-1.2c-0.4-1.6-0.7-3.2-1.1-4.8l-0.8-2.3c-0.3-0.8-0.5-1.6-1-2.3c-0.9-1.5-1.7-3-2.7-4.5
					l-3.1-4.3c-0.5-0.7-1.1-1.4-1.6-2.1l-1.4-1.7c-2.5-3.1-5-5.9-7.4-8.8c-9.8-11.2-19.8-21.7-29.8-32.1
					c-10-10.4-20.1-20.7-30.2-30.9L1655.1,626.7z"/>
					<path
						fill="#595858"
						d="M1548.5,655c7.8-7.7,7.8-20.3,0.1-28.3c-7.7-7.9-20.5-8-28.3-0.1l-4.1,4.1
					c-10.1,10.1-20.2,20.3-30.2,30.6c-10,10.3-19.9,20.7-29.7,31.7c-2.5,2.8-4.9,5.6-7.4,8.6l-2.4,2.9c-1.1,1.4-2.1,2.8-3.2,4.2
					l-1.6,2.1l-1.3,2.2c-0.9,1.5-1.9,2.9-2.3,4.5l-0.8,2.3l-0.6,2.3c-0.3,1.6-1,3.2-0.7,4.9c0.2,3.2,0.5,6.5,1.9,9.7
					c1.3,3.2,2.9,6.3,4.7,9.4c0.4,0.8,0.9,1.5,1.3,2.3l1.1,1.8l1.6,2.5c8.4,12.9,17.1,24.3,25.8,35.8l10.4,13.5l31.5-24.7
					l-10.1-13.1c-8.4-11.1-16.9-22.4-24-33.3l-1.6-2.5l1-1.2c2.1-2.5,4.3-5,6.5-7.6c9.1-10.2,18.8-20.4,28.6-30.5
					c9.8-10.1,19.7-20.1,29.7-30.1L1548.5,655z"/>
					<path fill="#595858" d="M1565.8,614.9v164.2h-48.9V639.6c0-8.6,6.7-17.4,15-19.3C1545.1,617.4,1544.6,614.9,1565.8,614.9"/>
					<path fill="#595858" d="M1610.9,614.9c21.2,0,20.6,2.5,33.8,5.4c8.3,1.9,15,10.8,15,19.3v139.5h-48.9V614.9"/>
				</g>
				<rect x="1565.8" y="614.9" fill="#9193C9" width="45.1" height="164.2"/>
				<g>
					<path fill="#FBCC9A" d="M1628.8,616.1c-11.6-2-25.6-3.9-40-3.9c-14.4,0-28.5,1.7-40.2,3.7l37.7,10.8c0.6,0.7,1.4,1.2,2.4,1.2
					l0,0c0.9,0,1.8-0.4,2.4-1.2L1628.8,616.1z"/>
					<path fill="#FBCC9A" d="M1617.3,598.9l2.1,15.5c0,0-13.1,16.1-30.7,16.1c-17.6,0-30.7-16.1-30.7-16.1l2.1-15.5H1617.3z"/>
					<path fill="#FBCC9A" d="M1688.2,804.1l1.9-2.4l-30.6-25.4l-1.9,2.3c-6.8,8.4-5.7,20.9,2.6,28.1
					C1668.6,813.9,1681.1,812.7,1688.2,804.1z"/>
					<path fill="#FBCC9A" d="M1515.9,779.4l-1.8-2.3l-31.1,24.7l1.9,2.4c6.8,8.8,19.4,10.3,27.9,3.3
					C1521.1,800.5,1522.5,788,1515.9,779.4z"/>
					<path fill="#ACCCCE" d="M1519.1,778"/>
					<path fill="#FBCC9A" d="M1518.7,784.7c-2.9,2.2-6.4,2.5-7.9,0.5c-1.5-2-0.4-5.3,2.5-7.6c2.9-2.2,6.4-2.5,7.9-0.5
					C1522.7,779.1,1521.6,782.5,1518.7,784.7z"/>
					<path fill="#FBCC9A" d="M1654.6,783.9c2.9,2.2,6.4,2.5,7.9,0.5c1.5-2,0.4-5.3-2.5-7.6c-2.9-2.2-6.4-2.5-7.9-0.5
					C1650.7,778.2,1651.8,781.6,1654.6,783.9z"/>
					<g>
						<ellipse fill="#CB9866" cx="1684.8" cy="511.3" rx="18.1" ry="23.3"/>
						<ellipse fill="#FBCC9A" cx="1489.7" cy="511.3" rx="18.1" ry="23.3"/>
						<path fill="#FBCC9A" d="M1570,608.9c-43.7,0-79.1-35.8-79.1-80v-84.5c0-44.2,35.4-80,79.1-80h19.4v244.6H1570z"/>
						<path fill="#CB9866" d="M1604.5,608.9c43.7,0,79.1-35.8,79.1-80v-84.5c0-44.2-35.4-80-79.1-80h-17.2v244.6H1604.5z"/>
					</g>
					<path fill="#271A12" d="M1587.3,480"/>
					<circle fill="#FBCC9A" cx="1589.2" cy="526.1" r="12.1"/>
				</g>
				<g>
					<g>
						<path fill="#595858" d="M1587.2,418.4c0,0-55.2-44.6-96.1,18.8c0,0,2.1-73.3,78.2-77.2h35.9"/>
						<path fill="#595858" d="M1587.2,418.4c0,0,55.8-44.9,96.3,17c0,0-2.9-71.2-77.4-75.2h-35.7"/>
					</g>
				</g>
				<g>
					<g>
						<path fill="none" stroke="#595858" stroke-width="3" stroke-miterlimit="10" d="M1572.9,493H1507c-2.7,0-4.9-2.2-4.9-4.9v-16.2
						c0-2.7,2.2-4.9,4.9-4.9h65.9c2.7,0,4.9,2.2,4.9,4.9v16.2C1577.8,490.8,1575.6,493,1572.9,493z"/>
						<path fill="none" stroke="#595858" stroke-width="3" stroke-miterlimit="10" d="M1664.7,493h-62.1c-2.7,0-4.9-2.2-4.9-4.9
						v-16.2c0-2.7,2.2-4.9,4.9-4.9h62.1c2.7,0,4.9,2.2,4.9,4.9v16.2C1669.6,490.8,1667.4,493,1664.7,493z"/>
						<line fill="none" stroke="#595858" stroke-width="3" stroke-miterlimit="10" x1="1577.8" y1="480" x2="1597.7" y2="480"/>
						<line fill="none" stroke="#595858" stroke-width="3" stroke-miterlimit="10" x1="1669.6" y1="480" x2="1683.5" y2="480"/>
						<line fill="none" stroke="#595858" stroke-width="3" stroke-miterlimit="10" x1="1502.1" y1="480" x2="1491.1" y2="480"/>
					</g>
				</g>
				<g id="zapatos_1_3_">
					<polygon fill="#595858" points="1566.1,964.7 1504,964.7 1504,954.4 1509.3,944.9 1566.1,954.1 				"/>
					<polygon fill="#595858" points="1612.4,964.4 1674.9,964.7 1674.9,957.5 1670.1,947.8 1613,953.9 				"/>
				</g>
				<g>
					<polygon fill="#595858" points="1575.3,692.2 1575.3,692.3 1575.4,697.1 1601.3,699.9 1601.3,698.3 				"/>
					<path fill="#595858" d="M1601.3,692.9v-6.6c0,0-23-5.9-25.7,3.8L1601.3,692.9z"/>
					<path fill="#595858" d="M1575.5,699.3l0.2,8.8c0,0,19.9,4.4,24.6-3L1575.5,699.3z"/>
				</g>
			</g>
		</g>
		<g>
			<path
				fill="none"
				stroke="#AFDCE3"
				stroke-width="30.5974"
				stroke-linecap="round"
				stroke-miterlimit="10"
				d="M24,975.9
			c46.5,0,46.5,6.4,93.1,6.4c46.5,0,46.5-6.4,93.1-6.4c46.5,0,46.5,6.4,93.1,6.4c46.5,0,46.5-6.4,93.1-6.4c46.5,0,46.5,6.4,93.1,6.4
			c46.5,0,46.5-6.4,93.1-6.4c46.5,0,46.5,6.4,93.1,6.4c46.5,0,46.5-6.4,93.1-6.4c46.5,0,46.5,6.4,93.1,6.4c46.5,0,46.5-6.4,93.1-6.4
			c46.5,0,46.5,6.4,93.1,6.4c46.5,0,46.5-6.4,93.1-6.4c46.5,0,46.5,6.4,93.1,6.4c46.5,0,46.5-6.4,93.1-6.4c46.5,0,46.5,6.4,93.1,6.4
			c46.5,0,46.5-6.4,93.1-6.4c46.5,0,46.5,6.4,93.1,6.4c46.5,0,46.5-6.4,93.1-6.4c46.5,0,46.5,6.4,93.1,6.4c46.5,0,46.5-6.4,93.1-6.4
			"/>
		</g>
	</g>
</svg>
