<?xml version="1.0" encoding="utf-8"?>
<!-- Generator: Adobe Illustrator 18.1.0, SVG Export Plug-In . SVG Version: 6.00 Build 0)  -->
<svg version="1.1" xmlns="http://www.w3.org/2000/svg" xmlns:xlink="http://www.w3.org/1999/xlink" x="0px" y="0px" viewBox="0 0 1920 1080" enable-background="new 0 0 1920 1080" xml:space="preserve">
	<g id="FONS">
		<polygon fill="#CEE3C3" points="1902.9,0 1827.2,0 1753.3,0 0,0 0,1080 1920,1080 1920,0 	"/>
	</g>
	<g id="SOL">
		<path fill="#FBCD00" d="M1563.2,193.8c0-50.1-40.6-90.7-90.7-90.7c-50.1,0-90.7,40.6-90.7,90.7c0,50.1,40.6,90.7,90.7,90.7
		C1522.6,284.5,1563.2,243.9,1563.2,193.8z"/>
	</g>
	<g id="EDIFICI_2">
		<g>
			<path
				fill="#A6CE88"
				d="M725,431.8c-0.3-0.1-0.5-0.1-0.8-0.2c-1.6-0.4-3.3-0.6-5-0.8c-11.4-2.8-21-10.1-26.9-19.9
			c-0.8-2-1.8-3.9-2.8-5.7c-7.5-12.7-21.3-21.1-37-21.1c-14.8,0-27.9,7.5-35.7,19c-2.1,3.1-3.8,6.5-5,10
			c-5.8,8.7-14.8,15.1-25.2,17.7c-2.4,0.2-4.7,0.6-7,1.1c-1.2,0.3-2.4,0.6-3.5,1c-16.9,5.8-29,21.8-29,40.6c0,23.7,19.2,43,43,43
			s43-19.2,43-43c0-0.2,0-0.4,0-0.6h38.7c0,0.2,0,0.4,0,0.6c0,23.7,19.2,43,43,43c23.7,0,43-19.2,43-43
			C757.8,453.4,743.8,436.4,725,431.8z"/>
			<path
				fill="#A6CE88"
				d="M961.1,429c-0.3-0.1-0.5-0.1-0.8-0.2c-1.6-0.4-3.3-0.6-5-0.8c-11.4-2.8-21-10.1-26.9-19.9
			c-0.8-2-1.8-3.9-2.8-5.7c-7.5-12.7-21.3-21.1-37-21.1c-14.8,0-27.9,7.5-35.7,19c-2.1,3.1-3.8,6.5-5,10
			c-5.8,8.7-14.8,15.1-25.2,17.7c-2.4,0.2-4.7,0.6-7,1.1c-1.2,0.3-2.4,0.6-3.5,1c-16.9,5.8-29,21.8-29,40.6c0,23.7,19.2,43,43,43
			s43-19.2,43-43c0-0.2,0-0.4,0-0.6H908c0,0.2,0,0.4,0,0.6c0,23.7,19.2,43,43,43c23.7,0,43-19.2,43-43
			C993.9,450.6,979.9,433.6,961.1,429z"/>
			<g>
				<path
					fill="#A6CE88"
					d="M732.6,473H572.4c-13.9,0-25.2,11.3-25.2,25.2v150.1c0,13.9,11.3,25.2,25.2,25.2h50.1v-56.8v-0.2h0
				c0.1-5.3,3.5-9.7,8.2-11.4c0.3-0.1,0.7-0.2,1-0.3c0.6-0.2,1.3-0.3,2-0.3c3-0.7,5.5-2.6,7.2-5c0.3-1,0.8-2,1.4-2.9
				c2.2-3.3,5.9-5.4,10.1-5.4c4.5,0,8.4,2.4,10.5,6c0.3,0.5,0.6,1.1,0.8,1.6c1.7,2.8,4.4,4.9,7.6,5.7c0.5,0,1,0.1,1.4,0.2
				c0.1,0,0.2,0,0.2,0.1c5.3,1.3,9.2,6,9.3,11.7h0v0.2v56.8h50.1c13.9,0,25.2-11.3,25.2-25.2V498.2C757.8,484.3,746.5,473,732.6,473
				z"/>
			</g>
			<g>
				<g>
					<g>
						<path
							fill="#A6CE88"
							d="M973.8,470.2H803.4c-11.1,0-20.1,9-20.1,20.1v160.4c0,11.1,9,20.1,20.1,20.1h55.3v-56.8v-0.2h0
						c0.1-5.3,3.5-9.7,8.2-11.4c0.3-0.1,0.7-0.2,1-0.3c0.6-0.2,1.3-0.3,2-0.3c3-0.7,5.5-2.6,7.2-5c0.3-1,0.8-2,1.4-2.9
						c2.2-3.3,5.9-5.4,10.1-5.4c4.5,0,8.4,2.4,10.5,6c0.3,0.5,0.6,1.1,0.8,1.6c1.7,2.8,4.4,4.9,7.6,5.7c0.5,0,1,0.1,1.4,0.2
						c0.1,0,0.2,0,0.2,0.1c5.3,1.3,9.2,6,9.3,11.7h0v0.2v56.8h55.3c11.1,0,20.1-9,20.1-20.1V490.3
						C993.9,479.2,984.9,470.2,973.8,470.2z"/>
					</g>
				</g>
			</g>
		</g>
	</g>
	<g id="CARRETERA">
		<path
			fill="#999999"
			d="M1827.2,0c-0.3,0-23.2,0-23.2,0l0,430.2c0,62.4-50.8,113.2-113.2,113.2h-206.7
		c-112.2,0-203.4,91.3-203.4,203.4V826c0,62.4-50.8,113.2-113.2,113.2H918.1c-89.9,0-166.4,58.7-193.2,139.7
		c23.7-0.2,52.7-0.1,56.5-0.1c0.4,0,21.7,0,43.2,0.1c20.4-29.8,54.7-49.5,93.5-49.5h249.3c112.2,0,203.4-91.3,203.4-203.4v-79.2
		c0-62.4,50.8-113.2,113.2-113.2h206.7c112.2,0,203.4-91.3,203.4-203.4V0L1827.2,0z"/>
		<path fill="#CDCCCC" d="M1854.2,378.1v-90c0-2.8-2.2-5-5-5c-2.8,0-5,2.2-5,5v90c0,2.8,2.2,5,5,5
		C1851.9,383.1,1854.2,380.8,1854.2,378.1z"/>
		<path fill="#CDCCCC" d="M1854.2,108.1c0-2.8-2.2-5-5-5c-2.8,0-5,2.2-5,5v90c0,2.8,2.2,5,5,5c2.8,0,5-2.2,5-5V108.1z"/>
		<path fill="#CDCCCC" d="M1845.9,462.8c-2.7-0.6-5.4,1-6,3.7c-6.9,28.4-21.7,54.1-42.9,74.5c-2,1.9-2.1,5.1-0.2,7.1
		c1,1,2.3,1.5,3.6,1.5c1.2,0,2.5-0.5,3.5-1.4c22.6-21.7,38.4-49.1,45.7-79.3C1850.2,466.2,1848.6,463.5,1845.9,462.8z"/>
		<path fill="#CDCCCC" d="M1844.2,0v18.1c0,2.8,2.2,5,5,5c2.8,0,5-2.2,5-5V0C1850.6,0,1847.2,0,1844.2,0z"/>
		<path fill="#CDCCCC" d="M1308.3,886.6c-1.1,2.5,0.1,5.5,2.6,6.6c0.6,0.3,1.3,0.4,2,0.4c1.9,0,3.8-1.1,4.6-3
		c8.8-20.4,13.2-42.1,13.2-64.5v-25.7c0-2.8-2.2-5-5-5c-2.8,0-5,2.2-5,5v25.7C1320.8,847.1,1316.6,867.5,1308.3,886.6z"/>
		<g display="none">
			<path
				display="inline"
				fill="#999999"
				d="M1804-296.4V-1.5c11.8,0,21.1,0,23.1,0c0.6,0,41.3-0.1,67.1,0.2v-295.2
			c0-112.2-91.3-203.4-203.4-203.4H-508.7c-112.2,0-203.4,91.3-203.4,203.4v20.8c0,62.4-50.8,113.2-113.2,113.2h-853.5
			c-62.4,0-113.2-50.8-113.2-113.2v-1092c0-62.4,50.8-113.2,113.2-113.2h578.2c112.2,0,203.4-91.3,203.4-203.4v-765.1
			c0-62.4,50.8-113.2,113.2-113.2h783v-90.2h-783c-112.2,0-203.4,91.3-203.4,203.4v765.1c0,62.4-50.8,113.2-113.2,113.2h-578.2
			c-112.2,0-203.4,91.3-203.4,203.4v1092c0,112.2,91.3,203.4,203.4,203.4h853.5c112.2,0,203.4-91.3,203.4-203.4v-20.8
			c0-62.4,50.8-113.2,113.2-113.2h2199.5C1753.3-409.6,1804-358.8,1804-296.4z"/>
			<path display="inline" fill="#CDCCCC" d="M-942.3-1888c-2.8,0-5,2.2-5,5v90c0,2.8,2.2,5,5,5c2.8,0,5-2.2,5-5v-90
			C-937.3-1885.8-939.5-1888-942.3-1888z"/>
			<path display="inline" fill="#CDCCCC" d="M-942.3-2068c-2.8,0-5,2.2-5,5v90c0,2.8,2.2,5,5,5c2.8,0,5-2.2,5-5v-90
			C-937.3-2065.8-939.5-2068-942.3-2068z"/>
			<path display="inline" fill="#CDCCCC" d="M-786-127.4c-12.8,3.4-26,5.1-39.3,5.1h-48.9c-2.8,0-5,2.2-5,5c0,2.8,2.2,5,5,5h48.9
			c14.2,0,28.3-1.8,41.9-5.4c2.7-0.7,4.3-3.4,3.6-6.1C-780.6-126.5-783.3-128.1-786-127.4z"/>
			<path display="inline" fill="#CDCCCC" d="M-964.2-122.3h-90c-2.8,0-5,2.2-5,5c0,2.8,2.2,5,5,5h90c2.8,0,5-2.2,5-5
			C-959.2-120-961.5-122.3-964.2-122.3z"/>
			<path display="inline" fill="#CDCCCC" d="M-942.3-2248c-2.8,0-5,2.2-5,5v90c0,2.8,2.2,5,5,5c2.8,0,5-2.2,5-5v-90
			C-937.3-2245.8-939.5-2248-942.3-2248z"/>
			<path display="inline" fill="#CDCCCC" d="M-1684.1-122.4c-29.3-1-57.5-10.3-81.6-26.9c-2.3-1.6-5.4-1-7,1.3c-1.6,2.3-1,5.4,1.3,7
			c25.7,17.7,55.8,27.6,87,28.6c0.1,0,0.1,0,0.2,0c2.7,0,4.9-2.1,5-4.8C-1679.1-120-1681.3-122.3-1684.1-122.4z"/>
			<path display="inline" fill="#CDCCCC" d="M-942.3-2428c-2.8,0-5,2.2-5,5v90c0,2.8,2.2,5,5,5c2.8,0,5-2.2,5-5v-90
			C-937.3-2425.8-939.5-2428-942.3-2428z"/>
			<path display="inline" fill="#CDCCCC" d="M-942.3-1708c-2.8,0-5,2.2-5,5v18.7c0,23.4-5.1,45.8-15.2,66.7c-1.2,2.5-0.2,5.5,2.3,6.7
			c0.7,0.3,1.4,0.5,2.2,0.5c1.9,0,3.6-1,4.5-2.8c10.8-22.2,16.2-46.1,16.2-71v-18.7C-937.3-1705.8-939.5-1708-942.3-1708z"/>
			<path display="inline" fill="#CDCCCC" d="M-1504.2-122.3h-90c-2.8,0-5,2.2-5,5c0,2.8,2.2,5,5,5h90c2.8,0,5-2.2,5-5
			C-1499.2-120-1501.5-122.3-1504.2-122.3z"/>
			<path display="inline" fill="#CDCCCC" d="M-1013.2-1552.2c-1.5-2.3-4.5-3.1-6.9-1.6c-24.1,14.9-52,22.8-80.5,22.8h-2.5
			c-2.8,0-5,2.2-5,5c0,2.8,2.2,5,5,5h2.5c30.4,0,60-8.4,85.8-24.3C-1012.5-1546.7-1011.8-1549.8-1013.2-1552.2z"/>
			<path display="inline" fill="#CDCCCC" d="M-1548.1-1526c0-2.8-2.2-5-5-5h-90c-2.8,0-5,2.2-5,5c0,2.8,2.2,5,5,5h90
			C-1550.3-1521-1548.1-1523.2-1548.1-1526z"/>
			<path display="inline" fill="#CDCCCC" d="M-1368.1-1526c0-2.8-2.2-5-5-5h-90c-2.8,0-5,2.2-5,5c0,2.8,2.2,5,5,5h90
			C-1370.3-1521-1368.1-1523.2-1368.1-1526z"/>
			<path display="inline" fill="#CDCCCC" d="M-1324.2-122.3h-90c-2.8,0-5,2.2-5,5c0,2.8,2.2,5,5,5h90c2.8,0,5-2.2,5-5
			C-1319.2-120-1321.5-122.3-1324.2-122.3z"/>
			<path display="inline" fill="#CDCCCC" d="M-1144.2-122.3h-90c-2.8,0-5,2.2-5,5c0,2.8,2.2,5,5,5h90c2.8,0,5-2.2,5-5
			C-1139.2-120-1141.5-122.3-1144.2-122.3z"/>
			<path
				display="inline"
				fill="#CDCCCC"
				d="M-869.3-2582.8c-1.6-2.3-4.7-2.9-7-1.3c-25.8,17.7-45.8,42.2-58,70.9
			c-1.1,2.5,0.1,5.5,2.6,6.6c0.6,0.3,1.3,0.4,2,0.4c1.9,0,3.8-1.1,4.6-3c11.4-26.9,30.3-49.9,54.5-66.5
			C-868.3-2577.5-867.7-2580.6-869.3-2582.8z"/>
			<path display="inline" fill="#CDCCCC" d="M274.1-459.7h-90c-2.8,0-5,2.2-5,5c0,2.8,2.2,5,5,5h90c2.8,0,5-2.2,5-5
			C279.1-457.5,276.8-459.7,274.1-459.7z"/>
			<path display="inline" fill="#CDCCCC" d="M454.1-459.7h-90c-2.8,0-5,2.2-5,5c0,2.8,2.2,5,5,5h90c2.8,0,5-2.2,5-5
			C459.1-457.5,456.8-459.7,454.1-459.7z"/>
			<path display="inline" fill="#CDCCCC" d="M94.1-459.7h-90c-2.8,0-5,2.2-5,5c0,2.8,2.2,5,5,5h90c2.8,0,5-2.2,5-5
			C99.1-457.5,96.8-459.7,94.1-459.7z"/>
			<path display="inline" fill="#CDCCCC" d="M-668.5-253c-2.7-0.5-5.3,1.3-5.8,4.1c-5.1,28.8-18.2,55.4-38.1,77
			c-1.9,2-1.7,5.2,0.3,7.1c1,0.9,2.2,1.3,3.4,1.3c1.4,0,2.7-0.5,3.7-1.6c21.2-23,35.2-51.4,40.6-82.1
			C-664-249.9-665.8-252.5-668.5-253z"/>
			<path display="inline" fill="#CDCCCC" d="M634.1-459.7h-90c-2.8,0-5,2.2-5,5c0,2.8,2.2,5,5,5h90c2.8,0,5-2.2,5-5
			C639.1-457.5,636.8-459.7,634.1-459.7z"/>
			<path display="inline" fill="#CDCCCC" d="M4.1-2607.7c0-2.8-2.2-5-5-5h-68.2c-2.8,0-5,2.2-5,5c0,2.8,2.2,5,5,5h68.2
			C1.9-2602.7,4.1-2605,4.1-2607.7z"/>
			<path display="inline" fill="#CDCCCC" d="M819.1-454.7c0-2.8-2.2-5-5-5h-90c-2.8,0-5,2.2-5,5c0,2.8,2.2,5,5,5h90
			C816.8-449.7,819.1-451.9,819.1-454.7z"/>
			<path display="inline" fill="#CDCCCC" d="M-514.1-2607.7c0-2.8-2.2-5-5-5h-90c-2.8,0-5,2.2-5,5c0,2.8,2.2,5,5,5h90
			C-516.3-2602.7-514.1-2605-514.1-2607.7z"/>
			<path display="inline" fill="#CDCCCC" d="M-445.9-459.7h-62.7c-9.4,0-18.8,0.8-28,2.4c-2.7,0.5-4.5,3.1-4.1,5.8
			c0.4,2.4,2.5,4.1,4.9,4.1c0.3,0,0.6,0,0.9-0.1c8.6-1.5,17.5-2.2,26.3-2.2h62.7c2.8,0,5-2.2,5-5
			C-440.9-457.5-443.2-459.7-445.9-459.7z"/>
			<path
				display="inline"
				fill="#CDCCCC"
				d="M-618.8-416.9c-23.1,21.1-39.6,48.2-47.6,78.2c-0.7,2.7,0.9,5.4,3.5,6.1
			c0.4,0.1,0.9,0.2,1.3,0.2c2.2,0,4.2-1.5,4.8-3.7c7.5-28.2,23-53.6,44.7-73.4c2-1.9,2.2-5,0.3-7.1
			C-613.6-418.7-616.8-418.8-618.8-416.9z"/>
			<path display="inline" fill="#CDCCCC" d="M-85.9-459.7h-90c-2.8,0-5,2.2-5,5c0,2.8,2.2,5,5,5h90c2.8,0,5-2.2,5-5
			C-80.9-457.5-83.2-459.7-85.9-459.7z"/>
			<path display="inline" fill="#CDCCCC" d="M-154.1-2607.7c0-2.8-2.2-5-5-5h-90c-2.8,0-5,2.2-5,5c0,2.8,2.2,5,5,5h90
			C-156.3-2602.7-154.1-2605-154.1-2607.7z"/>
			<path display="inline" fill="#CDCCCC" d="M-334.1-2607.7c0-2.8-2.2-5-5-5h-90c-2.8,0-5,2.2-5,5c0,2.8,2.2,5,5,5h90
			C-336.3-2602.7-334.1-2605-334.1-2607.7z"/>
			<path display="inline" fill="#CDCCCC" d="M-265.9-459.7h-90c-2.8,0-5,2.2-5,5c0,2.8,2.2,5,5,5h90c2.8,0,5-2.2,5-5
			C-260.9-457.5-263.2-459.7-265.9-459.7z"/>
			<path display="inline" fill="#CDCCCC" d="M-1188.1-1526c0-2.8-2.2-5-5-5h-90c-2.8,0-5,2.2-5,5c0,2.8,2.2,5,5,5h90
			C-1190.3-1521-1188.1-1523.2-1188.1-1526z"/>
			<path display="inline" fill="#CDCCCC" d="M1844.2-251.9v90c0,2.8,2.2,5,5,5c2.8,0,5-2.2,5-5v-90c0-2.8-2.2-5-5-5
			C1846.4-256.9,1844.2-254.7,1844.2-251.9z"/>
			<path display="inline" fill="#CDCCCC" d="M1854.2-1.4v-70.5c0-2.8-2.2-5-5-5c-2.8,0-5,2.2-5,5v70.5
			C1847.2-1.4,1850.6-1.4,1854.2-1.4z"/>
			<path display="inline" fill="#CDCCCC" d="M-789.1-2602.6c0.1,0,0.1,0,0.2,0c1.6-0.1,3.3-0.1,5-0.1h84.8c2.8,0,5-2.2,5-5
			c0-2.8-2.2-5-5-5h-84.8c-1.8,0-3.6,0-5.3,0.1c-2.8,0.1-4.9,2.4-4.8,5.2C-794-2604.8-791.8-2602.6-789.1-2602.6z"/>
			<path display="inline" fill="#CDCCCC" d="M-1837.1-747.2c2.8,0,5-2.2,5-5v-90c0-2.8-2.2-5-5-5c-2.8,0-5,2.2-5,5v90
			C-1842.1-749.5-1839.9-747.2-1837.1-747.2z"/>
			<path display="inline" fill="#CDCCCC" d="M-1837.1-927.2c2.8,0,5-2.2,5-5v-90c0-2.8-2.2-5-5-5c-2.8,0-5,2.2-5,5v90
			C-1842.1-929.5-1839.9-927.2-1837.1-927.2z"/>
			<path display="inline" fill="#CDCCCC" d="M-1837.1-1107.2c2.8,0,5-2.2,5-5v-90c0-2.8-2.2-5-5-5c-2.8,0-5,2.2-5,5v90
			C-1842.1-1109.5-1839.9-1107.2-1837.1-1107.2z"/>
			<path display="inline" fill="#CDCCCC" d="M-1832.1-275.6v-26.6c0-2.8-2.2-5-5-5c-2.8,0-5,2.2-5,5v26.6c0,22.1,4.3,43.5,12.9,63.7
			c0.8,1.9,2.7,3.1,4.6,3.1c0.7,0,1.3-0.1,1.9-0.4c2.5-1.1,3.7-4,2.7-6.6C-1828.1-234.8-1832.1-254.9-1832.1-275.6z"/>
			<path display="inline" fill="#CDCCCC" d="M-1837.1-567.2c2.8,0,5-2.2,5-5v-90c0-2.8-2.2-5-5-5c-2.8,0-5,2.2-5,5v90
			C-1842.1-569.5-1839.9-567.2-1837.1-567.2z"/>
			<path display="inline" fill="#CDCCCC" d="M1837.9-339.9c0.6,2.2,2.6,3.6,4.8,3.6c0.5,0,0.9-0.1,1.4-0.2c2.6-0.8,4.2-3.6,3.4-6.2
			c-8.8-29.8-26-56.5-49.6-77c-2.1-1.8-5.2-1.6-7.1,0.5c-1.8,2.1-1.6,5.2,0.5,7.1C1813.5-392.9,1829.6-367.9,1837.9-339.9z"/>
			<path display="inline" fill="#CDCCCC" d="M-1837.1-387.2c2.8,0,5-2.2,5-5v-90c0-2.8-2.2-5-5-5c-2.8,0-5,2.2-5,5v90
			C-1842.1-389.5-1839.9-387.2-1837.1-387.2z"/>
			<path display="inline" fill="#CDCCCC" d="M-1837.1-1287.2c2.8,0,5-2.2,5-5v-75.4c0-4.7,0.2-9.4,0.6-14.1c0.2-2.8-1.8-5.2-4.5-5.4
			c-2.7-0.2-5.2,1.8-5.4,4.5c-0.5,5-0.7,10-0.7,15v75.4C-1842.1-1289.5-1839.9-1287.2-1837.1-1287.2z"/>
			<path display="inline" fill="#CDCCCC" d="M1264.1-449.7h90c2.8,0,5-2.2,5-5c0-2.8-2.2-5-5-5h-90c-2.8,0-5,2.2-5,5
			C1259.1-451.9,1261.3-449.7,1264.1-449.7z"/>
			<path display="inline" fill="#CDCCCC" d="M1444.1-449.7h90c2.8,0,5-2.2,5-5c0-2.8-2.2-5-5-5h-90c-2.8,0-5,2.2-5,5
			C1439.1-451.9,1441.3-449.7,1444.1-449.7z"/>
			<path
				display="inline"
				fill="#CDCCCC"
				d="M1624.1-449.7h66.8c7.5,0,15.1,0.5,22.4,1.6c0.2,0,0.5,0.1,0.7,0.1
			c2.4,0,4.6-1.8,4.9-4.3c0.4-2.7-1.5-5.3-4.2-5.7c-7.9-1.2-15.9-1.7-23.9-1.7h-66.8c-2.8,0-5,2.2-5,5
			C1619.1-451.9,1621.3-449.7,1624.1-449.7z"/>
			<path display="inline" fill="#CDCCCC" d="M-1727.3-1518.5c-0.9-2.6-3.8-4-6.4-3c-29.3,10.4-55,29-74.2,53.7
			c-1.7,2.2-1.3,5.3,0.9,7c0.9,0.7,2,1.1,3.1,1.1c1.5,0,3-0.7,4-1.9c18-23.2,42.1-40.6,69.6-50.4
			C-1727.7-1513-1726.4-1515.9-1727.3-1518.5z"/>
			<path display="inline" fill="#CDCCCC" d="M904.1-449.7h90c2.8,0,5-2.2,5-5c0-2.8-2.2-5-5-5h-90c-2.8,0-5,2.2-5,5
			C899.1-451.9,901.3-449.7,904.1-449.7z"/>
			<path display="inline" fill="#CDCCCC" d="M1084.1-449.7h90c2.8,0,5-2.2,5-5c0-2.8-2.2-5-5-5h-90c-2.8,0-5,2.2-5,5
			C1079.1-451.9,1081.3-449.7,1084.1-449.7z"/>
		</g>
		<path fill="#CDCCCC" d="M1541.8,583.6h-57.8c-11.1,0-22.2,1.1-33,3.3c-2.7,0.6-4.4,3.2-3.9,5.9c0.5,2.4,2.6,4,4.9,4
		c0.3,0,0.7,0,1-0.1c10.1-2.1,20.6-3.1,31-3.1h57.8c2.8,0,5-2.2,5-5C1546.8,585.8,1544.6,583.6,1541.8,583.6z"/>
		<path fill="#CDCCCC" d="M1370.2,629.9c-22.4,21.8-38,49.4-45.1,79.7c-0.6,2.7,1,5.4,3.7,6c0.4,0.1,0.8,0.1,1.1,0.1
		c2.3,0,4.3-1.6,4.9-3.9c6.7-28.4,21.3-54.3,42.4-74.8c2-1.9,2-5.1,0.1-7.1C1375.3,628,1372.2,628,1370.2,629.9z"/>
		<path fill="#CDCCCC" d="M1720.7,580.7c-9.8,1.9-19.8,2.9-29.8,2.9h-59c-2.8,0-5,2.2-5,5c0,2.8,2.2,5,5,5h59c10.7,0,21.4-1,31.8-3.1
		c2.7-0.5,4.5-3.2,3.9-5.9C1726,581.9,1723.4,580.2,1720.7,580.7z"/>
		<path fill="#CDCCCC" d="M907,984.7c-0.3-2.7-2.7-4.7-5.5-4.5c-31,3.1-60.4,15.1-84.8,34.5c-2.2,1.7-2.5,4.9-0.8,7
		c1,1.2,2.4,1.9,3.9,1.9c1.1,0,2.2-0.4,3.1-1.1c23-18.2,50.5-29.4,79.6-32.4C905.2,989.9,907.2,987.5,907,984.7z"/>
		<path fill="#CDCCCC" d="M1260.5,954.3c-1.6-2.3-4.7-2.9-6.9-1.3c-24.2,16.5-52.5,25.6-81.8,26.4c-2.8,0.1-4.9,2.4-4.9,5.1
		c0.1,2.7,2.3,4.9,5,4.9c0,0,0.1,0,0.1,0c31.2-0.9,61.4-10.6,87.1-28.2C1261.5,959.6,1262.1,956.5,1260.5,954.3z"/>
		<path fill="#CDCCCC" d="M1086.9,984.4c0-2.8-2.2-5-5-5h-90c-2.8,0-5,2.2-5,5c0,2.8,2.2,5,5,5h90
		C1084.7,989.4,1086.9,987.2,1086.9,984.4z"/>
	</g>
	<g id="EDIFICI_1">
		<g>
			<path fill="#A6CE88" d="M483.1,389.2L437,343c-0.6-0.6-1.6-0.6-2.2,0l-46.1,46.1c-1,1-0.3,2.6,1.1,2.6h91.7c0.1,0,0.2,0,0.3,0l0,0
			C483.3,392,484.2,390.2,483.1,389.2z"/>
			<path
				fill="#A6CE88"
				d="M436.4,664V398.4c0-6.3-5.1-11.4-11.4-11.4h-21.5c-6.3,0-11.4,5.1-11.4,11.4v2c0,6.3-5.1,11.4-11.4,11.4
			h-9c-6.3,0-11.4-5.1-11.4-11.4v-1.3c0-6.3-5.1-11.4-11.4-11.4h-23.4c-6.3,0-11.4,5.1-11.4,11.4v1.3c0,6.3-5.1,11.4-11.4,11.4
			h-13.6c-6.3,0-11.4-5.1-11.4-11.4l0,0c0-6.3-5.1-11.4-11.4-11.4h-24c-6.3,0-11.4,5.1-11.4,11.4l0,0c0,6.3-5.1,11.4-11.4,11.4
			h-16.1c-6.3,0-11.4-5.1-11.4-11.4l0,0c0-6.3-5.1-11.4-11.4-11.4h-20.1c-6.3,0-11.4,5.1-11.4,11.4l0,0c0,6.3-5.1,11.4-11.4,11.4
			H118c-6.3,0-11.4-5.1-11.4-11.4v-2.6c0-6.3-5.1-11.4-11.4-11.4H73.9c-6.3,0-11.4,5.1-11.4,11.4V664c0,6.3,5.1,11.4,11.4,11.4
			h351.2C431.3,675.4,436.4,670.3,436.4,664z"/>
			<path fill="#70B866" d="M436.4,389.9L436.4,389.9c23.7,0,42.8,19.2,42.8,42.8v60.8c0,23.7-19.2,42.8-42.8,42.8h0
			c-23.7,0-42.8-19.2-42.8-42.8v-60.8C393.6,409.1,412.8,389.9,436.4,389.9z"/>
			<path fill="#A6CE88" d="M469.8,417.8h-67.6c-10,0-18.1-8.1-18.1-18.1l0,0c0-10,8.1-18.1,18.1-18.1h67.6c10,0,18.1,8.1,18.1,18.1
			l0,0C488,409.7,479.8,417.8,469.8,417.8z"/>
			<path fill-rule="evenodd" clip-rule="evenodd" fill="#CEE3C3" d="M291.2,675.4V619c0-42.3-25.3-76.6-56.5-76.6h-0.4
			c-31.2,0-56.5,34.3-56.5,76.6v56.4H291.2z"/>
			<path fill="#70B866" d="M459,675.6h-45.2c-27.9,0-50.5-22.6-50.5-50.5v-61c0-27.9,22.6-50.5,50.5-50.5H459
			c27.9,0,50.5,22.6,50.5,50.5v61C509.5,653,486.9,675.6,459,675.6z"/>
		</g>
	</g>
	<g id="EDIFICI_3">
		<g>
			<path fill="#A6CE88" d="M1788.3,672.8h-94.1c-12.8,0-23.2-10.4-23.2-23.2v-68.2c0-12.8,10.4-23.2,23.2-23.2h94.1
			c12.8,0,23.2,10.4,23.2,23.2v68.2C1811.5,662.4,1801.1,672.8,1788.3,672.8z"/>
			<path fill="#70B866" d="M1793.5,558.2h-104.5c-4.5,0-8.2-3.7-8.2-8.2l0,0c0-4.5,3.7-8.2,8.2-8.2h104.5c4.5,0,8.2,3.7,8.2,8.2l0,0
			C1801.7,554.6,1798.1,558.2,1793.5,558.2z"/>
			<path fill="#A6CE88" d="M1774.7,541.9h-66.8c-6.7,0-12.2-5.5-12.2-12.2v-87.3c0-6.7,5.5-12.2,12.2-12.2h66.8
			c6.7,0,12.2,5.5,12.2,12.2v87.3C1786.9,536.4,1781.4,541.9,1774.7,541.9z"/>
			<path fill="#70B866" d="M1768,430.3h-53.4c-6,0-10.9-4.9-10.9-10.9v-12.2c0-6,4.9-10.9,10.9-10.9h53.4c6,0,10.9,4.9,10.9,10.9
			v12.2C1778.9,425.4,1774,430.3,1768,430.3z"/>
			<path fill="#A6CE88" d="M1760.1,396.3h-37.5c-5.5,0-10-4.5-10-10V272.8c0-5.5,4.5-10,10-10h37.5c5.5,0,10,4.5,10,10v113.4
			C1770.1,391.8,1765.6,396.3,1760.1,396.3z"/>
			<ellipse fill="#CEE3C3" cx="1741.3" cy="315.2" rx="19" ry="14.3"/>
			<path fill="#A6CE88" d="M1770.5,267.4l-28.6-21.6c-0.4-0.3-1-0.3-1.4,0l-28.5,21.5c-0.6,0.5-0.2,1.2,0.7,1.2h56.8
			c0.1,0,0.1,0,0.2,0l0,0C1770.6,268.8,1771.2,267.9,1770.5,267.4z"/>
		</g>
	</g>
	<g id="ARBRES">
		<g>
			<path
				fill="#CC9966"
				d="M1691.1,463.3c-11.7,19.7-12.3,36.7-12.8,50.3c-0.6,17.6-1,28.3-26.8,43.1c-7.7,4.4-14.4,8-20.4,11.2
			c-42.7,22.7-50.5,33.3-44.6,108.6h20.9c-5.5-65.9-2.9-67.3,32.2-86c6.2-3.3,13.1-7,21-11.5c37-21.2,37.8-44.1,38.6-64.3
			c0.4-12,0.9-23.4,9-37.1L1691.1,463.3z"/>
			<path fill="#CC9966" d="M1604.3,596.5c-30.9-24-28.3-55.3-26.4-78.1c2-24.3,3.1-36.5-24.3-45.2l5.3-23.9
			c44.5,14.1,41.7,47.3,39.6,71.5c-1.8,21.9-3.3,39.1,17.1,54.9L1604.3,596.5z"/>
			<path fill="#CC9966" d="M1545.9,586.1c-4.5,0-9-0.7-13.4-2.2c-10.8-3.9-19.1-12.9-24.1-26.1l18.9-10.1c2.5,6.7,6.1,10.7,11.2,12.6
			c12.7,4.6,32.4-5.2,45.5-14.9l11,20.9C1586.1,572.8,1565.9,586.1,1545.9,586.1z"/>
			<path fill="#76BA5C" d="M1460.5,549.6c0-27.6,18.8-50,42-50s42,22.4,42,50c0,27.6-18.8,50-42,50S1460.5,577.2,1460.5,549.6z"/>
			<path fill="#76BA5C" d="M1518.1,440c0-27.6,18.8-50,42-50c23.2,0,42,22.4,42,50c0,27.6-18.8,50-42,50
			C1536.9,490,1518.1,467.6,1518.1,440z"/>
			<ellipse fill="#76BA5C" cx="1682.9" cy="485.7" rx="42" ry="50"/>
		</g>
	</g>
	<g id="ONADES_1_CAPA_INFERIOR">
		<g>
			<path
				fill="none"
				stroke="#A6CE88"
				stroke-width="30"
				stroke-linecap="round"
				stroke-linejoin="round"
				stroke-miterlimit="10"
				d="
			M29.1,863.6c46.5,0,46.5,6.4,93.1,6.4c46.5,0,46.5-6.4,93.1-6.4c46.5,0,46.5,6.4,93.1,6.4c46.5,0,46.5-6.4,93.1-6.4
			c46.5,0,46.5,6.4,93.1,6.4c46.5,0,46.5-6.4,93.1-6.4c46.5,0,46.5,6.4,93.1,6.4c46.5,0,46.5-6.4,93.1-6.4c46.5,0,46.5,6.4,93.1,6.4
			c46.5,0,46.5-6.4,93.1-6.4c46.5,0,46.5,6.4,93.1,6.4c46.5,0,46.5-6.4,93.1-6.4c46.5,0,46.5,6.4,93.1,6.4c46.5,0,46.5-6.4,93.1-6.4
			c46.5,0,46.5,6.4,93.1,6.4c46.5,0,46.5-6.4,93.1-6.4c46.5,0,46.5,6.4,93.1,6.4c46.5,0,46.5-6.4,93.1-6.4c46.5,0,46.5,6.4,93.1,6.4
			s46.5-6.4,93.1-6.4"/>
		</g>
		<g>
			<path
				fill="none"
				stroke="#A6CE88"
				stroke-width="30"
				stroke-linecap="round"
				stroke-linejoin="round"
				stroke-miterlimit="10"
				d="
			M29.1,740.9c46.5,0,46.5,6.4,93.1,6.4c46.5,0,46.5-6.4,93.1-6.4c46.5,0,46.5,6.4,93.1,6.4c46.5,0,46.5-6.4,93.1-6.4
			c46.5,0,46.5,6.4,93.1,6.4c46.5,0,46.5-6.4,93.1-6.4c46.5,0,46.5,6.4,93.1,6.4c46.5,0,46.5-6.4,93.1-6.4c46.5,0,46.5,6.4,93.1,6.4
			c46.5,0,46.5-6.4,93.1-6.4c46.5,0,46.5,6.4,93.1,6.4c46.5,0,46.5-6.4,93.1-6.4c46.5,0,46.5,6.4,93.1,6.4c46.5,0,46.5-6.4,93.1-6.4
			c46.5,0,46.5,6.4,93.1,6.4c46.5,0,46.5-6.4,93.1-6.4c46.5,0,46.5,6.4,93.1,6.4c46.5,0,46.5-6.4,93.1-6.4c46.5,0,46.5,6.4,93.1,6.4
			s46.5-6.4,93.1-6.4"/>
		</g>
		<g>
			<path
				fill="none"
				stroke="#A6CE88"
				stroke-width="30"
				stroke-linecap="round"
				stroke-linejoin="round"
				stroke-miterlimit="10"
				d="
			M29.1,679.6c46.5,0,46.5,6.4,93.1,6.4c46.5,0,46.5-6.4,93.1-6.4c46.5,0,46.5,6.4,93.1,6.4c46.5,0,46.5-6.4,93.1-6.4
			c46.5,0,46.5,6.4,93.1,6.4c46.5,0,46.5-6.4,93.1-6.4c46.5,0,46.5,6.4,93.1,6.4c46.5,0,46.5-6.4,93.1-6.4c46.5,0,46.5,6.4,93.1,6.4
			c46.5,0,46.5-6.4,93.1-6.4c46.5,0,46.5,6.4,93.1,6.4c46.5,0,46.5-6.4,93.1-6.4c46.5,0,46.5,6.4,93.1,6.4c46.5,0,46.5-6.4,93.1-6.4
			c46.5,0,46.5,6.4,93.1,6.4c46.5,0,46.5-6.4,93.1-6.4c46.5,0,46.5,6.4,93.1,6.4c46.5,0,46.5-6.4,93.1-6.4c46.5,0,46.5,6.4,93.1,6.4
			s46.5-6.4,93.1-6.4"/>
		</g>
		<g>
			<path
				fill="none"
				stroke="#A6CE88"
				stroke-width="30"
				stroke-linecap="round"
				stroke-linejoin="round"
				stroke-miterlimit="10"
				d="
			M29.1,802.3c46.5,0,46.5,6.4,93.1,6.4c46.5,0,46.5-6.4,93.1-6.4c46.5,0,46.5,6.4,93.1,6.4c46.5,0,46.5-6.4,93.1-6.4
			c46.5,0,46.5,6.4,93.1,6.4c46.5,0,46.5-6.4,93.1-6.4c46.5,0,46.5,6.4,93.1,6.4c46.5,0,46.5-6.4,93.1-6.4c46.5,0,46.5,6.4,93.1,6.4
			c46.5,0,46.5-6.4,93.1-6.4c46.5,0,46.5,6.4,93.1,6.4c46.5,0,46.5-6.4,93.1-6.4c46.5,0,46.5,6.4,93.1,6.4c46.5,0,46.5-6.4,93.1-6.4
			c46.5,0,46.5,6.4,93.1,6.4c46.5,0,46.5-6.4,93.1-6.4c46.5,0,46.5,6.4,93.1,6.4c46.5,0,46.5-6.4,93.1-6.4c46.5,0,46.5,6.4,93.1,6.4
			s46.5-6.4,93.1-6.4"/>
		</g>
	</g>
	<g id="NUVOLS">
		<path fill="#AFDCE3" d="M226.3,266.9c-0.2-2-0.2-3-0.2-4.7c0-28.6,23.2-51.5,51.7-51.5c1.3,0,2.4,0.4,3.6,0.4
		c7.6-19.1,26.1-32.7,48-32.7c17.1,0,32.1,8.4,41.5,21.3c3.3-0.7,6.7-1,10.1-1c25,0,45.8,17.4,50.6,40.9c16,4.1,28.6,14.3,33.7,27.3
		H226.3z"/>
		<path fill="#AFDCE3" d="M922.2,299.9c0.9-18,15.7-32.3,33.9-32.3c4.2,0,8.3,0.9,12,2.4c3.2-20.5,20.9-36.3,42.3-36.3
		c23.7,0,43,19.3,43,43c0,0.5-0.2,1.1-0.2,1.6c0.5,0,1.1-0.3,1.6-0.3c12.4,0,22.5,9.9,23.1,21.9H922.2z"/>
		<path fill="#AFDCE3" d="M1554.3,219.9c-0.2-2-0.2-3-0.2-4.7c0-28.6,23.2-51.5,51.7-51.5c1.3,0,2.4,0.4,3.6,0.4
		c7.6-19.1,26.1-32.7,48-32.7c17.1,0,32.1,8.4,41.5,21.3c3.3-0.7,6.7-1,10.1-1c25,0,45.8,17.4,50.6,40.9c16,4.1,28.6,14.3,33.7,27.3
		H1554.3z"/>
	</g>
	<g id="AVATAR">
		<g>
			<path fill="#805E39" d="M1360.3,907.1l-13.2-190.5h-159.9l-11.1,190.5l65,10.4l10-59.8c0.4-6.4,6-11.6,12.6-11.6h9.1
			c6.5,0,12.2,5.2,12.6,11.6l10,59.8L1360.3,907.1z"/>
			<polygon fill="#92AA2D" points="1187.2,716.5 1186.5,728.3 1347.9,728.3 1347.1,716.5 		"/>
			<path fill="#8E888C" d="M1205.9,538c0,0,66.3-81.9,123.2,0L1205.9,538z"/>
			<polyline fill="#805E39" points="1143,566.8 1149.2,555.7 1149.2,556.1 1146.9,568.6 1158.3,573.4 1217.2,491 1187.8,449.5
			1111.5,532.6 1119.3,543.1 1126.9,538.6 1127.3,539.2 1118.8,547.6 1128.5,556.8 1137.5,547.8 1138.4,547.6 1132.2,558.7 		"/>
			<circle fill="#805E39" cx="1116.9" cy="536.7" r="7.8"/>
			<circle fill="#805E39" cx="1124.4" cy="551.4" r="7.8"/>
			<circle fill="#805E39" cx="1137.9" cy="562.3" r="7.8"/>
			<circle fill="#805E39" cx="1153.4" cy="569.7" r="7.8"/>
			<polyline fill="#805E39" points="1391.9,564.8 1385.6,553.7 1385.6,554.1 1388,566.5 1376.6,571.4 1317.6,489 1347.1,447.5
			1423.4,530.6 1415.6,541 1408,536.6 1407.5,537.2 1416,545.6 1406.3,554.8 1397.4,545.8 1396.4,545.6 1402.7,556.7 		"/>
			<circle fill="#805E39" cx="1418" cy="534.7" r="7.8"/>
			<circle fill="#805E39" cx="1410.4" cy="549.4" r="7.8"/>
			<circle fill="#805E39" cx="1396.9" cy="560.3" r="7.8"/>
			<circle fill="#805E39" cx="1381.4" cy="567.7" r="7.8"/>
			<path
				fill="#6F8128"
				d="M1344.4,545.2c-8.8-8.9-23.2-8.8-31.9,0c-8.7,8.9-8.7,23,0,31.8l4.6,4.6c11.3,11.3,22.4,22.7,33.5,34.2
			c11,11.5,21.9,23,32.1,34.6c2.5,2.9,5,5.8,7.2,8.5l0.3,0.4l-2.5,3.7c-8.4,12.2-18.3,24.8-28.1,37.1l-11.7,14.5l34.8,28.5l12-14.9
			c10.2-12.8,20.2-25.5,30.1-39.8l1.9-2.7l2.4-3.6c2.1-3.4,4.2-6.8,5.8-10.4c0.9-1.8,1.5-3.6,2.1-5.4c0.5-1.8,0.7-3.6,0.9-5.4
			l0.2-2.7l0.1-1.4c0-0.5-0.2-0.9-0.3-1.4c-0.4-1.9-0.8-3.6-1.3-5.3l-0.9-2.6c-0.3-0.9-0.5-1.8-1.1-2.6c-1-1.7-1.9-3.4-3-5l-3.5-4.8
			c-0.6-0.8-1.2-1.6-1.8-2.4l-1.6-2c-2.8-3.5-5.6-6.7-8.3-9.8c-11.1-12.6-22.2-24.3-33.5-36.1c-11.3-11.7-22.6-23.3-34-34.7
			L1344.4,545.2z"/>
			<path
				fill="#6F8128"
				d="M1224.6,576.9c8.7-8.7,8.8-22.9,0.1-31.8c-8.7-8.9-23-9-31.9-0.1l-4.7,4.6c-11.4,11.4-22.7,22.8-33.9,34.4
			c-11.2,11.6-22.4,23.3-33.4,35.7c-2.8,3.1-5.5,6.3-8.3,9.6l-2.7,3.3c-1.2,1.5-2.4,3.2-3.6,4.7l-1.8,2.4l-1.5,2.5
			c-1,1.7-2.1,3.3-2.6,5.1l-0.9,2.6l-0.6,2.6c-0.3,1.8-1.1,3.6-0.7,5.5c0.2,3.6,0.6,7.3,2.1,10.9c1.4,3.6,3.2,7.1,5.3,10.5
			c0.5,0.9,1,1.7,1.5,2.6l1.2,2l1.8,2.8c9.5,14.5,19.2,27.3,29,40.3l11.7,15.1l35.4-27.7l-11.4-14.7c-9.5-12.4-19-25.2-27-37.4
			l-1.8-2.8l1.1-1.4c2.3-2.8,4.8-5.6,7.3-8.5c10.2-11.5,21.1-22.9,32.1-34.3c11-11.4,22.2-22.6,33.4-33.9L1224.6,576.9z"/>
			<path fill="#6F8128" d="M1329.1,537.9c-14.8-3.3-37.7-7.3-61.5-7.3c-23.8,0-46.8,4-61.7,7.3c-9.4,2.1-16.9,12.1-16.9,21.7v156.8
			H1346V559.7C1346,550,1338.5,540,1329.1,537.9z"/>
			<g>
				<g>
					<path
						fill="#8E888C"
						d="M1206.9,538c-0.3,5,3,8.2,6,11.7c2.6,3,4.6,6,5.8,9.8c0.8,2.4,1.3,4.7,0.3,7.1c-0.7,1.5-1.9,2.6-2.7,4
					c-5.8,9.8,1.1,20.5,7.6,27.9c1.1,1.2,2.8-0.6,1.8-1.8c-4.3-4.9-8.9-10.7-9-17.6c0-3.4,1.1-6.3,3-9c1.3-1.8,2.3-3.2,2.5-5.5
					c0.3-4-1.9-8.7-4-12c-2.9-4.7-9.2-8.6-8.9-14.6C1209.5,536.4,1207,536.4,1206.9,538L1206.9,538z"/>
				</g>
			</g>
			<g>
				<g>
					<path
						fill="#8E888C"
						d="M1325.5,538c0.4,5.9-5.5,9.4-8.4,13.9c-2.3,3.4-4.8,8.4-4.4,12.7c0.4,5.2,5.4,8,5.5,13.7
					c0.1,7.3-4.4,13.2-9,18.4c-1.1,1.2,0.7,3,1.8,1.8c6.5-7.4,13.4-18.1,7.6-27.9c-2.2-3.7-4-5.5-2.7-10.3c1.1-4,3.4-7.4,6.1-10.5
					c3.1-3.5,6.3-6.7,6-11.7C1327.9,536.4,1325.4,536.4,1325.5,538L1325.5,538z"/>
				</g>
			</g>
			<path fill="#FDD995" d="M1310.7,534.8c-13-2.3-28.8-4.4-45-4.4c-16.2,0-32.1,1.9-45.1,4.2l42.4,12.1c0.6,0.8,1.6,1.3,2.7,1.3l0,0
			c1,0,2-0.5,2.7-1.3L1310.7,534.8z"/>
			<path fill="#FDD995" d="M1297.7,515.4l2.4,17.4c0,0-14.8,18.1-34.5,18.1c-19.7,0-34.5-18.1-34.5-18.1l2.4-17.4H1297.7z"/>
			<path fill="#FBCC9A" d="M1379.8,745.4l2.2-2.7l-34.4-28.5l-2.1,2.6c-7.7,9.5-6.4,23.5,2.9,31.6
			C1357.8,756.4,1371.9,755.1,1379.8,745.4z"/>
			<path fill="#FBCC9A" d="M1187.9,717l-2-2.6l-35,27.7l2.1,2.7c7.7,9.9,21.8,11.5,31.3,3.7C1193.8,740.6,1195.4,726.6,1187.9,717z"/>
			<path fill="#ACCCCE" d="M1187.3,716.9"/>
			<path fill="#FBCC9A" d="M1191.1,722.9c-3.2,2.5-7.2,2.8-8.9,0.6c-1.7-2.2-0.4-6,2.8-8.5c3.2-2.5,7.2-2.8,8.9-0.6
			C1195.6,716.6,1194.3,720.4,1191.1,722.9z"/>
			<path fill="#FBCC9A" d="M1342.1,722.6c3.2,2.5,7.2,2.8,8.9,0.6c1.7-2.2,0.4-6-2.8-8.5c-3.2-2.5-7.2-2.8-8.9-0.6
			C1337.7,716.3,1338.9,720.1,1342.1,722.6z"/>
			<ellipse fill="#CB9866" cx="1373.6" cy="417" rx="20.3" ry="26.2"/>
			<ellipse fill="#FBCC9A" cx="1154.3" cy="417" rx="20.3" ry="26.2"/>
			<path fill="#FBCC9A" d="M1244.6,526.7c-49.1,0-88.9-40.3-88.9-90v-95c0-49.7,39.8-90,88.9-90h21.8v275H1244.6z"/>
			<path fill="#CB9866" d="M1283.3,526.7c49.1,0,88.9-40.3,88.9-90v-95c0-49.7-39.8-90-88.9-90H1264v275H1283.3z"/>
			<path fill="#261911" d="M1264,381.7"/>
			<circle fill="#FBCC9A" cx="1266.1" cy="433.6" r="13.6"/>
			<path
				fill="#2B1012"
				d="M1266.6,310.6c13.7,35.4,53,7.1,53,7.1c3.2,11.5,26.1,13.8,26.1,13.8c-3.3,20.7,13.4,28.6,13.4,28.6
			c-3.1,12.6,7.9,16.8,7.9,16.8c-0.9,15.2,7.9,14.7,7.9,14.7c8.8-4.7,5.4-14.1,5.4-14.1s21.5-34.2-4-48.6c0,0,5.1-42-16.8-42.4
			c0,0-6.3-47.1-39.9-38.7c0,0-33.2-40.3-53-1c-19.8-39.3-53,1-53,1c-33.6-8.4-39.9,38.7-39.9,38.7c-21.9,0.3-16.8,42.4-16.8,42.4
			c-25.6,14.3-4,48.6-4,48.6s-3.3,9.4,5.4,14.1c0,0,8.8,0.5,7.9-14.7c0,0,11-4.2,7.9-16.8c0,0,16.7-7.9,13.4-28.6
			c0,0,22.9-2.3,26.1-13.8C1213.6,317.7,1252.9,346,1266.6,310.6z"/>
			<polyline fill="#758628" points="1359.2,899.5 1373.7,883.8 1326.9,874.4 1328.8,904.2 		"/>
			<path
				fill="#1E1E1C"
				d="M1221.1,500.6c0.7-5,0.3-21.4,5.7-24.3c8-4.3,22.2-5.2,35.5-5.2c12.5,0,28.6,0.9,37.5,6.3
			c4.2,2.6,5.8,16.9,7,21.4c0.7-2.4,7.8-18.7,0.9-27.9c-4.9-6.4-19.6-8.9-24-9.4c-6.8-0.8-13.6,2.8-20.5,2.7
			c-7.4-0.2-17.9-4.6-25.3-3.8c-5.6,0.6-14.2,4.4-19.8,10.5C1212.8,476.7,1216.7,498.8,1221.1,500.6z"/>
			<path fill="#2B1012" d="M1265.4,497.6c-1.1-0.4-4.1-0.1-5.2-0.1c-1.8,0-1.7,10-6.9,12.8c-13,7.1-40.9,5.7-53.5-9.6
			c-0.8,0.1-16.7-45.7-18.2-48.6l-25.7-9c-1.4,31.2-1,50.9,30.3,83.5c14.8,15.4,41.6,21.9,47.1,23.5c14.9,4.4,24.1,3.5,30.6,1.3"/>
			<path fill="#2B1012" d="M1263.1,497.6c1.1-0.4,4.1-0.1,5.2-0.1c1.8,0,1.7,10,6.9,12.8c13,7.1,40.9,5.7,53.5-9.6
			c0.8,0.1,17.9-47,19.4-49.9l25.5-7.7c-1.5,28.6,5.8,43.3-31.3,83.4c-14.5,15.7-41.6,21.9-47.1,23.5c-14.9,4.4-24.9,3.5-31.4,1.3"/>
			<path
				fill="#1E1E1C"
				d="M1372.3,384c0-0.7-0.4-1.2-1-1.4c-0.5-0.1-0.9-0.3-1.4-0.3c-6.8-1.1-13.6-2.2-20.4-2.7
			c-5.5-0.4-10.9-0.7-16.4-0.9c-10.5-0.5-21.1-0.3-31.6,1.1c-6.4,0.9-12.7,2.1-18.9,4.2c-3.1,1.1-6.2,2.3-9.3,3.3
			c-4.9,1.6-9.9,2.4-14.9,1.4c-3-0.6-6-1.5-9-2.5c-5.3-1.8-10.6-3.6-16.2-4.7c-10.7-2.1-21.6-3-31.7-2.9c-8.2,0-15.6,0.3-23,1.2
			c-6,0.8-12.1,1.6-18.1,2.5c-1.3,0.2-2.5,0.6-3.8,0.9c-0.7,0.2-1.1,0.7-1.1,1.4c-0.1,3.7-0.2,7.5-0.3,11.3c0,0.6,0.1,1.1,0.2,1.7
			c0.1,0.5,0.3,0.8,0.7,1c0.5,0.2,0.9,0.4,1.3,0.7c2,1.5,2.9,3.7,3.7,5.9c0.5,1.6,0.9,3.3,1.3,5c0.3,1,0.6,2.1,0.9,3.1
			c1,4.9,2,9.8,3.1,14.7c1,4.7,2.3,9.2,4.5,13.5c2.4,4.8,5.7,8.4,10.5,10.5c2.9,1.3,5.9,2.1,9,2.6c5.5,0.9,11.1,1,16.7,0.6
			c5.7-0.4,11.2-1.3,16.7-3.1c4-1.3,7.9-3.1,11.1-6c4.9-4.4,8.9-9.7,12-15.8c3.1-6,5.2-12.5,7.1-19c0.6-1.9,1.1-3.8,1.7-5.6
			c0.9-2.7,2.8-4.4,5.5-4.8c0.9-0.1,1.8-0.2,2.7-0.1c2.1,0.1,4,0.6,5.4,2.4c0.6,0.8,1.1,1.7,1.5,2.6c0.7,1.8,1.5,3.6,2,5.5
			c2.4,8.1,5.6,15.7,9.7,23c3.4,6.1,7.8,10.9,13.7,14.3c4.2,2.4,8.6,3.9,13.2,4.9c7,1.4,14,1.8,21.1,1.4c4.3-0.2,8.5-0.8,12.6-2.1
			c4.2-1.3,7.9-3.5,10.7-7.2c1.8-2.4,3.1-5.1,4.2-7.9c2.3-5.9,3.8-12.1,5.1-18.3c0.7-3,1.3-6.1,2-9.1c0.4-1.6,0.8-3.1,1.2-4.7
			c0.4-1.5,0.7-3,1.6-4.2c0.9-1.3,1.8-2.5,3.3-3.1c0.6-0.2,1-0.7,1.1-1.4c0.1-0.5,0.2-1,0.2-1.5c0-2.2,0-4.5-0.1-6.7
			C1372.6,387.2,1372.4,385.6,1372.3,384 M1164.3,391.1 M1197.3,385.8 M1356.1,403.3c0.1,3,0.3,6.1,0.2,9.1 M1350.4,390.2
			 M1312.3,385.3c3.4-0.2,6.8-0.3,9.1-0.4 M1288.1,390.5 M1356.3,412.4 M1363.5,391.1"/>
			<path fill="#805E39" d="M1360.3,907.1l-13.2-190.5h-159.9l-11.1,190.5l65,10.4l10-59.8c0.4-6.4,6-11.6,12.6-11.6h9.1
			c6.5,0,12.2,5.2,12.6,11.6l10,59.8L1360.3,907.1z"/>
			<polygon fill="#92AA2D" points="1187.2,716.5 1186.5,728.3 1347.9,728.3 1347.1,716.5 		"/>
			<path fill="#8E888C" d="M1205.9,538c0,0,66.3-81.9,123.2,0L1205.9,538z"/>
			<polyline fill="#805E39" points="1143,566.8 1149.2,555.7 1149.2,556.1 1146.9,568.6 1158.3,573.4 1217.2,491 1187.8,449.5
			1111.5,532.6 1119.3,543.1 1126.9,538.6 1127.3,539.2 1118.8,547.6 1128.5,556.8 1137.5,547.8 1138.4,547.6 1132.2,558.7 		"/>
			<circle fill="#805E39" cx="1116.9" cy="536.7" r="7.8"/>
			<circle fill="#805E39" cx="1124.4" cy="551.4" r="7.8"/>
			<circle fill="#805E39" cx="1137.9" cy="562.3" r="7.8"/>
			<circle fill="#805E39" cx="1153.4" cy="569.7" r="7.8"/>
			<polyline fill="#805E39" points="1391.9,564.8 1385.6,553.7 1385.6,554.1 1388,566.5 1376.6,571.4 1317.6,489 1347.1,447.5
			1423.4,530.6 1415.6,541 1408,536.6 1407.5,537.2 1416,545.6 1406.3,554.8 1397.4,545.8 1396.4,545.6 1402.7,556.7 		"/>
			<circle fill="#805E39" cx="1418" cy="534.7" r="7.8"/>
			<circle fill="#805E39" cx="1410.4" cy="549.4" r="7.8"/>
			<circle fill="#805E39" cx="1396.9" cy="560.3" r="7.8"/>
			<circle fill="#805E39" cx="1381.4" cy="567.7" r="7.8"/>
			<path
				fill="#6F8128"
				d="M1344.4,545.2c-8.8-8.9-23.2-8.8-31.9,0c-8.7,8.9-8.7,23,0,31.8l4.6,4.6c11.3,11.3,22.4,22.7,33.5,34.2
			c11,11.5,21.9,23,32.1,34.6c2.5,2.9,5,5.8,7.2,8.5l0.3,0.4l-2.5,3.7c-8.4,12.2-18.3,24.8-28.1,37.1l-11.7,14.5l34.8,28.5l12-14.9
			c10.2-12.8,20.2-25.5,30.1-39.8l1.9-2.7l2.4-3.6c2.1-3.4,4.2-6.8,5.8-10.4c0.9-1.8,1.5-3.6,2.1-5.4c0.5-1.8,0.7-3.6,0.9-5.4
			l0.2-2.7l0.1-1.4c0-0.5-0.2-0.9-0.3-1.4c-0.4-1.9-0.8-3.6-1.3-5.3l-0.9-2.6c-0.3-0.9-0.5-1.8-1.1-2.6c-1-1.7-1.9-3.4-3-5l-3.5-4.8
			c-0.6-0.8-1.2-1.6-1.8-2.4l-1.6-2c-2.8-3.5-5.6-6.7-8.3-9.8c-11.1-12.6-22.2-24.3-33.5-36.1c-11.3-11.7-22.6-23.3-34-34.7
			L1344.4,545.2z"/>
			<path
				fill="#6F8128"
				d="M1224.6,576.9c8.7-8.7,8.8-22.9,0.1-31.8c-8.7-8.9-23-9-31.9-0.1l-4.7,4.6c-11.4,11.4-22.7,22.8-33.9,34.4
			c-11.2,11.6-22.4,23.3-33.4,35.7c-2.8,3.1-5.5,6.3-8.3,9.6l-2.7,3.3c-1.2,1.5-2.4,3.2-3.6,4.7l-1.8,2.4l-1.5,2.5
			c-1,1.7-2.1,3.3-2.6,5.1l-0.9,2.6l-0.6,2.6c-0.3,1.8-1.1,3.6-0.7,5.5c0.2,3.6,0.6,7.3,2.1,10.9c1.4,3.6,3.2,7.1,5.3,10.5
			c0.5,0.9,1,1.7,1.5,2.6l1.2,2l1.8,2.8c9.5,14.5,19.2,27.3,29,40.3l11.7,15.1l35.4-27.7l-11.4-14.7c-9.5-12.4-19-25.2-27-37.4
			l-1.8-2.8l1.1-1.4c2.3-2.8,4.8-5.6,7.3-8.5c10.2-11.5,21.1-22.9,32.1-34.3c11-11.4,22.2-22.6,33.4-33.9L1224.6,576.9z"/>
			<path fill="#6F8128" d="M1329.1,537.9c-14.8-3.3-37.7-7.3-61.5-7.3c-23.8,0-46.8,4-61.7,7.3c-9.4,2.1-16.9,12.1-16.9,21.7v156.8
			H1346V559.7C1346,550,1338.5,540,1329.1,537.9z"/>
			<g>
				<g>
					<path
						fill="#8E888C"
						d="M1206.9,538c-0.3,5,3,8.2,6,11.7c2.6,3,4.6,6,5.8,9.8c0.8,2.4,1.3,4.7,0.3,7.1c-0.7,1.5-1.9,2.6-2.7,4
					c-5.8,9.8,1.1,20.5,7.6,27.9c1.1,1.2,2.8-0.6,1.8-1.8c-4.3-4.9-8.9-10.7-9-17.6c0-3.4,1.1-6.3,3-9c1.3-1.8,2.3-3.2,2.5-5.5
					c0.3-4-1.9-8.7-4-12c-2.9-4.7-9.2-8.6-8.9-14.6C1209.5,536.4,1207,536.4,1206.9,538L1206.9,538z"/>
				</g>
			</g>
			<g>
				<g>
					<path
						fill="#8E888C"
						d="M1325.5,538c0.4,5.9-5.5,9.4-8.4,13.9c-2.3,3.4-4.8,8.4-4.4,12.7c0.4,5.2,5.4,8,5.5,13.7
					c0.1,7.3-4.4,13.2-9,18.4c-1.1,1.2,0.7,3,1.8,1.8c6.5-7.4,13.4-18.1,7.6-27.9c-2.2-3.7-4-5.5-2.7-10.3c1.1-4,3.4-7.4,6.1-10.5
					c3.1-3.5,6.3-6.7,6-11.7C1327.9,536.4,1325.4,536.4,1325.5,538L1325.5,538z"/>
				</g>
			</g>
			<path fill="#FDD995" d="M1310.7,534.8c-13-2.3-28.8-4.4-45-4.4c-16.2,0-32.1,1.9-45.1,4.2l42.4,12.1c0.6,0.8,1.6,1.3,2.7,1.3l0,0
			c1,0,2-0.5,2.7-1.3L1310.7,534.8z"/>
			<path fill="#FDD995" d="M1297.7,515.4l2.4,17.4c0,0-14.8,18.1-34.5,18.1c-19.7,0-34.5-18.1-34.5-18.1l2.4-17.4H1297.7z"/>
			<path fill="#FBCC9A" d="M1379.8,745.4l2.2-2.7l-34.4-28.5l-2.1,2.6c-7.7,9.5-6.4,23.5,2.9,31.6
			C1357.8,756.4,1371.9,755.1,1379.8,745.4z"/>
			<path fill="#FBCC9A" d="M1187.9,717l-2-2.6l-35,27.7l2.1,2.7c7.7,9.9,21.8,11.5,31.3,3.7C1193.8,740.6,1195.4,726.6,1187.9,717z"/>
			<path fill="#ACCCCE" d="M1187.3,716.9"/>
			<path fill="#FBCC9A" d="M1191.1,722.9c-3.2,2.5-7.2,2.8-8.9,0.6c-1.7-2.2-0.4-6,2.8-8.5c3.2-2.5,7.2-2.8,8.9-0.6
			C1195.6,716.6,1194.3,720.4,1191.1,722.9z"/>
			<path fill="#FBCC9A" d="M1342.1,722.6c3.2,2.5,7.2,2.8,8.9,0.6c1.7-2.2,0.4-6-2.8-8.5c-3.2-2.5-7.2-2.8-8.9-0.6
			C1337.7,716.3,1338.9,720.1,1342.1,722.6z"/>
			<ellipse fill="#CB9866" cx="1373.6" cy="417" rx="20.3" ry="26.2"/>
			<ellipse fill="#FBCC9A" cx="1154.3" cy="417" rx="20.3" ry="26.2"/>
			<path fill="#FBCC9A" d="M1244.6,526.7c-49.1,0-88.9-40.3-88.9-90v-95c0-49.7,39.8-90,88.9-90h21.8v275H1244.6z"/>
			<path fill="#CB9866" d="M1283.3,526.7c49.1,0,88.9-40.3,88.9-90v-95c0-49.7-39.8-90-88.9-90H1264v275H1283.3z"/>
			<path fill="#261911" d="M1264,381.7"/>
			<circle fill="#FBCC9A" cx="1266.1" cy="433.6" r="13.6"/>
			<path
				fill="#2B1012"
				d="M1266.6,310.6c13.7,35.4,53,7.1,53,7.1c3.2,11.5,26.1,13.8,26.1,13.8c-3.3,20.7,13.4,28.6,13.4,28.6
			c-3.1,12.6,7.9,16.8,7.9,16.8c-0.9,15.2,7.9,14.7,7.9,14.7c8.8-4.7,5.4-14.1,5.4-14.1s21.5-34.2-4-48.6c0,0,5.1-42-16.8-42.4
			c0,0-6.3-47.1-39.9-38.7c0,0-33.2-40.3-53-1c-19.8-39.3-53,1-53,1c-33.6-8.4-39.9,38.7-39.9,38.7c-21.9,0.3-16.8,42.4-16.8,42.4
			c-25.6,14.3-4,48.6-4,48.6s-3.3,9.4,5.4,14.1c0,0,8.8,0.5,7.9-14.7c0,0,11-4.2,7.9-16.8c0,0,16.7-7.9,13.4-28.6
			c0,0,22.9-2.3,26.1-13.8C1213.6,317.7,1252.9,346,1266.6,310.6z"/>
			<polyline fill="#758628" points="1359.2,899.5 1373.7,883.8 1326.9,874.4 1328.8,904.2 		"/>
			<path
				fill="#1E1E1C"
				d="M1221.1,500.6c0.7-5,0.3-21.4,5.7-24.3c8-4.3,22.2-5.2,35.5-5.2c12.5,0,28.6,0.9,37.5,6.3
			c4.2,2.6,5.8,16.9,7,21.4c0.7-2.4,7.8-18.7,0.9-27.9c-4.9-6.4-19.6-8.9-24-9.4c-6.8-0.8-13.6,2.8-20.5,2.7
			c-7.4-0.2-17.9-4.6-25.3-3.8c-5.6,0.6-14.2,4.4-19.8,10.5C1212.8,476.7,1216.7,498.8,1221.1,500.6z"/>
			<path fill="#2B1012" d="M1265.4,497.6c-1.1-0.4-4.1-0.1-5.2-0.1c-1.8,0-1.7,10-6.9,12.8c-13,7.1-40.9,5.7-53.5-9.6
			c-0.8,0.1-16.7-45.7-18.2-48.6l-25.7-9c-1.4,31.2-1,50.9,30.3,83.5c14.8,15.4,41.6,21.9,47.1,23.5c14.9,4.4,24.1,3.5,30.6,1.3"/>
			<path fill="#2B1012" d="M1263.1,497.6c1.1-0.4,4.1-0.1,5.2-0.1c1.8,0,1.7,10,6.9,12.8c13,7.1,40.9,5.7,53.5-9.6
			c0.8,0.1,17.9-47,19.4-49.9l25.5-7.7c-1.5,28.6,5.8,43.3-31.3,83.4c-14.5,15.7-41.6,21.9-47.1,23.5c-14.9,4.4-24.9,3.5-31.4,1.3"/>
			<path
				fill="#1E1E1C"
				d="M1372.3,384c0-0.7-0.4-1.2-1-1.4c-0.5-0.1-0.9-0.3-1.4-0.3c-6.8-1.1-13.6-2.2-20.4-2.7
			c-5.5-0.4-10.9-0.7-16.4-0.9c-10.5-0.5-21.1-0.3-31.6,1.1c-6.4,0.9-12.7,2.1-18.9,4.2c-3.1,1.1-6.2,2.3-9.3,3.3
			c-4.9,1.6-9.9,2.4-14.9,1.4c-3-0.6-6-1.5-9-2.5c-5.3-1.8-10.6-3.6-16.2-4.7c-10.7-2.1-21.6-3-31.7-2.9c-8.2,0-15.6,0.3-23,1.2
			c-6,0.8-12.1,1.6-18.1,2.5c-1.3,0.2-2.5,0.6-3.8,0.9c-0.7,0.2-1.1,0.7-1.1,1.4c-0.1,3.7-0.2,7.5-0.3,11.3c0,0.6,0.1,1.1,0.2,1.7
			c0.1,0.5,0.3,0.8,0.7,1c0.5,0.2,0.9,0.4,1.3,0.7c2,1.5,2.9,3.7,3.7,5.9c0.5,1.6,0.9,3.3,1.3,5c0.3,1,0.6,2.1,0.9,3.1
			c1,4.9,2,9.8,3.1,14.7c1,4.7,2.3,9.2,4.5,13.5c2.4,4.8,5.7,8.4,10.5,10.5c2.9,1.3,5.9,2.1,9,2.6c5.5,0.9,11.1,1,16.7,0.6
			c5.7-0.4,11.2-1.3,16.7-3.1c4-1.3,7.9-3.1,11.1-6c4.9-4.4,8.9-9.7,12-15.8c3.1-6,5.2-12.5,7.1-19c0.6-1.9,1.1-3.8,1.7-5.6
			c0.9-2.7,2.8-4.4,5.5-4.8c0.9-0.1,1.8-0.2,2.7-0.1c2.1,0.1,4,0.6,5.4,2.4c0.6,0.8,1.1,1.7,1.5,2.6c0.7,1.8,1.5,3.6,2,5.5
			c2.4,8.1,5.6,15.7,9.7,23c3.4,6.1,7.8,10.9,13.7,14.3c4.2,2.4,8.6,3.9,13.2,4.9c7,1.4,14,1.8,21.1,1.4c4.3-0.2,8.5-0.8,12.6-2.1
			c4.2-1.3,7.9-3.5,10.7-7.2c1.8-2.4,3.1-5.1,4.2-7.9c2.3-5.9,3.8-12.1,5.1-18.3c0.7-3,1.3-6.1,2-9.1c0.4-1.6,0.8-3.1,1.2-4.7
			c0.4-1.5,0.7-3,1.6-4.2c0.9-1.3,1.8-2.5,3.3-3.1c0.6-0.2,1-0.7,1.1-1.4c0.1-0.5,0.2-1,0.2-1.5c0-2.2,0-4.5-0.1-6.7
			C1372.6,387.2,1372.4,385.6,1372.3,384 M1164.3,391.1 M1197.3,385.8 M1356.1,403.3c0.1,3,0.3,6.1,0.2,9.1 M1350.4,390.2
			 M1312.3,385.3c3.4-0.2,6.8-0.3,9.1-0.4 M1288.1,390.5 M1356.3,412.4 M1363.5,391.1"/>
			<path fill="#805E39" d="M1360.3,907.1l-13.2-190.5h-159.9l-11.1,190.5l65,10.4l10-59.8c0.4-6.4,6-11.6,12.6-11.6h9.1
			c6.5,0,12.2,5.2,12.6,11.6l10,59.8L1360.3,907.1z"/>
			<polygon fill="#9AC767" points="1187.2,716.5 1186.5,728.3 1347.9,728.3 1347.1,716.5 		"/>
			<path fill="#8E888C" d="M1205.9,538c0,0,66.3-81.9,123.2,0L1205.9,538z"/>
			<polyline fill="#805E39" points="1143,566.8 1149.2,555.7 1149.2,556.1 1146.9,568.6 1158.3,573.4 1217.2,491 1187.8,449.5
			1111.5,532.6 1119.3,543.1 1126.9,538.6 1127.3,539.2 1118.8,547.6 1128.5,556.8 1137.5,547.8 1138.4,547.6 1132.2,558.7 		"/>
			<circle fill="#805E39" cx="1116.9" cy="536.7" r="7.8"/>
			<circle fill="#805E39" cx="1124.4" cy="551.4" r="7.8"/>
			<circle fill="#805E39" cx="1137.9" cy="562.3" r="7.8"/>
			<circle fill="#805E39" cx="1153.4" cy="569.7" r="7.8"/>
			<polyline fill="#805E39" points="1391.9,564.8 1385.6,553.7 1385.6,554.1 1388,566.5 1376.6,571.4 1317.6,489 1347.1,447.5
			1423.4,530.6 1415.6,541 1408,536.6 1407.5,537.2 1416,545.6 1406.3,554.8 1397.4,545.8 1396.4,545.6 1402.7,556.7 		"/>
			<circle fill="#805E39" cx="1418" cy="534.7" r="7.8"/>
			<circle fill="#805E39" cx="1410.4" cy="549.4" r="7.8"/>
			<circle fill="#805E39" cx="1396.9" cy="560.3" r="7.8"/>
			<circle fill="#805E39" cx="1381.4" cy="567.7" r="7.8"/>
			<path
				fill="#669934"
				d="M1344.4,545.2c-8.8-8.9-23.2-8.8-31.9,0c-8.7,8.9-8.7,23,0,31.8l4.6,4.6c11.3,11.3,22.4,22.7,33.5,34.2
			c11,11.5,21.9,23,32.1,34.6c2.5,2.9,5,5.8,7.2,8.5l0.3,0.4l-2.5,3.7c-8.4,12.2-18.3,24.8-28.1,37.1l-11.7,14.5l34.8,28.5l12-14.9
			c10.2-12.8,20.2-25.5,30.1-39.8l1.9-2.7l2.4-3.6c2.1-3.4,4.2-6.8,5.8-10.4c0.9-1.8,1.5-3.6,2.1-5.4c0.5-1.8,0.7-3.6,0.9-5.4
			l0.2-2.7l0.1-1.4c0-0.5-0.2-0.9-0.3-1.4c-0.4-1.9-0.8-3.6-1.3-5.3l-0.9-2.6c-0.3-0.9-0.5-1.8-1.1-2.6c-1-1.7-1.9-3.4-3-5l-3.5-4.8
			c-0.6-0.8-1.2-1.6-1.8-2.4l-1.6-2c-2.8-3.5-5.6-6.7-8.3-9.8c-11.1-12.6-22.2-24.3-33.5-36.1c-11.3-11.7-22.6-23.3-34-34.7
			L1344.4,545.2z"/>
			<path
				fill="#669934"
				d="M1224.6,576.9c8.7-8.7,8.8-22.9,0.1-31.8c-8.7-8.9-23-9-31.9-0.1l-4.7,4.6c-11.4,11.4-22.7,22.8-33.9,34.4
			c-11.2,11.6-22.4,23.3-33.4,35.7c-2.8,3.1-5.5,6.3-8.3,9.6l-2.7,3.3c-1.2,1.5-2.4,3.2-3.6,4.7l-1.8,2.4l-1.5,2.5
			c-1,1.7-2.1,3.3-2.6,5.1l-0.9,2.6l-0.6,2.6c-0.3,1.8-1.1,3.6-0.7,5.5c0.2,3.6,0.6,7.3,2.1,10.9c1.4,3.6,3.2,7.1,5.3,10.5
			c0.5,0.9,1,1.7,1.5,2.6l1.2,2l1.8,2.8c9.5,14.5,19.2,27.3,29,40.3l11.7,15.1l35.4-27.7l-11.4-14.7c-9.5-12.4-19-25.2-27-37.4
			l-1.8-2.8l1.1-1.4c2.3-2.8,4.8-5.6,7.3-8.5c10.2-11.5,21.1-22.9,32.1-34.3c11-11.4,22.2-22.6,33.4-33.9L1224.6,576.9z"/>
			<path fill="#669934" d="M1329.1,537.9c-14.8-3.3-37.7-7.3-61.5-7.3c-23.8,0-46.8,4-61.7,7.3c-9.4,2.1-16.9,12.1-16.9,21.7v156.8
			H1346V559.7C1346,550,1338.5,540,1329.1,537.9z"/>
			<path
				fill="#3D3D3B"
				d="M1206.1,538c0.3,3.3,0.2,5.1,2.5,7.8c2.8,3.5,5.8,6.7,8.1,10.6c4.7,8.1,0.6,10.7-2.2,16.4
			c-4.5,9.2,3.4,19.7,8.9,26.2c1.8,2.1,4.7-0.9,3-3c-6.3-7.3-12.3-17.1-5-26.7c2.1-2.8,1.6-4.3,1.4-7.8
			c-0.3-9.5-11.7-14.5-12.5-23.5C1210,535.3,1205.8,535.3,1206.1,538L1206.1,538z"/>
			<path
				fill="#3D3D3B"
				d="M1324.6,538c-0.6,7.5-10.1,15.2-12.4,22.9c-0.5,1.7-0.8,4.2,0.1,5.9c5.8,11,4.1,20.1-3.7,29.2
			c-1.8,2,1.2,5,3,3c6.7-7.8,11.1-15.3,9.2-25.7c-0.4-2.3-2.2-4.3-3.5-6.1c-4.3-5.7,3.6-14.9,6.9-18.6c3.1-3.5,4.4-6.1,4.8-10.7
			C1329,535.3,1324.9,535.3,1324.6,538L1324.6,538z"/>
			<path fill="#FDD995" d="M1310.7,534.8c-13-2.3-28.8-4.4-45-4.4c-16.2,0-32.1,1.9-45.1,4.2l42.4,12.1c0.6,0.8,1.6,1.3,2.7,1.3l0,0
			c1,0,2-0.5,2.7-1.3L1310.7,534.8z"/>
			<path fill="#FDD995" d="M1297.7,515.4l2.4,17.4c0,0-14.8,18.1-34.5,18.1c-19.7,0-34.5-18.1-34.5-18.1l2.4-17.4H1297.7z"/>
			<path fill="#FBCC9A" d="M1379.8,745.4l2.2-2.7l-34.4-28.5l-2.1,2.6c-7.7,9.5-6.4,23.5,2.9,31.6
			C1357.8,756.4,1371.9,755.1,1379.8,745.4z"/>
			<path fill="#FBCC9A" d="M1187.9,717l-2-2.6l-35,27.7l2.1,2.7c7.7,9.9,21.8,11.5,31.3,3.7C1193.8,740.6,1195.4,726.6,1187.9,717z"/>
			<path fill="#ACCCCE" d="M1187.3,716.9"/>
			<path fill="#FBCC9A" d="M1191.1,722.9c-3.2,2.5-7.2,2.8-8.9,0.6c-1.7-2.2-0.4-6,2.8-8.5c3.2-2.5,7.2-2.8,8.9-0.6
			C1195.6,716.6,1194.3,720.4,1191.1,722.9z"/>
			<path fill="#FBCC9A" d="M1342.1,722.6c3.2,2.5,7.2,2.8,8.9,0.6c1.7-2.2,0.4-6-2.8-8.5c-3.2-2.5-7.2-2.8-8.9-0.6
			C1337.7,716.3,1338.9,720.1,1342.1,722.6z"/>
			<ellipse fill="#CB9866" cx="1373.6" cy="417" rx="20.3" ry="26.2"/>
			<ellipse fill="#FBCC9A" cx="1154.3" cy="417" rx="20.3" ry="26.2"/>
			<path fill="#FBCC9A" d="M1244.6,526.7c-49.1,0-88.9-40.3-88.9-90v-95c0-49.7,39.8-90,88.9-90h21.8v275H1244.6z"/>
			<path fill="#CB9866" d="M1283.3,526.7c49.1,0,88.9-40.3,88.9-90v-95c0-49.7-39.8-90-88.9-90H1264v275H1283.3z"/>
			<path fill="#261911" d="M1264,381.7"/>
			<circle fill="#FBCC9A" cx="1266.1" cy="433.6" r="13.6"/>
			<polygon fill="#669934" points="1243,922 1169.8,922 1169.8,910.3 1176.1,899.7 1245.5,890.8 		"/>
			<polyline fill="#669934" points="1176,899.7 1165.4,883.7 1211.2,874.4 1205.8,904.3 		"/>
			<polygon fill="#669934" points="1293.3,922 1364.3,922 1364.3,910.3 1360,899.6 1290.8,890.5 		"/>
			<polyline fill="#669934" points="1359.8,899.5 1374.3,883.8 1327.5,874.4 1329.4,904.2 		"/>
			<path
				fill="#805E39"
				d="M1221.1,500.6c0.7-5,0.3-21.4,5.7-24.3c8-4.3,22.2-5.2,35.5-5.2c12.5,0,28.6,0.9,37.5,6.3
			c4.2,2.6,5.8,16.9,7,21.4c0.7-2.4,7.8-18.7,0.9-27.9c-4.9-6.4-19.6-8.9-24-9.4c-6.8-0.8-13.6,2.8-20.5,2.7
			c-7.4-0.2-17.9-4.6-25.3-3.8c-5.6,0.6-14.2,4.4-19.8,10.5C1212.8,476.7,1216.7,498.8,1221.1,500.6z"/>
			<path fill="#805E39" d="M1265.4,497.6c-1.1-0.4-4.1-0.1-5.2-0.1c-1.8,0-1.7,10-6.9,12.8c-13,7.1-40.9,5.7-53.5-9.6
			c-0.8,0.1-16.7-45.7-18.2-48.6l-25.7-9c-1.4,31.2-1,50.9,30.3,83.5c14.8,15.4,41.6,21.9,47.1,23.5c14.9,4.4,24.1,3.5,30.6,1.3"/>
			<path fill="#805E39" d="M1263.1,497.6c1.1-0.4,4.1-0.1,5.2-0.1c1.8,0,1.7,10,6.9,12.8c13,7.1,40.9,5.7,53.5-9.6
			c0.8,0.1,17.9-47,19.4-49.9l25.5-7.7c-1.5,28.6,5.8,43.3-31.3,83.4c-14.5,15.7-41.6,21.9-47.1,23.5c-14.9,4.4-24.9,3.5-31.4,1.3"/>
			<path
				fill="#3D3D3B"
				d="M1372.3,378c0-0.7-0.4-1.2-1-1.4c-0.5-0.1-0.9-0.3-1.4-0.3c-6.8-1.1-13.6-2.2-20.4-2.7
			c-5.5-0.4-10.9-0.7-16.4-0.9c-10.5-0.5-21.1-0.3-31.6,1.1c-6.4,0.9-12.7,2.1-18.9,4.2c-3.1,1.1-6.2,2.3-9.3,3.3
			c-4.9,1.6-9.9,2.4-14.9,1.4c-3-0.6-6-1.5-9-2.5c-5.3-1.8-10.6-3.6-16.2-4.7c-10.7-2.1-21.6-3-31.7-2.9c-8.2,0-15.6,0.3-23,1.2
			c-6,0.8-12.1,1.6-18.1,2.5c-1.3,0.2-2.5,0.6-3.8,0.9c-0.7,0.2-1.1,0.7-1.1,1.4c-0.1,3.7-0.2,7.5-0.3,11.3c0,0.6,0.1,1.1,0.2,1.7
			c0.1,0.5,0.3,0.8,0.7,1c0.5,0.2,0.9,0.4,1.3,0.7c2,1.5,2.9,3.7,3.7,5.9c0.5,1.6,0.9,3.3,1.3,5c0.3,1,0.6,2.1,0.9,3.1
			c1,4.9,2,9.8,3.1,14.7c1,4.7,2.3,9.2,4.5,13.5c2.4,4.8,5.7,8.4,10.5,10.5c2.9,1.3,5.9,2.1,9,2.6c5.5,0.9,11.1,1,16.7,0.6
			c5.7-0.4,11.2-1.3,16.7-3.1c4-1.3,7.9-3.1,11.1-6c4.9-4.4,8.9-9.7,12-15.8c3.1-6,5.2-12.5,7.1-19c0.6-1.9,1.1-3.8,1.7-5.6
			c0.9-2.7,2.8-4.4,5.5-4.8c0.9-0.1,1.8-0.2,2.7-0.1c2.1,0.1,4,0.6,5.4,2.4c0.6,0.8,1.1,1.7,1.5,2.6c0.7,1.8,1.5,3.6,2,5.5
			c2.4,8.1,5.6,15.7,9.7,23c3.4,6.1,7.8,10.9,13.7,14.3c4.2,2.4,8.6,3.9,13.2,4.9c7,1.4,14,1.8,21.1,1.4c4.3-0.2,8.5-0.8,12.6-2.1
			c4.2-1.3,7.9-3.5,10.7-7.2c1.8-2.4,3.1-5.1,4.2-7.9c2.3-5.9,3.8-12.1,5.1-18.3c0.7-3,1.3-6.1,2-9.1c0.4-1.6,0.8-3.1,1.2-4.7
			c0.4-1.5,0.7-3,1.6-4.2c0.9-1.3,1.8-2.5,3.3-3.1c0.6-0.2,1-0.7,1.1-1.4c0.1-0.5,0.2-1,0.2-1.5c0-2.2,0-4.5-0.1-6.7
			C1372.6,381.2,1372.4,379.6,1372.3,378 M1164.3,385.1 M1197.3,379.8 M1356.1,397.3c0.1,3,0.3,6.1,0.2,9.1 M1350.4,384.2
			 M1312.3,379.3c3.4-0.2,6.8-0.3,9.1-0.4 M1288.1,384.5 M1356.3,406.4 M1363.5,385.1"/>
			<path
				fill="#805E39"
				d="M1266.6,310.6c13.7,35.4,53,7.1,53,7.1c3.2,11.5,26.1,13.8,26.1,13.8c-3.3,20.7,13.4,28.6,13.4,28.6
			c-3.1,12.6,7.9,16.8,7.9,16.8c-0.9,15.2,7.9,14.7,7.9,14.7c8.8-4.7,5.4-14.1,5.4-14.1s21.5-34.2-4-48.6c0,0,5.1-42-16.8-42.4
			c0,0-6.3-47.1-39.9-38.7c0,0-33.2-40.3-53-1c-19.8-39.3-53,1-53,1c-33.6-8.4-39.9,38.7-39.9,38.7c-21.9,0.3-16.8,42.4-16.8,42.4
			c-25.6,14.3-4,48.6-4,48.6s-3.3,9.4,5.4,14.1c0,0,8.8,0.5,7.9-14.7c0,0,11-4.2,7.9-16.8c0,0,16.7-7.9,13.4-28.6
			c0,0,22.9-2.3,26.1-13.8C1213.6,317.7,1252.9,346,1266.6,310.6z"/>
		</g>
	</g>
	<g id="GRACIA" ng-click="">
		<g>
			<path
				fill="#FFFFFF"
				stroke="#FFFFFF"
				stroke-width="15"
				stroke-miterlimit="10"
				d="M1071.2,913c12.6,0,22.8-10.2,22.8-22.8V730
			c0-12.6-10.2-22.8-22.8-22.8h0c-5,0-9.1-4.1-9.1-9.1v-5c0-5,4.1-9.1,9.1-9.1l0,0c25.4,0,46.1,20.6,46.1,46.1v160.3
			c0,25.4-20.6,46-46,46h0c-5,0-9.1-4.1-9.1-9.1v-5C1062.1,917.1,1066.2,913,1071.2,913L1071.2,913z"/>
			<path
				fill="#FFFFFF"
				stroke="#FFFFFF"
				stroke-width="15"
				stroke-miterlimit="10"
				d="M72.5,909.6c-12.6,0-22.8-10.2-22.8-22.8
			V726.6c0-12.6,10.2-22.8,22.8-22.8h0c5,0,9.1-4.1,9.1-9.1v-5c0-5-4.1-9.1-9.1-9.1h0c-25.4,0-46.1,20.6-46.1,46.1v160.3
			c0,25.4,20.6,46,46,46h0c5,0,9.1-4.1,9.1-9.1v-5C81.6,913.7,77.5,909.6,72.5,909.6L72.5,909.6z"/>
			<g>
				<path
					fill="#FFFFFF"
					d="M295.5,826c-0.5,27.5-2.5,51-19.2,74.5c-18.5,25.8-46.3,37-77.8,37C139.3,937.5,98,897.2,98,838
				c0-61.2,41.5-101.5,102.2-101.5c38.8,0,68.8,17.5,85,52.8l-46.5,19.5c-6.8-18-21-30-40.8-30c-32.2,0-49,30.8-49,59.5
				c0,29.2,17.5,59,49.8,59c21.2,0,37.5-11,39.5-32.8h-40V826H295.5z"/>
				<path fill="#FFFFFF" d="M461,931.2h-61l-46.2-72.5h-0.5v72.5h-49V742.7h73.2c37.2,0,65.5,17.8,65.5,58c0,26-14.5,48.5-41.2,53.2
				L461,931.2z M353.3,827.2h4.8c16,0,34-3,34-23.5s-18-23.5-34-23.5h-4.8V827.2z"/>
				<path fill="#FFFFFF" d="M508.5,898.5l-13,32.8h-52L516,742.7h53.5l71,188.5h-52.2L576,898.5H508.5z M533.5,673.5l35.2,43
				l-20.2,14.8l-42.8-37.8L533.5,673.5z M542.8,801h-0.5L522,861h40.8L542.8,801z"/>
				<path
					fill="#FFFFFF"
					d="M776.8,806c-10-13.5-26.2-20.8-43-20.8c-30,0-50.2,23-50.2,52.2c0,29.8,20.5,51.2,51,51.2
				c16,0,32-7.8,42.2-20v58.8c-16.2,5-28,8.8-43.2,8.8c-26.2,0-51.2-10-70.8-27.8c-20.8-18.8-30.2-43.2-30.2-71.2
				c0-25.8,9.8-50.5,27.8-69c18.5-19,45.2-30.5,71.8-30.5c15.8,0,30.2,3.5,44.8,9.5V806z"/>
				<path fill="#FFFFFF" d="M842.3,931.2h-49V742.7h49V931.2z"/>
				<path fill="#FFFFFF" d="M908.5,898.5l-13,32.8h-52L916,742.7h53.5l71,188.5h-52.2L976,898.5H908.5z M942.8,801h-0.5L922,861h40.8
				L942.8,801z"/>
			</g>
		</g>
	</g>
	<g id="ONADES_1_CAPA_SUPERIOR">
		<g>
			<path
				fill="none"
				stroke="#AFDCE3"
				stroke-width="30"
				stroke-linecap="round"
				stroke-linejoin="round"
				stroke-miterlimit="10"
				d="
			M29.8,2062.3c46.5,0,46.5,6.4,93.1,6.4c46.5,0,46.5-6.4,93.1-6.4c46.5,0,46.5,6.4,93.1,6.4c46.5,0,46.5-6.4,93.1-6.4
			c46.5,0,46.5,6.4,93.1,6.4c46.5,0,46.5-6.4,93.1-6.4c46.5,0,46.5,6.4,93.1,6.4c46.5,0,46.5-6.4,93.1-6.4c46.5,0,46.5,6.4,93.1,6.4
			c46.5,0,46.5-6.4,93.1-6.4c46.5,0,46.5,6.4,93.1,6.4c46.5,0,46.5-6.4,93.1-6.4c46.5,0,46.5,6.4,93.1,6.4c46.5,0,46.5-6.4,93.1-6.4
			c46.5,0,46.5,6.4,93.1,6.4c46.5,0,46.5-6.4,93.1-6.4c46.5,0,46.5,6.4,93.1,6.4c46.5,0,46.5-6.4,93.1-6.4c46.5,0,46.5,6.4,93.1,6.4
			c46.5,0,46.5-6.4,93.1-6.4"/>
		</g>
		<g>
			<path
				fill="none"
				stroke="#A6CE88"
				stroke-width="30"
				stroke-linecap="round"
				stroke-linejoin="round"
				stroke-miterlimit="10"
				d="
			M25.1,927.6c46.5,0,46.5,6.4,93.1,6.4c46.5,0,46.5-6.4,93.1-6.4c46.5,0,46.5,6.4,93.1,6.4c46.5,0,46.5-6.4,93.1-6.4
			c46.5,0,46.5,6.4,93.1,6.4c46.5,0,46.5-6.4,93.1-6.4c46.5,0,46.5,6.4,93.1,6.4c46.5,0,46.5-6.4,93.1-6.4c46.5,0,46.5,6.4,93.1,6.4
			c46.5,0,46.5-6.4,93.1-6.4c46.5,0,46.5,6.4,93.1,6.4c46.5,0,46.5-6.4,93.1-6.4c46.5,0,46.5,6.4,93.1,6.4c46.5,0,46.5-6.4,93.1-6.4
			c46.5,0,46.5,6.4,93.1,6.4c46.5,0,46.5-6.4,93.1-6.4c46.5,0,46.5,6.4,93.1,6.4c46.5,0,46.5-6.4,93.1-6.4c46.5,0,46.5,6.4,93.1,6.4
			s46.5-6.4,93.1-6.4"/>
		</g>
	</g>
</svg>
