<?xml version="1.0" encoding="utf-8"?>
<!-- Generator: Adobe Illustrator 18.1.0, SVG Export Plug-In . SVG Version: 6.00 Build 0)  -->
<svg version="1.1" xmlns="http://www.w3.org/2000/svg" xmlns:xlink="http://www.w3.org/1999/xlink" x="0px" y="0px" viewBox="0 0 1920.2 1080.4" enable-background="new 0 0 1920.2 1080.4" xml:space="preserve">
	<g id="FONS">
		<polygon fill="#A6CE88" points="1920,0 0,0.4 0.1,545.3 0,634.3 0.2,1080.4 1920.2,1080 	"/>
	</g>
	<g id="SOL">
		<path fill="#FBCD00" d="M1871.4,163.7c0-50.1-40.6-90.7-90.7-90.7c-50.1,0-90.7,40.6-90.7,90.7c0,50.1,40.6,90.7,90.7,90.7
		C1830.8,254.5,1871.4,213.8,1871.4,163.7z"/>
	</g>
	<g id="ARBRES"></g>
	<g id="ONADES_1_CAPA_INFERIOR">
		<g>
			<path
				fill="none"
				stroke="#CEE3C3"
				stroke-width="30"
				stroke-linecap="round"
				stroke-linejoin="round"
				stroke-miterlimit="10"
				d="
			M29.3,867.9c46.2,0,46.2,6.4,92.4,6.4c46.2,0,46.2-6.4,92.4-6.4c46.2,0,46.2,6.4,92.4,6.4c46.2,0,46.2-6.4,92.4-6.4
			c46.2,0,46.2,6.4,92.4,6.4c46.2,0,46.2-6.4,92.4-6.4c46.2,0,46.2,6.4,92.4,6.4c46.2,0,46.2-6.4,92.4-6.4c46.2,0,46.2,6.4,92.4,6.4
			c46.2,0,46.2-6.4,92.4-6.4c46.2,0,46.2,6.4,92.4,6.4c46.2,0,46.2-6.4,92.4-6.4c46.2,0,46.2,6.4,92.4,6.4c46.2,0,46.2-6.4,92.4-6.4
			c46.2,0,46.2,6.4,92.4,6.4c46.2,0,46.2-6.4,92.4-6.4c46.2,0,46.2,6.4,92.4,6.4c46.2,0,46.2-6.4,92.4-6.4c46.2,0,46.2,6.4,92.4,6.4
			s46.2-6.4,92.4-6.4"/>
		</g>
		<g>
			<path
				fill="none"
				stroke="#CEE3C3"
				stroke-width="30"
				stroke-linecap="round"
				stroke-linejoin="round"
				stroke-miterlimit="10"
				d="
			M29.3,806.6c46.2,0,46.2,6.4,92.4,6.4c46.2,0,46.2-6.4,92.4-6.4c46.2,0,46.2,6.4,92.4,6.4c46.2,0,46.2-6.4,92.4-6.4
			c46.2,0,46.2,6.4,92.4,6.4c46.2,0,46.2-6.4,92.4-6.4c46.2,0,46.2,6.4,92.4,6.4c46.2,0,46.2-6.4,92.4-6.4c46.2,0,46.2,6.4,92.4,6.4
			c46.2,0,46.2-6.4,92.4-6.4c46.2,0,46.2,6.4,92.4,6.4c46.2,0,46.2-6.4,92.4-6.4c46.2,0,46.2,6.4,92.4,6.4c46.2,0,46.2-6.4,92.4-6.4
			c46.2,0,46.2,6.4,92.4,6.4c46.2,0,46.2-6.4,92.4-6.4c46.2,0,46.2,6.4,92.4,6.4c46.2,0,46.2-6.4,92.4-6.4c46.2,0,46.2,6.4,92.4,6.4
			s46.2-6.4,92.4-6.4"/>
		</g>
		<g>
			<path
				fill="none"
				stroke="#CEE3C3"
				stroke-width="30"
				stroke-linecap="round"
				stroke-linejoin="round"
				stroke-miterlimit="10"
				d="
			M29.3,750.6c46.2,0,46.2,6.4,92.4,6.4c46.2,0,46.2-6.4,92.4-6.4c46.2,0,46.2,6.4,92.4,6.4c46.2,0,46.2-6.4,92.4-6.4
			c46.2,0,46.2,6.4,92.4,6.4c46.2,0,46.2-6.4,92.4-6.4c46.2,0,46.2,6.4,92.4,6.4c46.2,0,46.2-6.4,92.4-6.4c46.2,0,46.2,6.4,92.4,6.4
			c46.2,0,46.2-6.4,92.4-6.4c46.2,0,46.2,6.4,92.4,6.4c46.2,0,46.2-6.4,92.4-6.4c46.2,0,46.2,6.4,92.4,6.4c46.2,0,46.2-6.4,92.4-6.4
			c46.2,0,46.2,6.4,92.4,6.4c46.2,0,46.2-6.4,92.4-6.4c46.2,0,46.2,6.4,92.4,6.4c46.2,0,46.2-6.4,92.4-6.4c46.2,0,46.2,6.4,92.4,6.4
			s46.2-6.4,92.4-6.4"/>
		</g>
		<g>
			<path
				fill="none"
				stroke="#CEE3C3"
				stroke-width="30"
				stroke-linecap="round"
				stroke-linejoin="round"
				stroke-miterlimit="10"
				d="
			M29.3,929.3c46.2,0,46.2,6.4,92.4,6.4c46.2,0,46.2-6.4,92.4-6.4c46.2,0,46.2,6.4,92.4,6.4c46.2,0,46.2-6.4,92.4-6.4
			c46.2,0,46.2,6.4,92.4,6.4c46.2,0,46.2-6.4,92.4-6.4c46.2,0,46.2,6.4,92.4,6.4c46.2,0,46.2-6.4,92.4-6.4c46.2,0,46.2,6.4,92.4,6.4
			c46.2,0,46.2-6.4,92.4-6.4c46.2,0,46.2,6.4,92.4,6.4c46.2,0,46.2-6.4,92.4-6.4c46.2,0,46.2,6.4,92.4,6.4c46.2,0,46.2-6.4,92.4-6.4
			c46.2,0,46.2,6.4,92.4,6.4c46.2,0,46.2-6.4,92.4-6.4c46.2,0,46.2,6.4,92.4,6.4c46.2,0,46.2-6.4,92.4-6.4c46.2,0,46.2,6.4,92.4,6.4
			s46.2-6.4,92.4-6.4"/>
		</g>
		<g>
			<path
				fill="none"
				stroke="#CEE3C3"
				stroke-width="30"
				stroke-linecap="round"
				stroke-linejoin="round"
				stroke-miterlimit="10"
				d="
			M29.3,990.6c46.2,0,46.2,6.4,92.4,6.4c46.2,0,46.2-6.4,92.4-6.4c46.2,0,46.2,6.4,92.4,6.4c46.2,0,46.2-6.4,92.4-6.4
			c46.2,0,46.2,6.4,92.4,6.4c46.2,0,46.2-6.4,92.4-6.4c46.2,0,46.2,6.4,92.4,6.4c46.2,0,46.2-6.4,92.4-6.4c46.2,0,46.2,6.4,92.4,6.4
			c46.2,0,46.2-6.4,92.4-6.4c46.2,0,46.2,6.4,92.4,6.4c46.2,0,46.2-6.4,92.4-6.4c46.2,0,46.2,6.4,92.4,6.4c46.2,0,46.2-6.4,92.4-6.4
			c46.2,0,46.2,6.4,92.4,6.4c46.2,0,46.2-6.4,92.4-6.4c46.2,0,46.2,6.4,92.4,6.4c46.2,0,46.2-6.4,92.4-6.4c46.2,0,46.2,6.4,92.4,6.4
			s46.2-6.4,92.4-6.4"/>
		</g>
	</g>
	<g id="CARRETERA">
		<path fill="#999999" d="M1691.1,580.1H0l0,90.2h1691c62.4,0,113.2,50.8,113.2,113.2v294.9c11.8,0,21.1,0,23.1,0
		c0.6,0,41.3-0.1,67.1,0.2V783.6C1894.5,671.4,1803.2,580.1,1691.1,580.1z"/>
		<path fill="#CDCCCC" d="M274.3,620.3h-90c-2.8,0-5,2.2-5,5c0,2.8,2.2,5,5,5h90c2.8,0,5-2.2,5-5
		C279.3,622.5,277.1,620.3,274.3,620.3z"/>
		<path fill="#CDCCCC" d="M454.3,620.3h-90c-2.8,0-5,2.2-5,5c0,2.8,2.2,5,5,5h90c2.8,0,5-2.2,5-5
		C459.3,622.5,457.1,620.3,454.3,620.3z"/>
		<path fill="#CDCCCC" d="M94.3,620.3h-90c-1.7,0-3.4,0.9-4.3,2.2c0,1.9,0,3.8,0,5.7c0.9,1.3,2.6,2.2,4.3,2.2h90c2.8,0,5-2.2,5-5
		C99.3,622.5,97.1,620.3,94.3,620.3z"/>
		<path fill="#CDCCCC" d="M634.3,620.3h-90c-2.8,0-5,2.2-5,5c0,2.8,2.2,5,5,5h90c2.8,0,5-2.2,5-5
		C639.3,622.5,637.1,620.3,634.3,620.3z"/>
		<path fill="#CDCCCC" d="M819.3,625.3c0-2.8-2.2-5-5-5h-90c-2.8,0-5,2.2-5,5c0,2.8,2.2,5,5,5h90C817.1,630.3,819.3,628,819.3,625.3z
		"/>
		<path fill="#CDCCCC" d="M1844.4,828v90c0,2.8,2.2,5,5,5c2.8,0,5-2.2,5-5v-90c0-2.8-2.2-5-5-5C1846.6,823,1844.4,825.3,1844.4,828z"/>
		<path fill="#CDCCCC" d="M1854.4,1078.5V1008c0-2.8-2.2-5-5-5c-2.8,0-5,2.2-5,5v70.5C1847.5,1078.5,1850.8,1078.5,1854.4,1078.5z"/>
		<path fill="#CDCCCC" d="M1838.1,740.1c0.6,2.2,2.6,3.6,4.8,3.6c0.5,0,0.9-0.1,1.4-0.2c2.6-0.8,4.2-3.6,3.4-6.2
		c-8.8-29.8-26-56.5-49.6-77c-2.1-1.8-5.2-1.6-7.1,0.5c-1.8,2.1-1.6,5.2,0.5,7.1C1813.8,687.1,1829.9,712.1,1838.1,740.1z"/>
		<path fill="#CDCCCC" d="M1264.3,630.3h90c2.8,0,5-2.2,5-5c0-2.8-2.2-5-5-5h-90c-2.8,0-5,2.2-5,5
		C1259.3,628,1261.5,630.3,1264.3,630.3z"/>
		<path fill="#CDCCCC" d="M1444.3,630.3h90c2.8,0,5-2.2,5-5c0-2.8-2.2-5-5-5h-90c-2.8,0-5,2.2-5,5
		C1439.3,628,1441.5,630.3,1444.3,630.3z"/>
		<path fill="#CDCCCC" d="M1624.3,630.3h66.8c7.5,0,15.1,0.5,22.4,1.6c0.2,0,0.5,0.1,0.7,0.1c2.4,0,4.6-1.8,4.9-4.3
		c0.4-2.7-1.5-5.3-4.2-5.7c-7.9-1.2-15.9-1.7-23.9-1.7h-66.8c-2.8,0-5,2.2-5,5C1619.3,628,1621.5,630.3,1624.3,630.3z"/>
		<g display="none">
			<path
				display="inline"
				fill="#999999"
				d="M-1.7,580.1h-506.7c-112.2,0-203.4,91.3-203.4,203.4v20.8c0,62.4-50.8,113.2-113.2,113.2
			h-853.5c-62.4,0-113.2-50.8-113.2-113.2v-1092c0-62.4,50.8-113.2,113.2-113.2h578.2c112.2,0,203.4-91.3,203.4-203.4v-765.1
			c0-62.4,50.8-113.2,113.2-113.2h783v-90.2h-783c-112.2,0-203.4,91.3-203.4,203.4v765.1c0,62.4-50.8,113.2-113.2,113.2h-578.2
			c-112.2,0-203.4,91.3-203.4,203.4v1092c0,112.2,91.3,203.4,203.4,203.4h853.5c112.2,0,203.4-91.3,203.4-203.4v-20.8
			c0-62.4,50.8-113.2,113.2-113.2H-1.2C-1.6,652.9-1.8,615.2-1.7,580.1z"/>
			<path display="inline" fill="#CDCCCC" d="M-942-808.1c-2.8,0-5,2.2-5,5v90c0,2.8,2.2,5,5,5c2.8,0,5-2.2,5-5v-90
			C-937-805.8-939.3-808.1-942-808.1z"/>
			<path display="inline" fill="#CDCCCC" d="M-942-988.1c-2.8,0-5,2.2-5,5v90c0,2.8,2.2,5,5,5c2.8,0,5-2.2,5-5v-90
			C-937-985.8-939.3-988.1-942-988.1z"/>
			<path display="inline" fill="#CDCCCC" d="M-785.7,952.6c-12.8,3.4-26,5.1-39.3,5.1H-874c-2.8,0-5,2.2-5,5c0,2.8,2.2,5,5,5h48.9
			c14.2,0,28.3-1.8,41.9-5.4c2.7-0.7,4.3-3.4,3.6-6.1C-780.3,953.5-783.1,951.9-785.7,952.6z"/>
			<path display="inline" fill="#CDCCCC" d="M-964,957.7h-90c-2.8,0-5,2.2-5,5c0,2.8,2.2,5,5,5h90c2.8,0,5-2.2,5-5
			C-959,959.9-961.2,957.7-964,957.7z"/>
			<path display="inline" fill="#CDCCCC" d="M-942-1168.1c-2.8,0-5,2.2-5,5v90c0,2.8,2.2,5,5,5c2.8,0,5-2.2,5-5v-90
			C-937-1165.8-939.3-1168.1-942-1168.1z"/>
			<path display="inline" fill="#CDCCCC" d="M-1683.8,957.6c-29.3-1-57.5-10.3-81.6-26.9c-2.3-1.6-5.4-1-7,1.3c-1.6,2.3-1,5.4,1.3,7
			c25.7,17.7,55.8,27.6,87,28.6c0.1,0,0.1,0,0.2,0c2.7,0,4.9-2.1,5-4.8C-1678.9,960-1681.1,957.7-1683.8,957.6z"/>
			<path display="inline" fill="#CDCCCC" d="M-942-1348.1c-2.8,0-5,2.2-5,5v90c0,2.8,2.2,5,5,5c2.8,0,5-2.2,5-5v-90
			C-937-1345.8-939.3-1348.1-942-1348.1z"/>
			<path display="inline" fill="#CDCCCC" d="M-942-628.1c-2.8,0-5,2.2-5,5v18.7c0,23.4-5.1,45.8-15.2,66.7c-1.2,2.5-0.2,5.5,2.3,6.7
			c0.7,0.3,1.4,0.5,2.2,0.5c1.9,0,3.6-1,4.5-2.8c10.8-22.2,16.2-46.1,16.2-71v-18.7C-937-625.8-939.3-628.1-942-628.1z"/>
			<path display="inline" fill="#CDCCCC" d="M-1504,957.7h-90c-2.8,0-5,2.2-5,5c0,2.8,2.2,5,5,5h90c2.8,0,5-2.2,5-5
			C-1499,959.9-1501.2,957.7-1504,957.7z"/>
			<path display="inline" fill="#CDCCCC" d="M-1013-472.2c-1.5-2.3-4.5-3.1-6.9-1.6c-24.1,14.9-52,22.8-80.5,22.8h-2.5
			c-2.8,0-5,2.2-5,5c0,2.8,2.2,5,5,5h2.5c30.4,0,60-8.4,85.8-24.3C-1012.2-466.8-1011.5-469.8-1013-472.2z"/>
			<path display="inline" fill="#CDCCCC" d="M-1547.8-446c0-2.8-2.2-5-5-5h-90c-2.8,0-5,2.2-5,5c0,2.8,2.2,5,5,5h90
			C-1550.1-441-1547.8-443.2-1547.8-446z"/>
			<path display="inline" fill="#CDCCCC" d="M-1367.8-446c0-2.8-2.2-5-5-5h-90c-2.8,0-5,2.2-5,5c0,2.8,2.2,5,5,5h90
			C-1370.1-441-1367.8-443.2-1367.8-446z"/>
			<path display="inline" fill="#CDCCCC" d="M-1324,957.7h-90c-2.8,0-5,2.2-5,5c0,2.8,2.2,5,5,5h90c2.8,0,5-2.2,5-5
			C-1319,959.9-1321.2,957.7-1324,957.7z"/>
			<path display="inline" fill="#CDCCCC" d="M-1144,957.7h-90c-2.8,0-5,2.2-5,5c0,2.8,2.2,5,5,5h90c2.8,0,5-2.2,5-5
			C-1139,959.9-1141.2,957.7-1144,957.7z"/>
			<path
				display="inline"
				fill="#CDCCCC"
				d="M-869.1-1502.9c-1.6-2.3-4.7-2.9-7-1.3c-25.8,17.7-45.8,42.2-58,70.9
			c-1.1,2.5,0.1,5.5,2.6,6.6c0.6,0.3,1.3,0.4,2,0.4c1.9,0,3.8-1.1,4.6-3c11.4-26.9,30.3-49.9,54.5-66.5
			C-868.1-1497.5-867.5-1500.6-869.1-1502.9z"/>
			<path display="inline" fill="#CDCCCC" d="M-668.3,827c-2.7-0.5-5.3,1.3-5.8,4.1c-5.1,28.8-18.2,55.4-38.1,77
			c-1.9,2-1.7,5.2,0.3,7.1c1,0.9,2.2,1.3,3.4,1.3c1.4,0,2.7-0.5,3.7-1.6c21.2-23,35.2-51.4,40.6-82.1
			C-663.7,830.1-665.5,827.5-668.3,827z"/>
			<path display="inline" fill="#CDCCCC" d="M4.3-1527.8c0-2.8-2.2-5-5-5h-68.2c-2.8,0-5,2.2-5,5c0,2.8,2.2,5,5,5h68.2
			C2.1-1522.8,4.3-1525,4.3-1527.8z"/>
			<path display="inline" fill="#CDCCCC" d="M-513.8-1527.8c0-2.8-2.2-5-5-5h-90c-2.8,0-5,2.2-5,5c0,2.8,2.2,5,5,5h90
			C-516.1-1522.8-513.8-1525-513.8-1527.8z"/>
			<path display="inline" fill="#CDCCCC" d="M-445.7,620.3h-62.7c-9.4,0-18.8,0.8-28,2.4c-2.7,0.5-4.5,3.1-4.1,5.8
			c0.4,2.4,2.5,4.1,4.9,4.1c0.3,0,0.6,0,0.9-0.1c8.6-1.5,17.5-2.2,26.3-2.2h62.7c2.8,0,5-2.2,5-5
			C-440.7,622.5-442.9,620.3-445.7,620.3z"/>
			<path display="inline" fill="#CDCCCC" d="M-618.6,663c-23.1,21.1-39.6,48.2-47.6,78.2c-0.7,2.7,0.9,5.4,3.5,6.1
			c0.4,0.1,0.9,0.2,1.3,0.2c2.2,0,4.2-1.5,4.8-3.7c7.5-28.2,23-53.6,44.7-73.4c2-1.9,2.2-5,0.3-7.1
			C-613.4,661.3-616.6,661.2-618.6,663z"/>
			<path display="inline" fill="#CDCCCC" d="M-85.7,620.3h-90c-2.8,0-5,2.2-5,5c0,2.8,2.2,5,5,5h90c2.8,0,5-2.2,5-5
			C-80.7,622.5-82.9,620.3-85.7,620.3z"/>
			<path display="inline" fill="#CDCCCC" d="M-153.8-1527.8c0-2.8-2.2-5-5-5h-90c-2.8,0-5,2.2-5,5c0,2.8,2.2,5,5,5h90
			C-156.1-1522.8-153.8-1525-153.8-1527.8z"/>
			<path display="inline" fill="#CDCCCC" d="M-333.8-1527.8c0-2.8-2.2-5-5-5h-90c-2.8,0-5,2.2-5,5c0,2.8,2.2,5,5,5h90
			C-336.1-1522.8-333.8-1525-333.8-1527.8z"/>
			<path display="inline" fill="#CDCCCC" d="M-265.7,620.3h-90c-2.8,0-5,2.2-5,5c0,2.8,2.2,5,5,5h90c2.8,0,5-2.2,5-5
			C-260.7,622.5-262.9,620.3-265.7,620.3z"/>
			<path display="inline" fill="#CDCCCC" d="M-1187.8-446c0-2.8-2.2-5-5-5h-90c-2.8,0-5,2.2-5,5c0,2.8,2.2,5,5,5h90
			C-1190.1-441-1187.8-443.2-1187.8-446z"/>
			<path display="inline" fill="#CDCCCC" d="M-788.8-1522.7c0.1,0,0.1,0,0.2,0c1.6-0.1,3.3-0.1,5-0.1h84.8c2.8,0,5-2.2,5-5
			c0-2.8-2.2-5-5-5h-84.8c-1.8,0-3.6,0-5.3,0.1c-2.8,0.1-4.9,2.4-4.8,5.2C-793.8-1524.8-791.5-1522.7-788.8-1522.7z"/>
			<path display="inline" fill="#CDCCCC" d="M-1836.9,332.8c2.8,0,5-2.2,5-5v-90c0-2.8-2.2-5-5-5c-2.8,0-5,2.2-5,5v90
			C-1841.9,330.5-1839.7,332.8-1836.9,332.8z"/>
			<path display="inline" fill="#CDCCCC" d="M-1836.9,152.8c2.8,0,5-2.2,5-5v-90c0-2.8-2.2-5-5-5c-2.8,0-5,2.2-5,5v90
			C-1841.9,150.5-1839.7,152.8-1836.9,152.8z"/>
			<path display="inline" fill="#CDCCCC" d="M-1836.9-27.2c2.8,0,5-2.2,5-5v-90c0-2.8-2.2-5-5-5c-2.8,0-5,2.2-5,5v90
			C-1841.9-29.5-1839.7-27.2-1836.9-27.2z"/>
			<path display="inline" fill="#CDCCCC" d="M-1831.9,804.4v-26.6c0-2.8-2.2-5-5-5c-2.8,0-5,2.2-5,5v26.6c0,22.1,4.3,43.5,12.9,63.7
			c0.8,1.9,2.7,3.1,4.6,3.1c0.7,0,1.3-0.1,1.9-0.4c2.5-1.1,3.7-4,2.7-6.6C-1827.8,845.2-1831.9,825.1-1831.9,804.4z"/>
			<path display="inline" fill="#CDCCCC" d="M-1836.9,512.8c2.8,0,5-2.2,5-5v-90c0-2.8-2.2-5-5-5c-2.8,0-5,2.2-5,5v90
			C-1841.9,510.5-1839.7,512.8-1836.9,512.8z"/>
			<path display="inline" fill="#CDCCCC" d="M-1836.9,692.8c2.8,0,5-2.2,5-5v-90c0-2.8-2.2-5-5-5c-2.8,0-5,2.2-5,5v90
			C-1841.9,690.5-1839.7,692.8-1836.9,692.8z"/>
			<path display="inline" fill="#CDCCCC" d="M-1836.9-207.2c2.8,0,5-2.2,5-5v-75.4c0-4.7,0.2-9.4,0.6-14.1c0.2-2.8-1.8-5.2-4.5-5.4
			c-2.7-0.2-5.2,1.8-5.4,4.5c-0.5,5-0.7,10-0.7,15v75.4C-1841.9-209.5-1839.7-207.2-1836.9-207.2z"/>
			<path display="inline" fill="#CDCCCC" d="M-1727-438.5c-0.9-2.6-3.8-4-6.4-3c-29.3,10.4-55,29-74.2,53.7c-1.7,2.2-1.3,5.3,0.9,7
			c0.9,0.7,2,1.1,3.1,1.1c1.5,0,3-0.7,4-1.9c18-23.2,42.1-40.6,69.6-50.4C-1727.5-433.1-1726.1-435.9-1727-438.5z"/>
		</g>
		<path fill="#CDCCCC" d="M904.3,630.3h90c2.8,0,5-2.2,5-5c0-2.8-2.2-5-5-5h-90c-2.8,0-5,2.2-5,5C899.3,628,901.5,630.3,904.3,630.3z
		"/>
		<path fill="#CDCCCC" d="M1084.3,630.3h90c2.8,0,5-2.2,5-5c0-2.8-2.2-5-5-5h-90c-2.8,0-5,2.2-5,5
		C1079.3,628,1081.5,630.3,1084.3,630.3z"/>
	</g>
	<g id="MONTANYA">
		<g>
			<path fill="#CEE3C3" d="M-1.3,991.8c-1.2-23.1,2.5-611.5,2.5-635.1l0,0C103.5,200.4,274.1,43.4,430.3,43.4
			c312.4,0,565.7,386.7,565.7,863.8c0,23.6-2.3,70.3-3.6,93.4L-1.3,991.8z"/>
		</g>
	</g>
	<g id="EDIFICI_1">
		<g>
			<path fill-rule="evenodd" clip-rule="evenodd" fill="#CEE3C3" d="M1066.5,577.4H855.6c-23.1,0-41.8-18.7-41.8-41.8v-89.2
			c0-23.1,18.7-41.8,41.8-41.8h210.8c23.1,0,41.8,18.7,41.8,41.8v89.2C1108.3,558.7,1089.5,577.4,1066.5,577.4z"/>
			<path fill-rule="evenodd" clip-rule="evenodd" fill="#CEE3C3" d="M724.3,463.7h109.8c4.1,0,7.6-6.3,8.5-15.3v0
			c1.3-12.5-2.9-24.5-8.5-24.5H724.3c-5.6,0-9.8,12-8.5,24.5v0C716.7,457.3,720.2,463.7,724.3,463.7z"/>
			<path fill-rule="evenodd" clip-rule="evenodd" fill="#70B866" d="M808.8,437.2h-59.2c-17.8,0-32.2-14.4-32.2-32.2v-25
			c0-17.8,14.4-32.2,32.2-32.2h59.2c17.8,0,32.2,14.4,32.2,32.2v25C841,422.8,826.6,437.2,808.8,437.2z"/>
			<path fill-rule="evenodd" clip-rule="evenodd" fill="#70B866" d="M810.5,577.4h-62.4c-16.9,0-30.6-13.7-30.6-30.6v-62.4
			c0-16.9,13.7-30.6,30.6-30.6h62.4c16.9,0,30.6,13.7,30.6,30.6v62.4C841.1,563.7,827.4,577.4,810.5,577.4z"/>
			<path fill-rule="evenodd" clip-rule="evenodd" fill="#70B866" d="M1093.2,404.7H846c-8.3,0-15-6.7-15-15V381c0-8.3,6.7-15,15-15
			h247.2c8.3,0,15,6.7,15,15v8.6C1108.3,397.9,1101.5,404.7,1093.2,404.7z"/>
			<path fill-rule="evenodd" clip-rule="evenodd" fill="#CEE3C3" d="M1064.3,382.6H860c-10.4,0-18.8-8.4-18.8-18.8v-23.2
			c0-10.4,8.4-18.8,18.8-18.8h204.4c10.4,0,18.8,8.4,18.8,18.8v23.2C1083.2,374.2,1074.7,382.6,1064.3,382.6z"/>
			<path fill-rule="evenodd" clip-rule="evenodd" fill="#70B866" d="M863.6,321.8h198.6c7.7,0,11.6-9.3,6.1-14.8l-94.2-94.2
			c-3.3-3.3-8.5-3.4-11.9-0.3l-104.5,94.2C852,312,855.7,321.8,863.6,321.8z"/>
			<rect x="906.5" y="321.8" fill-rule="evenodd" clip-rule="evenodd" fill="#70B866" width="17.2" height="60.9"/>
			<rect x="999.2" y="321.8" fill-rule="evenodd" clip-rule="evenodd" fill="#70B866" width="17.2" height="60.9"/>
			<path fill-rule="evenodd" clip-rule="evenodd" fill="#CEE3C3" d="M1091.9,465.9h109.8c4.1,0,7.6-6.3,8.5-15.3v0
			c1.3-12.5-2.9-24.5-8.5-24.5h-109.8c-5.6,0-9.8,12-8.5,24.5v0C1084.3,459.5,1087.8,465.9,1091.9,465.9z"/>
			<path fill-rule="evenodd" clip-rule="evenodd" fill="#70B866" d="M1176.4,439.4h-59.2c-17.8,0-32.2-14.4-32.2-32.2v-25
			c0-17.8,14.4-32.2,32.2-32.2h59.2c17.8,0,32.2,14.4,32.2,32.2v25C1208.6,424.9,1194.2,439.4,1176.4,439.4z"/>
			<path fill-rule="evenodd" clip-rule="evenodd" fill="#70B866" d="M1178.2,579.6h-62.4c-16.9,0-30.6-13.7-30.6-30.6v-62.4
			c0-16.9,13.7-30.6,30.6-30.6h62.4c16.9,0,30.6,13.7,30.6,30.6V549C1208.8,565.9,1195.1,579.6,1178.2,579.6z"/>
			<path fill="#A6CE88" d="M1006.5,577.4V532c0-19-19.5-34.4-43.5-34.4S919.4,513,919.4,532v45.5H1006.5z"/>
		</g>
	</g>
	<g id="EDIFICI_3"></g>
	<g id="EDIFICI_2">
		<g>
			<path fill="#CEE3C3" d="M1510,581.3h-180.3c0,0-0.1,0-0.1-0.1V422.5c0,0,0-0.1,0.1-0.1H1510c0,0,0.1,0,0.1,0.1L1510,581.3
			C1510.1,581.3,1510,581.3,1510,581.3z"/>
			<path fill="#70B866" d="M1489.7,241.3c-39.3,0-105.3-0.2-141.5,0c0,0-0.1,0-0.1-0.1c0-40.6,31.7-73.5,70.8-73.5
			C1458.1,167.8,1489.8,200.6,1489.7,241.3C1489.8,241.3,1489.8,241.3,1489.7,241.3z"/>
			<path fill="#CEE3C3" d="M1489.7,362.4h-141.5c0,0-0.1,0-0.1-0.1v-121c0,0,0-0.1,0.1-0.1h141.5c0,0,0.1,0,0.1,0.1L1489.7,362.4
			C1489.8,362.3,1489.8,362.4,1489.7,362.4z"/>
			<path fill="#CEE3C3" d="M1372.6,362.4h-24.4c0,0-0.1,0-0.1,0.1v60c0,0,0,0.1,0.1,0.1h141.5c0,0,0.1,0,0.1-0.1v-60
			c0,0,0-0.1-0.1-0.1h-27.1"/>
			<g>
				<g>
					<g>
						<path
							fill="#70B866"
							d="M1302,422.5h-43.7c-15.3,0-27.6,12.4-27.6,27.6v103.6c0,7.6,3.1,14.5,8.1,19.5c0,0,0.1,0,0.1,0V548
						c0-13.9,6.8-25.2,15.2-25.2c8.4,0,15.2,11.3,15.2,25.2v33.2c0,0,0,0.1-0.1,0.1h17.8c0,0-0.1,0-0.1-0.1V548
						c0-13.9,6.8-25.2,15.2-25.2c8.4,0,15.2,11.3,15.2,25.2v28.6c0,0,0.1,0.1,0.1,0c7.4-5,12.3-13.4,12.3-23V450.1
						C1329.6,434.8,1317.3,422.5,1302,422.5z"/>
					</g>
				</g>
			</g>
			<g>
				<g>
					<g>
						<path
							fill="#70B866"
							d="M1594.6,422.7h-73.4c-6.2,0-11.2,5-11.2,11.2v136.4c0,5.8,4.4,10.5,10,11.1v-32.6
						c0-13.9,6.8-25.2,15.2-25.2s15.2,11.3,15.2,25.2v32.7h14.6v-32.7c0-13.9,6.8-25.2,15.2-25.2c8.4,0,15.2,11.3,15.2,25.2v32.7
						c5.8-0.4,10.4-5.2,10.4-11.2V433.8C1605.7,427.7,1600.7,422.7,1594.6,422.7z"/>
					</g>
				</g>
			</g>
			<path fill="#A6CE88" d="M1373.3,581.6c0,0-5.5-88.5,46.5-88.5s44.4,88.5,44.4,88.5H1373.3z"/>
		</g>
	</g>
	<g id="NUVOLS">
		<path fill="#AFDCE3" d="M82.4,186.9c-0.2-2-0.2-3-0.2-4.7c0-28.6,23.2-51.5,51.7-51.5c1.3,0,2.4,0.4,3.6,0.4
		c7.6-19.1,26.1-32.7,48-32.7c17.1,0,32.1,8.4,41.5,21.3c3.3-0.7,6.7-1,10.1-1c25,0,45.8,17.4,50.6,40.9c16,4.1,28.6,14.3,33.7,27.3
		H82.4z"/>
		<path fill="#AFDCE3" d="M1202.4,282.9c0.9-18,15.7-32.3,33.9-32.3c4.2,0,8.3,0.9,12,2.4c3.2-20.5,20.9-36.3,42.3-36.3
		c23.7,0,43,19.3,43,43c0,0.5-0.2,1.1-0.2,1.6c0.5,0,1.1-0.3,1.6-0.3c12.4,0,22.5,9.9,23.1,21.9H1202.4z"/>
	</g>
	<g id="HORTA" ng-click="">
		<path
			fill="#FFFFFF"
			stroke="#FFFFFF"
			stroke-width="15"
			stroke-miterlimit="10"
			d="M81.7,968.2C69.2,968.2,59,958,59,945.4V601.9
		c0-12.6,10.2-22.8,22.8-22.8h0c5,0,9.1-4.1,9.1-9.1v-5c0-5-4.1-9.1-9.1-9.1h0c-25.4,0-46.1,20.6-46.1,46.1v343.5
		c0,25.4,20.6,46,46,46h0c5,0,9.1-4.1,9.1-9.1v-5C90.8,972.2,86.8,968.2,81.7,968.2L81.7,968.2z"/>
		<path
			fill="#FFFFFF"
			stroke="#FFFFFF"
			stroke-width="15"
			stroke-miterlimit="10"
			d="M1555.6,968.2c12.6,0,22.8-10.2,22.8-22.8
		V601.9c0-12.6-10.2-22.8-22.8-22.8h0c-5,0-9.1-4.1-9.1-9.1v-5c0-5,4.1-9.1,9.1-9.1h0c25.4,0,46.1,20.6,46.1,46.1v343.5
		c0,25.4-20.6,46-46,46h0c-5,0-9.1-4.1-9.1-9.1v-5C1546.4,972.2,1550.5,968.2,1555.6,968.2L1555.6,968.2z"/>
		<g>
			<g>
				<path fill="#FFFFFF" d="M263,591.8v-72.8h49v188.5h-49v-77.2h-70.8v77.2h-49V519.1h49v72.8H263z"/>
				<path fill="#FFFFFF" d="M525.2,609.8c0,61-43.7,104-104.2,104s-104.2-43-104.2-104c0-57,50-97,104.2-97S525.2,552.8,525.2,609.8z
				 M367.7,610.1c0,32.5,24,56.2,53.2,56.2s53.2-23.8,53.2-56.2c0-26-24-49.8-53.2-49.8S367.7,584.1,367.7,610.1z"/>
				<path fill="#FFFFFF" d="M687,707.6h-61l-46.2-72.5h-0.5v72.5h-49V519.1h73.2c37.2,0,65.5,17.8,65.5,58c0,26-14.5,48.5-41.2,53.2
				L687,707.6z M579.2,603.6h4.8c16,0,34-3,34-23.5s-18-23.5-34-23.5h-4.8V603.6z"/>
				<path fill="#FFFFFF" d="M757.5,707.6h-49v-147H668v-41.5h130v41.5h-40.5V707.6z"/>
				<path fill="#FFFFFF" d="M831,674.8l-13,32.8h-52l72.5-188.5H892l71,188.5h-52.2l-12.2-32.8H831z M865.2,577.3h-0.5l-20.2,60h40.8
				L865.2,577.3z"/>
				<path fill="#FFFFFF" d="M1029.2,608.6v37.5h-71.5v-37.5H1029.2z"/>
				<path
					fill="#FFFFFF"
					d="M331.2,822.3c-0.5,27.5-2.5,51-19.2,74.5c-18.5,25.8-46.2,37-77.8,37c-59.2,0-100.5-40.2-100.5-99.5
				c0-61.2,41.5-101.5,102.2-101.5c38.8,0,68.8,17.5,85,52.8l-46.5,19.5c-6.8-18-21-30-40.8-30c-32.2,0-49,30.8-49,59.5
				c0,29.2,17.5,59,49.8,59c21.2,0,37.5-11,39.5-32.8h-40v-38.5H331.2z"/>
				<path fill="#FFFFFF" d="M499.5,739.1v106c0,24.2-1,48.2-19.8,66.5c-15.8,15.5-40.5,21-62.5,21s-46.8-5.5-62.5-21
				C336,893.3,335,869.3,335,845.1v-106h49v99.2c0,24.5,1.8,51.2,33.2,51.2s33.2-26.8,33.2-51.2v-99.2H499.5z"/>
				<path fill="#FFFFFF" d="M561.7,927.6h-49V739.1h49V927.6z"/>
				<path fill="#FFFFFF" d="M576,739.1h49l89.8,115.2h0.5V739.1h49v188.5h-49l-89.8-115.5H625v115.5h-49V739.1z"/>
				<path fill="#FFFFFF" d="M841.5,894.8l-13,32.8h-52L849,739.1h53.5l71,188.5h-52.2L909,894.8H841.5z M875.7,797.3h-0.5l-20.2,60
				h40.8L875.7,797.3z"/>
				<path fill="#FFFFFF" d="M1138.7,927.6h-61l-46.2-72.5h-0.5v72.5h-49V739.1h73.2c37.2,0,65.5,17.8,65.5,58
				c0,26-14.5,48.5-41.2,53.2L1138.7,927.6z M1031,823.6h4.8c16,0,34-3,34-23.5s-18-23.5-34-23.5h-4.8V823.6z"/>
				<path fill="#FFFFFF" d="M1140.2,739.1h69.5c52.5,0,95.8,41.2,95.8,94.2s-43.5,94.2-95.8,94.2h-69.5V739.1z M1189.2,886.1h11
				c29.2,0,54.2-16,54.2-52.8c0-33.8-22.2-52.8-53.8-52.8h-11.5V886.1z"/>
				<path
					fill="#FFFFFF"
					d="M1527.5,829.8c0,61-43.8,104-104.2,104s-104.2-43-104.2-104c0-57,50-97,104.2-97
				S1527.5,772.8,1527.5,829.8z M1370,830.1c0,32.5,24,56.2,53.2,56.2s53.2-23.8,53.2-56.2c0-26-24-49.8-53.2-49.8
				S1370,804.1,1370,830.1z M1417.2,727.6l-20.2-14.8l35.2-43l27.8,20L1417.2,727.6z"/>
			</g>
		</g>
	</g>
	<g id="AVATAR">
		<g>
			<path fill="#F9C997" d="M1790.1,964l-13.9-205h-168.9l-11.7,205l68.6,11.2l10.4-166.2c0.4-6.9,6.4-12.5,13.3-12.5h9.6
			c6.9,0,12.8,5.6,13.3,12.5l10.6,166.2L1790.1,964z"/>
			<path fill="#2E2F2F" d="M1789.5,911.9l-13.1-148.8h-84.5h-87.3l-8.5,150h73.4l4.8-99.1c0.4-7,6.9-12.5,13.9-12.5h8.2
			c7,0,13.1,5.7,13.5,12.7l5.8,98.8L1789.5,911.9z"/>
			<path fill="#300F13" d="M1554.2,380.3c0,0,12-157.6,137.1-150.5c0,0,153.3-22.2,135.2,240.9l-9.7,210.7c0,0-31.5,86.8-136.5,53.2
			c0,0-111.7-30.7-137-63S1553.4,387.4,1554.2,380.3z"/>
			<path fill="#FCD894" d="M1738.4,570.9c-14-2.4-31-4.8-48.4-4.8c-17.5,0-34.5,2-48.6,4.5l45.6,13c0.7,0.9,1.7,1.4,2.9,1.4l0,0
			c1.1,0,2.2-0.5,2.9-1.4L1738.4,570.9z"/>
			<path fill="#FCD894" d="M1724.5,550.1l2.6,18.7c0,0-15.9,19.4-37.1,19.4c-21.2,0-37.1-19.4-37.1-19.4l2.6-18.8H1724.5z"/>
			<path fill="#F9C997" d="M1605.7,766.8"/>
			<ellipse fill="#C99666" cx="1806.1" cy="444.1" rx="21.9" ry="28.1"/>
			<ellipse fill="#F9C997" cx="1570.1" cy="444.1" rx="21.9" ry="28.1"/>
			<path fill="#F9C997" d="M1667.3,562.2c-52.8,0-95.7-43.4-95.7-96.8V363.1c0-53.5,42.8-96.8,95.7-96.8h23.5v295.9H1667.3z"/>
			<path fill="#C99666" d="M1709,562.2c52.8,0,95.7-43.4,95.7-96.8V363.1c0-53.5-42.8-96.8-95.7-96.8h-20.8v295.9H1709z"/>
			<path fill="#251A11" d="M1688.2,406.2"/>
			<circle fill="#F9C997" cx="1690.5" cy="462" r="14.7"/>
			<path
				id="gafas_3_4_"
				fill="#2E2F2F"
				d="M1804.5,413.8c-0.8-1.1-2.2-0.8-2.9-3.4c-0.7-2.6-7.1-20-14.1-23.9
			c-7.1-4-20.6-10.7-53.5-13.1c-25.4-0.6-40.8-1.2-45.2-1.4v0c0,0-0.2,0-0.6,0c-0.4,0-0.7,0-0.7,0v0c-4.4,0.2-19.8,0.7-45.2,1.4
			c-32.9,2.3-46.4,9.1-53.5,13.1c-7.1,4-13.5,21.4-14.1,23.9c-0.7,2.6-2.1,2.3-2.9,3.4c-0.8,1.1,0.1,7.2,2.6,11.2
			c2.7,22.3,11.9,35,17.6,41.8c5.7,6.8,21.5,10,32.4,9.6c24.2-4.2,28.3-11.7,38.8-22.2c10.5-10.5,18.8-39.2,20-42.5
			c0.9-2.5,3.6-3.3,4.9-3.6c1.3,0.3,4,1.1,4.9,3.6c1.2,3.3,9.5,32,20,42.5c10.5,10.5,14.6,18,38.8,22.2c10.9,0.5,26.7-2.8,32.4-9.6
			c5.7-6.8,14.8-19.5,17.6-41.8C1804.4,421.1,1805.3,414.9,1804.5,413.8z M1675.4,418c-1.8,8.4-8.2,25.4-15.5,33.6
			c-7.3,8.2-12.1,15.5-30.5,19.6c-10.6,1.4-26.3,0.2-33.6-8.6c-7.3-8.9-14.6-22.9-14.6-36.3c0-13.4,0.9-18.3,0.9-18.3
			s4.3-15.2,15.7-20.1c11.4-4.9,29.7-8.2,49.5-6.8c19.9,1.4,26.5,4.7,28.1,9.1C1677,394.7,1677.2,409.6,1675.4,418z M1780.6,462.6
			c-7.3,8.9-23,10-33.6,8.6c-18.4-4.1-23.2-11.4-30.5-19.6c-7.3-8.2-13.7-25.2-15.5-33.6c-1.8-8.4-1.6-23.4,0-27.8
			c1.6-4.4,8.2-7.7,28.1-9.1c19.9-1.4,38.1,1.9,49.5,6.8c11.4,4.9,15.7,20.1,15.7,20.1s0.9,4.9,0.9,18.3
			C1795.2,439.7,1787.9,453.8,1780.6,462.6z"/>
			<polygon fill="#70B866" points="1664.2,987.9 1589.1,987.9 1589.1,975.4 1595.6,963.9 1664.2,975.1 		"/>
			<polygon fill="#70B866" points="1721.4,987.9 1796.5,987.9 1796.5,975.4 1790.1,963.9 1721.4,975.1 		"/>
			<path fill="#F9C997" d="M1603.4,765.9l-2.2-2.8l-37.7,29.9l2.2,2.9c8.3,10.7,23.5,12.4,33.7,4
			C1609.7,791.4,1611.4,776.3,1603.4,765.9z"/>
			<g>
				<g>
					<path fill="#253E1F" d="M1755.2,574c-15.9-3.5-40.4-7.8-66-7.8c-25.6,0-50.2,4.3-66.1,7.9c-10.1,2.2-18.1,13-18.1,23.3v168.2
					h168.3V597.2C1773.3,586.9,1765.3,576.2,1755.2,574z"/>
					<g>
						<g>
							<path
								fill="#70B866"
								d="M1771.7,582.2c-9.5-9.5-24.8-9.5-34.2,0c-9.3,9.5-9.3,24.7,0,34.1l4.9,4.9
							c12.1,12.1,24.1,24.4,35.9,36.7c11.8,12.3,23.5,24.7,34.4,37.1c2.7,3.1,5.4,6.2,7.8,9.2l0.4,0.4l-2.6,4
							c-9,13.1-19.6,26.6-30.1,39.8l-12.6,15.5l37.3,30.6l12.9-15.9c10.9-13.8,21.7-27.4,32.3-42.7l2-2.9l2.5-3.9
							c2.2-3.6,4.5-7.3,6.2-11.2c1-1.9,1.6-3.8,2.3-5.8c0.5-1.9,0.8-3.9,1-5.8l0.3-2.9l0.1-1.5c0-0.5-0.2-1-0.3-1.5
							c-0.5-2-0.8-3.8-1.4-5.7l-1-2.8c-0.3-0.9-0.6-1.9-1.2-2.8c-1.1-1.8-2-3.6-3.2-5.4l-3.8-5.2c-0.6-0.9-1.3-1.7-1.9-2.5l-1.7-2.1
							c-3-3.7-6-7.1-8.9-10.6c-11.9-13.5-23.8-26.1-35.9-38.7c-12.1-12.6-24.2-24.9-36.5-37.2L1771.7,582.2z"/>
							<path
								fill="#70B866"
								d="M1643.2,616.2c9.4-9.3,9.5-24.5,0.1-34.1c-9.3-9.5-24.7-9.6-34.2-0.1l-5,5
							c-12.2,12.2-24.3,24.4-36.4,36.9c-12.1,12.5-24,25-35.9,38.3c-3,3.3-5.9,6.7-8.9,10.3l-2.9,3.5c-1.3,1.6-2.5,3.4-3.8,5.1
							l-1.9,2.6l-1.6,2.7c-1.1,1.8-2.2,3.5-2.7,5.4l-1,2.8l-0.7,2.8c-0.4,1.9-1.2,3.9-0.8,5.9c0.3,3.9,0.7,7.8,2.3,11.7
							c1.5,3.8,3.5,7.6,5.6,11.3c0.5,0.9,1,1.9,1.6,2.7l1.3,2.1l1.9,3c10.2,15.5,20.6,29.3,31.1,43.2l12.6,16.2l38-29.8l-12.2-15.8
							c-10.2-13.3-20.4-27-29-40.1l-1.9-3l1.2-1.5c2.5-3,5.1-6.1,7.9-9.1c11-12.3,22.7-24.6,34.4-36.7
							c11.8-12.2,23.8-24.3,35.8-36.3L1643.2,616.2z"/>
							<path fill="#70B866" d="M1663.1,567.5c-25.6,0-27.1,2.7-42.2,7.1c-9.9,2.9-15.9,12.8-15.9,23.1v169.1l58.9,79V567.9"/>
							<path fill="#70B866" d="M1718.4,567.9c25.6,0,25.3,1.7,40.8,6.6c9.8,3.1,18.1,13,18.1,23.3l-0.8,169.5l-52.6,78.6
							L1718.4,567.9"/>
						</g>
					</g>
				</g>
			</g>
			<path fill="#F9C997" d="M1607.2,773.3c-3.5,2.7-7.7,3-9.5,0.6c-1.8-2.4-0.5-6.5,3-9.2c3.5-2.7,7.7-3,9.5-0.6
			C1612,766.4,1610.7,770.6,1607.2,773.3z"/>
			<path fill="#F9C997" d="M1810.7,797l2.3-2.9l-37-30.7l-2.3,2.8c-8.3,10.2-6.9,25.3,3.2,34C1787,808.9,1802.2,807.5,1810.7,797z"/>
			<path fill="#F9C997" d="M1770.1,773c3.5,2.7,7.7,3,9.5,0.6c1.8-2.4,0.5-6.5-3-9.2c-3.5-2.7-7.7-3-9.5-0.6
			C1765.3,766.2,1766.6,770.3,1770.1,773z"/>
			<path fill="#300F13" d="M1619.3,270.8c0,0,78.1,115.7,104.3,129.3c26.2,13.7,101.6,3.7,101.6,3.7s-8.7-100.8-31.5-110.1
			c-22.9-9.3-77.5-52.1-100.3-43.1"/>
		</g>
	</g>
	<g id="ONADES_1_CAPA_SUPERIOR"></g>
</svg>
