<?xml version="1.0" encoding="utf-8"?>
<!-- Generator: Adobe Illustrator 18.1.0, SVG Export Plug-In . SVG Version: 6.00 Build 0)  -->
<svg version="1.1" xmlns="http://www.w3.org/2000/svg" xmlns:xlink="http://www.w3.org/1999/xlink" x="0px" y="0px" viewBox="0 0 1920 1080" enable-background="new 0 0 1920 1080" xml:space="preserve">
	<g id="FONS">
		<rect x="0" y="0" fill="#D0E9F0" width="1920" height="1080"/>
	</g>
	<g id="SOL">
		<path fill="#FBCD00" d="M1542.8,180.8c0-50.1-40.6-90.7-90.7-90.7c-50.1,0-90.7,40.6-90.7,90.7c0,50.1,40.6,90.7,90.7,90.7
		C1502.2,271.5,1542.8,230.9,1542.8,180.8z"/>
	</g>
	<g id="EDIFICI_2"></g>
	<g id="ARBRES" display="none"></g>
	<g id="ONADES_1_CAPA_INFERIOR">
		<g>
			<path
				fill="none"
				stroke="#AFDCE3"
				stroke-width="30"
				stroke-linecap="round"
				stroke-linejoin="round"
				stroke-miterlimit="10"
				d="
			M29.7,805.3c29.5,0,29.5,6.4,59.1,6.4c29.5,0,29.5-6.4,59.1-6.4c29.5,0,29.5,6.4,59.1,6.4c29.5,0,29.5-6.4,59.1-6.4
			c29.5,0,29.5,6.4,59.1,6.4c29.5,0,29.5-6.4,59.1-6.4c29.5,0,29.5,6.4,59.1,6.4c29.5,0,29.5-6.4,59.1-6.4c29.5,0,29.5,6.4,59.1,6.4
			c29.5,0,29.5-6.4,59.1-6.4c29.5,0,29.5,6.4,59.1,6.4c29.5,0,29.5-6.4,59.1-6.4c29.5,0,29.5,6.4,59.1,6.4c29.5,0,29.5-6.4,59.1-6.4
			c29.5,0,29.5,6.4,59.1,6.4c29.5,0,29.5-6.4,59.1-6.4c29.5,0,29.5,6.4,59.1,6.4c29.5,0,29.5-6.4,59.1-6.4c29.5,0,29.5,6.4,59.1,6.4
			c29.5,0,29.5-6.4,59.1-6.4"/>
		</g>
		<g>
			<path
				fill="none"
				stroke="#AFDCE3"
				stroke-width="30"
				stroke-linecap="round"
				stroke-linejoin="round"
				stroke-miterlimit="10"
				d="
			M29.7,920.3c46.5,0,46.5,6.4,93.1,6.4c46.5,0,46.5-6.4,93.1-6.4c46.5,0,46.5,6.4,93.1,6.4c46.5,0,46.5-6.4,93.1-6.4
			c46.5,0,46.5,6.4,93.1,6.4c46.5,0,46.5-6.4,93.1-6.4c46.5,0,46.5,6.4,93.1,6.4c46.5,0,46.5-6.4,93.1-6.4c46.5,0,46.5,6.4,93.1,6.4
			c46.5,0,46.5-6.4,93.1-6.4c46.5,0,46.5,6.4,93.1,6.4c46.5,0,46.5-6.4,93.1-6.4c46.5,0,46.5,6.4,93.1,6.4c46.5,0,46.5-6.4,93.1-6.4
			c46.5,0,46.5,6.4,93.1,6.4c46.5,0,46.5-6.4,93.1-6.4c46.5,0,46.5,6.4,93.1,6.4c46.5,0,46.5-6.4,93.1-6.4c46.5,0,46.5,6.4,93.1,6.4
			s46.5-6.4,93.1-6.4"/>
		</g>
		<g>
			<path
				fill="none"
				stroke="#AFDCE3"
				stroke-width="30"
				stroke-linecap="round"
				stroke-linejoin="round"
				stroke-miterlimit="10"
				d="
			M29.7,862.6c46.5,0,46.5,6.4,93.1,6.4c46.5,0,46.5-6.4,93.1-6.4c46.5,0,46.5,6.4,93.1,6.4c46.5,0,46.5-6.4,93.1-6.4
			c46.5,0,46.5,6.4,93.1,6.4c46.5,0,46.5-6.4,93.1-6.4c46.5,0,46.5,6.4,93.1,6.4c46.5,0,46.5-6.4,93.1-6.4c46.5,0,46.5,6.4,93.1,6.4
			c46.5,0,46.5-6.4,93.1-6.4c46.5,0,46.5,6.4,93.1,6.4c46.5,0,46.5-6.4,93.1-6.4c46.5,0,46.5,6.4,93.1,6.4c46.5,0,46.5-6.4,93.1-6.4
			c46.5,0,46.5,6.4,93.1,6.4c46.5,0,46.5-6.4,93.1-6.4c46.5,0,46.5,6.4,93.1,6.4c46.5,0,46.5-6.4,93.1-6.4c46.5,0,46.5,6.4,93.1,6.4
			s46.5-6.4,93.1-6.4"/>
		</g>
	</g>
	<g id="CARRETERA">
		<path fill="#999999" d="M1919.3,800.6H918.1c-62.4,0-113.2-50.8-113.2-113.2V62.7c0-22.9,7.3-44.9,19-62.7h-42.5h-56.9
		c-6.3,19.6-9.9,41.1-9.9,62.7v624.7c0,112.2,91.3,203.4,203.4,203.4h1001.2C1918.9,868.9,1918.9,818.4,1919.3,800.6z"/>
		<path fill="#CDCCCC" d="M759.7,365.1c-2.8,0-5,2.2-5,5v90c0,2.8,2.2,5,5,5c2.8,0,5-2.2,5-5v-90
		C764.7,367.4,762.5,365.1,759.7,365.1z"/>
		<path fill="#CDCCCC" d="M764.7,190.1c0-2.8-2.2-5-5-5c-2.8,0-5,2.2-5,5v90c0,2.8,2.2,5,5,5c2.8,0,5-2.2,5-5V190.1z"/>
		<path fill="#CDCCCC" d="M1522,840.7h-90c-2.8,0-5,2.2-5,5c0,2.8,2.2,5,5,5h90c2.8,0,5-2.2,5-5C1527,843,1524.8,840.7,1522,840.7z"/>
		<path fill="#CDCCCC" d="M1702,840.7h-90c-2.8,0-5,2.2-5,5c0,2.8,2.2,5,5,5h90c2.8,0,5-2.2,5-5C1707,843,1704.8,840.7,1702,840.7z"/>
		<path fill="#CDCCCC" d="M1342,840.7h-90c-2.8,0-5,2.2-5,5c0,2.8,2.2,5,5,5h90c2.8,0,5-2.2,5-5C1347,843,1344.8,840.7,1342,840.7z"/>
		<path fill="#CDCCCC" d="M1882,840.7h-90c-2.8,0-5,2.2-5,5c0,2.8,2.2,5,5,5h90c2.8,0,5-2.2,5-5C1887,843,1884.8,840.7,1882,840.7z"/>
		<path fill="#CDCCCC" d="M770.2,728.3c-0.7-2.7-3.5-4.2-6.2-3.5s-4.2,3.5-3.5,6.1c8.3,30,24.9,56.9,48.2,77.9c1,0.9,2.2,1.3,3.3,1.3
		c1.4,0,2.7-0.6,3.7-1.7c1.8-2.1,1.7-5.2-0.4-7.1C793.7,781.7,778,756.4,770.2,728.3z"/>
		<path fill="#CDCCCC" d="M764.7,640.1v-90c0-2.8-2.2-5-5-5c-2.8,0-5,2.2-5,5v90c0,2.8,2.2,5,5,5
		C762.5,645.1,764.7,642.9,764.7,640.1z"/>
		<path fill="#CDCCCC" d="M1162,840.7h-90c-2.8,0-5,2.2-5,5c0,2.8,2.2,5,5,5h90c2.8,0,5-2.2,5-5C1167,843,1164.8,840.7,1162,840.7z"/>
		<g display="none">
			<path
				display="inline"
				fill="#999999"
				d="M1804-1376.4v726.7c0,62.4-50.8,113.2-113.2,113.2H1484c-112.2,0-203.4,91.3-203.4,203.4
			v79.2c0,62.4-50.8,113.2-113.2,113.2H918.1C828.1-140.7,751.6-82,724.8-1c23.7-0.2,52.7-0.1,56.5-0.1c0.4,0,21.7,0,43.2,0.1
			c20.4-29.8,54.7-49.5,93.5-49.5h249.3c112.2,0,203.4-91.3,203.4-203.4v-79.2c0-62.4,50.8-113.2,113.2-113.2h206.7
			c112.2,0,203.4-91.3,203.4-203.4v-726.7c0-112.2-91.3-203.4-203.4-203.4H-508.7c-112.2,0-203.4,91.3-203.4,203.4v20.8
			c0,62.4-50.8,113.2-113.2,113.2h-853.5c-62.4,0-113.2-50.8-113.2-113.2v-1092c0-62.4,50.8-113.2,113.2-113.2h578.2
			c112.2,0,203.4-91.3,203.4-203.4v-765.1c0-62.4,50.8-113.2,113.2-113.2H-1v-90.2h-783c-112.2,0-203.4,91.3-203.4,203.4v765.1
			c0,62.4-50.8,113.2-113.2,113.2h-578.2c-112.2,0-203.4,91.3-203.4,203.4v1092c0,112.2,91.3,203.4,203.4,203.4h853.5
			c112.2,0,203.4-91.3,203.4-203.4v-20.8c0-62.4,50.8-113.2,113.2-113.2h2199.5C1753.2-1489.6,1804-1438.8,1804-1376.4z"/>
			<path display="inline" fill="#CDCCCC" d="M-942.3-2968c-2.8,0-5,2.2-5,5v90c0,2.8,2.2,5,5,5c2.8,0,5-2.2,5-5v-90
			C-937.3-2965.8-939.5-2968-942.3-2968z"/>
			<path display="inline" fill="#CDCCCC" d="M-942.3-3148c-2.8,0-5,2.2-5,5v90c0,2.8,2.2,5,5,5c2.8,0,5-2.2,5-5v-90
			C-937.3-3145.8-939.5-3148-942.3-3148z"/>
			<path display="inline" fill="#CDCCCC" d="M-786-1207.4c-12.8,3.4-26,5.1-39.3,5.1h-48.9c-2.8,0-5,2.2-5,5c0,2.8,2.2,5,5,5h48.9
			c14.2,0,28.3-1.8,41.9-5.4c2.7-0.7,4.3-3.4,3.6-6.1C-780.6-1206.5-783.4-1208.1-786-1207.4z"/>
			<path display="inline" fill="#CDCCCC" d="M-964.3-1202.3h-90c-2.8,0-5,2.2-5,5c0,2.8,2.2,5,5,5h90c2.8,0,5-2.2,5-5
			C-959.3-1200-961.5-1202.3-964.3-1202.3z"/>
			<path display="inline" fill="#CDCCCC" d="M-942.3-3328c-2.8,0-5,2.2-5,5v90c0,2.8,2.2,5,5,5c2.8,0,5-2.2,5-5v-90
			C-937.3-3325.8-939.5-3328-942.3-3328z"/>
			<path display="inline" fill="#CDCCCC" d="M-1684.1-1202.4c-29.3-1-57.5-10.3-81.6-26.9c-2.3-1.6-5.4-1-7,1.3c-1.6,2.3-1,5.4,1.3,7
			c25.7,17.7,55.8,27.6,87,28.6c0.1,0,0.1,0,0.2,0c2.7,0,4.9-2.1,5-4.8C-1679.2-1200-1681.4-1202.3-1684.1-1202.4z"/>
			<path display="inline" fill="#CDCCCC" d="M-942.3-3508c-2.8,0-5,2.2-5,5v90c0,2.8,2.2,5,5,5c2.8,0,5-2.2,5-5v-90
			C-937.3-3505.8-939.5-3508-942.3-3508z"/>
			<path display="inline" fill="#CDCCCC" d="M-942.3-2788c-2.8,0-5,2.2-5,5v18.7c0,23.4-5.1,45.8-15.2,66.7c-1.2,2.5-0.2,5.5,2.3,6.7
			c0.7,0.3,1.4,0.5,2.2,0.5c1.9,0,3.6-1,4.5-2.8c10.8-22.2,16.2-46.1,16.2-71v-18.7C-937.3-2785.8-939.5-2788-942.3-2788z"/>
			<path display="inline" fill="#CDCCCC" d="M-1504.3-1202.3h-90c-2.8,0-5,2.2-5,5c0,2.8,2.2,5,5,5h90c2.8,0,5-2.2,5-5
			C-1499.3-1200-1501.5-1202.3-1504.3-1202.3z"/>
			<path display="inline" fill="#CDCCCC" d="M-1013.3-2632.2c-1.5-2.3-4.5-3.1-6.9-1.6c-24.1,14.9-52,22.8-80.5,22.8h-2.5
			c-2.8,0-5,2.2-5,5c0,2.8,2.2,5,5,5h2.5c30.4,0,60-8.4,85.8-24.3C-1012.5-2626.7-1011.8-2629.8-1013.3-2632.2z"/>
			<path display="inline" fill="#CDCCCC" d="M-1548.1-2606c0-2.8-2.2-5-5-5h-90c-2.8,0-5,2.2-5,5c0,2.8,2.2,5,5,5h90
			C-1550.3-2601-1548.1-2603.2-1548.1-2606z"/>
			<path display="inline" fill="#CDCCCC" d="M-1368.1-2606c0-2.8-2.2-5-5-5h-90c-2.8,0-5,2.2-5,5c0,2.8,2.2,5,5,5h90
			C-1370.3-2601-1368.1-2603.2-1368.1-2606z"/>
			<path display="inline" fill="#CDCCCC" d="M-1324.3-1202.3h-90c-2.8,0-5,2.2-5,5c0,2.8,2.2,5,5,5h90c2.8,0,5-2.2,5-5
			C-1319.3-1200-1321.5-1202.3-1324.3-1202.3z"/>
			<path display="inline" fill="#CDCCCC" d="M-1144.3-1202.3h-90c-2.8,0-5,2.2-5,5c0,2.8,2.2,5,5,5h90c2.8,0,5-2.2,5-5
			C-1139.3-1200-1141.5-1202.3-1144.3-1202.3z"/>
			<path
				display="inline"
				fill="#CDCCCC"
				d="M-869.4-3662.8c-1.6-2.3-4.7-2.9-7-1.3c-25.8,17.7-45.8,42.2-58,70.9
			c-1.1,2.5,0.1,5.5,2.6,6.6c0.6,0.3,1.3,0.4,2,0.4c1.9,0,3.8-1.1,4.6-3c11.4-26.9,30.3-49.9,54.5-66.5
			C-868.4-3657.5-867.8-3660.6-869.4-3662.8z"/>
			<path display="inline" fill="#CDCCCC" d="M274-1539.7h-90c-2.8,0-5,2.2-5,5c0,2.8,2.2,5,5,5h90c2.8,0,5-2.2,5-5
			C279-1537.5,276.8-1539.7,274-1539.7z"/>
			<path display="inline" fill="#CDCCCC" d="M454-1539.7h-90c-2.8,0-5,2.2-5,5c0,2.8,2.2,5,5,5h90c2.8,0,5-2.2,5-5
			C459-1537.5,456.8-1539.7,454-1539.7z"/>
			<path display="inline" fill="#CDCCCC" d="M94-1539.7H4c-2.8,0-5,2.2-5,5c0,2.8,2.2,5,5,5h90c2.8,0,5-2.2,5-5
			C99-1537.5,96.8-1539.7,94-1539.7z"/>
			<path display="inline" fill="#CDCCCC" d="M-668.6-1333c-2.7-0.5-5.3,1.3-5.8,4.1c-5.1,28.8-18.2,55.4-38.1,77
			c-1.9,2-1.7,5.2,0.3,7.1c1,0.9,2.2,1.3,3.4,1.3c1.4,0,2.7-0.5,3.7-1.6c21.2-23,35.2-51.4,40.6-82.1
			C-664-1329.9-665.8-1332.5-668.6-1333z"/>
			<path display="inline" fill="#CDCCCC" d="M634-1539.7h-90c-2.8,0-5,2.2-5,5c0,2.8,2.2,5,5,5h90c2.8,0,5-2.2,5-5
			C639-1537.5,636.8-1539.7,634-1539.7z"/>
			<path display="inline" fill="#CDCCCC" d="M4-3687.7c0-2.8-2.2-5-5-5h-68.2c-2.8,0-5,2.2-5,5c0,2.8,2.2,5,5,5H-1
			C1.8-3682.7,4-3685,4-3687.7z"/>
			<path display="inline" fill="#CDCCCC" d="M819-1534.7c0-2.8-2.2-5-5-5h-90c-2.8,0-5,2.2-5,5c0,2.8,2.2,5,5,5h90
			C816.8-1529.7,819-1531.9,819-1534.7z"/>
			<path display="inline" fill="#CDCCCC" d="M-514.1-3687.7c0-2.8-2.2-5-5-5h-90c-2.8,0-5,2.2-5,5c0,2.8,2.2,5,5,5h90
			C-516.4-3682.7-514.1-3685-514.1-3687.7z"/>
			<path display="inline" fill="#CDCCCC" d="M-446-1539.7h-62.7c-9.4,0-18.8,0.8-28,2.4c-2.7,0.5-4.5,3.1-4.1,5.8
			c0.4,2.4,2.5,4.1,4.9,4.1c0.3,0,0.6,0,0.9-0.1c8.6-1.5,17.5-2.2,26.3-2.2h62.7c2.8,0,5-2.2,5-5
			C-441-1537.5-443.2-1539.7-446-1539.7z"/>
			<path
				display="inline"
				fill="#CDCCCC"
				d="M-618.9-1496.9c-23.1,21.1-39.6,48.2-47.6,78.2c-0.7,2.7,0.9,5.4,3.5,6.1
			c0.4,0.1,0.9,0.2,1.3,0.2c2.2,0,4.2-1.5,4.8-3.7c7.5-28.2,23-53.6,44.7-73.4c2-1.9,2.2-5,0.3-7.1
			C-613.7-1498.7-616.9-1498.8-618.9-1496.9z"/>
			<path display="inline" fill="#CDCCCC" d="M-86-1539.7h-90c-2.8,0-5,2.2-5,5c0,2.8,2.2,5,5,5h90c2.8,0,5-2.2,5-5
			C-81-1537.5-83.2-1539.7-86-1539.7z"/>
			<path display="inline" fill="#CDCCCC" d="M-154.1-3687.7c0-2.8-2.2-5-5-5h-90c-2.8,0-5,2.2-5,5c0,2.8,2.2,5,5,5h90
			C-156.4-3682.7-154.1-3685-154.1-3687.7z"/>
			<path display="inline" fill="#CDCCCC" d="M-334.1-3687.7c0-2.8-2.2-5-5-5h-90c-2.8,0-5,2.2-5,5c0,2.8,2.2,5,5,5h90
			C-336.4-3682.7-334.1-3685-334.1-3687.7z"/>
			<path display="inline" fill="#CDCCCC" d="M-266-1539.7h-90c-2.8,0-5,2.2-5,5c0,2.8,2.2,5,5,5h90c2.8,0,5-2.2,5-5
			C-261-1537.5-263.2-1539.7-266-1539.7z"/>
			<path display="inline" fill="#CDCCCC" d="M-1188.1-2606c0-2.8-2.2-5-5-5h-90c-2.8,0-5,2.2-5,5c0,2.8,2.2,5,5,5h90
			C-1190.3-2601-1188.1-2603.2-1188.1-2606z"/>
			<path display="inline" fill="#CDCCCC" d="M1844.1-1331.9v90c0,2.8,2.2,5,5,5c2.8,0,5-2.2,5-5v-90c0-2.8-2.2-5-5-5
			C1846.3-1336.9,1844.1-1334.7,1844.1-1331.9z"/>
			<path display="inline" fill="#CDCCCC" d="M1854.1-701.9v-90c0-2.8-2.2-5-5-5c-2.8,0-5,2.2-5,5v90c0,2.8,2.2,5,5,5
			C1851.9-696.9,1854.1-699.2,1854.1-701.9z"/>
			<path display="inline" fill="#CDCCCC" d="M1854.1-971.9c0-2.8-2.2-5-5-5c-2.8,0-5,2.2-5,5v90c0,2.8,2.2,5,5,5c2.8,0,5-2.2,5-5
			V-971.9z"/>
			<path
				display="inline"
				fill="#CDCCCC"
				d="M1845.8-617.2c-2.7-0.6-5.4,1-6,3.7c-6.9,28.4-21.7,54.1-42.9,74.5
			c-2,1.9-2.1,5.1-0.2,7.1c1,1,2.3,1.5,3.6,1.5c1.2,0,2.5-0.5,3.5-1.4c22.6-21.7,38.4-49.1,45.7-79.3
			C1850.2-613.8,1848.5-616.5,1845.8-617.2z"/>
			<path display="inline" fill="#CDCCCC" d="M1854.1-1151.9c0-2.8-2.2-5-5-5c-2.8,0-5,2.2-5,5v90c0,2.8,2.2,5,5,5c2.8,0,5-2.2,5-5
			V-1151.9z"/>
			<path display="inline" fill="#CDCCCC" d="M-789.1-3682.6c0.1,0,0.1,0,0.2,0c1.6-0.1,3.3-0.1,5-0.1h84.8c2.8,0,5-2.2,5-5
			c0-2.8-2.2-5-5-5H-784c-1.8,0-3.6,0-5.3,0.1c-2.8,0.1-4.9,2.4-4.8,5.2C-794-3684.8-791.8-3682.6-789.1-3682.6z"/>
			<path display="inline" fill="#CDCCCC" d="M-1837.2-1827.2c2.8,0,5-2.2,5-5v-90c0-2.8-2.2-5-5-5c-2.8,0-5,2.2-5,5v90
			C-1842.2-1829.5-1840-1827.2-1837.2-1827.2z"/>
			<path display="inline" fill="#CDCCCC" d="M-1837.2-2007.2c2.8,0,5-2.2,5-5v-90c0-2.8-2.2-5-5-5c-2.8,0-5,2.2-5,5v90
			C-1842.2-2009.5-1840-2007.2-1837.2-2007.2z"/>
			<path display="inline" fill="#CDCCCC" d="M-1837.2-2187.2c2.8,0,5-2.2,5-5v-90c0-2.8-2.2-5-5-5c-2.8,0-5,2.2-5,5v90
			C-1842.2-2189.5-1840-2187.2-1837.2-2187.2z"/>
			<path display="inline" fill="#CDCCCC" d="M-1832.2-1355.6v-26.6c0-2.8-2.2-5-5-5c-2.8,0-5,2.2-5,5v26.6c0,22.1,4.3,43.5,12.9,63.7
			c0.8,1.9,2.7,3.1,4.6,3.1c0.7,0,1.3-0.1,1.9-0.4c2.5-1.1,3.7-4,2.7-6.6C-1828.1-1314.8-1832.2-1334.9-1832.2-1355.6z"/>
			<path display="inline" fill="#CDCCCC" d="M-1837.2-1647.2c2.8,0,5-2.2,5-5v-90c0-2.8-2.2-5-5-5c-2.8,0-5,2.2-5,5v90
			C-1842.2-1649.5-1840-1647.2-1837.2-1647.2z"/>
			<path
				display="inline"
				fill="#CDCCCC"
				d="M1837.8-1419.9c0.6,2.2,2.6,3.6,4.8,3.6c0.5,0,0.9-0.1,1.4-0.2c2.6-0.8,4.2-3.6,3.4-6.2
			c-8.8-29.8-26-56.5-49.6-77c-2.1-1.8-5.2-1.6-7.1,0.5c-1.8,2.1-1.6,5.2,0.5,7.1C1813.5-1472.9,1829.6-1447.9,1837.8-1419.9z"/>
			<path display="inline" fill="#CDCCCC" d="M-1837.2-1467.2c2.8,0,5-2.2,5-5v-90c0-2.8-2.2-5-5-5c-2.8,0-5,2.2-5,5v90
			C-1842.2-1469.5-1840-1467.2-1837.2-1467.2z"/>
			<path display="inline" fill="#CDCCCC" d="M-1837.2-2367.2c2.8,0,5-2.2,5-5v-75.4c0-4.7,0.2-9.4,0.6-14.1c0.2-2.8-1.8-5.2-4.5-5.4
			c-2.7-0.2-5.2,1.8-5.4,4.5c-0.5,5-0.7,10-0.7,15v75.4C-1842.2-2369.5-1840-2367.2-1837.2-2367.2z"/>
			<path display="inline" fill="#CDCCCC" d="M1264-1529.7h90c2.8,0,5-2.2,5-5c0-2.8-2.2-5-5-5h-90c-2.8,0-5,2.2-5,5
			C1259-1531.9,1261.2-1529.7,1264-1529.7z"/>
			<path display="inline" fill="#CDCCCC" d="M1444-1529.7h90c2.8,0,5-2.2,5-5c0-2.8-2.2-5-5-5h-90c-2.8,0-5,2.2-5,5
			C1439-1531.9,1441.2-1529.7,1444-1529.7z"/>
			<path display="inline" fill="#CDCCCC" d="M1624-1529.7h66.8c7.5,0,15.1,0.5,22.4,1.6c0.2,0,0.5,0.1,0.7,0.1c2.4,0,4.6-1.8,4.9-4.3
			c0.4-2.7-1.5-5.3-4.2-5.7c-7.9-1.2-15.9-1.7-23.9-1.7H1624c-2.8,0-5,2.2-5,5C1619-1531.9,1621.2-1529.7,1624-1529.7z"/>
			<path display="inline" fill="#CDCCCC" d="M1308.3-193.4c-1.1,2.5,0.1,5.5,2.6,6.6c0.6,0.3,1.3,0.4,2,0.4c1.9,0,3.8-1.1,4.6-3
			c8.8-20.4,13.2-42.1,13.2-64.5v-25.7c0-2.8-2.2-5-5-5c-2.8,0-5,2.2-5,5v25.7C1320.7-232.9,1316.5-212.5,1308.3-193.4z"/>
			<path display="inline" fill="#CDCCCC" d="M-1727.3-2598.5c-0.9-2.6-3.8-4-6.4-3c-29.3,10.4-55,29-74.2,53.7
			c-1.7,2.2-1.3,5.3,0.9,7c0.9,0.7,2,1.1,3.1,1.1c1.5,0,3-0.7,4-1.9c18-23.2,42.1-40.6,69.6-50.4
			C-1727.8-2593-1726.4-2595.9-1727.3-2598.5z"/>
			<path display="inline" fill="#CDCCCC" d="M904-1529.7h90c2.8,0,5-2.2,5-5c0-2.8-2.2-5-5-5h-90c-2.8,0-5,2.2-5,5
			C899-1531.9,901.2-1529.7,904-1529.7z"/>
			<path display="inline" fill="#CDCCCC" d="M1084-1529.7h90c2.8,0,5-2.2,5-5c0-2.8-2.2-5-5-5h-90c-2.8,0-5,2.2-5,5
			C1079-1531.9,1081.2-1529.7,1084-1529.7z"/>
			<path display="inline" fill="#CDCCCC" d="M1541.8-496.4H1484c-11.1,0-22.2,1.1-33,3.3c-2.7,0.6-4.4,3.2-3.9,5.9
			c0.5,2.4,2.6,4,4.9,4c0.3,0,0.7,0,1-0.1c10.1-2.1,20.6-3.1,31-3.1h57.8c2.8,0,5-2.2,5-5C1546.8-494.2,1544.5-496.4,1541.8-496.4z"/>
			<path display="inline" fill="#CDCCCC" d="M1370.1-450.1c-22.4,21.8-38,49.4-45.1,79.7c-0.6,2.7,1,5.4,3.7,6
			c0.4,0.1,0.8,0.1,1.1,0.1c2.3,0,4.3-1.6,4.9-3.9c6.7-28.4,21.3-54.3,42.4-74.8c2-1.9,2-5.1,0.1-7.1
			C1375.3-452,1372.1-452,1370.1-450.1z"/>
			<path display="inline" fill="#CDCCCC" d="M1720.6-499.3c-9.8,1.9-19.8,2.9-29.8,2.9h-59c-2.8,0-5,2.2-5,5c0,2.8,2.2,5,5,5h59
			c10.7,0,21.4-1,31.8-3.1c2.7-0.5,4.5-3.2,3.9-5.9C1725.9-498.1,1723.3-499.8,1720.6-499.3z"/>
			<path display="inline" fill="#CDCCCC" d="M906.9-95.3c-0.3-2.7-2.7-4.7-5.5-4.5c-31,3.1-60.4,15.1-84.8,34.5
			c-2.2,1.7-2.5,4.9-0.8,7c1,1.2,2.4,1.9,3.9,1.9c1.1,0,2.2-0.4,3.1-1.1c23-18.2,50.5-29.4,79.6-32.4
			C905.2-90.1,907.2-92.5,906.9-95.3z"/>
			<path
				display="inline"
				fill="#CDCCCC"
				d="M1260.5-125.7c-1.6-2.3-4.7-2.9-6.9-1.3c-24.2,16.5-52.5,25.6-81.8,26.4
			c-2.8,0.1-4.9,2.4-4.9,5.1c0.1,2.7,2.3,4.9,5,4.9c0,0,0.1,0,0.1,0c31.2-0.9,61.4-10.6,87.1-28.2
			C1261.4-120.4,1262-123.5,1260.5-125.7z"/>
			<path display="inline" fill="#CDCCCC" d="M1086.9-95.6c0-2.8-2.2-5-5-5h-90c-2.8,0-5,2.2-5,5c0,2.8,2.2,5,5,5h90
			C1084.6-90.6,1086.9-92.8,1086.9-95.6z"/>
		</g>
		<path fill="#CDCCCC" d="M982,840.7h-63.9c-8.4,0-16.9-0.7-25.1-2c-2.7-0.4-5.3,1.4-5.7,4.1c-0.4,2.7,1.4,5.3,4.1,5.7
		c8.8,1.4,17.8,2.2,26.7,2.2H982c2.8,0,5-2.2,5-5C987,843,984.8,840.7,982,840.7z"/>
		<path fill="#CDCCCC" d="M764.7,62.7c0-17.1,2.8-34,8.3-50c0.9-2.6-0.5-5.5-3.1-6.4c-2.6-0.9-5.5,0.5-6.4,3.1
		c-5.9,17.1-8.9,35-8.9,53.3v37.4c0,2.8,2.2,5,5,5c2.8,0,5-2.2,5-5V62.7z"/>
	</g>
	<g id="EDIFICI_1"></g>
	<g id="EDIFICI_3">
		<g>
			<path
				fill-rule="evenodd"
				clip-rule="evenodd"
				fill="#D0E8F0"
				d="M1264.7,436.7l0.8-2.6c1.8-5.8-2.6-11.6-8.6-11.6h-67.7
			c-6,0-10.3,5.8-8.6,11.6l0.8,2.6c0.3,0.8,0.4,1.7,0.4,2.6v6.3c0,5,4,9,9,9h64.5c5,0,9-4,9-9v-6.3
			C1264.3,438.4,1264.5,437.5,1264.7,436.7z"/>
			<g>
				<path fill-rule="evenodd" clip-rule="evenodd" fill="#6EC4C6" d="M1039.4,510c15.5-11.3,55.9-11.3,71.4,0l36.3,26.4l38.5,28
				c15,10.9-4.6,24.3-35.7,24.3h-74.8h-74.9c-31.1,0-50.7-13.4-35.7-24.3l38.5-28L1039.4,510z"/>
				<path fill-rule="evenodd" clip-rule="evenodd" fill="#6EC4C6" d="M1165.1,802H983.2c-21.3,0-38.5-17.3-38.5-38.5V602.4
				c0-21.3,17.3-38.5,38.5-38.5h181.9c21.3,0,38.5,17.3,38.5,38.5v161.1C1203.6,784.8,1186.4,802,1165.1,802z"/>
			</g>
			<path fill-rule="evenodd" clip-rule="evenodd" fill="#D0E8F0" d="M1162,802v-34.9c0-20.9-11-37.9-24.7-37.9h-5.9
			c-13.6,0-24.7,17-24.7,37.9V802H1162z"/>
			<g>
				<g>
					<g>
						<path fill-rule="evenodd" clip-rule="evenodd" fill="#6EC4C6" d="M1213.9,306.6c4-7.2,14.4-7.2,18.4,0l9.3,16.8l9.9,17.8
						c3.9,7-1.2,15.5-9.2,15.5h-19.3h-19.3c-8,0-13.1-8.5-9.2-15.5l9.9-17.8L1213.9,306.6z"/>
					</g>
					<g>
						<path
							fill-rule="evenodd"
							clip-rule="evenodd"
							fill="#6EC4C6"
							d="M1260.2,394.3L1260.2,394.3c1.9-16.2-3.4-32.1-10.8-32.1
						h-52.5c-7.4,0-12.8,15.9-10.8,32.1l0,0c0.3,2.2,0.4,4.4,0.4,6.6v9c0,14.1,5,25.5,11.2,25.5h50.9c6.2,0,11.2-11.4,11.2-25.5v-9
						C1259.8,398.7,1259.9,396.5,1260.2,394.3z"/>
					</g>
					<path fill-rule="evenodd" clip-rule="evenodd" fill="#6EC4C6" d="M1192.7,439.4h60.7c6,0,10.8,5,10.8,11.3v340.5
					c0,6.2-4.9,11.3-10.8,11.3h-60.7c-6,0-10.8-5-10.8-11.3V450.7C1181.9,444.5,1186.8,439.4,1192.7,439.4z"/>
				</g>
			</g>
			<path fill="#6EC4C6" d="M1824.3,802.1h-240.9c-16.4,0-29.7-13.3-29.7-29.7V545.9c0-16.4,13.3-29.7,29.7-29.7h240.9
			c16.4,0,29.7,13.3,29.7,29.7v226.6C1853.9,788.8,1840.7,802.1,1824.3,802.1z"/>
			<path fill-rule="evenodd" clip-rule="evenodd" fill="#D0E8F0" d="M1662,802.1v-46c0-27.6-15.9-50-35.6-50h-8.5
			c-19.7,0-35.6,22.4-35.6,50v46H1662z"/>
			<path fill-rule="evenodd" clip-rule="evenodd" fill="#D0E8F0" d="M1731.5,644.7v-34.9c0-20.9-11-37.9-24.7-37.9h-5.9
			c-13.6,0-24.7,17-24.7,37.9v34.9H1731.5z"/>
			<path fill-rule="evenodd" clip-rule="evenodd" fill="#6EC4C6" d="M1502.6,768.5V585.9c0-18.2-9.5-33-21.2-33h-178.1
			c-11.7,0-21.2,14.8-21.2,33v182.5c0,18.2,9.5,33,21.2,33h178.1C1493.1,801.5,1502.6,786.7,1502.6,768.5z"/>
			<path
				fill-rule="evenodd"
				clip-rule="evenodd"
				fill="#6EC4C6"
				d="M1508.9,590.2h44.1c5.5,0,10-3.5,10-7.7V570c0-2.8-2-5.4-5.2-6.8
			l-10.8-4.6l-11.2-4.8c-3-1.3-6.7-1.3-9.7,0l-11.2,4.8l-10.8,4.6c-3.2,1.4-5.2,4-5.2,6.8v12.4
			C1498.8,586.7,1503.3,590.2,1508.9,590.2z"/>
			<path fill-rule="evenodd" clip-rule="evenodd" fill="#D0E8F0" d="M1505.5,605h51c1.9,0,3.5-2.4,4-5.7l0,0c0.6-4.7-1.3-9.1-4-9.1
			h-51c-2.6,0-4.6,4.5-4,9.1l0,0C1501.9,602.6,1503.6,605,1505.5,605z"/>
			<path fill-rule="evenodd" clip-rule="evenodd" fill="#6EC4C6" d="M1559.7,775.4V631.1c0-14.4-2.5-26.1-5.5-26.1h-46.4
			c-3,0-5.5,11.7-5.5,26.1v144.3c0,14.4,2.5,26.1,5.5,26.1h46.4C1557.2,801.5,1559.7,789.8,1559.7,775.4z"/>
			<path fill-rule="evenodd" clip-rule="evenodd" fill="#D0E8F0" d="M1426.6,801.5v-37.1c0-22.3-13.7-40.4-30.6-40.4h-7.3
			c-16.9,0-30.6,18.1-30.6,40.4v37.1H1426.6z"/>
			<path
				fill-rule="evenodd"
				clip-rule="evenodd"
				fill="#6EC4C6"
				d="M1232.4,590.2h44.1c5.5,0,10-3.5,10-7.7V570c0-2.8-2-5.4-5.2-6.8
			l-10.8-4.6l-11.2-4.8c-3-1.3-6.7-1.3-9.7,0l-11.2,4.8l-10.8,4.6c-3.2,1.4-5.2,4-5.2,6.8v12.4
			C1222.3,586.7,1226.8,590.2,1232.4,590.2z"/>
			<path fill-rule="evenodd" clip-rule="evenodd" fill="#D0E8F0" d="M1228.9,605h51c1.9,0,3.5-2.4,4-5.7l0,0c0.6-4.7-1.3-9.1-4-9.1
			h-51c-2.6,0-4.6,4.5-4,9.1l0,0C1225.4,602.6,1227,605,1228.9,605z"/>
			<path fill-rule="evenodd" clip-rule="evenodd" fill="#6EC4C6" d="M1283.2,775.4V631.1c0-14.4-2.5-26.1-5.5-26.1h-46.4
			c-3,0-5.5,11.7-5.5,26.1v144.3c0,14.4,2.5,26.1,5.5,26.1h46.4C1280.7,801.5,1283.2,789.8,1283.2,775.4z"/>
			<path
				fill-rule="evenodd"
				clip-rule="evenodd"
				fill="#6EC4C6"
				d="M1333,553.2h118.8c14.9,0,27-5.3,27-11.8v-18.9
			c0-4.3-5.4-8.3-14-10.3l-29.2-7l-30.2-7.2c-8.1-1.9-17.9-1.9-26,0l-30.2,7.2l-29.2,7c-8.6,2.1-14,6-14,10.3v18.9
			C1305.9,547.9,1318,553.2,1333,553.2z"/>
			<path fill-rule="evenodd" clip-rule="evenodd" fill="#D0E8F0" d="M1297.4,633.1h190.8c7,0,13.2-7.2,14.8-17.4v0
			c2.3-14.2-5-27.8-14.8-27.8h-190.8c-9.8,0-17,13.6-14.8,27.8v0C1284.2,625.9,1290.3,633.1,1297.4,633.1z"/>
			<path fill-rule="evenodd" clip-rule="evenodd" fill="#D0E8F0" d="M1297.1,552.9h176.8c6.5,0,12.2-3.5,13.7-8.5l0,0
			c2.1-6.9-4.6-13.5-13.7-13.5h-176.8c-9.1,0-15.8,6.6-13.7,13.5l0,0C1284.9,549.4,1290.6,552.9,1297.1,552.9z"/>
			<path fill-rule="evenodd" clip-rule="evenodd" fill="#D0E8F0" d="M1275.3,801.5v-37.1c0-22.3-8.3-40.4-18.6-40.4h-4.4
			c-10.3,0-18.6,18.1-18.6,40.4v37.1H1275.3z"/>
			<path fill-rule="evenodd" clip-rule="evenodd" fill="#D0E8F0" d="M1551.8,801.5v-37.1c0-22.3-8.3-40.4-18.6-40.4h-4.4
			c-10.3,0-18.6,18.1-18.6,40.4v37.1H1551.8z"/>
			<polygon fill="#6EC4C6" points="1388.5,501.2 1380.5,501.2 1380.5,499.8 1381.2,498.6 1388.5,499.8 		"/>
			<polygon fill="#6EC4C6" points="1394.4,501 1402.4,501.4 1402.4,500.1 1401.8,498.8 1394.5,499.6 		"/>
			<path fill="#6EC4C6" d="M1361.4,451c0.3,0.1,13,3.3,13.4,3.4c1.4,0.4,2.9,0.7,4.4,1.1c1.5,0.3,3,0.6,4.5,0.9l0.6,0.1
			c1.2,0.2,2,1.5,1.8,3c-0.2,1.4-1.3,2.4-2.5,2.1l-0.6-0.1c-1.5-0.3-3-0.6-4.6-1c-1.5-0.3-15.4-3.8-17-4.2"/>
			<path fill="#6EC4C6" d="M1398.4,456.2c-1.7-0.4-4.3-0.8-7-0.8c-2.7,0-5.3,0.5-7,0.8c-1.1,0.2-1.9,1.4-1.9,2.5v18h17.8v-18
			C1400.3,457.6,1399.4,456.4,1398.4,456.2z"/>
			<path fill="#6EC4C6" d="M1396.6,455.8c-1.5-0.3-3.3-0.5-5.2-0.5c-1.9,0-3.7,0.2-5.2,0.5l4.9,1.4c0.1,0.1,0.2,0.2,0.3,0.2l0,0
			c0.1,0,0.2-0.1,0.3-0.2L1396.6,455.8z"/>
			<path fill="#6EC4C6" d="M1395.1,453.6l0.3,2c0,0-1.7,2.1-4,2.1c-2.3,0-4-2.1-4-2.1l0.3-2H1395.1z"/>
			<path fill="#6EC4C6" d="M1401.8,498.8l-1.5-22.1h-17.8l-1.2,21.9l7.3,1.2l1.1-17.8c0-0.7,0.7-1.3,1.4-1.3h1c0.7,0,1.4,0.6,1.4,1.3
			l1.1,17.8L1401.8,498.8z"/>
			<path fill="#6EC4C6" d="M1362,451.1l0.3,0l-0.6,5.1l-0.3,0c-1.2-0.2-2.1-1.5-1.9-2.9C1359.7,451.9,1360.9,451,1362,451.1z"/>
			<path fill="#6EC4C6" d="M1382.4,476.8"/>
			<path fill="#6EC4C6" d="M1361.4,451.2c-0.1,0.5,0.1,0.9,0.4,0.9s0.5-0.3,0.6-0.8c0.1-0.5-0.1-0.9-0.4-0.9
			C1361.7,450.3,1361.4,450.7,1361.4,451.2z"/>
			<g>
				<g>
					<ellipse fill="#6EC4C6" cx="1404" cy="442" rx="2.3" ry="3"/>
					<ellipse fill="#6EC4C6" cx="1378.8" cy="442" rx="2.3" ry="3"/>
					<path fill="#6EC4C6" d="M1389.1,454.6c-5.6,0-10.2-4.6-10.2-10.3v-10.9c0-5.7,4.6-10.3,10.2-10.3h2.5v31.6H1389.1z"/>
					<path fill="#6EC4C6" d="M1393.6,454.6c5.6,0,10.2-4.6,10.2-10.3v-10.9c0-5.7-4.6-10.3-10.2-10.3h-2.2v31.6H1393.6z"/>
				</g>
			</g>
			<path fill="#6EC4C6" d="M1422.3,451.3c-0.3,0.1-13,3.3-13.4,3.4c-1.4,0.4-2.9,0.7-4.4,1.1c-1.5,0.3-3,0.6-4.5,0.9l-0.6,0.1
			c-1.2,0.2-2,1.5-1.8,3c0.2,1.4,1.3,2.4,2.5,2.1l0.6-0.1c1.5-0.3,3-0.6,4.6-1c1.5-0.3,15.4-3.8,17-4.2"/>
			<path fill="#6EC4C6" d="M1421.7,451.5l-0.3,0l0.6,5.1l0.3,0c1.2-0.2,2.1-1.5,1.9-2.9C1424,452.3,1422.9,451.3,1421.7,451.5z"/>
			<path fill="#6EC4C6" d="M1422.4,451.5c0.1,0.5-0.1,0.9-0.4,0.9c-0.3,0-0.5-0.3-0.6-0.8c-0.1-0.5,0.1-0.9,0.4-0.9
			S1422.4,451.1,1422.4,451.5z"/>
			<path
				id="pelo_4_15_"
				fill="#6EC4C6"
				d="M1405.3,427c2-2,3.8-5.5,3-8.2c0-0.1-0.2-0.2-0.4-0.1c-1.8,1.2-3.8,2-6.1,2.4
			c-2.5,0.4-5,0.2-7.6,0.1c-4.4-0.3-9.1-0.2-12.6,2.3c-3,2.2-3.9,6.7-2.9,9.9c0,0,0,0.1,0.1,0.1c0.1,0.1,0.2,0.1,0.3,0.1
			c0.1,0,0.1,0,0.1-0.1c0,0,0,0,0,0c0,0,0,0,0,0c0,0,0,0,0,0c0,0,0,0,0,0c0.6-1.5,1.3-3.6,3-4.5c1.3-0.7,2.8-0.6,4.2-0.4
			c3.1,0.5,6,1.5,9.2,1.8c1.8,0.1,3.6-0.1,5.4-0.6c0.4-0.1,0.9-0.3,1.2-0.5c0.1,0.1,0.1,0.3,0.2,0.4c0.5,1,0.8,2.7,1.2,3.7
			c0.1,0.2,0.4,0.2,0.5,0c0.7-1.6,0.8-3.9,0.2-5.5C1404.6,427.7,1404.9,427.4,1405.3,427z"/>
			<path
				fill="#6EC4C6"
				d="M1807.2,459.6c-0.4-0.1-0.8-0.2-1.2-0.3c-2.3-0.5-4.7-0.9-7.1-1.1c-16.3-3.9-30-14.4-38.3-28.4
			c-1.1-2.8-2.5-5.5-4-8.1c-10.7-18-30.3-30.1-52.8-30.1c-21.2,0-39.8,10.7-50.8,27c-3,4.4-5.4,9.2-7.1,14.3
			c-8.3,12.3-21,21.5-35.9,25.2c-3.4,0.3-6.7,0.8-9.9,1.6c-1.7,0.4-3.4,0.9-5,1.5c-24,8.3-41.3,31.1-41.3,57.9
			c0,33.8,27.4,61.3,61.3,61.3c33.8,0,61.3-27.4,61.3-61.3c0-0.3,0-0.6,0-0.9h55.2c0,0.3,0,0.6,0,0.9c0,33.8,27.4,61.3,61.3,61.3
			s61.3-27.4,61.3-61.3C1853.9,490.3,1834,466.1,1807.2,459.6z"/>
		</g>
	</g>
	<g id="NUVOLS">
		<path
			fill="#AFDCE3"
			d="M332.9,309.2c0.1-2,0.1-3.1,0.1-4.7c-1.1-28.5-25.2-50.6-53.7-49.5c-1.3,0.1-2.4,0.5-3.6,0.6
		c-8.3-18.8-27.4-31.6-49.2-30.8c-17.1,0.7-31.8,9.7-40.6,22.9c-3.4-0.5-6.7-0.8-10.1-0.6c-25,1-45.1,19.2-48.9,42.9
		c-15.8,4.8-28,15.5-32.6,28.7L332.9,309.2z"/>
		<path fill="#AFDCE3" d="M1256.8,236.9c0.9-18,15.7-32.3,33.9-32.3c4.2,0,8.3,0.9,12,2.4c3.2-20.5,20.9-36.3,42.3-36.3
		c23.7,0,43,19.3,43,43c0,0.5-0.2,1.1-0.2,1.6c0.5,0,1.1-0.3,1.6-0.3c12.4,0,22.5,9.9,23.1,21.9H1256.8z"/>
		<path fill="#AFDCE3" d="M1636.9,147.9c-0.2-2-0.2-3-0.2-4.7c0-28.6,23.2-51.5,51.7-51.5c1.3,0,2.4,0.4,3.6,0.4
		c7.6-19.1,26.1-32.7,48-32.7c17.1,0,32.1,8.4,41.5,21.3c3.3-0.7,6.7-1,10.1-1c25,0,45.8,17.4,50.6,40.9c16,4.1,28.6,14.3,33.7,27.3
		H1636.9z"/>
		<path fill="#AFDCE3" d="M584.9,148.9c-0.2-2-0.2-3-0.2-4.7c0-28.6,23.2-51.5,51.7-51.5c1.3,0,2.4,0.4,3.6,0.4
		c7.6-19.1,26.1-32.7,48-32.7c17.1,0,32.1,8.4,41.5,21.3c3.3-0.7,6.7-1,10.1-1c25,0,45.8,17.4,50.6,40.9c16,4.1,28.6,14.3,33.7,27.3
		H584.9z"/>
	</g>
	<g id="AVATAR">
		<g>
			<path
				fill="#F8CD99"
				d="M421.4,415.6c-8.9-8.9-23.4-8.9-32.2,0c-8.8,8.9-8.8,23.3,0,32.1l4.6,4.6c11.4,11.4,22.7,22.9,33.8,34.5
			c11.1,11.6,22.2,23.3,32.4,34.9c2.5,2.9,5.1,5.8,7.3,8.6l0.3,0.4l-2.5,3.7c-8.5,12.3-18.4,25-28.4,37.5l-11.8,14.6l35.1,28.8
			l12.2-15c10.3-13,20.5-25.8,30.4-40.2l1.9-2.8l2.4-3.7c2.1-3.4,4.2-6.9,5.8-10.5c1-1.8,1.5-3.6,2.1-5.4c0.5-1.8,0.8-3.7,1-5.5
			l0.2-2.8l0.1-1.4c0-0.5-0.2-0.9-0.3-1.4c-0.5-1.9-0.8-3.6-1.3-5.4l-0.9-2.7c-0.3-0.9-0.6-1.8-1.1-2.6c-1-1.7-1.9-3.4-3-5.1
			l-3.6-4.9c-0.6-0.8-1.2-1.6-1.8-2.4l-1.6-2c-2.8-3.5-5.6-6.7-8.4-9.9c-11.2-12.7-22.5-24.6-33.8-36.5
			c-11.4-11.8-22.8-23.5-34.3-35.1L421.4,415.6z"/>
			<path
				fill="#F8CD99"
				d="M268.6,415.6c8.9-8.9,23.4-8.9,32.2,0c8.8,8.9,8.8,23.3,0,32.1l-4.6,4.6c-11.4,11.4-22.7,22.9-33.8,34.5
			c-11.1,11.6-22.2,23.3-32.4,34.9c-2.5,2.9-5.1,5.8-7.3,8.6l-0.3,0.4l2.5,3.7c8.5,12.3,18.4,25,28.4,37.5l11.8,14.6l-35.1,28.8
			l-12.2-15c-10.3-13-20.5-25.8-30.4-40.2l-1.9-2.8l-2.4-3.7c-2.1-3.4-4.2-6.9-5.8-10.5c-1-1.8-1.5-3.6-2.1-5.4
			c-0.5-1.8-0.8-3.7-1-5.5l-0.2-2.8l-0.1-1.4c0-0.5,0.2-0.9,0.3-1.4c0.5-1.9,0.8-3.6,1.3-5.4l0.9-2.7c0.3-0.9,0.6-1.8,1.1-2.6
			c1-1.7,1.9-3.4,3-5.1l3.6-4.9c0.6-0.8,1.2-1.6,1.8-2.4l1.6-2c2.8-3.5,5.6-6.7,8.4-9.9c11.2-12.7,22.5-24.6,33.8-36.5
			c11.4-11.8,22.8-23.5,34.3-35.1L268.6,415.6z"/>
			<path fill="#217B97" d="M460.8,455.7c-10.9-12.2-22.8-23.8-34.3-35.4l-4.7-4.7c-8.9-8.9-23.4-8.9-32.2,0c-8.8,8.9-8.8,23.3,0,32.1
			l4.6,4.6c11.4,11.4,22.7,22.9,33.8,34.5"/>
			<path fill="#217B97" d="M262.3,486.5c11.1-11.5,22.4-22.9,33.7-34.2l4.6-4.6c8.8-8.8,8.9-23.1,0.1-32.1c-8.8-9-23.2-9-32.2-0.1
			l-4.7,4.7c-11.5,11.5-22.9,23-34.3,34.7"/>
			<path fill="#217B97" d="M406.3,408.3c-15-3.3-38.1-7.4-62.1-7.4c-24.1,0-47.3,4.1-62.3,7.4c-9.5,2.1-17,12.2-17,21.9v158.4h158.5
			V430.2C423.3,420.5,415.8,410.4,406.3,408.3z"/>
			<polygon fill="#71BDBE" points="237.1,447 223.6,461.3 255.7,493.9 268.8,480.6 		"/>
			<polygon fill="#71BDBE" points="452.7,446.8 466.4,461.6 434.1,493.5 419.9,480.6 		"/>
			<path fill="#71BDBE" d="M286,406.9l31.8,26.9l15.1-33.5C332.9,400.2,288.7,404.9,286,406.9z"/>
			<path fill="#71BDBE" d="M402.9,407l-33.4,26.7l-14.6-32.8C354.8,400.9,400.1,405.1,402.9,407z"/>
			<path fill="#71BDBE" d="M385.6,456.6h-9.2c-0.5,0-1-0.4-1-1v-6.8c0-0.5,0.4-1,1-1h9.2c0.5,0,1,0.4,1,1v6.8
			C386.5,456.2,386.1,456.6,385.6,456.6z"/>
			<path fill="#F8CD99" d="M437.9,781.2l-13.1-192.5H266.3l-11,192.5l64.4,10.5l9.8-156c0.4-6.5,6-11.7,12.5-11.7h9
			c6.5,0,12.1,5.2,12.5,11.7l10,156L437.9,781.2z"/>
			<path fill="#217B97" d="M436,752.7l-11.2-164H266.3l-7.5,131.2l-1.9,32.8h65.3l7.3-117c0.4-6.5,6-11.7,12.5-11.7h9
			c6.5,0,12.1,5.2,12.5,11.7l7.5,117H436z"/>
			<polygon fill="#6CBEC9" points="258.3,728.9 257,752.7 322.2,752.7 323.7,728.9 		"/>
			<polygon fill="#6CBEC9" points="434.4,728.9 436,752.7 371,752.7 369.5,728.9 		"/>
			<path fill="#F8CD99" d="M379.1,386l2.4,17.6c0,0-14.9,18.3-34.9,18.3c-19.9,0-34.9-18.2-34.9-18.2l2.4-17.6H379.1z"/>
			<path fill="#ABCBCF" d="M267.5,589.5"/>
			<ellipse fill="#CB9969" cx="455.7" cy="286.5" rx="20.6" ry="26.4"/>
			<ellipse fill="#F8CD99" cx="234.2" cy="286.5" rx="20.6" ry="26.4"/>
			<path fill="#F8CD99" d="M325.4,397.4c-49.6,0-89.8-40.7-89.8-90.9v-96c0-50.2,40.2-90.9,89.8-90.9h22v277.8H325.4z"/>
			<path fill="#CB9969" d="M364.5,397.4c49.6,0,89.8-40.7,89.8-90.9v-96c0-50.2-40.2-90.9-89.8-90.9H345v277.8H364.5z"/>
			<path fill="#1B130C" d="M345,251"/>
			<circle fill="#F8CD99" cx="347.2" cy="303.3" r="13.8"/>
			<path
				id="pelo_4_3_"
				fill="#AA672B"
				d="M465.3,163.4c17.8-17.9,33.1-48.3,26-72.1c-0.3-1.1-2.1-1.8-3.2-1.1
			c-16.2,10.4-33.7,17.9-53.6,21.4c-21.8,3.8-44.3,2.1-66.4,0.8c-38.3-2.2-79.6-2-110.5,20.4c-26.3,19.1-33.9,59.2-25.6,87
			c0,0.4,0.2,0.8,0.5,1c0.5,0.6,1.5,0.8,2.3,0.6c0.5-0.1,0.9-0.3,1.2-0.7c0,0,0.1-0.1,0.1-0.1c0,0,0-0.1,0.1-0.1
			c0.1-0.1,0.1-0.2,0.1-0.3c0,0,0,0,0-0.1c4.9-12.9,11.8-31.9,25.9-39.1c11.1-5.8,25-5,37.3-3.1c27.5,4.2,53,13.4,81.1,15.4
			c15.9,1.1,32.1-0.4,47-5.2c3.9-1.2,7.5-2.7,10.9-4.4c0.6,1.2,1.2,2.4,1.7,3.4c4.2,8.8,6.7,23.8,10.8,32.6c0.8,1.7,3.4,1.8,4.2,0
			c6.1-13.9,6.6-34.6,1.7-48.4C459.8,168.8,462.6,166.1,465.3,163.4z"/>
			<polygon fill="#5EB1B3" points="320,796.1 249.5,796.1 249.5,784.3 255.6,773.5 320.4,784.1 		"/>
			<polygon fill="#5EB1B3" points="372.8,796 443.3,796 443.3,784.2 437.2,773.4 372.8,784 		"/>
			<circle fill="#5EB1B3" cx="256.6" cy="772.2" r="7.1"/>
			<circle fill="#5EB1B3" cx="436.9" cy="772.9" r="7.1"/>
			<path
				fill="#217B97"
				d="M235.6,261.1c0,0,15-0.4,18.7,14.6c0,0,7.1,36.3,37.7,34.9c27.1,1.2,35.8-27,37.4-33.6
			c3.4-13,13.5-13.9,15.6-14c2.1,0.1,12.1,1,15.6,14c1.6,6.6,10.3,34.8,37.4,33.6c30.7,1.4,37.7-34.9,37.7-34.9
			c3.7-14.9,18.6-14.1,18.6-14.1v-13.6l-1.5,0.1c-1.6,0-12.4-0.6-15.9-14.4l0.4,1.4l-0.5-1.4c0,0-42.2-29.6-82.9,7.6l-9.1-0.2
			l-9.1,0.2c-40.7-37.2-82.9-7.6-82.9-7.6c-3.4,13.8-15.8,14.4-17.4,14.4 M324.4,277.4c0,0-5.9,27-31.3,26
			c-22.1,0.9-29.4-19.3-31-24.7l0,0l0,0c-0.2-0.8-0.3-1.3-0.3-1.3l0.3,1.3l0,0c-2.3-8.4-0.3-21-0.3-21s5.9-27,31.3-26
			c23.7-1,30.4,22.3,31.2,25.6l0,0c0,0,2.2,7.7-0.2,21.4L324.4,277.4z M344.6,263.1c0,0,0.1,0,0.3,0H344.6z M345.2,263.1
			c0.2,0,0.3,0,0.3,0H345.2z M430.4,276.5c0,0-5.9,27-31.3,26c-22.1,0.9-29.4-19.3-31-24.7l0,0l0,0c-0.2-0.8-0.3-1.3-0.3-1.3
			l0.3,1.3l0,0c-2.3-8.4-0.3-21-0.3-21s5.9-27,31.3-26c23.7-1,30.4,22.3,31.2,25.6l0,0c0,0,2.2,7.7-0.2,21.4L430.4,276.5z"/>
			<path fill="#1E120D" d="M236.9,248.2"/>
			<path fill="#1E120D" d="M344.1,241.2"/>
			<polygon fill="#71BDBE" points="262.7,587.2 263.5,597.3 423.5,596.8 423.1,587.7 		"/>
			<path fill="#F8CD99" d="M458.6,617.4l2.2-2.7L426,586l-2.1,2.6c-7.8,9.6-6.5,23.8,3,31.9C436.3,628.6,450.6,627.3,458.6,617.4z"/>
			<path fill="#F8CD99" d="M266.5,589l-2.1-2.7l-35.4,28l2.1,2.7c7.8,10,22,11.6,31.6,3.7C272.4,612.9,274,598.7,266.5,589z"/>
			<path fill="#F8CD99" d="M269.7,595c-3.2,2.5-7.2,2.8-8.9,0.6c-1.7-2.2-0.4-6.1,2.8-8.6c3.2-2.5,7.2-2.8,8.9-0.6
			C274.2,588.6,273,592.4,269.7,595z"/>
			<path fill="#F8CD99" d="M420.5,594.5c3.2,2.5,7.2,2.8,8.9,0.6c1.7-2.2,0.4-6.1-2.8-8.6c-3.2-2.5-7.2-2.8-8.9-0.6
			C416,588.1,417.3,591.9,420.5,594.5z"/>
		</g>
	</g>
	<g id="SARRIA">
		<g>
			<g>
				<path
					fill="#FFFFFF"
					d="M232.6,619.8c-8.9-7.4-20.2-12.3-32-12.3c-8.9,0-20.7,5.2-20.7,15.5c0,10.8,13,15,21.4,17.7l12.3,3.7
				c25.8,7.6,45.8,20.7,45.8,50.7c0,18.5-4.4,37.4-19.2,50c-14.5,12.3-34,17.5-52.7,17.5c-23.4,0-46.3-7.9-65.2-21.2l20.7-38.9
				c12.1,10.6,26.3,19.2,42.8,19.2c11.3,0,23.4-5.7,23.4-18.7c0-13.5-18.9-18.2-29.3-21.2c-30.3-8.6-50.2-16.5-50.2-52.4
				c0-37.7,26.8-62.3,64-62.3c18.7,0,41.6,5.9,58.1,15.3L232.6,619.8z"/>
				<path fill="#FFFFFF" d="M312,725.4l-12.8,32.2h-51.2l71.4-185.5h52.7L442,757.6h-51.4l-12.1-32.2H312z M345.7,629.4h-0.5
				l-19.9,59.1h40.1L345.7,629.4z"/>
				<path fill="#FFFFFF" d="M601.7,757.6h-60l-45.5-71.4h-0.5v71.4h-48.2V572.1h72.1c36.7,0,64.5,17.5,64.5,57.1
				c0,25.6-14.3,47.7-40.6,52.4L601.7,757.6z M495.6,655.3h4.7c15.7,0,33.5-3,33.5-23.1c0-20.2-17.7-23.1-33.5-23.1h-4.7V655.3z"/>
				<path fill="#FFFFFF" d="M763.3,757.6h-60l-45.5-71.4h-0.5v71.4H609V572.1h72.1c36.7,0,64.5,17.5,64.5,57.1
				c0,25.6-14.3,47.7-40.6,52.4L763.3,757.6z M657.3,655.3h4.7c15.7,0,33.5-3,33.5-23.1c0-20.2-17.7-23.1-33.5-23.1h-4.7V655.3z"/>
				<path fill="#FFFFFF" d="M818,757.6h-48.2V572.1H818V757.6z"/>
				<path fill="#FFFFFF" d="M888.1,725.4l-12.8,32.2h-51.2l71.4-185.5h52.7l69.9,185.5h-51.4l-12.1-32.2H888.1z M912.7,503.9
				l34.7,42.3l-19.9,14.5l-42.1-37.2L912.7,503.9z M921.8,629.4h-0.5l-19.9,59.1h40.1L921.8,629.4z"/>
				<path fill="#FFFFFF" d="M1084.2,660.2v36.9h-70.4v-36.9H1084.2z"/>
				<path
					fill="#FFFFFF"
					d="M232.6,836.4c-8.9-7.4-20.2-12.3-32-12.3c-8.9,0-20.7,5.2-20.7,15.5c0,10.8,13,15,21.4,17.7l12.3,3.7
				c25.8,7.6,45.8,20.7,45.8,50.7c0,18.5-4.4,37.4-19.2,50c-14.5,12.3-34,17.5-52.7,17.5c-23.4,0-46.3-7.9-65.2-21.2l20.7-38.9
				c12.1,10.6,26.3,19.2,42.8,19.2c11.3,0,23.4-5.7,23.4-18.7c0-13.5-18.9-18.2-29.3-21.2c-30.3-8.6-50.2-16.5-50.2-52.4
				c0-37.7,26.8-62.3,64-62.3c18.7,0,41.6,5.9,58.1,15.3L232.6,836.4z"/>
				<path fill="#FFFFFF" d="M312,942l-12.8,32.2h-51.2l71.4-185.5h52.7L442,974.2h-51.4L378.5,942H312z M345.7,846h-0.5L325.3,905
				h40.1L345.7,846z"/>
				<path fill="#FFFFFF" d="M444.4,788.6h48.2L581,902.1h0.5V788.6h48.2v185.5h-48.2l-88.3-113.7h-0.5v113.7h-48.2V788.6z"/>
				<path fill="#FFFFFF" d="M728.4,974.2h-48.2V829.5h-39.9v-40.8h128v40.8h-39.9V974.2z"/>
				<path
					fill="#FFFFFF"
					d="M1004.5,870.6c-0.5,27.1-2.5,50.2-18.9,73.3c-18.2,25.3-45.5,36.4-76.5,36.4c-58.3,0-98.9-39.6-98.9-97.9
				c0-60.3,40.8-99.9,100.6-99.9c38.1,0,67.7,17.2,83.7,51.9l-45.8,19.2c-6.6-17.7-20.7-29.5-40.1-29.5c-31.7,0-48.2,30.3-48.2,58.6
				c0,28.8,17.2,58.1,49,58.1c20.9,0,36.9-10.8,38.9-32.2h-39.4v-37.9H1004.5z"/>
				<path fill="#FFFFFF" d="M1057.4,829.5v31h54.4v40.8h-54.4v32h57.3v40.8h-105.6V788.6h105.6v40.8H1057.4z"/>
				<path fill="#FFFFFF" d="M1281.3,974.2h-60l-45.5-71.4h-0.5v71.4H1127V788.6h72.1c36.7,0,64.5,17.5,64.5,57.1
				c0,25.6-14.3,47.7-40.6,52.4L1281.3,974.2z M1175.3,871.8h4.7c15.7,0,33.5-3,33.5-23.1s-17.7-23.1-33.5-23.1h-4.7V871.8z"/>
				<path fill="#FFFFFF" d="M1349.7,901.4l45-112.7h52.4l-79.2,185.5h-37.4l-78-185.5h52.4L1349.7,901.4z"/>
				<path fill="#FFFFFF" d="M1466.9,942l-12.8,32.2h-51.2l71.4-185.5h52.7l69.9,185.5h-51.4l-12.1-32.2H1466.9z M1500.6,846h-0.5
				l-19.9,59.1h40.1L1500.6,846z"/>
				<path
					fill="#FFFFFF"
					d="M1703.2,836.4c-8.9-7.4-20.2-12.3-32-12.3c-8.9,0-20.7,5.2-20.7,15.5c0,10.8,13,15,21.4,17.7l12.3,3.7
				c25.8,7.6,45.8,20.7,45.8,50.7c0,18.5-4.4,37.4-19.2,50c-14.5,12.3-34,17.5-52.7,17.5c-23.4,0-46.3-7.9-65.2-21.2l20.7-38.9
				c12.1,10.6,26.3,19.2,42.8,19.2c11.3,0,23.4-5.7,23.4-18.7c0-13.5-18.9-18.2-29.3-21.2c-30.3-8.6-50.2-16.5-50.2-52.4
				c0-37.7,26.8-62.3,64-62.3c18.7,0,41.6,5.9,58.1,15.3L1703.2,836.4z"/>
				<path fill="#FFFFFF" d="M1787.7,974.2h-48.2V788.6h48.2V974.2z"/>
			</g>
		</g>
		<path
			fill="#FFFFFF"
			stroke="#FFFFFF"
			stroke-width="15"
			stroke-miterlimit="10"
			d="M106,971.7c-12.6,0-22.8-10.2-22.8-22.8V593.7
		c0-12.6,10.2-22.8,22.8-22.8h0c5,0,9.1-4.1,9.1-9.1v-5c0-5-4.1-9.1-9.1-9.1h0c-25.4,0-46.1,20.6-46.1,46.1V949
		c0,25.4,20.6,46,46,46h0c5,0,9.1-4.1,9.1-9.1v-5C115.1,975.8,111,971.7,106,971.7L106,971.7z"/>
		<path
			fill="#FFFFFF"
			stroke="#FFFFFF"
			stroke-width="15"
			stroke-miterlimit="10"
			d="M1811.9,971.7c12.6,0,22.8-10.2,22.8-22.8
		V593.7c0-12.6-10.2-22.8-22.8-22.8h0c-5,0-9.1-4.1-9.1-9.1v-5c0-5,4.1-9.1,9.1-9.1h0c25.4,0,46.1,20.6,46.1,46.1V949
		c0,25.4-20.6,46-46,46h0c-5,0-9.1-4.1-9.1-9.1v-5C1802.8,975.8,1806.9,971.7,1811.9,971.7L1811.9,971.7z"/>
	</g>
	<g id="ONADES_1_CAPA_SUPERIOR">
		<g>
			<path
				fill="none"
				stroke="#AFDCE3"
				stroke-width="30"
				stroke-linecap="round"
				stroke-linejoin="round"
				stroke-miterlimit="10"
				d="
			M29.7,982.3c46.5,0,46.5,6.4,93.1,6.4c46.5,0,46.5-6.4,93.1-6.4c46.5,0,46.5,6.4,93.1,6.4c46.5,0,46.5-6.4,93.1-6.4
			c46.5,0,46.5,6.4,93.1,6.4c46.5,0,46.5-6.4,93.1-6.4c46.5,0,46.5,6.4,93.1,6.4c46.5,0,46.5-6.4,93.1-6.4c46.5,0,46.5,6.4,93.1,6.4
			c46.5,0,46.5-6.4,93.1-6.4c46.5,0,46.5,6.4,93.1,6.4c46.5,0,46.5-6.4,93.1-6.4c46.5,0,46.5,6.4,93.1,6.4c46.5,0,46.5-6.4,93.1-6.4
			c46.5,0,46.5,6.4,93.1,6.4c46.5,0,46.5-6.4,93.1-6.4c46.5,0,46.5,6.4,93.1,6.4c46.5,0,46.5-6.4,93.1-6.4c46.5,0,46.5,6.4,93.1,6.4
			s46.5-6.4,93.1-6.4"/>
		</g>
	</g>
</svg>
