<?xml version="1.0" encoding="utf-8"?>
<!-- Generator: Adobe Illustrator 18.1.0, SVG Export Plug-In . SVG Version: 6.00 Build 0)  -->
<svg version="1.1" xmlns="http://www.w3.org/2000/svg" xmlns:xlink="http://www.w3.org/1999/xlink" x="0px" y="0px" viewBox="0 0 1920 1080" enable-background="new 0 0 1920 1080" xml:space="preserve">
	<g id="FONS">
		<rect x="0" fill="#C1A48A" width="1920" height="1080"/>
	</g>
	<g id="EDIFICI_2">
		<g>
			<path
				fill="#967659"
				d="M865.8,415.8H136.2c-28.2,0-51.1,22.9-51.1,51.1V652c0,28.2,22.9,51.1,51.1,51.1h17V577
			c0-52.8,40.5-95.5,90.4-95.5c50,0,90.4,42.8,90.4,95.5v126.1h76.5V577c0-52.8,40.5-95.5,90.4-95.5c50,0,90.4,42.8,90.4,95.5v126.1
			h81.8V577c0-52.8,40.5-95.5,90.4-95.5c50,0,90.4,42.8,90.4,95.5v126.1h11.7c28.2,0,51.1-22.9,51.1-51.1V466.9
			C916.9,438.7,894,415.8,865.8,415.8z"/>
		</g>
	</g>
	<g id="SOL">
		<path fill="#FBCD00" d="M1318.9,136.8c0-50.1,40.6-90.7,90.7-90.7c50.1,0,90.7,40.6,90.7,90.7c0,50.1-40.6,90.7-90.7,90.7
		C1359.5,227.5,1318.9,186.9,1318.9,136.8z"/>
	</g>
	<g id="ONADES_1_CAPA_INFERIOR">
		<g>
			<path
				fill="none"
				stroke="#CEE3C3"
				stroke-width="30"
				stroke-linecap="round"
				stroke-linejoin="round"
				stroke-miterlimit="10"
				d="
			M56.4,759.9c45.5,0,45.5,6.4,91.1,6.4c45.5,0,45.5-6.4,91.1-6.4c45.5,0,45.5,6.4,91.1,6.4c45.5,0,45.5-6.4,91.1-6.4
			c45.5,0,45.5,6.4,91.1,6.4c45.5,0,45.5-6.4,91.1-6.4c45.5,0,45.5,6.4,91.1,6.4c45.5,0,45.5-6.4,91.1-6.4c45.5,0,45.5,6.4,91.1,6.4
			c45.5,0,45.5-6.4,91.1-6.4c45.5,0,45.5,6.4,91.1,6.4c45.5,0,45.5-6.4,91.1-6.4c45.5,0,45.5,6.4,91.1,6.4c45.5,0,45.5-6.4,91.1-6.4
			c45.5,0,45.5,6.4,91.1,6.4c45.5,0,45.5-6.4,91.1-6.4c45.5,0,45.5,6.4,91.1,6.4c45.5,0,45.5-6.4,91.1-6.4c45.5,0,45.5,6.4,91.1,6.4
			c45.5,0,45.5-6.4,91.1-6.4"/>
		</g>
		<g>
			<path
				fill="none"
				stroke="#CEE3C3"
				stroke-width="30"
				stroke-linecap="round"
				stroke-linejoin="round"
				stroke-miterlimit="10"
				d="
			M70.5,872.6c45.2,0,45.2,6.4,90.4,6.4c45.2,0,45.2-6.4,90.4-6.4c45.2,0,45.2,6.4,90.4,6.4c45.2,0,45.2-6.4,90.4-6.4
			c45.2,0,45.2,6.4,90.4,6.4c45.2,0,45.2-6.4,90.4-6.4c45.2,0,45.2,6.4,90.4,6.4c45.2,0,45.2-6.4,90.4-6.4c45.2,0,45.2,6.4,90.4,6.4
			c45.2,0,45.2-6.4,90.4-6.4c45.2,0,45.2,6.4,90.4,6.4c45.2,0,45.2-6.4,90.4-6.4c45.2,0,45.2,6.4,90.4,6.4c45.2,0,45.2-6.4,90.4-6.4
			c45.2,0,45.2,6.4,90.4,6.4c45.2,0,45.2-6.4,90.4-6.4c45.2,0,45.2,6.4,90.4,6.4c45.2,0,45.2-6.4,90.4-6.4c45.2,0,45.2,6.4,90.4,6.4
			c45.2,0,45.2-6.4,90.4-6.4"/>
		</g>
		<g>
			<path
				fill="none"
				stroke="#CEE3C3"
				stroke-width="30"
				stroke-linecap="round"
				stroke-linejoin="round"
				stroke-miterlimit="10"
				d="
			M56.4,698.6c45.5,0,45.5,6.4,91.1,6.4c45.5,0,45.5-6.4,91.1-6.4c45.5,0,45.5,6.4,91.1,6.4c45.5,0,45.5-6.4,91.1-6.4
			c45.5,0,45.5,6.4,91.1,6.4c45.5,0,45.5-6.4,91.1-6.4c45.5,0,45.5,6.4,91.1,6.4c45.5,0,45.5-6.4,91.1-6.4c45.5,0,45.5,6.4,91.1,6.4
			c45.5,0,45.5-6.4,91.1-6.4c45.5,0,45.5,6.4,91.1,6.4c45.5,0,45.5-6.4,91.1-6.4c45.5,0,45.5,6.4,91.1,6.4c45.5,0,45.5-6.4,91.1-6.4
			c45.5,0,45.5,6.4,91.1,6.4c45.5,0,45.5-6.4,91.1-6.4c45.5,0,45.5,6.4,91.1,6.4c45.5,0,45.5-6.4,91.1-6.4c45.5,0,45.5,6.4,91.1,6.4
			c45.5,0,45.5-6.4,91.1-6.4"/>
		</g>
		<g>
			<path
				fill="none"
				stroke="#CEE3C3"
				stroke-width="30"
				stroke-linecap="round"
				stroke-linejoin="round"
				stroke-miterlimit="10"
				d="
			M56.4,819.3c45.5,0,45.5,6.4,91.1,6.4c45.5,0,45.5-6.4,91.1-6.4c45.5,0,45.5,6.4,91.1,6.4c45.5,0,45.5-6.4,91.1-6.4
			c45.5,0,45.5,6.4,91.1,6.4c45.5,0,45.5-6.4,91.1-6.4c45.5,0,45.5,6.4,91.1,6.4c45.5,0,45.5-6.4,91.1-6.4c45.5,0,45.5,6.4,91.1,6.4
			c45.5,0,45.5-6.4,91.1-6.4c45.5,0,45.5,6.4,91.1,6.4c45.5,0,45.5-6.4,91.1-6.4c45.5,0,45.5,6.4,91.1,6.4c45.5,0,45.5-6.4,91.1-6.4
			c45.5,0,45.5,6.4,91.1,6.4c45.5,0,45.5-6.4,91.1-6.4c45.5,0,45.5,6.4,91.1,6.4c45.5,0,45.5-6.4,91.1-6.4c45.5,0,45.5,6.4,91.1,6.4
			c45.5,0,45.5-6.4,91.1-6.4"/>
		</g>
	</g>
	<g id="ARBRES">
		<g>
			<rect x="933.5" y="500.9" fill="#967659" width="27" height="191"/>
			<path fill="#CEE3C3" d="M1056.9,500.5c0,61.8-50.1,111.9-111.9,111.9l0,0c-61.8,0-111.9-50.1-111.9-111.9l0,0
			c0-61.8,50.1-111.9,111.9-111.9l0,0C1006.8,388.7,1056.9,438.8,1056.9,500.5L1056.9,500.5z"/>
		</g>
	</g>
	<g id="MONTANYA" display="none"></g>
	<g id="EDIFICI_1">
		<g>
			<g>
				<g>
					<path fill-rule="evenodd" clip-rule="evenodd" fill="#967659" d="M1529.9,372.7h1.5c8.9,0,16.2,7.2,16.2,16.2v183.2
					c0,8.9-7.2,16.2-16.2,16.2h-135.1c-8.9,0-16.2-7.2-16.2-16.2V388.9c0-8.9,7.2-16.2,16.2-16.2h1.5H1529.9L1529.9,372.7z"/>
				</g>
				<g>
					<path fill-rule="evenodd" clip-rule="evenodd" fill="#967659" d="M1518.9,264.9h0.4c7.9,0,14.3,6.4,14.3,14.3v79.2
					c0,7.9-6.4,14.3-14.3,14.3h-111c-7.9,0-14.3-6.4-14.3-14.3v-79.2c0-7.9,6.4-14.3,14.3-14.3h0.4H1518.9L1518.9,264.9z"/>
				</g>
				<g>
					<path fill-rule="evenodd" clip-rule="evenodd" fill="#967659" d="M1511.2,200.5L1511.2,200.5c7,0,12.7,5.7,12.7,12.7v39.4
					c0,7-5.7,12.7-12.7,12.7h-94.9c-7,0-12.7-5.7-12.7-12.7v-39.4c0-7,5.7-12.7,12.7-12.7h0H1511.2L1511.2,200.5z"/>
				</g>
				<g>
					<path fill-rule="evenodd" clip-rule="evenodd" fill="#967659" d="M1506.6,168.9L1506.6,168.9c6.3,0,11.4,5.1,11.4,11.4v9.5
					c0,6.3-5.1,11.4-11.4,11.4h-85.5c-6.3,0-11.4-5.1-11.4-11.4v-9.5c0-6.3,5.1-11.4,11.4-11.4h0H1506.6L1506.6,168.9z"/>
				</g>
			</g>
		</g>
	</g>
	<g id="EDIFICI_3">
		<path fill="#967659" d="M1827,599.1h-186.7c-39.7,0-71.9-21.9-71.9-48.9V221c0-27,32.2-48.9,71.9-48.9H1827
		c39.7,0,71.9,21.9,71.9,48.9v329.2C1899,577.2,1866.8,599.1,1827,599.1z"/>
		<path fill="#C1A48A" d="M1861,559.5h-254.7c-2.2,0-4-3-4-6.7l0,0c0-3.7,1.8-6.7,4-6.7H1861c2.2,0,4,3,4,6.7l0,0
		C1865,556.5,1863.2,559.5,1861,559.5z"/>
		<path fill="#C1A48A" d="M1861,532.9h-254.7c-2.2,0-4-3-4-6.7v0c0-3.7,1.8-6.7,4-6.7H1861c2.2,0,4,3,4,6.7v0
		C1865,529.9,1863.2,532.9,1861,532.9z"/>
		<path fill="#C1A48A" d="M1861,506.4h-254.7c-2.2,0-4-3-4-6.7v0c0-3.7,1.8-6.7,4-6.7H1861c2.2,0,4,3,4,6.7v0
		C1865,503.4,1863.2,506.4,1861,506.4z"/>
		<path fill="#C1A48A" d="M1861,479.9h-254.7c-2.2,0-4-3-4-6.7l0,0c0-3.7,1.8-6.7,4-6.7H1861c2.2,0,4,3,4,6.7l0,0
		C1865,476.9,1863.2,479.9,1861,479.9z"/>
		<path fill="#C1A48A" d="M1861,453.4h-254.7c-2.2,0-4-3-4-6.7l0,0c0-3.7,1.8-6.7,4-6.7H1861c2.2,0,4,3,4,6.7l0,0
		C1865,450.4,1863.2,453.4,1861,453.4z"/>
		<path fill="#C1A48A" d="M1861,426.8h-254.7c-2.2,0-4-3-4-6.7l0,0c0-3.7,1.8-6.7,4-6.7H1861c2.2,0,4,3,4,6.7l0,0
		C1865,423.9,1863.2,426.8,1861,426.8z"/>
		<path fill="#C1A48A" d="M1861,400.3h-254.7c-2.2,0-4-3-4-6.7l0,0c0-3.7,1.8-6.7,4-6.7H1861c2.2,0,4,3,4,6.7l0,0
		C1865,397.3,1863.2,400.3,1861,400.3z"/>
		<path fill="#C1A48A" d="M1861,373.8h-254.7c-2.2,0-4-3-4-6.7l0,0c0-3.7,1.8-6.7,4-6.7H1861c2.2,0,4,3,4,6.7l0,0
		C1865,370.8,1863.2,373.8,1861,373.8z"/>
		<path fill="#C1A48A" d="M1861,347.3h-254.7c-2.2,0-4-3-4-6.7l0,0c0-3.7,1.8-6.7,4-6.7H1861c2.2,0,4,3,4,6.7l0,0
		C1865,344.3,1863.2,347.3,1861,347.3z"/>
		<path fill="#C1A48A" d="M1861,320.8h-254.7c-2.2,0-4-3-4-6.7l0,0c0-3.7,1.8-6.7,4-6.7H1861c2.2,0,4,3,4,6.7l0,0
		C1865,317.8,1863.2,320.8,1861,320.8z"/>
		<path fill="#C1A48A" d="M1861,294.2h-254.7c-2.2,0-4-3-4-6.7l0,0c0-3.7,1.8-6.7,4-6.7H1861c2.2,0,4,3,4,6.7l0,0
		C1865,291.3,1863.2,294.2,1861,294.2z"/>
		<path fill="#C1A48A" d="M1861,267.7h-254.7c-2.2,0-4-3-4-6.7l0,0c0-3.7,1.8-6.7,4-6.7H1861c2.2,0,4,3,4,6.7l0,0
		C1865,264.7,1863.2,267.7,1861,267.7z"/>
		<path fill="#C1A48A" d="M1861,241.2h-254.7c-2.2,0-4-3-4-6.7l0,0c0-3.7,1.8-6.7,4-6.7H1861c2.2,0,4,3,4,6.7l0,0
		C1865,238.2,1863.2,241.2,1861,241.2z"/>
		<path fill="#C1A48A" d="M1861,214.7h-254.7c-2.2,0-4-3-4-6.7l0,0c0-3.7,1.8-6.7,4-6.7H1861c2.2,0,4,3,4,6.7l0,0
		C1865,211.7,1863.2,214.7,1861,214.7z"/>
	</g>
	<g id="CARRETERA">
		<path
			fill="#999999"
			d="M1918.3,580.1h-506.7c-112.2,0-203.4,91.3-203.4,203.4v20.8c0,62.4-50.8,113.2-113.2,113.2H241.4
		c-62.4,0-113.2-50.8-113.2-113.2V-0.2c-20.1,0.1-40.1,0-43.2,0c-0.5,0-24.3,0-47.1-0.1v804.6c0,112.2,91.3,203.4,203.4,203.4h853.5
		c112.2,0,203.4-91.3,203.4-203.4v-20.8c0-62.4,50.8-113.2,113.2-113.2h507.2C1918.4,652.9,1918.2,615.2,1918.3,580.1z"/>
		<path fill="#CDCCCC" d="M1134.3,952.6c-12.8,3.4-26,5.1-39.3,5.1H1046c-2.8,0-5,2.2-5,5c0,2.8,2.2,5,5,5h48.9
		c14.2,0,28.3-1.8,41.9-5.4c2.7-0.7,4.3-3.4,3.6-6.1C1139.7,953.5,1136.9,951.9,1134.3,952.6z"/>
		<path fill="#CDCCCC" d="M956,957.7h-90c-2.8,0-5,2.2-5,5c0,2.8,2.2,5,5,5h90c2.8,0,5-2.2,5-5C961,959.9,958.8,957.7,956,957.7z"/>
		<path fill="#CDCCCC" d="M236.2,957.6c-29.3-1-57.5-10.3-81.6-26.9c-2.3-1.6-5.4-1-7,1.3c-1.6,2.3-1,5.4,1.3,7
		c25.7,17.7,55.8,27.6,87,28.6c0.1,0,0.1,0,0.2,0c2.7,0,4.9-2.1,5-4.8C241.1,960,238.9,957.7,236.2,957.6z"/>
		<path fill="#CDCCCC" d="M416,957.7h-90c-2.8,0-5,2.2-5,5c0,2.8,2.2,5,5,5h90c2.8,0,5-2.2,5-5C421,959.9,418.8,957.7,416,957.7z"/>
		<path fill="#CDCCCC" d="M596,957.7h-90c-2.8,0-5,2.2-5,5c0,2.8,2.2,5,5,5h90c2.8,0,5-2.2,5-5C601,959.9,598.8,957.7,596,957.7z"/>
		<path fill="#CDCCCC" d="M776,957.7h-90c-2.8,0-5,2.2-5,5c0,2.8,2.2,5,5,5h90c2.8,0,5-2.2,5-5C781,959.9,778.8,957.7,776,957.7z"/>
		<path fill="#CDCCCC" d="M1251.7,827c-2.7-0.5-5.3,1.3-5.8,4.1c-5.1,28.8-18.2,55.4-38.1,77c-1.9,2-1.7,5.2,0.3,7.1
		c1,0.9,2.2,1.3,3.4,1.3c1.4,0,2.7-0.5,3.7-1.6c21.2-23,35.2-51.4,40.6-82.1C1256.3,830.1,1254.5,827.5,1251.7,827z"/>
		<path fill="#CDCCCC" d="M1474.3,620.3h-62.7c-9.4,0-18.8,0.8-28,2.4c-2.7,0.5-4.5,3.1-4.1,5.8c0.4,2.4,2.5,4.1,4.9,4.1
		c0.3,0,0.6,0,0.9-0.1c8.6-1.5,17.5-2.2,26.3-2.2h62.7c2.8,0,5-2.2,5-5C1479.3,622.5,1477.1,620.3,1474.3,620.3z"/>
		<path fill="#CDCCCC" d="M1301.4,663c-23.1,21.1-39.6,48.2-47.6,78.2c-0.7,2.7,0.9,5.4,3.5,6.1c0.4,0.1,0.9,0.2,1.3,0.2
		c2.2,0,4.2-1.5,4.8-3.7c7.5-28.2,23-53.6,44.7-73.4c2-1.9,2.2-5,0.3-7.1C1306.6,661.3,1303.4,661.2,1301.4,663z"/>
		<path fill="#CDCCCC" d="M1834.3,620.3h-90c-2.8,0-5,2.2-5,5c0,2.8,2.2,5,5,5h90c2.8,0,5-2.2,5-5
		C1839.3,622.5,1837.1,620.3,1834.3,620.3z"/>
		<path fill="#CDCCCC" d="M1654.3,620.3h-90c-2.8,0-5,2.2-5,5c0,2.8,2.2,5,5,5h90c2.8,0,5-2.2,5-5
		C1659.3,622.5,1657.1,620.3,1654.3,620.3z"/>
		<path fill="#CDCCCC" d="M83.1,332.8c2.8,0,5-2.2,5-5v-90c0-2.8-2.2-5-5-5c-2.8,0-5,2.2-5,5v90C78.1,330.5,80.3,332.8,83.1,332.8z"/>
		<path fill="#CDCCCC" d="M83.1,152.8c2.8,0,5-2.2,5-5v-90c0-2.8-2.2-5-5-5c-2.8,0-5,2.2-5,5v90C78.1,150.5,80.3,152.8,83.1,152.8z"/>
		<path fill="#CDCCCC" d="M88.1,804.4v-26.6c0-2.8-2.2-5-5-5c-2.8,0-5,2.2-5,5v26.6c0,22.1,4.3,43.5,12.9,63.7
		c0.8,1.9,2.7,3.1,4.6,3.1c0.7,0,1.3-0.1,1.9-0.4c2.5-1.1,3.7-4,2.7-6.6C92.2,845.2,88.1,825.1,88.1,804.4z"/>
		<path fill="#CDCCCC" d="M83.1,512.8c2.8,0,5-2.2,5-5v-90c0-2.8-2.2-5-5-5c-2.8,0-5,2.2-5,5v90C78.1,510.5,80.3,512.8,83.1,512.8z"/>
		<path fill="#CDCCCC" d="M83.1,692.8c2.8,0,5-2.2,5-5v-90c0-2.8-2.2-5-5-5c-2.8,0-5,2.2-5,5v90C78.1,690.5,80.3,692.8,83.1,692.8z"/>
		<g display="none">
			<path
				display="inline"
				fill="#999999"
				d="M1136.3-1572.9c-112.2,0-203.4,91.3-203.4,203.4v765.1c0,62.4-50.8,113.2-113.2,113.2
			H241.4C129.2-491.1,38-399.9,38-287.7V-1.9C59.3-2,81.7-2,85-2c0.4,0,21.7,0,43.2,0.1v-285.8c0-62.4,50.8-113.2,113.2-113.2h578.2
			c112.2,0,203.4-91.3,203.4-203.4v-765.1c0-62.4,50.8-113.2,113.2-113.2h783v-90.2H1136.3z"/>
			<path display="inline" fill="#CDCCCC" d="M978-808.1c-2.8,0-5,2.2-5,5v90c0,2.8,2.2,5,5,5c2.8,0,5-2.2,5-5v-90
			C983-805.8,980.7-808.1,978-808.1z"/>
			<path display="inline" fill="#CDCCCC" d="M978-988.1c-2.8,0-5,2.2-5,5v90c0,2.8,2.2,5,5,5c2.8,0,5-2.2,5-5v-90
			C983-985.8,980.7-988.1,978-988.1z"/>
			<path display="inline" fill="#CDCCCC" d="M978-1168.1c-2.8,0-5,2.2-5,5v90c0,2.8,2.2,5,5,5c2.8,0,5-2.2,5-5v-90
			C983-1165.8,980.7-1168.1,978-1168.1z"/>
			<path display="inline" fill="#CDCCCC" d="M978-1348.1c-2.8,0-5,2.2-5,5v90c0,2.8,2.2,5,5,5c2.8,0,5-2.2,5-5v-90
			C983-1345.8,980.7-1348.1,978-1348.1z"/>
			<path display="inline" fill="#CDCCCC" d="M978-628.1c-2.8,0-5,2.2-5,5v18.7c0,23.4-5.1,45.8-15.2,66.7c-1.2,2.5-0.2,5.5,2.3,6.7
			c0.7,0.3,1.4,0.5,2.2,0.5c1.9,0,3.6-1,4.5-2.8c10.8-22.2,16.2-46.1,16.2-71v-18.7C983-625.8,980.7-628.1,978-628.1z"/>
			<path display="inline" fill="#CDCCCC" d="M907-472.2c-1.5-2.3-4.5-3.1-6.9-1.6c-24.1,14.9-52,22.8-80.5,22.8h-2.5
			c-2.8,0-5,2.2-5,5c0,2.8,2.2,5,5,5h2.5c30.4,0,60-8.4,85.8-24.3C907.8-466.8,908.5-469.8,907-472.2z"/>
			<path display="inline" fill="#CDCCCC" d="M372.2-446c0-2.8-2.2-5-5-5h-90c-2.8,0-5,2.2-5,5c0,2.8,2.2,5,5,5h90
			C369.9-441,372.2-443.2,372.2-446z"/>
			<path display="inline" fill="#CDCCCC" d="M552.2-446c0-2.8-2.2-5-5-5h-90c-2.8,0-5,2.2-5,5c0,2.8,2.2,5,5,5h90
			C549.9-441,552.2-443.2,552.2-446z"/>
			<path
				display="inline"
				fill="#CDCCCC"
				d="M1050.9-1502.9c-1.6-2.3-4.7-2.9-7-1.3c-25.8,17.7-45.8,42.2-58,70.9
			c-1.1,2.5,0.1,5.5,2.6,6.6c0.6,0.3,1.3,0.4,2,0.4c1.9,0,3.8-1.1,4.6-3c11.4-26.9,30.3-49.9,54.5-66.5
			C1051.9-1497.5,1052.5-1500.6,1050.9-1502.9z"/>
			<path display="inline" fill="#CDCCCC" d="M1924.3-1527.8c0-2.8-2.2-5-5-5h-68.2c-2.8,0-5,2.2-5,5c0,2.8,2.2,5,5,5h68.2
			C1922.1-1522.8,1924.3-1525,1924.3-1527.8z"/>
			<path display="inline" fill="#CDCCCC" d="M1406.2-1527.8c0-2.8-2.2-5-5-5h-90c-2.8,0-5,2.2-5,5c0,2.8,2.2,5,5,5h90
			C1403.9-1522.8,1406.2-1525,1406.2-1527.8z"/>
			<path display="inline" fill="#CDCCCC" d="M1766.2-1527.8c0-2.8-2.2-5-5-5h-90c-2.8,0-5,2.2-5,5c0,2.8,2.2,5,5,5h90
			C1763.9-1522.8,1766.2-1525,1766.2-1527.8z"/>
			<path display="inline" fill="#CDCCCC" d="M1586.2-1527.8c0-2.8-2.2-5-5-5h-90c-2.8,0-5,2.2-5,5c0,2.8,2.2,5,5,5h90
			C1583.9-1522.8,1586.2-1525,1586.2-1527.8z"/>
			<path display="inline" fill="#CDCCCC" d="M732.2-446c0-2.8-2.2-5-5-5h-90c-2.8,0-5,2.2-5,5c0,2.8,2.2,5,5,5h90
			C729.9-441,732.2-443.2,732.2-446z"/>
			<path display="inline" fill="#CDCCCC" d="M1131.2-1522.7c0.1,0,0.1,0,0.2,0c1.6-0.1,3.3-0.1,5-0.1h84.8c2.8,0,5-2.2,5-5
			c0-2.8-2.2-5-5-5h-84.8c-1.8,0-3.6,0-5.3,0.1c-2.8,0.1-4.9,2.4-4.8,5.2C1126.2-1524.8,1128.5-1522.7,1131.2-1522.7z"/>
			<path display="inline" fill="#CDCCCC" d="M83.1-27.2c2.8,0,5-2.2,5-5v-90c0-2.8-2.2-5-5-5c-2.8,0-5,2.2-5,5v90
			C78.1-29.5,80.3-27.2,83.1-27.2z"/>
			<path display="inline" fill="#CDCCCC" d="M83.1-207.2c2.8,0,5-2.2,5-5v-75.4c0-4.7,0.2-9.4,0.6-14.1c0.2-2.8-1.8-5.2-4.5-5.4
			c-2.7-0.2-5.2,1.8-5.4,4.5c-0.5,5-0.7,10-0.7,15v75.4C78.1-209.5,80.3-207.2,83.1-207.2z"/>
			<path display="inline" fill="#CDCCCC" d="M193-438.5c-0.9-2.6-3.8-4-6.4-3c-29.3,10.4-55,29-74.2,53.7c-1.7,2.2-1.3,5.3,0.9,7
			c0.9,0.7,2,1.1,3.1,1.1c1.5,0,3-0.7,4-1.9c18-23.2,42.1-40.6,69.6-50.4C192.5-433.1,193.9-435.9,193-438.5z"/>
		</g>
	</g>
	<g id="NUVOLS">
		<path fill="#AFDCE3" d="M936.1,240.9c0.9-18,15.7-32.2,33.9-32.2c4.2,0,8.3,1,12,2.4c3.2-20.5,20.9-36.3,42.3-36.3
		c23.7,0,43,19.3,43,43c0,0.5-0.2,1.1-0.2,1.6c0.5,0,1.1-0.3,1.6-0.3c12.4,0,22.5,9.9,23.1,21.9H936.1z"/>
		<path fill="#AFDCE3" d="M593.2,357.9c-0.2-2-0.2-3-0.2-4.7c0-28.6,23.2-51.5,51.7-51.5c1.3,0,2.4,0.4,3.6,0.4
		c7.6-19.1,26.1-32.7,48-32.7c17.1,0,32.1,8.4,41.5,21.3c3.3-0.7,6.7-1,10.1-1c25,0,45.8,17.4,50.6,40.9c16,4.1,28.6,14.3,33.7,27.3
		H593.2z"/>
		<path fill="#AFDCE3" d="M101.2,152.9c-0.2-2-0.2-3-0.2-4.7c0-28.6,23.2-51.5,51.7-51.5c1.3,0,2.4,0.4,3.6,0.4
		c7.6-19.1,26.1-32.7,48-32.7c17.1,0,32.1,8.4,41.5,21.3c3.3-0.7,6.7-1,10.1-1c25,0,45.8,17.4,50.6,40.9c16,4.1,28.6,14.3,33.7,27.3
		H101.2z"/>
	</g>
	<g id="NOU_BARRIS" ng-click="">
		<g>
			<g>
				<path fill="#FFFFFF" d="M134.4,739.3h49l89.8,115.2h0.5V739.3h49v188.5h-49l-89.8-115.5h-0.5v115.5h-49V739.3z"/>
				<path fill="#FFFFFF" d="M539.9,830c0,61-43.7,104-104.2,104s-104.2-43-104.2-104c0-57,50-97,104.2-97S539.9,773,539.9,830z
				 M382.4,830.3c0,32.5,24,56.2,53.2,56.2s53.2-23.8,53.2-56.2c0-26-24-49.8-53.2-49.8S382.4,804.3,382.4,830.3z"/>
				<path fill="#FFFFFF" d="M712.4,739.3v106c0,24.2-1,48.2-19.8,66.5c-15.8,15.5-40.5,21-62.5,21s-46.8-5.5-62.5-21
				c-18.8-18.2-19.8-42.2-19.8-66.5v-106h49v99.2c0,24.5,1.8,51.2,33.2,51.2s33.2-26.8,33.2-51.2v-99.2H712.4z"/>
				<path
					fill="#FFFFFF"
					d="M801.7,927.8V739.3h70c33.5,0,56,13,56,49c0,17-5.5,30.8-20.8,38.5v0.5c27,3.5,38.5,21.8,38.5,48
				c0,39.5-33.8,52.5-68.2,52.5H801.7z M850.7,813.3h5.5c13,0,26.5-2.2,26.5-18.2c0-17.2-15.2-18.2-28.5-18.2h-3.5V813.3z
				 M850.7,890.3h6.2c14.5,0,39,0.8,39-20c0-22.8-24.2-20.5-40.2-20.5h-5V890.3z"/>
				<path fill="#FFFFFF" d="M1005.2,895l-13,32.8h-52l72.5-188.5h53.5l71,188.5h-52.2l-12.2-32.8H1005.2z M1039.4,797.5h-0.5
				l-20.3,60h40.8L1039.4,797.5z"/>
				<path fill="#FFFFFF" d="M1295.4,927.8h-61l-46.2-72.5h-0.5v72.5h-49V739.3h73.2c37.2,0,65.5,17.8,65.5,58
				c0,26-14.5,48.5-41.2,53.2L1295.4,927.8z M1187.7,823.8h4.8c16,0,34-3,34-23.5s-18-23.5-34-23.5h-4.8V823.8z"/>
				<path fill="#FFFFFF" d="M1451.7,927.8h-61l-46.2-72.5h-0.5v72.5h-49V739.3h73.2c37.2,0,65.5,17.8,65.5,58
				c0,26-14.5,48.5-41.2,53.2L1451.7,927.8z M1343.9,823.8h4.8c16,0,34-3,34-23.5s-18-23.5-34-23.5h-4.8V823.8z"/>
				<path fill="#FFFFFF" d="M1500.2,927.8h-49V739.3h49V927.8z"/>
				<path
					fill="#FFFFFF"
					d="M1621.9,787.8c-9-7.5-20.5-12.5-32.5-12.5c-9,0-21,5.2-21,15.8c0,11,13.2,15.2,21.8,18l12.5,3.8
				c26.2,7.8,46.5,21,46.5,51.5c0,18.8-4.5,38-19.5,50.8c-14.8,12.5-34.5,17.8-53.5,17.8c-23.8,0-47-8-66.2-21.5l21-39.5
				c12.2,10.8,26.8,19.5,43.5,19.5c11.5,0,23.8-5.8,23.8-19c0-13.8-19.2-18.5-29.8-21.5c-30.8-8.8-51-16.8-51-53.2
				c0-38.2,27.2-63.2,65-63.2c19,0,42.2,6,59,15.5L1621.9,787.8z"/>
			</g>
			<path
				fill="#FFFFFF"
				stroke="#FFFFFF"
				stroke-width="15"
				stroke-miterlimit="10"
				d="M102.5,924.7c-12.6,0-22.8-10.2-22.8-22.8
			V741.7c0-12.6,10.2-22.8,22.8-22.8h0c5,0,9.1-4.1,9.1-9.1v-5c0-5-4.1-9.1-9.1-9.1h0c-25.4,0-46.1,20.6-46.1,46.1v160.3
			c0,25.4,20.6,46,46,46h0c5,0,9.1-4.1,9.1-9.1v-5C111.6,928.8,107.5,924.7,102.5,924.7L102.5,924.7z"/>
			<path
				fill="#FFFFFF"
				stroke="#FFFFFF"
				stroke-width="15"
				stroke-miterlimit="10"
				d="M1658.3,721.6c12.6,0,22.8,10.2,22.8,22.8
			v160.3c0,12.6-10.2,22.8-22.8,22.8h0c-5,0-9.1,4.1-9.1,9.1v5c0,5,4.1,9.1,9.1,9.1h0c25.4,0,46.1-20.6,46.1-46.1V744.4
			c0-25.4-20.6-46-46-46h0c-5,0-9.1,4.1-9.1,9.1v5C1649.2,717.5,1653.3,721.6,1658.3,721.6L1658.3,721.6z"/>
		</g>
	</g>
	<g id="AVATAR">
		<g>
			<g>
				<path fill="#FBCC9A" d="M1201.1,680.4l-12-176.5h-145.3l-10.1,176.5l59.1,9.6l9-143.1c0.4-5.9-5.1-13.1,0.8-13.1l25.7,1.2
				c5.9,0,5.5,5.2,5.9,11.2l7.8,143.7L1201.1,680.4z"/>
				<path
					fill="#805E3A"
					d="M1188,342.1c-8.2-8.2-21.4-8.2-29.5,0c-8.1,8.2-8,21.3,0,29.4l4.2,4.3c10.4,10.5,20.8,21,31,31.7
				c10.2,10.6,20.3,21.3,29.7,32c2.3,2.7,4.6,5.3,6.7,7.9l0.3,0.4l-2.3,3.4c-7.8,11.3-16.9,22.9-26,34.3l-10.8,13.4l32.2,26.4
				l11.2-13.8c9.5-11.9,18.8-23.7,27.9-36.9l1.7-2.5l2.2-3.4c1.9-3.2,3.9-6.3,5.3-9.6c0.9-1.6,1.3-3.3,2-5c0.4-1.7,0.7-3.4,0.9-5
				l0.2-2.5l0.1-1.3c0-0.4-0.2-0.8-0.2-1.3c-0.4-1.7-0.7-3.3-1.2-5l-0.8-2.4c-0.3-0.8-0.5-1.6-1-2.4c-0.9-1.5-1.8-3.1-2.8-4.7
				l-3.3-4.5c-0.5-0.7-1.1-1.5-1.7-2.2l-1.5-1.8c-2.6-3.2-5.2-6.2-7.7-9.1c-10.2-11.6-20.6-22.5-31-33.4
				c-10.4-10.8-20.9-21.5-31.5-32.2L1188,342.1z"/>
				<path
					fill="#805E3A"
					d="M1077,371.5c8.1-8.1,8.2-21.2,0.1-29.4c-8-8.2-21.3-8.3-29.5-0.1l-4.3,4.3c-10.5,10.5-21,21.1-31.4,31.9
				c-10.4,10.8-20.7,21.6-31,33c-2.6,2.9-5.1,5.8-7.7,8.9l-2.5,3c-1.1,1.4-2.2,2.9-3.3,4.4l-1.6,2.2l-1.4,2.3
				c-0.9,1.5-1.9,3.1-2.4,4.7l-0.9,2.4l-0.6,2.4c-0.3,1.6-1,3.3-0.7,5.1c0.2,3.4,0.6,6.7,2,10.1c1.3,3.3,3,6.6,4.9,9.8
				c0.5,0.8,0.9,1.6,1.4,2.4l1.1,1.8l1.7,2.6c8.8,13.4,17.8,25.3,26.9,37.3l10.8,14l32.8-25.7l-10.5-13.6
				c-8.8-11.5-17.6-23.3-25-34.7l-1.7-2.6l1.1-1.3c2.2-2.6,4.4-5.2,6.8-7.9c9.5-10.6,19.6-21.2,29.7-31.7
				c10.2-10.5,20.5-21,30.9-31.4L1077,371.5z"/>
				<path fill="#805E3A" d="M1173.8,335.4c-13.7-3.1-34.9-6.8-57-6.8c-22.1,0-43.3,3.7-57.1,6.8c-8.7,1.9-15.6,11.2-15.6,20.1v145.2
				h145.3V355.5C1189.5,346.6,1182.5,337.3,1173.8,335.4z"/>
				<path fill="#4F2B16" d="M1047.6,341.9c0,0,13-12.1,26.9-9.5l-1.8,43.2l85.4-1l0.9-42.3c0,0,21.1,1.7,29,9.6l9.4,267.3l-60.2-2.7
				l-4-62.9c-0.4-5.9-5.5-7.2-11.4-7.2h-8.2c-5.9,0-11.1,1.2-11.4,7.2l-3.8,60.2l-61.4,1.3L1047.6,341.9z"/>
				<polygon fill="#805E3A" points="1074.2,422.8 1158.7,423.4 1158.7,500.7 1074.2,500.7 			"/>
				<g>
					<g>
						<polygon fill="#FBCC9A" points="1092.8,700.2 1028.2,700.2 1028.2,689.4 1033.7,679.5 1092.8,689.2 					"/>
						<polygon fill="#FBCC9A" points="1142,700.2 1206.7,700.2 1206.7,689.4 1201.1,679.5 1142,689.2 					"/>
					</g>
					<g>
						<g>
							<polyline fill="#805E3A" points="1092.8,694.7 1092.8,700.2 1028.2,700.2 1028.2,694.8 						"/>
						</g>
					</g>
					<polyline fill="#805E3A" points="1028.2,700.2 1028.2,689.4 1033.7,679.5 1038.5,680.3 1030.2,695.7 				"/>
					<g>
						<g>
							<polyline fill="#805E3A" points="1142,695.1 1142,700.6 1206.7,700.6 1206.7,695.2 						"/>
						</g>
					</g>
					<polyline fill="#805E3A" points="1206.7,700.2 1206.7,689.4 1201.1,679.5 1196.4,680.3 1204.7,695.7 				"/>
				</g>
				<g>
					<path fill="#FBCC9A" d="M1157.6,332.7c-12.1-2.1-26.7-4.1-41.7-4.1c-15,0-29.7,1.8-41.8,3.9l39.3,11.2c0.6,0.8,1.5,1.2,2.5,1.2
					l0,0c1,0,1.9-0.4,2.5-1.2L1157.6,332.7z"/>
					<path fill="#FBCC9A" d="M1145.6,314.8l2.2,16.1c0,0-13.7,16.7-32,16.7c-18.3,0-32-16.7-32-16.7l2.2-16.1H1145.6z"/>
					<path fill="#FBCC9A" d="M1221.8,527.8l2-2.5l-31.8-26.4l-1.9,2.4c-7.1,8.8-5.9,21.8,2.7,29.2
					C1201.4,538,1214.5,536.8,1221.8,527.8z"/>
					<path fill="#FBCC9A" d="M1043,501.5l-1.9-2.4l-32.4,25.7l1.9,2.5c7.1,9.2,20.2,10.7,29,3.4
					C1048.4,523.4,1049.9,510.4,1043,501.5z"/>
					<path fill="#FBCC9A" d="M1043.3,501.4"/>
					<path fill="#FBCC9A" d="M1045.9,507c-3,2.3-6.6,2.6-8.2,0.5c-1.6-2-0.4-5.6,2.6-7.9c3-2.3,6.6-2.6,8.2-0.5
					C1050.1,501.1,1048.9,504.7,1045.9,507z"/>
					<path fill="#FBCC9A" d="M1186.9,506.7c3,2.3,6.6,2.6,8.2,0.5c1.6-2,0.4-5.6-2.6-7.9c-3-2.3-6.6-2.6-8.2-0.5
					C1182.8,500.8,1183.9,504.4,1186.9,506.7z"/>
					<g>
						<ellipse fill="#CB9866" cx="1215.8" cy="223.6" rx="18.8" ry="24.2"/>
						<ellipse fill="#FBCC9A" cx="1012.7" cy="223.6" rx="18.8" ry="24.2"/>
						<path fill="#FBCC9A" d="M1096.3,325.3c-45.5,0-82.4-37.3-82.4-83.3v-88c0-46,36.9-83.3,82.4-83.3h20.2v254.7H1096.3z"/>
						<path fill="#CB9866" d="M1132.2,325.3c45.5,0,82.4-37.3,82.4-83.3v-88c0-46-36.9-83.3-82.4-83.3h-17.9v254.7H1132.2z"/>
					</g>
					<path fill="#FBCC9A" d="M1114.3,191"/>
					<circle fill="#FBCC9A" cx="1116.3" cy="239.1" r="12.6"/>
				</g>
				<path
					id="gafas_2_15_"
					fill="#4E4E4E"
					d="M1014.1,205.4c2.4,0.6,9.3,21.1,13,31.5c3.7,10.4,9.3,14.4,18,17.2
				c17.4,3.5,34.2-1,39.2-3.1c5.1-2.1,8.6-7.7,12-14.1c3.4-6.4,11.3-27.1,13.3-31.3l9.7,0c2,4.2,9.9,24.9,13.3,31.3
				c3.4,6.4,6.9,12.1,12,14.1c5.1,2.1,21.8,6.6,39.2,3.1c8.7-2.8,14.2-6.8,18-17.2c3.7-10.4,10.4-28.9,11.4-31.5
				c0.5-1.4,1.3-1.2,1.3-1.2v-16.5c0,0-5.5-3.2-17.6-3.9c-12.1-0.7-38.6-1.3-50.3-0.1c-11.7,1.2-14.1,2-15.9,3.5
				c-1.8,1.5-2.6,3.8-6,4.3h-20.6c-3.3-0.5-4.1-2.8-6-4.3c-1.8-1.5-4.2-2.3-15.9-3.5c-11.7-1.2-38.2-0.6-50.3,0.1
				c-12.1,0.7-17.9,5.5-17.9,5.5 M1098.2,220.8c-3.6,12.3-7.2,21.6-14.1,25.3c-6.9,3.7-33,10.1-45,0.5c-2.4-1.9-9.3-9.6-10.5-24.6
				c-1.2-15-2.7-23,5.7-27.3c0,0,16.7-6.1,30.1-6c15.1,0.1,28.4,2.6,31.5,6.9C1098.9,199.8,1102.4,205.2,1098.2,220.8z
				 M1200.3,221.9c-1.2,15-8.2,22.7-10.5,24.6c-12,9.6-38.1,3.2-45-0.5c-6.9-3.7-10.5-12.9-14.1-25.3c-4.3-15.6-0.7-20.9,2.3-25.2
				c3-4.3,16.3-6.9,31.5-6.9c13.4-0.1,30.1,6,30.1,6C1203,198.9,1201.6,206.8,1200.3,221.9z"/>
			</g>
			<g id="barba_3">
				<g>
					<g>
						<path
							fill="#805E3A"
							d="M1063.6,269.2c-1.2,3.1-0.9,25.1,17.7,21c5.2-1.2,3.6-7.8,11.4-12.7c5.4-3.5,13.4-4.2,22.3-4.2
						c8.4,0,19.2,0.7,25.2,5.2c2.8,2.1,7.1,14.2,14.7,11.6c12.3-4.2,10.5-20.3,10.5-20.3s-10,16.9-18.7,1.5
						c-4.4-7.7-10-6.4-12.9-6.9c-4.5-0.7-13.6,3.5-18.2,3.3c-5-0.1-12-3.8-17-3.1c-3.7,0.5-11.3,2.1-15.6,9.2
						C1076,285.4,1065,274,1063.6,269.2z"/>
					</g>
				</g>
			</g>
		</g>
	</g>
	<g id="ONADES_1_CAPA_SUPERIOR">
		<g>
			<path
				fill="none"
				stroke="#CEE3C3"
				stroke-width="30"
				stroke-linecap="round"
				stroke-linejoin="round"
				stroke-miterlimit="10"
				d="
			M56.4,931.6c45.5,0,45.5,6.4,91.1,6.4c45.5,0,45.5-6.4,91.1-6.4c45.5,0,45.5,6.4,91.1,6.4c45.5,0,45.5-6.4,91.1-6.4
			c45.5,0,45.5,6.4,91.1,6.4c45.5,0,45.5-6.4,91.1-6.4c45.5,0,45.5,6.4,91.1,6.4c45.5,0,45.5-6.4,91.1-6.4c45.5,0,45.5,6.4,91.1,6.4
			c45.5,0,45.5-6.4,91.1-6.4c45.5,0,45.5,6.4,91.1,6.4c45.5,0,45.5-6.4,91.1-6.4c45.5,0,45.5,6.4,91.1,6.4c45.5,0,45.5-6.4,91.1-6.4
			c45.5,0,45.5,6.4,91.1,6.4c45.5,0,45.5-6.4,91.1-6.4c45.5,0,45.5,6.4,91.1,6.4c45.5,0,45.5-6.4,91.1-6.4c45.5,0,45.5,6.4,91.1,6.4
			c45.5,0,45.5-6.4,91.1-6.4"/>
		</g>
	</g>
</svg>
