<?xml version="1.0" encoding="utf-8"?>
<!-- Generator: Adobe Illustrator 18.1.0, SVG Export Plug-In . SVG Version: 6.00 Build 0)  -->
<svg version="1.1" xmlns="http://www.w3.org/2000/svg" xmlns:xlink="http://www.w3.org/1999/xlink" x="0px" y="0px" viewBox="0 0 1919.7 1080" enable-background="new 0 0 1919.7 1080" xml:space="preserve">
	<g id="FONS">
		<path fill="#9899CC" d="M0,0v794.4c0.7,4.3,0.7,102.4,0,106.7V1080h1919.7V0H0z"/>
	</g>
	<g id="SOL">
		<path fill="#FBCD00" d="M1024.8,136.8c0-50.1-40.6-90.7-90.7-90.7c-50.1,0-90.7,40.6-90.7,90.7c0,50.1,40.6,90.7,90.7,90.7
		C984.2,227.5,1024.8,186.9,1024.8,136.8z"/>
	</g>
	<g id="EDIFICI_2">
		<g>
			<ellipse fill="#CCC9E5" cx="524.9" cy="417.9" rx="19.5" ry="26"/>
			<path fill-rule="evenodd" clip-rule="evenodd" fill="#CCC9E5" d="M473.7,801.7H44.4c-15.1,0-27.3-12.2-27.3-27.3v-82
			c0-15.1,12.2-27.3,27.3-27.3h429.3c15.1,0,27.3,12.2,27.3,27.3v82C501,789.5,488.8,801.7,473.7,801.7z"/>
			<path fill-rule="evenodd" clip-rule="evenodd" fill="#5660A8" d="M474.1,668.1H44.8c-15.1,0-27.3-12.2-27.3-27.3v-63.6
			c0-15.1,12.2-27.3,27.3-27.3h429.3c15.1,0,27.3,12.2,27.3,27.3v63.6C501.4,655.9,489.2,668.1,474.1,668.1z"/>
			<path fill-rule="evenodd" clip-rule="evenodd" fill="#CCC9E5" d="M479.9,551.8H36.6c-11.2,0-20.3-9.1-20.3-20.3v0
			c0-11.2,9.1-20.3,20.3-20.3h443.2c11.2,0,20.3,9.1,20.3,20.3v0C500.2,542.7,491.1,551.8,479.9,551.8z"/>
			<path fill-rule="evenodd" clip-rule="evenodd" fill="#5660A8" d="M479.5,801.8h97.6c6.2,0,11.2-6.7,11.2-15v-79.6
			c0-8.3-5-15-11.2-15h-97.6c-6.2,0-11.2,6.7-11.2,15v79.6C468.2,795.1,473.3,801.8,479.5,801.8z"/>
			<path fill-rule="evenodd" clip-rule="evenodd" fill="#CCC9E5" d="M473.4,692.9h109.7c3.2,0,6-3.1,6.9-7.5l0,0
			c1.3-6.6-2.1-13.2-6.9-13.2H473.4c-4.7,0-8.1,6.6-6.9,13.2v0C467.4,689.8,470.2,692.9,473.4,692.9z"/>
			<path fill-rule="evenodd" clip-rule="evenodd" fill="#CCC9E5" d="M503.1,443.9L503.1,443.9c0,2.9,1.8,5.2,3.9,5.2h36.9
			c2.2,0,3.9-2.3,3.9-5.2l0,0c0-2.9-1.8-5.2-3.9-5.2H507C504.9,438.7,503.1,441,503.1,443.9z"/>
			<rect x="487.3" y="502.1" fill-rule="evenodd" clip-rule="evenodd" fill="#F3C100" width="57.1" height="8.6"/>
			<path fill-rule="evenodd" clip-rule="evenodd" fill="#5660A8" d="M480.6,673.1h89.7c8.4,0,15.2-9.1,15.2-20.3v-69
			c0-11.2-6.8-20.3-15.2-20.3h-89.7c-8.4,0-15.2,9.1-15.2,20.3v69C465.5,664,472.3,673.1,480.6,673.1z"/>
			<path fill-rule="evenodd" clip-rule="evenodd" fill="#5660A8" d="M499.6,558.9h51.7c8.9,0,16.1-9.6,16.1-21.4v-33.6
			c0-11.8-7.2-21.4-16.1-21.4h-51.7c-8.9,0-16.1,9.6-16.1,21.4v33.6C483.6,549.3,490.8,558.9,499.6,558.9z"/>
			<path fill-rule="evenodd" clip-rule="evenodd" fill="#CCC9E5" d="M474.9,563.5h101.3c1.7,0,3.1-1.8,3.1-4.1l0,0
			c0-2.3-1.4-4.1-3.1-4.1H474.9c-1.7,0-3.1,1.8-3.1,4.1l0,0C471.8,561.7,473.2,563.5,474.9,563.5z"/>
			<path fill-rule="evenodd" clip-rule="evenodd" fill="#5660A8" d="M511.3,482.5h26.5c4.5,0,8.2-4.2,8.2-9.3v-14.6
			c0-5.2-3.7-9.3-8.2-9.3h-26.5c-4.5,0-8.2,4.2-8.2,9.3v14.6C503.1,478.3,506.8,482.5,511.3,482.5z"/>
			<path fill-rule="evenodd" clip-rule="evenodd" fill="#CCC9E5" d="M503.1,479.7L503.1,479.7c0,2.9,1.8,5.2,3.9,5.2h36.9
			c2.2,0,3.9-2.3,3.9-5.2l0,0c0-2.9-1.8-5.2-3.9-5.2H507C504.9,474.5,503.1,476.8,503.1,479.7z"/>
		</g>
	</g>
	<g id="ARBRES">
		<g>
			<rect x="126.5" y="614.9" fill="#CB6B15" width="27" height="191"/>
		</g>
		<path fill="#CEE3C3" d="M249.6,614.5c0,61.8-50.1,111.9-111.9,111.9l0,0c-61.8,0-111.9-50.1-111.9-111.9l0,0
		c0-61.8,50.1-111.9,111.9-111.9l0,0C199.5,502.7,249.6,552.8,249.6,614.5L249.6,614.5z"/>
	</g>
	<g id="ONADES_1_CAPA_INFERIOR">
		<g>
			<path
				fill="none"
				stroke="#CEE3C3"
				stroke-width="30"
				stroke-linecap="round"
				stroke-linejoin="round"
				stroke-miterlimit="10"
				d="
			M29.7,913.6c46.5,0,46.5,6.4,93.1,6.4c46.5,0,46.5-6.4,93.1-6.4c46.5,0,46.5,6.4,93.1,6.4c46.5,0,46.5-6.4,93.1-6.4
			c46.5,0,46.5,6.4,93.1,6.4c46.5,0,46.5-6.4,93.1-6.4c46.5,0,46.5,6.4,93.1,6.4c46.5,0,46.5-6.4,93.1-6.4c46.5,0,46.5,6.4,93.1,6.4
			c46.5,0,46.5-6.4,93.1-6.4c46.5,0,46.5,6.4,93.1,6.4c46.5,0,46.5-6.4,93.1-6.4c46.5,0,46.5,6.4,93.1,6.4c46.5,0,46.5-6.4,93.1-6.4
			c46.5,0,46.5,6.4,93.1,6.4c46.5,0,46.5-6.4,93.1-6.4c46.5,0,46.5,6.4,93.1,6.4c46.5,0,46.5-6.4,93.1-6.4c46.5,0,46.5,6.4,93.1,6.4
			s46.5-6.4,93.1-6.4"/>
		</g>
	</g>
	<g id="CARRETERA">
		<path fill="#999999" d="M1919.1,800.6H0.3L0,891.4l1919-0.6C1918.7,867.8,1918.7,817,1919.1,800.6z"/>
		<path fill="#CDCCCC" d="M1918.8,840.7h-66.5c-2.8,0-5,2.2-5,5c0,2.8,2.2,5,5,5h66.4C1918.8,847.4,1918.8,844,1918.8,840.7z"/>
		<path fill="#CDCCCC" d="M1402.3,840.7h-90c-2.8,0-5,2.2-5,5c0,2.8,2.2,5,5,5h90c2.8,0,5-2.2,5-5
		C1407.3,843,1405.1,840.7,1402.3,840.7z"/>
		<path fill="#CDCCCC" d="M1582.3,840.7h-90c-2.8,0-5,2.2-5,5c0,2.8,2.2,5,5,5h90c2.8,0,5-2.2,5-5
		C1587.3,843,1585.1,840.7,1582.3,840.7z"/>
		<path fill="#CDCCCC" d="M1762.3,840.7h-90c-2.8,0-5,2.2-5,5c0,2.8,2.2,5,5,5h90c2.8,0,5-2.2,5-5
		C1767.3,843,1765.1,840.7,1762.3,840.7z"/>
		<path fill="#CDCCCC" d="M142.3,840.7h-90c-2.8,0-5,2.2-5,5c0,2.8,2.2,5,5,5h90c2.8,0,5-2.2,5-5C147.3,843,145.1,840.7,142.3,840.7z
		"/>
		<path fill="#CDCCCC" d="M322.3,840.7h-90c-2.8,0-5,2.2-5,5c0,2.8,2.2,5,5,5h90c2.8,0,5-2.2,5-5C327.3,843,325.1,840.7,322.3,840.7z
		"/>
		<path fill="#CDCCCC" d="M682.3,840.7h-90c-2.8,0-5,2.2-5,5c0,2.8,2.2,5,5,5h90c2.8,0,5-2.2,5-5C687.3,843,685.1,840.7,682.3,840.7z
		"/>
		<path fill="#CDCCCC" d="M1042.3,840.7h-90c-2.8,0-5,2.2-5,5c0,2.8,2.2,5,5,5h90c2.8,0,5-2.2,5-5
		C1047.3,843,1045.1,840.7,1042.3,840.7z"/>
		<g display="none">
			<path
				display="inline"
				fill="#999999"
				d="M-115.7-1376.4v726.7c0,62.4-50.8,113.2-113.2,113.2h-206.7
			c-112.2,0-203.4,91.3-203.4,203.4v79.2c0,62.4-50.8,113.2-113.2,113.2h-249.3c-89.9,0-166.4,58.7-193.2,139.7
			c23.7-0.2,52.7-0.1,56.5-0.1c0.4,0,21.7,0,43.2,0.1c20.4-29.8,54.7-49.5,93.5-49.5h249.3c112.2,0,203.4-91.3,203.4-203.4v-79.2
			c0-62.4,50.8-113.2,113.2-113.2h206.7c112.2,0,203.4-91.3,203.4-203.4v-726.7c0-112.2-91.3-203.4-203.4-203.4h-2199.5
			c-112.2,0-203.4,91.3-203.4,203.4v20.8c0,62.4-50.8,113.2-113.2,113.2h-853.5c-62.4,0-113.2-50.8-113.2-113.2v-1092
			c0-62.4,50.8-113.2,113.2-113.2h578.2c112.2,0,203.4-91.3,203.4-203.4v-765.1c0-62.4,50.8-113.2,113.2-113.2h783v-90.2h-783
			c-112.2,0-203.4,91.3-203.4,203.4v765.1c0,62.4-50.8,113.2-113.2,113.2h-578.2c-112.2,0-203.4,91.3-203.4,203.4v1092
			c0,112.2,91.3,203.4,203.4,203.4h853.5c112.2,0,203.4-91.3,203.4-203.4v-20.8c0-62.4,50.8-113.2,113.2-113.2h2199.5
			C-166.5-1489.6-115.7-1438.8-115.7-1376.4z"/>
			<path display="inline" fill="#CDCCCC" d="M-2862-2968c-2.8,0-5,2.2-5,5v90c0,2.8,2.2,5,5,5c2.8,0,5-2.2,5-5v-90
			C-2857-2965.8-2859.2-2968-2862-2968z"/>
			<path display="inline" fill="#CDCCCC" d="M-2862-3148c-2.8,0-5,2.2-5,5v90c0,2.8,2.2,5,5,5c2.8,0,5-2.2,5-5v-90
			C-2857-3145.8-2859.2-3148-2862-3148z"/>
			<path display="inline" fill="#CDCCCC" d="M-2705.7-1207.4c-12.8,3.4-26,5.1-39.3,5.1h-48.9c-2.8,0-5,2.2-5,5c0,2.8,2.2,5,5,5h48.9
			c14.2,0,28.3-1.8,41.9-5.4c2.7-0.7,4.3-3.4,3.6-6.1C-2700.3-1206.5-2703-1208.1-2705.7-1207.4z"/>
			<path display="inline" fill="#CDCCCC" d="M-2884-1202.3h-90c-2.8,0-5,2.2-5,5c0,2.8,2.2,5,5,5h90c2.8,0,5-2.2,5-5
			C-2879-1200-2881.2-1202.3-2884-1202.3z"/>
			<path display="inline" fill="#CDCCCC" d="M-2862-3328c-2.8,0-5,2.2-5,5v90c0,2.8,2.2,5,5,5c2.8,0,5-2.2,5-5v-90
			C-2857-3325.8-2859.2-3328-2862-3328z"/>
			<path display="inline" fill="#CDCCCC" d="M-3603.8-1202.4c-29.3-1-57.5-10.3-81.6-26.9c-2.3-1.6-5.4-1-7,1.3c-1.6,2.3-1,5.4,1.3,7
			c25.7,17.7,55.8,27.6,87,28.6c0.1,0,0.1,0,0.2,0c2.7,0,4.9-2.1,5-4.8C-3598.9-1200-3601-1202.3-3603.8-1202.4z"/>
			<path display="inline" fill="#CDCCCC" d="M-2862-3508c-2.8,0-5,2.2-5,5v90c0,2.8,2.2,5,5,5c2.8,0,5-2.2,5-5v-90
			C-2857-3505.8-2859.2-3508-2862-3508z"/>
			<path display="inline" fill="#CDCCCC" d="M-2862-2788c-2.8,0-5,2.2-5,5v18.7c0,23.4-5.1,45.8-15.2,66.7c-1.2,2.5-0.2,5.5,2.3,6.7
			c0.7,0.3,1.4,0.5,2.2,0.5c1.9,0,3.6-1,4.5-2.8c10.8-22.2,16.2-46.1,16.2-71v-18.7C-2857-2785.8-2859.2-2788-2862-2788z"/>
			<path display="inline" fill="#CDCCCC" d="M-3424-1202.3h-90c-2.8,0-5,2.2-5,5c0,2.8,2.2,5,5,5h90c2.8,0,5-2.2,5-5
			C-3419-1200-3421.2-1202.3-3424-1202.3z"/>
			<path display="inline" fill="#CDCCCC" d="M-2932.9-2632.2c-1.5-2.3-4.5-3.1-6.9-1.6c-24.1,14.9-52,22.8-80.5,22.8h-2.5
			c-2.8,0-5,2.2-5,5c0,2.8,2.2,5,5,5h2.5c30.4,0,60-8.4,85.8-24.3C-2932.2-2626.7-2931.5-2629.8-2932.9-2632.2z"/>
			<path display="inline" fill="#CDCCCC" d="M-3467.8-2606c0-2.8-2.2-5-5-5h-90c-2.8,0-5,2.2-5,5c0,2.8,2.2,5,5,5h90
			C-3470-2601-3467.8-2603.2-3467.8-2606z"/>
			<path display="inline" fill="#CDCCCC" d="M-3287.8-2606c0-2.8-2.2-5-5-5h-90c-2.8,0-5,2.2-5,5c0,2.8,2.2,5,5,5h90
			C-3290-2601-3287.8-2603.2-3287.8-2606z"/>
			<path display="inline" fill="#CDCCCC" d="M-3244-1202.3h-90c-2.8,0-5,2.2-5,5c0,2.8,2.2,5,5,5h90c2.8,0,5-2.2,5-5
			C-3239-1200-3241.2-1202.3-3244-1202.3z"/>
			<path display="inline" fill="#CDCCCC" d="M-3064-1202.3h-90c-2.8,0-5,2.2-5,5c0,2.8,2.2,5,5,5h90c2.8,0,5-2.2,5-5
			C-3059-1200-3061.2-1202.3-3064-1202.3z"/>
			<path
				display="inline"
				fill="#CDCCCC"
				d="M-2789-3662.8c-1.6-2.3-4.7-2.9-7-1.3c-25.8,17.7-45.8,42.2-58,70.9
			c-1.1,2.5,0.1,5.5,2.6,6.6c0.6,0.3,1.3,0.4,2,0.4c1.9,0,3.8-1.1,4.6-3c11.4-26.9,30.3-49.9,54.5-66.5
			C-2788.1-3657.5-2787.5-3660.6-2789-3662.8z"/>
			<path display="inline" fill="#CDCCCC" d="M-1645.7-1539.7h-90c-2.8,0-5,2.2-5,5c0,2.8,2.2,5,5,5h90c2.8,0,5-2.2,5-5
			C-1640.7-1537.5-1642.9-1539.7-1645.7-1539.7z"/>
			<path display="inline" fill="#CDCCCC" d="M-1465.7-1539.7h-90c-2.8,0-5,2.2-5,5c0,2.8,2.2,5,5,5h90c2.8,0,5-2.2,5-5
			C-1460.7-1537.5-1462.9-1539.7-1465.7-1539.7z"/>
			<path display="inline" fill="#CDCCCC" d="M-1825.7-1539.7h-90c-2.8,0-5,2.2-5,5c0,2.8,2.2,5,5,5h90c2.8,0,5-2.2,5-5
			C-1820.7-1537.5-1822.9-1539.7-1825.7-1539.7z"/>
			<path
				display="inline"
				fill="#CDCCCC"
				d="M-2588.2-1333c-2.7-0.5-5.3,1.3-5.8,4.1c-5.1,28.8-18.2,55.4-38.1,77
			c-1.9,2-1.7,5.2,0.3,7.1c1,0.9,2.2,1.3,3.4,1.3c1.4,0,2.7-0.5,3.7-1.6c21.2-23,35.2-51.4,40.6-82.1
			C-2583.7-1329.9-2585.5-1332.5-2588.2-1333z"/>
			<path display="inline" fill="#CDCCCC" d="M-1285.7-1539.7h-90c-2.8,0-5,2.2-5,5c0,2.8,2.2,5,5,5h90c2.8,0,5-2.2,5-5
			C-1280.7-1537.5-1282.9-1539.7-1285.7-1539.7z"/>
			<path display="inline" fill="#CDCCCC" d="M-1915.6-3687.7c0-2.8-2.2-5-5-5h-68.2c-2.8,0-5,2.2-5,5c0,2.8,2.2,5,5,5h68.2
			C-1917.9-3682.7-1915.6-3685-1915.6-3687.7z"/>
			<path display="inline" fill="#CDCCCC" d="M-1100.7-1534.7c0-2.8-2.2-5-5-5h-90c-2.8,0-5,2.2-5,5c0,2.8,2.2,5,5,5h90
			C-1102.9-1529.7-1100.7-1531.9-1100.7-1534.7z"/>
			<path display="inline" fill="#CDCCCC" d="M-2433.8-3687.7c0-2.8-2.2-5-5-5h-90c-2.8,0-5,2.2-5,5c0,2.8,2.2,5,5,5h90
			C-2436.1-3682.7-2433.8-3685-2433.8-3687.7z"/>
			<path
				display="inline"
				fill="#CDCCCC"
				d="M-2365.7-1539.7h-62.7c-9.4,0-18.8,0.8-28,2.4c-2.7,0.5-4.5,3.1-4.1,5.8
			c0.4,2.4,2.5,4.1,4.9,4.1c0.3,0,0.6,0,0.9-0.1c8.6-1.5,17.5-2.2,26.3-2.2h62.7c2.8,0,5-2.2,5-5
			C-2360.7-1537.5-2362.9-1539.7-2365.7-1539.7z"/>
			<path
				display="inline"
				fill="#CDCCCC"
				d="M-2538.6-1496.9c-23.1,21.1-39.6,48.2-47.6,78.2c-0.7,2.7,0.9,5.4,3.5,6.1
			c0.4,0.1,0.9,0.2,1.3,0.2c2.2,0,4.2-1.5,4.8-3.7c7.5-28.2,23-53.6,44.7-73.4c2-1.9,2.2-5,0.3-7.1
			C-2533.4-1498.7-2536.5-1498.8-2538.6-1496.9z"/>
			<path display="inline" fill="#CDCCCC" d="M-2005.7-1539.7h-90c-2.8,0-5,2.2-5,5c0,2.8,2.2,5,5,5h90c2.8,0,5-2.2,5-5
			C-2000.7-1537.5-2002.9-1539.7-2005.7-1539.7z"/>
			<path display="inline" fill="#CDCCCC" d="M-2073.8-3687.7c0-2.8-2.2-5-5-5h-90c-2.8,0-5,2.2-5,5c0,2.8,2.2,5,5,5h90
			C-2076.1-3682.7-2073.8-3685-2073.8-3687.7z"/>
			<path display="inline" fill="#CDCCCC" d="M-2253.8-3687.7c0-2.8-2.2-5-5-5h-90c-2.8,0-5,2.2-5,5c0,2.8,2.2,5,5,5h90
			C-2256.1-3682.7-2253.8-3685-2253.8-3687.7z"/>
			<path display="inline" fill="#CDCCCC" d="M-2185.7-1539.7h-90c-2.8,0-5,2.2-5,5c0,2.8,2.2,5,5,5h90c2.8,0,5-2.2,5-5
			C-2180.7-1537.5-2182.9-1539.7-2185.7-1539.7z"/>
			<path display="inline" fill="#CDCCCC" d="M-3107.8-2606c0-2.8-2.2-5-5-5h-90c-2.8,0-5,2.2-5,5c0,2.8,2.2,5,5,5h90
			C-3110-2601-3107.8-2603.2-3107.8-2606z"/>
			<path display="inline" fill="#CDCCCC" d="M-75.6-1331.9v90c0,2.8,2.2,5,5,5c2.8,0,5-2.2,5-5v-90c0-2.8-2.2-5-5-5
			C-73.3-1336.9-75.6-1334.7-75.6-1331.9z"/>
			<path display="inline" fill="#CDCCCC" d="M-65.6-701.9v-90c0-2.8-2.2-5-5-5c-2.8,0-5,2.2-5,5v90c0,2.8,2.2,5,5,5
			C-67.8-696.9-65.6-699.2-65.6-701.9z"/>
			<path display="inline" fill="#CDCCCC" d="M-65.6-971.9c0-2.8-2.2-5-5-5c-2.8,0-5,2.2-5,5v90c0,2.8,2.2,5,5,5c2.8,0,5-2.2,5-5
			V-971.9z"/>
			<path display="inline" fill="#CDCCCC" d="M-73.9-617.2c-2.7-0.6-5.4,1-6,3.7c-6.9,28.4-21.7,54.1-42.9,74.5
			c-2,1.9-2.1,5.1-0.2,7.1c1,1,2.3,1.5,3.6,1.5c1.2,0,2.5-0.5,3.5-1.4c22.6-21.7,38.4-49.1,45.7-79.3
			C-69.5-613.8-71.2-616.5-73.9-617.2z"/>
			<path display="inline" fill="#CDCCCC" d="M-65.6-1151.9c0-2.8-2.2-5-5-5c-2.8,0-5,2.2-5,5v90c0,2.8,2.2,5,5,5c2.8,0,5-2.2,5-5
			V-1151.9z"/>
			<path display="inline" fill="#CDCCCC" d="M-2708.8-3682.6c0.1,0,0.1,0,0.2,0c1.6-0.1,3.3-0.1,5-0.1h84.8c2.8,0,5-2.2,5-5
			c0-2.8-2.2-5-5-5h-84.8c-1.8,0-3.6,0-5.3,0.1c-2.8,0.1-4.9,2.4-4.8,5.2C-2713.7-3684.8-2711.5-3682.6-2708.8-3682.6z"/>
			<path display="inline" fill="#CDCCCC" d="M-3756.9-1827.2c2.8,0,5-2.2,5-5v-90c0-2.8-2.2-5-5-5c-2.8,0-5,2.2-5,5v90
			C-3761.9-1829.5-3759.6-1827.2-3756.9-1827.2z"/>
			<path display="inline" fill="#CDCCCC" d="M-3756.9-2007.2c2.8,0,5-2.2,5-5v-90c0-2.8-2.2-5-5-5c-2.8,0-5,2.2-5,5v90
			C-3761.9-2009.5-3759.6-2007.2-3756.9-2007.2z"/>
			<path display="inline" fill="#CDCCCC" d="M-3756.9-2187.2c2.8,0,5-2.2,5-5v-90c0-2.8-2.2-5-5-5c-2.8,0-5,2.2-5,5v90
			C-3761.9-2189.5-3759.6-2187.2-3756.9-2187.2z"/>
			<path display="inline" fill="#CDCCCC" d="M-3751.9-1355.6v-26.6c0-2.8-2.2-5-5-5c-2.8,0-5,2.2-5,5v26.6c0,22.1,4.3,43.5,12.9,63.7
			c0.8,1.9,2.7,3.1,4.6,3.1c0.7,0,1.3-0.1,1.9-0.4c2.5-1.1,3.7-4,2.7-6.6C-3747.8-1314.8-3751.9-1334.9-3751.9-1355.6z"/>
			<path display="inline" fill="#CDCCCC" d="M-3756.9-1647.2c2.8,0,5-2.2,5-5v-90c0-2.8-2.2-5-5-5c-2.8,0-5,2.2-5,5v90
			C-3761.9-1649.5-3759.6-1647.2-3756.9-1647.2z"/>
			<path display="inline" fill="#CDCCCC" d="M-81.8-1419.9c0.6,2.2,2.6,3.6,4.8,3.6c0.5,0,0.9-0.1,1.4-0.2c2.6-0.8,4.2-3.6,3.4-6.2
			c-8.8-29.8-26-56.5-49.6-77c-2.1-1.8-5.2-1.6-7.1,0.5c-1.8,2.1-1.6,5.2,0.5,7.1C-106.2-1472.9-90.1-1447.9-81.8-1419.9z"/>
			<path display="inline" fill="#CDCCCC" d="M-3756.9-1467.2c2.8,0,5-2.2,5-5v-90c0-2.8-2.2-5-5-5c-2.8,0-5,2.2-5,5v90
			C-3761.9-1469.5-3759.6-1467.2-3756.9-1467.2z"/>
			<path display="inline" fill="#CDCCCC" d="M-3756.9-2367.2c2.8,0,5-2.2,5-5v-75.4c0-4.7,0.2-9.4,0.6-14.1c0.2-2.8-1.8-5.2-4.5-5.4
			c-2.7-0.2-5.2,1.8-5.4,4.5c-0.5,5-0.7,10-0.7,15v75.4C-3761.9-2369.5-3759.6-2367.2-3756.9-2367.2z"/>
			<path display="inline" fill="#CDCCCC" d="M-655.7-1529.7h90c2.8,0,5-2.2,5-5c0-2.8-2.2-5-5-5h-90c-2.8,0-5,2.2-5,5
			C-660.7-1531.9-658.4-1529.7-655.7-1529.7z"/>
			<path display="inline" fill="#CDCCCC" d="M-475.7-1529.7h90c2.8,0,5-2.2,5-5c0-2.8-2.2-5-5-5h-90c-2.8,0-5,2.2-5,5
			C-480.7-1531.9-478.4-1529.7-475.7-1529.7z"/>
			<path
				display="inline"
				fill="#CDCCCC"
				d="M-295.7-1529.7h66.8c7.5,0,15.1,0.5,22.4,1.6c0.2,0,0.5,0.1,0.7,0.1
			c2.4,0,4.6-1.8,4.9-4.3c0.4-2.7-1.5-5.3-4.2-5.7c-7.9-1.2-15.9-1.7-23.9-1.7h-66.8c-2.8,0-5,2.2-5,5
			C-300.7-1531.9-298.4-1529.7-295.7-1529.7z"/>
			<path display="inline" fill="#CDCCCC" d="M-611.4-193.4c-1.1,2.5,0.1,5.5,2.6,6.6c0.6,0.3,1.3,0.4,2,0.4c1.9,0,3.8-1.1,4.6-3
			c8.8-20.4,13.2-42.1,13.2-64.5v-25.7c0-2.8-2.2-5-5-5c-2.8,0-5,2.2-5,5v25.7C-599-232.9-603.2-212.5-611.4-193.4z"/>
			<path display="inline" fill="#CDCCCC" d="M-3647-2598.5c-0.9-2.6-3.8-4-6.4-3c-29.3,10.4-55,29-74.2,53.7c-1.7,2.2-1.3,5.3,0.9,7
			c0.9,0.7,2,1.1,3.1,1.1c1.5,0,3-0.7,4-1.9c18-23.2,42.1-40.6,69.6-50.4C-3647.4-2593-3646.1-2595.9-3647-2598.5z"/>
			<path display="inline" fill="#CDCCCC" d="M-1015.7-1529.7h90c2.8,0,5-2.2,5-5c0-2.8-2.2-5-5-5h-90c-2.8,0-5,2.2-5,5
			C-1020.7-1531.9-1018.4-1529.7-1015.7-1529.7z"/>
			<path display="inline" fill="#CDCCCC" d="M-835.7-1529.7h90c2.8,0,5-2.2,5-5c0-2.8-2.2-5-5-5h-90c-2.8,0-5,2.2-5,5
			C-840.7-1531.9-838.4-1529.7-835.7-1529.7z"/>
			<path display="inline" fill="#CDCCCC" d="M-377.9-496.4h-57.8c-11.1,0-22.2,1.1-33,3.3c-2.7,0.6-4.4,3.2-3.9,5.9
			c0.5,2.4,2.6,4,4.9,4c0.3,0,0.7,0,1-0.1c10.1-2.1,20.6-3.1,31-3.1h57.8c2.8,0,5-2.2,5-5C-372.9-494.2-375.1-496.4-377.9-496.4z"/>
			<path display="inline" fill="#CDCCCC" d="M-549.6-450.1c-22.4,21.8-38,49.4-45.1,79.7c-0.6,2.7,1,5.4,3.7,6
			c0.4,0.1,0.8,0.1,1.1,0.1c2.3,0,4.3-1.6,4.9-3.9c6.7-28.4,21.3-54.3,42.4-74.8c2-1.9,2-5.1,0.1-7.1
			C-544.4-452-547.6-452-549.6-450.1z"/>
			<path display="inline" fill="#CDCCCC" d="M-199.1-499.3c-9.8,1.9-19.8,2.9-29.8,2.9h-59c-2.8,0-5,2.2-5,5c0,2.8,2.2,5,5,5h59
			c10.7,0,21.4-1,31.8-3.1c2.7-0.5,4.5-3.2,3.9-5.9C-193.7-498.1-196.4-499.8-199.1-499.3z"/>
			<path
				display="inline"
				fill="#CDCCCC"
				d="M-1012.8-95.3c-0.3-2.7-2.7-4.7-5.5-4.5c-31,3.1-60.4,15.1-84.8,34.5
			c-2.2,1.7-2.5,4.9-0.8,7c1,1.2,2.4,1.9,3.9,1.9c1.1,0,2.2-0.4,3.1-1.1c23-18.2,50.5-29.4,79.6-32.4
			C-1014.5-90.1-1012.5-92.5-1012.8-95.3z"/>
			<path
				display="inline"
				fill="#CDCCCC"
				d="M-659.2-125.7c-1.6-2.3-4.7-2.9-6.9-1.3c-24.2,16.5-52.5,25.6-81.8,26.4
			c-2.8,0.1-4.9,2.4-4.9,5.1c0.1,2.7,2.3,4.9,5,4.9c0,0,0.1,0,0.1,0c31.2-0.9,61.4-10.6,87.1-28.2
			C-658.2-120.4-657.6-123.5-659.2-125.7z"/>
			<path display="inline" fill="#CDCCCC" d="M-832.8-95.6c0-2.8-2.2-5-5-5h-90c-2.8,0-5,2.2-5,5c0,2.8,2.2,5,5,5h90
			C-835-90.6-832.8-92.8-832.8-95.6z"/>
		</g>
		<path fill="#CDCCCC" d="M1222.3,840.7h-90c-2.8,0-5,2.2-5,5c0,2.8,2.2,5,5,5h90c2.8,0,5-2.2,5-5
		C1227.3,843,1225.1,840.7,1222.3,840.7z"/>
		<path fill="#CDCCCC" d="M502.3,840.7h-90c-2.8,0-5,2.2-5,5c0,2.8,2.2,5,5,5h90c2.8,0,5-2.2,5-5C507.3,843,505.1,840.7,502.3,840.7z
		"/>
		<path fill="#CDCCCC" d="M862.3,840.7h-90c-2.8,0-5,2.2-5,5c0,2.8,2.2,5,5,5h90c2.8,0,5-2.2,5-5C867.3,843,865.1,840.7,862.3,840.7z
		"/>
	</g>
	<g id="EDIFICI_1">
		<g>
			<path fill="#CCC9E5" stroke="#CCC9E5" stroke-width="7" stroke-miterlimit="10" d="M676,479.5V374.3c0-1.7-2-2.5-3.2-1.2
			l-27.3,29.6c-1,1.1-0.3,2.9,1.2,3l29.2,1.9"/>
			<path fill="#CCC9E5" stroke="#CCC9E5" stroke-width="7" stroke-miterlimit="10" d="M735.3,492.7V387.5c0-1.7-2-2.5-3.2-1.2
			l-27.3,29.6c-1,1.1-0.3,2.9,1.2,3l29.2,1.9"/>
			<path fill="#CCC9E5" stroke="#CCC9E5" stroke-width="7" stroke-miterlimit="10" d="M793.3,511.4V406.2c0-1.7-2-2.5-3.2-1.2
			l-27.3,29.6c-1,1.1-0.3,2.9,1.2,3l29.2,1.9"/>
			<path fill="#CCC9E5" stroke="#CCC9E5" stroke-width="7" stroke-miterlimit="10" d="M852.7,524.7V419.5c0-1.7-2-2.5-3.2-1.2
			l-27.3,29.6c-1,1.1-0.3,2.9,1.2,3l29.2,1.9"/>
			<path fill="#CCC9E5" stroke="#CCC9E5" stroke-width="7" stroke-miterlimit="10" d="M905.8,541.6V436.4c0-1.7-2-2.5-3.2-1.2
			l-27.3,29.6c-1,1.1-0.3,2.9,1.2,3l29.2,1.9"/>
			<path fill="#CCC9E5" stroke="#CCC9E5" stroke-width="7" stroke-miterlimit="10" d="M965.1,554.9V449.7c0-1.7-2-2.5-3.2-1.2
			l-27.3,29.6c-1,1.1-0.3,2.9,1.2,3l29.2,1.9"/>
			<path fill="#CCC9E5" stroke="#CCC9E5" stroke-width="7" stroke-miterlimit="10" d="M1023.1,573.6V468.4c0-1.7-2-2.5-3.2-1.2
			l-27.3,29.6c-1,1.1-0.3,2.9,1.2,3l29.2,1.9"/>
			<path fill="#CCC9E5" stroke="#CCC9E5" stroke-width="7" stroke-miterlimit="10" d="M1082.5,586.9V481.7c0-1.7-2-2.5-3.2-1.2
			l-27.3,29.6c-1,1.1-0.3,2.9,1.2,3l29.2,1.9"/>
			<path fill="#CCC9E5" stroke="#CCC9E5" stroke-width="7" stroke-miterlimit="10" d="M1137.5,600.8V495.6c0-1.7-2-2.5-3.2-1.2
			l-27.3,29.6c-1,1.1-0.3,2.9,1.2,3l29.2,1.9"/>
			<path fill="#CCC9E5" stroke="#CCC9E5" stroke-width="7" stroke-miterlimit="10" d="M1196.8,614.1V508.9c0-1.7-2-2.5-3.2-1.2
			l-27.3,29.6c-1,1.1-0.3,2.9,1.2,3l29.2,1.9"/>
			<path fill="#CCC9E5" stroke="#CCC9E5" stroke-width="7" stroke-miterlimit="10" d="M1249.9,631V525.8c0-1.7-2-2.5-3.2-1.2
			l-27.3,29.6c-1,1.1-0.3,2.9,1.2,3l29.2,1.9"/>
			<path fill="#CCC9E5" stroke="#CCC9E5" stroke-width="7" stroke-miterlimit="10" d="M1309.3,644.3V539.1c0-1.7-2-2.5-3.2-1.2
			l-27.3,29.6c-1,1.1-0.3,2.9,1.2,3l29.2,1.9"/>
			<path fill="#CCC9E5" stroke="#CCC9E5" stroke-width="7" stroke-miterlimit="10" d="M1367.3,663V557.8c0-1.7-2-2.5-3.2-1.2
			l-27.3,29.6c-1,1.1-0.3,2.9,1.2,3l29.2,1.9"/>
			<path fill="#CCC9E5" stroke="#CCC9E5" stroke-width="7" stroke-miterlimit="10" d="M1426.6,676.3V571.1c0-1.7-2-2.5-3.2-1.2
			l-27.3,29.6c-1,1.1-0.3,2.9,1.2,3l29.2,1.9"/>
			<path
				fill-rule="evenodd"
				clip-rule="evenodd"
				fill="#CCC9E5"
				stroke="#CCC9E5"
				stroke-width="11"
				stroke-miterlimit="10"
				d="
			M1572.9,676.5L649.7,460.6c-15.7-3.7-30.7,8.2-30.7,24.3v292.6c0,13.8,11.2,25,25,25h61.8c-22.9,0-41.5-18.6-41.5-41.5V586.8
			c0-22.9,18.6-41.5,41.5-41.5h0c22.9,0,41.5,18.6,41.5,41.5V761c0,22.9-18.6,41.5-41.5,41.5H846c-22.9,0-41.5-18.6-41.5-41.5V617.5
			c0-22.9,18.6-41.5,41.5-41.5h0c22.9,0,41.5,18.6,41.5,41.5V761c0,22.9-18.6,41.5-41.5,41.5h141.7c-22.9,0-41.5-18.6-41.5-41.5
			V651.3c0-22.9,18.6-41.5,41.5-41.5h0c22.9,0,41.5,18.6,41.5,41.5V761c0,22.9-18.6,41.5-41.5,41.5h132.7
			c-22.9,0-41.5-18.6-41.5-41.5v-75.3c0-22.9,18.6-41.5,41.5-41.5l0,0c22.9,0,41.5,18.6,41.5,41.5V761c0,22.9-18.6,41.5-41.5,41.5
			h137.7c-22.9,0-41.5-18.6-41.5-41.5v-45.6c0-22.9,18.6-41.5,41.5-41.5s41.5,18.6,41.5,41.5V761c0,22.9-18.6,41.5-41.5,41.5h127.4
			c-22.9,0-41.5-18.6-41.5-41.5v-13.4c0-22.9,18.6-41.5,41.5-41.5c22.9,0,41.5,18.6,41.5,41.5V761c0,22.9-18.6,41.5-41.5,41.5h181.7
			c13.8,0,25-11.2,25-25v-76.7C1592.2,689.2,1584.2,679.1,1572.9,676.5z"/>
		</g>
	</g>
	<g id="EDIFICI_3">
		<g>
			<path
				fill-rule="evenodd"
				clip-rule="evenodd"
				fill="#CCC9E5"
				stroke="#CCC9E5"
				stroke-width="11"
				stroke-miterlimit="10"
				d="
			M1654,491.4h81.9c10.3,0,18.6-4.7,18.6-10.6v-17c0-3.9-3.7-7.4-9.7-9.3l-20.1-6.3l-20.8-6.5c-5.6-1.7-12.3-1.7-17.9,0l-20.8,6.5
			l-20.1,6.3c-6,1.9-9.7,5.4-9.7,9.3v17C1635.3,486.6,1643.7,491.4,1654,491.4z"/>
			<path fill-rule="evenodd" clip-rule="evenodd" fill="#5660A8" d="M1556.1,669.2h279.7c12.1,0,21.9-9.8,21.9-21.9v-95
			c0-12.1-9.8-21.9-21.9-21.9h-279.7c-12.1,0-21.9,9.8-21.9,21.9v95C1534.1,659.4,1544,669.2,1556.1,669.2z"/>
			<path fill-rule="evenodd" clip-rule="evenodd" fill="#5660A8" d="M1524.2,514.7h341.4c9.1,0,16.6-7.4,16.6-16.6v0
			c0-9.1-7.4-16.6-16.6-16.6h-341.4c-9.1,0-16.6,7.4-16.6,16.6v0C1507.6,507.3,1515.1,514.7,1524.2,514.7z"/>
			<path fill-rule="evenodd" clip-rule="evenodd" fill="#5660A8" d="M1557.5,808.1h279.7c12.1,0,21.9-9.8,21.9-21.9v-95
			c0-12.1-9.8-21.9-21.9-21.9h-279.7c-12.1,0-21.9,9.8-21.9,21.9v95C1535.5,798.3,1545.4,808.1,1557.5,808.1z"/>
			<path
				fill-rule="evenodd"
				clip-rule="evenodd"
				fill="#CCC9E5"
				stroke="#CCC9E5"
				stroke-width="11"
				stroke-miterlimit="10"
				d="
			M1526.7,676.2H1848c5.6,0,10.1-4.5,10.1-10.1l0,0v-5.5h0.5l0-0.1l-0.9-2.5c-1.5-4-5.2-6.6-9.5-6.6h-321.6c-4.2,0-8,2.6-9.5,6.6
			l-0.9,2.5l0,0.1h0.5v5.5l0,0C1516.6,671.6,1521.1,676.2,1526.7,676.2z"/>
			<path
				fill-rule="evenodd"
				clip-rule="evenodd"
				fill="#CCC9E5"
				stroke="#CCC9E5"
				stroke-width="11"
				stroke-miterlimit="10"
				d="
			M1539,538.2h312.2c4.8,0,8.7-3.9,8.7-8.7l0,0v-4.8h0.4l0-0.1l-1.8-4.4c-1.3-3.3-4.5-5.4-8.1-5.4h-310.8c-3.6,0-6.8,2.2-8.1,5.4
			l-1.8,4.4l0,0.1h0.4v4.8l0,0C1530.3,534.3,1534.2,538.2,1539,538.2z"/>
			<path
				fill-rule="evenodd"
				clip-rule="evenodd"
				fill="#CCC9E5"
				stroke="#CCC9E5"
				stroke-width="11"
				stroke-miterlimit="10"
				d="
			M1915.6,633.8v-81.7c0-8.2-3.4-14.8-7.6-14.8h-63.6c-4.2,0-7.6,6.6-7.6,14.8v81.7c0,8.2,3.4,14.8,7.6,14.8h63.6
			C1912.2,648.6,1915.6,642,1915.6,633.8z"/>
			<path
				fill-rule="evenodd"
				clip-rule="evenodd"
				fill="#CCC9E5"
				stroke="#CCC9E5"
				stroke-width="11"
				stroke-miterlimit="10"
				d="
			M1855.3,529.8h40.3c5.1,0,9.2-8,9.2-17.9v-28.7c0-6.5-1.8-12.6-4.8-15.7l-9.9-10.6l-10.2-11c-2.7-2.9-6.1-2.9-8.8,0l-10.3,11
			l-9.9,10.6c-2.9,3.1-4.8,9.2-4.8,15.7v28.7C1846.2,521.7,1850.3,529.8,1855.3,529.8z"/>
			<path fill-rule="evenodd" clip-rule="evenodd" fill="#5660A8" d="M1841.2,537.3h70c2.6,0,4.8-3.5,5.4-8.4v0
			c0.8-6.8-1.8-13.4-5.4-13.4h-70c-3.6,0-6.2,6.6-5.4,13.4v0C1836.4,533.9,1838.6,537.3,1841.2,537.3z"/>
			<path fill-rule="evenodd" clip-rule="evenodd" fill="#5660A8" d="M1841.2,670.4h70c2.6,0,4.8-3.5,5.4-8.4l0,0
			c0.8-6.8-1.8-13.4-5.4-13.4h-70c-3.6,0-6.2,6.6-5.4,13.4l0,0C1836.4,666.9,1838.6,670.4,1841.2,670.4z"/>
			<path
				fill-rule="evenodd"
				clip-rule="evenodd"
				fill="#CCC9E5"
				stroke="#CCC9E5"
				stroke-width="11"
				stroke-miterlimit="10"
				d="
			M1916.4,789.8V688.7c0-10.1-3.4-18.3-7.6-18.3h-63.6c-4.2,0-7.6,8.2-7.6,18.3v101.1c0,10.1,3.4,18.3,7.6,18.3h63.6
			C1913,808.1,1916.4,799.9,1916.4,789.8z"/>
			<path
				fill-rule="evenodd"
				clip-rule="evenodd"
				fill="#CCC9E5"
				stroke="#CCC9E5"
				stroke-width="11"
				stroke-miterlimit="10"
				d="
			M1574.9,633.8v-81.7c0-8.2-3.4-14.8-7.6-14.8h-63.6c-4.2,0-7.6,6.6-7.6,14.8v81.7c0,8.2,3.4,14.8,7.6,14.8h63.6
			C1571.5,648.6,1574.9,642,1574.9,633.8z"/>
			<path
				fill-rule="evenodd"
				clip-rule="evenodd"
				fill="#CCC9E5"
				stroke="#CCC9E5"
				stroke-width="11"
				stroke-miterlimit="10"
				d="
			M1514.7,529.8h40.3c5.1,0,9.2-8,9.2-17.9v-28.7c0-6.5-1.8-12.6-4.8-15.7l-9.9-10.6l-10.2-11c-2.7-2.9-6.1-2.9-8.8,0l-10.3,11
			l-9.9,10.6c-2.9,3.1-4.8,9.2-4.8,15.7v28.7C1505.5,521.7,1509.6,529.8,1514.7,529.8z"/>
			<path fill-rule="evenodd" clip-rule="evenodd" fill="#5660A8" d="M1500.6,537.3h70c2.6,0,4.8-3.5,5.4-8.4v0
			c0.8-6.8-1.8-13.4-5.4-13.4h-70c-3.6,0-6.2,6.6-5.4,13.4v0C1495.7,533.9,1498,537.3,1500.6,537.3z"/>
			<path fill-rule="evenodd" clip-rule="evenodd" fill="#5660A8" d="M1500.6,670.4h70c2.6,0,4.8-3.5,5.4-8.4l0,0
			c0.8-6.8-1.8-13.4-5.4-13.4h-70c-3.6,0-6.2,6.6-5.4,13.4l0,0C1495.7,666.9,1498,670.4,1500.6,670.4z"/>
			<path
				fill-rule="evenodd"
				clip-rule="evenodd"
				fill="#CCC9E5"
				stroke="#CCC9E5"
				stroke-width="11"
				stroke-miterlimit="10"
				d="
			M1575.8,789.8V688.7c0-10.1-3.4-18.3-7.6-18.3h-63.6c-4.2,0-7.6,8.2-7.6,18.3v101.1c0,10.1,3.4,18.3,7.6,18.3h63.6
			C1572.4,808.1,1575.8,799.9,1575.8,789.8z"/>
			<path fill-rule="evenodd" clip-rule="evenodd" fill="#CCC9E5" stroke="#CCC9E5" stroke-width="11" stroke-miterlimit="10" d="
			M1744.3,808.1v-54.4c0-32.7-18.8-59.2-42-59.2h-10c-23.2,0-42,26.5-42,59.2v54.4H1744.3z"/>
		</g>
	</g>
	<g id="NUVOLS">
		<path
			fill="#AFDCE3"
			d="M1726.5,227.9c0.2-2,0.2-3,0.2-4.7c0-28.6-23.2-51.5-51.7-51.5c-1.3,0-2.4,0.4-3.6,0.4
		c-7.6-19.1-26.1-32.7-48-32.7c-17.1,0-32.1,8.4-41.5,21.3c-3.3-0.7-6.7-1-10.1-1c-25,0-45.8,17.4-50.6,40.9
		c-16,4.1-28.6,14.3-33.7,27.3H1726.5z"/>
		<path fill="#AFDCE3" d="M1030.6,260.9c-0.9-18-15.7-32.3-33.9-32.3c-4.2,0-8.3,0.9-12,2.4c-3.2-20.5-20.9-36.3-42.3-36.3
		c-23.7,0-43,19.3-43,43c0,0.5,0.2,1.1,0.2,1.6c-0.5,0-1.1-0.3-1.6-0.3c-12.4,0-22.5,9.9-23.1,21.9H1030.6z"/>
		<path
			fill="#AFDCE3"
			d="M962.5,184.9c0.2-2,0.2-3,0.2-4.7c0-28.6-23.2-51.5-51.7-51.5c-1.3,0-2.4,0.4-3.6,0.4
		c-7.6-19.1-26.1-32.7-48-32.7c-17.1,0-32.1,8.4-41.5,21.3c-3.3-0.7-6.7-1-10.1-1c-25,0-45.8,17.4-50.6,40.9
		c-16,4.1-28.6,14.3-33.7,27.3H962.5z"/>
	</g>
	<g id="AVATAR">
		<g>
			<path fill="#261A11" d="M127.5,534.1"/>
			<path
				fill="#343434"
				d="M380,716.8h40.2c0,0,10.4-6.9,0-32.7c0,0,13.8-24.4,1.3-48.7c0,0,24.3-55.4,5.2-96.2c0,0,15.6-47-3.8-100
			c0,0,30-98.2-68.4-128.5c0,0-155.8-106.9-194,130.9c0,0-28,44.5-9.1,108.1c0,0-17.5,67.7,0,98.2c0,0-17.2,71.3,14,68.9l38.1,0.1"/>
			<g>
				<polygon fill="#676767" points="263.5,983.8 195.4,983.8 195.4,972.4 201.3,962 263.5,972.2 			"/>
				<polygon fill="#676767" points="314.6,984.4 382.8,985.7 383.5,974.3 377.6,962.1 315.5,970.3 			"/>
			</g>
			<polyline fill="#5660A8" points="315.4,972.3 377.6,962.1 365,776.2 211.9,776.2 201.3,962.1 263.5,972.3 		"/>
			<g>
				<path
					fill="#9999CC"
					d="M364.5,611.8c-8.6-8.6-22.6-8.6-31.1,0c-8.5,8.6-8.5,22.5,0,31l4.5,4.5c11,11,21.9,22.2,32.6,33.3
				c10.7,11.2,21.4,22.5,31.3,33.7c2.4,2.8,4.9,5.6,7.1,8.3l0.3,0.4l-2.4,3.6c-8.2,11.9-17.8,24.2-27.4,36.2L368,777l33.9,27.8
				l11.7-14.5c10-12.5,19.8-24.9,29.4-38.8l1.8-2.7l2.3-3.5c2-3.3,4.1-6.7,5.6-10.2c0.9-1.7,1.4-3.5,2.1-5.2
				c0.4-1.8,0.7-3.5,0.9-5.3l0.2-2.7l0.1-1.4c0-0.5-0.2-0.9-0.2-1.3c-0.4-1.8-0.8-3.5-1.2-5.2l-0.9-2.6c-0.3-0.9-0.5-1.7-1.1-2.5
				c-1-1.6-1.9-3.3-2.9-4.9l-3.4-4.7c-0.6-0.8-1.2-1.6-1.8-2.3l-1.5-1.9c-2.7-3.4-5.4-6.5-8.1-9.6c-10.8-12.3-21.7-23.8-32.7-35.2
				c-11-11.4-22-22.7-33.2-33.9L364.5,611.8z"/>
				<path
					fill="#9999CC"
					d="M247.6,642.8c8.5-8.5,8.6-22.3,0.1-31c-8.5-8.7-22.4-8.7-31.1-0.1l-4.5,4.5
				c-11.1,11.1-22.1,22.2-33.1,33.6c-11,11.3-21.8,22.7-32.6,34.8c-2.7,3-5.4,6.1-8.1,9.4l-2.6,3.2c-1.2,1.5-2.3,3.1-3.5,4.6
				l-1.7,2.3l-1.5,2.4c-1,1.6-2,3.2-2.5,5l-0.9,2.5l-0.6,2.6c-0.3,1.7-1.1,3.5-0.7,5.3c0.2,3.6,0.6,7.1,2.1,10.6
				c1.4,3.5,3.2,6.9,5.1,10.3c0.5,0.9,1,1.7,1.5,2.5l1.2,1.9l1.7,2.7c9.3,14.1,18.7,26.6,28.3,39.3l11.4,14.8l34.6-27.1L199,762.7
				c-9.2-12.1-18.5-24.6-26.4-36.5l-1.8-2.8l1.1-1.4c2.3-2.7,4.7-5.5,7.2-8.3c10-11.2,20.6-22.4,31.3-33.4
				c10.7-11.1,21.6-22.1,32.6-33L247.6,642.8z"/>
				<path fill="#9999CC" d="M349.6,604.8c-14.5-3.2-36.8-7.1-60-7.1c-23.3,0-45.6,3.9-60.2,7.1c-9.2,2-16.5,11.8-16.5,21.2v153H366
				V626C366,616.6,358.7,606.8,349.6,604.8z"/>
			</g>
			<path fill="#FBCC9A" d="M334.3,601.1c-12.7-2.2-28.1-4.3-43.9-4.3c-15.8,0-31.3,1.9-44,4.1l41.4,11.8c0.6,0.8,1.6,1.3,2.6,1.3l0,0
			c1,0,2-0.5,2.6-1.3L334.3,601.1z"/>
			<path fill="#FBCC9A" d="M321.7,582.3l2.3,17c0,0-14.4,17.6-33.7,17.6c-19.3,0-33.7-17.6-33.7-17.6l2.3-17H321.7z"/>
			<path fill="#ACCCCE" d="M213.9,778.8"/>
			<g>
				<ellipse fill="#CB9866" cx="395.7" cy="486.2" rx="19.8" ry="25.5"/>
				<ellipse fill="#FBCC9A" cx="181.7" cy="486.2" rx="19.8" ry="25.5"/>
				<path fill="#FBCC9A" d="M269.8,593.3c-47.9,0-86.7-39.3-86.7-87.8v-92.7c0-48.5,38.8-87.8,86.7-87.8h21.3v268.3H269.8z"/>
				<path fill="#CB9866" d="M307.6,593.3c47.9,0,86.7-39.3,86.7-87.8v-92.7c0-48.5-38.8-87.8-86.7-87.8h-18.8v268.3H307.6z"/>
			</g>
			<path fill="#271A12" d="M288.8,451.9"/>
			<circle fill="#FBCC9A" cx="290.8" cy="502.5" r="13.3"/>
			<path fill="#FBCC9A" d="M400.3,807.4l2.1-2.6L368.9,777l-2,2.5c-7.5,9.2-6.3,23,2.9,30.8C378.8,818.1,392.6,816.9,400.3,807.4z"/>
			<path fill="#FBCC9A" d="M211.4,778.9l-2-2.6l-34.2,27.1l2,2.6c7.5,9.7,21.3,11.3,30.6,3.6C217.2,802,218.7,788.3,211.4,778.9z"/>
			<path fill="#FBCC9A" d="M214.5,784.7c-3.1,2.4-7,2.7-8.6,0.6c-1.6-2.1-0.4-5.9,2.7-8.3c3.1-2.4,7-2.7,8.6-0.6
			C218.9,778.5,217.7,782.2,214.5,784.7z"/>
			<path fill="#FBCC9A" d="M363.5,785.2c3.1,2.4,7,2.7,8.6,0.6c1.6-2.1,0.4-5.9-2.7-8.3c-3.1-2.4-7-2.7-8.6-0.6
			C359.2,779,360.4,782.7,363.5,785.2z"/>
			<g>
				<g>
					<circle fill="#B57C36" stroke="#B57C36" stroke-width="0.8749" stroke-miterlimit="10" cx="242" cy="509.6" r="1.6"/>
					<circle fill="#B57C36" stroke="#B57C36" stroke-width="0.8749" stroke-miterlimit="10" cx="249.9" cy="508" r="1.6"/>
					<circle fill="#B57C36" stroke="#B57C36" stroke-width="0.8749" stroke-miterlimit="10" cx="242" cy="535.1" r="1.6"/>
					<circle fill="#B57C36" stroke="#B57C36" stroke-width="0.8749" stroke-miterlimit="10" cx="248.3" cy="517.5" r="1.6"/>
					<circle fill="#B57C36" stroke="#B57C36" stroke-width="0.8749" stroke-miterlimit="10" cx="255.1" cy="523.4" r="1.6"/>
					<circle fill="#B57C36" stroke="#B57C36" stroke-width="0.8749" stroke-miterlimit="10" cx="231.7" cy="511.1" r="1.6"/>
					<circle fill="#B57C36" stroke="#B57C36" stroke-width="0.8749" stroke-miterlimit="10" cx="238.1" cy="519.1" r="1.6"/>
					<circle fill="#B57C36" stroke="#B57C36" stroke-width="0.8749" stroke-miterlimit="10" cx="236.6" cy="528.4" r="1.6"/>
					<circle fill="#B57C36" stroke="#B57C36" stroke-width="0.8749" stroke-miterlimit="10" cx="233.3" cy="535.9" r="1.6"/>
					<circle fill="#B57C36" stroke="#B57C36" stroke-width="0.8749" stroke-miterlimit="10" cx="225.4" cy="536.7" r="1.6"/>
					<circle fill="#B57C36" stroke="#B57C36" stroke-width="0.8749" stroke-miterlimit="10" cx="246.7" cy="526.8" r="1.6"/>
					<circle fill="#B57C36" stroke="#B57C36" stroke-width="0.8749" stroke-miterlimit="10" cx="236.2" cy="501.8" r="1.6"/>
					<circle fill="#B57C36" stroke="#B57C36" stroke-width="0.8749" stroke-miterlimit="10" cx="227.3" cy="503.2" r="1.6"/>
					<circle fill="#B57C36" stroke="#B57C36" stroke-width="0.8749" stroke-miterlimit="10" cx="249.6" cy="540.8" r="1.6"/>
					<circle fill="#B57C36" stroke="#B57C36" stroke-width="0.8749" stroke-miterlimit="10" cx="240.7" cy="542.2" r="1.6"/>
					<circle fill="#B57C36" stroke="#B57C36" stroke-width="0.8749" stroke-miterlimit="10" cx="253.1" cy="533.5" r="1.6"/>
					<circle fill="#B57C36" stroke="#B57C36" stroke-width="0.8749" stroke-miterlimit="10" cx="228.5" cy="520.7" r="1.6"/>
					<circle fill="#B57C36" stroke="#B57C36" stroke-width="0.8749" stroke-miterlimit="10" cx="228.5" cy="529.3" r="1.6"/>
					<circle fill="#B57C36" stroke="#B57C36" stroke-width="0.8749" stroke-miterlimit="10" cx="220.6" cy="512.7" r="1.6"/>
					<circle fill="#B57C36" stroke="#B57C36" stroke-width="0.8749" stroke-miterlimit="10" cx="219.8" cy="522.3" r="1.6"/>
					<circle fill="#B57C36" stroke="#B57C36" stroke-width="0.8749" stroke-miterlimit="10" cx="219.8" cy="529.3" r="1.6"/>
				</g>
				<g>
					<circle fill="#B57C36" stroke="#B57C36" stroke-width="0.8749" stroke-miterlimit="10" cx="326.4" cy="533.9" r="1.6"/>
					<circle fill="#B57C36" stroke="#B57C36" stroke-width="0.8749" stroke-miterlimit="10" cx="318.5" cy="532.3" r="1.6"/>
					<circle fill="#B57C36" stroke="#B57C36" stroke-width="0.8749" stroke-miterlimit="10" cx="336.3" cy="510.4" r="1.6"/>
					<circle fill="#B57C36" stroke="#B57C36" stroke-width="0.8749" stroke-miterlimit="10" cx="323.6" cy="524.1" r="1.6"/>
					<circle fill="#B57C36" stroke="#B57C36" stroke-width="0.8749" stroke-miterlimit="10" cx="319.7" cy="516.1" r="1.6"/>
					<circle fill="#B57C36" stroke="#B57C36" stroke-width="0.8749" stroke-miterlimit="10" cx="336.5" cy="536.4" r="1.6"/>
					<circle fill="#B57C36" stroke="#B57C36" stroke-width="0.8749" stroke-miterlimit="10" cx="333.7" cy="526.6" r="1.6"/>
					<circle fill="#B57C36" stroke="#B57C36" stroke-width="0.8749" stroke-miterlimit="10" cx="338.7" cy="518.6" r="1.6"/>
					<circle fill="#B57C36" stroke="#B57C36" stroke-width="0.8749" stroke-miterlimit="10" cx="344.6" cy="513" r="1.6"/>
					<circle fill="#B57C36" stroke="#B57C36" stroke-width="0.8749" stroke-miterlimit="10" cx="352.2" cy="515.3" r="1.6"/>
					<circle fill="#B57C36" stroke="#B57C36" stroke-width="0.8749" stroke-miterlimit="10" cx="328.7" cy="516.2" r="1.6"/>
					<circle fill="#B57C36" stroke="#B57C36" stroke-width="0.8749" stroke-miterlimit="10" cx="325.4" cy="507.5" r="1.6"/>
					<circle fill="#B57C36" stroke="#B57C36" stroke-width="0.8749" stroke-miterlimit="10" cx="343.1" cy="528.8" r="1.6"/>
					<circle fill="#B57C36" stroke="#B57C36" stroke-width="0.8749" stroke-miterlimit="10" cx="346.4" cy="520.9" r="1.6"/>
					<circle fill="#B57C36" stroke="#B57C36" stroke-width="0.8749" stroke-miterlimit="10" cx="347.4" cy="539.3" r="1.6"/>
					<circle fill="#B57C36" stroke="#B57C36" stroke-width="0.8749" stroke-miterlimit="10" cx="336.5" cy="503.3" r="1.6"/>
					<circle fill="#B57C36" stroke="#B57C36" stroke-width="0.8749" stroke-miterlimit="10" cx="347.4" cy="506.2" r="1.6"/>
					<circle fill="#B57C36" stroke="#B57C36" stroke-width="0.8749" stroke-miterlimit="10" cx="329.8" cy="543.6" r="1.6"/>
					<circle fill="#B57C36" stroke="#B57C36" stroke-width="0.8749" stroke-miterlimit="10" cx="340.7" cy="546.4" r="1.6"/>
					<circle fill="#B57C36" stroke="#B57C36" stroke-width="0.8749" stroke-miterlimit="10" cx="351.8" cy="530.7" r="1.6"/>
					<circle fill="#B57C36" stroke="#B57C36" stroke-width="0.8749" stroke-miterlimit="10" cx="354.5" cy="524.3" r="1.6"/>
				</g>
			</g>
			<g id="gafas6_10_">
				<g>
					<g>
						<path
							fill="#5660A8"
							d="M396.8,454.1c0-0.7-0.4-1.2-1-1.3c-0.5-0.1-0.9-0.3-1.4-0.3c-6.6-1.1-13.2-2.2-19.9-2.6
						c-5.3-0.4-10.7-0.6-16-0.9c-10.3-0.5-20.6-0.2-30.8,1.1c-6.3,0.8-12.4,2-18.4,4.1c-3,1-6,2.2-9.1,3.3
						c-4.7,1.6-9.6,2.3-14.5,1.3c-3-0.6-5.9-1.5-8.8-2.5c-5.2-1.8-10.4-3.5-15.8-4.6c-10.5-2-21-3-30.9-2.9c-8,0-15.2,0.3-22.4,1.2
						c-5.9,0.7-11.8,1.6-17.6,2.4c-1.2,0.2-2.5,0.6-3.7,0.9c-0.7,0.2-1.1,0.6-1.1,1.4c-0.1,3.7-0.2,7.3-0.3,11
						c0,0.6,0.1,1.1,0.2,1.7c0.1,0.5,0.3,0.8,0.7,1c0.4,0.2,0.9,0.4,1.3,0.7c1.9,1.4,2.9,3.6,3.6,5.8c0.5,1.6,0.9,3.2,1.3,4.9
						c0.3,1,0.6,2,0.8,3c1,4.8,2,9.6,3,14.3c1,4.5,2.3,9,4.4,13.2c2.3,4.6,5.6,8.2,10.3,10.3c2.8,1.2,5.8,2,8.8,2.5
						c5.4,0.9,10.8,1,16.3,0.6c5.5-0.4,11-1.3,16.3-3c3.9-1.3,7.7-3,10.8-5.8c4.8-4.3,8.7-9.5,11.7-15.4c3-5.9,5.1-12.2,6.9-18.5
						c0.5-1.8,1-3.7,1.7-5.5c0.9-2.6,2.7-4.3,5.4-4.7c0.9-0.1,1.7-0.2,2.6-0.1c2,0.1,3.9,0.6,5.3,2.3c0.6,0.8,1.1,1.6,1.5,2.5
						c0.7,1.7,1.4,3.5,2,5.3c2.4,7.9,5.5,15.3,9.4,22.4c3.3,5.9,7.6,10.7,13.3,14c4.1,2.3,8.4,3.8,12.9,4.7
						c6.8,1.4,13.6,1.7,20.5,1.4c4.2-0.2,8.3-0.7,12.3-2c4.1-1.3,7.7-3.4,10.4-7c1.7-2.3,3-4.9,4.1-7.7c2.2-5.8,3.7-11.8,5-17.8
						c0.6-3,1.3-5.9,2-8.9c0.4-1.5,0.8-3.1,1.2-4.6c0.4-1.4,0.7-2.9,1.6-4.1c0.9-1.2,1.8-2.5,3.2-3c0.6-0.2,1-0.7,1.1-1.3
						c0.1-0.5,0.2-1,0.2-1.5c0-2.2,0-4.4-0.1-6.6C397,457.2,396.9,455.6,396.8,454.1 M272.5,484.1c-1.4,6.4-3.8,12.4-6.9,18
						c-1.7,3.1-3.7,6-6.1,8.5c-3.3,3.3-7.2,5.2-11.5,6.4c-8.7,2.4-17.5,3-26.5,1.6c-1.7-0.3-3.5-0.8-5.2-1.2c-3.5-1-6.2-3.1-8.3-6.3
						c-2.3-3.5-3.6-7.4-4.6-11.6c-1.2-5.4-1.9-10.8-2.4-16.3c-0.3-3.2-0.2-6.4,0.1-9.5c0.2-1.6,0.3-3.2,0.7-4.8
						c1.2-5.6,4.5-9.1,9.7-10.5c4.8-1.3,9.7-2.1,14.6-2.5c3.6-0.3,7.3-0.5,9.7-0.6c8.4,0.1,15.5,0.7,22.4,2.4
						c2.8,0.7,5.7,1.3,8.3,2.8c1.3,0.7,2.5,1.6,3.6,2.5c1.8,1.6,2.8,3.8,3.2,6.2C274,474.2,273.6,479.2,272.5,484.1 M381.1,481.8
						c-0.2,7.7-1.4,15.2-4,22.5c-1.1,2.9-2.5,5.6-4.6,7.8c-2.4,2.5-5.4,3.8-8.6,4.7c-4,1.1-8.1,1.4-12.2,1.4
						c-6.2,0.1-12.3-0.8-18.4-2.1c-6-1.3-10.8-4.7-14.6-9.7c-4.9-6.4-8-13.7-9.8-21.7c-0.8-3.7-1.5-7.4-1.4-11.2
						c0-1.6,0.2-3.3,0.5-4.9c0.7-4,3-6.7,6.6-8.2c3.6-1.5,7.3-2.4,11-3.2c4.2-0.9,8.4-1.5,12.6-1.8c3.3-0.2,6.6-0.3,8.9-0.4
						c8.9,0.5,16.7,1.1,24.2,3.4c1.4,0.4,2.7,1.1,4,1.7c1.2,0.6,2.2,1.6,2.8,2.9c0.7,1.4,1.4,2.9,1.9,4.4c0.6,1.8,0.8,3.6,0.8,5.5
						C381.1,475.9,381.2,478.8,381.1,481.8 M388.2,461"/>
					</g>
				</g>
			</g>
			<path fill="#343434" d="M424.4,448.1c0,0,30-98.2-68.4-128.5c0,0-155.8-106.9-194,130.9v30.2l61.7-28.1c0,0,104.2-35.6,126.5-79.1
			c0,0-11.4,54.9,5.8,74.6c0,0,23.7,53.5,36.7,64.6C392.6,512.7,421.3,498.7,424.4,448.1z"/>
		</g>
	</g>
	<g id="LES_CORTS">
		<g>
			<path
				fill="#FFFFFF"
				stroke="#FFFFFF"
				stroke-width="15"
				stroke-miterlimit="10"
				d="M1831.9,982.2c12.6,0,22.8-10.2,22.8-22.8
			V799.2c0-12.6-10.2-22.8-22.8-22.8h0c-5,0-9.1-4.1-9.1-9.1v-5c0-5,4.1-9.1,9.1-9.1h0c25.4,0,46.1,20.6,46.1,46.1v160.3
			c0,25.4-20.6,46-46,46h0c-5,0-9.1-4.1-9.1-9.1v-5C1822.7,986.3,1826.8,982.2,1831.9,982.2L1831.9,982.2z"/>
			<path
				fill="#FFFFFF"
				stroke="#FFFFFF"
				stroke-width="15"
				stroke-miterlimit="10"
				d="M522.8,982c-12.6,0-22.8-10.2-22.8-22.8V799
			c0-12.6,10.2-22.8,22.8-22.8h0c5,0,9.1-4.1,9.1-9.1v-5c0-5-4.1-9.1-9.1-9.1h0c-25.4,0-46.1,20.6-46.1,46.1v160.3
			c0,25.4,20.6,46,46,46h0c5,0,9.1-4.1,9.1-9.1v-5C531.9,986.1,527.8,982,522.8,982L522.8,982z"/>
			<g>
				<path fill="#FFFFFF" d="M624.3,926h58.8v41.5H575.3V779h49V926z"/>
				<path fill="#FFFFFF" d="M752.5,820.5V852h55.2v41.5h-55.2V926h58.2v41.5H703.5V779h107.2v41.5H752.5z"/>
				<path
					fill="#FFFFFF"
					d="M943.8,827.5c-9-7.5-20.5-12.5-32.5-12.5c-9,0-21,5.2-21,15.8c0,11,13.2,15.2,21.8,18l12.5,3.8
				c26.2,7.8,46.5,21,46.5,51.5c0,18.8-4.5,38-19.5,50.8c-14.8,12.5-34.5,17.8-53.5,17.8c-23.8,0-47-8-66.2-21.5l21-39.5
				c12.2,10.8,26.8,19.5,43.5,19.5c11.5,0,23.8-5.8,23.8-19c0-13.8-19.2-18.5-29.8-21.5c-30.8-8.8-51-16.8-51-53.2
				c0-38.2,27.2-63.2,65-63.2c19,0,42.2,6,59,15.5L943.8,827.5z"/>
				<path
					fill="#FFFFFF"
					d="M1189.3,842.2c-10-13.5-26.2-20.8-43-20.8c-30,0-50.2,23-50.2,52.2c0,29.8,20.5,51.2,51,51.2
				c16,0,32-7.8,42.2-20v58.8c-16.2,5-28,8.8-43.2,8.8c-26.2,0-51.2-10-70.8-27.8c-20.8-18.8-30.2-43.2-30.2-71.2
				c0-25.8,9.8-50.5,27.8-69c18.5-19,45.2-30.5,71.8-30.5c15.8,0,30.2,3.5,44.8,9.5V842.2z"/>
				<path fill="#FFFFFF" d="M1404.8,869.7c0,61-43.8,104-104.2,104s-104.2-43-104.2-104c0-57,50-97,104.2-97
				S1404.8,812.7,1404.8,869.7z M1247.3,870c0,32.5,24,56.2,53.2,56.2s53.2-23.8,53.2-56.2c0-26-24-49.8-53.2-49.8
				S1247.3,844,1247.3,870z"/>
				<path fill="#FFFFFF" d="M1570.5,967.5h-61l-46.2-72.5h-0.5v72.5h-49V779h73.2c37.2,0,65.5,17.8,65.5,58c0,26-14.5,48.5-41.2,53.2
				L1570.5,967.5z M1462.8,863.5h4.8c16,0,34-3,34-23.5s-18-23.5-34-23.5h-4.8V863.5z"/>
				<path fill="#FFFFFF" d="M1645,967.5h-49v-147h-40.5V779h130v41.5H1645V967.5z"/>
				<path
					fill="#FFFFFF"
					d="M1793,827.5c-9-7.5-20.5-12.5-32.5-12.5c-9,0-21,5.2-21,15.8c0,11,13.2,15.2,21.8,18l12.5,3.8
				c26.2,7.8,46.5,21,46.5,51.5c0,18.8-4.5,38-19.5,50.8c-14.8,12.5-34.5,17.8-53.5,17.8c-23.8,0-47-8-66.2-21.5l21-39.5
				c12.2,10.8,26.8,19.5,43.5,19.5c11.5,0,23.8-5.8,23.8-19c0-13.8-19.2-18.5-29.8-21.5c-30.8-8.8-51-16.8-51-53.2
				c0-38.2,27.2-63.2,65-63.2c19,0,42.2,6,59,15.5L1793,827.5z"/>
			</g>
		</g>
	</g>
	<g id="ONADES_1_CAPA_SUPERIOR">
		<g>
			<path
				fill="none"
				stroke="#CEE3C3"
				stroke-width="30"
				stroke-linecap="round"
				stroke-linejoin="round"
				stroke-miterlimit="10"
				d="
			M29.7,974.9c46.5,0,46.5,6.4,93.1,6.4c46.5,0,46.5-6.4,93.1-6.4c46.5,0,46.5,6.4,93.1,6.4c46.5,0,46.5-6.4,93.1-6.4
			c46.5,0,46.5,6.4,93.1,6.4c46.5,0,46.5-6.4,93.1-6.4c46.5,0,46.5,6.4,93.1,6.4c46.5,0,46.5-6.4,93.1-6.4c46.5,0,46.5,6.4,93.1,6.4
			c46.5,0,46.5-6.4,93.1-6.4c46.5,0,46.5,6.4,93.1,6.4c46.5,0,46.5-6.4,93.1-6.4c46.5,0,46.5,6.4,93.1,6.4c46.5,0,46.5-6.4,93.1-6.4
			c46.5,0,46.5,6.4,93.1,6.4c46.5,0,46.5-6.4,93.1-6.4c46.5,0,46.5,6.4,93.1,6.4c46.5,0,46.5-6.4,93.1-6.4c46.5,0,46.5,6.4,93.1,6.4
			s46.5-6.4,93.1-6.4"/>
		</g>
	</g>
</svg>
