<?xml version="1.0" encoding="utf-8"?>
<!-- Generator: Adobe Illustrator 18.1.0, SVG Export Plug-In . SVG Version: 6.00 Build 0)  -->
<svg version="1.1" xmlns="http://www.w3.org/2000/svg" xmlns:xlink="http://www.w3.org/1999/xlink" x="0px" y="0px" viewBox="0 0 1920 1080" enable-background="new 0 0 1920 1080" xml:space="preserve">
	<g id="FONS">
		<path fill="#F29799" d="M1417.1,951.4v55.3c0,7.6,6.2,13.8,13.8,13.8h65.9c7.6,0,13.8-6.2,13.8-13.8v-55.3
		c0-7.6-6.2-13.8-13.8-13.8h-65.9C1423.2,937.7,1417.1,943.8,1417.1,951.4z"/>
		<rect x="0" y="0" fill="#E5AAAE" width="1920" height="1080"/>
	</g>
	<g id="SOL">
		<path fill="#FBCD00" d="M540.9,139.8c0-50.1,40.6-90.7,90.7-90.7c50.1,0,90.7,40.6,90.7,90.7c0,50.1-40.6,90.7-90.7,90.7
		C581.5,230.5,540.9,189.9,540.9,139.8z"/>
	</g>
	<g id="ONADES_1_CAPA_INFERIOR">
		<g>
			<path
				fill="none"
				stroke="#CEE3C3"
				stroke-width="30"
				stroke-linecap="round"
				stroke-linejoin="round"
				stroke-miterlimit="10"
				d="
			M72.5,755.9c44.5,0,44.5,6.4,89,6.4c44.5,0,44.5-6.4,89-6.4c44.5,0,44.5,6.4,89,6.4c44.5,0,44.5-6.4,89-6.4
			c44.5,0,44.5,6.4,89,6.4c44.5,0,44.5-6.4,89-6.4c44.5,0,44.5,6.4,89,6.4c44.5,0,44.5-6.4,89-6.4c44.5,0,44.5,6.4,89,6.4
			c44.5,0,44.5-6.4,89-6.4c44.5,0,44.5,6.4,89,6.4c44.5,0,44.5-6.4,89-6.4c44.5,0,44.5,6.4,89,6.4c44.5,0,44.5-6.4,89-6.4
			c44.5,0,44.5,6.4,89,6.4c44.5,0,44.5-6.4,89-6.4c44.5,0,44.5,6.4,89,6.4c44.5,0,44.5-6.4,89-6.4c44.5,0,44.5,6.4,89,6.4
			c44.5,0,44.5-6.4,89-6.4"/>
		</g>
		<path fill="none" stroke="#8E254D" stroke-width="4.167" stroke-miterlimit="10" d="M611.7,619.9"/>
		<g>
			<path
				fill="none"
				stroke="#CEE3C3"
				stroke-width="30"
				stroke-linecap="round"
				stroke-linejoin="round"
				stroke-miterlimit="10"
				d="
			M101.6,701.6c43.8,0,43.8,6.4,87.6,6.4c43.8,0,43.8-6.4,87.6-6.4c43.8,0,43.8,6.4,87.6,6.4c43.8,0,43.8-6.4,87.6-6.4
			c43.8,0,43.8,6.4,87.6,6.4c43.8,0,43.8-6.4,87.6-6.4c43.8,0,43.8,6.4,87.6,6.4c43.8,0,43.8-6.4,87.6-6.4c43.8,0,43.8,6.4,87.6,6.4
			c43.8,0,43.8-6.4,87.6-6.4c43.8,0,43.8,6.4,87.6,6.4c43.8,0,43.8-6.4,87.6-6.4c43.8,0,43.8,6.4,87.6,6.4c43.8,0,43.8-6.4,87.6-6.4
			c43.8,0,43.8,6.4,87.6,6.4c43.8,0,43.8-6.4,87.6-6.4c43.8,0,43.8,6.4,87.6,6.4c43.8,0,43.8-6.4,87.6-6.4c43.8,0,43.8,6.4,87.6,6.4
			s43.8-6.4,87.6-6.4"/>
		</g>
		<g>
			<path
				fill="none"
				stroke="#CEE3C3"
				stroke-width="30"
				stroke-linecap="round"
				stroke-linejoin="round"
				stroke-miterlimit="10"
				d="
			M135,652.6c43,0,43,6.4,85.9,6.4c43,0,43-6.4,85.9-6.4c43,0,43,6.4,85.9,6.4c43,0,43-6.4,85.9-6.4c43,0,43,6.4,85.9,6.4
			c43,0,43-6.4,85.9-6.4c43,0,43,6.4,85.9,6.4c43,0,43-6.4,85.9-6.4c43,0,43,6.4,85.9,6.4c43,0,43-6.4,85.9-6.4
			c43,0,43,6.4,85.9,6.4c43,0,43-6.4,85.9-6.4c43,0,43,6.4,85.9,6.4c43,0,43-6.4,85.9-6.4c43,0,43,6.4,85.9,6.4
			c43,0,43-6.4,85.9-6.4c43,0,43,6.4,85.9,6.4c43,0,43-6.4,85.9-6.4c43,0,43,6.4,85.9,6.4s43-6.4,85.9-6.4"/>
		</g>
		<g>
			<path
				fill="none"
				stroke="#CEE3C3"
				stroke-width="30"
				stroke-linecap="round"
				stroke-linejoin="round"
				stroke-miterlimit="10"
				d="
			M72.5,878.6c44.5,0,44.5,6.4,89,6.4c44.5,0,44.5-6.4,89-6.4c44.5,0,44.5,6.4,89,6.4c44.5,0,44.5-6.4,89-6.4
			c44.5,0,44.5,6.4,89,6.4c44.5,0,44.5-6.4,89-6.4c44.5,0,44.5,6.4,89,6.4c44.5,0,44.5-6.4,89-6.4c44.5,0,44.5,6.4,89,6.4
			c44.5,0,44.5-6.4,89-6.4c44.5,0,44.5,6.4,89,6.4c44.5,0,44.5-6.4,89-6.4c44.5,0,44.5,6.4,89,6.4c44.5,0,44.5-6.4,89-6.4
			c44.5,0,44.5,6.4,89,6.4c44.5,0,44.5-6.4,89-6.4c44.5,0,44.5,6.4,89,6.4c44.5,0,44.5-6.4,89-6.4c44.5,0,44.5,6.4,89,6.4
			c44.5,0,44.5-6.4,89-6.4"/>
		</g>
		<g>
			<path
				fill="none"
				stroke="#CEE3C3"
				stroke-width="30"
				stroke-linecap="round"
				stroke-linejoin="round"
				stroke-miterlimit="10"
				d="
			M72.5,817.3c44.5,0,44.5,6.4,89,6.4c44.5,0,44.5-6.4,89-6.4c44.5,0,44.5,6.4,89,6.4c44.5,0,44.5-6.4,89-6.4
			c44.5,0,44.5,6.4,89,6.4c44.5,0,44.5-6.4,89-6.4c44.5,0,44.5,6.4,89,6.4c44.5,0,44.5-6.4,89-6.4c44.5,0,44.5,6.4,89,6.4
			c44.5,0,44.5-6.4,89-6.4c44.5,0,44.5,6.4,89,6.4c44.5,0,44.5-6.4,89-6.4c44.5,0,44.5,6.4,89,6.4c44.5,0,44.5-6.4,89-6.4
			c44.5,0,44.5,6.4,89,6.4c44.5,0,44.5-6.4,89-6.4c44.5,0,44.5,6.4,89,6.4c44.5,0,44.5-6.4,89-6.4c44.5,0,44.5,6.4,89,6.4
			c44.5,0,44.5-6.4,89-6.4"/>
		</g>
	</g>
	<g id="MONTANYA" display="none"></g>
	<g id="CARRETERA">
		<path
			fill="#999999"
			d="M975.4-0.1c-0.4,0-21.2,0-42.5-0.1v475.8c0,62.4-50.8,113.2-113.2,113.2H241.4
		C129.2,588.9,38,680.1,38,792.3v285.8c21.4-0.1,43.7-0.1,47.1-0.1c0.4,0,21.7,0,43.2,0.1V792.3c0-62.4,50.8-113.2,113.2-113.2
		h578.2c112.2,0,203.4-91.3,203.4-203.4V-0.2C1001.5-0.1,978.7-0.1,975.4-0.1z"/>
		<path fill="#CDCCCC" d="M978,271.9c-2.8,0-5,2.2-5,5v90c0,2.8,2.2,5,5,5c2.8,0,5-2.2,5-5v-90C983,274.2,980.7,271.9,978,271.9z"/>
		<path fill="#CDCCCC" d="M978,91.9c-2.8,0-5,2.2-5,5v90c0,2.8,2.2,5,5,5c2.8,0,5-2.2,5-5v-90C983,94.2,980.7,91.9,978,91.9z"/>
		<path fill="#CDCCCC" d="M975.4-0.1c-0.1,0-0.9,0-2.4,0v7c0,2.8,2.2,5,5,5c2.8,0,5-2.2,5-5v-7C979.1-0.1,976.4-0.1,975.4-0.1z"/>
		<path fill="#CDCCCC" d="M978,451.9c-2.8,0-5,2.2-5,5v18.7c0,23.4-5.1,45.8-15.2,66.7c-1.2,2.5-0.2,5.5,2.3,6.7
		c0.7,0.3,1.4,0.5,2.2,0.5c1.9,0,3.6-1,4.5-2.8c10.8-22.2,16.2-46.1,16.2-71v-18.7C983,454.2,980.7,451.9,978,451.9z"/>
		<path fill="#CDCCCC" d="M907,607.8c-1.5-2.3-4.5-3.1-6.9-1.6c-24.1,14.9-52,22.8-80.5,22.8h-2.5c-2.8,0-5,2.2-5,5c0,2.8,2.2,5,5,5
		h2.5c30.4,0,60-8.4,85.8-24.3C907.8,613.2,908.5,610.2,907,607.8z"/>
		<path fill="#CDCCCC" d="M372.2,634c0-2.8-2.2-5-5-5h-90c-2.8,0-5,2.2-5,5c0,2.8,2.2,5,5,5h90C369.9,639,372.2,636.8,372.2,634z"/>
		<path fill="#CDCCCC" d="M552.2,634c0-2.8-2.2-5-5-5h-90c-2.8,0-5,2.2-5,5c0,2.8,2.2,5,5,5h90C549.9,639,552.2,636.8,552.2,634z"/>
		<path fill="#CDCCCC" d="M732.2,634c0-2.8-2.2-5-5-5h-90c-2.8,0-5,2.2-5,5c0,2.8,2.2,5,5,5h90C729.9,639,732.2,636.8,732.2,634z"/>
		<path fill="#CDCCCC" d="M83.1,1052.8c2.8,0,5-2.2,5-5v-90c0-2.8-2.2-5-5-5c-2.8,0-5,2.2-5,5v90
		C78.1,1050.5,80.3,1052.8,83.1,1052.8z"/>
		<path fill="#CDCCCC" d="M83.1,872.8c2.8,0,5-2.2,5-5v-75.4c0-4.7,0.2-9.4,0.6-14.1c0.2-2.8-1.8-5.2-4.5-5.4
		c-2.7-0.2-5.2,1.8-5.4,4.5c-0.5,5-0.7,10-0.7,15v75.4C78.1,870.5,80.3,872.8,83.1,872.8z"/>
		<path fill="#CDCCCC" d="M193,641.5c-0.9-2.6-3.8-4-6.4-3c-29.3,10.4-55,29-74.2,53.7c-1.7,2.2-1.3,5.3,0.9,7c0.9,0.7,2,1.1,3.1,1.1
		c1.5,0,3-0.7,4-1.9c18-23.2,42.1-40.6,69.6-50.4C192.5,646.9,193.9,644.1,193,641.5z"/>
	</g>
	<g id="EDIFICI_1">
		<g>
			<path fill="none" stroke="#8E254D" stroke-width="4.9178" stroke-miterlimit="10" d="M1069.3,455.1"/>
			<path
				fill="#CC6566"
				d="M1086.4,176.9h5.3c4.2,0,7.9,2.1,10.6,5.3c0.9,1.1,2.6,2,5.7,2h168.7c0,0,3.5,0.3,5.2-1.7
			c2.8-3.3,6.7-5.5,11.1-5.5h2.9c7.6,0,13.8,6.2,13.8,13.8V635c0,7.6-6.2,13.8-13.8,13.8h-209.3c-7.6,0-13.8-6.2-13.8-13.8V190.8
			C1072.6,183.1,1078.8,176.9,1086.4,176.9z"/>
			<path fill="none" stroke="#8E254D" stroke-width="4.9178" stroke-miterlimit="10" d="M1070.3,360.9"/>
			<path fill="#E5AAAE" d="M1189.3,567.9h25.4c3.6,0,6.8,1.9,8.7,5c0.3,0.5,0.6,0.9,1,1.3c1.9,2,3,4.5,3,7.2v57.3
			c0,5.6-4.6,10.2-10.2,10.2h-54c-5.6,0-10.2-4.6-10.2-10.2v-57.3c0-2.7,1.1-5.2,3-7.2c0.3-0.4,0.7-0.8,1-1.3c1.9-3,5.2-5,8.7-5
			h25.4"/>
			<path
				fill="#E5AAAE"
				d="M1110.7,567.9h14.1c3.6,0,6.8,2.1,8.3,5.3c0.2,0.5,0.5,0.9,0.7,1.2c1.1,1.6,1.7,3.4,1.7,5.3v60
			c0,5-4.1,9.1-9.1,9.1h-30.2c-5,0-9.1-4.1-9.1-9.1v-60c0-1.9,0.6-3.7,1.7-5.3c0.2-0.3,0.5-0.7,0.7-1.2c1.5-3.2,4.7-5.3,8.3-5.3
			h14.1"/>
			<path
				fill="#E5AAAE"
				d="M1272.2,567.9h13.1c4,0,7.6,2.3,9.5,5.8c0.2,0.3,0.3,0.5,0.5,0.8c1.2,1.7,1.7,3.7,1.7,5.8v57.9
			c0,5.9-4.8,10.6-10.6,10.6h-27.1c-5.9,0-10.6-4.8-10.6-10.6v-57.9c0-2.1,0.6-4.1,1.7-5.8c0.2-0.2,0.3-0.5,0.5-0.8
			c1.9-3.5,5.5-5.8,9.5-5.8h13.1"/>
			<path fill="#E5AAAE" d="M1279.9,241.8v47.5c0,0-21.1,6.9-44.9-0.1c0,0-20.2-7-52.5,1.9c0,0-18.2,4.3-36.9-1.9c0,0-26.9-6.5-44.7,0
			v-47.5c0,0,27.4-7.8,47.9,0.7c0,0,19.9,4.2,35.4,0.6c0,0,22.9-7.2,40.1-3.3S1272.2,246.8,1279.9,241.8z"/>
			<path fill="#E5AAAE" d="M1279.9,323.4v47.5c0,0-21.1,6.9-44.9-0.1c0,0-20.2-7-52.5,1.9c0,0-18.2,4.3-36.9-1.9c0,0-26.9-6.5-44.7,0
			v-47.5c0,0,27.4-7.8,47.9,0.7c0,0,19.9,4.2,35.4,0.6c0,0,22.9-7.2,40.1-3.3C1241.5,325.3,1272.2,328.4,1279.9,323.4z"/>
			<path fill="#E5AAAE" d="M1280.6,401.4v47.5c0,0-21.1,6.9-44.9-0.1c0,0-20.2-7-52.5,1.9c0,0-18.2,4.3-36.9-1.9c0,0-26.9-6.5-44.7,0
			v-47.5c0,0,27.4-7.8,47.9,0.7c0,0,19.9,4.2,35.4,0.6c0,0,22.9-7.2,40.1-3.3C1242.2,403.3,1272.9,406.4,1280.6,401.4z"/>
			<path fill="#E5AAAE" d="M1279.8,478.8v47.5c0,0-21.1,6.9-44.9-0.1c0,0-20.2-7-52.5,1.9c0,0-18.2,4.3-36.9-1.9c0,0-26.9-6.5-44.7,0
			v-47.5c0,0,27.4-7.8,47.9,0.7c0,0,19.9,4.2,35.4,0.6c0,0,22.9-7.2,40.1-3.3C1241.3,480.7,1272,483.8,1279.8,478.8z"/>
		</g>
	</g>
	<g id="EDIFICI_2">
		<g>
			<path
				fill="#CC6566"
				d="M615.2,433.3H455.9c-8.8,0-15.9,9.1-15.9,20.3v91.7V571c0,11.2,7.1,20.3,15.9,20.3h159.3
			c8.8,0,15.9-9.1,15.9-20.3v-25.7v-91.7C631.1,442.4,624,433.3,615.2,433.3z M525.9,472.9c0-5.7,4.6-10.3,10.3-10.3l0,0
			c5.7,0,10.3,4.6,10.3,10.3v32.2c0,5.7-4.6,10.3-10.3,10.3l0,0c-5.7,0-10.3-4.6-10.3-10.3V472.9z M550.3,556.8h-28.2
			c0,0-6.4-37.5,14.1-38.3C556.7,519.2,550.3,556.8,550.3,556.8z"/>
			<path fill="#CC6566" d="M235.9,591.3H421c4.2,0,7.6-3.4,7.6-7.6v-77.5c0-4.2-3.4-7.6-7.6-7.6l0,0c-4.2,0-7.6,3.4-7.6,7.6v13.8
			c0,4.2-3.4,7.6-7.6,7.6H235.9c-4.2,0-7.6,3.4-7.6,7.6v48.5C228.3,587.9,231.7,591.3,235.9,591.3z"/>
			<path fill="#CC6566" d="M832.7,588.6H647.6c-4.2,0-7.6-3.4-7.6-7.6v-77.5c0-4.2,3.4-7.6,7.6-7.6l0,0c4.2,0,7.6,3.4,7.6,7.6v13.8
			c0,4.2,3.4,7.6,7.6,7.6h169.9c4.2,0,7.6,3.4,7.6,7.6V581C840.3,585.2,836.9,588.6,832.7,588.6z"/>
			<circle fill="#CC6566" cx="420.8" cy="489.5" r="9.1"/>
			<circle fill="#CC6566" cx="647.4" cy="486.8" r="9.1"/>
			<path fill="#CC6566" d="M587.8,423.4l-50.1-8.5c-0.3,0-0.6,0-0.8,0l-50.6,8.5c-3.1,0.5-2.7,5.1,0.4,5.1h100.7
			C590.5,428.5,590.9,423.9,587.8,423.4z"/>
		</g>
	</g>
	<g id="EDIFICI_3">
		<path fill="#CC6566" d="M1803,600.1l-23.7-563.4c-0.2-4.3-2.8-8.2-6.8-9.8c-5.4-2.1-10.1-1.5-13.6-0.3c-4.2,1.5-7,5.5-7.2,10
		l-21.9,563.5c-0.2,6.3,4.8,11.5,11.1,11.5h51.2C1798.2,611.6,1803.2,606.4,1803,600.1z"/>
		<path fill="#CC6566" d="M1793,700.1h-53.3c-6.6,0-12-5.4-12-12v-55.3c0-6.6,5.4-12,12-12h53.3c6.6,0,12,5.4,12,12v55.3
		C1805,694.7,1799.6,700.1,1793,700.1z"/>
	</g>
	<g id="ARBRES">
		<g>
			<rect x="213.5" y="475.9" fill="#CC9966" width="18" height="117"/>
			<path fill="#CEE3C3" d="M289.5,476.5c0,37.8-30.6,68.4-68.4,68.4h-0.2c-37.8,0-68.4-30.6-68.4-68.4v-0.2
			c0-37.8,30.6-68.4,68.4-68.4h0.2c37.8,0,68.4,30.6,68.4,68.4V476.5z"/>
		</g>
		<g>
			<rect x="726.5" y="499.9" fill="#CC9966" width="13" height="88"/>
			<path fill="#CEE3C3" d="M783.5,501.7c0,28.3-22.9,51.2-51.2,51.2h-0.6c-28.3,0-51.2-22.9-51.2-51.2v-0.6
			c0-28.3,22.9-51.2,51.2-51.2h0.6c28.3,0,51.2,22.9,51.2,51.2V501.7z"/>
		</g>
	</g>
	<g id="NUVOLS">
		<path
			fill="#AFDCE3"
			d="M340.6,215.9c0.2-2,0.2-3,0.2-4.7c0-28.6-23.2-51.5-51.7-51.5c-1.3,0-2.4,0.4-3.6,0.4
		c-7.6-19.1-26.1-32.7-48-32.7c-17.1,0-32.1,8.4-41.5,21.3c-3.3-0.7-6.7-1-10.1-1c-25,0-45.8,17.4-50.6,40.9
		c-16,4.1-28.6,14.3-33.7,27.3H340.6z"/>
		<path fill="#AFDCE3" d="M512.2,274.9c-0.2-2-0.2-3-0.2-4.7c0-28.6,23.2-51.5,51.7-51.5c1.3,0,2.4,0.4,3.6,0.4
		c7.6-19.1,26.1-32.7,48-32.7c17.1,0,32.1,8.4,41.5,21.3c3.3-0.7,6.7-1,10.1-1c25,0,45.8,17.4,50.6,40.9c16,4.1,28.6,14.3,33.7,27.3
		H512.2z"/>
		<path fill="#AFDCE3" d="M1273.1,281.9c0.9-18,15.7-32.2,33.9-32.2c4.2,0,8.3,1,12,2.4c3.2-20.5,20.9-36.3,42.3-36.3
		c23.7,0,43,19.3,43,43c0,0.5-0.2,1.1-0.2,1.6c0.5,0,1.1-0.3,1.6-0.3c12.4,0,22.5,9.9,23.1,21.9H1273.1z"/>
	</g>
	<g id="NOU_BARRIS" ng-click="">
		<g>
			<path
				fill="#FFFFFF"
				stroke="#FFFFFF"
				stroke-width="15"
				stroke-miterlimit="10"
				d="M1834.2,935.5c12.6,0,22.8-10.2,22.8-22.8
			V752.5c0-12.6-10.2-22.8-22.8-22.8h0c-5,0-9.1-4.1-9.1-9.1v-5c0-5,4.1-9.1,9.1-9.1l0,0c25.4,0,46.1,20.6,46.1,46.1v160.3
			c0,25.4-20.6,46-46,46h0c-5,0-9.1-4.1-9.1-9.1v-5C1825.1,939.6,1829.2,935.5,1834.2,935.5L1834.2,935.5z"/>
			<path
				fill="#FFFFFF"
				stroke="#FFFFFF"
				stroke-width="15"
				stroke-miterlimit="10"
				d="M106,941.2c-12.6,0-22.8-10.2-22.8-22.8V758.2
			c0-12.6,10.2-22.8,22.8-22.8h0c5,0,9.1-4.1,9.1-9.1v-5c0-5-4.1-9.1-9.1-9.1h0c-25.4,0-46.1,20.6-46.1,46.1v160.3
			c0,25.4,20.6,46,46,46h0c5,0,9.1-4.1,9.1-9.1v-5C115.2,945.3,111.1,941.2,106,941.2L106,941.2z"/>
			<g>
				<path
					fill="#FFFFFF"
					d="M220.3,790.1c-9-7.5-20.5-12.5-32.5-12.5c-9,0-21,5.2-21,15.8c0,11,13.2,15.2,21.8,18l12.5,3.8
				c26.2,7.8,46.5,21,46.5,51.5c0,18.8-4.5,38-19.5,50.8c-14.8,12.5-34.5,17.8-53.5,17.8c-23.8,0-47-8-66.2-21.5l21-39.5
				c12.2,10.8,26.8,19.5,43.5,19.5c11.5,0,23.8-5.8,23.8-19c0-13.8-19.2-18.5-29.8-21.5c-30.8-8.8-51-16.8-51-53.2
				c0-38.2,27.2-63.2,65-63.2c19,0,42.2,6,59,15.5L220.3,790.1z"/>
				<path fill="#FFFFFF" d="M300.8,897.3l-13,32.8h-52l72.5-188.5h53.5l71,188.5h-52.2l-12.2-32.8H300.8z M335.1,799.8h-0.5l-20.2,60
				h40.8L335.1,799.8z"/>
				<path fill="#FFFFFF" d="M430.1,741.6h49l89.7,115.2h0.5V741.6h49v188.5h-49l-89.7-115.5h-0.5v115.5h-49V741.6z"/>
				<path fill="#FFFFFF" d="M707.3,930.1h-49v-147h-40.5v-41.5h130v41.5h-40.5V930.1z"/>
				<path fill="#FFFFFF" d="M863.3,897.3l-13,32.8h-52l72.5-188.5h53.5l71,188.5h-52.2l-12.2-32.8H863.3z M897.6,799.8h-0.5l-20.2,60
				h40.8L897.6,799.8z"/>
				<path fill="#FFFFFF" d="M992.6,741.6h49l89.8,115.2h0.5V741.6h49v188.5h-49l-89.8-115.5h-0.5v115.5h-49V741.6z"/>
				<path fill="#FFFFFF" d="M1194.8,741.6h69.5c52.5,0,95.8,41.2,95.8,94.2s-43.5,94.2-95.8,94.2h-69.5V741.6z M1243.8,888.6h11
				c29.2,0,54.2-16,54.2-52.8c0-33.8-22.2-52.8-53.8-52.8h-11.5V888.6z"/>
				<path fill="#FFFFFF" d="M1521.6,930.1h-61l-46.2-72.5h-0.5v72.5h-49V741.6h73.2c37.2,0,65.5,17.8,65.5,58
				c0,26-14.5,48.5-41.2,53.2L1521.6,930.1z M1413.8,826.1h4.8c16,0,34-3,34-23.5s-18-23.5-34-23.5h-4.8V826.1z"/>
				<path fill="#FFFFFF" d="M1565.8,783.1v31.5h55.2v41.5h-55.2v32.5h58.2v41.5h-107.2V741.6h107.2v41.5H1565.8z"/>
				<path fill="#FFFFFF" d="M1799.8,741.6v106c0,24.2-1,48.2-19.8,66.5c-15.8,15.5-40.5,21-62.5,21s-46.8-5.5-62.5-21
				c-18.8-18.2-19.8-42.2-19.8-66.5v-106h49v99.2c0,24.5,1.8,51.2,33.2,51.2s33.2-26.8,33.2-51.2v-99.2H1799.8z"/>
			</g>
		</g>
	</g>
	<g id="AVATAR">
		<g>
			<path fill="#ACCCCE" d="M1543.7,524.6"/>
			<g>
				<g>
					<ellipse fill="#CB9866" cx="1704.1" cy="266.4" rx="17.5" ry="22.5"/>
				</g>
			</g>
			<g>
				<g>
					<ellipse fill="#FBCC9A" cx="1515.3" cy="266.4" rx="17.5" ry="22.5"/>
				</g>
			</g>
			<g>
				<path
					fill="#FBCC9B"
					d="M1681.1,376.1c-7.6-7.6-19.9-7.6-27.4,0c-7.5,7.6-7.5,19.8,0,27.3l3.9,4c9.7,9.7,19.3,19.6,28.8,29.4
				c9.5,9.9,18.9,19.8,27.6,29.8c2.1,2.5,4.3,5,6.2,7.4l0.3,0.4l-2.1,3.2c-7.3,10.5-15.7,21.3-24.2,31.9l-10.1,12.4l30,24.6
				l10.4-12.8c8.8-11,17.4-22,25.9-34.3l1.6-2.4l2-3.1c1.8-2.9,3.6-5.9,5-9c0.8-1.5,1.3-3.1,1.8-4.6c0.4-1.6,0.6-3.1,0.8-4.7
				l0.2-2.4l0.1-1.2c0-0.4-0.1-0.8-0.2-1.2c-0.4-1.6-0.7-3.1-1.1-4.6l-0.8-2.3c-0.3-0.8-0.5-1.5-1-2.2c-0.9-1.4-1.6-2.9-2.6-4.3
				l-3-4.2c-0.5-0.7-1-1.4-1.5-2l-1.4-1.7c-2.4-3-4.8-5.7-7.2-8.5c-9.5-10.8-19.1-21-28.8-31.1c-9.7-10.1-19.4-20-29.3-29.9
				L1681.1,376.1z"/>
			</g>
			<g>
				<path
					fill="#FBCC9A"
					d="M1550.8,376.1c7.6-7.6,19.9-7.6,27.4,0c7.5,7.6,7.5,19.8,0,27.3l-3.9,4c-9.7,9.7-19.3,19.6-28.8,29.4
				c-9.5,9.9-18.9,19.8-27.6,29.8c-2.1,2.5-4.3,5-6.2,7.4l-0.3,0.4l2.1,3.2c7.3,10.5,15.7,21.3,24.2,31.9l10.1,12.4l-30,24.6
				l-10.4-12.8c-8.8-11-17.4-22-25.9-34.3l-1.6-2.4l-2-3.1c-1.8-2.9-3.6-5.9-5-9c-0.8-1.5-1.3-3.1-1.8-4.6c-0.4-1.6-0.6-3.1-0.8-4.7
				l-0.2-2.4l-0.1-1.2c0-0.4,0.1-0.8,0.2-1.2c0.4-1.6,0.7-3.1,1.1-4.6l0.8-2.3c0.3-0.8,0.5-1.5,1-2.2c0.9-1.4,1.6-2.9,2.6-4.3l3-4.2
				c0.5-0.7,1-1.4,1.5-2l1.4-1.7c2.4-3,4.8-5.7,7.2-8.5c9.5-10.8,19.1-21,28.8-31.1c9.7-10.1,19.4-20,29.3-29.9L1550.8,376.1z"/>
			</g>
			<g>
				<g>
					<path fill="#9A3334" d="M1714.5,410.3c-9.6-10.2-19.4-20.2-29.2-30l-4-4.2c-7.6-7.6-20.1-7.4-27.6,0.3c-7.5,7.6-7.5,19.8,0,27.3
					l3.9,4c9.7,9.7,19.3,19.6,28.8,29.4"/>
				</g>
			</g>
			<g>
				<g>
					<path fill="#9A3334" d="M1546,436.4c9.5-9.8,18.6-19.4,28.3-29l4-3.9c7.5-7.5,7.6-19.7,0.1-27.3c-7.5-7.6-19.8-7.7-27.4-0.1
					l-4,4c-9.8,9.8-19.3,19.6-29,29.6"/>
				</g>
			</g>
			<g>
				<g>
					<path fill="#9A3334" d="M1668.2,369.9c-12.8-2.8-32.5-6.3-53-6.3c-20.5,0-40.3,3.5-53.1,6.3c-8.1,1.8-14.5,10.4-14.5,18.7v135
					h135.1v-135C1682.7,380.3,1676.2,371.7,1668.2,369.9z"/>
				</g>
			</g>
			<rect x="1547.6" y="477.2" fill="#4E4E4E" width="135.1" height="46.4"/>
			<polyline fill="#4E4E4E" points="1620.8,477.2 1648.3,463.7 1674.8,477.2 		"/>
			<path fill="#FBCC9A" d="M1693.5,685.2l-11.2-164h-135.1l-9.3,164l54.9,9l8.3-133c0.3-5.5,5.1-10,10.6-10h7.7
			c5.5,0,10.3,4.5,10.6,10l8.5,133L1693.5,685.2z"/>
			<path fill="#70706F" d="M1700,601.6l-17.6-80.4h-135.1l-14.1,81.5l69.1,5l-1.1-46.5c0.3-5.5,5.1-10,10.6-10h7.7
			c5.5,0,10.3,4.5,10.6,10l-1.1,46.5L1700,601.6z"/>
			<path fill="#FDD995" d="M1654.7,367.4c-11.2-1.9-24.8-3.8-38.7-3.8c-14,0-27.6,1.6-38.9,3.6l36.5,10.4c0.6,0.7,1.4,1.1,2.3,1.1
			l0,0c0.9,0,1.7-0.4,2.3-1.1L1654.7,367.4z"/>
			<path fill="#FDD995" d="M1643.6,350.8l2.1,15c0,0-12.7,15.6-29.7,15.6c-17,0-29.7-15.5-29.7-15.5l2.1-15H1643.6z"/>
			<path fill="#FBCC9A" d="M1712.2,548.7l1.9-2.3l-29.6-24.6l-1.8,2.2c-6.6,8.2-5.5,20.3,2.5,27.2
			C1693.2,558.2,1705.4,557.1,1712.2,548.7z"/>
			<path fill="#FBCC9A" d="M1549.1,524.3l-1.8-2.3l-30.1,23.9l1.8,2.3c6.6,8.5,18.8,9.9,27,3.2
			C1554.2,544.6,1555.5,532.6,1549.1,524.3z"/>
			<path fill="#ACCCCE" d="M1548.5,524.2"/>
			<path fill="#FBCC9A" d="M1551.9,529.4c-2.8,2.2-6.2,2.4-7.6,0.5c-1.4-1.9-0.4-5.2,2.4-7.3c2.8-2.2,6.2-2.4,7.6-0.5
			C1555.7,523.9,1554.6,527.2,1551.9,529.4z"/>
			<path fill="#FBCC9A" d="M1679.7,529.1c2.8,2.2,6.2,2.4,7.6,0.5c1.4-1.9,0.4-5.2-2.4-7.3c-2.8-2.2-6.2-2.4-7.6-0.5
			C1675.9,523.7,1677,527,1679.7,529.1z"/>
			<g>
				<g>
					<ellipse fill="#CB9866" cx="1708.9" cy="266" rx="17.5" ry="22.5"/>
				</g>
			</g>
			<g>
				<g>
					<path fill="#FBCC9A" d="M1597.8,360.5c-42.3,0-76.5-34.7-76.5-77.5v-81.8c0-42.8,34.3-77.5,76.5-77.5h18.8v236.7H1597.8z"/>
				</g>
			</g>
			<g>
				<g>
					<path fill="#CB9866" d="M1631.2,360.5c42.3,0,76.5-34.7,76.5-77.5v-81.8c0-42.8-34.3-77.5-76.5-77.5h-16.6v236.7H1631.2z"/>
				</g>
			</g>
			<path fill="#261911" d="M1614.6,235.7"/>
			<circle fill="#FBCC9A" cx="1616.4" cy="280.4" r="11.7"/>
			<polygon fill="#4E4E4E" points="1592.8,703.8 1532.7,703.8 1532.7,693.8 1537.9,684.6 1595,665.1 		"/>
			<polygon fill="#4E4E4E" points="1638.7,703.8 1698.8,703.8 1698.8,693.8 1693.6,684.6 1636.5,664.9 		"/>
			<path
				fill="#432525"
				d="M1708.8,277.1c-6.9,9.4-14.2,19.4-20.4,29.1c-2.9,4.5-5.4,9.2-7.8,13.9c-0.9,1.7-2.3,4.5-4.3,5.1
			c-2.5,0.7-6.3-3.8-8.6-5.1c-3.3-2-6.8-3.8-10.5-5.2c-8.3-3.2-18.2-4.8-26,0.4c-4,2.7-11.1,1.4-15.6,1.2c-4.3-0.2-6.9,1.3-10.8-1.2
			c-9.4-6.3-21.3-3.1-30.7,1.5c-2.3,1.2-4.6,2.5-6.8,3.9c-1.9,1.2-3.6,3.5-5.4,4.4c-2.5,1.3-4.6-0.9-5.8-3.1
			c-8.3-15.6-22.1-33.1-33.9-46.3c0,0-15.4,137.4,66.7,142.7c1.5,0.1,2.6-1.6,4.1-1.7c1.4-0.1,2.5,0.7,3.5,1.6
			c1.8,1.8,2.4,4.6,4.9,5.6c5.7,2.4,12,1.4,18,1.5c5.4,0.1,11.5,1.4,16.2-2c2.3-1.6,3.6-4.7,6.2-6c2.8-1.4,4.8,0.8,7.6,0.7
			c4.8-0.3,9.9-2,14.2-3.9c8.4-3.5,15.7-9.2,21.6-16.1c12.2-14.5,18.1-33.5,21.3-51.8c3-16.8,3.9-33.9,3.5-50.9
			C1709.7,289.3,1709.5,283.2,1708.8,277.1z M1651.1,346.9c0,0-20.1,12.4-26,3.5c-0.4-0.7,0.2-2.6-0.3-3.6c-1.6-2.9-7-1.9-9.3-1.7
			c-2.6,0.3-4.9-1.4-6.6,1.6c-0.6,1,0.1,3-0.4,3.6c-5.9,8.9-26-3.5-26-3.5c-34.4-26.6,23.8-24.9,33-24.5
			C1624.7,322,1685.5,320.2,1651.1,346.9z"/>
			<path
				fill="#9A3334"
				d="M1707.6,232.6c0,0-3.9-0.7-43.7,1.9c-33.4,2.2-46.1,12.5-49.4,12.5c-3.2,0-16-10.3-49.4-12.5
			c-39.8-2.6-43.7-1.9-43.7-1.9s-1.1,13.7,0,15.8c1.1,2.1,1.8,17.8,2.6,23.4c0.8,5.5,2.6,15.9,8.6,21.8c5.9,5.9,15.4,9.8,25.7,10.9
			c14.2,0.7,18.7-0.1,29.1-6.3c10.5-6.2,17.3-25.1,18.4-28.6c1.1-3.5,2.7-8.9,3.8-10.8c0.9-1.5,2.6-2,3.9-2.1v0.1
			c0,0,0.4-0.1,0.9-0.1c0.5,0,0.9,0.1,0.9,0.1v-0.1c1.3,0.1,3,0.5,3.9,2.1c1.1,1.9,2.7,7.3,3.8,10.8c1.1,3.5,7.9,22.4,18.4,28.6
			c10.5,6.2,14.9,7,29.1,6.3c10.4-1.1,19.8-5,25.7-10.9c5.9-5.9,7.7-16.3,8.6-21.8c0.8-5.5,1.5-21.3,2.6-23.4
			C1708.7,246.3,1707.6,232.6,1707.6,232.6z M1600.4,260.8c-1,5-2.9,21-12.7,29.5c-4.8,4.3-10.6,8.8-21.4,9.1
			c-7.8,0.1-23.4-1.8-29.3-9.4c-2.8-4.3-6.9-9-7.1-20.9c-0.1-11.9-0.2-21.3,2.1-23.6c0,0,3.9-4.8,8.2-5.8c4.3-1,16.5-1.7,28.6,0.8
			c12.2,2.5,23.8,6.4,26.8,9C1598.6,252.1,1601.4,255.8,1600.4,260.8z M1699.1,269.1c-0.1,11.9-4.3,16.6-7.1,20.9
			c-5.9,7.6-21.6,9.5-29.3,9.4c-10.8-0.3-16.6-4.8-21.4-9.1c-9.8-8.4-11.8-24.5-12.7-29.5c-1-5,1.8-8.7,4.8-11.3
			c3-2.6,14.7-6.5,26.8-9c12.2-2.5,24.3-1.8,28.6-0.8c4.3,1,8.2,5.8,8.2,5.8C1699.3,247.8,1699.3,257.2,1699.1,269.1z"/>
			<path fill="#4E4E4E" stroke="#4E4E4E" stroke-width="2" stroke-miterlimit="10" d="M1511.9,160.4c0,0-18.1,46.3,17.7,55.6
			c0,0,95.9,29,182.4-5.4c0,0,18.8-13.4,4.2-50.1C1716.2,160.4,1659.7,184.2,1511.9,160.4z"/>
			<path
				fill="#9A3334"
				stroke="#9A3334"
				stroke-width="2"
				stroke-miterlimit="10"
				d="M1716.2,160.4c6.5-1.7-9.2-10.7-9.2-10.7
			c9.9-20-9.7-70-10.3-71.6c-15.1-39.9-80.4-39.5-119.7-13.3c-27.1,18-45,47.2-57.5,75.8c-0.5,1.1-7.6,19.8-7.6,19.8
			C1511.9,160.4,1639.8,180.8,1716.2,160.4z"/>
		</g>
	</g>
	<g id="ONADES_1_CAPA_SUPERIOR">
		<g>
			<path
				fill="none"
				stroke="#CEE3C3"
				stroke-width="30"
				stroke-linecap="round"
				stroke-linejoin="round"
				stroke-miterlimit="10"
				d="
			M53,937.6c45.5,0,45.5,6.4,91,6.4c45.5,0,45.5-6.4,91-6.4c45.5,0,45.5,6.4,91,6.4c45.5,0,45.5-6.4,91-6.4c45.5,0,45.5,6.4,91,6.4
			c45.5,0,45.5-6.4,91-6.4c45.5,0,45.5,6.4,91,6.4c45.5,0,45.5-6.4,91-6.4c45.5,0,45.5,6.4,91,6.4c45.5,0,45.5-6.4,91-6.4
			c45.5,0,45.5,6.4,91,6.4c45.5,0,45.5-6.4,91-6.4c45.5,0,45.5,6.4,91,6.4c45.5,0,45.5-6.4,91-6.4c45.5,0,45.5,6.4,91,6.4
			c45.5,0,45.5-6.4,91-6.4c45.5,0,45.5,6.4,91,6.4c45.5,0,45.5-6.4,91-6.4c45.5,0,45.5,6.4,91,6.4s45.5-6.4,91-6.4"/>
		</g>
	</g>
</svg>
