<?xml version="1.0" encoding="utf-8"?>
<!-- Generator: Adobe Illustrator 18.1.0, SVG Export Plug-In . SVG Version: 6.00 Build 0)  -->
<svg version="1.1" xmlns="http://www.w3.org/2000/svg" xmlns:xlink="http://www.w3.org/1999/xlink" x="0px" y="0px" viewBox="0 0 1920 1080" enable-background="new 0 0 1920 1080" xml:space="preserve">
	<g id="avatar">
		<g>
			<path fill="#FBCC9A" d="M87.4,278.4L74.5,89.8H-80.9l-10.8,188.7l63.2,10.3l9.6-152.9c0.4-6.3,5.9-11.5,12.2-11.5h8.8
			c6.3,0,11.8,5.1,12.2,11.5l9.8,152.9L87.4,278.4z"/>
			<g>
				<path
					fill="#FBCC9A"
					d="M74-79.8c-8.7-8.8-22.9-8.8-31.6,0c-8.6,8.8-8.6,22.8,0,31.4l4.5,4.6C58.1-32.6,69.2-21.3,80.1-10
				C91,1.4,101.8,12.8,111.9,24.3c2.5,2.8,5,5.7,7.2,8.5l0.3,0.4l-2.4,3.7c-8.3,12.1-18.1,24.5-27.8,36.7L77.6,87.8L112,116
				l11.9-14.7c10.1-12.7,20-25.3,29.8-39.4l1.8-2.7l2.3-3.6c2-3.4,4.1-6.8,5.7-10.3c0.9-1.7,1.4-3.5,2.1-5.3
				c0.5-1.8,0.7-3.6,0.9-5.4l0.2-2.7l0.1-1.4c0-0.5-0.2-0.9-0.2-1.4c-0.4-1.8-0.8-3.5-1.3-5.3l-0.9-2.6c-0.3-0.9-0.5-1.7-1.1-2.6
				c-1-1.7-1.9-3.3-3-5L157,8.9c-0.6-0.8-1.2-1.6-1.8-2.3l-1.6-1.9c-2.8-3.4-5.5-6.6-8.3-9.7c-11-12.5-22-24.1-33.2-35.7
				c-11.1-11.6-22.4-23-33.7-34.4L74-79.8z"/>
			</g>
			<path fill="#FBCC9A" d="M110.4,118.2l2.1-2.6l-34-28.2l-2.1,2.6c-7.6,9.4-6.4,23.3,2.9,31.3C88.6,129.1,102.6,127.8,110.4,118.2z"/>
			<path fill="#FBCC9A" d="M73.1,95.7c3.2,2.5,7.1,2.7,8.8,0.6c1.7-2.2,0.4-6-2.7-8.4c-3.2-2.5-7.1-2.7-8.8-0.6
			C68.7,89.4,69.9,93.2,73.1,95.7z"/>
		</g>
	</g>
	<g id="Capa_33">
		<g>
			<g>
				<polygon fill="#9B4517" points="23.8,290.9 90.9,290.9 90.9,279.8 85.2,269.7 23.8,279.6 			"/>
			</g>
			<polyline fill="#9B4517" points="43.7,286.6 43.7,298.9 23.8,298.9 23.8,290.9 		"/>
		</g>
	</g>
	<g id="Capa_57">
		<polygon fill="#958218" points="23.7,293.5 99.3,293.5 99.3,280.6 92.8,268.9 23.7,280.3 	"/>
		<polyline fill="#958218" points="92.6,271 103.6,239.4 69.7,239.4 74,274 	"/>
	</g>
	<g id="Capa_58">
		<g>
			<polygon fill="#253E1E" points="23.4,289.6 90.6,289.6 90.6,278.4 84.8,267.2 23.4,277.3 		"/>
			<polyline fill="#253E1E" points="84.7,278 94.3,250.4 64.7,250.4 68.5,280.7 		"/>
		</g>
	</g>
	<g id="Capa_59">
		<g>
			<polygon fill="#3D3D3B" points="22.6,293.3 95.6,293.7 95.6,282 89.6,271.4 22.6,262.2 		"/>
			<polyline fill="#3D3D3B" points="89.5,271.7 95.7,250.4 58.3,241.8 60,276.1 		"/>
		</g>
	</g>
	<g id="Capa_60">
		<g>
			<g>
				<polygon fill="#FBCC9A" points="24,293.8 90.1,293.8 90.1,283.2 84.4,273.4 24,282.9 			"/>
				<polyline fill="#645030" points="24,288.6 24,294.2 91.1,294.2 91.1,288.7 			"/>
				<polyline fill="#645030" points="91.1,294.2 91.1,283.2 85.3,273.2 80.4,273.9 89,289.7 			"/>
			</g>
		</g>
	</g>
	<g id="Capa_36">
		<g>
			<g>
				<polygon fill="#4BB1B3" points="23.8,290.9 90.9,290.9 90.9,279.8 85.2,269.7 23,269.7 			"/>
			</g>
		</g>
	</g>
	<g id="Capa_34">
		<g>
			<g>
				<polygon fill="#FBCC9A" points="24.1,299.6 95.1,299.6 95.1,288 89,277.4 24.1,287.8 			"/>
				<g>
					<polyline fill="#40572C" points="24.1,294.1 24.1,300.1 95.1,300.1 95.1,294.3 				"/>
				</g>
				<polyline fill="#40572C" points="95.1,299.6 95.1,288 89.1,277.4 84,278.3 92.9,294.9 			"/>
				<polyline fill="#40572C" points="87.8,277.7 73.3,295.4 66.6,295.4 80.1,278.9 			"/>
			</g>
		</g>
	</g>
	<g id="Capa_35">
		<g>
			<polygon fill="#531E53" points="24.1,291.5 93.5,291.5 93.5,279.9 87.5,269.3 21.5,246.6 		"/>
		</g>
	</g>
	<g id="Capa_37">
		<g id="zapatos_2_4_">
			<polygon fill="#3D3D3B" points="23.5,292.4 92.9,292.4 92.9,280.8 87,270.2 23.5,280.5 		"/>
		</g>
	</g>
	<g id="Capa_37_copia">
		<g id="zapatos_2_2_">
			<polygon fill="#3D3F91" points="23.5,292.4 92.9,292.4 92.9,280.8 87,270.2 23.5,280.5 		"/>
		</g>
	</g>

	<g id="Capa_41">
		<path fill="#512A14" d="M-127.3-254.5c0,0,10.5-138.1,120.2-131.9c0,0,134.3-19.5,118.5,211.1L102.8,9.3c0,0-27.6,76.1-119.6,46.6
		c0,0-97.9-26.9-120-55.2C-159-27.7-128.1-248.3-127.3-254.5z"/>
	</g>

	<g id="Capa_53">
		<g>
			<g>
				<path
					fill="#92AA2D"
					d="M78.1-79.6c-8.9-8.9-23.4-8.9-32.2,0c-8.8,8.9-8.8,23.1,0,31.8l4.6,4.6c11.4,11.3,21,24.3,32.1,35.8
				c11.1,11.5,21,22.4,31.3,34c2.5,2.9,2.9,3.4,5.2,6.1l0,0l-2.1,4.1C108.5,49,99.1,61.2,89.2,73.5L78.9,87.3l33.9,27.8l16.6-17.4
				c10.3-12.8,20.1-19.7,30.1-34l1.9-2.7l2.4-3.6c2.1-3.4,4.2-6.9,5.8-10.4c1-1.8,1.5-3.6,2.1-5.4c0.5-1.8,0.8-3.6,1-5.5l0.2-2.8
				L173,32c0-0.5-0.2-0.9-0.3-1.4c-0.5-1.9-0.8-3.6-1.3-5.4l-0.9-2.6c-0.3-0.9-0.6-1.8-1.1-2.6c-1-1.7-1.9-3.4-3-5l-3.6-4.8
				c-0.6-0.8-1.2-1.6-1.8-2.4l-1.6-2c-2.8-3.5-5.6-6.7-8.4-9.9c-11.2-12.6-22.5-24.4-33.8-36.1C105.7-51.9,94.3-63.5,82.8-75
				L78.1-79.6z"/>
				<path fill="#253E1E" d="M62.6-86.9c-15-3.3-38.1-7.3-62.2-7.3c-24.1,0-47.3,4-62.3,7.3C-71.4-84.8-79-74.8-79-65.1v157H79.6v-157
				C79.6-74.8,72.1-84.8,62.6-86.9z"/>
			</g>
			<path fill="#92AA2D" d="M26.3-92.3c24.4,0,24.1,1.7,38.9,6.3c9.4,2.9,17.3,12.4,17.3,22.2L81.7,97.8l-50.2,74.9L26.3-92.3"/>
		</g>
	</g>

	<g id="Capa_51">
		<g>
			<g>
				<path
					fill="#6F8128"
					d="M78.1-79.6c-8.9-8.9-23.4-8.9-32.2,0c-8.8,8.9-8.8,23.1,0,31.8l4.6,4.6c11.4,11.3,21,24.3,32.1,35.8
				c11.1,11.5,21,22.4,31.3,34c2.5,2.9,2.9,3.4,5.2,6.1l0,0l-2.1,4.1C108.5,49,99.1,61.2,89.2,73.5L78.9,87.3l33.9,27.8l16.6-17.4
				c10.3-12.8,20.1-19.7,30.1-34l1.9-2.7l2.4-3.6c2.1-3.4,4.2-6.9,5.8-10.4c1-1.8,1.5-3.6,2.1-5.4c0.5-1.8,0.8-3.6,1-5.5l0.2-2.8
				L173,32c0-0.5-0.2-0.9-0.3-1.4c-0.5-1.9-0.8-3.6-1.3-5.4l-0.9-2.6c-0.3-0.9-0.6-1.8-1.1-2.6c-1-1.7-1.9-3.4-3-5l-3.6-4.8
				c-0.6-0.8-1.2-1.6-1.8-2.4l-1.6-2c-2.8-3.5-5.6-6.7-8.4-9.9c-11.2-12.6-22.5-24.4-33.8-36.1C105.7-51.9,94.3-63.5,82.8-75
				L78.1-79.6z"/>
				<path fill="#6F8128" d="M62.6-86.9c-15-3.3-38.1-7.3-62.2-7.3c-24.1,0-47.3,4-62.3,7.3C-71.4-84.8-79-74.8-79-65.1v157H79.6v-157
				C79.6-74.8,72.1-84.8,62.6-86.9z"/>
			</g>
		</g>
	</g>

	<g id="Capa_49">
		<g>
			<g>
				<path
					fill="#805E39"
					d="M78.1-79.6c-8.9-8.9-23.4-8.9-32.2,0c-8.8,8.9-8.8,23.1,0,31.8l4.6,4.6c11.4,11.3,21,24.3,32.1,35.8
				c11.1,11.5,21,22.4,31.3,34c2.5,2.9,2.9,3.4,5.2,6.1l0,0l-2.1,4.1C108.5,49,99.1,61.2,89.2,73.5L78.9,87.3l33.9,27.8l16.6-17.4
				c10.3-12.8,20.1-19.7,30.1-34l1.9-2.7l2.4-3.6c2.1-3.4,4.2-6.9,5.8-10.4c1-1.8,1.5-3.6,2.1-5.4c0.5-1.8,0.8-3.6,1-5.5l0.2-2.8
				L173,32c0-0.5-0.2-0.9-0.3-1.4c-0.5-1.9-0.8-3.6-1.3-5.4l-0.9-2.6c-0.3-0.9-0.6-1.8-1.1-2.6c-1-1.7-1.9-3.4-3-5l-3.6-4.8
				c-0.6-0.8-1.2-1.6-1.8-2.4l-1.6-2c-2.8-3.5-5.6-6.7-8.4-9.9c-11.2-12.6-22.5-24.4-33.8-36.1C105.7-51.9,94.3-63.5,82.8-75
				L78.1-79.6z"/>
				<path fill="#805E39" d="M62.6-86.9c-15-3.3-38.1-7.3-62.2-7.3c-24.1,0-47.3,4-62.3,7.3C-71.4-84.8-79-74.8-79-65.1v157H79.6v-157
				C79.6-74.8,72.1-84.8,62.6-86.9z"/>
			</g>
		</g>
	</g>

	<g id="Capa_23">
		<g>
			<path
				fill="#3D3F91"
				d="M78.1-79.6c-8.9-8.9-23.4-8.9-32.2,0c-8.8,8.9-8.8,23.1,0,31.8l4.6,4.6c11.4,11.3,21,24.3,32.1,35.8
			c11.1,11.5,21,22.4,31.3,34c2.5,2.9,2.9,3.4,5.2,6.1l0,0l-2.1,4.1C108.5,49,99.1,61.2,89.2,73.5L78.9,87.3l33.9,27.8l16.6-17.4
			c10.3-12.8,20.1-19.7,30.1-34l1.9-2.7l2.4-3.6c2.1-3.4,4.2-6.9,5.8-10.4c1-1.8,1.5-3.6,2.1-5.4c0.5-1.8,0.8-3.6,1-5.5l0.2-2.8
			L173,32c0-0.5-0.2-0.9-0.3-1.4c-0.5-1.9-0.8-3.6-1.3-5.4l-0.9-2.6c-0.3-0.9-0.6-1.8-1.1-2.6c-1-1.7-1.9-3.4-3-5l-3.6-4.8
			c-0.6-0.8-1.2-1.6-1.8-2.4l-1.6-2c-2.8-3.5-5.6-6.7-8.4-9.9c-11.2-12.6-22.5-24.4-33.8-36.1C105.7-51.9,94.3-63.5,82.8-75
			L78.1-79.6z"/>
			<path fill="#3D3F91" d="M62.6-86.9c-15-3.3-38.1-7.3-62.2-7.3c-24.1,0-47.3,4-62.3,7.3C-71.4-84.8-79-74.8-79-65.1v157H79.6v-157
			C79.6-74.8,72.1-84.8,62.6-86.9z"/>
		</g>
	</g>

	<g id="Capa_52">
		<g>
			<path fill="#9294C9" d="M80.8,94.5"/>
			<path fill="#9294C9" d="M61.5-85.6C46.3-89,23-93.1-1.3-93.1c-24.3,0-47.7,4.1-62.9,7.5c-9.6,2.1-17.2,12.3-17.2,22.1v160H78.7
			v-160C78.7-73.3,71-83.5,61.5-85.6z"/>
		</g>
	</g>

	<g id="Capa_24">
		<g>
			<path fill="#CDCCCC" d="M60.9-86.5c-15.3-3.3-38.8-7.3-63.4-7.3c-24.6,0-48.2,4-63.5,7.3c-9.7,2.1-17.4,12-17.4,21.6V91.2H78.3
			V-64.9C78.3-74.5,70.6-84.4,60.9-86.5z"/>
		</g>
	</g>

	<g id="Capa_50">
		<g>
			<path fill="#651511" d="M60.9-86.5c-15.3-3.3-38.8-7.3-63.4-7.3c-24.6,0-48.2,4-63.5,7.3c-9.7,2.1-17.4,12-17.4,21.6V91.2H78.3
			V-64.9C78.3-74.5,70.6-84.4,60.9-86.5z"/>
		</g>
		<rect x="-83.3" y="54.9" fill="#3D3D3B" width="161.7" height="36.9"/>
		<polyline fill="#3D3D3B" points="4.2,54.9 37.2,44.2 68.8,54.9 	"/>
	</g>

	<g id="Capa_25">
		<g>
			<g>
				<path
					fill="#9B4517"
					stroke="#9B4517"
					stroke-miterlimit="10"
					d="M77.5-80.9c-9-9.5-23.5-9.5-32.4,0c-8.9,9.5-8.8,24.7,0,34
				l4.7,4.9c11.4,12.1,22.8,24.4,34,36.6C95,7.1,106.1,19.5,116.4,31.8c2.5,3.1,0.3,0.1,2.5,3.1l-2,1.9l-4.4,6.3
				C104,56.1,99.1,60.3,89.2,73.5L74,93.6l42.5,37.6l12.2-15.9c10.4-13.7,20.6-27.4,30.6-42.7l1.9-2.9l2.4-3.9
				c2.1-3.6,4.2-7.3,5.9-11.2c1-1.9,1.5-3.8,2.2-5.8c0.5-1.9,0.8-3.9,1-5.8l0.2-2.9l0.1-1.5c0-0.5-0.2-1-0.3-1.5
				c-0.5-2-0.8-3.8-1.3-5.7l-0.9-2.8c-0.3-0.9-0.6-1.9-1.1-2.8c-1-1.8-1.9-3.6-3.1-5.4l-3.6-5.2c-0.6-0.9-1.2-1.7-1.8-2.5l-1.6-2.1
				c-2.9-3.7-5.7-7.1-8.5-10.5c-11.3-13.5-22.6-26.1-34.1-38.7c-11.4-12.6-23-24.9-34.6-37.2L77.5-80.9z"/>
				<path fill="#9B4517" stroke="#9B4517" stroke-miterlimit="10" d="M61.9-88.6c-15.1-3.5-38.3-7.8-62.6-7.8
				c-24.2,0-47.6,4.3-62.7,7.9c-9.5,2.2-17.2,13-17.2,23.3v168.1H79.1V-65.3C79.1-75.6,71.5-86.4,61.9-88.6z"/>
			</g>
			<polyline fill="#9B4517" stroke="#9B4517" stroke-miterlimit="10" points="-80.5,102.8 -129.2,208.6 122.7,208.6 79.1,102.8 		"/>
		</g>
	</g>

	<g id="Capa_26">
		<g>
			<g>
				<path fill="#968218" d="M60.6-86.5c-14.8-3.3-37.6-7.3-61.4-7.3c-23.8,0-46.7,4-61.6,7.3c-9.4,2.1-16.8,12.1-16.8,21.7V91.7H77.4
				V-64.8C77.4-74.4,69.9-84.4,60.6-86.5z"/>
			</g>
			<path
				fill="#EACE04"
				stroke="#EACE04"
				stroke-miterlimit="10"
				d="M-59.6,11.7C-59.5-20.6-33-47.7,0.2-47.6
			c31.1,0.1,59.6,24.6,59.4,60C59.3,47.5,30.7,71.6,0.5,71.7C-32.5,71.8-59.6,45.1-59.6,11.7z M57.6,11.9
			C57.7-20,31.3-45.7,0.2-45.6C-32.3-45.5-57-19.8-57.4,11c-0.5,34.5,27.5,58.4,56.7,58.7C32,70,57.9,43,57.6,11.9z"/>
			<g>
				<g>
					<path fill="#EACE04" stroke="#EACE04" stroke-miterlimit="10" d="M-9.1-57.6H7L50.5,79H32.2l-10-32.7h-46.8L-34.8,79h-17.8
					L-9.1-57.6z M15.8,25.2L-1.3-29.1l-17,54.2H15.8z"/>
				</g>
			</g>
		</g>
	</g>

	<g id="Capa_27">
		<g>
			<path
				fill="#047A9A"
				stroke="#047A9A"
				stroke-miterlimit="10"
				d="M158.8,58.1l2.3-3.7c2-3.5,4-7,5.6-10.6c0.9-1.8,1.4-3.6,2-5.4
			c0.4-1.8,0.7-3.7,0.8-5.5l0.2-2.8l0.1-1.4c0-0.5-0.2-0.9-0.3-1.4c-0.5-1.8-0.9-3.6-1.4-5.3l-1-2.6c-0.3-0.9-0.6-1.8-1.2-2.6
			c-1-1.7-2-3.3-3.1-5l-3.6-4.8c-0.6-0.8-1.2-1.6-1.9-2.3l-1.6-1.9c-2.9-3.4-5.7-6.6-8.6-9.7c-11.4-12.4-22.9-23.9-34.4-35.5
			C101-53.8,89.4-65.2,77.7-76.4L72.9-81c-9.1-8.7-23.4-8.4-32,0.7c-8.5,9.1-8.2,23.3,0.7,31.9l4.7,4.5c11.6,11.1,23,22.3,34.3,33.6
			C92,1,101.4,12.9,111.9,24.3c2.6,2.8,4.9,5.7,7.2,8.5l2.4-0.2l-2.4,3.8"/>
			<path fill="#047A9A" stroke="#047A9A" stroke-miterlimit="10" d="M57.4-87.9c-15-3-38-6.5-61.9-6c-11,0.2-31.2,3.3-45.6,5.7
			c-8.3,1.4-14.6,2.6-16.1,3c-9.4,2.3-16.7,12.5-16.5,22.2l3.5,157.4l157.5-3.5L74.8-66.5C74.6-76.1,66.9-86,57.4-87.9z"/>
			<polygon fill="#4AB2B4" points="113.5,41.7 154,69.2 159.2,57.9 119.1,32.7 		"/>
		</g>
	</g>

	<g id="Capa_18">
		<g>
			<g>
				<polyline fill="#9ACDCD" points="24,292.5 87.1,282 74.3,89.7 -80.9,89.7 -91.7,282 -28.6,292.5 			"/>
			</g>
			<circle fill="#3D64AD" cx="-0.5" cy="271.2" r="6.6"/>
			<circle fill="#3D64AD" cx="19.4" cy="264.6" r="6.6"/>
			<circle fill="#3D64AD" cx="33.9" cy="250.3" r="6.6"/>
			<circle fill="#3D64AD" cx="47.1" cy="229.9" r="6.6"/>
			<circle fill="#3D64AD" cx="53.7" cy="212.3" r="6.6"/>
			<circle fill="#3D64AD" cx="60.4" cy="190.6" r="6.6"/>
			<circle fill="#3D64AD" cx="64.8" cy="168.9" r="6.6"/>
		</g>
	</g>

	<g id="Capa_19">
		<path fill="#512A14" d="M-80.2-80.6c0,0,15.6-13.9,30.6-11.2v7.5v40.2V-34v32.8l91.1,1v-91.6c0,0,22.7,1.7,31.3,9.9l14.5,343.8
		l-63.7,9.9l-8.9-136.9c-0.4-6.1-5.9-11-12.3-11h-8.9c-6.4,0-11.9,4.9-12.3,11l-8.5,136.9l-63.3-9.5L-83-7.5L-80.2-80.6z"/>
	</g>

	<g id="Capa_54">
		<path fill="#CCCC99" d="M82.6,197.9L74.8,89.6H-80l-7,108.2l63.6,10.3l5.1-72.6c0.4-6.3,5.8-11.4,12.2-11.4h8.8
		c6.3,0,11.8,5.1,12.2,11.4l4.1,72L82.6,197.9z"/>
	</g>

	<g id="Capa_56">
		<g>
			<path fill="#9A6633" d="M82.6,197.9L74.8,89.6H-80l-7,108.2l63.7,9.7l5.1-72c0.4-6.3,5.8-11.4,12.2-11.4h8.8
			c6.3,0,11.8,5.1,12.2,11.4l4.1,72L82.6,197.9z"/>
			<polygon fill="#CB9866" points="82.8,197.8 83.8,215.8 20.4,227.6 19,207.5 		"/>
		</g>
	</g>

	<g id="Capa_55">
		<path fill="#33245E" d="M-21.7,246.1l-68.1,1.4l9-157.7l156,0.2l9.6,150.5l-36-30.2c-2.3-1.9-5.4-2.1-7.9-0.6l-58.4,35.2
		C-18.8,245.6-20.3,246.1-21.7,246.1z"/>
	</g>

	<g id="Capa_20">
		<path fill="#70706F" d="M83.8,153.4L71.4,91.5H-78.6l-10.4,61.9l68.5,9.9l1.7-27.4c0.4-6.1,5.7-11.1,11.8-11.1h8.5
		c6.1,0,11.4,5,11.8,11.1l1.8,27.4L83.8,153.4z"/>
	</g>

	<g id="Capa_21">
		<polyline fill="#CCCAE6" points="23.4,190.7 84.8,180.8 72.3,89.7 -78.6,89.7 -89,180.8 -27.7,190.7 	"/>
	</g>

	<g id="Capa_22">
		<path fill="#5F64AA" d="M87.6,277.6l-12.8-188H-80l-10.7,188l62.9,10.3l9.6-152.4c0.4-6.3,5.8-11.4,12.2-11.4h8.8
		c6.3,0,11.8,5.1,12.2,11.4l9.7,152.4L87.6,277.6z"/>
	</g>

</svg>
