<?xml version="1.0" encoding="utf-8"?>
<!-- Generator: Adobe Illustrator 18.1.0, SVG Export Plug-In . SVG Version: 6.00 Build 0)  -->
<svg version="1.1" xmlns="http://www.w3.org/2000/svg" xmlns:xlink="http://www.w3.org/1999/xlink" x="0px" y="0px" viewBox="0 0 1920 1080" enable-background="new 0 0 1920 1080" xml:space="preserve">

    <g id="avatar">
		<g>
			<path fill="#FBCC9A" d="M93.3,255L80.5,66.4H-74.9L-85.7,255l63.2,10.3l9.6-152.9c0.4-6.3,5.9-11.5,12.2-11.5h8.8
			c6.3,0,11.8,5.1,12.2,11.5l9.8,152.9L93.3,255z"/>
			<g>
				<path
					fill="#FBCC9A"
					d="M79.9-103.2c-8.7-8.8-22.9-8.8-31.6,0c-8.6,8.8-8.6,22.8,0,31.4l4.5,4.6C64.1-56,75.2-44.7,86.1-33.4
				C96.9-22,107.8-10.6,117.9,0.9c2.5,2.8,5,5.7,7.2,8.5l0.3,0.4l-2.4,3.7c-8.3,12.1-18.1,24.5-27.8,36.7L83.5,64.4L118,92.6
				l11.9-14.7c10.1-12.7,20-25.3,29.8-39.4l1.8-2.7l2.3-3.6c2-3.4,4.1-6.8,5.7-10.3c0.9-1.7,1.4-3.5,2.1-5.3
				c0.5-1.8,0.7-3.6,0.9-5.4l0.2-2.7l0.1-1.4c0-0.5-0.2-0.9-0.2-1.4c-0.4-1.8-0.8-3.5-1.3-5.3l-0.9-2.6c-0.3-0.9-0.5-1.7-1.1-2.6
				c-1-1.7-1.9-3.3-3-5l-3.5-4.8c-0.6-0.8-1.2-1.6-1.8-2.3l-1.6-1.9c-2.8-3.4-5.5-6.6-8.3-9.7c-11-12.5-22-24.1-33.2-35.7
				c-11.1-11.6-22.4-23-33.7-34.4L79.9-103.2z"/>
			</g>
			<path fill="#FBCC9A" d="M116.4,94.8l2.1-2.6l-34-28.2l-2.1,2.6c-7.6,9.4-6.4,23.3,2.9,31.3C94.5,105.8,108.5,104.4,116.4,94.8z"/>
			<path fill="#FBCC9A" d="M79,72.3c3.2,2.5,7.1,2.7,8.8,0.6c1.7-2.2,0.4-6-2.7-8.4c-3.2-2.5-7.1-2.7-8.8-0.6
			C74.6,66,75.9,69.8,79,72.3z"/>
		</g>
	</g>

	<g id="Capa_28">
		<g>
			<g>
				<polygon fill="#343434" points="29.7,264.3 97.5,264.3 97.5,253 91.7,242.7 27.2,220.5 			"/>
			</g>
		</g>
	</g>

	<g id="Capa_29">
		<g>
			<polygon fill="#4BB1B3" points="30,273 101.8,273 101.8,261 95.6,250.1 30,260.8 		"/>
			<circle fill="#4BB1B3" cx="96.9" cy="249.5" r="7.2"/>
		</g>
	</g>

	<g id="Capa_31">
		<g>
			<g>
				<polygon fill="#FBCC9A" points="30,276 99.2,276 99.2,264.7 93.3,254.3 30,264.4 			"/>
				<g>
					<polyline fill="#40572C" points="30,270.6 30,276.4 99.2,276.4 99.2,270.7 				"/>
				</g>
				<polyline fill="#40572C" points="99.2,276 99.2,264.7 93.4,254.3 88.4,255.1 97.1,271.3 			"/>
				<polyline fill="#40572C" points="92.1,254.5 77.9,271.9 71.5,271.9 84.6,255.8 			"/>
			</g>
		</g>
	</g>

	<g id="Capa_32">
		<g id="zapatos_2">
			<polygon fill="#3D3D3B" points="29.6,272.3 97.4,272.3 97.4,260.9 91.6,250.6 29.6,260.7 		"/>
		</g>
	</g>

	<g id="Capa_32_copia_2">
		<g id="zapatos_2_4_">
			<polygon fill="#9B4517" points="29.6,272.3 97.4,272.3 97.4,260.9 91.6,250.6 29.6,260.7 		"/>
		</g>
	</g>

	<g id="Capa_32_copia">
		<g id="zapatos_2_1_">
			<polygon fill="#531E53" points="29.6,272.3 97.4,272.3 97.4,260.9 91.6,250.6 29.6,260.7 		"/>
		</g>
	</g>

	<g id="Capa_30">
		<g>
			<polygon fill="#958218" points="29.8,272.5 105.4,272.5 105.4,259.7 98.9,247.9 29.8,259.4 		"/>
			<polyline fill="#958218" points="98.7,250.1 109.6,218.5 75.8,218.5 80.1,253.1 		"/>
		</g>
	</g>

	<g id="Capa_53">
		<g>
			<polygon fill="#3D3F91" points="29.4,265.3 96.5,265.3 96.5,254.1 90.7,243 29.4,253 		"/>
			<polyline fill="#3D3F91" points="90.6,253.8 100.2,226.1 70.6,226.1 74.4,256.4 		"/>
		</g>
	</g>

	<g id="Capa_54">
		<g>
			<polygon fill="#758628" points="28,273.9 100.9,274.2 100.9,262.6 94.9,252 28,242.8 		"/>
			<polyline fill="#758628" points="94.8,252.3 101.1,231 63.6,222.4 65.3,256.6 		"/>
		</g>
	</g>

	<g id="Capa_44">
		<g>
			<g>
				<polygon fill="#FBCC9A" points="29.7,263.3 95.7,263.3 95.7,252.6 90,242.9 29.7,252.4 			"/>
				<polyline fill="#645030" points="29.7,258.1 29.7,263.7 96.7,263.7 96.7,258.2 			"/>
				<polyline fill="#645030" points="96.7,263.7 96.7,252.7 90.9,242.6 86,243.4 94.6,259.1 			"/>
			</g>
		</g>
	</g>

	<g id="Capa_23">
		<g>
			<path fill="#DADAD9" d="M66.7-109.9c-15.3-3.3-38.8-7.3-63.4-7.3c-24.6,0-48.2,4-63.5,7.3c-9.7,2.1-17.4,12-17.4,21.6V67.8H84.1
			V-88.3C84.1-97.9,76.4-107.8,66.7-109.9z"/>
		</g>
	</g>

	<g id="Capa_45">
		<g>
			<path fill="#3D3F91" d="M66.7-109.9c-15.3-3.3-38.8-7.3-63.4-7.3c-24.6,0-48.2,4-63.5,7.3c-9.7,2.1-17.4,12-17.4,21.6V67.8H84.1
			V-88.3C84.1-97.9,76.4-107.8,66.7-109.9z"/>
		</g>
	</g>

	<g id="Capa_46">
		<g>
			<g>
				<path fill="#651511" d="M66.7-109.9c-15.3-3.3-38.8-7.3-63.4-7.3c-24.6,0-48.2,4-63.5,7.3c-9.7,2.1-17.4,12-17.4,21.6V67.8H84.1
				V-88.3C84.1-97.9,76.4-107.8,66.7-109.9z"/>
			</g>
			<rect x="-77.5" y="30.5" fill="#3D3D3B" width="161.7" height="37.1"/>
			<polyline fill="#3D3D3B" points="10,30.5 43,19.7 74.6,30.5 		"/>
		</g>
	</g>

	<g id="Capa_24">
		<g id="camiseta_3_">
			<g>
				<path
					fill="#253E1E"
					d="M76.9-105.3c-8.8-9-23-9-31.6,0c-8.6,9-8.6,23.3,0,32.2l4.5,4.7C61-57,72.1-45.4,83-33.8
				c10.9,11.6,21.8,23.3,31.8,35c2.5,2.9,5,5.8,7.2,8.7l0.3,0.4l-2.4,3.7c-8.4,12.4-18.1,25.1-27.9,37.6L80.5,66.2L115,95.1
				l11.9-15.1c10.1-13,20.1-25.9,29.9-40.3l1.8-2.8l2.3-3.7c2-3.4,4.1-6.9,5.7-10.5c0.9-1.8,1.4-3.6,2.1-5.4
				c0.5-1.8,0.7-3.7,0.9-5.5l0.2-2.8l0.1-1.4c0-0.5-0.2-0.9-0.3-1.4c-0.4-1.9-0.8-3.6-1.3-5.4l-0.9-2.7c-0.3-0.9-0.5-1.8-1.1-2.6
				c-1-1.7-1.9-3.4-3-5.1l-3.5-4.9c-0.6-0.8-1.2-1.6-1.8-2.4l-1.6-2c-2.8-3.5-5.5-6.7-8.3-10c-11-12.7-22-24.7-33.2-36.6
				C104-77.3,92.8-88.9,81.5-100.6L76.9-105.3z"/>
				<path fill="#253E1E" d="M61.7-112.6C47-116,24.3-120,0.6-120c-10.8,0-30.9,2.6-45.2,4.8c-8.2,1.2-14.5,2.3-16,2.7
				c-9.3,2.1-16.7,12.2-16.7,22V68.3H78.4V-90.6C78.4-100.3,71-110.5,61.7-112.6z"/>
			</g>
			<path fill="#99CC99" d="M4-106.7V62.5V-106.7z"/>
			<ellipse fill="#99CC99" cx="15.7" cy="-3.2" rx="5.2" ry="5.3"/>
			<ellipse fill="#99CC99" cx="15.7" cy="19.4" rx="5.2" ry="5.3"/>
			<polygon fill="#99CC99" points="79.9,66.7 115.5,96.9 121.7,86.1 87.3,57 		"/>
		</g>
	</g>

	<g id="Capa_25">
		<g>
			<g>
				<path
					fill="#6F8128"
					d="M79.6-105.8c-8.7-9.1-22.9-9-31.5,0c-8.6,9.1-8.6,23.6,0,32.5l4.5,4.7c11.1,11.6,22.2,23.2,33.1,35
				C96.6-21.9,107.5-10,117.5,1.8c2.5,2.9,5,5.9,7.2,8.7l0.3,0.4l-2.4,3.8c-8.3,12.5-18,23-27.7,35.6L84.5,63.9l32.8,30.2l12.3-12.7
				c10.1-13.1,20-26.1,29.8-40.7l1.8-2.8l2.3-3.7c2-3.5,4.1-7,5.7-10.7c0.9-1.8,1.4-3.7,2.1-5.5c0.5-1.9,0.7-3.7,0.9-5.6l0.2-2.8
				l0.1-1.4c0-0.5-0.2-0.9-0.2-1.4c-0.4-1.9-0.8-3.7-1.3-5.5l-0.9-2.7c-0.3-0.9-0.5-1.8-1.1-2.7c-1-1.7-1.9-3.5-3-5.1l-3.5-4.9
				c-0.6-0.8-1.2-1.6-1.8-2.4l-1.6-2c-2.8-3.6-5.5-6.8-8.3-10.1c-11-12.9-22-24.9-33.1-36.9c-11.1-12-22.4-23.8-33.6-35.5
				L79.6-105.8z"/>
				<path fill="#6F8128" d="M64.5-113.2c-14.7-3.4-37.3-7.5-60.9-7.5c-23.6,0-46.3,4.1-61,7.5c-9.3,2.1-16.7,12.4-16.7,22.2V69.5
				H81.2V-91C81.2-100.8,73.8-111.1,64.5-113.2z"/>
			</g>
		</g>
	</g>

	<g id="Capa_26">
		<g id="camiseta_1_14_">
			<g>
				<path
					fill="#805E39"
					d="M80.9-104.1c-8.7-8.8-22.9-8.8-31.5,0c-8.6,8.8-8.6,22.9,0,31.6l4.5,4.6C65-56.7,76-45.5,86.1-33.4
				c9.7,11.7,21.7,22.7,31.8,34.2c2.5,2.9,5,5.7,7.2,8.5l0,0l-2.2,4.2c-8.3,12.1-18,24.3-27.7,36.6l-11,13.6l34.8,29l11.9-14.8
				c10.1-12.8,20-25.4,29.8-39.6l1.8-2.7l2.3-3.6c2-3.4,4.1-6.8,5.7-10.4c0.9-1.7,1.4-3.5,2.1-5.3c0.5-1.8,0.7-3.6,0.9-5.4l0.2-2.7
				l0.1-1.4c0-0.5-0.2-0.9-0.2-1.4c-0.4-1.8-0.8-3.5-1.3-5.3l-0.9-2.6c-0.3-0.9-0.5-1.8-1.1-2.6c-1-1.7-1.9-3.4-3-5l-3.5-4.8
				c-0.6-0.8-1.2-1.6-1.8-2.4l-1.6-1.9c-2.8-3.5-5.5-6.6-8.2-9.8c-10.9-12.5-22-24.2-33.1-35.9c-11.1-11.7-22.3-23.1-33.6-34.5
				L80.9-104.1z"/>
				<path fill="#805E39" d="M65.7-111.3c-14.7-3.3-37.3-7.3-60.8-7.3c-23.6,0-46.3,4-61,7.3c-9.3,2.1-16.7,12-16.7,21.6v156H82.4
				v-156C82.4-99.3,75-109.2,65.7-111.3z"/>
			</g>
		</g>
	</g>

	<g id="Capa_26_copia_3">
		<g>
			<g id="camiseta_1_7_">
				<path
					fill="#3D3D3B"
					d="M80.8-103.5c-8.7-8.8-22.9-8.8-31.5,0c-8.6,8.8-8.6,22.9,0,31.6l4.5,4.6C65-56,76-44.9,86-32.7
				C95.7-21,107.8-10,117.8,1.5c2.5,2.9,5,5.7,7.2,8.5l0,0l-2.2,4.2c-8.3,12.1-18,24.3-27.7,36.6L84,64.4l34.8,29l11.9-14.8
				c10.1-12.8,20-25.4,29.8-39.6l1.8-2.7l2.3-3.6c2-3.4,4.1-6.8,5.7-10.4c0.9-1.7,1.4-3.5,2.1-5.3c0.5-1.8,0.7-3.6,0.9-5.4l0.2-2.7
				l0.1-1.4c0-0.5-0.2-0.9-0.2-1.4c-0.4-1.8-0.8-3.5-1.3-5.3l-0.9-2.6c-0.3-0.9-0.5-1.8-1.1-2.6c-1-1.7-1.9-3.4-3-5l-3.5-4.8
				c-0.6-0.8-1.2-1.6-1.8-2.4l-1.6-1.9c-2.8-3.5-5.5-6.6-8.2-9.8c-10.9-12.5-22-24.2-33.1-35.9C107.9-76,96.7-87.4,85.4-98.9
				L80.8-103.5z"/>
				<path fill="#3D3D3B" d="M65.7-110.7c-14.7-3.3-37.4-5.7-60.9-5.7c-23.6,0-46.2,2.4-60.9,5.7c-9.3,2.1-16.7,12-16.7,21.6V67H82.4
				v-156C82.4-98.6,75-108.6,65.7-110.7z"/>
				<path fill="#5F64AA" d="M30.7-110.7c-6.2-3.3-15.9-5.7-25.9-5.7c-10,0-19.7,2.4-25.9,5.7c-4,2.1-7.1,12-7.1,21.6V67h66.1v-156
				C37.8-98.6,34.7-108.6,30.7-110.7z"/>
			</g>
		</g>
	</g>

	<g id="Capa_26_copia_2">
		<g>
			<g id="camiseta_1_5_">
				<path
					fill="#958218"
					d="M80.9-104.1c-8.7-8.8-22.9-8.8-31.5,0c-8.6,8.8-8.6,22.9,0,31.6l4.5,4.6C65-56.7,76-45.5,86.1-33.4
				c9.7,11.7,21.7,22.7,31.8,34.2c2.5,2.9,5,5.7,7.2,8.5l0,0l-2.2,4.2c-8.3,12.1-18,24.3-27.7,36.6l-11,13.6l34.8,29l11.9-14.8
				c10.1-12.8,20-25.4,29.8-39.6l1.8-2.7l2.3-3.6c2-3.4,4.1-6.8,5.7-10.4c0.9-1.7,1.4-3.5,2.1-5.3c0.5-1.8,0.7-3.6,0.9-5.4l0.2-2.7
				l0.1-1.4c0-0.5-0.2-0.9-0.2-1.4c-0.4-1.8-0.8-3.5-1.3-5.3l-0.9-2.6c-0.3-0.9-0.5-1.8-1.1-2.6c-1-1.7-1.9-3.4-3-5l-3.5-4.8
				c-0.6-0.8-1.2-1.6-1.8-2.4l-1.6-1.9c-2.8-3.5-5.5-6.6-8.2-9.8c-10.9-12.5-22-24.2-33.1-35.9c-11.1-11.7-22.3-23.1-33.6-34.5
				L80.9-104.1z"/>
				<path fill="#958218" d="M65.7-111.3c-14.7-3.3-37.3-7.3-60.8-7.3c-23.6,0-46.3,4-61,7.3c-9.3,2.1-16.7,12-16.7,21.6v156H82.4
				v-156C82.4-99.3,75-109.2,65.7-111.3z"/>
			</g>
			<path
				fill="#E9CD02"
				stroke="#E9CD02"
				stroke-width="3"
				stroke-miterlimit="10"
				d="M-50.4-19.4c0-29.5,24.2-54.2,54.5-54.1
			c28.3,0.1,54.3,22.4,54.1,54.7c-0.2,32-26.3,54-53.8,54.1C-25.8,35.4-50.5,11-50.4-19.4z M56.3-19.2c0.1-29.1-24-52.6-52.3-52.4
			C-25.6-71.5-48.1-48.2-48.5-20C-49,11.4-23.4,33.2,3.2,33.4C33,33.7,56.6,9.1,56.3-19.2z"/>
			<path
				fill="#E9CD02"
				stroke="#E9CD02"
				stroke-width="3"
				stroke-miterlimit="10"
				d="M-35.8-18.6C-35.7-40.1-18.1-58.1,4-58
			C24.7-58,43.6-41.7,43.5-18.1C43.3,5.2,24.3,21.3,4.2,21.3C-17.8,21.4-35.8,3.6-35.8-18.6z M42.2-18.4C42.3-39.7,24.7-56.8,4-56.7
			C-17.6-56.6-34.1-39.6-34.4-19C-34.7,3.9-16,19.8,3.4,20C25.2,20.2,42.4,2.2,42.2-18.4z"/>
			<polygon fill="#E9CD02" stroke="#E9CD02" stroke-miterlimit="10" points="2.2,-41.8 7.5,-25.5 24.7,-25.5 10.8,-15.4 16.1,1
			2.2,-9.1 -11.7,1 -6.4,-15.4 -20.3,-25.5 -3.1,-25.5 		"/>
		</g>
	</g>

	<g id="Capa_26_copia">
		<g>
			<g id="camiseta_1_3_">
				<path
					fill="#9B4517"
					d="M80.9-104.1c-8.7-8.8-22.9-8.8-31.5,0c-8.6,8.8-8.6,22.9,0,31.6l4.5,4.6C65-56.7,76-45.5,86.1-33.4
				c9.7,11.7,21.7,22.7,31.8,34.2c2.5,2.9,5,5.7,7.2,8.5l0,0l-2.2,4.2c-8.3,12.1-18,24.3-27.7,36.6l-11,13.6l34.8,29l11.9-14.8
				c10.1-12.8,20-25.4,29.8-39.6l1.8-2.7l2.3-3.6c2-3.4,4.1-6.8,5.7-10.4c0.9-1.7,1.4-3.5,2.1-5.3c0.5-1.8,0.7-3.6,0.9-5.4l0.2-2.7
				l0.1-1.4c0-0.5-0.2-0.9-0.2-1.4c-0.4-1.8-0.8-3.5-1.3-5.3l-0.9-2.6c-0.3-0.9-0.5-1.8-1.1-2.6c-1-1.7-1.9-3.4-3-5l-3.5-4.8
				c-0.6-0.8-1.2-1.6-1.8-2.4l-1.6-1.9c-2.8-3.5-5.5-6.6-8.2-9.8c-10.9-12.5-22-24.2-33.1-35.9c-11.1-11.7-22.3-23.1-33.6-34.5
				L80.9-104.1z"/>
				<path fill="#9B4517" d="M65.7-111.3c-14.7-3.3-39.4,11.8-62.9,11.7c-23.6,0-44.2-15-58.9-11.7c-9.3,2.1-16.7,12-16.7,21.6v156
				H82.4v-156C82.4-99.3,75-109.2,65.7-111.3z"/>
			</g>
			<path fill="#65360D" stroke="#65360D" stroke-width="2" stroke-miterlimit="10" d="M5.6-99.6l0,167.2L5.6-99.6z"/>
		</g>
	</g>

	<g id="Capa_27">
		<g>
			<g>
				<g>
					<g>
						<path fill="#047A9A" d="M66.9-110.1c-15.3-3.4-38.8-7.5-63.3-7.5c-24.5,0-48.1,4.1-63.4,7.5c-9.7,2.1-17.4,12.4-17.4,22.3V73.5
						H84.2V-87.8C84.2-97.7,76.5-108,66.9-110.1z"/>
					</g>
				</g>
			</g>
		</g>
	</g>

	<g id="Capa_18">
		<path fill="#70706F" d="M104.9,167.2L83.8,66.4h-162L-95,168.6l82.8,6.3l-1.3-58.3c0.4-6.9,6.1-12.5,12.7-12.5h9.2
		c6.6,0,12.3,5.6,12.7,12.5l-1.4,58.3L104.9,167.2z"/>
	</g>

	<g id="Capa_19">
		<g>
			<g>
				<path fill="#99CC99" d="M61.4,67.1h14.4v-175.9c0,0-6.4-5.6-14.4-5.7"/>
				<path fill="#99CC99" d="M95,260l-13-192.8H-75.9L-86.8,260l64.1,10.5l9.7-156.3c0.4-6.5,6-11.7,12.4-11.7h8.9
				c6.4,0,12,5.3,12.4,11.7l9.9,156.3L95,260z"/>
			</g>
		</g>
	</g>

	<g id="Capa_19_copia">
		<g>
			<path fill="#3D3D3B" d="M61.4,67.1h14.4v-175.9c0,0-6.4-5.6-14.4-5.7"/>
			<path fill="#3D3D3B" d="M89.4,197.3L81.9,67.1H-75.9l-6.6,131.3l64,0.5l5.6-84.8c0.4-6.5,6-11.7,12.4-11.7h8.9
			c6.4,0,12,5.3,12.4,11.7l5,84.8L89.4,197.3z"/>
		</g>
	</g>

	<g id="Capa_20">
		<path fill="#ACCCCE" d="M95.7,256.1L82.5,66H-77l-11,190.1l64.8,10.4l9.9-78.1c0.4-6.4,6-11.6,12.5-11.6h9
		c6.5,0,12.1,5.2,12.6,11.6l9.9,78.1L95.7,256.1z"/>
	</g>

	<g id="Capa_22">
		<g>
			<g>
				<line fill="#FCD894" x1="81.4" y1="65.9" x2="-75.6" y2="65.9"/>
				<path fill="#0C7A9A" d="M92.5,241.2l-11-175.3h-157L-83,206.2l-1.9,35.1h64.6l7.3-125.1c0.4-6.9,5.9-12.5,12.3-12.5h8.9
				c6.4,0,11.9,5.6,12.4,12.5l7.4,125.1H92.5z"/>
			</g>
			<polygon fill="#61C0C8" points="90.9,215.8 92.5,241.2 28.1,241.2 26.6,215.8 		"/>
		</g>
	</g>

	<g id="Capa_22_copia">
		<g>
			<g>
				<g>
					<line fill="#5F64AA" x1="81.4" y1="65.9" x2="-75.6" y2="65.9"/>
					<path fill="#5F64AA" d="M92.5,241.2l-11-175.3h-157L-83,206.2l-1.9,35.1h64.6l7.3-125.1c0.4-6.9,5.9-12.5,12.3-12.5h8.9
					c6.4,0,11.9,5.6,12.4,12.5l7.4,125.1H92.5z"/>
				</g>
			</g>
		</g>
	</g>

	<g id="Capa_21">
		<path fill="#CCCC99" d="M88.6,176.5L80.8,68.1H-74l-7,108.2l63.6,10.3l5.1-72.6c0.4-6.3,5.8-11.4,12.2-11.4h8.8
		c6.3,0,11.8,5.1,12.2,11.4l4.1,72L88.6,176.5z"/>
	</g>

	<g id="Capa_50">
		<path fill="#512A14" d="M-72.8-104.2c0,0,15.5-13.5,30.4-10.9v7.3v39v9.8v31.8l90.4,1v-88.9c0,0,22.5,1.6,31,9.6l14.4,333.6
		l-63.2,9.6L20.5,113c-0.4-5.9-5.9-10.7-12.2-10.7h-8.8c-6.4,0-11.8,4.8-12.2,10.7l-9.7,124.7l-63.2-9.6l10.2-261.3L-72.8-104.2z"/>
	</g>
    
</svg>
