<?xml version="1.0" encoding="utf-8"?>
<!-- Generator: Adobe Illustrator 18.0.0, SVG Export Plug-In . SVG Version: 6.00 Build 0)  -->
<!DOCTYPE svg PUBLIC "-//W3C//DTD SVG 1.1//EN" "http://www.w3.org/Graphics/SVG/1.1/DTD/svg11.dtd">
<svg version="1.1" xmlns="http://www.w3.org/2000/svg" xmlns:xlink="http://www.w3.org/1999/xlink" x="0px" y="0px" viewBox="0 0 1920.1 1081" enable-background="new 0 0 1920.1 1081" xml:space="preserve">

	<g id="nino">
		<path fill="#FBCC9A" d="M1053.2,879.4l-12.8-188.7H885l-10.8,188.7l63.2,10.3l9.6-152.9c0.4-6.3,5.9-11.5,12.2-11.5h8.8
		c6.3,0,11.8,5.1,12.2,11.5l9.8,152.9L1053.2,879.4z"/>
		<g>
			<path
				fill="#FBCC9A"
				d="M1039.8,521.1c-8.7-8.8-22.9-8.8-31.6,0c-8.6,8.8-8.6,22.8,0,31.4l4.5,4.6c11.1,11.2,22.2,22.5,33.1,33.8
			c10.9,11.3,21.7,22.8,31.8,34.2c2.5,2.8,5,5.7,7.2,8.5l0.3,0.4l-2.4,3.7c-8.3,12.1-18.1,24.5-27.8,36.7l-11.6,14.3l34.5,28.2
			l11.9-14.7c10.1-12.7,20-25.3,29.8-39.4l1.8-2.7l2.3-3.6c2-3.4,4.1-6.8,5.7-10.3c0.9-1.7,1.4-3.5,2.1-5.3c0.5-1.8,0.7-3.6,0.9-5.4
			l0.2-2.7l0.1-1.4c0-0.5-0.2-0.9-0.2-1.4c-0.4-1.8-0.8-3.5-1.3-5.3l-0.9-2.6c-0.3-0.9-0.5-1.7-1.1-2.6c-1-1.7-1.9-3.3-3-5l-3.5-4.8
			c-0.6-0.8-1.2-1.6-1.8-2.3l-1.6-1.9c-2.8-3.4-5.5-6.6-8.3-9.7c-11-12.5-22-24.1-33.2-35.7c-11.1-11.6-22.4-23-33.7-34.4
			L1039.8,521.1z"/>
		</g>
		<g>
			<path
				fill="#FBCC9A"
				d="M890,521.1c8.7-8.8,22.9-8.8,31.6,0c8.6,8.8,8.6,22.8,0,31.4l-4.5,4.6c-11.1,11.2-22.2,22.5-33.1,33.8
			c-10.9,11.3-21.7,22.8-31.8,34.2c-2.5,2.8-5,5.7-7.2,8.5l-0.3,0.4l2.4,3.7c8.3,12.1,18.1,24.5,27.8,36.7l11.6,14.3L852,717
			l-11.9-14.7c-10.1-12.7-20-25.3-29.8-39.4l-1.8-2.7l-2.3-3.6c-2-3.4-4.1-6.8-5.7-10.3c-0.9-1.7-1.4-3.5-2.1-5.3
			c-0.5-1.8-0.7-3.6-0.9-5.4l-0.2-2.7l-0.1-1.4c0-0.5,0.2-0.9,0.2-1.4c0.4-1.8,0.8-3.5,1.3-5.3l0.9-2.6c0.3-0.9,0.5-1.7,1.1-2.6
			c1-1.7,1.9-3.3,3-5l3.5-4.8c0.6-0.8,1.2-1.6,1.8-2.3l1.6-1.9c2.8-3.4,5.5-6.6,8.3-9.7c11-12.5,22-24.1,33.2-35.7
			c11.1-11.6,22.4-23,33.7-34.4L890,521.1z"/>
		</g>
		<path fill="#FBCC9A" d="M1007.4,511.7c-12.9-2.2-28.5-4.4-44.6-4.4c-16.1,0-31.7,1.9-44.7,4.1l42,12c0.6,0.8,1.6,1.3,2.6,1.3l0,0
		c1,0,2-0.5,2.6-1.3L1007.4,511.7z"/>
		<path fill="#FBCC9A" d="M994.5,492.6l2.4,17.2c0,0-14.6,17.9-34.2,17.9c-19.6,0-34.2-17.9-34.2-17.9l2.4-17.3H994.5z"/>
		<path fill="#FBCC9A" d="M1076.3,719.1l2.1-2.6l-34-28.2l-2.1,2.6c-7.6,9.4-6.4,23.3,2.9,31.3
		C1054.4,730.1,1068.4,728.8,1076.3,719.1z"/>
		<path fill="#FBCC9A" d="M887.1,690.5l-2-2.6l-34.7,27.5l2.1,2.7c7.6,9.8,21.6,11.4,31,3.7C893,713.9,894.6,700,887.1,690.5z"/>
		<path fill="#ACCCCE" d="M885.2,692"/>
		<path fill="#FBCC9A" d="M890.3,696.4c-3.2,2.5-7.1,2.7-8.8,0.6c-1.7-2.2-0.4-6,2.7-8.4c3.2-2.5,7.1-2.7,8.8-0.6
		C894.7,690.1,893.5,693.9,890.3,696.4z"/>
		<path fill="#FBCC9A" d="M1038.9,696.6c3.2,2.5,7.1,2.7,8.8,0.6c1.7-2.2,0.4-6-2.7-8.4c-3.2-2.5-7.1-2.7-8.8-0.6
		C1034.5,690.3,1035.8,694.1,1038.9,696.6z"/>
		<g>
			<ellipse fill="#CB9866" cx="1069.7" cy="395.1" rx="20.1" ry="25.9"/>
			<ellipse fill="#FBCC9A" cx="852.5" cy="395.1" rx="20.1" ry="25.9"/>
			<path fill="#FBCC9A" d="M941.9,503.7c-48.6,0-88-39.9-88-89.1v-94.1c0-49.2,39.4-89.1,88-89.1h21.6v272.3H941.9z"/>
			<path fill="#CB9866" d="M980.3,503.7c48.6,0,88-39.9,88-89.1v-94.1c0-49.2-39.4-89.1-88-89.1h-19.1v272.3H980.3z"/>
		</g>
		<path fill="#261911" d="M961.1,360.2"/>
		<circle fill="#FBCC9A" cx="963.3" cy="411.5" r="13.5"/>
		<polygon fill="#FBCC9A" points="937.6,900.7 868.5,900.7 868.5,889.2 874.5,878.6 937.6,888.9 	"/>
		<polygon fill="#FBCC9A" points="989.2,900.5 1058.3,901.7 1058.9,890.2 1053.6,879.3 989.9,886.1 	"/>
		<g>
			<path fill="#FBCC9A" d="M1025.1,514.8c-14.8-3.3-37.6-7.3-61.4-7.3c-23.8,0-46.7,4-61.5,7.3c-9.4,2.1-16.8,12.1-16.8,21.7v157.1
			h156.5V536.6C1041.9,527,1034.5,516.9,1025.1,514.8z"/>
		</g>
		<g id="fulles-baix">
			<path
				fill="#50773A"
				d="M951.8,801.5c1.4-6.6-11.4-23.3-14.5-29.5c-5.2-10.3-10.2-20.9-13.3-31.8c-6-21.1-5.3-47.2,13.3-62.8
		c11.4-9.6,34.2-13.1,42-25.6c-0.4,0.6,12.5,16.3,13.3,17.7c7.5,12.3,15.1,26.9,15.1,40.9c0,11.7-7,22.6-13.6,32.2
		C980.5,762.6,957.1,777.4,951.8,801.5z"/>
		</g>
		<g id="fulles-dalt">
			<path
				fill="#50773A"
				d="M991.6,637.3c1.1-4.8-8.3-17-10.6-21.6c-3.8-7.6-7.4-15.3-9.7-23.2c-4.4-15.4-3.9-34.5,9.7-46
			c8.4-7,25-9.6,30.7-18.7c-0.3,0.4,9.1,12,9.7,12.9c5.5,9,11.1,19.7,11.1,29.9c0,8.5-5.1,16.5-9.9,23.5
			C1012.6,608.9,995.5,619.7,991.6,637.3z"/>
			<path
				fill="#50773A"
				d="M921.1,634.2c1.1-4.8-8.3-17-10.6-21.6c-3.8-7.6-7.4-15.3-9.7-23.2c-4.4-15.4-3.9-34.5,9.7-46
			c8.4-7,25-9.6,30.7-18.7c-0.3,0.4,9.1,12,9.7,12.9c5.5,9,11.1,19.7,11.1,29.9c0,8.5-5.1,16.5-9.9,23.5
			C942.1,605.8,925,616.6,921.1,634.2z"/>
		</g>
	</g>
</svg>
