<?xml version="1.0" encoding="utf-8"?>
<!-- Generator: Adobe Illustrator 18.0.0, SVG Export Plug-In . SVG Version: 6.00 Build 0)  -->
<!DOCTYPE svg PUBLIC "-//W3C//DTD SVG 1.1//EN" "http://www.w3.org/Graphics/SVG/1.1/DTD/svg11.dtd">
<svg version="1.1" xmlns="http://www.w3.org/2000/svg" xmlns:xlink="http://www.w3.org/1999/xlink" x="0px" y="0px" viewBox="0 0 1918 1080" enable-background="new 0 0 1918 1080" xml:space="preserve">
	<g id="FONS">
		<rect x="960" fill="#F39669" width="960" height="1080"/>
		<rect x="-1" y="0.5" fill="#9ACDCD" width="960" height="1078.9"/>
	</g>
	<g id="CANVI_COLOR_NOIA">
		<g>
			<g>
				<g>
					<path fill="#EC6568" d="M1319.3,362.4c0,0,10.6-138.9,120.9-132.7c0,0,135.1-19.6,119.2,212.3l-8.6,185.8
					c0,0-27.7,76.5-120.3,46.9c0,0-98.5-27-120.7-55.6C1287.4,590.6,1318.5,368.7,1319.3,362.4z"/>
					<path
						fill="#EC6568"
						d="M1470.5,682.4c-12.6,0-26.1-2.3-40.4-6.9c-4-1.1-99-27.4-121.2-55.9c-19.1-24.4-0.1-185.6,8.9-253.8
					c0.3-2,0.4-3.2,0.5-3.6c0-0.3,2.7-33.7,18.1-66.7c14.3-30.6,42.6-67,96.6-67c2.3,0,4.7,0.1,7.1,0.2c-0.1,0,2.8-0.4,7.6-0.4
					c15.7,0,45.9,4.1,71.6,31.6c33,35.4,46.8,96.6,40.9,182.1l-8.6,185.9l0,0.1C1551.4,628.7,1531.2,682.4,1470.5,682.4z
					 M1433.1,230.4c-53,0-80.9,35.8-94.9,65.9c-15.3,32.7-17.9,65.9-18,66.2c0,0.4-0.2,1.7-0.5,3.6c-6.3,47.4-10.9,90.3-13.8,127.6
					c-5.5,70.8-3.9,114,4.6,124.9c21.8,28,119.3,55,120.3,55.3c14.1,4.5,27.5,6.8,39.8,6.8c58,0,78.2-50.1,79.3-53l8.6-185.6
					c5.8-85-7.8-145.8-40.5-180.8c-25.2-27-54.8-31-70.2-31c-4.6,0-7.4,0.4-7.5,0.4C1437.7,230.5,1435.4,230.4,1433.1,230.4z"/>
				</g>
				<g>
					<g>
						<polygon fill="#CC6566" points="1416.4,905.1 1351,905.1 1351,894 1356.6,883.9 1416.4,893.8 					"/>
					</g>
					<g>
						<polygon fill="#CC6566" points="1465.7,903.2 1531,906.9 1531.6,895.9 1526.6,885.4 1466.3,891.9 					"/>
					</g>
					<g>
						<path
							fill="#CC6566"
							d="M1512.4,540.7c-8.3-8.4-21.7-8.4-29.9,0c-8.2,8.4-8.1,21.8,0,30.1l4.3,4.4c10.6,10.7,21,21.5,31.4,32.4
						c10.3,10.9,20.6,21.8,30.1,32.8c2.3,2.7,4.7,5.5,6.8,8.1l0.3,0.4l-2.3,3.5c-7.9,11.6-17.1,23.5-26.3,35.2l-11,13.7l32.6,27.1
						l11.3-14.1c9.6-12.2,19-24.2,28.2-37.8l1.7-2.6l2.2-3.4c1.9-3.2,3.9-6.5,5.4-9.9c0.9-1.7,1.4-3.4,2-5.1
						c0.4-1.7,0.7-3.4,0.9-5.2l0.2-2.6l0.1-1.3c0-0.4-0.2-0.9-0.2-1.3c-0.4-1.8-0.7-3.4-1.2-5.1l-0.9-2.5c-0.3-0.8-0.5-1.7-1-2.5
						c-0.9-1.6-1.8-3.2-2.8-4.8l-3.3-4.6c-0.5-0.8-1.1-1.5-1.7-2.2l-1.5-1.9c-2.6-3.3-5.2-6.3-7.8-9.3
						c-10.4-11.9-20.8-23.1-31.4-34.2c-10.5-11.1-21.2-22.1-31.9-32.9L1512.4,540.7z"/>
					</g>
					<g>
						<path
							fill="#CC6566"
							d="M1400.1,570.8c8.2-8.3,8.3-21.7,0.1-30.1c-8.1-8.4-21.6-8.5-29.9-0.1l-4.4,4.4
						c-10.7,10.8-21.3,21.6-31.8,32.6c-10.5,11-21,22.1-31.3,33.8c-2.6,3-5.2,6-7.8,9.1l-2.5,3.1c-1.1,1.4-2.2,3-3.3,4.5l-1.7,2.3
						l-1.4,2.4c-0.9,1.6-2,3.1-2.4,4.8l-0.9,2.5l-0.6,2.5c-0.3,1.7-1,3.4-0.7,5.2c0.2,3.5,0.6,6.9,2,10.3c1.3,3.4,3,6.7,4.9,10
						c0.5,0.8,0.9,1.6,1.4,2.4l1.2,1.9l1.7,2.7c8.9,13.7,18,25.9,27.2,38.2l11,14.4l33.2-26.3l-10.7-14
						c-8.9-11.8-17.8-23.9-25.3-35.5l-1.7-2.7l1.1-1.3c2.2-2.6,4.5-5.4,6.9-8.1c9.6-10.9,19.8-21.7,30.1-32.5
						c10.3-10.8,20.8-21.5,31.3-32.1L1400.1,570.8z"/>
					</g>
					<g>
						<path fill="#CC6566" d="M1498,533.8c-13.9-3.1-35.3-6.9-57.7-6.9c-22.3,0-43.9,3.8-57.8,6.9c-8.8,2-15.8,11.5-15.8,20.6v148.8
						h147.1V554.4C1513.9,545.3,1506.8,535.8,1498,533.8z"/>
					</g>
					<g>
						<path fill="#CC6566" d="M1483.1,530.8c-12.4-2.1-27.3-3.9-42.7-3.9c-15.4,0-30.4,1.8-42.8,4l40.2,11.5c0.6,0.8,1.5,1.2,2.5,1.2
						l0,0c1,0,1.9-0.5,2.5-1.2L1483.1,530.8z"/>
					</g>
					<g>
						<path fill="#CC6566" d="M1470.8,512.8l2.3,16.5c0,0-14,17.1-32.7,17.1c-18.7,0-32.7-17.1-32.7-17.1l2.3-16.5H1470.8z"/>
					</g>
					<g>
						<path fill="#CC6566" d="M1526.6,885.4l-12.7-182.3h-147.1l-10.2,180.7l59.8,9.9l9.1-146.5c0.4-6.1,5.6-11,11.6-11h8.3
						c6,0,11.2,4.9,11.6,11l9.3,146.5L1526.6,885.4z"/>
					</g>
					<g>
						<path fill="#CC6566" d="M1546.4,730.8l2-2.5l-32.6-27.1l-2,2.5c-7.3,9-6.1,22.3,2.8,30C1525.5,741.3,1538.9,740.1,1546.4,730.8
						z"/>
					</g>
					<g>
						<path fill="#CC6566" d="M1366,703.8l-1.9-2.5l-33.2,26.3l2,2.6c7.3,9.4,20.7,10.9,29.7,3.5
						C1371.6,726.2,1373.1,712.9,1366,703.8z"/>
					</g>
					<g>
						<path fill="#CC6566" d="M1366,703.8"/>
					</g>
					<g>
						<path fill="#CC6566" d="M1369.1,709.4c-3,2.4-6.8,2.6-8.4,0.5c-1.6-2.1-0.4-5.7,2.6-8.1s6.8-2.6,8.4-0.5
						C1373.3,703.4,1372.1,707.1,1369.1,709.4z"/>
					</g>
					<g>
						<path fill="#CC6566" d="M1510.6,709.3c3,2.4,6.8,2.6,8.4,0.5c1.6-2.1,0.4-5.7-2.6-8.1s-6.8-2.6-8.4-0.5
						C1506.4,703.3,1507.6,706.9,1510.6,709.3z"/>
					</g>
					<g>
						<g>
							<ellipse fill="#9A3333" cx="1544.3" cy="417" rx="19.3" ry="24.8"/>
						</g>
						<g>
							<ellipse fill="#CC6566" cx="1336.3" cy="417" rx="19.3" ry="24.8"/>
						</g>
						<g>
							<path fill="#CC6566" d="M1421.9,521.1c-46.6,0-84.3-38.2-84.3-85.4v-90.2c0-47.1,37.8-85.4,84.3-85.4h20.7v260.9H1421.9z"/>
						</g>
						<g>
							<path fill="#9A3333" d="M1458.7,521.1c46.6,0,84.3-38.2,84.3-85.4v-90.2c0-47.1-37.8-85.4-84.3-85.4h-18.3v260.9H1458.7z"/>
						</g>
					</g>
				</g>
				<g>
					<path
						fill="#EC6568"
						d="M1470,673.9c1.1-4.8-8.3-17-10.6-21.6c-3.8-7.6-7.4-15.3-9.7-23.2c-4.4-15.4-3.9-34.5,9.7-46
					c8.4-7,25-9.6,30.7-18.7c-0.3,0.4,9.1,12,9.7,12.9c5.5,9,11.1,19.7,11.1,29.9c0,8.5-5.1,16.5-9.9,23.5
					C1491,645.4,1473.8,656.2,1470,673.9z"/>
				</g>
				<g>
					<path
						fill="#EC6568"
						d="M1399.5,670.8c1.1-4.8-8.3-17-10.6-21.6c-3.8-7.6-7.4-15.3-9.7-23.2c-4.4-15.4-3.9-34.5,9.7-46
					c8.4-7,25-9.6,30.7-18.7c-0.3,0.4,9.1,12,9.7,12.9c5.5,9,11.1,19.7,11.1,29.9c0,8.5-5.1,16.5-9.9,23.5
					C1420.5,642.4,1403.4,653.2,1399.5,670.8z"/>
				</g>
				<g>
					<path fill="#EC6568" d="M1376.7,265.9c0,0,68.8,102,91.9,114c23.1,12,89.5,3.3,89.5,3.3s-7.6-88.9-27.8-97.1
					c-20.2-8.2-68.4-45.9-88.4-38"/>
					<path
						fill="#EC6568"
						d="M1511,387.2c-16.5,0-33.2-1.5-42.8-6.5c-23-12-89.5-110.1-92.3-114.3l1.5-1c0.7,1,69,101.9,91.6,113.7
					c21.2,11,80.2,4.2,88.1,3.3c-0.4-4.3-2.4-24.1-6.2-44.5c-5.7-30.1-13-47.7-20.9-50.9c-6.2-2.5-14.9-7.7-24.9-13.8
					c-22-13.2-49.3-29.6-62.8-24.3l-0.7-1.7c14.3-5.6,42.1,11,64.4,24.4c10,6,18.6,11.1,24.7,13.6c20.5,8.3,28.1,94.2,28.4,97.9
					l0.1,0.9l-0.9,0.1C1556.7,384.3,1534.1,387.2,1511,387.2z"/>
				</g>
			</g>
			<g>
				<path
					fill="#EC6568"
					d="M1433.9,811.3c1.1-4.8-8.3-17-10.6-21.6c-3.8-7.6-7.4-15.3-9.7-23.2c-4.4-15.4-3.9-34.5,9.7-46
				c8.4-7,25-9.6,30.7-18.7c-0.3,0.4,9.1,12,9.7,12.9c5.5,9,11.1,19.7,11.1,29.9c0,8.5-5.1,16.5-9.9,23.5
				C1454.9,782.9,1437.8,793.7,1433.9,811.3z"/>
			</g>
		</g>
		<circle fill="#CC6566" cx="1441.2" cy="417" r="14.9"/>
	</g>
	<g id="CANVI_COLOR_NOI">
		<g>
			<g>
				<polygon fill="#6CC4C7" points="481.2,903.7 415.8,903.7 415.8,892.7 421.4,882.6 481.2,892.4 			"/>
				<polygon fill="#6CC4C7" points="530.5,901.9 595.9,905.6 596.5,894.5 591.4,884.1 531.1,890.6 			"/>
				<path
					fill="#6CC4C7"
					d="M577.2,539.3c-8.3-8.4-21.7-8.4-29.9,0c-8.2,8.4-8.1,21.8,0,30.1l4.3,4.4c10.6,10.7,21,21.5,31.4,32.4
				c10.3,10.9,20.6,21.8,30.1,32.8c2.3,2.7,4.7,5.5,6.8,8.1l0.3,0.4l-2.3,3.5c-7.9,11.6-17.1,23.5-26.3,35.2l-11,13.7l32.6,27.1
				l11.3-14.1c9.6-12.2,19-24.2,28.2-37.8l1.7-2.6l2.2-3.4c1.9-3.2,3.9-6.5,5.4-9.9c0.9-1.7,1.4-3.4,2-5.1c0.4-1.7,0.7-3.4,0.9-5.2
				l0.2-2.6l0.1-1.3c0-0.4-0.2-0.9-0.2-1.3c-0.4-1.8-0.7-3.4-1.2-5.1l-0.9-2.5c-0.3-0.8-0.5-1.7-1-2.5c-0.9-1.6-1.8-3.2-2.8-4.8
				l-3.3-4.6c-0.5-0.8-1.1-1.5-1.7-2.2l-1.5-1.9c-2.6-3.3-5.2-6.3-7.8-9.3c-10.4-11.9-20.8-23.1-31.4-34.2
				c-10.5-11.1-21.2-22.1-31.9-32.9L577.2,539.3z"/>
				<path
					fill="#6CC4C7"
					d="M464.9,569.4c8.2-8.3,8.3-21.7,0.1-30.1c-8.1-8.4-21.6-8.5-29.9-0.1l-4.4,4.4
				c-10.7,10.8-21.3,21.6-31.8,32.6c-10.5,11-21,22.1-31.3,33.8c-2.6,3-5.2,6-7.8,9.1l-2.5,3.1c-1.1,1.4-2.2,3-3.3,4.5l-1.7,2.3
				l-1.4,2.4c-0.9,1.6-2,3.1-2.4,4.8l-0.9,2.5l-0.6,2.5c-0.3,1.7-1,3.4-0.7,5.2c0.2,3.5,0.6,6.9,2,10.3c1.3,3.4,3,6.7,4.9,10
				c0.5,0.8,0.9,1.6,1.4,2.4l1.2,1.9l1.7,2.7c8.9,13.7,18,25.9,27.2,38.2l11,14.4l33.2-26.3l-10.7-14c-8.9-11.8-17.8-23.9-25.3-35.5
				l-1.7-2.7l1.1-1.3c2.2-2.6,4.5-5.4,6.9-8.1c9.6-10.9,19.8-21.7,30.1-32.5c10.3-10.8,20.8-21.5,31.3-32.1L464.9,569.4z"/>
				<path fill="#6CC4C7" d="M562.9,532.5c-13.9-3.1-35.3-6.9-57.7-6.9c-22.3,0-43.9,3.8-57.8,6.9c-8.8,2-15.8,11.5-15.8,20.6v148.8
				h147.1V553.1C578.7,543.9,571.7,534.5,562.9,532.5z"/>
				<path fill="#6CC4C7" d="M547.9,529.5c-12.4-2.1-27.3-3.9-42.7-3.9c-15.4,0-30.4,1.8-42.8,4l40.2,11.5c0.6,0.8,1.5,1.2,2.5,1.2
				l0,0c1,0,1.9-0.5,2.5-1.2L547.9,529.5z"/>
				<path fill="#6CC4C7" d="M535.6,511.4l2.3,16.5c0,0-14,17.1-32.7,17.1c-18.7,0-32.7-17.1-32.7-17.1l2.3-16.5H535.6z"/>
				<path fill="#6CC4C7" d="M591.4,884.1l-12.7-182.3H431.6l-10.2,180.7l59.8,9.9l9.1-146.5c0.4-6.1,5.6-11,11.6-11h8.3
				c6,0,11.2,4.9,11.6,11l9.3,146.5L591.4,884.1z"/>
				<path fill="#6CC4C7" d="M611.2,729.5l2-2.5l-32.6-27.1l-2,2.5c-7.3,9-6.1,22.3,2.8,30C590.3,740,603.7,738.7,611.2,729.5z"/>
				<path fill="#6CC4C7" d="M430.9,702.5l-1.9-2.5l-33.2,26.3l2,2.6c7.3,9.4,20.7,10.9,29.7,3.5C436.5,724.9,438,711.6,430.9,702.5z"/>
				<path fill="#B4CBCD" d="M430.9,702.5"/>
				<path fill="#6CC4C7" d="M433.9,708.1c-3,2.4-6.8,2.6-8.4,0.5c-1.6-2.1-0.4-5.7,2.6-8.1s6.8-2.6,8.4-0.5
				C438.1,702.1,437,705.7,433.9,708.1z"/>
				<path fill="#6CC4C7" d="M575.4,707.9c3,2.4,6.8,2.6,8.4,0.5c1.6-2.1,0.4-5.7-2.6-8.1c-3-2.4-6.8-2.6-8.4-0.5
				S572.4,705.5,575.4,707.9z"/>
				<g>
					<ellipse fill="#339999" cx="609.2" cy="415.6" rx="19.3" ry="24.8"/>
					<ellipse fill="#6CC4C7" cx="401.1" cy="415.6" rx="19.3" ry="24.8"/>
					<path fill="#6CC4C7" d="M486.8,519.7c-46.6,0-84.3-38.2-84.3-85.4v-90.2c0-47.1,37.8-85.4,84.3-85.4h20.7v260.9H486.8z"/>
					<path fill="#339999" d="M523.5,519.7c46.6,0,84.3-38.2,84.3-85.4v-90.2c0-47.1-37.8-85.4-84.3-85.4h-18.3v260.9H523.5z"/>
				</g>
			</g>
			<path
				fill="#4EBCC2"
				d="M499.9,830.1c1.6-7.3-12.6-25.7-16-32.6c-5.7-11.4-11.3-23.1-14.7-35.1c-6.6-23.4-5.9-52.2,14.7-69.5
			c12.7-10.7,37.8-14.5,46.4-28.3c-0.4,0.7,13.8,18.1,14.7,19.6c8.3,13.6,16.7,29.7,16.7,45.2c0,12.9-7.8,25-15,35.6
			C531.6,787.1,505.7,803.4,499.9,830.1z"/>
			<path
				id="pelo_4_2_"
				fill="#4EBCC2"
				d="M619.6,292.2c16.7-16.8,31-45.4,24.4-67.7c-0.3-1-1.9-1.7-3-1
			c-15.2,9.7-31.7,16.8-50.3,20.1c-20.5,3.6-41.6,2-62.3,0.8c-36-2.1-74.8-1.9-103.8,19.1c-24.7,17.9-31.8,55.6-24,81.7
			c0,0.4,0.2,0.7,0.4,1c0.5,0.6,1.4,0.7,2.1,0.5c0.4-0.1,0.9-0.3,1.1-0.7c0,0,0.1-0.1,0.1-0.1c0,0,0-0.1,0.1-0.1
			c0-0.1,0.1-0.2,0.1-0.2c0,0,0,0,0-0.1c4.6-12.1,11.1-29.9,24.3-36.8c10.5-5.4,23.5-4.7,35-2.9c25.8,4,49.8,12.6,76.2,14.5
			c14.9,1,30.1-0.4,44.2-4.9c3.6-1.2,7-2.5,10.2-4.1c0.6,1.1,1.1,2.2,1.6,3.2c4,8.2,6.3,22.3,10.2,30.6c0.8,1.6,3.2,1.7,3.9,0
			c5.7-13,6.2-32.5,1.6-45.5C614.5,297.3,617.1,294.8,619.6,292.2z"/>
		</g>
		<circle fill="#6EC4C6" cx="505.7" cy="417" r="14.9"/>
	</g>
	<g id="TEXTO">
		<path
			opacity="0.8"
			fill="#FFFFFF"
			d="M1279.2,436.6l-36.4-43.5c-3.2-3.9-5-8.7-5-13.7v-14.6c0-1.2,0.3,1.1,0,0l-0.5-0.4
		c0-7.6-6.3-13.7-14-13.7h-0.8H724.9h-0.8c-8.1,0-14.6,6.4-14.6,14.3v14.5c0,5-1.8,9.8-5,13.7l-36.4,43.5
		c-6.8,8.1-0.4,19.7,9.6,19.4c1,0,2.1-0.1,3.3-0.3l50.8-11.1l17.9,0c0.1,0,0.1,0,0.1,0c0,0.5,1.4,0,9.1,0h1.1h308.7c0,0,0,0,0,0
		h119.8c7.7,0,9.1,0.5,9.1,0h0h19l50.6,11.1C1278.4,458.2,1286.5,445.3,1279.2,436.6z"/>
		<path
			fill="none"
			stroke="#858686"
			stroke-width="11"
			stroke-miterlimit="10"
			d="M1279.2,436.6l-36.4-43.5c-3.2-3.9-5-8.7-5-13.7
		l-0.5-15.1c0-1.2,0.3,1.1,0,0l0,0c0-7.6-6.3-13.7-14-13.7h-0.8H724.9h-0.8c-8.1,0-14.6,6.4-14.6,14.3v14.5c0,5-1.8,9.8-5,13.7
		l-36.4,43.5c-6.8,8.1-0.4,19.7,9.6,19.4c1,0,2.1-0.1,3.3-0.3l50.8-11.1l17.9,0c0.1,0,0.1,0,0.1,0c0,0.5,1.4,0,9.1,0h1.1h308.7
		c0,0,0,0,0,0h119.8c7.7,0,9.1,0.5,9.1,0h0h19l50.6,11.1C1278.4,458.2,1286.5,445.3,1279.2,436.6z"/>
		<text transform="matrix(1 0 0 1 736.1489 407.6909)" fill="#858686" font-family="'FuturaStd-Bold'" font-size="34.2529">Empieza a crear tu avatar !</text>
	</g>
</svg>
