<?xml version="1.0" encoding="utf-8"?>
<!-- Generator: Adobe Illustrator 18.1.0, SVG Export Plug-In . SVG Version: 6.00 Build 0)  -->
<svg version="1.1" xmlns="http://www.w3.org/2000/svg" xmlns:xlink="http://www.w3.org/1999/xlink" x="0px" y="0px" viewBox="0 0 1920 1080" enable-background="new 0 0 1920 1080" xml:space="preserve">
	<g id="avatar">
		<g>
			<g>
				<polygon fill="#FBCC9A" points="-1964.6,296.1 -2030,296.1 -2030,285.1 -2024.4,274.9 -1964.6,284.8 			"/>
				<polygon fill="#FBCC9A" points="-1915.3,294.3 -1849.9,298 -1849.3,286.9 -1854.4,276.5 -1914.7,283 			"/>
				<path
					fill="#FBCC9A"
					d="M-1868.6-68.3c-8.3-8.4-21.7-8.4-29.9,0c-8.2,8.4-8.1,21.8,0,30.1l4.3,4.4c10.6,10.7,21,21.5,31.4,32.4
				c10.3,10.9,20.6,21.8,30.1,32.8c2.3,2.7,4.7,5.5,6.8,8.1l0.3,0.4l-2.3,3.5c-7.9,11.6-17.1,23.5-26.3,35.2l-11,13.7l32.6,27.1
				l11.3-14.1c9.6-12.2,19-24.2,28.2-37.8l1.7-2.6l2.2-3.4c1.9-3.2,3.9-6.5,5.4-9.9c0.9-1.7,1.4-3.4,2-5.1c0.4-1.7,0.7-3.4,0.9-5.2
				l0.2-2.6l0.1-1.3c0-0.4-0.2-0.9-0.2-1.3c-0.4-1.8-0.7-3.4-1.2-5.1l-0.9-2.5c-0.3-0.8-0.5-1.7-1-2.5c-0.9-1.6-1.8-3.2-2.8-4.8
				l-3.3-4.6c-0.5-0.8-1.1-1.5-1.7-2.2l-1.5-1.9c-2.6-3.3-5.2-6.3-7.8-9.3c-10.4-11.9-20.8-23.1-31.4-34.2
				c-10.5-11.1-21.2-22.1-31.9-32.9L-1868.6-68.3z"/>
				<path
					fill="#FBCC9A"
					d="M-1980.9-38.2c8.2-8.3,8.3-21.7,0.1-30.1c-8.1-8.4-21.6-8.5-29.9-0.1l-4.4,4.4
				c-10.7,10.8-21.3,21.6-31.8,32.6c-10.5,11-21,22.1-31.3,33.8c-2.6,3-5.2,6-7.8,9.1l-2.5,3.1c-1.1,1.4-2.2,3-3.3,4.5l-1.7,2.3
				l-1.4,2.4c-0.9,1.6-2,3.1-2.4,4.8l-0.9,2.5l-0.6,2.5c-0.3,1.7-1,3.4-0.7,5.2c0.2,3.5,0.6,6.9,2,10.3c1.3,3.4,3,6.7,4.9,10
				c0.5,0.8,0.9,1.6,1.4,2.4l1.2,1.9l1.7,2.7c8.9,13.7,18,25.9,27.2,38.2l11,14.4l33.2-26.3l-10.7-14c-8.9-11.8-17.8-23.9-25.3-35.5
				l-1.7-2.7l1.1-1.3c2.2-2.6,4.5-5.4,6.9-8.1c9.6-10.9,19.8-21.7,30.1-32.5c10.3-10.8,20.8-21.5,31.3-32.1L-1980.9-38.2z"/>
				<path fill="#FBCC9A" d="M-1882.9-75.1c-13.9-3.1-35.3-6.9-57.7-6.9c-22.3,0-43.9,3.8-57.8,6.9c-8.8,2-15.8,11.5-15.8,20.6V94.2
				h147.1V-54.6C-1867.1-63.7-1874.1-73.2-1882.9-75.1z"/>
				<path fill="#F2D795" d="M-1897.9-78.1c-12.4-2.1-27.3-3.9-42.7-3.9c-15.4,0-30.4,1.8-42.8,4l40.2,11.5c0.6,0.8,1.5,1.2,2.5,1.2
				l0,0c1,0,1.9-0.5,2.5-1.2L-1897.9-78.1z"/>
				<path fill="#FBCC9A" d="M-1910.2-96.2l2.3,16.5c0,0-14,17.1-32.7,17.1c-18.7,0-32.7-17.1-32.7-17.1l2.3-16.5H-1910.2z"/>
				<path fill="#FBCC9A" d="M-1854.4,276.5l-12.7-182.3h-147.1l-10.2,180.7l59.8,9.9l9.1-146.5c0.4-6.1,5.6-11,11.6-11h8.3
				c6,0,11.2,4.9,11.6,11l9.3,146.5L-1854.4,276.5z"/>
				<path fill="#FBCC9A" d="M-1834.6,121.9l2-2.5l-32.6-27.1l-2,2.5c-7.3,9-6.1,22.3,2.8,30C-1855.5,132.4-1842.1,131.1-1834.6,121.9
				z"/>
				<path fill="#FBCC9A" d="M-2014.9,94.8l-1.9-2.5l-33.2,26.3l2,2.6c7.3,9.4,20.7,10.9,29.7,3.5
				C-2009.3,117.3-2007.8,104-2014.9,94.8z"/>
				<path fill="#B4CBCD" d="M-2014.9,94.8"/>
				<path fill="#FBCC9A" d="M-2011.9,100.5c-3,2.4-6.8,2.6-8.4,0.5c-1.6-2.1-0.4-5.7,2.6-8.1c3-2.4,6.8-2.6,8.4-0.5
				C-2007.7,94.5-2008.8,98.1-2011.9,100.5z"/>
				<path fill="#FBCC9A" d="M-1870.4,100.3c3,2.4,6.8,2.6,8.4,0.5c1.6-2.1,0.4-5.7-2.6-8.1c-3-2.4-6.8-2.6-8.4-0.5
				C-1874.6,94.3-1873.4,97.9-1870.4,100.3z"/>
				<g>
					<ellipse fill="#CB9866" cx="-1836.6" cy="-192" rx="19.3" ry="24.8"/>
					<ellipse fill="#FBCC9A" cx="-2044.7" cy="-192" rx="19.3" ry="24.8"/>
					<path fill="#FBCC9A" d="M-1959-87.9c-46.6,0-84.3-38.2-84.3-85.4v-90.2c0-47.1,37.8-85.4,84.3-85.4h20.7v260.9H-1959z"/>
					<path fill="#CB9866" d="M-1922.3-87.9c46.6,0,84.3-38.2,84.3-85.4v-90.2c0-47.1-37.8-85.4-84.3-85.4h-18.3v260.9H-1922.3z"/>
				</g>
			</g>
		</g>
	</g>
	<g id="hoja">
		<path
			fill="#50773A"
			d="M-1945.9,222.5c1.6-7.3-12.6-25.7-16-32.6c-5.7-11.4-11.3-23.1-14.7-35.1c-6.6-23.4-5.9-52.2,14.7-69.5
		c12.7-10.7,37.8-14.5,46.4-28.3c-0.4,0.7,13.8,18.1,14.7,19.6c8.3,13.6,16.7,29.7,16.7,45.2c0,12.9-7.8,25-15,35.6
		C-1914.2,179.5-1940.1,195.8-1945.9,222.5z"/>
	</g>
</svg>
