<?xml version="1.0" encoding="utf-8"?>
<!-- Generator: Adobe Illustrator 18.1.0, SVG Export Plug-In . SVG Version: 6.00 Build 0)  -->
<svg version="1.1" xmlns="http://www.w3.org/2000/svg" xmlns:xlink="http://www.w3.org/1999/xlink" x="0px" y="0px" viewBox="0 0 1920 1080" enable-background="new 0 0 1920 1080" xml:space="preserve">
	<g id="avatar">
		<g>
			<g>
				<g>
					<g>
						<polygon fill="#FBCC9A" points="-23.2,301.6 -88.6,301.6 -88.6,290.6 -83,280.4 -23.2,290.3 					"/>
					</g>
					<g>
						<polygon fill="#FBCC9A" points="26.1,303.5 91.4,303.5 92,292.4 87,282 26.7,288.5 					"/>
					</g>
					<g>
						<path
							fill="#FBCC9A"
							d="M72.8-62.8c-8.3-8.4-21.7-8.4-29.9,0c-8.2,8.4-8.1,21.8,0,30.1l4.3,4.4c10.6,10.7,21,21.5,31.4,32.4
						C88.9,15,99.2,26,108.7,36.9c2.3,2.7,4.7,5.5,6.8,8.1l0.3,0.4l-2.3,3.5c-7.9,11.6-17.1,23.5-26.3,35.2l-11,13.7l32.6,27.1
						l11.3-14.1c9.6-12.2,19-24.2,28.2-37.8l1.7-2.6l2.2-3.4c1.9-3.2,3.9-6.5,5.4-9.9c0.9-1.7,1.4-3.4,2-5.1
						c0.4-1.7,0.7-3.4,0.9-5.2l0.2-2.6l0.1-1.3c0-0.4-0.2-0.9-0.2-1.3c-0.4-1.8-0.7-3.4-1.2-5.1l-0.9-2.5c-0.3-0.8-0.5-1.7-1-2.5
						c-0.9-1.6-1.8-3.2-2.8-4.8l-3.3-4.6c-0.5-0.8-1.1-1.5-1.7-2.2l-1.5-1.9c-2.6-3.3-5.2-6.3-7.8-9.3C130-3.1,119.6-14.3,109-25.4
						C98.5-36.6,87.8-47.5,77.2-58.4L72.8-62.8z"/>
					</g>
					<g>
						<path
							fill="#FBCC9A"
							d="M-39.5-32.7c8.2-8.3,8.3-21.7,0.1-30.1c-8.1-8.4-21.6-8.5-29.9-0.1l-4.4,4.4
						c-10.7,10.8-21.3,21.6-31.8,32.6c-10.5,11-21,22.1-31.3,33.8c-2.6,3-5.2,6-7.8,9.1l-2.5,3.1c-1.1,1.4-2.2,3-3.3,4.5l-1.7,2.3
						l-1.4,2.4c-0.9,1.6-2,3.1-2.4,4.8l-0.9,2.5l-0.6,2.5c-0.3,1.7-1,3.4-0.7,5.2c0.2,3.5,0.6,6.9,2,10.3c1.3,3.4,3,6.7,4.9,10
						c0.5,0.8,0.9,1.6,1.4,2.4l1.2,1.9l1.7,2.7c8.9,13.7,18,25.9,27.2,38.2l11,14.4l33.2-26.3l-10.7-14
						C-95.1,72.1-104,60-111.5,48.4l-1.7-2.7l1.1-1.3c2.2-2.6,4.5-5.4,6.9-8.1c9.6-10.9,19.8-21.7,30.1-32.5
						C-64.8-7-54.4-17.7-43.8-28.3L-39.5-32.7z"/>
					</g>
					<g>
						<path fill="#FBCC9A" d="M58.5-69.7c-13.9-3.1-35.3-6.9-57.7-6.9c-22.3,0-43.9,3.8-57.8,6.9c-8.8,2-15.8,11.5-15.8,20.6V99.7
						H74.3V-49.1C74.3-58.2,67.3-67.7,58.5-69.7z"/>
					</g>
					<g>
						<path fill="#F2D795" d="M43.5-72.6c-12.4-2.1-27.3-3.9-42.7-3.9c-15.4,0-30.4,1.8-42.8,4l40.2,11.5c0.6,0.8,1.5,1.2,2.5,1.2
						l0,0c1,0,1.9-0.5,2.5-1.2L43.5-72.6z"/>
					</g>
					<g>
						<path fill="#FBCC9A" d="M31.2-90.7l2.3,16.5c0,0-14,17.1-32.7,17.1C-18-57-32-74.2-32-74.2l2.3-16.5H31.2z"/>
					</g>
					<g>
						<path fill="#FBCC9A" d="M87,282L74.3,99.7H-72.8L-83,280.4l59.8,9.9l9.1-146.5c0.4-6.1,5.6-11,11.6-11h8.3
						c6,0,11.2,4.9,11.6,11l9.3,146.5L87,282z"/>
					</g>
					<g>
						<path fill="#FBCC9A" d="M106.8,127.4l2-2.5L76.2,97.8l-2,2.5c-7.3,9-6.1,22.3,2.8,30C85.9,137.9,99.3,136.6,106.8,127.4z"/>
					</g>
					<g>
						<path fill="#FBCC9A" d="M-73.6,100.3l-1.9-2.5l-33.2,26.3l2,2.6c7.3,9.4,20.7,10.9,29.7,3.5C-68,122.8-66.5,109.5-73.6,100.3z"/>
					</g>
					<g>
						<path fill="#B4CBCD" d="M-73.6,100.3"/>
					</g>
					<g>
						<path fill="#FBCC9A" d="M-70.5,106c-3,2.4-6.8,2.6-8.4,0.5c-1.6-2.1-0.4-5.7,2.6-8.1c3-2.4,6.8-2.6,8.4-0.5
						C-66.3,100-67.5,103.6-70.5,106z"/>
					</g>
					<g>
						<path fill="#FBCC9A" d="M71,105.8c3,2.4,6.8,2.6,8.4,0.5c1.6-2.1,0.4-5.7-2.6-8.1c-3-2.4-6.8-2.6-8.4-0.5
						C66.8,99.8,68,103.4,71,105.8z"/>
					</g>
					<g>
						<g>
							<ellipse fill="#CB9866" cx="104.7" cy="-186.5" rx="19.3" ry="24.8"/>
						</g>
						<g>
							<ellipse fill="#FBCC9A" cx="-103.3" cy="-186.5" rx="19.3" ry="24.8"/>
						</g>
						<g>
							<path fill="#FBCC9A" d="M-17.7-82.4c-46.6,0-84.3-38.2-84.3-85.4v-90.2c0-47.1,37.8-85.4,84.3-85.4H3v260.9H-17.7z"/>
						</g>
						<g>
							<path fill="#CB9866" d="M19.1-82.4c46.6,0,84.3-38.2,84.3-85.4v-90.2c0-47.1-37.8-85.4-84.3-85.4H0.8v260.9H19.1z"/>
						</g>
					</g>
				</g>
			</g>
		</g>
	</g>
	<g id="hoja">
		<g>
			<path fill="#50773A" d="M30.4,70.4c1.1-4.8-8.3-17-10.6-21.6c-3.8-7.6-7.4-15.3-9.7-23.2c-4.4-15.4-3.9-34.5,9.7-46
			c8.4-7,25-9.6,30.7-18.7c-0.3,0.4,9.1,12,9.7,12.9c5.5,9,11.1,19.7,11.1,29.9c0,8.5-5.1,16.5-9.9,23.5
			C51.4,42,34.2,52.8,30.4,70.4z"/>
		</g>
		<g>
			<path
				fill="#50773A"
				d="M-40.1,67.3c1.1-4.8-8.3-17-10.6-21.6c-3.8-7.6-7.4-15.3-9.7-23.2c-4.4-15.4-3.9-34.5,9.7-46
			c8.4-7,25-9.6,30.7-18.7c-0.3,0.4,9.1,12,9.7,12.9c5.5,9,11.1,19.7,11.1,29.9c0,8.5-5.1,16.5-9.9,23.5
			C-19.1,38.9-36.2,49.7-40.1,67.3z"/>
		</g>
		<g>
			<path
				fill="#50773A"
				d="M-1.4,217.4c1.1-4.8-8.3-17-10.6-21.6c-3.8-7.6-7.4-15.3-9.7-23.2c-4.4-15.4-3.9-34.5,9.7-46
			c8.4-7,25-9.6,30.7-18.7c-0.3,0.4,9.1,12,9.7,12.9c5.5,9,11.1,19.7,11.1,29.9c0,8.5-5.1,16.5-9.9,23.5
			C19.5,189,2.4,199.8-1.4,217.4z"/>
		</g>
	</g>
</svg>
