<?xml version="1.0" encoding="utf-8"?>
<!-- Generator: Adobe Illustrator 18.0.0, SVG Export Plug-In . SVG Version: 6.00 Build 0)  -->
<!DOCTYPE svg PUBLIC "-//W3C//DTD SVG 1.1//EN" "http://www.w3.org/Graphics/SVG/1.1/DTD/svg11.dtd">
<svg version="1.1" xmlns="http://www.w3.org/2000/svg" xmlns:xlink="http://www.w3.org/1999/xlink" x="0px" y="0px"
	 viewBox="0 0 1922.5 1081.1" enable-background="new 0 0 1922.5 1081.1" xml:space="preserve">
<g id="AVATAR">
	<g>
		<path fill="#FBCC9A" d="M89.1,347.8L76.2,159.1H-79.1l-10.8,188.7l63.2,10.3l9.6-152.9c0.4-6.3,5.9-11.5,12.2-11.5h8.8
			c6.3,0,11.8,5.1,12.2,11.5l9.8,152.9L89.1,347.8z"/>
		<g>
			<path fill="#FBCC9A" d="M75.7-10.5c-8.7-8.8-22.9-8.8-31.6,0c-8.6,8.8-8.6,22.8,0,31.4l4.5,4.6C59.8,36.7,70.9,48,81.8,59.4
				c10.9,11.3,21.7,22.8,31.8,34.2c2.5,2.8,5,5.7,7.2,8.5l0.3,0.4l-2.4,3.7c-8.3,12.1-18.1,24.5-27.8,36.7l-11.6,14.3l34.5,28.2
				l11.9-14.7c10.1-12.7,20-25.3,29.8-39.4l1.8-2.7l2.3-3.6c2-3.4,4.1-6.8,5.7-10.3c0.9-1.7,1.4-3.5,2.1-5.3
				c0.5-1.8,0.7-3.6,0.9-5.4l0.2-2.7l0.1-1.4c0-0.5-0.2-0.9-0.2-1.4c-0.4-1.8-0.8-3.5-1.3-5.3l-0.9-2.6c-0.3-0.9-0.5-1.7-1.1-2.6
				c-1-1.7-1.9-3.3-3-5l-3.5-4.8c-0.6-0.8-1.2-1.6-1.8-2.3l-1.6-1.9c-2.8-3.4-5.5-6.6-8.3-9.7c-11-12.5-22-24.1-33.2-35.7
				c-11.1-11.6-22.4-23-33.7-34.4L75.7-10.5z"/>
		</g>
		<g>
			<path fill="#FBCC9A" d="M-74.1-10.5c8.7-8.8,22.9-8.8,31.6,0c8.6,8.8,8.6,22.8,0,31.4l-4.5,4.6C-58.3,36.7-69.3,48-80.2,59.4
				C-91.1,70.7-102,82.2-112,93.6c-2.5,2.8-5,5.7-7.2,8.5l-0.3,0.4l2.4,3.7c8.3,12.1,18.1,24.5,27.8,36.7l11.6,14.3l-34.5,28.2
				l-11.9-14.7c-10.1-12.7-20-25.3-29.8-39.4l-1.8-2.7l-2.3-3.6c-2-3.4-4.1-6.8-5.7-10.3c-0.9-1.7-1.4-3.5-2.1-5.3
				c-0.5-1.8-0.7-3.6-0.9-5.4l-0.2-2.7l-0.1-1.4c0-0.5,0.2-0.9,0.2-1.4c0.4-1.8,0.8-3.5,1.3-5.3l0.9-2.6c0.3-0.9,0.5-1.7,1.1-2.6
				c1-1.7,1.9-3.3,3-5l3.5-4.8c0.6-0.8,1.2-1.6,1.8-2.3l1.6-1.9c2.8-3.4,5.5-6.6,8.3-9.7c11-12.5,22-24.1,33.2-35.7
				c11.1-11.6,22.4-23,33.7-34.4L-74.1-10.5z"/>
		</g>
		<path fill="#FBCC9A" d="M43.2-19.9c-12.9-2.2-28.5-4.4-44.6-4.4c-16.1,0-31.7,1.9-44.7,4.1l42,12c0.6,0.8,1.6,1.3,2.6,1.3l0,0
			c1,0,2-0.5,2.6-1.3L43.2-19.9z"/>
		<path fill="#FBCC9A" d="M30.4-39l2.4,17.2c0,0-14.6,17.9-34.2,17.9c-19.6,0-34.2-17.9-34.2-17.9l2.4-17.3H30.4z"/>
		<path fill="#FBCC9A" d="M112.1,187.6l2.1-2.6l-34-28.2l-2.1,2.6c-7.6,9.4-6.4,23.3,2.9,31.3C90.3,198.5,104.3,197.2,112.1,187.6z"
			/>
		<path fill="#FBCC9A" d="M-77,158.9l-2-2.6l-34.7,27.5l2.1,2.7c7.6,9.8,21.6,11.4,31,3.7C-71.1,182.4-69.6,168.5-77,158.9z"/>
		<path fill="#ACCCCE" d="M-78.9,160.4"/>
		<path fill="#FBCC9A" d="M-73.8,164.8c-3.2,2.5-7.1,2.7-8.8,0.6s-0.4-6,2.7-8.4c3.2-2.5,7.1-2.7,8.8-0.6
			C-69.4,158.5-70.6,162.3-73.8,164.8z"/>
		<path fill="#FBCC9A" d="M74.8,165c3.2,2.5,7.1,2.7,8.8,0.6c1.7-2.2,0.4-6-2.7-8.4c-3.2-2.5-7.1-2.7-8.8-0.6
			C70.4,158.8,71.6,162.5,74.8,165z"/>
		<g>
			<ellipse fill="#CB9866" cx="105.5" cy="-136.5" rx="20.1" ry="25.9"/>
			<ellipse fill="#FBCC9A" cx="-111.6" cy="-136.5" rx="20.1" ry="25.9"/>
			<path fill="#FBCC9A" d="M-22.2-27.8c-48.6,0-88-39.9-88-89.1v-94.1c0-49.2,39.4-89.1,88-89.1h21.6v272.3H-22.2z"/>
			<path fill="#CB9866" d="M16.1-27.8c48.6,0,88-39.9,88-89.1v-94.1c0-49.2-39.4-89.1-88-89.1H-3v272.3H16.1z"/>
		</g>
		<path fill="#261911" d="M-3-171.4"/>
		<circle fill="#FBCC9A" cx="-0.9" cy="-120" r="13.5"/>
		<polygon fill="#FBCC9A" points="-26.7,369.1 -95.6,369.1 -95.6,357.6 -89.7,347 -26.7,358.1 		"/>
		<polygon fill="#FBCC9A" points="26.2,369.2 94.2,370.2 94.8,358.6 89.5,347.7 25.8,356.5 		"/>
		<g>
			<path fill="#FBCC9A" d="M61-16.7c-14.8-3.3-37.6-7.3-61.4-7.3c-23.8,0-46.7,4-61.5,7.3C-71.3-14.6-78.7-4.6-78.7,5v157.1H77.8V5
				C77.8-4.6,70.3-14.6,61-16.7z"/>
		</g>
	</g>
</g>
<g id="FULLA">
	<path fill="#50773A" d="M-10.8,259c1.2-5.6-9.7-19.9-12.4-25.2c-4.4-8.8-8.7-17.8-11.3-27.1c-5.1-18-4.5-40.3,11.3-53.7
		c9.8-8.2,29.2-11.2,35.8-21.8c-0.3,0.5,10.7,14,11.4,15.1c6.4,10.5,12.9,23,12.9,34.9c0,10-6,19.3-11.6,27.5
		C13.7,225.7-6.3,238.4-10.8,259z"/>
	<g>
		<path fill="#50773A" d="M26.2,108.7c1.1-4.8-8.3-17-10.6-21.6c-3.8-7.6-7.4-15.3-9.7-23.2c-4.4-15.4-3.9-34.5,9.7-46
			c8.4-7,25-9.6,30.7-18.7c-0.3,0.4,9.1,12,9.7,12.9c5.5,9,11.1,19.7,11.1,29.9c0,8.5-5.1,16.5-9.9,23.5C47.1,80.2,30,91,26.2,108.7
			z"/>
	</g>
	<g>
		<path fill="#50773A" d="M-44.3,105.6c1.1-4.8-8.3-17-10.6-21.6c-3.8-7.6-7.4-15.3-9.7-23.2c-4.4-15.4-3.9-34.5,9.7-46
			c8.4-7,25-9.6,30.7-18.7c-0.3,0.4,9.1,12,9.7,12.9C-9,18.1-3.4,28.7-3.4,39c0,8.5-5.1,16.5-9.9,23.5
			C-23.3,77.2-40.5,88-44.3,105.6z"/>
	</g>
</g>
</svg>
