<?xml version="1.0" encoding="utf-8"?>
<!-- Generator: Adobe Illustrator 18.0.0, SVG Export Plug-In . SVG Version: 6.00 Build 0)  -->
<!DOCTYPE svg PUBLIC "-//W3C//DTD SVG 1.1//EN" "http://www.w3.org/Graphics/SVG/1.1/DTD/svg11.dtd">
<svg version="1.1" xmlns="http://www.w3.org/2000/svg" xmlns:xlink="http://www.w3.org/1999/xlink" x="0px" y="0px" viewBox="0 0 1920.1 1081" enable-background="new 0 0 1920.1 1081" xml:space="preserve">
	<g id="FONS">
		<rect x="0" y="585.5" fill="#F39669" width="1920.1" height="495"/>
		<path fill="#9ACDCD" d="M947,693.4c360.8,0,695.7,37.9,973.9,102.8V-0.4H0v790.6C272.7,729,597.8,693.4,947,693.4z"/>
		<path opacity="0.6" fill="#E5E6E5" d="M1377.1,984.1l-320-984.8H871.6l-320,984.8c-2.4,3.7-3.7,7.7-3.7,11.6
		c0,47.1,186.5,85.4,416.5,85.4s416.5-38.4,416.5-85.5C1380.8,991.7,1379.5,987.8,1377.1,984.1z"/>
	</g>
	<g id="AVATAR_RANDOM">
		<g id="SANT_MARTI">
			<g>
				<path fill="#FBCC9A" d="M1057.1,880.5l-12.8-188.7H888.9l-10.8,188.7l63.2,10.3l9.6-152.9c0.4-6.3,5.9-11.5,12.2-11.5h8.8
				c6.3,0,11.8,5.1,12.2,11.5l9.8,152.9L1057.1,880.5z"/>
				<path fill="#3D3D3B" d="M1053.6,829.3l-9.3-137.4H888.9l-7.3,128.6l-0.5,8.8h64.1l5.7-91.4c0.4-6.3,5.9-11.5,12.2-11.5h8.8
				c6.3,0,11.8,5.1,12.2,11.5l5.8,91.4H1053.6z"/>
				<g>
					<path
						fill="#FBCC9A"
						d="M1043.7,522.3c-8.7-8.8-22.9-8.8-31.6,0c-8.6,8.8-8.6,22.8,0,31.4l4.5,4.6
					c11.1,11.2,22.2,22.5,33.1,33.8c10.9,11.3,21.7,22.8,31.8,34.2c2.5,2.8,5,5.7,7.2,8.5l0.3,0.4l-2.4,3.7
					c-8.3,12.1-18.1,24.5-27.8,36.7l-11.6,14.3l34.5,28.2l11.9-14.7c10.1-12.7,20-25.3,29.8-39.4l1.8-2.7l2.3-3.6
					c2-3.4,4.1-6.8,5.7-10.3c0.9-1.7,1.4-3.5,2.1-5.3c0.5-1.8,0.7-3.6,0.9-5.4l0.2-2.7l0.1-1.4c0-0.5-0.2-0.9-0.2-1.4
					c-0.4-1.8-0.8-3.5-1.3-5.3l-0.9-2.6c-0.3-0.9-0.5-1.7-1.1-2.6c-1-1.7-1.9-3.3-3-5l-3.5-4.8c-0.6-0.8-1.2-1.6-1.8-2.3l-1.6-1.9
					c-2.8-3.4-5.5-6.6-8.3-9.7c-11-12.5-22-24.1-33.2-35.7c-11.1-11.6-22.4-23-33.7-34.4L1043.7,522.3z"/>
				</g>
				<g>
					<path
						fill="#FBCC9A"
						d="M893.9,522.3c8.7-8.8,22.9-8.8,31.6,0c8.6,8.8,8.6,22.8,0,31.4l-4.5,4.6c-11.1,11.2-22.2,22.5-33.1,33.8
					c-10.9,11.3-21.7,22.8-31.8,34.2c-2.5,2.8-5,5.7-7.2,8.5l-0.3,0.4l2.4,3.7c8.3,12.1,18.1,24.5,27.8,36.7l11.6,14.3l-34.5,28.2
					l-11.9-14.7c-10.1-12.7-20-25.3-29.8-39.4l-1.8-2.7l-2.3-3.6c-2-3.4-4.1-6.8-5.7-10.3c-0.9-1.7-1.4-3.5-2.1-5.3
					c-0.5-1.8-0.7-3.6-0.9-5.4L801,634l-0.1-1.4c0-0.5,0.2-0.9,0.2-1.4c0.4-1.8,0.8-3.5,1.3-5.3l0.9-2.6c0.3-0.9,0.5-1.7,1.1-2.6
					c1-1.7,1.9-3.3,3-5l3.5-4.8c0.6-0.8,1.2-1.6,1.8-2.3l1.6-1.9c2.8-3.4,5.5-6.6,8.3-9.7c11-12.5,22-24.1,33.2-35.7
					c11.1-11.6,22.4-23,33.7-34.4L893.9,522.3z"/>
				</g>
				<g>
					<path fill="#F8FAFA" d="M1082.3,561.3c-11.1-11.6-22.4-23-33.7-34.4l-4.6-4.6c-8.7-8.8-22.9-8.8-31.6,0
					c-8.6,8.8-8.6,22.8,0,31.4l4.5,4.6c11.1,11.2,22.2,22.5,33.1,33.8"/>
					<path fill="#F8FAFA" d="M887.8,591.8c10.9-11.2,21.9-22.4,33.1-33.5l4.6-4.5c8.7-8.6,8.7-22.7,0.1-31.5
					c-8.6-8.8-22.8-8.9-31.6-0.1l-4.6,4.6c-11.3,11.2-22.5,22.6-33.6,34.1"/>
					<path fill="#F8FAFA" d="M1028.9,515.1c-14.7-3.3-37.3-7.2-60.9-7.2c-23.6,0-46.3,4-61.1,7.3c-9.3,2.1-16.7,12-16.7,21.5v155.3
					h155.4V536.6C1045.6,527.1,1038.2,517.2,1028.9,515.1z"/>
				</g>
				<path fill="#3D3D3B" d="M910.9,691.9h-14.2V519.8c0,0,6.3-5.5,14.2-5.5"/>
				<path fill="#3D3D3B" d="M1026.4,691.9h14.2V519.8c0,0-6.3-5.5-14.2-5.5"/>
				<path fill="#FDD995" d="M1011.2,512.9c-12.9-2.2-28.5-4.4-44.6-4.4c-16.1,0-31.7,1.9-44.7,4.1l42,12c0.6,0.8,1.6,1.3,2.6,1.3l0,0
				c1,0,2-0.5,2.6-1.3L1011.2,512.9z"/>
				<path fill="#FDD995" d="M998.4,493.7l2.4,17.2c0,0-14.6,17.9-34.2,17.9c-19.6,0-34.2-17.9-34.2-17.9l2.4-17.3H998.4z"/>
				<path fill="#FBCC9A" d="M1080.1,720.3l2.1-2.6l-34-28.2l-2.1,2.6c-7.6,9.4-6.4,23.3,2.9,31.3
				C1058.3,731.3,1072.3,729.9,1080.1,720.3z"/>
				<path fill="#FBCC9A" d="M891,691.7l-2-2.6l-34.7,27.5l2.1,2.7c7.6,9.8,21.6,11.4,31,3.7C896.9,715.1,898.4,701.2,891,691.7z"/>
				<path fill="#ACCCCE" d="M889.1,693.2"/>
				<path fill="#FBCC9A" d="M894.2,697.6c-3.2,2.5-7.1,2.7-8.8,0.6c-1.7-2.2-0.4-6,2.7-8.4c3.2-2.5,7.1-2.7,8.8-0.6
				C898.6,691.3,897.4,695.1,894.2,697.6z"/>
				<path fill="#FBCC9A" d="M1042.8,697.8c3.2,2.5,7.1,2.7,8.8,0.6c1.7-2.2,0.4-6-2.7-8.4c-3.2-2.5-7.1-2.7-8.8-0.6
				C1038.4,691.5,1039.6,695.3,1042.8,697.8z"/>
				<g>
					<ellipse fill="#CB9866" cx="1073.6" cy="396.2" rx="20.1" ry="25.9"/>
					<ellipse fill="#FBCC9A" cx="856.4" cy="396.2" rx="20.1" ry="25.9"/>
					<path fill="#FBCC9A" d="M945.8,504.9c-48.6,0-88-39.9-88-89.1v-94.1c0-49.2,39.4-89.1,88-89.1h21.6v272.3H945.8z"/>
					<path fill="#CB9866" d="M984.2,504.9c48.6,0,88-39.9,88-89.1v-94.1c0-49.2-39.4-89.1-88-89.1H965v272.3H984.2z"/>
				</g>
				<path fill="#261911" d="M965,361.4"/>
				<line fill="none" x1="965" y1="361.4" x2="808.4" y2="361.4"/>
				<circle fill="#FBCC9A" cx="967.1" cy="412.7" r="13.5"/>
				<path
					fill="#201621"
					d="M1095.5,266.8c-13.8-6.5-29.1-12-29.1-12s-3.4-19.4-8.9-31.3c-5.4-12-14.3-31.4-27.6-36.4
				c-20.7-7.8-65-7.8-65-7.8s-40.9,0-65,7.8c-13.6,4.4-22.2,24.4-27.6,36.4c-5.4,12-8.9,31.3-8.9,31.3s-15.3,5.5-29.1,12
				c-13.8,6.5-23.7,17.5-26.6,29.5c4.4,36.9,50,52.5,50,52.5s5.2-30.4,7.7-41c2.5-10.6,7.9-15.2,29.1-23
				c21.2-7.8,70.4-10.6,70.4-10.6s49.3,2.8,70.4,10.6c21.2,7.8,26.6,12.4,29.1,23c2.5,10.6,7.7,41,7.7,41s45.5-15.7,50-52.5
				C1119.2,284.3,1109.3,273.2,1095.5,266.8z"/>
				<path fill="#531E53" d="M1066.5,254.8c0,0-3.4-19.4-8.9-31.3c-5.4-12-14.3-31.4-27.6-36.4c-20.7-7.8-65-7.8-65-7.8
				s-40.9,0-65,7.8c-13.6,4.4-22.2,24.4-27.6,36.4c-5.4,12-8.9,31.3-8.9,31.3S970.6,226.1,1066.5,254.8z"/>
				<path fill="#3D3D3B" d="M872.2,371c-0.4-7.4-14.4-5.3-14.4-5.3v-9.3l14.9-2.9"/>
				<ellipse fill="none" stroke="#3D3D3B" stroke-width="5" stroke-miterlimit="10" cx="914.3" cy="362.3" rx="41.6" ry="42.1"/>
				<path fill="#3D3D3B" d="M1058.2,371c0.4-7.4,14-5.1,14-5.1l0-9.5l-14.6-2.9"/>
				<ellipse fill="none" stroke="#3D3D3B" stroke-width="5" stroke-miterlimit="10" cx="1015.7" cy="362.3" rx="41.6" ry="42.1"/>
				<g>
					<polyline fill="#3D3D3B" stroke="#3D3D3B" stroke-width="5" stroke-miterlimit="10" points="954,363.3 964.6,363.3 963.6,363.3
					974.2,363.3 974.2,355.6 963.6,355.6 964.6,355.6 954,355.6 				"/>
				</g>
				<path id="barba_5_16_" fill="#3D3D3B" d="M962.6,468.6c5.7-0.3,27.8,5.1,27.8,5.1c91.7,13.6,80.8-85.6,80.8-85.6
				s58.6,116.9-107.2,144.3h0.5C801.6,524,856.8,388.2,856.8,388.2s-11.8,99.2,79.9,85.6c0,0,22.1-5.4,27.8-5.1"/>
				<polygon fill="#531E53" points="941.5,901.9 872.4,901.9 872.4,890.4 878.3,879.8 941.5,890.1 			"/>
				<polygon fill="#531E53" points="993.6,901.8 1062.2,902.9 1062.8,891.4 1057.5,880.5 993.8,887.3 			"/>
			</g>
		</g>
		<g id="SERRIA_SANT_GERV">
			<g>
				<path
					fill="#FBCC9A"
					d="M1041.8,520.6c-8.9-9-23.4-9-32.3,0c-8.8,9-8.8,23.3,0,32.2l4.6,4.7c11.4,11.5,22.7,23,33.9,34.6
				c11.1,11.6,22.2,23.3,32.5,35c2.5,2.9,5.1,5.8,7.3,8.7l0.3,0.4l-2.5,3.7c-8.5,12.4-18.5,25.1-28.4,37.5l-11.9,14.6l35.2,28.9
				l12.2-15.1c10.3-13,20.5-25.9,30.5-40.3l1.9-2.8l2.4-3.7c2.1-3.4,4.2-6.9,5.8-10.5c1-1.8,1.5-3.6,2.1-5.4c0.5-1.8,0.8-3.7,1-5.5
				l0.2-2.8l0.1-1.4c0-0.5-0.2-0.9-0.3-1.4c-0.5-1.9-0.8-3.6-1.3-5.4l-0.9-2.7c-0.3-0.9-0.6-1.8-1.1-2.6c-1-1.7-1.9-3.4-3-5.1
				l-3.6-4.9c-0.6-0.8-1.2-1.6-1.8-2.4l-1.6-2c-2.8-3.5-5.6-6.7-8.4-10c-11.2-12.7-22.5-24.7-33.9-36.5
				c-11.4-11.9-22.9-23.5-34.4-35.2L1041.8,520.6z"/>
				<path
					fill="#FBCC9A"
					d="M888.6,520.6c8.9-9,23.4-9,32.3,0c8.8,9,8.8,23.3,0,32.2l-4.6,4.7c-11.4,11.5-22.7,23-33.9,34.6
				c-11.1,11.6-22.2,23.3-32.5,35c-2.5,2.9-5.1,5.8-7.3,8.7l-0.3,0.4l2.5,3.7c8.5,12.4,18.5,25.1,28.4,37.5L885,692l-35.2,28.9
				l-12.2-15.1c-10.3-13-20.5-25.9-30.5-40.3l-1.9-2.8l-2.4-3.7c-2.1-3.4-4.2-6.9-5.8-10.5c-1-1.8-1.5-3.6-2.1-5.4
				c-0.5-1.8-0.8-3.7-1-5.5l-0.2-2.8l-0.1-1.4c0-0.5,0.2-0.9,0.3-1.4c0.5-1.9,0.8-3.6,1.3-5.4l0.9-2.7c0.3-0.9,0.6-1.8,1.1-2.6
				c1-1.7,1.9-3.4,3-5.1l3.6-4.9c0.6-0.8,1.2-1.6,1.8-2.4l1.6-2c2.8-3.5,5.6-6.7,8.4-10c11.2-12.7,22.5-24.7,33.9-36.5
				c11.4-11.9,22.9-23.5,34.4-35.2L888.6,520.6z"/>
				<path fill="#047A9A" d="M1081.3,560.5c-11.4-11.9-22.9-23.5-34.4-35.2l-4.7-4.7c-8.9-9-23.4-9-32.3,0c-8.8,9-8.8,23.3,0,32.2
				l4.6,4.7c11.4,11.5,22.7,23,33.9,34.6"/>
				<path fill="#047A9A" d="M882.3,591.7c11.1-11.5,22.4-22.9,33.8-34.3l4.7-4.6c8.9-8.8,8.9-23.2,0.1-32.2c-8.8-9-23.3-9.1-32.3-0.1
				l-4.7,4.7c-11.5,11.5-23,23.1-34.3,34.8"/>
				<path fill="#047A9A" d="M1026.7,513.3c-15-3.3-38.2-7.4-62.3-7.4c-24.1,0-47.4,4.1-62.4,7.4c-9.5,2.1-17.1,12.2-17.1,22v158.8
				h158.9V535.3C1043.7,525.5,1036.2,515.4,1026.7,513.3z"/>
				<polygon fill="#67C0BF" points="857.1,552.1 843.5,566.4 875.7,599.1 888.9,585.7 			"/>
				<polygon fill="#67C0BF" points="1067.5,545.6 1081.3,560 1048.6,592.8 1035.2,579.3 			"/>
				<path fill="#67C0BF" d="M906,511.9l31.9,26.9l15.1-33.6C953.1,505.2,908.8,509.9,906,511.9z"/>
				<path fill="#67C0BF" d="M1019.8,511l-33,27.8l-15.1-33.9C971.6,504.9,1017,509,1019.8,511z"/>
				<path fill="#67C0BF" d="M1004.6,561.7h-6.7c-1.2,0-2.2-1-2.2-2.2v-4.3c0-1.2,1-2.2,2.2-2.2h6.7c1.2,0,2.2,1,2.2,2.2v4.3
				C1006.9,560.7,1005.8,561.7,1004.6,561.7z"/>
				<path fill="#FBCC9A" d="M1058.4,887.1l-13.1-192.9H886.3l-11,192.9l64.6,10.5l9.8-156.4c0.4-6.5,6-11.7,12.5-11.7h9
				c6.5,0,12.1,5.3,12.5,11.7l10,156.4L1058.4,887.1z"/>
				<path fill="#047A9A" d="M1056.4,858.5l-11.2-164.4H886.3l-7.5,131.5l-1.9,32.9h65.4l7.4-117.3c0.4-6.5,6-11.7,12.5-11.7h9
				c6.5,0,12.1,5.3,12.5,11.7l7.5,117.3H1056.4z"/>
				<polygon fill="#5EC1CA" points="878.3,834.7 877,858.5 942.4,858.5 943.9,834.7 			"/>
				<polygon fill="#5EC1CA" points="1054.8,834.7 1056.4,858.5 991.3,858.5 989.7,834.7 			"/>
				<path fill="#FBCC9A" d="M1012.5,510.5c-13.2-2.3-29.2-4.5-45.6-4.5c-16.4,0-32.5,1.9-45.7,4.2l42.9,12.3c0.7,0.8,1.6,1.3,2.7,1.3
				l0,0c1.1,0,2.1-0.5,2.7-1.3L1012.5,510.5z"/>
				<path fill="#FBCC9A" d="M999.4,490.9l2.4,17.6c0,0-15,18.3-35,18.3c-20,0-35-18.3-35-18.3l2.4-17.6H999.4z"/>
				<path fill="#ACCCCE" d="M887.6,694.9"/>
				<ellipse fill="#CC9966" cx="1076.2" cy="391.2" rx="20.6" ry="26.5"/>
				<ellipse fill="#FBCC9A" cx="854.1" cy="391.2" rx="20.6" ry="26.5"/>
				<path fill="#FBCC9A" d="M945.6,502.3c-49.7,0-90-40.8-90-91.1V315c0-50.3,40.3-91.1,90-91.1h22.1v278.5H945.6z"/>
				<path fill="#CC9966" d="M984.8,502.3c49.7,0,90-40.8,90-91.1V315c0-50.3-40.3-91.1-90-91.1h-19.6v278.5H984.8z"/>
				<path fill="#27190E" d="M965.2,355.6"/>
				<circle fill="#FBCC9A" cx="967.4" cy="408.1" r="13.8"/>
				<path
					id="pelo_4_8_"
					fill="#FECB37"
					d="M1085.8,267.8c17.8-18,33.1-48.5,26-72.2c-0.3-1.1-2.1-1.8-3.2-1.1
				c-16.2,10.4-33.8,17.9-53.7,21.4c-21.9,3.8-44.5,2.1-66.5,0.8c-38.4-2.2-79.8-2.1-110.8,20.4c-26.4,19.1-34,59.3-25.7,87.2
				c0,0.4,0.2,0.8,0.5,1c0.5,0.6,1.5,0.8,2.3,0.6c0.5-0.1,0.9-0.3,1.2-0.7c0,0,0.1-0.1,0.1-0.1c0,0,0-0.1,0.1-0.1
				c0.1-0.1,0.1-0.2,0.1-0.3c0,0,0,0,0-0.1c4.9-12.9,11.9-31.9,26-39.2c11.2-5.8,25.1-5,37.4-3.1c27.5,4.2,53.2,13.5,81.3,15.4
				c15.9,1.1,32.1-0.4,47.1-5.2c3.9-1.2,7.5-2.7,10.9-4.4c0.6,1.2,1.2,2.4,1.7,3.4c4.2,8.8,6.7,23.8,10.8,32.6
				c0.8,1.7,3.4,1.8,4.2,0c6.1-13.9,6.7-34.7,1.7-48.6C1080.3,273.2,1083.1,270.5,1085.8,267.8z"/>
				<polygon fill="#4AB2B4" points="940.2,902 869.5,902 869.5,890.2 875.6,879.4 940.6,890 			"/>
				<polygon fill="#4AB2B4" points="993.1,901.9 1063.8,901.9 1063.8,890.1 1057.7,879.3 993.1,889.8 			"/>
				<circle fill="#4AB2B4" cx="876.6" cy="878.1" r="7.1"/>
				<circle fill="#4AB2B4" cx="1057.4" cy="878.8" r="7.1"/>
				<path
					fill="#7F5D37"
					d="M855.6,365.8c0,0,15.1-0.4,18.8,14.6c0,0,7.1,36.4,37.8,35c27.2,1.2,35.9-27.1,37.5-33.7
				c3.4-13,13.5-13.9,15.6-14c2.1,0.1,12.2,1,15.6,14c1.6,6.6,10.3,34.9,37.5,33.7c30.8,1.4,37.8-35,37.8-35
				c3.7-15,18.7-14.1,18.7-14.1v-13.6l-1.5,0.1c-1.6,0-12.5-0.6-15.9-14.4l0.4,1.4l-0.5-1.4c0,0-42.3-29.6-83.1,7.6l-9.1-0.2
				l-9.1,0.2c-40.8-37.2-83.1-7.6-83.1-7.6c-3.4,13.8-15.8,14.4-17.4,14.4 M944.5,382c0,0-5.9,27.1-31.4,26
				c-22.2,0.9-29.5-19.3-31.1-24.7l0,0l0,0c-0.2-0.8-0.3-1.3-0.3-1.3l0.3,1.3l0,0c-2.3-8.4-0.3-21-0.3-21s5.9-27.1,31.4-26
				c23.7-1,30.5,22.3,31.3,25.6l0,0c0,0,2.2,7.7-0.2,21.4L944.5,382z M964.9,367.7c0,0,0.1,0,0.3,0H964.9z M965.4,367.7
				c0.2,0,0.3,0,0.3,0H965.4z M1050.8,381.2c0,0-5.9,27.1-31.4,26c-22.2,0.9-29.5-19.3-31.1-24.7l0,0l0,0c-0.2-0.8-0.3-1.3-0.3-1.3
				l0.3,1.3l0,0c-2.3-8.4-0.3-21-0.3-21s5.9-27.1,31.4-26c23.7-1,30.5,22.4,31.3,25.6l0,0c0,0,2.2,7.7-0.2,21.4L1050.8,381.2z"/>
				<path d="M856.9,352.8"/>
				<path d="M964.3,345.7"/>
				<polygon fill="#67C0BF" points="882.7,692.7 883.5,702.7 1044,702.3 1043.5,693.1 			"/>
				<path fill="#FBCC9A" d="M1079.1,722.9l2.2-2.7l-34.8-28.9l-2.1,2.6c-7.8,9.6-6.5,23.8,3,32
				C1056.8,734.1,1071.1,732.8,1079.1,722.9z"/>
				<path fill="#FBCC9A" d="M886.5,694.4l-2.1-2.7L849,719.8l2.1,2.7c7.8,10,22.1,11.7,31.7,3.7C892.5,718.4,894.1,704.2,886.5,694.4
				z"/>
				<path fill="#FBCC9A" d="M889.8,700.4c-3.3,2.5-7.3,2.8-9,0.6c-1.7-2.2-0.4-6.1,2.8-8.6c3.3-2.5,7.3-2.8,9-0.6
				C894.3,694,893,697.9,889.8,700.4z"/>
				<path fill="#FBCC9A" d="M1040.9,699.9c3.3,2.5,7.3,2.8,9,0.6c1.7-2.2,0.4-6.1-2.8-8.6c-3.3-2.5-7.3-2.8-9-0.6
				C1036.4,693.5,1037.7,697.4,1040.9,699.9z"/>
			</g>
		</g>
		<g id="CIUTAT_VELLA">
			<path id="pantalones_2_1_" fill="#5F64AA" d="M1055.1,881.2l-12.9-189.4h-156l-10.8,189.4l63.4,10.3l9.6-153.5
			c0.4-6.4,5.9-11.5,12.3-11.5h8.8c6.4,0,11.9,5.2,12.3,11.5l9.8,153.5L1055.1,881.2z"/>
			<g>
				<g>
					<g>
						<polygon fill="#968218" points="939,901.1 870.2,901.1 870.2,889.6 876.1,879.1 939,889.3 					"/>
						<polygon fill="#968218" points="991.5,901.1 1060.3,901.1 1060.3,889.6 1054.4,879.1 991.5,889.3 					"/>
					</g>
					<polyline fill="#968218" points="876.1,881 866.3,852.6 896.6,852.6 892.8,883.7 				"/>
					<polyline fill="#968218" points="1054.3,881 1064.1,852.6 1033.8,852.6 1037.7,883.7 				"/>
				</g>
				<g id="camiseta_1_2_">
					<g>
						<path
							fill="#968218"
							d="M1041.3,526.3c-8.7-8.7-22.8-8.7-31.4,0c-8.6,8.7-8.6,22.7,0,31.3l4.5,4.5c11.1,11.2,22.1,22.4,33,33.7
						c10.8,11.3,21.6,22.7,31.7,34.1c2.5,2.8,4.9,5.7,7.1,8.4l0.3,0.4l-2.4,3.6c-8.3,12-18,24.4-27.7,36.6l-11.6,14.3l34.3,28.1
						l11.9-14.7c10.1-12.6,20-25.2,29.7-39.3l1.8-2.7l2.3-3.6c2-3.4,4.1-6.8,5.7-10.3c0.9-1.7,1.4-3.5,2.1-5.3
						c0.4-1.8,0.7-3.6,0.9-5.4l0.2-2.7l0.1-1.4c0-0.5-0.2-0.9-0.2-1.4c-0.4-1.8-0.8-3.5-1.3-5.3l-0.9-2.6c-0.3-0.9-0.5-1.7-1.1-2.6
						c-1-1.6-1.9-3.3-3-5l-3.5-4.8c-0.6-0.8-1.2-1.6-1.8-2.3l-1.6-1.9c-2.8-3.4-5.5-6.6-8.2-9.7c-10.9-12.4-21.9-24-33-35.6
						c-11.1-11.6-22.3-22.9-33.5-34.2L1041.3,526.3z"/>
						<path
							fill="#968218"
							d="M923.1,557.6c8.6-8.6,8.7-22.6,0.1-31.3c-8.6-8.8-22.7-8.8-31.4-0.1l-4.6,4.6
						c-11.2,11.2-22.4,22.5-33.5,33.9c-11.1,11.5-22.1,23-33,35.2c-2.7,3.1-5.5,6.2-8.2,9.5l-2.6,3.2c-1.2,1.5-2.3,3.1-3.5,4.7
						l-1.7,2.4l-1.5,2.5c-1,1.6-2.1,3.3-2.5,5l-0.9,2.6l-0.6,2.6c-0.3,1.7-1.1,3.5-0.7,5.4c0.2,3.6,0.6,7.2,2.1,10.7
						c1.4,3.5,3.2,7,5.2,10.4c0.5,0.9,1,1.7,1.5,2.5l1.2,2l1.8,2.8c9.4,14.3,18.9,26.9,28.6,39.8l11.6,14.9l34.9-27.4L874,678.8
						c-9.3-12.3-18.7-24.8-26.7-36.9l-1.8-2.8l1.1-1.4c2.3-2.7,4.7-5.6,7.2-8.4c10.1-11.3,20.9-22.6,31.7-33.8
						c10.9-11.2,21.9-22.3,32.9-33.4L923.1,557.6z"/>
						<path fill="#968218" d="M1026.2,519.1c-14.6-3.3-37.2-7.2-60.7-7.2c-23.5,0-46.2,4-60.8,7.2c-9.3,2.1-16.6,11.9-16.6,21.4
						v154.7h154.8V540.6C1042.9,531.1,1035.5,521.2,1026.2,519.1z"/>
					</g>
				</g>
				<g>
					<path fill="#FBCC9A" d="M1012.2,516.3c-12.9-2.2-28.4-4.4-44.4-4.4c-16,0-31.6,1.9-44.5,4.1l41.8,12c0.6,0.8,1.6,1.3,2.6,1.3
					l0,0c1,0,2-0.5,2.6-1.3L1012.2,516.3z"/>
					<path fill="#FBCC9A" d="M999.4,497.2l2.4,17.2c0,0-14.6,17.8-34,17.8c-19.5,0-34.1-17.8-34.1-17.8l2.4-17.2H999.4z"/>
					<path fill="#FBCC9A" d="M1078,720.3l2.1-2.6l-33.9-28.1l-2.1,2.6c-7.6,9.3-6.3,23.2,2.9,31.1
					C1056.3,731.2,1070.2,729.9,1078,720.3z"/>
					<path fill="#FBCC9A" d="M886.9,693l-2-2.6l-34.5,27.4l2.1,2.7c7.6,9.8,21.5,11.4,30.9,3.6C892.7,716.4,894.3,702.5,886.9,693z"/>
					<path fill="#ACCCCE" d="M890.5,695.9"/>
					<path fill="#FBCC9A" d="M890,698.9c-3.2,2.5-7.1,2.7-8.7,0.6c-1.7-2.2-0.4-5.9,2.7-8.4c3.2-2.5,7.1-2.7,8.7-0.6
					C894.4,692.7,893.2,696.4,890,698.9z"/>
					<path fill="#FBCC9A" d="M1040.8,697.9c3.2,2.5,7.1,2.7,8.7,0.6c1.7-2.2,0.4-5.9-2.7-8.4c-3.2-2.5-7.1-2.7-8.7-0.6
					C1036.4,691.6,1037.6,695.4,1040.8,697.9z"/>
					<g>
						<g>
							<g>
								<ellipse fill="#CC9966" cx="1074.2" cy="400.1" rx="20.1" ry="25.8"/>
							</g>
							<ellipse fill="#FBCC9A" cx="857.9" cy="400.1" rx="20.1" ry="25.8"/>
							<path fill="#FBCC9A" d="M947,508.4c-48.4,0-87.7-39.7-87.7-88.8v-93.7c0-49,39.3-88.8,87.7-88.8h21.5v271.3H947z"/>
							<g>
								<path fill="#CC9966" d="M985.2,508.4c48.4,0,87.7-39.7,87.7-88.8v-93.7c0-49-39.3-88.8-87.7-88.8h-19.1v271.3H985.2z"/>
							</g>
						</g>
					</g>
					<path fill="#27190E" d="M966.1,365.4"/>
					<circle fill="#FBCC9A" cx="968.2" cy="416.5" r="13.5"/>
				</g>
				<path
					id="pelo6_2_"
					fill="#3C3C3B"
					d="M920.1,296.1c0,0,1.4-107.7,137.7-21.1l80-112.1l-3.5-7l-46.5,60.7l25-70.8
				c0,0-58.2-65.4-156.2-71.9l6.4,55.8L936,73.8c0,0-116,5.9-146.7,34.9c0,0,69.6,45.8,94.6,95.2c0,0-81.6-65.8-134.2-62.4
				C749.6,141.5,923.5,206.7,920.1,296.1z"/>
				<path
					fill="#EACE04"
					stroke="#EACE04"
					stroke-miterlimit="10"
					d="M908.9,615.6c0.1-32,26.2-58.7,59-58.6
				c30.7,0.1,58.9,24.3,58.6,59.3c-0.2,34.7-28.5,58.5-58.4,58.6C935.6,675,908.8,648.6,908.9,615.6z M1024.6,615.8
				c0.1-31.5-26-57-56.7-56.9c-32.1,0.1-56.5,25.5-57,56c-0.5,34.1,27.2,57.7,56,58C999.4,673.1,1025,646.5,1024.6,615.8z"/>
				<g>
					<path fill="none" stroke="#3C3C3B" stroke-width="2" stroke-miterlimit="10" d="M956.4,432.9c0,0,10.2-25.6,19.6,0"/>
					<ellipse fill="#3C3C3B" stroke="#3C3C3B" stroke-miterlimit="10" cx="975.9" cy="432.9" rx="1.8" ry="1.9"/>
					<ellipse fill="#3C3C3B" stroke="#3C3C3B" stroke-miterlimit="10" cx="956.4" cy="432.9" rx="1.8" ry="1.9"/>
				</g>
				<path
					fill="#EACE04"
					stroke="#EACE04"
					stroke-miterlimit="10"
					d="M924.8,616.5c0-23.4,19.1-42.9,43.1-42.8
				c22.4,0.1,43,17.7,42.8,43.3c-0.2,25.3-20.8,42.7-42.6,42.8C944.3,659.8,924.7,640.5,924.8,616.5z M1009.3,616.6
				c0.1-23-19-41.6-41.4-41.5c-23.5,0.1-41.3,18.6-41.6,40.9c-0.4,24.9,19.9,42.1,40.9,42.3C990.9,658.5,1009.5,639,1009.3,616.6z"/>
				<polygon fill="#EACE04" stroke="#EACE04" stroke-miterlimit="10" points="966,583.3 973.7,607.1 998.8,607.1 978.5,621.8
				986.2,645.6 966,630.9 945.7,645.6 953.5,621.8 933.2,607.1 958.2,607.1 			"/>
			</g>
		</g>
		<g id="SANTS_MONTJUIC">
			<g>
				<path fill="#FEDA97" d="M1014.1,512c-13-2.3-28.7-4.4-44.8-4.4c-16.2,0-31.9,1.9-45,4.2l42.2,12.1c0.6,0.8,1.6,1.3,2.7,1.3l0,0
				c1,0,2-0.5,2.7-1.3L1014.1,512z"/>
				<path fill="#FBCC9A" d="M1001.2,492.8l2.4,17.4c0,0-14.7,18-34.4,18c-19.7,0-34.4-18-34.4-18l2.4-17.4H1001.2z"/>
				<path fill="#ACCCCE" d="M891.2,693.4"/>
				<g>
					<ellipse fill="#CC9966" cx="1076.8" cy="394.7" rx="20.3" ry="26.1"/>
					<ellipse fill="#FBCC9A" cx="858.3" cy="394.7" rx="20.3" ry="26.1"/>
					<path fill="#FBCC9A" d="M948.2,504c-48.9,0-88.6-40.1-88.6-89.7v-94.7c0-49.5,39.7-89.7,88.6-89.7h21.7v274H948.2z"/>
					<path fill="#CC9966" d="M986.8,504c48.9,0,88.6-40.1,88.6-89.7v-94.7c0-49.5-39.7-89.7-88.6-89.7h-19.2v274H986.8z"/>
				</g>
				<path fill="#27190E" d="M967.6,359.6"/>
				<circle fill="#FBCC9A" cx="969.7" cy="411.2" r="13.6"/>
				<path fill="#FBCC9A" d="M1059,879.8L1042.3,690L889.7,690l-10.8,189.8l63.6,10.4l2.4-158.3c0.4-6.4,13.1-7.1,19.5-7.1h8.9
				c6.4,0,14.1,5.7,14.5,12.1l4.6,133.2L1059,879.8z"/>
				<path fill="#333333" d="M1059.9,824.8L1042.3,690h-76.6h-79.1L872.4,826l75.4,0l1-89.6c0.4-6.4,5.9-11.5,12.2-11.5h8.8
				c6.4,0,11.8,5.2,12.3,11.5l0.4,89.6L1059.9,824.8z"/>
				<path
					fill="#FBCC9A"
					d="M1040.9,522.2c-8.7-8.8-22.8-8.8-31.4,0c-8.6,8.8-8.6,22.9,0,31.6l4.5,4.6c11.1,11.3,22.1,22.6,32.9,34.1
				c10.8,11.4,21.6,22.9,31.6,34.4c2.5,2.9,4.9,5.7,7.1,8.5l0.3,0.4l-2.4,3.7c-8.3,12.2-18,24.7-27.6,36.9l-11.5,14.4l34.3,28.4
				l11.9-14.8c10-12.8,19.9-25.5,29.6-39.7l1.8-2.7l2.3-3.6c2-3.4,4.1-6.8,5.7-10.4c0.9-1.7,1.4-3.6,2.1-5.3
				c0.4-1.8,0.7-3.6,0.9-5.4l0.2-2.7l0.1-1.4c0-0.5-0.2-0.9-0.2-1.4c-0.4-1.8-0.8-3.6-1.3-5.3l-0.9-2.6c-0.3-0.9-0.5-1.8-1.1-2.6
				c-1-1.7-1.9-3.4-3-5l-3.5-4.8c-0.6-0.8-1.2-1.6-1.8-2.4l-1.6-1.9c-2.8-3.5-5.5-6.6-8.2-9.8c-10.9-12.5-21.9-24.3-33-36
				c-11.1-11.7-22.2-23.2-33.5-34.6L1040.9,522.2z"/>
				<path
					fill="#FBCC9A"
					d="M922.2,553.5c8.6-8.7,8.7-22.8,0.1-31.6c-8.6-8.9-22.6-8.9-31.4-0.1l-4.6,4.6
				c-11.2,11.3-22.3,22.7-33.4,34.3c-11.1,11.6-22,23.2-32.9,35.5c-2.7,3.1-5.4,6.3-8.2,9.6l-2.6,3.2c-1.2,1.5-2.3,3.2-3.5,4.7
				l-1.7,2.4l-1.5,2.5c-1,1.7-2.1,3.3-2.5,5.1l-0.9,2.6l-0.6,2.6c-0.3,1.8-1.1,3.6-0.7,5.4c0.2,3.6,0.6,7.3,2.1,10.8
				c1.4,3.6,3.2,7.1,5.2,10.5c0.5,0.9,1,1.7,1.5,2.6l1.2,2l1.8,2.8c9.3,14.4,18.9,27.2,28.6,40.2l11.5,15.1l34.9-27.6l-11.2-14.7
				c-9.3-12.4-18.7-25.1-26.6-37.3l-1.8-2.8l1.1-1.4c2.3-2.8,4.7-5.6,7.2-8.5c10.1-11.4,20.8-22.8,31.6-34.1
				c10.8-11.3,21.8-22.6,32.9-33.7L922.2,553.5z"/>
				<path fill="#3C3E92" d="M1078.4,560.9c-11.1-11.7-22.2-23.2-33.5-34.6l-4.6-4.6c-8.7-8.8-22.8-8.8-31.4,0
				c-8.6,8.8-8.6,22.9,0,31.6l4.5,4.6c11.1,11.3,22.1,22.6,32.9,34.1"/>
				<path fill="#3C3E92" d="M885,591.6c10.8-11.3,21.8-22.6,32.9-33.7l4.5-4.6c8.6-8.7,8.7-22.8,0.1-31.6c-8.6-8.9-22.6-8.9-31.4-0.1
				l-4.6,4.6c-11.2,11.3-22.3,22.7-33.4,34.3"/>
				<path fill="#3C3E92" d="M1025.3,514.5c-14.6-3.3-37.1-7.3-60.6-7.3c-23.5,0-46.1,4-60.7,7.3c-9.2,2.1-16.6,12-16.6,21.6v156.2
				h154.5V536.1C1041.9,526.6,1034.5,516.6,1025.3,514.5z"/>
				<path fill="#FBCC9A" d="M1077.7,721l2.1-2.6l-34.3-28.4l-2.1,2.6c-7.7,9.4-6.4,23.4,2.9,31.5C1055.7,732,1069.8,730.6,1077.7,721
				z"/>
				<path fill="#FBCC9A" d="M1040.1,698.3c3.2,2.5,7.1,2.8,8.8,0.6c1.7-2.2,0.4-6-2.8-8.5c-3.2-2.5-7.1-2.8-8.8-0.6
				C1035.7,692,1036.9,695.8,1040.1,698.3z"/>
				<path fill="#FBCC9A" d="M886.4,693.1l-2-2.6l-34.9,27.6l2.1,2.7c7.7,9.9,21.7,11.5,31.2,3.7C892.3,716.7,893.8,702.7,886.4,693.1
				z"/>
				<path fill="#FBCC9A" d="M889.6,699c-3.2,2.5-7.1,2.8-8.8,0.6c-1.7-2.2-0.4-6,2.8-8.5s7.1-2.8,8.8-0.6
				C894,692.7,892.8,696.5,889.6,699z"/>
				<g>
					<polygon fill="#3C3E92" points="942.3,902.1 872.8,902.1 872.8,890.5 878.7,879.8 942.8,871 				"/>
					<polyline fill="#3C3E92" points="878.7,879.8 865.3,844.1 908.7,834.8 907,884.5 				"/>
				</g>
				<g>
					<polygon fill="#3C3E92" points="992.6,902.1 1066,902.1 1066,890.5 1060,879.8 992.4,870 				"/>
					<polyline fill="#3C3E92" points="1058.7,879.8 1072.2,844.1 1028.7,834.8 1030.5,884.5 				"/>
				</g>
				<path fill="#333333" d="M969.4,215.9c0,0-11.4,85.8-108.9,120C801.4,356.6,882.6,169.4,969.4,215.9z"/>
				<path fill="#333333" d="M962.6,215.9c0,0,20.1,96,110.8,120C1133.9,351.9,1049.4,169.4,962.6,215.9z"/>
				<polyline fill="#333333" points="871.3,330.4 877.6,417 857.2,417 857.2,323.8 			"/>
				<polyline fill="#333333" points="1061.6,324.8 1055.3,416.3 1075.7,416.3 1075.7,318.2 			"/>
				<g>
					<path
						fill="#3C3E92"
						d="M1075.5,345.1c0-0.7-0.4-1.2-1-1.4c-0.5-0.1-0.9-0.3-1.4-0.3c-6.7-1.1-13.5-2.2-20.3-2.7
					c-5.4-0.4-10.9-0.7-16.4-0.9c-10.5-0.5-21-0.3-31.4,1.1c-6.4,0.8-12.7,2.1-18.8,4.2c-3.1,1.1-6.2,2.3-9.3,3.3
					c-4.8,1.6-9.8,2.3-14.8,1.4c-3-0.6-6-1.5-8.9-2.5c-5.3-1.8-10.6-3.6-16.1-4.7c-10.7-2.1-21.5-3-31.5-2.9
					c-8.2,0-15.6,0.3-22.9,1.2c-6,0.8-12,1.6-18,2.5c-1.3,0.2-2.5,0.6-3.8,0.9c-0.7,0.2-1.1,0.7-1.1,1.4c-0.1,3.7-0.2,7.5-0.3,11.2
					c0,0.6,0.1,1.1,0.2,1.7c0.1,0.5,0.3,0.8,0.7,1c0.5,0.2,0.9,0.4,1.3,0.7c2,1.4,2.9,3.6,3.7,5.9c0.5,1.6,0.9,3.3,1.3,5
					c0.3,1,0.6,2,0.9,3.1c1,4.9,2,9.8,3.1,14.6c1,4.6,2.3,9.2,4.5,13.4c2.4,4.7,5.7,8.4,10.5,10.5c2.9,1.3,5.9,2.1,9,2.6
					c5.5,0.9,11.1,1,16.6,0.6c5.6-0.4,11.2-1.3,16.6-3.1c4-1.3,7.8-3.1,11.1-6c4.9-4.4,8.9-9.7,11.9-15.7c3-6,5.2-12.4,7.1-18.9
					c0.6-1.9,1.1-3.7,1.7-5.6c0.9-2.7,2.8-4.4,5.5-4.8c0.9-0.1,1.8-0.2,2.6-0.1c2,0.1,4,0.6,5.4,2.4c0.6,0.8,1.1,1.7,1.5,2.6
					c0.7,1.8,1.5,3.6,2,5.5c2.4,8,5.6,15.7,9.6,22.9c3.3,6,7.8,10.9,13.6,14.3c4.1,2.4,8.6,3.9,13.2,4.8c6.9,1.4,13.9,1.8,21,1.4
					c4.3-0.2,8.5-0.8,12.6-2.1c4.2-1.3,7.9-3.5,10.6-7.2c1.8-2.4,3.1-5,4.2-7.8c2.3-5.9,3.8-12,5.1-18.2c0.7-3,1.3-6.1,2-9.1
					c0.4-1.6,0.8-3.1,1.2-4.7c0.4-1.5,0.7-2.9,1.6-4.2c0.9-1.3,1.8-2.5,3.3-3.1c0.6-0.2,1-0.7,1.1-1.4c0.1-0.5,0.2-1,0.2-1.5
					c0-2.2,0-4.5-0.1-6.7C1075.8,348.3,1075.6,346.7,1075.5,345.1 M948.5,375.8c-1.5,6.5-3.9,12.6-7.1,18.4
					c-1.8,3.2-3.7,6.1-6.3,8.6c-3.3,3.4-7.3,5.3-11.7,6.5c-8.9,2.5-17.9,3.1-27,1.6c-1.8-0.3-3.5-0.8-5.3-1.2
					c-3.6-1-6.4-3.2-8.4-6.5c-2.3-3.6-3.7-7.6-4.7-11.8c-1.2-5.5-1.9-11.1-2.5-16.7c-0.3-3.3-0.2-6.5,0.1-9.7
					c0.2-1.6,0.3-3.3,0.7-4.9c1.2-5.7,4.6-9.3,9.9-10.8c4.9-1.3,9.9-2.1,14.9-2.6c3.7-0.3,7.5-0.5,9.9-0.6
					c8.6,0.1,15.8,0.7,22.9,2.4c2.9,0.7,5.8,1.3,8.5,2.8c1.3,0.7,2.6,1.6,3.7,2.6c1.9,1.6,2.8,3.9,3.2,6.4
					C950.1,365.6,949.7,370.7,948.5,375.8 M1059.5,373.4c-0.2,7.9-1.4,15.6-4.1,23c-1.1,3-2.5,5.8-4.7,8c-2.5,2.5-5.5,3.8-8.8,4.8
					c-4.1,1.2-8.2,1.4-12.4,1.5c-6.3,0.1-12.6-0.8-18.8-2.2c-6.1-1.4-11-4.8-14.9-9.9c-5-6.6-8.2-14-10-22.2
					c-0.8-3.8-1.5-7.6-1.4-11.5c0-1.7,0.2-3.4,0.5-5c0.7-4.1,3.1-6.8,6.7-8.3c3.6-1.5,7.4-2.5,11.3-3.3c4.3-0.9,8.6-1.6,12.9-1.9
					c3.4-0.2,6.8-0.3,9.1-0.4c9.1,0.5,17,1.2,24.7,3.5c1.4,0.4,2.8,1.1,4.1,1.8c1.3,0.6,2.2,1.7,2.9,3c0.7,1.5,1.4,2.9,2,4.5
					c0.6,1.8,0.8,3.7,0.9,5.6C1059.5,367.3,1059.6,370.3,1059.5,373.4 M1066.7,352.1"/>
				</g>
				<circle fill="#B57B35" stroke="#B57B35" stroke-width="0.5" stroke-miterlimit="10" cx="921.9" cy="418.6" r="1.6"/>
				<circle fill="#B57B35" stroke="#B57B35" stroke-width="0.5" stroke-miterlimit="10" cx="926.1" cy="429.5" r="1.6"/>
				<circle fill="#B57B35" stroke="#B57B35" stroke-width="0.5" stroke-miterlimit="10" cx="908.1" cy="420.2" r="1.6"/>
				<circle fill="#B57B35" stroke="#B57B35" stroke-width="0.5" stroke-miterlimit="10" cx="916.3" cy="426.2" r="1.6"/>
				<circle fill="#B57B35" stroke="#B57B35" stroke-width="0.5" stroke-miterlimit="10" cx="917.4" cy="436.5" r="1.6"/>
				<circle fill="#B57B35" stroke="#B57B35" stroke-width="0.5" stroke-miterlimit="10" cx="909.8" cy="443.1" r="1.6"/>
				<circle fill="#B57B35" stroke="#B57B35" stroke-width="0.5" stroke-miterlimit="10" cx="908.1" cy="431.1" r="1.6"/>
				<circle fill="#B57B35" stroke="#B57B35" stroke-width="0.5" stroke-miterlimit="10" cx="927.7" cy="439.7" r="1.6"/>
				<circle fill="#B57B35" stroke="#B57B35" stroke-width="0.5" stroke-miterlimit="10" cx="900" cy="426.2" r="1.6"/>
				<circle fill="#B57B35" stroke="#B57B35" stroke-width="0.5" stroke-miterlimit="10" cx="901.6" cy="436" r="1.6"/>
				<circle fill="#B57B35" stroke="#B57B35" stroke-width="0.5" stroke-miterlimit="10" cx="920.2" cy="445.8" r="1.6"/>
				<circle fill="#B57B35" stroke="#B57B35" stroke-width="0.5" stroke-miterlimit="10" cx="1011.7" cy="419.9" r="1.6"/>
				<circle fill="#B57B35" stroke="#B57B35" stroke-width="0.5" stroke-miterlimit="10" cx="1007.5" cy="430.7" r="1.6"/>
				<circle fill="#B57B35" stroke="#B57B35" stroke-width="0.5" stroke-miterlimit="10" cx="1025.4" cy="421.5" r="1.6"/>
				<circle fill="#B57B35" stroke="#B57B35" stroke-width="0.5" stroke-miterlimit="10" cx="1017.2" cy="427.4" r="1.6"/>
				<circle fill="#B57B35" stroke="#B57B35" stroke-width="0.5" stroke-miterlimit="10" cx="1016.1" cy="437.7" r="1.6"/>
				<circle fill="#B57B35" stroke="#B57B35" stroke-width="0.5" stroke-miterlimit="10" cx="1023.8" cy="444.3" r="1.6"/>
				<circle fill="#B57B35" stroke="#B57B35" stroke-width="0.5" stroke-miterlimit="10" cx="1025.4" cy="432.4" r="1.6"/>
				<circle fill="#B57B35" stroke="#B57B35" stroke-width="0.5" stroke-miterlimit="10" cx="1005.9" cy="441" r="1.6"/>
				<circle fill="#B57B35" stroke="#B57B35" stroke-width="0.5" stroke-miterlimit="10" cx="1033.6" cy="427.4" r="1.6"/>
				<circle fill="#B57B35" stroke="#B57B35" stroke-width="0.5" stroke-miterlimit="10" cx="1031.9" cy="437.2" r="1.6"/>
				<circle fill="#B57B35" stroke="#B57B35" stroke-width="0.5" stroke-miterlimit="10" cx="1013.3" cy="447.1" r="1.6"/>
			</g>
		</g>
		<g id="LES_CORTS">
			<g>
				<path id="pantalones_2_2_" fill="#5F63AA" d="M1058.7,885.5l-12.9-190.2H889.2l-10.8,190.2l63.7,10.4l9.7-154.2
				c0.4-6.4,5.9-11.6,12.3-11.6h8.9c6.4,0,11.9,5.2,12.3,11.6l9.9,154.2L1058.7,885.5z"/>
				<g>
					<path
						fill="#3C3C3B"
						d="M1042.2,524.3c-8.8-8.8-23.1-8.8-31.8,0c-8.7,8.8-8.7,23,0,31.7l4.6,4.6c11.2,11.3,22.4,22.7,33.4,34.1
					c11,11.4,21.9,23,32,34.5c2.5,2.9,5,5.8,7.2,8.5l0.3,0.4l-2.5,3.7c-8.4,12.2-18.2,24.7-28,37l-11.7,14.4l34.7,28.5l12-14.8
					c10.2-12.8,20.2-25.5,30-39.7l1.8-2.7l2.3-3.6c2.1-3.4,4.2-6.8,5.8-10.4c0.9-1.8,1.5-3.6,2.1-5.4c0.5-1.8,0.7-3.6,0.9-5.4
					l0.2-2.7l0.1-1.4c0-0.5-0.2-0.9-0.3-1.4c-0.4-1.8-0.8-3.6-1.3-5.3l-0.9-2.6c-0.3-0.9-0.5-1.8-1.1-2.6c-1-1.7-1.9-3.4-3-5
					l-3.5-4.8c-0.6-0.8-1.2-1.6-1.8-2.4l-1.6-1.9c-2.8-3.5-5.6-6.6-8.3-9.8c-11-12.6-22.2-24.3-33.4-36
					c-11.2-11.7-22.5-23.2-33.9-34.7L1042.2,524.3z"/>
					<path
						fill="#3C3C3B"
						d="M922.6,556c8.7-8.7,8.8-22.8,0.1-31.7c-8.7-8.9-23-8.9-31.8-0.1l-4.6,4.6
					c-11.4,11.3-22.6,22.8-33.9,34.3c-11.2,11.6-22.3,23.2-33.4,35.6c-2.8,3.1-5.5,6.3-8.3,9.6l-2.7,3.3c-1.2,1.5-2.4,3.2-3.6,4.7
					l-1.8,2.4l-1.5,2.5c-1,1.7-2.1,3.3-2.6,5.1l-0.9,2.6l-0.6,2.6c-0.3,1.8-1.1,3.6-0.7,5.5c0.2,3.6,0.6,7.3,2.1,10.9
					c1.4,3.6,3.2,7.1,5.3,10.5c0.5,0.9,1,1.7,1.5,2.6l1.2,2l1.8,2.8c9.5,14.5,19.1,27.3,29,40.2l11.7,15.1l35.4-27.7l-11.4-14.7
					c-9.5-12.4-19-25.1-27-37.4l-1.8-2.8l1.1-1.4c2.3-2.8,4.8-5.6,7.3-8.5c10.2-11.4,21.1-22.9,32.1-34.2
					c11-11.3,22.1-22.6,33.3-33.8L922.6,556z"/>
					<path fill="#3C3C3B" d="M951.1,511v184.3h-63.9V538.8c0-9.6,7.5-19.6,16.8-21.7c14.8-3.3,14.2-6.1,38-6.1"/>
					<path fill="#3C3C3B" d="M992.6,511c23.8,0,23.1,2.8,38,6.1c9.4,2.1,16.8,12.1,16.8,21.7v156.5h-54.8V511"/>
				</g>
				<rect x="942" y="511" fill="#5F63AA" width="50.7" height="184.3"/>
				<g>
					<path fill="#FBCC9A" d="M1012.7,512.3c-13-2.3-28.7-4.4-44.9-4.4c-16.2,0-32,1.9-45.1,4.2l42.3,12.1c0.6,0.8,1.6,1.3,2.7,1.3
					l0,0c1,0,2-0.5,2.7-1.3L1012.7,512.3z"/>
					<path fill="#FBCC9A" d="M999.8,493.1l2.4,17.4c0,0-14.7,18-34.5,18c-19.7,0-34.5-18-34.5-18l2.4-17.4H999.8z"/>
					<path fill="#FBCC9A" d="M1079.3,723.4l2.2-2.6l-34.3-28.5l-2.1,2.6c-7.7,9.5-6.4,23.5,2.9,31.5
					C1057.3,734.4,1071.4,733.1,1079.3,723.4z"/>
					<path fill="#FBCC9A" d="M885.9,695.7l-2-2.6L849,720.7l2.1,2.7c7.7,9.9,21.8,11.5,31.3,3.7C891.8,719.3,893.4,705.3,885.9,695.7
					z"/>
					<path fill="#ACCCCE" d="M889.6,694.1"/>
					<path fill="#FBCC9A" d="M889.2,701.6c-3.2,2.5-7.2,2.8-8.8,0.6c-1.7-2.2-0.4-6,2.8-8.5c3.2-2.5,7.2-2.8,8.8-0.6
					C893.6,695.3,892.4,699.1,889.2,701.6z"/>
					<path fill="#FBCC9A" d="M1041.7,700.7c3.2,2.5,7.2,2.8,8.8,0.6c1.7-2.2,0.4-6-2.8-8.5c-3.2-2.5-7.2-2.8-8.8-0.6
					C1037.3,694.3,1038.5,698.1,1041.7,700.7z"/>
					<g>
						<g>
							<g>
								<ellipse fill="#CC9966" cx="1075.5" cy="394.8" rx="20.3" ry="26.1"/>
							</g>
							<ellipse fill="#FBCC9A" cx="856.6" cy="394.8" rx="20.3" ry="26.1"/>
							<path fill="#FBCC9A" d="M946.7,504.3c-49,0-88.8-40.2-88.8-89.8v-94.9c0-49.6,39.7-89.8,88.8-89.8h21.8v274.5H946.7z"/>
							<g>
								<path fill="#CC9966" d="M985.4,504.3c49,0,88.8-40.2,88.8-89.8v-94.9c0-49.6-39.7-89.8-88.8-89.8h-19.3v274.5H985.4z"/>
							</g>
						</g>
					</g>
					<path fill="#27190E" d="M966.1,359.6"/>
					<circle fill="#FBCC9A" cx="968.3" cy="411.4" r="13.6"/>
				</g>
				<g>
					<g>
						<path fill="#3C3C3B" d="M966.1,290.5c0,0-62-50-107.9,21.1c0,0,2.4-82.2,87.7-86.7h40.3"/>
						<path fill="#3C3C3B" d="M966.1,290.5c0,0,62.6-50.4,108,19.1c0,0-3.2-79.9-86.9-84.4h-40"/>
					</g>
				</g>
				<g>
					<path fill="none" stroke="#3C3C3B" stroke-width="5" stroke-miterlimit="10" d="M949.8,374.2h-73.6c-3.1,0-5.7-2.5-5.7-5.7
					v-17.9c0-3.1,2.5-5.7,5.7-5.7h73.6c3.1,0,5.7,2.5,5.7,5.7v17.9C955.4,371.7,952.9,374.2,949.8,374.2z"/>
					<path fill="none" stroke="#3C3C3B" stroke-width="5" stroke-miterlimit="10" d="M1052.8,374.2h-69.4c-3.1,0-5.7-2.5-5.7-5.7
					v-17.9c0-3.1,2.5-5.7,5.7-5.7h69.4c3.1,0,5.7,2.5,5.7,5.7v17.9C1058.5,371.7,1056,374.2,1052.8,374.2z"/>
					<line fill="none" stroke="#3C3C3B" stroke-width="5" stroke-miterlimit="10" x1="955.4" y1="359.6" x2="977.8" y2="359.6"/>
					<line fill="none" stroke="#3C3C3B" stroke-width="5" stroke-miterlimit="10" x1="1058.5" y1="359.6" x2="1074.1" y2="359.6"/>
					<line fill="none" stroke="#3C3C3B" stroke-width="5" stroke-miterlimit="10" x1="870.5" y1="359.6" x2="858.1" y2="359.6"/>
				</g>
				<g id="zapatos_1_2_">
					<polygon fill="#3C3C3B" points="942.3,903.7 872.6,903.7 872.6,892 878.6,881.4 942.3,891.8 				"/>
					<polygon fill="#3C3C3B" points="994.3,903.3 1064.5,903.7 1064.5,895.6 1059.1,884.6 994.9,891.4 				"/>
				</g>
				<g>
					<g>
						<path fill="#CBC9E6" d="M946.9,595.4C946.9,595.4,946.9,595.4,946.9,595.4l0.2,8l42.5,4.6v-2.6L946.9,595.4z"/>
						<path fill="#CBC9E6" d="M989.6,596.4v-10.8c0,0-37.7-9.7-42.2,6.2L989.6,596.4z"/>
						<path fill="#CBC9E6" d="M947.2,607l0.3,14.5c0,0,32.7,7.2,40.4-4.9L947.2,607z"/>
					</g>
				</g>
			</g>
		</g>
		<g id="GRACIA">
			<g>
				<path fill="#7F5D37" d="M1060.7,889.5l-13.3-192.6H885.7l-11.2,192.6l65.7,10.5l10.1-60.4c0.4-6.5,6.1-11.7,12.7-11.7h9.2
				c6.6,0,12.3,5.2,12.7,11.7L995,900L1060.7,889.5z"/>
				<polygon fill="#93AA2D" points="885.7,696.9 885,708.8 1048.1,708.8 1047.3,696.9 			"/>
				<path fill="#8E888C" d="M904.7,516.4c0,0,67-82.8,124.5,0L904.7,516.4z"/>
				<polyline fill="#2C0D0F" points="841.1,545.6 847.4,534.4 847.4,534.8 845,547.4 856.5,552.3 916.1,469 886.3,427 809.2,511
				817.1,521.6 824.8,517.1 825.2,517.7 816.6,526.2 826.4,535.5 835.5,526.4 836.4,526.2 830.1,537.4 			"/>
				<circle fill="#2C0D0F" cx="814.7" cy="515.2" r="7.8"/>
				<circle fill="#2C0D0F" cx="822.3" cy="530" r="7.8"/>
				<circle fill="#2C0D0F" cx="836" cy="541.1" r="7.8"/>
				<circle fill="#2C0D0F" cx="851.6" cy="548.5" r="7.8"/>
				<polyline fill="#2C0D0F" points="1092.6,543.5 1086.3,532.3 1086.3,532.7 1088.7,545.3 1077.1,550.2 1017.6,467 1047.4,425
				1124.5,509 1116.5,519.6 1108.9,515 1108.4,515.6 1117,524.2 1107.2,533.5 1098.1,524.4 1097.2,524.2 1103.5,535.4 			"/>
				<circle fill="#2C0D0F" cx="1119" cy="513.1" r="7.8"/>
				<circle fill="#2C0D0F" cx="1111.4" cy="528" r="7.8"/>
				<circle fill="#2C0D0F" cx="1097.7" cy="539" r="7.8"/>
				<circle fill="#2C0D0F" cx="1082" cy="546.5" r="7.8"/>
				<path
					fill="#6D8028"
					d="M1044.7,523.7c-8.9-9-23.4-8.9-32.2,0c-8.8,9-8.8,23.3,0,32.1l4.6,4.6c11.4,11.4,22.7,23,33.8,34.5
				c11.1,11.6,22.2,23.3,32.5,35c2.5,2.9,5.1,5.8,7.3,8.6l0.3,0.4l-2.5,3.7c-8.5,12.3-18.5,25-28.4,37.5l-11.8,14.6l35.2,28.8
				l12.2-15c10.3-13,20.5-25.8,30.4-40.2l1.9-2.8l2.4-3.7c2.1-3.4,4.2-6.9,5.8-10.5c1-1.8,1.5-3.6,2.1-5.4c0.5-1.8,0.8-3.7,1-5.5
				l0.2-2.8l0.1-1.4c0-0.5-0.2-0.9-0.3-1.4c-0.5-1.9-0.8-3.6-1.3-5.4l-0.9-2.7c-0.3-0.9-0.6-1.8-1.1-2.6c-1-1.7-1.9-3.4-3-5.1
				l-3.6-4.9c-0.6-0.8-1.2-1.6-1.8-2.4l-1.6-2c-2.8-3.5-5.6-6.7-8.4-9.9c-11.2-12.7-22.5-24.6-33.8-36.5
				c-11.4-11.8-22.8-23.5-34.4-35.1L1044.7,523.7z"/>
				<path
					fill="#6D8028"
					d="M923.5,555.8c8.8-8.8,8.9-23.1,0.1-32.1c-8.8-9-23.3-9-32.2-0.1l-4.7,4.7c-11.5,11.5-22.9,23-34.3,34.8
				c-11.4,11.7-22.6,23.5-33.8,36.1c-2.8,3.1-5.6,6.4-8.4,9.7l-2.7,3.3c-1.2,1.5-2.4,3.2-3.6,4.8l-1.8,2.4l-1.5,2.5
				c-1,1.7-2.1,3.3-2.6,5.1l-0.9,2.6l-0.6,2.7c-0.3,1.8-1.1,3.6-0.8,5.5c0.3,3.7,0.6,7.4,2.1,11c1.5,3.6,3.3,7.2,5.3,10.7
				c0.5,0.9,1,1.8,1.5,2.6l1.2,2l1.8,2.8c9.6,14.6,19.4,27.6,29.4,40.7l11.8,15.3l35.8-28L873.2,680c-9.6-12.6-19.2-25.4-27.3-37.8
				l-1.8-2.9l1.2-1.4c2.3-2.8,4.9-5.7,7.4-8.6c10.3-11.6,21.4-23.2,32.5-34.6c11.1-11.5,22.4-22.9,33.8-34.2L923.5,555.8z"/>
				<path fill="#6D8028" d="M1029.2,516.4c-15-3.3-38.1-7.4-62.2-7.4c-24.1,0-47.3,4.1-62.3,7.4c-9.5,2.1-17.1,12.2-17.1,21.9v158.5
				h158.6V538.4C1046.2,528.7,1038.7,518.5,1029.2,516.4z"/>
				<g>
					<g>
						<path
							fill="#8E888C"
							d="M905.7,516.5c-0.3,4.4,2.3,7.6,5.1,10.7c2.8,3.1,5.1,6.3,6.6,10.2c0.8,2.1,1.4,4.6,1.1,6.9
						c-0.2,1.5-2,3.3-2.9,4.5c-7.1,9.5,0.9,21.6,7.3,28.8c1.1,1.2,2.8-0.6,1.8-1.8c-4.6-5.2-8.6-10.7-9.1-17.8
						c-0.4-6.2,4.8-9,5.6-14.5c0.6-3.8-1.8-8.3-3.6-11.6c-2.8-5.2-9.8-9-9.4-15.4C908.3,514.9,905.8,514.9,905.7,516.5L905.7,516.5z
						"/>
					</g>
				</g>
				<g>
					<g>
						<path
							fill="#8E888C"
							d="M1025.5,516.5c0.3,5.8-5.4,9.7-8.5,14c-2.6,3.6-4.2,8.2-4.5,12.6c-0.1,1.7,0.8,3.2,1.7,4.5
						c1.9,3,3.5,5,3.9,8.7c0.8,7.5-4.4,14.1-9,19.3c-1.1,1.2,0.7,3,1.8,1.8c6.8-7.7,12.7-17.2,8-27.5c-0.6-1.3-1.6-2.5-2.5-3.6
						c-1.8-2.4-1.3-4.8-0.6-7.5c1.1-4,3.4-7.6,6.2-10.7c3.1-3.5,6.4-6.8,6.1-11.8C1027.9,514.9,1025.4,514.9,1025.5,516.5
						L1025.5,516.5z"/>
					</g>
				</g>
				<path fill="#FEDA97" d="M1010.5,513.2c-13.2-2.3-29.1-4.5-45.5-4.5c-16.4,0-32.4,1.9-45.6,4.2l42.9,12.3c0.6,0.8,1.6,1.3,2.7,1.3
				l0,0c1.1,0,2-0.5,2.7-1.3L1010.5,513.2z"/>
				<path fill="#FEDA97" d="M997.4,493.7l2.4,17.6c0,0-14.9,18.3-34.9,18.3c-20,0-34.9-18.3-34.9-18.3l2.4-17.6H997.4z"/>
				<path fill="#FBCC9A" d="M1080.4,726.1l2.2-2.7l-34.8-28.8l-2.1,2.6c-7.8,9.6-6.5,23.8,3,31.9
				C1058.1,737.2,1072.4,735.9,1080.4,726.1z"/>
				<path fill="#FBCC9A" d="M886.5,697.4l-2.1-2.7l-35.4,28l2.1,2.7c7.8,10,22,11.7,31.7,3.7C892.4,721.3,894,707.1,886.5,697.4z"/>
				<path fill="#ACCCCE" d="M885.8,697.2"/>
				<path fill="#FBCC9A" d="M889.7,703.4c-3.2,2.5-7.3,2.8-8.9,0.6c-1.7-2.2-0.4-6.1,2.8-8.6c3.2-2.5,7.3-2.8,8.9-0.6
				C894.2,697,893,700.8,889.7,703.4z"/>
				<path fill="#FBCC9A" d="M1042.3,703.1c3.2,2.5,7.3,2.8,8.9,0.6c1.7-2.2,0.4-6.1-2.8-8.6c-3.2-2.5-7.3-2.8-8.9-0.6
				C1037.8,696.7,1039.1,700.5,1042.3,703.1z"/>
				<ellipse fill="#CC9966" cx="1074.1" cy="394.1" rx="20.6" ry="26.4"/>
				<ellipse fill="#FBCC9A" cx="852.4" cy="394.1" rx="20.6" ry="26.4"/>
				<path fill="#FBCC9A" d="M943.7,505.1c-49.6,0-89.9-40.7-89.9-91V318c0-50.2,40.2-91,89.9-91h22v278H943.7z"/>
				<path fill="#CC9966" d="M982.9,505.1c49.6,0,89.9-40.7,89.9-91V318c0-50.2-40.2-91-89.9-91h-19.5v278H982.9z"/>
				<path fill="#27190E" d="M963.3,358.5"/>
				<line fill="none" x1="963.3" y1="358.5" x2="803.4" y2="358.5"/>
				<circle fill="#FBCC9A" cx="965.5" cy="411" r="13.8"/>
				<path
					fill="#2C0D0F"
					d="M966,286.6c13.9,35.8,53.5,7.1,53.5,7.1c3.3,11.7,26.4,14,26.4,14c-3.3,20.9,13.6,28.9,13.6,28.9
				c-3.1,12.7,8,17,8,17c-0.9,15.4,8,14.8,8,14.8c8.9-4.8,5.5-14.2,5.5-14.2s21.8-34.6-4.1-49.1c0,0,5.1-42.5-17-42.8
				c0,0-6.4-47.6-40.3-39.1c0,0-33.6-40.8-53.5-1c-20-39.7-53.5,1-53.5,1c-33.9-8.5-40.3,39.1-40.3,39.1c-22.1,0.4-17,42.8-17,42.8
				c-25.9,14.5-4.1,49.1-4.1,49.1s-3.4,9.5,5.5,14.2c0,0,8.9,0.5,8-14.8c0,0,11.1-4.2,8-17c0,0,16.9-8,13.6-28.9
				c0,0,23.2-2.3,26.4-14C912.5,293.8,952.1,322.4,966,286.6z"/>
				<polygon fill="#748728" points="941,904.6 867,904.6 867,892.8 873.4,882 943.6,873 			"/>
				<polyline fill="#748728" points="873.4,882 862.6,865.9 908.9,856.5 903.5,886.7 			"/>
				<polygon fill="#748728" points="994.3,904.6 1066.1,904.6 1066.1,892.7 1061.7,881.9 991.7,872.8 			"/>
				<polyline fill="#748728" points="1059.6,881.8 1074.2,866 1027,856.5 1028.8,886.6 			"/>
				<path
					d="M920,478.7c0.7-5.1,0.3-21.6,5.7-24.6c8-4.3,22.4-5.3,35.9-5.3c12.6,0,28.9,0.9,37.9,6.4c4.3,2.6,5.9,17.1,7,21.7
				c0.7-2.4,7.9-18.9,0.9-28.2c-4.9-6.5-19.8-9-24.2-9.5c-6.9-0.8-13.8,2.9-20.7,2.7c-7.5-0.2-18.1-4.7-25.5-3.8
				c-5.6,0.6-14.4,4.5-20,10.6C911.6,454.5,915.5,476.8,920,478.7z"/>
				<path fill="#2C0D0F" d="M964.8,475.6c-1.1-0.4-4.1-0.1-5.3-0.1c-1.8,0-1.8,10.1-7,13c-13.2,7.1-41.3,5.8-54-9.8
				c-0.8,0.1-16.9-46.2-18.4-49.1l-25.9-9.1c-1.4,31.6-1,51.5,30.6,84.4c15,15.6,42.1,22.1,47.6,23.8c15.1,4.5,24.3,3.5,30.9,1.4"/>
				<path fill="#2C0D0F" d="M962.4,475.6c1.1-0.4,4.1-0.1,5.3-0.1c1.8,0,1.8,10.1,7,13c13.2,7.1,41.3,5.8,54-9.8
				c0.8,0.1,18.1-47.5,19.6-50.4l25.8-7.8c-1.5,28.9,5.9,43.8-31.7,84.3c-14.7,15.9-42.1,22.1-47.6,23.8
				c-15.1,4.5-25.2,3.5-31.7,1.4"/>
				<path
					d="M1072.8,360.8c0-0.7-0.4-1.2-1.1-1.4c-0.5-0.1-0.9-0.3-1.4-0.3c-6.8-1.1-13.7-2.2-20.6-2.7c-5.5-0.4-11.1-0.7-16.6-0.9
				c-10.7-0.5-21.3-0.3-31.9,1.2c-6.5,0.9-12.9,2.1-19.1,4.2c-3.1,1.1-6.2,2.3-9.4,3.4c-4.9,1.6-10,2.4-15.1,1.4
				c-3.1-0.6-6.1-1.5-9.1-2.5c-5.4-1.8-10.8-3.6-16.3-4.7c-10.9-2.1-21.8-3.1-32-3c-8.3,0-15.8,0.3-23.2,1.3
				c-6.1,0.8-12.2,1.6-18.3,2.5c-1.3,0.2-2.6,0.6-3.8,0.9c-0.7,0.2-1.1,0.7-1.2,1.5c-0.1,3.8-0.2,7.6-0.3,11.4
				c0,0.6,0.1,1.1,0.2,1.7c0.1,0.5,0.3,0.8,0.8,1c0.5,0.2,0.9,0.4,1.4,0.7c2,1.5,3,3.7,3.7,6c0.5,1.7,0.9,3.4,1.4,5
				c0.3,1,0.7,2.1,0.9,3.1c1.1,4.9,2,9.9,3.1,14.9c1,4.7,2.4,9.3,4.5,13.6c2.4,4.8,5.8,8.5,10.6,10.6c2.9,1.3,6,2.1,9.1,2.6
				c5.6,0.9,11.2,1,16.9,0.6c5.7-0.4,11.4-1.3,16.9-3.1c4.1-1.3,7.9-3.1,11.2-6c5-4.5,9-9.8,12.1-15.9c3.1-6.1,5.3-12.6,7.2-19.2
				c0.6-1.9,1.1-3.8,1.7-5.6c1-2.7,2.8-4.4,5.6-4.9c0.9-0.1,1.8-0.2,2.7-0.1c2.1,0.1,4.1,0.6,5.5,2.4c0.6,0.8,1.2,1.7,1.6,2.6
				c0.8,1.8,1.5,3.7,2,5.5c2.4,8.1,5.7,15.9,9.8,23.3c3.4,6.1,7.9,11.1,13.8,14.5c4.2,2.4,8.7,4,13.4,4.9c7,1.4,14.1,1.8,21.3,1.5
				c4.3-0.2,8.6-0.8,12.7-2.1c4.3-1.3,8-3.5,10.8-7.3c1.8-2.4,3.2-5.1,4.3-7.9c2.3-6,3.8-12.2,5.2-18.5c0.7-3.1,1.3-6.1,2.1-9.2
				c0.4-1.6,0.8-3.2,1.3-4.8c0.4-1.5,0.7-3,1.6-4.3c0.9-1.3,1.8-2.6,3.3-3.1c0.7-0.2,1-0.7,1.1-1.4c0.1-0.5,0.2-1,0.2-1.5
				c0-2.3,0-4.5-0.1-6.8C1073.1,364.1,1072.9,362.5,1072.8,360.8 M862.6,368 M895.9,362.7 M1056.4,380.3c0.1,3.1,0.3,6.1,0.2,9.2
				 M1050.7,367.1 M1012.2,362.2c3.4-0.2,6.9-0.3,9.2-0.4 M987.7,367.4 M1056.6,389.5 M1063.9,368"/>
				<path fill="#7F5D37" d="M1060.7,889.5l-13.3-192.6H885.7l-11.2,192.6l65.7,10.5l10.1-60.4c0.4-6.5,6.1-11.7,12.7-11.7h9.2
				c6.6,0,12.3,5.2,12.7,11.7L995,900L1060.7,889.5z"/>
				<polygon fill="#93AA2D" points="885.7,696.9 885,708.8 1048.1,708.8 1047.3,696.9 			"/>
				<path fill="#8E888C" d="M904.7,516.4c0,0,67-82.8,124.5,0L904.7,516.4z"/>
				<polyline fill="#2C0D0F" points="841.1,545.6 847.4,534.4 847.4,534.8 845,547.4 856.5,552.3 916.1,469 886.3,427 809.2,511
				817.1,521.6 824.8,517.1 825.2,517.7 816.6,526.2 826.4,535.5 835.5,526.4 836.4,526.2 830.1,537.4 			"/>
				<circle fill="#2C0D0F" cx="814.7" cy="515.2" r="7.8"/>
				<circle fill="#2C0D0F" cx="822.3" cy="530" r="7.8"/>
				<circle fill="#2C0D0F" cx="836" cy="541.1" r="7.8"/>
				<circle fill="#2C0D0F" cx="851.6" cy="548.5" r="7.8"/>
				<polyline fill="#2C0D0F" points="1092.6,543.5 1086.3,532.3 1086.3,532.7 1088.7,545.3 1077.1,550.2 1017.6,467 1047.4,425
				1124.5,509 1116.5,519.6 1108.9,515 1108.4,515.6 1117,524.2 1107.2,533.5 1098.1,524.4 1097.2,524.2 1103.5,535.4 			"/>
				<circle fill="#2C0D0F" cx="1119" cy="513.1" r="7.8"/>
				<circle fill="#2C0D0F" cx="1111.4" cy="528" r="7.8"/>
				<circle fill="#2C0D0F" cx="1097.7" cy="539" r="7.8"/>
				<circle fill="#2C0D0F" cx="1082" cy="546.5" r="7.8"/>
				<path
					fill="#6D8028"
					d="M1044.7,523.7c-8.9-9-23.4-8.9-32.2,0c-8.8,9-8.8,23.3,0,32.1l4.6,4.6c11.4,11.4,22.7,23,33.8,34.5
				c11.1,11.6,22.2,23.3,32.5,35c2.5,2.9,5.1,5.8,7.3,8.6l0.3,0.4l-2.5,3.7c-8.5,12.3-18.5,25-28.4,37.5l-11.8,14.6l35.2,28.8
				l12.2-15c10.3-13,20.5-25.8,30.4-40.2l1.9-2.8l2.4-3.7c2.1-3.4,4.2-6.9,5.8-10.5c1-1.8,1.5-3.6,2.1-5.4c0.5-1.8,0.8-3.7,1-5.5
				l0.2-2.8l0.1-1.4c0-0.5-0.2-0.9-0.3-1.4c-0.5-1.9-0.8-3.6-1.3-5.4l-0.9-2.7c-0.3-0.9-0.6-1.8-1.1-2.6c-1-1.7-1.9-3.4-3-5.1
				l-3.6-4.9c-0.6-0.8-1.2-1.6-1.8-2.4l-1.6-2c-2.8-3.5-5.6-6.7-8.4-9.9c-11.2-12.7-22.5-24.6-33.8-36.5
				c-11.4-11.8-22.8-23.5-34.4-35.1L1044.7,523.7z"/>
				<path
					fill="#6D8028"
					d="M923.5,555.8c8.8-8.8,8.9-23.1,0.1-32.1c-8.8-9-23.3-9-32.2-0.1l-4.7,4.7c-11.5,11.5-22.9,23-34.3,34.8
				c-11.4,11.7-22.6,23.5-33.8,36.1c-2.8,3.1-5.6,6.4-8.4,9.7l-2.7,3.3c-1.2,1.5-2.4,3.2-3.6,4.8l-1.8,2.4l-1.5,2.5
				c-1,1.7-2.1,3.3-2.6,5.1l-0.9,2.6l-0.6,2.7c-0.3,1.8-1.1,3.6-0.8,5.5c0.3,3.7,0.6,7.4,2.1,11c1.5,3.6,3.3,7.2,5.3,10.7
				c0.5,0.9,1,1.8,1.5,2.6l1.2,2l1.8,2.8c9.6,14.6,19.4,27.6,29.4,40.7l11.8,15.3l35.8-28L873.2,680c-9.6-12.6-19.2-25.4-27.3-37.8
				l-1.8-2.9l1.2-1.4c2.3-2.8,4.9-5.7,7.4-8.6c10.3-11.6,21.4-23.2,32.5-34.6c11.1-11.5,22.4-22.9,33.8-34.2L923.5,555.8z"/>
				<path fill="#6D8028" d="M1029.2,516.4c-15-3.3-38.1-7.4-62.2-7.4c-24.1,0-47.3,4.1-62.3,7.4c-9.5,2.1-17.1,12.2-17.1,21.9v158.5
				h158.6V538.4C1046.2,528.7,1038.7,518.5,1029.2,516.4z"/>
				<g>
					<g>
						<path
							fill="#8E888C"
							d="M905.7,516.5c-0.3,4.4,2.3,7.6,5.1,10.7c2.8,3.1,5.1,6.3,6.6,10.2c0.8,2.1,1.4,4.6,1.1,6.9
						c-0.2,1.5-2,3.3-2.9,4.5c-7.1,9.5,0.9,21.6,7.3,28.8c1.1,1.2,2.8-0.6,1.8-1.8c-4.6-5.2-8.6-10.7-9.1-17.8
						c-0.4-6.2,4.8-9,5.6-14.5c0.6-3.8-1.8-8.3-3.6-11.6c-2.8-5.2-9.8-9-9.4-15.4C908.3,514.9,905.8,514.9,905.7,516.5L905.7,516.5z
						"/>
					</g>
				</g>
				<g>
					<g>
						<path
							fill="#8E888C"
							d="M1025.5,516.5c0.3,5.8-5.4,9.7-8.5,14c-2.6,3.6-4.2,8.2-4.5,12.6c-0.1,1.7,0.8,3.2,1.7,4.5
						c1.9,3,3.5,5,3.9,8.7c0.8,7.5-4.4,14.1-9,19.3c-1.1,1.2,0.7,3,1.8,1.8c6.8-7.7,12.7-17.2,8-27.5c-0.6-1.3-1.6-2.5-2.5-3.6
						c-1.8-2.4-1.3-4.8-0.6-7.5c1.1-4,3.4-7.6,6.2-10.7c3.1-3.5,6.4-6.8,6.1-11.8C1027.9,514.9,1025.4,514.9,1025.5,516.5
						L1025.5,516.5z"/>
					</g>
				</g>
				<path fill="#FEDA97" d="M1010.5,513.2c-13.2-2.3-29.1-4.5-45.5-4.5c-16.4,0-32.4,1.9-45.6,4.2l42.9,12.3c0.6,0.8,1.6,1.3,2.7,1.3
				l0,0c1.1,0,2-0.5,2.7-1.3L1010.5,513.2z"/>
				<path fill="#FEDA97" d="M997.4,493.7l2.4,17.6c0,0-14.9,18.3-34.9,18.3c-20,0-34.9-18.3-34.9-18.3l2.4-17.6H997.4z"/>
				<path fill="#FBCC9A" d="M1080.4,726.1l2.2-2.7l-34.8-28.8l-2.1,2.6c-7.8,9.6-6.5,23.8,3,31.9
				C1058.1,737.2,1072.4,735.9,1080.4,726.1z"/>
				<path fill="#FBCC9A" d="M886.5,697.4l-2.1-2.7l-35.4,28l2.1,2.7c7.8,10,22,11.7,31.7,3.7C892.4,721.3,894,707.1,886.5,697.4z"/>
				<path fill="#ACCCCE" d="M885.8,697.2"/>
				<path fill="#FBCC9A" d="M889.7,703.4c-3.2,2.5-7.3,2.8-8.9,0.6c-1.7-2.2-0.4-6.1,2.8-8.6c3.2-2.5,7.3-2.8,8.9-0.6
				C894.2,697,893,700.8,889.7,703.4z"/>
				<path fill="#FBCC9A" d="M1042.3,703.1c3.2,2.5,7.3,2.8,8.9,0.6c1.7-2.2,0.4-6.1-2.8-8.6c-3.2-2.5-7.3-2.8-8.9-0.6
				C1037.8,696.7,1039.1,700.5,1042.3,703.1z"/>
				<ellipse fill="#CC9966" cx="1074.1" cy="394.1" rx="20.6" ry="26.4"/>
				<ellipse fill="#FBCC9A" cx="852.4" cy="394.1" rx="20.6" ry="26.4"/>
				<path fill="#FBCC9A" d="M943.7,505.1c-49.6,0-89.9-40.7-89.9-91V318c0-50.2,40.2-91,89.9-91h22v278H943.7z"/>
				<path fill="#CC9966" d="M982.9,505.1c49.6,0,89.9-40.7,89.9-91V318c0-50.2-40.2-91-89.9-91h-19.5v278H982.9z"/>
				<path fill="#27190E" d="M963.3,358.5"/>
				<line fill="none" x1="963.3" y1="358.5" x2="803.4" y2="358.5"/>
				<circle fill="#FBCC9A" cx="965.5" cy="411" r="13.8"/>
				<path
					fill="#2C0D0F"
					d="M966,286.6c13.9,35.8,53.5,7.1,53.5,7.1c3.3,11.7,26.4,14,26.4,14c-3.3,20.9,13.6,28.9,13.6,28.9
				c-3.1,12.7,8,17,8,17c-0.9,15.4,8,14.8,8,14.8c8.9-4.8,5.5-14.2,5.5-14.2s21.8-34.6-4.1-49.1c0,0,5.1-42.5-17-42.8
				c0,0-6.4-47.6-40.3-39.1c0,0-33.6-40.8-53.5-1c-20-39.7-53.5,1-53.5,1c-33.9-8.5-40.3,39.1-40.3,39.1c-22.1,0.4-17,42.8-17,42.8
				c-25.9,14.5-4.1,49.1-4.1,49.1s-3.4,9.5,5.5,14.2c0,0,8.9,0.5,8-14.8c0,0,11.1-4.2,8-17c0,0,16.9-8,13.6-28.9
				c0,0,23.2-2.3,26.4-14C912.5,293.8,952.1,322.4,966,286.6z"/>
				<polygon fill="#748728" points="941,904.6 867,904.6 867,892.8 873.4,882 943.6,873 			"/>
				<polyline fill="#748728" points="873.4,882 862.6,865.9 908.9,856.5 903.5,886.7 			"/>
				<polygon fill="#748728" points="994.3,904.6 1066.1,904.6 1066.1,892.7 1061.7,881.9 991.7,872.8 			"/>
				<polyline fill="#748728" points="1059.6,881.8 1074.2,866 1027,856.5 1028.8,886.6 			"/>
				<path
					d="M920,478.7c0.7-5.1,0.3-21.6,5.7-24.6c8-4.3,22.4-5.3,35.9-5.3c12.6,0,28.9,0.9,37.9,6.4c4.3,2.6,5.9,17.1,7,21.7
				c0.7-2.4,7.9-18.9,0.9-28.2c-4.9-6.5-19.8-9-24.2-9.5c-6.9-0.8-13.8,2.9-20.7,2.7c-7.5-0.2-18.1-4.7-25.5-3.8
				c-5.6,0.6-14.4,4.5-20,10.6C911.6,454.5,915.5,476.8,920,478.7z"/>
				<path fill="#2C0D0F" d="M964.8,475.6c-1.1-0.4-4.1-0.1-5.3-0.1c-1.8,0-1.8,10.1-7,13c-13.2,7.1-41.3,5.8-54-9.8
				c-0.8,0.1-16.9-46.2-18.4-49.1l-25.9-9.1c-1.4,31.6-1,51.5,30.6,84.4c15,15.6,42.1,22.1,47.6,23.8c15.1,4.5,24.3,3.5,30.9,1.4"/>
				<path fill="#2C0D0F" d="M962.4,475.6c1.1-0.4,4.1-0.1,5.3-0.1c1.8,0,1.8,10.1,7,13c13.2,7.1,41.3,5.8,54-9.8
				c0.8,0.1,18.1-47.5,19.6-50.4l25.8-7.8c-1.5,28.9,5.9,43.8-31.7,84.3c-14.7,15.9-42.1,22.1-47.6,23.8
				c-15.1,4.5-25.2,3.5-31.7,1.4"/>
				<path
					d="M1072.8,360.8c0-0.7-0.4-1.2-1.1-1.4c-0.5-0.1-0.9-0.3-1.4-0.3c-6.8-1.1-13.7-2.2-20.6-2.7c-5.5-0.4-11.1-0.7-16.6-0.9
				c-10.7-0.5-21.3-0.3-31.9,1.2c-6.5,0.9-12.9,2.1-19.1,4.2c-3.1,1.1-6.2,2.3-9.4,3.4c-4.9,1.6-10,2.4-15.1,1.4
				c-3.1-0.6-6.1-1.5-9.1-2.5c-5.4-1.8-10.8-3.6-16.3-4.7c-10.9-2.1-21.8-3.1-32-3c-8.3,0-15.8,0.3-23.2,1.3
				c-6.1,0.8-12.2,1.6-18.3,2.5c-1.3,0.2-2.6,0.6-3.8,0.9c-0.7,0.2-1.1,0.7-1.2,1.5c-0.1,3.8-0.2,7.6-0.3,11.4
				c0,0.6,0.1,1.1,0.2,1.7c0.1,0.5,0.3,0.8,0.8,1c0.5,0.2,0.9,0.4,1.4,0.7c2,1.5,3,3.7,3.7,6c0.5,1.7,0.9,3.4,1.4,5
				c0.3,1,0.7,2.1,0.9,3.1c1.1,4.9,2,9.9,3.1,14.9c1,4.7,2.4,9.3,4.5,13.6c2.4,4.8,5.8,8.5,10.6,10.6c2.9,1.3,6,2.1,9.1,2.6
				c5.6,0.9,11.2,1,16.9,0.6c5.7-0.4,11.4-1.3,16.9-3.1c4.1-1.3,7.9-3.1,11.2-6c5-4.5,9-9.8,12.1-15.9c3.1-6.1,5.3-12.6,7.2-19.2
				c0.6-1.9,1.1-3.8,1.7-5.6c1-2.7,2.8-4.4,5.6-4.9c0.9-0.1,1.8-0.2,2.7-0.1c2.1,0.1,4.1,0.6,5.5,2.4c0.6,0.8,1.2,1.7,1.6,2.6
				c0.8,1.8,1.5,3.7,2,5.5c2.4,8.1,5.7,15.9,9.8,23.3c3.4,6.1,7.9,11.1,13.8,14.5c4.2,2.4,8.7,4,13.4,4.9c7,1.4,14.1,1.8,21.3,1.5
				c4.3-0.2,8.6-0.8,12.7-2.1c4.3-1.3,8-3.5,10.8-7.3c1.8-2.4,3.2-5.1,4.3-7.9c2.3-6,3.8-12.2,5.2-18.5c0.7-3.1,1.3-6.1,2.1-9.2
				c0.4-1.6,0.8-3.2,1.3-4.8c0.4-1.5,0.7-3,1.6-4.3c0.9-1.3,1.8-2.6,3.3-3.1c0.7-0.2,1-0.7,1.1-1.4c0.1-0.5,0.2-1,0.2-1.5
				c0-2.3,0-4.5-0.1-6.8C1073.1,364.1,1072.9,362.5,1072.8,360.8 M862.6,368 M895.9,362.7 M1056.4,380.3c0.1,3.1,0.3,6.1,0.2,9.2
				 M1050.7,367.1 M1012.2,362.2c3.4-0.2,6.9-0.3,9.2-0.4 M987.7,367.4 M1056.6,389.5 M1063.9,368"/>
				<path fill="#7F5D37" d="M1060.7,889.5l-13.3-192.6H885.7l-11.2,192.6l65.7,10.5l10.1-60.4c0.4-6.5,6.1-11.7,12.7-11.7h9.2
				c6.6,0,12.3,5.2,12.7,11.7L995,900L1060.7,889.5z"/>
				<polygon fill="#93AA2D" points="885.7,696.9 885,708.8 1048.1,708.8 1047.3,696.9 			"/>
				<path fill="#8E888C" d="M904.7,516.4c0,0,67-82.8,124.5,0L904.7,516.4z"/>
				<polyline fill="#2C0D0F" points="841.1,545.6 847.4,534.4 847.4,534.8 845,547.4 856.5,552.3 916.1,469 886.3,427 809.2,511
				817.1,521.6 824.8,517.1 825.2,517.7 816.6,526.2 826.4,535.5 835.5,526.4 836.4,526.2 830.1,537.4 			"/>
				<circle fill="#2C0D0F" cx="814.7" cy="515.2" r="7.8"/>
				<circle fill="#2C0D0F" cx="822.3" cy="530" r="7.8"/>
				<circle fill="#2C0D0F" cx="836" cy="541.1" r="7.8"/>
				<circle fill="#2C0D0F" cx="851.6" cy="548.5" r="7.8"/>
				<polyline fill="#2C0D0F" points="1092.6,543.5 1086.3,532.3 1086.3,532.7 1088.7,545.3 1077.1,550.2 1017.6,467 1047.4,425
				1124.5,509 1116.5,519.6 1108.9,515 1108.4,515.6 1117,524.2 1107.2,533.5 1098.1,524.4 1097.2,524.2 1103.5,535.4 			"/>
				<circle fill="#2C0D0F" cx="1119" cy="513.1" r="7.8"/>
				<circle fill="#2C0D0F" cx="1111.4" cy="528" r="7.8"/>
				<circle fill="#2C0D0F" cx="1097.7" cy="539" r="7.8"/>
				<circle fill="#2C0D0F" cx="1082" cy="546.5" r="7.8"/>
				<path
					fill="#6D8028"
					d="M1044.7,523.7c-8.9-9-23.4-8.9-32.2,0c-8.8,9-8.8,23.3,0,32.1l4.6,4.6c11.4,11.4,22.7,23,33.8,34.5
				c11.1,11.6,22.2,23.3,32.5,35c2.5,2.9,5.1,5.8,7.3,8.6l0.3,0.4l-2.5,3.7c-8.5,12.3-18.5,25-28.4,37.5l-11.8,14.6l35.2,28.8
				l12.2-15c10.3-13,20.5-25.8,30.4-40.2l1.9-2.8l2.4-3.7c2.1-3.4,4.2-6.9,5.8-10.5c1-1.8,1.5-3.6,2.1-5.4c0.5-1.8,0.8-3.7,1-5.5
				l0.2-2.8l0.1-1.4c0-0.5-0.2-0.9-0.3-1.4c-0.5-1.9-0.8-3.6-1.3-5.4l-0.9-2.7c-0.3-0.9-0.6-1.8-1.1-2.6c-1-1.7-1.9-3.4-3-5.1
				l-3.6-4.9c-0.6-0.8-1.2-1.6-1.8-2.4l-1.6-2c-2.8-3.5-5.6-6.7-8.4-9.9c-11.2-12.7-22.5-24.6-33.8-36.5
				c-11.4-11.8-22.8-23.5-34.4-35.1L1044.7,523.7z"/>
				<path
					fill="#6D8028"
					d="M923.5,555.8c8.8-8.8,8.9-23.1,0.1-32.1c-8.8-9-23.3-9-32.2-0.1l-4.7,4.7c-11.5,11.5-22.9,23-34.3,34.8
				c-11.4,11.7-22.6,23.5-33.8,36.1c-2.8,3.1-5.6,6.4-8.4,9.7l-2.7,3.3c-1.2,1.5-2.4,3.2-3.6,4.8l-1.8,2.4l-1.5,2.5
				c-1,1.7-2.1,3.3-2.6,5.1l-0.9,2.6l-0.6,2.7c-0.3,1.8-1.1,3.6-0.8,5.5c0.3,3.7,0.6,7.4,2.1,11c1.5,3.6,3.3,7.2,5.3,10.7
				c0.5,0.9,1,1.8,1.5,2.6l1.2,2l1.8,2.8c9.6,14.6,19.4,27.6,29.4,40.7l11.8,15.3l35.8-28L873.2,680c-9.6-12.6-19.2-25.4-27.3-37.8
				l-1.8-2.9l1.2-1.4c2.3-2.8,4.9-5.7,7.4-8.6c10.3-11.6,21.4-23.2,32.5-34.6c11.1-11.5,22.4-22.9,33.8-34.2L923.5,555.8z"/>
				<path fill="#6D8028" d="M1029.2,516.4c-15-3.3-38.1-7.4-62.2-7.4c-24.1,0-47.3,4.1-62.3,7.4c-9.5,2.1-17.1,12.2-17.1,21.9v158.5
				h158.6V538.4C1046.2,528.7,1038.7,518.5,1029.2,516.4z"/>
				<g>
					<g>
						<path
							fill="#8E888C"
							d="M905.7,516.5c-0.3,4.4,2.3,7.6,5.1,10.7c2.8,3.1,5.1,6.3,6.6,10.2c0.8,2.1,1.4,4.6,1.1,6.9
						c-0.2,1.5-2,3.3-2.9,4.5c-7.1,9.5,0.9,21.6,7.3,28.8c1.1,1.2,2.8-0.6,1.8-1.8c-4.6-5.2-8.6-10.7-9.1-17.8
						c-0.4-6.2,4.8-9,5.6-14.5c0.6-3.8-1.8-8.3-3.6-11.6c-2.8-5.2-9.8-9-9.4-15.4C908.3,514.9,905.8,514.9,905.7,516.5L905.7,516.5z
						"/>
					</g>
				</g>
				<g>
					<g>
						<path
							fill="#8E888C"
							d="M1025.5,516.5c0.3,5.8-5.4,9.7-8.5,14c-2.6,3.6-4.2,8.2-4.5,12.6c-0.1,1.7,0.8,3.2,1.7,4.5
						c1.9,3,3.5,5,3.9,8.7c0.8,7.5-4.4,14.1-9,19.3c-1.1,1.2,0.7,3,1.8,1.8c6.8-7.7,12.7-17.2,8-27.5c-0.6-1.3-1.6-2.5-2.5-3.6
						c-1.8-2.4-1.3-4.8-0.6-7.5c1.1-4,3.4-7.6,6.2-10.7c3.1-3.5,6.4-6.8,6.1-11.8C1027.9,514.9,1025.4,514.9,1025.5,516.5
						L1025.5,516.5z"/>
					</g>
				</g>
				<path fill="#FEDA97" d="M1010.5,513.2c-13.2-2.3-29.1-4.5-45.5-4.5c-16.4,0-32.4,1.9-45.6,4.2l42.9,12.3c0.6,0.8,1.6,1.3,2.7,1.3
				l0,0c1.1,0,2-0.5,2.7-1.3L1010.5,513.2z"/>
				<path fill="#FEDA97" d="M997.4,493.7l2.4,17.6c0,0-14.9,18.3-34.9,18.3c-20,0-34.9-18.3-34.9-18.3l2.4-17.6H997.4z"/>
				<path fill="#FBCC9A" d="M1080.4,726.1l2.2-2.7l-34.8-28.8l-2.1,2.6c-7.8,9.6-6.5,23.8,3,31.9
				C1058.1,737.2,1072.4,735.9,1080.4,726.1z"/>
				<path fill="#FBCC9A" d="M886.5,697.4l-2.1-2.7l-35.4,28l2.1,2.7c7.8,10,22,11.7,31.7,3.7C892.4,721.3,894,707.1,886.5,697.4z"/>
				<path fill="#ACCCCE" d="M885.8,697.2"/>
				<path fill="#FBCC9A" d="M889.7,703.4c-3.2,2.5-7.3,2.8-8.9,0.6c-1.7-2.2-0.4-6.1,2.8-8.6c3.2-2.5,7.3-2.8,8.9-0.6
				C894.2,697,893,700.8,889.7,703.4z"/>
				<path fill="#FBCC9A" d="M1042.3,703.1c3.2,2.5,7.3,2.8,8.9,0.6c1.7-2.2,0.4-6.1-2.8-8.6s-7.3-2.8-8.9-0.6
				C1037.8,696.7,1039.1,700.5,1042.3,703.1z"/>
				<ellipse fill="#CC9966" cx="1074.1" cy="394.1" rx="20.6" ry="26.4"/>
				<ellipse fill="#FBCC9A" cx="852.4" cy="394.1" rx="20.6" ry="26.4"/>
				<path fill="#FBCC9A" d="M943.7,505.1c-49.6,0-89.9-40.7-89.9-91V318c0-50.2,40.2-91,89.9-91h22v278H943.7z"/>
				<path fill="#CC9966" d="M982.9,505.1c49.6,0,89.9-40.7,89.9-91V318c0-50.2-40.2-91-89.9-91h-19.5v278H982.9z"/>
				<path fill="#27190E" d="M963.3,358.5"/>
				<line fill="none" x1="963.3" y1="358.5" x2="803.4" y2="358.5"/>
				<circle fill="#FBCC9A" cx="965.5" cy="411" r="13.8"/>
				<path
					fill="#2C0D0F"
					d="M966,286.6c13.9,35.8,53.5,7.1,53.5,7.1c3.3,11.7,26.4,14,26.4,14c-3.3,20.9,13.6,28.9,13.6,28.9
				c-3.1,12.7,8,17,8,17c-0.9,15.4,8,14.8,8,14.8c8.9-4.8,5.5-14.2,5.5-14.2s21.8-34.6-4.1-49.1c0,0,5.1-42.5-17-42.8
				c0,0-6.4-47.6-40.3-39.1c0,0-33.6-40.8-53.5-1c-20-39.7-53.5,1-53.5,1c-33.9-8.5-40.3,39.1-40.3,39.1c-22.1,0.4-17,42.8-17,42.8
				c-25.9,14.5-4.1,49.1-4.1,49.1s-3.4,9.5,5.5,14.2c0,0,8.9,0.5,8-14.8c0,0,11.1-4.2,8-17c0,0,16.9-8,13.6-28.9
				c0,0,23.2-2.3,26.4-14C912.5,293.8,952.1,322.4,966,286.6z"/>
				<polygon fill="#748728" points="941,904.6 867,904.6 867,892.8 873.4,882 943.6,873 			"/>
				<polyline fill="#748728" points="873.4,882 862.6,865.9 908.9,856.5 903.5,886.7 			"/>
				<polygon fill="#748728" points="994.3,904.6 1066.1,904.6 1066.1,892.7 1061.7,881.9 991.7,872.8 			"/>
				<polyline fill="#748728" points="1059.6,881.8 1074.2,866 1027,856.5 1028.8,886.6 			"/>
				<path
					fill="#2C0D0F"
					d="M920,478.7c0.7-5.1,0.3-21.6,5.7-24.6c8-4.3,22.4-5.3,35.9-5.3c12.6,0,28.9,0.9,37.9,6.4
				c4.3,2.6,5.9,17.1,7,21.7c0.7-2.4,7.9-18.9,0.9-28.2c-4.9-6.5-19.8-9-24.2-9.5c-6.9-0.8-13.8,2.9-20.7,2.7
				c-7.5-0.2-18.1-4.7-25.5-3.8c-5.6,0.6-14.4,4.5-20,10.6C911.6,454.5,915.5,476.8,920,478.7z"/>
				<path fill="#2C0D0F" d="M964.8,475.6c-1.1-0.4-4.1-0.1-5.3-0.1c-1.8,0-1.8,10.1-7,13c-13.2,7.1-41.3,5.8-54-9.8
				c-0.8,0.1-16.9-46.2-18.4-49.1l-25.9-9.1c-1.4,31.6-1,51.5,30.6,84.4c15,15.6,42.1,22.1,47.6,23.8c15.1,4.5,24.3,3.5,30.9,1.4"/>
				<path fill="#2C0D0F" d="M962.4,475.6c1.1-0.4,4.1-0.1,5.3-0.1c1.8,0,1.8,10.1,7,13c13.2,7.1,41.3,5.8,54-9.8
				c0.8,0.1,18.1-47.5,19.6-50.4l25.8-7.8c-1.5,28.9,5.9,43.8-31.7,84.3c-14.7,15.9-42.1,22.1-47.6,23.8
				c-15.1,4.5-25.2,3.5-31.7,1.4"/>
				<path
					fill="#3C3C3B"
					d="M1072.8,360.8c0-0.7-0.4-1.2-1.1-1.4c-0.5-0.1-0.9-0.3-1.4-0.3c-6.8-1.1-13.7-2.2-20.6-2.7
				c-5.5-0.4-11.1-0.7-16.6-0.9c-10.7-0.5-21.3-0.3-31.9,1.2c-6.5,0.9-12.9,2.1-19.1,4.2c-3.1,1.1-6.2,2.3-9.4,3.4
				c-4.9,1.6-10,2.4-15.1,1.4c-3.1-0.6-6.1-1.5-9.1-2.5c-5.4-1.8-10.8-3.6-16.3-4.7c-10.9-2.1-21.8-3.1-32-3
				c-8.3,0-15.8,0.3-23.2,1.3c-6.1,0.8-12.2,1.6-18.3,2.5c-1.3,0.2-2.6,0.6-3.8,0.9c-0.7,0.2-1.1,0.7-1.2,1.5
				c-0.1,3.8-0.2,7.6-0.3,11.4c0,0.6,0.1,1.1,0.2,1.7c0.1,0.5,0.3,0.8,0.8,1c0.5,0.2,0.9,0.4,1.4,0.7c2,1.5,3,3.7,3.7,6
				c0.5,1.7,0.9,3.4,1.4,5c0.3,1,0.7,2.1,0.9,3.1c1.1,4.9,2,9.9,3.1,14.9c1,4.7,2.4,9.3,4.5,13.6c2.4,4.8,5.8,8.5,10.6,10.6
				c2.9,1.3,6,2.1,9.1,2.6c5.6,0.9,11.2,1,16.9,0.6c5.7-0.4,11.4-1.3,16.9-3.1c4.1-1.3,7.9-3.1,11.2-6c5-4.5,9-9.8,12.1-15.9
				c3.1-6.1,5.3-12.6,7.2-19.2c0.6-1.9,1.1-3.8,1.7-5.6c1-2.7,2.8-4.4,5.6-4.9c0.9-0.1,1.8-0.2,2.7-0.1c2.1,0.1,4.1,0.6,5.5,2.4
				c0.6,0.8,1.2,1.7,1.6,2.6c0.8,1.8,1.5,3.7,2,5.5c2.4,8.1,5.7,15.9,9.8,23.3c3.4,6.1,7.9,11.1,13.8,14.5c4.2,2.4,8.7,4,13.4,4.9
				c7,1.4,14.1,1.8,21.3,1.5c4.3-0.2,8.6-0.8,12.7-2.1c4.3-1.3,8-3.5,10.8-7.3c1.8-2.4,3.2-5.1,4.3-7.9c2.3-6,3.8-12.2,5.2-18.5
				c0.7-3.1,1.3-6.1,2.1-9.2c0.4-1.6,0.8-3.2,1.3-4.8c0.4-1.5,0.7-3,1.6-4.3c0.9-1.3,1.8-2.6,3.3-3.1c0.7-0.2,1-0.7,1.1-1.4
				c0.1-0.5,0.2-1,0.2-1.5c0-2.3,0-4.5-0.1-6.8C1073.1,364.1,1072.9,362.5,1072.8,360.8 M862.6,368 M895.9,362.7 M1056.4,380.3
				c0.1,3.1,0.3,6.1,0.2,9.2 M1050.7,367.1 M1012.2,362.2c3.4-0.2,6.9-0.3,9.2-0.4 M987.7,367.4 M1056.6,389.5 M1063.9,368"/>
			</g>
		</g>
		<g id="HORTA_GUINARDO">
			<g>
				<path fill="#CCCC99" d="M1061.2,892.1l-14.9-194.9H888l-12.5,195.2l65.4,10.5l10.3-152c0.4-6.5,6-11.7,12.6-11.7h9.1
				c6.5,0,12.2,5.2,12.6,11.7l10.2,151.8L1061.2,892.1z"/>
				<g>
					<path
						fill="#253E1E"
						d="M1044.7,524.4c-8.9-8.9-23.4-8.9-32.2,0c-8.8,8.9-8.8,23.2,0,32l4.6,4.6c11.4,11.4,22.6,22.9,33.8,34.5
					c11.1,11.6,22.1,23.2,32.4,34.9c2.5,2.9,5,5.8,7.3,8.6l0.3,0.4l-2.5,3.7c-8.5,12.3-22.4,30.9-32.3,43.3l-7.2,9.5l34.8,28.2
					l11.8-15.2c10.3-12.9,20.4-25.8,30.4-40.2l1.9-2.8l2.4-3.7c2.1-3.4,4.2-6.9,5.8-10.5c1-1.8,1.5-3.6,2.1-5.4
					c0.5-1.8,0.8-3.7,1-5.5l0.2-2.8l0.1-1.4c0-0.5-0.2-0.9-0.3-1.4c-0.5-1.9-0.8-3.6-1.3-5.4l-0.9-2.6c-0.3-0.9-0.6-1.8-1.1-2.6
					c-1-1.7-1.9-3.4-3-5.1l-3.6-4.9c-0.6-0.8-1.2-1.6-1.8-2.4l-1.6-2c-2.8-3.5-5.6-6.7-8.4-9.9c-11.2-12.7-22.4-24.6-33.8-36.4
					c-11.4-11.8-22.8-23.5-34.3-35L1044.7,524.4z"/>
					<path
						fill="#253E1E"
						d="M923.8,556.4c8.8-8.8,8.9-23.1,0.1-32c-8.8-9-23.2-9-32.2-0.1l-4.7,4.7c-11.5,11.5-22.9,23-34.2,34.7
					c-11.3,11.7-22.6,23.5-33.7,36c-2.8,3.1-5.6,6.3-8.4,9.7l-2.7,3.3c-1.2,1.5-2.4,3.2-3.6,4.8l-1.8,2.4l-1.5,2.5
					c-1,1.7-2.1,3.3-2.6,5.1l-0.9,2.6l-0.6,2.7c-0.3,1.8-1.1,3.6-0.8,5.5c0.3,3.7,0.6,7.3,2.1,11c1.5,3.6,3.3,7.2,5.3,10.6
					c0.5,0.9,1,1.8,1.5,2.6l1.2,2l1.8,2.8c9.6,14.6,19.3,27.6,29.3,40.7l11.8,15.3l33.9-28.7l-9.6-14.1
					c-9.6-12.6-19.2-25.4-27.3-37.8l-1.8-2.9l1.2-1.4c2.3-2.8,4.8-5.7,7.4-8.6c10.3-11.6,21.3-23.1,32.4-34.6
					c11.1-11.5,22.4-22.8,33.7-34.2L923.8,556.4z"/>
					<path fill="#253E1E" d="M1029.3,517.1c-15-3.3-38-7.4-62.1-7.4c-11,0-31.4,2.6-45.9,4.7c-8.4,1.2-14.7,2.3-16.3,2.6
					c-9.5,2.1-17,12.2-17,21.9v158.2h158.3V539C1046.3,529.3,1038.7,519.2,1029.3,517.1z"/>
					<path fill="none" stroke="#99CC99" stroke-width="6" stroke-miterlimit="10" d="M968.1,509.7v187.9V509.7z"/>
					<circle fill="#99CC99" cx="982.6" cy="575.2" r="5.3"/>
					<circle fill="#99CC99" cx="982.6" cy="597.7" r="5.3"/>
					<circle fill="#99CC99" cx="982.6" cy="620.9" r="5.3"/>
					<circle fill="#99CC99" cx="982.6" cy="643.4" r="5.3"/>
					<circle fill="#99CC99" cx="982.6" cy="665.6" r="5.3"/>
					<path fill="#99CC99" d="M916.5,515.2l40,19.9l6.9-25.3C963.3,509.7,919.2,511.9,916.5,515.2z"/>
					<polygon fill="#99CC99" points="1048.7,696.2 1083.4,725 1090.8,715.2 1056.2,686.5 				"/>
					<path fill="#99CC99" d="M1019.3,515.2l-40,19.9l-6.9-25.3C972.5,509.7,1016.6,511.9,1019.3,515.2z"/>
					<path fill="#99CC99" d="M1077.4,733.3"/>
					<path fill="#99CC99" d="M1106.3,695.5"/>
					<polygon fill="#99CC99" points="884.7,695.9 850.2,724.2 842.6,714.5 877.1,685.5 				"/>
				</g>
				<g>
					<polygon fill="#FBCC9A" points="940.9,902.9 869.3,902.9 869.3,891.1 875.5,880.3 940.9,890.8 				"/>
					<g>
						<polyline fill="#253E1E" points="940.9,896.8 940.9,902.9 869.3,902.9 869.3,897 					"/>
					</g>
					<polyline fill="#253E1E" points="869.3,902.9 869.3,891.1 875.4,880.3 880.5,881.2 871.5,898 				"/>
					<polyline fill="#253E1E" points="880.5,881.2 895.2,899.2 902,899.2 888.3,882.5 				"/>
				</g>
				<g>
					<polygon fill="#FBCC9A" points="995.5,902.4 1067.4,902.4 1067.4,890.7 1061.2,879.9 995.5,890.4 				"/>
					<g>
						<polyline fill="#253E1E" points="995.5,896.8 995.5,902.9 1067.4,902.9 1067.4,897 					"/>
					</g>
					<polyline fill="#253E1E" points="1067.4,902.4 1067.4,890.7 1061.4,879.9 1056.2,880.8 1065.2,897.6 				"/>
					<polyline fill="#253E1E" points="1060,880.1 1045.3,898.2 1038.6,898.2 1052.2,881.4 				"/>
				</g>
				<path fill="#FEDA97" d="M1002.1,495l2.4,17.6c0,0-14.9,18.2-34.8,18.2c-19.9,0-34.8-18.2-34.8-18.2l2.4-17.6H1002.1z"/>
				<path fill="#ACCCCE" d="M890.7,698.1"/>
				<ellipse fill="#CC9966" cx="1078.6" cy="395.8" rx="20.5" ry="26.4"/>
				<ellipse fill="#FBCC9A" cx="857.4" cy="395.8" rx="20.5" ry="26.4"/>
				<path fill="#FBCC9A" d="M948.5,506.4c-49.5,0-89.7-40.6-89.7-90.7v-95.8c0-50.1,40.1-90.7,89.7-90.7h22v277.3H948.5z"/>
				<path fill="#CC9966" d="M987.5,506.4c49.5,0,89.7-40.6,89.7-90.7v-95.8c0-50.1-40.1-90.7-89.7-90.7H968v277.3H987.5z"/>
				<path fill="#27190E" d="M968,360.2"/>
				<circle fill="#FBCC9A" cx="970.2" cy="412.5" r="13.8"/>
				<path fill="#CCCC99" d="M907.7,697.6h-14.5V522.7c0,0,6.5-6.3,14.5-6.3"/>
				<path fill="#CCCC99" d="M1026.4,697.6h14.5V520.8c0,0-6.5-4.3-14.5-4.4"/>
				<path
					id="gafas_3_2_"
					fill="#3D3D3C"
					d="M1077,366.7c-0.7-1-2-0.8-2.7-3.2c-0.6-2.4-6.6-18.7-13.3-22.4
				c-6.6-3.7-19.3-10.1-50.1-12.3c-23.8-0.6-38.2-1.1-42.3-1.3v0c0,0-0.2,0-0.6,0c-0.4,0-0.6,0-0.6,0v0c-4.1,0.2-18.5,0.7-42.3,1.3
				c-30.8,2.2-43.5,8.5-50.1,12.3c-6.6,3.7-12.6,20-13.3,22.4c-0.6,2.4-1.9,2.2-2.7,3.2c-0.7,1,0.1,6.8,2.5,10.5
				c2.6,20.9,11.1,32.8,16.5,39.2c5.3,6.3,20.1,9.4,30.4,9c22.7-3.9,26.5-10.9,36.3-20.8c9.8-9.8,17.6-36.8,18.7-39.8
				c0.9-2.3,3.4-3.1,4.6-3.4c1.2,0.3,3.7,1.1,4.6,3.4c1.1,3.1,8.9,30,18.7,39.8c9.8,9.8,13.7,16.8,36.4,20.8c10.3,0.4,25-2.6,30.4-9
				c5.3-6.3,13.9-18.3,16.5-39.2C1076.9,373.5,1077.8,367.7,1077,366.7z M956,370.6c-1.7,7.9-7.7,23.8-14.5,31.5
				c-6.8,7.7-11.3,14.5-28.6,18.4c-9.9,1.3-24.7,0.2-31.5-8.1c-6.8-8.3-13.7-21.5-13.7-34.1c0-12.5,0.9-17.1,0.9-17.1
				s4.1-14.2,14.8-18.8c10.7-4.6,27.8-7.7,46.4-6.3c18.6,1.3,24.8,4.4,26.3,8.5C957.5,348.7,957.8,362.7,956,370.6z M1054.7,412.4
				c-6.8,8.3-21.6,9.4-31.5,8.1c-17.3-3.8-21.7-10.7-28.6-18.4c-6.8-7.7-12.8-23.6-14.5-31.5c-1.7-7.9-1.5-21.9,0-26
				c1.5-4.2,7.7-7.2,26.3-8.5c18.6-1.3,35.7,1.8,46.4,6.3c10.7,4.6,14.8,18.8,14.8,18.8s0.9,4.6,0.9,17.1
				C1068.3,390.9,1061.5,404.1,1054.7,412.4z"/>
				<path fill="#FBCC9A" d="M1082.1,726.5l2.2-2.7l-34.7-28.8l-2.1,2.6c-7.8,9.5-6.5,23.7,3,31.8
				C1059.9,737.6,1074.2,736.3,1082.1,726.5z"/>
				<path fill="#FBCC9A" d="M886.1,697.6L884,695L849,722.7l2.1,2.7c7.7,10,21.7,11.9,31.3,4C892,721.5,893.6,707.4,886.1,697.6z"/>
				<path fill="#FBCC9A" d="M889.3,703.6c-3.2,2.5-7.2,2.8-8.9,0.6c-1.7-2.2-0.4-6.1,2.8-8.6c3.2-2.5,7.2-2.8,8.9-0.6
				C893.8,697.3,892.6,701.1,889.3,703.6z"/>
				<path fill="#FBCC9A" d="M1044.1,703.5c3.2,2.5,7.2,2.8,8.9,0.6c1.7-2.2,0.4-6.1-2.8-8.6c-3.2-2.5-7.2-2.8-8.9-0.6
				C1039.6,697.2,1040.9,701,1044.1,703.5z"/>
				<path
					id="pelo_1_2_"
					fill="#512A11"
					d="M954.9,273.6c-5.4,25.1-79.1,43.8-79.1,43.8c21,21.3-0.5,20.6,3.9,41.1
				c4.4,20.6-9.5,66.9-9.5,66.9c0.9,4.9-1.9,1.5-1.9,1.5c-47.2-90.8-6.4-131.4-6.4-131.4c-8-37.5,34.7-49.7,34.7-49.7
				s3.6-9,10.9-13.8c0,0,75.6-51.2,132.2,13.8c0,0,42.7,12.1,34.7,49.7c0,0,43.6,31.9-0.3,126.7c0,0-2.8,3.4-1.9-1.5
				c0,0-20.1-41.7-15.7-62.2c4.4-20.6-17.1-19.9,3.9-41.1C1060.3,317.4,960.3,298.7,954.9,273.6"/>
				<path
					id="barba_2_2_"
					fill="#512A11"
					d="M967.2,477.9c5.8-0.5,7.5,1.6,7.5,1.6l2.9,8.2c24.2,11.4,21.8-30.6,21.8-30.6l6.4-6.6
				c0,0,21.5,81.9-36,89.2c-0.3,0-0.7-0.1-0.9-0.1c0.3,0,0.6,0.1,0.9,0.1c-4.6-0.6-9.1-1.7-13.4-3.5c-3.6-1.6-7.1-3.6-10.1-6.2
				c-2.9-2.4-5.4-5.2-7.5-8.3c-2.1-3-3.8-6.3-5.2-9.8c-1.4-3.5-2.5-7-3.3-10.7c-0.8-3.6-1.3-7.3-1.7-11c-0.3-3.6-0.5-7.1-0.5-10.7
				c0-3.3,0.1-6.6,0.3-9.9c0.2-2.8,0.5-5.6,0.8-8.4c0.3-2.1,0.6-4.3,0.9-6.4c0.2-1.2,0.4-2.5,0.7-3.7c0.1-0.2,0.1-0.5,0.2-0.7
				l6.4,6.6c0,0-2.4,42,21.8,30.6l2.9-8.2c0,0,1.7-2,7.5-1.6"/>
			</g>
		</g>
		<g id="SANT_ANDREU">
			<g>
				<path fill="#ACCCCE" d="M882.8,692.6"/>
				<g>
					<g>
						<ellipse fill="#CC9966" cx="1070" cy="391.3" rx="20.4" ry="26.3"/>
					</g>
				</g>
				<g>
					<g>
						<ellipse fill="#FBCC9A" cx="849.6" cy="391.3" rx="20.4" ry="26.3"/>
					</g>
				</g>
				<g>
					<path
						fill="#FBCC9A"
						d="M1043.1,519.3c-8.9-8.9-23.3-8.9-32,0c-8.8,8.9-8.7,23.1,0,31.9l4.6,4.6c11.3,11.4,22.5,22.8,33.6,34.3
					c11,11.5,22,23.1,32.3,34.7c2.5,2.9,5,5.8,7.3,8.6l0.3,0.4l-2.5,3.7c-8.5,12.3-18.3,24.9-28.2,37.2l-11.8,14.5l35,28.7
					l12.1-14.9c10.3-12.9,20.3-25.7,30.2-40l1.9-2.7l2.4-3.6c2.1-3.4,4.2-6.9,5.8-10.5c1-1.8,1.5-3.6,2.1-5.4
					c0.5-1.8,0.8-3.6,0.9-5.5l0.2-2.8l0.1-1.4c0-0.5-0.2-0.9-0.3-1.4c-0.4-1.9-0.8-3.6-1.3-5.4l-0.9-2.6c-0.3-0.9-0.6-1.8-1.1-2.6
					c-1-1.7-1.9-3.4-3-5l-3.5-4.9c-0.6-0.8-1.2-1.6-1.8-2.4l-1.6-2c-2.8-3.5-5.6-6.7-8.4-9.9c-11.1-12.6-22.3-24.5-33.6-36.3
					c-11.3-11.8-22.7-23.4-34.1-34.9L1043.1,519.3z"/>
				</g>
				<g>
					<path
						fill="#FBCC9A"
						d="M891.1,519.3c8.9-8.9,23.3-8.9,32,0c8.8,8.9,8.7,23.1,0,31.9l-4.6,4.6c-11.3,11.4-22.5,22.8-33.6,34.3
					c-11,11.5-22,23.1-32.3,34.7c-2.5,2.9-5,5.8-7.3,8.6L845,634l2.5,3.7c8.5,12.3,18.3,24.9,28.2,37.2l11.8,14.5l-35,28.7
					l-12.1-14.9c-10.3-12.9-20.3-25.7-30.2-40l-1.9-2.7l-2.4-3.6c-2.1-3.4-4.2-6.9-5.8-10.5c-1-1.8-1.5-3.6-2.1-5.4
					c-0.5-1.8-0.8-3.6-0.9-5.5l-0.2-2.8l-0.1-1.4c0-0.5,0.2-0.9,0.3-1.4c0.4-1.9,0.8-3.6,1.3-5.4l0.9-2.6c0.3-0.9,0.6-1.8,1.1-2.6
					c1-1.7,1.9-3.4,3-5l3.5-4.9c0.6-0.8,1.2-1.6,1.8-2.4l1.6-2c2.8-3.5,5.6-6.7,8.4-9.9c11.1-12.6,22.3-24.5,33.6-36.3
					c11.3-11.8,22.7-23.4,34.1-34.9L891.1,519.3z"/>
				</g>
				<g>
					<g>
						<path fill="#65140E" d="M1082.1,559.2c-11.2-11.9-22.7-23.5-34.1-35l-4.6-4.9c-8.9-8.9-23.4-8.6-32.2,0.3
						c-8.8,8.9-8.7,23.1,0,31.9l4.6,4.6c11.3,11.4,22.5,22.8,33.6,34.3"/>
					</g>
				</g>
				<g>
					<g>
						<path fill="#65140E" d="M885.4,589.7c11.1-11.4,21.7-22.6,33-33.9l4.6-4.6c8.8-8.7,8.9-23,0.1-31.9c-8.7-8.9-23.1-9-32-0.1
						l-4.7,4.7c-11.4,11.4-22.6,22.9-33.8,34.6"/>
					</g>
				</g>
				<g>
					<g>
						<path fill="#65140E" d="M1028,512.1c-14.9-3.3-37.9-7.3-61.8-7.3c-23.9,0-47,4-61.9,7.4c-9.4,2.1-17,12.1-17,21.8v157.5H1045
						V533.9C1045,524.2,1037.4,514.2,1028,512.1z"/>
					</g>
				</g>
				<rect x="887.3" y="637.3" fill="#3C3C3B" width="157.7" height="54.1"/>
				<polyline fill="#3C3C3B" points="972.7,637.3 1004.8,621.6 1035.7,637.3 			"/>
				<path fill="#FBCC9A" d="M1057.6,880.1l-13-191.4H887l-10.9,191.4l64.1,10.5l9.7-155.2c0.4-6.4,6-11.6,12.4-11.6h8.9
				c6.4,0,12,5.2,12.4,11.6l9.9,155.2L1057.6,880.1z"/>
				<path fill="#706F6F" d="M1065.1,782.5l-20.5-93.8H887l-16.4,95.1l80.6,5.9l-1.3-54.2c0.4-6.4,6-11.6,12.4-11.6h8.9
				c6.4,0,12,5.2,12.4,11.6l-1.3,54.2L1065.1,782.5z"/>
				<path fill="#FEDA97" d="M1012.3,509.2c-13.1-2.3-28.9-4.4-45.2-4.4c-16.3,0-32.2,1.9-45.4,4.2l42.6,12.2c0.6,0.8,1.6,1.3,2.7,1.3
				l0,0c1,0,2-0.5,2.7-1.3L1012.3,509.2z"/>
				<path fill="#FEDA97" d="M999.3,489.8l2.4,17.5c0,0-14.8,18.2-34.7,18.2c-19.8,0-34.7-18.1-34.7-18.1l2.4-17.5H999.3z"/>
				<path fill="#FBCC9A" d="M1079.4,720.8l2.2-2.7l-34.5-28.7l-2.1,2.6c-7.7,9.5-6.4,23.6,2.9,31.7
				C1057.2,731.9,1071.5,730.5,1079.4,720.8z"/>
				<path fill="#FBCC9A" d="M889.1,692.2l-2-2.6l-35.2,27.9l2.1,2.7c7.7,9.9,21.9,11.6,31.5,3.7C895,716,896.6,701.9,889.1,692.2z"/>
				<path fill="#ACCCCE" d="M888.4,692.1"/>
				<path fill="#FBCC9A" d="M892.3,698.2c-3.2,2.5-7.2,2.8-8.9,0.6s-0.4-6,2.8-8.6c3.2-2.5,7.2-2.8,8.9-0.6S895.5,695.7,892.3,698.2z
				"/>
				<path fill="#FBCC9A" d="M1041.5,697.9c3.2,2.5,7.2,2.8,8.9,0.6c1.7-2.2,0.4-6-2.8-8.6c-3.2-2.5-7.2-2.8-8.9-0.6
				C1037,691.6,1038.3,695.4,1041.5,697.9z"/>
				<g>
					<g>
						<ellipse fill="#CC9966" cx="1075.6" cy="390.9" rx="20.4" ry="26.3"/>
					</g>
				</g>
				<g>
					<g>
						<path fill="#FBCC9A" d="M945.9,501.1c-49.3,0-89.3-40.5-89.3-90.4v-95.5c0-49.9,40-90.4,89.3-90.4h21.9v276.3H945.9z"/>
					</g>
				</g>
				<g>
					<g>
						<path fill="#CC9966" d="M984.9,501.1c49.3,0,89.3-40.5,89.3-90.4v-95.5c0-49.9-40-90.4-89.3-90.4h-19.4v276.3H984.9z"/>
					</g>
				</g>
				<path fill="#27190E" d="M965.4,355.5"/>
				<line fill="none" x1="965.4" y1="355.5" x2="806.5" y2="355.5"/>
				<circle fill="#FBCC9A" cx="967.6" cy="407.6" r="13.7"/>
				<polygon fill="#333333" points="940.1,901.8 869.9,901.8 869.9,890 876,879.3 942.6,856.7 			"/>
				<polygon fill="#333333" points="993.6,901.8 1063.8,901.8 1063.8,890 1057.7,879.3 991,856.4 			"/>
				<path
					fill="#3C3C3B"
					d="M1075.4,407.7c-8,10.9-16.5,22.6-23.8,34c-3.4,5.3-6.3,10.7-9.2,16.3c-1,1.9-2.7,5.3-5,5.9
				c-2.9,0.8-7.4-4.4-10-6c-3.9-2.4-8-4.5-12.2-6.1c-9.7-3.7-21.2-5.6-30.4,0.5c-4.7,3.1-13,1.6-18.2,1.4c-5-0.2-8.1,1.5-12.6-1.4
				c-11-7.3-24.9-3.6-35.8,1.8c-2.7,1.4-5.4,2.9-8,4.5c-2.2,1.4-4.2,4.1-6.4,5.1c-3,1.5-5.4-1.1-6.8-3.6
				c-9.7-18.2-25.8-38.6-39.6-54c0,0-18,160.4,77.8,166.5c1.8,0.1,3-1.9,4.8-2c1.7-0.1,2.9,0.8,4,1.9c2.1,2,2.8,5.3,5.7,6.5
				c6.7,2.8,14,1.6,21,1.7c6.3,0.1,13.4,1.6,18.9-2.4c2.7-1.9,4.2-5.5,7.2-6.9c3.3-1.6,5.6,1,8.9,0.8c5.5-0.3,11.5-2.4,16.6-4.5
				c9.8-4.1,18.3-10.7,25.2-18.8c14.2-16.9,21.1-39.1,24.9-60.5c3.5-19.6,4.6-39.6,4.1-59.4C1076.5,422,1076.2,414.8,1075.4,407.7z
				 M1008.1,489.2c0,0-23.5,14.5-30.3,4.1c-0.5-0.8,0.2-3-0.4-4.2c-1.9-3.4-8.2-2.3-10.8-2c-3,0.4-5.7-1.6-7.7,1.9
				c-0.7,1.2,0.1,3.4-0.4,4.2c-6.9,10.4-30.3-4-30.3-4c-40.2-31.1,27.8-29,38.5-28.5C977.3,460.1,1048.2,458.1,1008.1,489.2z"/>
				<path
					fill="#65140E"
					d="M1074,351.8c0,0-4.5-0.8-51,2.3c-39,2.6-53.8,14.6-57.6,14.6c-3.8,0-18.7-12-57.6-14.6
				c-46.5-3.1-51-2.3-51-2.3s-1.3,16,0,18.4c1.3,2.4,2.1,20.8,3.1,27.3c1,6.5,3.1,18.6,10,25.5c6.9,6.9,17.9,11.5,30,12.8
				c16.6,0.8,21.8-0.1,34-7.4c12.2-7.3,20.1-29.3,21.4-33.4c1.3-4,3.1-10.4,4.4-12.6c1.1-1.8,3.1-2.3,4.6-2.4v0.1
				c0,0,0.4-0.1,1.1-0.1c0.6,0,1.1,0.1,1.1,0.1V380c1.5,0.1,3.5,0.6,4.6,2.4c1.3,2.2,3.1,8.6,4.4,12.6c1.3,4,9.2,26.1,21.4,33.4
				c12.2,7.3,17.4,8.2,34,7.4c12.1-1.3,23.1-5.8,30-12.8c6.9-6.9,9-19,10-25.5c1-6.5,1.8-24.9,3.1-27.3
				C1075.3,367.8,1074,351.8,1074,351.8z M948.9,384.8c-1.1,5.8-3.4,24.5-14.8,34.4c-5.6,5-12.4,10.3-25,10.7
				c-9.1,0.2-27.3-2.1-34.2-11c-3.2-5-8.1-10.5-8.2-24.4c-0.2-13.9-0.2-24.9,2.4-27.6c0,0,4.5-5.6,9.5-6.8c5-1.1,19.2-1.9,33.4,1
				c14.2,2.9,27.8,7.4,31.3,10.5C946.8,374.6,950.1,379,948.9,384.8z M1064.2,394.4c-0.2,13.9-5,19.4-8.2,24.4
				c-6.9,8.9-25.2,11.1-34.2,11c-12.6-0.3-19.3-5.6-25-10.7c-11.5-9.8-13.7-28.6-14.8-34.4c-1.1-5.8,2.1-10.2,5.6-13.2
				c3.5-3.1,17.1-7.6,31.3-10.5c14.2-2.9,28.4-2.1,33.4-1c5,1.1,9.5,6.8,9.5,6.8C1064.3,369.6,1064.3,380.6,1064.2,394.4z"/>
				<path fill="#3C3C3B" stroke="#3C3C3B" stroke-width="2" stroke-miterlimit="10" d="M845.7,252.2c0,0-21.1,54.1,20.6,64.8
				c0,0,111.9,33.9,212.8-6.3c0,0,21.9-15.7,4.9-58.5C1084.1,252.2,1018.2,280.1,845.7,252.2z"/>
				<path
					fill="#65140E"
					stroke="#65140E"
					stroke-width="2"
					stroke-miterlimit="10"
					d="M1084.1,252.2c7.5-2-10.8-12.5-10.8-12.5
				c11.6-23.4-11.3-81.7-12-83.5c-17.7-46.6-93.8-46.1-139.7-15.6c-31.6,21.1-52.5,55.1-67.1,88.4c-0.5,1.2-8.8,23.1-8.9,23.1
				C845.7,252.2,995,276.1,1084.1,252.2z"/>
			</g>
		</g>
		<g id="EIXAMPLE">
			<g>
				<path fill="#3C3C3B" d="M1057.9,879.7l-13.2-190H888.9l-10.8,190.5l62.4,9.2l10.9-153.3c0.4-6.4,5.9-11.6,12.3-11.6h8.9
				c6.4,0,11.9,5.2,12.3,11.6l8.8,153.3L1057.9,879.7z"/>
				<polygon fill="#9B4416" points="940.5,901.4 870.6,901.4 870.6,889.7 876.6,879 940.5,889.5 			"/>
				<polygon fill="#9B4416" points="993.7,901.4 1063.6,901.4 1063.6,889.7 1057.6,879 993.7,889.5 			"/>
				<polyline fill="#9B4416" points="876.6,881 866.7,852.2 897.4,852.2 893.5,883.7 			"/>
				<polyline fill="#9B4416" points="1057.5,881 1067.4,852.2 1036.7,852.2 1040.6,883.7 			"/>
				<path fill="#FBCC9A" d="M1014.1,495.3c-13-2.3-28.8-4.4-45-4.4c-16.3,0-32.1,1.9-45.2,4.2l23.3,22.3c0.6,0.8,22.4,15.7,23.4,15.7
				l11.9-12.8c1,0-0.6,0.8,0,0L1014.1,495.3z"/>
				<path fill="#FBCC9A" d="M1001.1,475.9l2.4,17.4c0,0-14.8,18.1-34.6,18.1c-19.8,0-34.6-18.1-34.6-18.1l2.4-17.4H1001.1z"/>
				<path fill="#ACCCCE" d="M890.6,677.5"/>
				<ellipse fill="#CC9966" cx="1077.1" cy="394.1" rx="20.4" ry="26.2"/>
				<ellipse fill="#FBCC9A" cx="857.5" cy="394.1" rx="20.4" ry="26.2"/>
				<path fill="#FBCC9A" d="M947.9,504c-49.2,0-89-40.3-89-90.1v-95.1c0-49.7,39.8-90.1,89-90.1h21.8V504H947.9z"/>
				<path fill="#CC9966" d="M986.7,504c49.2,0,89-40.3,89-90.1v-95.1c0-49.7-39.8-90.1-89-90.1h-19.3V504H986.7z"/>
				<path fill="#27190E" d="M967.4,342.1"/>
				<circle fill="#FBCC9A" cx="969.5" cy="410.8" r="13.7"/>
				<circle fill="#3C3C3B" stroke="#3C3C3B" stroke-miterlimit="10" cx="984.4" cy="533" r="5.2"/>
				<path
					id="pelo_2_2_"
					fill="#3C3C3B"
					d="M1015.6,292.2c-4.5,23.1,20.1,3.5,20.1,3.5c-4.7,33.7,14.9,39.9,14.9,39.9
				c14.3,3,6.5,55.8,6.5,55.8c0.4,6,3.6,0,3.6,0c29.9-31.2,33.3-70.8,33.3-70.8c0.6-6.8,1.2-13.1,0-19.8c-1.1-6.3-3.2-12.4-6.1-18
				c-5.8-11.4-14.3-21.2-23.8-29.6c-8.6-7.6-18-14.3-27.8-20.1c-5.9-3.5-12-6.8-18.2-9.6c-3.5-1.6-1.9-9.4-1.3-12.6
				c1-5,3.1-9.8,6.7-13.5c0.7-0.7-1.6-4.4-2-5.1c-0.9-1.7-2.1-3.2-3.4-4.6c-3.7-3.9-8.7-6.2-14-7c-9.2-1.4-18.7,1.3-27.2,4.6
				c-16.1,6.3-30.7,16.2-44.4,26.5c-2.3,1.8-4.7,3.6-7,5.4c-2.1,1.6-4.6,4.6-7,5.6c-0.1,0-87.8,37.3-77.5,97.9
				c0,0,3.4,39.6,33.3,70.8c0,0,3.2,6,3.6,0c0,0-7.8-52.8,6.5-55.8c0,0,19.5-6.2,14.9-39.9c0.1,0.6,3,1.8,3.4,2.1
				c2.4,1.2,5,2.1,7.7,2.1c1.9,0,3.8-0.5,5.4-1.5c0.9-0.6,1.7-1.4,2.4-2.3c0.8-1.1,1-2.9,2.4-3.4c0.3-0.1,0.7-0.2,1-0.3
				c1.2-0.3,2.3-0.6,3.5-0.9c3.9-1,7.8-2,11.7-2.9c5.3-1.3,10.7-2.5,16-3.5c6-1.2,12-2.3,18-3.2c5.8-0.9,11.7-1.5,17.6-1.8
				c4.9-0.2,10-0.3,14.9,0.5c3.4,0.5,7.2,1.4,9.8,3.8C1015.5,286.3,1016.1,289.3,1015.6,292.2z"/>
				<path
					fill="#3C3C3B"
					d="M1077.1,377.4c-0.7-1-2-0.8-2.7-3.1c-0.6-2.4-6.6-18.6-13.2-22.3c-6.6-3.7-19.2-10-49.7-12.2
				c-23.6-0.6-37.9-1.1-42-1.3v0c0,0-0.2,0-0.6,0c-0.4,0-0.6,0-0.6,0v0c-4.1,0.2-18.4,0.7-42,1.3c-30.6,2.2-43.2,8.5-49.7,12.2
				c-6.6,3.7-12.5,19.9-13.2,22.3c-0.6,2.4-1.9,2.2-2.7,3.1c-0.7,1,0.1,6.7,2.4,10.4c2.5,20.7,11,32.6,16.3,38.9
				c5.3,6.3,20,9.3,30.1,8.9c22.5-3.9,26.3-10.9,36.1-20.6c9.8-9.8,17.5-36.5,18.6-39.5c0.9-2.3,3.4-3.1,4.6-3.4
				c1.2,0.3,3.7,1.1,4.6,3.4c1.1,3,8.8,29.8,18.6,39.5c9.8,9.8,13.6,16.7,36.1,20.6c10.2,0.4,24.8-2.6,30.1-8.9
				c5.3-6.3,13.8-18.1,16.3-38.9C1077,384.1,1077.9,378.4,1077.1,377.4z M957.1,381.3c-1.7,7.8-7.6,23.7-14.4,31.3
				c-6.8,7.6-11.2,14.4-28.4,18.2c-9.8,1.3-24.5,0.2-31.3-8c-6.8-8.3-13.6-21.3-13.6-33.8c0-12.5,0.8-17,0.8-17s4-14.1,14.6-18.7
				c10.6-4.6,27.6-7.6,46.1-6.3c18.5,1.3,24.6,4.3,26.1,8.5C958.5,359.6,958.7,373.5,957.1,381.3z M1055,422.8
				c-6.8,8.3-21.4,9.3-31.3,8c-17.1-3.8-21.6-10.6-28.4-18.2c-6.8-7.6-12.7-23.5-14.4-31.3c-1.7-7.8-1.5-21.7,0-25.8
				c1.5-4.1,7.6-7.2,26.1-8.5c18.5-1.3,35.4,1.7,46.1,6.3c10.6,4.6,14.6,18.7,14.6,18.7s0.9,4.6,0.9,17
				C1068.5,401.4,1061.8,414.5,1055,422.8z"/>
				<path
					fill="#3C3C3B"
					stroke="#3C3C3B"
					stroke-miterlimit="10"
					d="M1057.3,422.7c-7.1,8.5-22.3,9.6-32.6,8.2
				c-17.9-3.9-22.5-10.9-29.6-18.7c-7.1-7.8-13.3-24.1-15-32.1c-1.8-8-1.5-22.3,0-26.5c1.5-4.2,8-7.4,27.2-8.7
				c19.2-1.3,36.9,1.8,48,6.5c11.1,4.7,15.3,19.2,15.3,19.2s0.9,4.7,0.9,17.5C1071.5,400.8,1064.4,414.3,1057.3,422.7z"/>
				<path
					fill="#3C3C3B"
					stroke="#3C3C3B"
					stroke-miterlimit="10"
					d="M866.9,388c0-12.8,0.9-17.5,0.9-17.5s4.2-14.5,15.2-19.2
				c11-4.7,28.6-7.8,47.8-6.5c19.2,1.3,25.5,4.5,27.1,8.7c1.5,4.2,1.8,18.5,0,26.5c-1.8,8-7.9,24.3-15,32.1
				c-7.1,7.8-11.6,14.8-29.4,18.7c-10.2,1.3-25.4,0.2-32.4-8.2C873.9,414.3,866.9,400.8,866.9,388z"/>
				<path fill="#FBCC9A" d="M1083.9,720l2.2-2.7l-34.4-28.6l-2.1,2.6c-7.7,9.5-6.4,23.6,2.9,31.6C1061.9,731.1,1076,729.7,1083.9,720
				z"/>
				<path fill="#FBCC9A" d="M886.1,689.8l-2-2.6l-35,27.8l2.1,2.7c7.7,9.9,21.8,11.5,31.4,3.7C892,713.5,893.6,699.4,886.1,689.8z"/>
				<path fill="#FBCC9A" d="M889.3,695.7c-3.2,2.5-7.2,2.8-8.9,0.6c-1.7-2.2-0.4-6,2.8-8.5c3.2-2.5,7.2-2.8,8.9-0.6
				S892.5,693.2,889.3,695.7z"/>
				<path fill="#FBCC9A" d="M1046.2,697.2c3.2,2.5,7.2,2.8,8.9,0.6c1.7-2.2,0.4-6-2.8-8.5c-3.2-2.5-7.2-2.8-8.9-0.6
				C1041.7,690.9,1043,694.7,1046.2,697.2z"/>
				<g>
					<path
						fill="#9B4517"
						d="M1046.7,519.3c-8.9-8.9-23.2-8.9-31.9,0c-8.7,8.9-8.7,23.1,0,31.8l4.6,4.6
					c11.3,11.4,22.5,22.8,33.5,34.3c11,11.5,22,23.1,32.2,34.7c2.5,2.9,5,5.8,7.3,8.6l0.3,0.4l-2.5,3.7
					c-8.4,12.2-18.3,24.8-28.1,37.2l-11.7,14.5l34.9,28.6l12.1-14.9c10.2-12.9,20.3-25.6,30.2-39.9l1.9-2.7l2.4-3.6
					c2.1-3.4,4.2-6.9,5.8-10.4c1-1.8,1.5-3.6,2.1-5.4c0.5-1.8,0.8-3.6,0.9-5.5l0.2-2.8l0.1-1.4c0-0.5-0.2-0.9-0.3-1.4
					c-0.4-1.9-0.8-3.6-1.3-5.4l-0.9-2.6c-0.3-0.9-0.5-1.8-1.1-2.6c-1-1.7-1.9-3.4-3-5l-3.5-4.8c-0.6-0.8-1.2-1.6-1.8-2.4l-1.6-2
					c-2.8-3.5-5.6-6.7-8.4-9.9c-11.1-12.6-22.3-24.4-33.6-36.2c-11.3-11.7-22.6-23.3-34.1-34.8L1046.7,519.3z"/>
					<path
						fill="#9B4517"
						d="M926.6,551.1c8.8-8.7,8.8-22.9,0.1-31.8c-8.7-8.9-23.1-9-31.9-0.1l-4.7,4.7
					c-11.4,11.4-22.7,22.9-34,34.5c-11.3,11.6-22.4,23.3-33.5,35.8c-2.8,3.1-5.5,6.3-8.3,9.7l-2.7,3.3c-1.2,1.5-2.4,3.2-3.6,4.8
					l-1.8,2.4l-1.5,2.5c-1,1.7-2.1,3.3-2.6,5.1l-0.9,2.6l-0.6,2.6c-0.3,1.8-1.1,3.6-0.8,5.5c0.2,3.7,0.6,7.3,2.1,10.9
					c1.4,3.6,3.2,7.1,5.3,10.6c0.5,0.9,1,1.7,1.5,2.6l1.2,2l1.8,2.8c9.5,14.5,19.2,27.4,29.1,40.4l11.7,15.2l35.5-27.8l-11.4-14.7
					c-9.5-12.5-19.1-25.2-27.1-37.5l-1.8-2.8l1.2-1.4c2.3-2.8,4.8-5.7,7.4-8.5c10.2-11.5,21.2-23,32.2-34.3
					c11-11.4,22.2-22.7,33.5-34L926.6,551.1z"/>
					<path fill="#9B4517" d="M1031.4,511.2c-8.2-1.8-18.9-3.9-30.9-5.3c-9.7-1.2-20.2,22.9-30.9,22.9c-11.4,0-22.5-24-32.8-22.7
					c-11.2,1.4-21.2,3.4-29,5.1c-9.4,2.1-16.9,12.1-16.9,21.8v157.2h157.3V533C1048.3,523.4,1040.8,513.3,1031.4,511.2z"/>
					<g>
						<path fill="#65360D" d="M969.6,528.8v161.4V528.8z"/>
						<rect x="967.4" y="528.8" fill="#65360D" width="4.4" height="161.4"/>
					</g>
					<polyline fill="#65360D" points="969.6,529.6 922.6,487.3 907.9,517.5 				"/>
					<polyline fill="#65360D" points="969.6,529.6 1007.1,487.3 1031.4,515.5 				"/>
				</g>
			</g>
		</g>
		<g id="NOU_BARRIS">
			<g>
				<polygon fill="#FBCC9A" points="944,900.8 875.1,900.8 875.1,889.3 881.1,878.7 944,889 			"/>
				<polyline fill="#644F2F" points="944,894.9 944,900.8 875.1,900.8 875.1,895.1 			"/>
				<polyline fill="#644F2F" points="875.1,900.8 875.1,889.3 881.1,878.7 886.2,879.5 877.3,896.1 			"/>
				<polygon fill="#FBCC9A" points="996.7,901 1064.9,901 1064.9,889.9 1059,879.6 996.7,889.6 			"/>
				<polyline fill="#644F2F" points="996.7,895.6 996.7,901.5 1065.9,901.5 1065.9,895.7 			"/>
				<polyline fill="#644F2F" points="1065.9,901.5 1065.9,889.9 1060,879.3 1054.9,880.2 1063.8,896.7 			"/>
				<path fill="#7F5D37" d="M1030.6,513.9c-14.7-3.3-37.4-7.2-61-7.2c-23.6,0-46.4,4-61.1,7.3c-9.3,2.1-16.7,12-16.7,21.5v155.5
				h155.6V535.4C1047.3,525.9,1039.9,516,1030.6,513.9z"/>
				<path
					fill="#512A11"
					d="M893.9,522.5c0,0,15.5-14.5,30.4-11.7v7.9v42v10.5v34.2l90.4,1v-95.6c0,0,22.6,1.8,31,10.3l14.4,358.7
				l-63.2,10.3L987.1,737c-0.4-6.3-5.9-11.5-12.2-11.5H966c-6.4,0-11.8,5.1-12.2,11.5l-9.6,153.1l-63.2-10.3l10.2-281L893.9,522.5z"/>
				<path
					fill="#7F5D37"
					d="M1045.7,521c-8.8-8.8-23-8.8-31.6,0c-8.6,8.8-8.6,22.8,0,31.5l4.5,4.6c11.2,11.2,22.2,22.5,33.2,33.9
				c10.9,11.4,21.7,22.8,31.8,34.3c2.5,2.8,5,5.7,7.2,8.5l0.3,0.4l-2.4,3.7c-8.3,12.1-18.1,24.6-27.8,36.8l-11,14.5l33.9,28.1
				l11.9-14.7c10.1-12.7,20.1-25.3,29.8-39.5l1.8-2.7l2.3-3.6c2-3.4,4.1-6.8,5.7-10.3c0.9-1.7,1.4-3.5,2.1-5.3
				c0.5-1.8,0.7-3.6,0.9-5.4l0.2-2.7l0.1-1.4c0-0.5-0.2-0.9-0.3-1.4c-0.4-1.8-0.8-3.5-1.3-5.3l-0.9-2.6c-0.3-0.9-0.5-1.8-1.1-2.6
				c-1-1.7-1.9-3.3-3-5l-3.5-4.8c-0.6-0.8-1.2-1.6-1.8-2.3l-1.6-1.9c-2.8-3.4-5.5-6.6-8.3-9.8c-11-12.5-22-24.1-33.2-35.8
				c-11.2-11.6-22.4-23.1-33.7-34.4L1045.7,521z"/>
				<path
					fill="#7F5D37"
					d="M926.9,552.5c8.7-8.6,8.7-22.7,0.1-31.5c-0.9-0.9-1.8-1.7-2.8-2.4c-8.7-6.3-20.9-5.6-28.8,2.3l-4.6,4.6
				c-11.3,11.3-22.5,22.6-33.6,34.1c-11.1,11.5-22.2,23.1-33.1,35.4c-2.7,3.1-5.5,6.2-8.2,9.6l-2.6,3.2c-1.2,1.5-2.4,3.1-3.5,4.7
				l-1.8,2.4l-1.5,2.5c-1,1.6-2.1,3.3-2.5,5l-0.9,2.6l-0.6,2.6c-0.3,1.7-1.1,3.6-0.7,5.4c0.2,3.6,0.6,7.2,2.1,10.8
				c1.4,3.5,3.2,7,5.2,10.4c0.5,0.9,1,1.7,1.5,2.5l1.2,2l1.8,2.8c9.4,14.4,19,27.1,28.8,40l11.6,15l35.1-27.5l-11.3-14.6
				c-9.4-12.3-18.8-25-26.8-37.1l-1.8-2.8l1.1-1.4c2.3-2.8,4.8-5.6,7.3-8.4c10.1-11.4,21-22.7,31.8-34c10.9-11.3,22-22.4,33.1-33.6
				L926.9,552.5z"/>
				<path fill="#512A11" d="M924.3,518.6l0,48.9l-33.2,31.2l4.4-77.9c0,0,10.3-11.8,28.8-10.1"/>
				<path fill="#512A11" d="M1014.7,513v54.3l33.9,25.4l-2.9-71.6C1045.7,521,1040,512.2,1014.7,513z"/>
				<path fill="#FBCC9A" d="M1012.3,511.9c-12.9-2.2-28.5-4.4-44.6-4.4c-16.1,0-31.8,1.9-44.8,4.1l42,12c0.6,0.8,1.6,1.3,2.6,1.3l0,0
				c1,0,2-0.5,2.6-1.3L1012.3,511.9z"/>
				<path fill="#FBCC9A" d="M999.5,492.8l2.4,17.3c0,0-14.6,17.9-34.2,17.9c-19.6,0-34.2-17.9-34.2-17.9l2.4-17.3H999.5z"/>
				<path fill="#FBCC9A" d="M1082.2,719.3l2.1-2.6l-34.1-28.3l-2.1,2.6c-7.6,9.4-6.4,23.3,2.9,31.3
				C1060.4,730.3,1074.4,729,1082.2,719.3z"/>
				<path fill="#ACCCCE" d="M890,692.4"/>
				<path fill="#FBCC9A" d="M890.7,691.6l-2-2.6l-34.7,27.5l2.1,2.7c7.6,9.8,21.6,11.4,31.1,3.7C896.5,715.1,898.1,701.2,890.7,691.6
				z"/>
				<path fill="#FBCC9A" d="M893.9,697.5c-3.2,2.5-7.1,2.7-8.8,0.6s-0.4-6,2.8-8.5c3.2-2.5,7.1-2.7,8.8-0.6
				C898.3,691.2,897,695,893.9,697.5z"/>
				<path fill="#FBCC9A" d="M1044.8,697.1c3.2,2.5,7.1,2.7,8.8,0.6c1.7-2.2,0.4-6-2.8-8.5c-3.2-2.5-7.1-2.7-8.8-0.6
				C1040.4,690.9,1041.6,694.7,1044.8,697.1z"/>
				<ellipse fill="#CC9966" cx="1074.7" cy="395.1" rx="20.2" ry="25.9"/>
				<ellipse fill="#FBCC9A" cx="857.3" cy="395.1" rx="20.2" ry="25.9"/>
				<path fill="#FBCC9A" d="M946.8,503.9c-48.7,0-88.2-39.9-88.2-89.2v-94.2c0-49.3,39.5-89.2,88.2-89.2h21.6v272.6H946.8z"/>
				<path fill="#CC9966" d="M985.2,503.9c48.7,0,88.2-39.9,88.2-89.2v-94.2c0-49.3-39.5-89.2-88.2-89.2h-19.2v272.6H985.2z"/>
				<path fill="#27190E" d="M966.1,360.2"/>
				<line fill="none" x1="966.1" y1="360.2" x2="809.2" y2="360.2"/>
				<circle fill="#FBCC9A" cx="968.2" cy="411.7" r="13.5"/>
				<path
					fill="#3C3C3B"
					d="M904.4,445.2c-1.5,3.8-1,30.5,21.5,25.5c6.3-1.4,4.4-9.4,13.8-15.5c6.5-4.2,16.2-5.1,27.1-5.1
				c10.2,0,23.3,0.8,30.6,6.3c3.5,2.6,8.7,17.2,17.9,14.1c14.9-5.1,12.8-24.7,12.8-24.7s-12.1,20.5-22.7,1.9
				c-5.3-9.4-12.1-7.8-15.6-8.4c-5.5-0.8-16.5,4.2-22.1,4.1c-6-0.2-14.6-4.6-20.6-3.8c-4.5,0.6-13.7,2.6-18.9,11.2
				C919.5,464.9,906.1,451.1,904.4,445.2z"/>
				<path
					id="gafas_2_2_"
					fill="#3C3C3B"
					d="M858.7,361.9c2.6,0.7,9.9,22.6,13.9,33.7c4,11.1,9.9,15.4,19.2,18.4
				c18.7,3.7,36.6-1.1,42-3.3c5.4-2.2,9.2-8.3,12.9-15.1c3.7-6.8,12.1-29,14.2-33.5l10.3,0c2.1,4.5,10.6,26.6,14.3,33.5
				c3.7,6.8,7.4,12.9,12.9,15.1c5.4,2.2,23.4,7,42,3.3c9.3-3,15.2-7.3,19.2-18.4c4-11.1,11.1-31,12.2-33.7c0.6-1.5,1.6-1.2,1.6-1.2
				v-17.6c0,0-6-3.5-19-4.2c-13-0.7-41.3-1.4-53.9-0.1c-12.6,1.2-15.1,2.2-17.1,3.7c-2,1.6-2.8,4-6.4,4.6h-22
				c-3.6-0.6-4.4-3-6.4-4.6c-2-1.6-4.5-2.5-17.1-3.7c-12.6-1.2-40.9-0.6-53.8,0.1c-13,0.8-19.1,5.9-19.1,5.9 M948.6,378.3
				c-3.8,13.2-7.7,23.1-15.1,27.1c-7.4,3.9-35.3,10.8-48.2,0.5c-2.5-2-9.9-10.3-11.3-26.4c-1.3-16.1-2.9-24.6,6.2-29.2
				c0,0,17.9-6.5,32.2-6.4c16.2,0.1,30.4,2.8,33.7,7.4C949.4,355.9,953.2,361.7,948.6,378.3z M1058,379.5
				c-1.3,16.1-8.7,24.3-11.3,26.4c-12.9,10.2-40.8,3.4-48.2-0.5c-7.4-3.9-11.2-13.8-15.1-27.1c-4.6-16.7-0.8-22.4,2.4-27
				c3.2-4.6,17.5-7.3,33.7-7.4c14.3-0.1,32.2,6.4,32.2,6.4C1060.9,354.9,1059.3,363.4,1058,379.5z"/>
			</g>
		</g>
	</g>
	<g id="NOM_SANT_MARTI">
		<path
			opacity="0.4"
			fill="#FFFFFF"
			d="M1212.8,485.1l35.7-43.5c3.2-3.9,4.9-8.7,4.9-13.7v-49.4c0-7.9,6.4-14.3,14.3-14.3h360.9
		c7.6,0,13.7,6.1,13.7,13.7v102.2c0,7.5-4.4,13-11.9,13h-329c-7.5,0-13.7,5.8-13.7-1.7l0,1.7c0-7.1-6.5-1.7-13.4-0.1l-49.7,11.1
		C1213.6,506.8,1205.7,493.9,1212.8,485.1z"/>
		<path
			fill="none"
			stroke="#3D3D3C"
			stroke-width="11"
			stroke-linecap="round"
			stroke-miterlimit="10"
			d="M1214.6,485.1l35.7-43.5
		c3.2-3.9,4.9-8.7,4.9-13.7v-49.4c0-7.9,6.4-14.3,14.3-14.3h360.9c7.6,0,13.7,6.1,13.7,13.7v100.2c0,7.5-4.2,12.7-13.3,12.6
		l-327.4,2.1l0,0l0,0l-27.3,0.1l-49.7,11.1C1215.4,506.8,1207.4,493.9,1214.6,485.1z"/>
		<text transform="matrix(1 0 0 1 1299.3291 446.9335)" fill="#3D3D3B" font-family="'FuturaStd-Bold'" font-size="45.4336">SANT MART</text>
	</g>
	<g id="NOM_SERRIA_SANT_GERVASI">
		<path
			opacity="0.4"
			fill="#FFFFFF"
			d="M1212.8,658.1l35.7-43.5c3.2-3.9,4.9-8.7,4.9-13.7v-49.4c0-7.9,6.4-14.3,14.3-14.3h612
		c7.6,0,13.7,6.1,13.7,13.7v102.2c0,7.5-4.4,13-11.9,13h-580.1c-7.5,0-13.7,5.8-13.7-1.7l0,1.7c0-7.1-6.5-1.7-13.4-0.1l-49.7,11.1
		C1213.6,679.7,1205.7,666.8,1212.8,658.1z"/>
		<path
			fill="none"
			stroke="#3D3D3C"
			stroke-width="11"
			stroke-linecap="round"
			stroke-miterlimit="10"
			d="M1214.6,658.1l35.7-43.5
		c3.2-3.9,4.9-8.7,4.9-13.7v-49.4c0-7.9,6.4-14.3,14.3-14.3h612c7.6,0,13.7,6.1,13.7,13.7v100.2c0,7.5-4.2,12.7-13.3,12.6
		l-578.5,2.1l0,0l0,0l-27.3,0.1l-49.7,11.1C1215.4,679.7,1207.4,666.8,1214.6,658.1z"/>
		<text transform="matrix(1 0 0 1 1299.3291 619.8549)" fill="#3D3D3B" font-family="'FuturaStd-Bold'" font-size="45.4336">SERRI - SANT GERVASI</text>
	</g>
	<g id="NOM_CIUTAT_VELLA">
		<path
			opacity="0.4"
			fill="#FFFFFF"
			d="M1212.8,485.1l35.7-43.5c3.2-3.9,4.9-8.7,4.9-13.7v-49.4c0-7.9,6.4-14.3,14.3-14.3h360.9
		c7.6,0,13.7,6.1,13.7,13.7v102.2c0,7.5-4.4,13-11.9,13h-329c-7.5,0-13.7,5.8-13.7-1.7l0,1.7c0-7.1-6.5-1.7-13.4-0.1l-49.7,11.1
		C1213.6,506.8,1205.7,493.9,1212.8,485.1z"/>
		<path
			fill="none"
			stroke="#3D3D3C"
			stroke-width="11"
			stroke-linecap="round"
			stroke-miterlimit="10"
			d="M1214.6,485.1l35.7-43.5
		c3.2-3.9,4.9-8.7,4.9-13.7v-49.4c0-7.9,6.4-14.3,14.3-14.3h360.9c7.6,0,13.7,6.1,13.7,13.7v100.2c0,7.5-4.2,12.7-13.3,12.6
		l-327.4,2.1l0,0l0,0l-27.3,0.1l-49.7,11.1C1215.4,506.8,1207.4,493.9,1214.6,485.1z"/>
		<text transform="matrix(1 0 0 1 1299.3291 446.9335)" fill="#3D3D3B" font-family="'FuturaStd-Bold'" font-size="45.4336">CIUTAT VELLA</text>
	</g>
	<g id="NOM_SANTS_MONTJUIC">
		<path
			opacity="0.4"
			fill="#FFFFFF"
			d="M1212.8,658.1l35.7-43.5c3.2-3.9,4.9-8.7,4.9-13.7v-49.4c0-7.9,6.4-14.3,14.3-14.3h514.6
		c7.6,0,13.7,6.1,13.7,13.7v102.2c0,7.5-4.4,13-11.9,13h-482.7c-7.5,0-13.7,5.8-13.7-1.7l0,1.7c0-7.1-6.5-1.7-13.4-0.1l-49.7,11.1
		C1213.6,679.7,1205.7,666.8,1212.8,658.1z"/>
		<path
			fill="none"
			stroke="#3D3D3C"
			stroke-width="11"
			stroke-linecap="round"
			stroke-miterlimit="10"
			d="M1214.6,658.1l35.7-43.5
		c3.2-3.9,4.9-8.7,4.9-13.7v-49.4c0-7.9,6.4-14.3,14.3-14.3H1784c7.6,0,13.7,6.1,13.7,13.7v100.2c0,7.5-4.2,12.7-13.3,12.6
		l-481.1,2.1l0,0l0,0l-27.3,0.1l-49.7,11.1C1215.4,679.7,1207.4,666.8,1214.6,658.1z"/>
		<text transform="matrix(1 0 0 1 1299.3291 619.8549)" fill="#3D3D3B" font-family="'FuturaStd-Bold'" font-size="45.4336">SANTS - MONTJUC</text>
	</g>
	<g id="NOM_LES_CORTS">
		<path
			opacity="0.4"
			fill="#FFFFFF"
			d="M1212.8,307.5l35.7-43.5c3.2-3.9,4.9-8.7,4.9-13.7V201c0-7.9,6.4-14.3,14.3-14.3h289.1
		c7.6,0,13.7,6.1,13.7,13.7v102.2c0,7.5-4.4,13-11.9,13h-257.2c-7.5,0-13.7,5.8-13.7-1.7l0,1.7c0-7.1-6.5-1.7-13.4-0.1l-49.7,11.1
		C1213.6,329.1,1205.7,316.2,1212.8,307.5z"/>
		<path
			fill="none"
			stroke="#3D3D3C"
			stroke-width="11"
			stroke-linecap="round"
			stroke-miterlimit="10"
			d="M1214.6,307.5l35.7-43.5
		c3.2-3.9,4.9-8.7,4.9-13.7V201c0-7.9,6.4-14.3,14.3-14.3h289.1c7.6,0,13.7,6.1,13.7,13.7v100.2c0,7.5-4.2,12.7-13.3,12.6
		l-255.6,2.1l0,0l0,0l-27.3,0.1l-49.7,11.1C1215.4,329.1,1207.4,316.2,1214.6,307.5z"/>
		<text transform="matrix(1 0 0 1 1299.3291 269.2782)" fill="#3D3D3B" font-family="'FuturaStd-Bold'" font-size="45.4336">LES CORTS</text>
	</g>
	<g id="NOM_GRACIA">
		<path
			opacity="0.4"
			fill="#FFFFFF"
			d="M1212.8,307.5l35.7-43.5c3.2-3.9,4.9-8.7,4.9-13.7V201c0-7.9,6.4-14.3,14.3-14.3h289.1
		c7.6,0,13.7,6.1,13.7,13.7v102.2c0,7.5-4.4,13-11.9,13h-257.2c-7.5,0-13.7,5.8-13.7-1.7l0,1.7c0-7.1-6.5-1.7-13.4-0.1l-49.7,11.1
		C1213.6,329.1,1205.7,316.2,1212.8,307.5z"/>
		<path
			fill="none"
			stroke="#3D3D3C"
			stroke-width="11"
			stroke-linecap="round"
			stroke-miterlimit="10"
			d="M1214.6,307.5l35.7-43.5
		c3.2-3.9,4.9-8.7,4.9-13.7V201c0-7.9,6.4-14.3,14.3-14.3h289.1c7.6,0,13.7,6.1,13.7,13.7v100.2c0,7.5-4.2,12.7-13.3,12.6
		l-255.6,2.1l0,0l0,0l-27.3,0.1l-49.7,11.1C1215.4,329.1,1207.4,316.2,1214.6,307.5z"/>
		<text transform="matrix(1 0 0 1 1299.3291 269.2782)" fill="#3D3D3B" font-family="'FuturaStd-Bold'" font-size="45.4336">GRCIA</text>
	</g>
	<g id="NOM_HORTA_GUINARDO">
		<path
			opacity="0.4"
			fill="#FFFFFF"
			d="M1212.8,658.1l35.7-43.5c3.2-3.9,4.9-8.7,4.9-13.7v-49.4c0-7.9,6.4-14.3,14.3-14.3h532.4
		c7.6,0,13.7,6.1,13.7,13.7v102.2c0,7.5-4.4,13-11.9,13h-500.4c-7.5,0-13.7,5.8-13.7-1.7l0,1.7c0-7.1-6.5-1.7-13.4-0.1l-49.7,11.1
		C1213.6,679.7,1205.7,666.8,1212.8,658.1z"/>
		<path
			fill="none"
			stroke="#3D3D3C"
			stroke-width="11"
			stroke-linecap="round"
			stroke-miterlimit="10"
			d="M1214.6,658.1l35.7-43.5
		c3.2-3.9,4.9-8.7,4.9-13.7v-49.4c0-7.9,6.4-14.3,14.3-14.3h532.4c7.6,0,13.7,6.1,13.7,13.7v100.2c0,7.5-4.2,12.7-13.3,12.6
		l-498.8,2.1l0,0l0,0l-27.3,0.1l-49.7,11.1C1215.4,679.7,1207.4,666.8,1214.6,658.1z"/>
		<text transform="matrix(1 0 0 1 1299.3291 619.8549)" fill="#3D3D3B" font-family="'FuturaStd-Bold'" font-size="45.4336">HORTA - GUINARD</text>
	</g>
	<g id="NOM_SANT_ANDREU">
		<path
			opacity="0.4"
			fill="#FFFFFF"
			d="M1212.8,485.1l35.7-43.5c3.2-3.9,4.9-8.7,4.9-13.7v-49.4c0-7.9,6.4-14.3,14.3-14.3h390.5
		c7.6,0,13.7,6.1,13.7,13.7v102.2c0,7.5-4.4,13-11.9,13h-358.6c-7.5,0-13.7,5.8-13.7-1.7l0,1.7c0-7.1-6.5-1.7-13.4-0.1l-49.7,11.1
		C1213.6,506.8,1205.7,493.9,1212.8,485.1z"/>
		<path
			fill="none"
			stroke="#3D3D3C"
			stroke-width="11"
			stroke-linecap="round"
			stroke-miterlimit="10"
			d="M1214.6,485.1l35.7-43.5
		c3.2-3.9,4.9-8.7,4.9-13.7v-49.4c0-7.9,6.4-14.3,14.3-14.3h390.5c7.6,0,13.7,6.1,13.7,13.7v100.2c0,7.5-4.2,12.7-13.3,12.6
		l-357,2.1l0,0l0,0l-27.3,0.1l-49.7,11.1C1215.4,506.8,1207.4,493.9,1214.6,485.1z"/>
		<text transform="matrix(1 0 0 1 1299.3291 446.9335)" fill="#3D3D3B" font-family="'FuturaStd-Bold'" font-size="45.4336">SANT ANDREU</text>
	</g>
	<g id="NOM_EIXAMPLE">
		<path
			opacity="0.4"
			fill="#FFFFFF"
			d="M1212.8,307.5l35.7-43.5c3.2-3.9,4.9-8.7,4.9-13.7V201c0-7.9,6.4-14.3,14.3-14.3h289.1
		c7.6,0,13.7,6.1,13.7,13.7v102.2c0,7.5-4.4,13-11.9,13h-257.2c-7.5,0-13.7,5.8-13.7-1.7l0,1.7c0-7.1-6.5-1.7-13.4-0.1l-49.7,11.1
		C1213.6,329.1,1205.7,316.2,1212.8,307.5z"/>
		<path
			fill="none"
			stroke="#3D3D3C"
			stroke-width="11"
			stroke-linecap="round"
			stroke-miterlimit="10"
			d="M1214.6,307.5l35.7-43.5
		c3.2-3.9,4.9-8.7,4.9-13.7V201c0-7.9,6.4-14.3,14.3-14.3h289.1c7.6,0,13.7,6.1,13.7,13.7v100.2c0,7.5-4.2,12.7-13.3,12.6
		l-255.6,2.1l0,0l0,0l-27.3,0.1l-49.7,11.1C1215.4,329.1,1207.4,316.2,1214.6,307.5z"/>
		<text transform="matrix(1 0 0 1 1299.3291 269.2782)" fill="#3D3D3B" font-family="'FuturaStd-Bold'" font-size="45.4336">EIXAMPLE</text>
	</g>
	<g id="NOM_NOU_BARRIS">
		<path
			opacity="0.4"
			fill="#FFFFFF"
			d="M1212.8,485.1l35.7-43.5c3.2-3.9,4.9-8.7,4.9-13.7v-49.4c0-7.9,6.4-14.3,14.3-14.3h359.2
		c7.6,0,13.7,6.1,13.7,13.7v102.2c0,7.5-4.4,13-11.9,13h-327.3c-7.5,0-13.7,5.8-13.7-1.7l0,1.7c0-7.1-6.5-1.7-13.4-0.1l-49.7,11.1
		C1213.6,506.8,1205.7,493.9,1212.8,485.1z"/>
		<path
			fill="none"
			stroke="#3D3D3C"
			stroke-width="11"
			stroke-linecap="round"
			stroke-miterlimit="10"
			d="M1214.6,485.1l35.7-43.5
		c3.2-3.9,4.9-8.7,4.9-13.7v-49.4c0-7.9,6.4-14.3,14.3-14.3h359.2c7.6,0,13.7,6.1,13.7,13.7v100.2c0,7.5-4.2,12.7-13.3,12.6
		l-325.7,2.1l0,0l0,0l-27.3,0.1l-49.7,11.1C1215.4,506.8,1207.4,493.9,1214.6,485.1z"/>
		<text transform="matrix(1 0 0 1 1299.3291 446.9335)" fill="#3D3D3B" font-family="'FuturaStd-Bold'" font-size="45.4336">NOU BARRIS</text>
	</g>
	<g id="PREGUNTA_CAST" display="none">
		<path
			display="inline"
			opacity="0.4"
			fill="#FFFFFF"
			d="M753.3,428.8l-35.7-43.5c-3.2-3.9-4.9-8.7-4.9-13.7v-49.4
		c0-7.9-6.4-14.3-14.3-14.3H172.8c-7.6,0-13.7,6.1-13.7,13.7v291.6c0,7.5,6,13.5,13.5,13.5h492c7.5,0,13.6-6.1,13.6-13.6V447.6
		c0-7.1,6.6-12.4,13.6-10.9l49.7,11.1C752.5,450.4,760.4,437.5,753.3,428.8z"/>
		<path
			display="inline"
			fill="none"
			stroke="#3D3D3C"
			stroke-width="11"
			stroke-miterlimit="10"
			d="M753.3,431.5L717.6,388
		c-3.2-3.9-4.9-8.7-4.9-13.7v-49.4c0-7.9-6.4-14.3-14.3-14.3H172.8c-7.6,0-13.7,6.1-13.7,13.7V616c0,7.5,6,13.5,13.5,13.5h492
		c7.5,0,13.6-6.1,13.6-13.6V450.3c0-7.1,6.6-12.4,13.6-10.9l49.7,11.1C752.5,453.1,760.4,440.2,753.3,431.5z"/>

		<line display="inline" fill="none" stroke="#3D3D3C" stroke-width="11" stroke-linecap="round" stroke-miterlimit="10" x1="193.4" y1="418.5" x2="335.3" y2="418.5"/>
		<rect x="187.5" y="346" display="inline" fill="none" width="486.9" height="258"/>
		<text transform="matrix(1 0 0 1 187.4713 389.3755)" display="inline">
			<tspan x="0" y="0" fill="#3D3D3B" font-family="'FuturaStd-Medium'" font-size="50">ME AYUDAS ?</tspan>
			<tspan x="0" y="157.2" fill="#3D3D3B" font-family="'FuturaStd-Bold'" font-size="41">DE QUE
			</tspan>
			<tspan x="0" y="206.4" fill="#3D3D3B" font-family="'FuturaStd-Bold'" font-size="41">DISTRITO SOY?</tspan>
		</text>
	</g>
	<g id="PREGUNTA_CAT">
		<path
			opacity="0.4"
			fill="#FFFFFF"
			d="M752.4,427.6l-35.7-43.5c-3.2-3.9-4.9-8.7-4.9-13.7v-49.4c0-7.9-6.4-14.3-14.3-14.3H172
		c-7.6,0-13.7,6.1-13.7,13.7v291.6c0,7.5,6,13.5,13.5,13.5h492c7.5,0,13.6-6.1,13.6-13.6V446.4c0-7.1,6.6-12.4,13.6-10.9l49.7,11.1
		C751.6,449.2,759.5,436.3,752.4,427.6z"/>
		<path
			fill="none"
			stroke="#3D3D3C"
			stroke-width="11"
			stroke-miterlimit="10"
			d="M752.4,430.3l-35.7-43.5
		c-3.2-3.9-4.9-8.7-4.9-13.7v-49.4c0-7.9-6.4-14.3-14.3-14.3H172c-7.6,0-13.7,6.1-13.7,13.7v291.6c0,7.5,6,13.5,13.5,13.5h492
		c7.5,0,13.6-6.1,13.6-13.6V449.1c0-7.1,6.6-12.4,13.6-10.9l49.7,11.1C751.6,451.9,759.5,439,752.4,430.3z"/>
		<rect x="187.5" y="346" fill="none" width="486.9" height="258"/>
		<text transform="matrix(1 0 0 1 187.4713 389.3755)">
			<tspan x="0" y="0" fill="#3D3D3B" font-family="'FuturaStd-Medium'" font-size="50">MAJUDES ?</tspan>
			<tspan x="0" y="157.2" fill="#3D3D3B" font-family="'FuturaStd-Bold'" font-size="41">DE QUIN</tspan>
			<tspan x="0" y="206.4" fill="#3D3D3B" font-family="'FuturaStd-Bold'" font-size="41">DISTRICTE SC?</tspan>
		</text>

		<line fill="none" stroke="#3D3D3C" stroke-width="11" stroke-linecap="round" stroke-miterlimit="10" x1="192.5" y1="417.3" x2="334.4" y2="417.3"/>
	</g>
</svg>
