<?xml version="1.0" encoding="utf-8"?>
<!-- Generator: Adobe Illustrator 18.0.0, SVG Export Plug-In . SVG Version: 6.00 Build 0)  -->
<!DOCTYPE svg PUBLIC "-//W3C//DTD SVG 1.1//EN" "http://www.w3.org/Graphics/SVG/1.1/DTD/svg11.dtd">
<svg version="1.1" xmlns="http://www.w3.org/2000/svg" xmlns:xlink="http://www.w3.org/1999/xlink" x="0px" y="0px" viewBox="0 0 1920.1 1081" enable-background="new 0 0 1920.1 1081" xml:space="preserve">
	<g id="FONS">
		<rect x="-1" y="-0.5" fill="#9ACDCD" width="1920.1" height="1080"/>
		<path fill="#F39669" d="M946.1,692.4c360.8,0,695.8,37.9,973.9,102.7V-0.5H-1v789.4C271.7,727.9,596.8,692.4,946.1,692.4z"/>
		<path opacity="0.6" fill="#E5E6E5" d="M1377.2,983l-320-984.7H871.7L551.7,983c-2.4,3.7-3.7,7.7-3.7,11.6
		c0,47.1,186.5,85.4,416.5,85.4s416.5-38.3,416.5-85.4C1380.9,990.6,1379.7,986.7,1377.2,983z"/>
	</g>
	<g id="AVATAR_RANDOM">
		<g id="SANT_MARTI">
			<g>
				<path
					fill="#3C3C3B"
					d="M874.1,513.1h-40.7c0,0-10.6-4.9,0-23.1c0,0-14-17.3-1.4-34.4c0,0-24.6-39.2-5.3-68.1
				c0,0-15.8-33.3,3.9-70.7c0,0-24.6-56.2,75.1-77.7c0,0,152-88.8,190.7,79.4c0,0,28.4,31.5,9.3,76.4c0,0,17.7,47.9,0,69.5
				c0,0,17.5,50.4-14.2,48.7l-38.6,0"/>
				<path fill="#FEDA97" d="M1055.9,889.9L1043.1,738H888l-10.7,151.9l63,8.3l9.6-123.2c0.4-5.1,5.9-9.2,12.2-9.2h8.8
				c6.3,0,11.8,4.1,12.2,9.2l9.8,123.2L1055.9,889.9z"/>
				<polyline fill="#3C3C3B" points="992.8,781.6 1055.8,773.3 1043,697.4 888,697.4 877.3,773.3 940.3,781.6 			"/>
				<g>
					<path
						fill="#FEDA97"
						d="M1041.5,529.3c-8.7-8.8-22.9-8.7-31.5,0c-8.6,8.8-8.6,22.7,0,31.4l4.5,4.5
					c11.1,11.2,22.2,22.4,33.1,33.8c10.8,11.3,21.7,22.7,31.7,34.2c2.5,2.8,4.9,5.7,7.2,8.4l0.3,0.4l-2.4,3.7
					c-8.3,12.1-18,24.5-27.7,36.6l-11.6,14.3l34.4,28.2l11.9-14.7c10.1-12.7,20-25.2,29.7-39.3l1.8-2.7l2.3-3.6
					c2-3.4,4.1-6.8,5.7-10.3c0.9-1.7,1.4-3.5,2.1-5.3c0.5-1.8,0.7-3.6,0.9-5.4l0.2-2.7l0-1.4c0-0.5-0.1-0.9-0.1-1.3
					c-0.4-1.8-0.8-3.5-1.3-5.3l-0.9-2.6c-0.3-0.9-0.5-1.7-1.1-2.6c-1-1.7-1.9-3.3-3-5l-3.5-4.8c-0.6-0.8-1.2-1.6-1.8-2.3l-1.6-1.9
					c-2.8-3.4-5.5-6.6-8.2-9.7c-10.9-12.4-22-24.1-33.1-35.7c-11.1-11.6-22.3-23-33.6-34.3L1041.5,529.3z"/>
				</g>
				<g>
					<path
						fill="#FEDA97"
						d="M891.8,529.3c8.7-8.8,22.9-8.7,31.5,0c8.6,8.8,8.6,22.7,0,31.4l-4.5,4.5c-11.1,11.2-22.2,22.4-33.1,33.8
					c-10.8,11.3-21.7,22.7-31.7,34.2c-2.5,2.8-4.9,5.7-7.2,8.4l-0.3,0.4l2.4,3.7c8.3,12.1,18,24.5,27.7,36.6l11.6,14.3l-34.4,28.2
					L842,710.1c-10.1-12.7-20-25.2-29.7-39.3l-1.8-2.7l-2.3-3.6c-2-3.4-4.1-6.8-5.7-10.3c-0.9-1.7-1.4-3.5-2.1-5.3
					c-0.5-1.8-0.7-3.6-0.9-5.4l-0.2-2.7l-0.1-1.4c0-0.5,0.2-0.9,0.2-1.4c0.4-1.8,0.8-3.5,1.3-5.3l0.9-2.6c0.3-0.9,0.5-1.7,1.1-2.6
					c1-1.7,1.9-3.3,3-5l3.5-4.8c0.6-0.8,1.2-1.6,1.8-2.3l1.6-1.9c2.8-3.4,5.5-6.6,8.2-9.7c10.9-12.4,22-24.1,33.1-35.7
					c11.1-11.6,22.3-23,33.6-34.3L891.8,529.3z"/>
				</g>
				<polygon fill="#531E54" points="940,905.4 871.1,905.4 871.1,893.9 877.8,883 943.3,860.1 			"/>
				<polygon fill="#531E54" points="992.7,905.4 1061.7,905.4 1061.7,893.9 1055.3,883.2 989.8,860.1 			"/>
				<g>
					<path fill="#F8FAFA" d="M1080.3,568c-11.1-11.6-22.3-23-33.6-34.3l-4.6-4.6c-8.7-8.8-22.9-8.7-31.5,0c-8.6,8.8-8.6,22.7,0,31.4
					l4.5,4.5c11.1,11.2,22.2,22.4,33.1,33.8"/>
					<path fill="#F8FAFA" d="M886.2,598.4c10.9-11.2,21.9-22.4,33-33.5l4.5-4.5c8.6-8.6,8.7-22.6,0.1-31.4
					c-8.6-8.8-22.7-8.8-31.5-0.1l-4.6,4.6c-11.2,11.2-22.4,22.5-33.5,34"/>
					<path fill="#F8FAFA" d="M1027,521.9c-14.7-3.3-37.3-7.2-60.8-7.2c-23.6,0-46.2,4-60.9,7.2c-9.3,2.1-16.7,11.9-16.7,21.4v154.9
					h155V543.4C1043.7,533.9,1036.3,524,1027,521.9z"/>
				</g>
				<path fill="#F8FAFA" d="M930.3,517.4c0,0,37.2,151.1,73.9,0.3C1004.2,517.7,968.2,505.9,930.3,517.4z"/>
				<path fill="#FEDA97" d="M1011.1,519.3c-12.9-2.2-28.5-4.4-44.5-4.4c-16,0-31.7,1.9-44.6,4.1l41.9,12c0.6,0.8,1.6,1.3,2.6,1.3l0,0
				c1,0,2-0.5,2.6-1.3L1011.1,519.3z"/>
				<path fill="#FEDA97" d="M998.3,500.2l2.4,17.2c0,0-14.6,17.9-34.1,17.9c-19.5,0-34.1-17.8-34.1-17.8l2.4-17.2H998.3z"/>
				<path fill="#FEDA97" d="M1077.4,727.4l2.1-2.6l-34-28.2l-2.1,2.6c-7.6,9.4-6.3,23.2,2.9,31.2
				C1055.6,738.3,1069.6,737,1077.4,727.4z"/>
				<path fill="#FEDA97" d="M889.8,699.3l-2-2.6l-34.6,27.4l2.1,2.7c7.6,9.8,21.5,11.4,31,3.7C895.7,722.7,897.2,708.9,889.8,699.3z"/>
				<path fill="#ACCCCE" d="M889.2,699.2"/>
				<path fill="#FEDA97" d="M893,705.2c-3.2,2.5-7.1,2.7-8.7,0.6c-1.7-2.2-0.4-5.9,2.7-8.4c3.2-2.5,7.1-2.7,8.7-0.6
				C897.4,699,896.2,702.7,893,705.2z"/>
				<path fill="#FEDA97" d="M1039.8,704.9c3.2,2.5,7.1,2.7,8.7,0.6c1.7-2.2,0.4-5.9-2.7-8.4c-3.2-2.5-7.1-2.7-8.7-0.6
				C1035.4,698.7,1036.6,702.4,1039.8,704.9z"/>
				<g>
					<ellipse fill="#F9C87A" cx="1073.3" cy="402.9" rx="20.1" ry="25.8"/>
					<ellipse fill="#FEDA97" cx="856.6" cy="402.9" rx="20.1" ry="25.8"/>
					<path fill="#FEDA97" d="M945.8,511.4c-48.5,0-87.9-39.8-87.9-88.9v-93.9c0-49.1,39.3-88.9,87.9-88.9h21.5v271.7H945.8z"/>
					<path fill="#F9C87A" d="M984.1,511.4c48.5,0,87.9-39.8,87.9-88.9v-93.9c0-49.1-39.3-88.9-87.9-88.9H965v271.7H984.1z"/>
				</g>
				<path fill="#27190E" d="M965,368.1"/>
				<line fill="none" x1="965" y1="368.1" x2="808.7" y2="368.1"/>
				<circle fill="#FEDA97" cx="967.1" cy="419.4" r="13.5"/>
				<path fill="#3C3C3B" stroke="#3C3C3B" stroke-width="4" stroke-miterlimit="10" d="M874.7,392.9c-0.4-7.4-14.4-5.3-14.4-5.3v-9.3
				l14.9-2.9"/>
				<path fill="#3C3C3B" stroke="#3C3C3B" stroke-width="4" stroke-miterlimit="10" d="M1058.6,392.9c0.4-7.4,18.3-11.6,18.3-11.6
				L1075,370l-15.2,5.5"/>
				<g>
					<polyline fill="#3C3C3B" stroke="#3C3C3B" stroke-width="4" stroke-miterlimit="10" points="956.4,385.2 967,385.2 966,385.2
					976.5,385.2 976.5,377.5 966,377.5 967,377.5 956.4,377.5 				"/>
				</g>
				<path fill="#3C3C3B" d="M840,359.3c0,0-27.5-99.4,62.7-130.2c0,0,142.7-108.3,177.8,132.6v30.6l-56.5-28.5
				c0,0-95.4-36.1-115.9-80.1c0,0,10.4,55.6-5.4,75.6c0,0-21.7,54.2-33.6,65.4C869.1,424.7,842.8,410.6,840,359.3z"/>
				<circle fill="#B57B35" stroke="#B57B35" stroke-width="0.5" stroke-miterlimit="10" cx="920.8" cy="427.8" r="1.6"/>
				<circle fill="#B57B35" stroke="#B57B35" stroke-width="0.5" stroke-miterlimit="10" cx="925" cy="438.5" r="1.6"/>
				<circle fill="#B57B35" stroke="#B57B35" stroke-width="0.5" stroke-miterlimit="10" cx="907.3" cy="429.4" r="1.6"/>
				<circle fill="#B57B35" stroke="#B57B35" stroke-width="0.5" stroke-miterlimit="10" cx="915.4" cy="435.2" r="1.6"/>
				<circle fill="#B57B35" stroke="#B57B35" stroke-width="0.5" stroke-miterlimit="10" cx="916.5" cy="445.4" r="1.6"/>
				<circle fill="#B57B35" stroke="#B57B35" stroke-width="0.5" stroke-miterlimit="10" cx="908.9" cy="451.8" r="1.6"/>
				<circle fill="#B57B35" stroke="#B57B35" stroke-width="0.5" stroke-miterlimit="10" cx="907.3" cy="440.1" r="1.6"/>
				<circle fill="#B57B35" stroke="#B57B35" stroke-width="0.5" stroke-miterlimit="10" cx="926.5" cy="448.5" r="1.6"/>
				<circle fill="#B57B35" stroke="#B57B35" stroke-width="0.5" stroke-miterlimit="10" cx="899.3" cy="435.2" r="1.6"/>
				<circle fill="#B57B35" stroke="#B57B35" stroke-width="0.5" stroke-miterlimit="10" cx="900.9" cy="444.9" r="1.6"/>
				<circle fill="#B57B35" stroke="#B57B35" stroke-width="0.5" stroke-miterlimit="10" cx="919.2" cy="454.5" r="1.6"/>
				<circle fill="#B57B35" stroke="#B57B35" stroke-width="0.5" stroke-miterlimit="10" cx="1009.1" cy="429" r="1.6"/>
				<circle fill="#B57B35" stroke="#B57B35" stroke-width="0.5" stroke-miterlimit="10" cx="1005" cy="439.7" r="1.6"/>
				<circle fill="#B57B35" stroke="#B57B35" stroke-width="0.5" stroke-miterlimit="10" cx="1022.6" cy="430.6" r="1.6"/>
				<circle fill="#B57B35" stroke="#B57B35" stroke-width="0.5" stroke-miterlimit="10" cx="1014.6" cy="436.5" r="1.6"/>
				<circle fill="#B57B35" stroke="#B57B35" stroke-width="0.5" stroke-miterlimit="10" cx="1013.5" cy="446.6" r="1.6"/>
				<circle fill="#B57B35" stroke="#B57B35" stroke-width="0.5" stroke-miterlimit="10" cx="1021" cy="453.1" r="1.6"/>
				<circle fill="#B57B35" stroke="#B57B35" stroke-width="0.5" stroke-miterlimit="10" cx="1022.6" cy="441.3" r="1.6"/>
				<circle fill="#B57B35" stroke="#B57B35" stroke-width="0.5" stroke-miterlimit="10" cx="1003.4" cy="449.8" r="1.6"/>
				<circle fill="#B57B35" stroke="#B57B35" stroke-width="0.5" stroke-miterlimit="10" cx="1030.6" cy="436.5" r="1.6"/>
				<circle fill="#B57B35" stroke="#B57B35" stroke-width="0.5" stroke-miterlimit="10" cx="1029" cy="446.1" r="1.6"/>
				<circle fill="#B57B35" stroke="#B57B35" stroke-width="0.5" stroke-miterlimit="10" cx="1010.7" cy="455.8" r="1.6"/>
				<path
					fill="#211520"
					d="M1096.6,253.4c-13.9-6.5-29.3-12.1-29.3-12.1s-3.5-19.5-8.9-31.6c-5.5-12.1-14.4-31.6-27.8-36.7
				c-20.9-7.9-65.6-7.9-65.6-7.9s-41.2,0-65.6,7.9c-13.7,4.4-22.3,24.6-27.8,36.7c-5.5,12.1-8.9,31.6-8.9,31.6s-15.4,5.6-29.3,12.1
				c-13.9,6.5-23.9,17.7-26.8,29.7c4.5,37.2,50.4,53,50.4,53s5.2-30.7,7.7-41.4c2.5-10.7,7.9-15.3,29.3-23.2
				c21.4-7.9,71-10.7,71-10.7s49.7,2.8,71,10.7c21.4,7.9,26.8,12.6,29.3,23.2c2.5,10.7,7.7,41.4,7.7,41.4s45.9-15.8,50.4-53
				C1120.5,271,1110.5,259.9,1096.6,253.4z"/>
				<path fill="#531E54" d="M1067.3,241.3c0,0-3.5-19.5-8.9-31.6c-5.5-12.1-14.4-31.6-27.8-36.7c-20.9-7.9-65.6-7.9-65.6-7.9
				s-41.2,0-65.6,7.9c-13.7,4.4-22.3,24.6-27.8,36.7c-5.5,12.1-8.9,31.6-8.9,31.6S970.6,212.3,1067.3,241.3z"/>
				<ellipse fill="none" stroke="#3C3C3B" stroke-width="4" stroke-miterlimit="10" cx="916.8" cy="384.2" rx="41.5" ry="42"/>
				<ellipse fill="none" stroke="#3C3C3B" stroke-width="4" stroke-miterlimit="10" cx="1018" cy="384.2" rx="41.5" ry="42"/>
			</g>
		</g>
		<g id="SERRIA_SANT_GERV">
			<g>
				<polyline fill="#FEDA97" points="1084.3,666.9 1129.3,600.6 1092.2,584 1050.3,639.9 			"/>
				<polyline fill="#FEDA97" points="847.8,673.5 806.6,608.5 844.3,590.8 881,646 			"/>
				<path fill="#D1D847" stroke="#D1D847" stroke-miterlimit="10" d="M1131.7,849.2"/>
				<path fill="#FEDA97" d="M1014.6,463.5c-12.9-1.9-28.5-3.5-44.5-3.1c-16,0.4-31.6,2.6-44.5,5.1l42.2,11c0.7,0.8,1.6,1.3,2.7,1.2
				l0,0c1,0,2-0.5,2.6-1.4L1014.6,463.5z"/>
				<path fill="#ACCCCE" d="M896.7,646.4"/>
				<path fill="#ACCCCE" d="M971.9,775.6"/>
				<path fill="#FEDA97" d="M1063.6,881.3l-17-187.9l-155,3.4l-6.5,188.4l63.2,8.9l6.2-152.8c0.3-6.3,5.6-11.6,11.9-11.7l8.8-0.2
				c6.3-0.1,11.9,4.9,12.5,11.2l13.1,152.4L1063.6,881.3z"/>
				<path fill="#3C3C3B" d="M950.4,788.5l-62,1.4l2.1-143.4l155-3.4l9.2,140.1l-35.3-28c-2.2-1.8-5.3-2-7.7-0.6l-57.3,32.9
				C953.2,788.1,951.8,788.5,950.4,788.5z"/>
				<path
					fill="#047A9A"
					d="M1123.3,609.6l3-4.3c2-3.4,3.8-5.6,5.3-9.2c0.9-1.8,1.4-3.6,2-5.3c0.4-1.8,0.7-3.6,0.8-5.4l0.2-2.7
				l0.1-1.4c0-0.5-0.2-0.9-0.3-1.4c-0.5-1.8-0.8-3.5-1.4-5.3l-1-2.6c-0.3-0.9-0.6-1.7-1.2-2.5c-1-1.6-2-3.3-3.1-4.9l-3.6-4.7
				c-0.6-0.8-1.2-1.6-1.8-2.3l-1.6-1.9c-2.8-3.4-5.6-6.4-8.5-9.5c-11.2-12.2-22.5-23.6-33.9-34.9c-11.4-11.3-22.8-22.5-34.3-33.6
				l-4.7-4.5c-8.9-8.6-23.1-8.2-31.5,0.7c-8.4,8.9-8.1,22.9,0.7,31.4l4.6,4.4c11.4,10.9,22.7,21.9,33.8,33
				c11.1,11.1,22.2,22.3,32.5,33.5c2.5,2.8,7.5,7.1,9.8,9.8l0,0l-2.4,3.9"/>
				<path
					fill="#047A9A"
					d="M842.2,593.1l2.5-1.7l2.4-2.3c2.2-2.8,4.6-5.7,7.1-8.6c9.8-11.5,20.4-23.1,31-34.5
				c10.6-11.5,21.4-22.9,32.2-34.2l4.4-4.6c8.4-8.8,8.2-22.8-0.6-31.4c-8.8-8.6-22.9-8.3-31.5,0.6l-4.5,4.7
				c-11,11.5-21.9,23-32.7,34.7c-10.8,11.7-21.6,23.5-32.2,36c-2.7,3.1-5.3,6.3-8,9.7l-2.6,3.3c-1.2,1.5-2.3,3.2-3.4,4.8l-1.7,2.4
				l-1.4,2.5c-0.9,1.7-2,3.3-2.4,5.1l-0.9,2.6l-0.6,2.6c-0.3,1.7-1,3.6-0.6,5.4c0.3,3.6,0.8,7.2,2.3,10.7c1.5,3.5,3.6,6.6,5.7,9.9
				c0.5,0.9,2,2.8,2.5,3.6l1.3,1.7"/>
				<path
					fill="#047A9A"
					stroke="#047A9A"
					stroke-miterlimit="10"
					d="M1024.2,466.4c-14.7-2.9-37.4-6.4-60.9-5.9
				c-10.8,0.2-30.7,3.2-44.9,5.6c-8.1,1.4-14.4,2.6-15.9,2.9c-9.2,2.3-16.4,12.3-16.2,21.8l3.4,154.9l155-3.4l-3.4-154.9
				C1041.1,478,1033.5,468.3,1024.2,466.4z"/>
				<path fill="#4AB2B4" d="M913.7,466l32,38.9l13.8-44.3C959.5,460.7,916.3,463.4,913.7,466z"/>
				<path fill="#4AB2B4" d="M1027.4,465.4l-30.3,38.4l-15.7-43.6C981.4,460.2,1024.6,463,1027.4,465.4z"/>
				<polygon fill="#4AB2B4" points="851.6,601.9 816.6,624.3 809.1,614.4 844.7,591.4 			"/>
				<polygon fill="#4AB2B4" points="1082.9,596.5 1116.3,619.7 1123.3,609.6 1089.4,586.1 			"/>
				<g>
					<path fill="#FEDA97" d="M1084.9,666.1l1.1-2l-33.8-26.8l-2.8,2c-7.4,9.5-5.8,23.4,3.6,31.1
					C1062.4,678.2,1077.4,675.9,1084.9,666.1z"/>
					<path fill="#FEDA97" d="M1044.3,644.2c3.2,2.4,7.1,2.6,8.8,0.4c1.6-2.2,0.3-6-2.9-8.4c-3.2-2.4-7.1-2.6-8.8-0.4
					C1039.8,638.1,1041.1,641.8,1044.3,644.2z"/>
				</g>
				<g>
					<path fill="#FEDA97" d="M882.1,645.6l-2.7-2l-33.3,25.3l1.7,4.6c7.8,9.6,22.2,11.2,31.4,3.3C888.5,668.9,889.7,655,882.1,645.6z
					"/>
					<path fill="#FEDA97" d="M886.8,650.8c-3.1,2.5-7,2.9-8.7,0.8c-1.7-2.1-0.6-5.9,2.6-8.5c3.1-2.5,7-2.9,8.7-0.8
					C891.1,644.5,889.9,648.3,886.8,650.8z"/>
				</g>
				<g>
					<polygon fill="#047A9A" points="948.4,905.3 879.5,905.3 879.2,893.8 884.9,883.1 948.8,883 				"/>
					<polygon fill="#047A9A" points="1001.1,905.3 1070,905.4 1069.8,892.3 1063.6,883 999.3,883 				"/>
				</g>
				<path fill="#4AB2B4" d="M1009.1,529.7l-6.4,0.1c-1.2,0-2.3-1-2.3-2.2l-0.1-4.1c0-1.2,1-2.3,2.2-2.3l6.4-0.1c1.2,0,2.3,1,2.3,2.2
				l0.1,4.1C1011.3,528.6,1010.3,529.6,1009.1,529.7z"/>
				<path fill="#FEDA97" d="M1001.4,445l2.8,17.2c0,0-14.2,18.2-33.7,18.6c-19.5,0.4-34.5-17.1-34.5-17.1l2-17.3L1001.4,445z"/>
				<circle fill="#FEDA97" cx="966.1" cy="356.7" r="10"/>
				<g>

					<ellipse transform="matrix(-0.9998 2.219987e-02 -2.219987e-02 -0.9998 1722.691 682.6508)" fill="#FEDA97" cx="857.6" cy="350.9" rx="20.1" ry="25.8"/>
					<path fill="#FEDA97" d="M950.1,457.3c-48.5,1.1-88.7-37.8-89.8-86.9l-2.1-93.9c-1.1-49.1,37.3-89.8,85.9-90.8l19.1-0.4l6,271.6
					L950.1,457.3z"/>

					<ellipse transform="matrix(0.9998 -2.220243e-02 2.220243e-02 0.9998 -7.419 23.9349)" fill="#F9C87A" cx="1074.2" cy="346.1" rx="20.1" ry="25.8"/>
					<path fill="#F9C87A" d="M987.4,456.5c48.5-1.1,86.9-41.7,85.9-90.8l-2.1-93.9c-1.1-49.1-41.3-88-89.8-86.9l-19.1,0.4l6,271.6
					L987.4,456.5z"/>
				</g>
				<circle fill="#FEDA97" cx="966.3" cy="366.7" r="13.5"/>
				<path
					fill="#631120"
					d="M1006.6,413.6C1006.6,413.6,1006.6,413.6,1006.6,413.6c0-0.1,0-0.1,0-0.2c0-0.1,0-0.2,0-0.3c0,0,0,0,0,0
				c0-0.1-0.1-0.1-0.1-0.2c-0.1-0.1-0.1-0.2-0.2-0.2c0,0,0,0,0-0.1c-0.7-0.4-16.2-8.9-28.8-8.6c-4.1,0.1-7.4,1.1-10,3
				c-2.6-1.8-6-2.7-10.1-2.6c-12.6,0.3-27.7,9.5-28.4,9.8c0,0,0,0,0,0.1c-0.1,0.1-0.1,0.1-0.2,0.2c0,0.1-0.1,0.1-0.1,0.2
				c0,0,0,0,0,0c0,0.1,0,0.2,0,0.3c0,0,0,0.1,0,0.1c0,0,0,0,0,0c0,0.2,0.1,0.3,0.2,0.4c0.2,0.2,17.1,16.3,39.8,15.8l0,0
				c13.3-0.3,26-6.2,37.7-17.5c0,0,0,0,0,0c0,0,0-0.1,0.1-0.1C1006.5,413.8,1006.5,413.7,1006.6,413.6z"/>
				<g id="path24826_11_">
					<g>
						<path
							id="XMLID_8_"
							fill="#3C3C3B"
							d="M886.4,425.8
						c-13.2-46.2-2.3-127.4,28.8-181.9l-0.1-0.3c14,30.5,74.8,53.8,106.8,53.1c1.8,0,3.6-0.3,5.3-0.6
						c12.3,22.8,38.9,133.2,38.9,133.2l10.5-27.1c0,0,35.2-83.2,1.3-155.2c-6.6-58.6-66.8-100.2-119.5-97.4l0,0
						c-17.6,0.9-35.2,6.9-51.3,19.1c-6.1,7.5-5.9,18.4-5.9,18.4c-67-11.5-62.9,106.7-60.9,119.3
						C840.5,306.6,810.5,392.9,886.4,425.8z"/>
					</g>
				</g>
				<g id="gafas_1_5_">
					<g>
						<path
							fill="#3C3C3B"
							d="M858.8,345.4c0,0,14.7-0.7,18.6,13.8c0,0,7.7,35.4,37.7,33.3c26.6,0.6,34.4-27.2,35.9-33.6
						c3.1-12.7,12.9-13.9,14.9-14c2.1,0,11.9,0.7,15.5,13.3c1.7,6.4,10.8,33.8,37.3,32c30,0.7,36.1-35,36.1-35
						c3.3-14.7,17.9-14.2,17.9-14.2l-0.3-13.3l-1.4,0.2c-1.6,0-12.2-0.3-15.8-13.7l0.4,1.4l-0.5-1.3c0,0-41.9-28-80.9,9.2l-8.9,0
						l-8.9,0.4c-40.7-35.4-81.2-5.6-81.2-5.6c-3,13.5-15.1,14.4-16.7,14.4 M946,359.4c0,0-5.1,26.5-30.1,26.1
						c-21.6,1.4-29.2-18.2-30.8-23.4l0,0l0,0c-0.2-0.8-0.4-1.3-0.4-1.3l0.4,1.3l0,0c-2.4-8.1-0.8-20.5-0.8-20.5s5.1-26.5,30.1-26.1
						c23.1-1.5,30.2,21.1,31.1,24.3l0,0c0,0,2.3,7.4,0.2,20.9L946,359.4z M965.5,345c0,0,0.1,0,0.3,0L965.5,345z M966,345
						c0.2,0,0.3,0,0.3,0L966,345z M1049.6,356.3c0,0-5.1,26.5-30.1,26.1c-21.6,1.4-29.2-18.2-30.8-23.4l0,0l0,0
						c-0.2-0.8-0.4-1.3-0.4-1.3l0.4,1.3l0,0c-2.4-8.1-0.8-20.5-0.8-20.5s5.1-26.5,30.1-26.1c23.1-1.5,30.2,21.2,31.1,24.3l0,0
						c0,0,2.3,7.4,0.2,20.9L1049.6,356.3z"/>
						<path fill="#3C3C3B" d="M859.8,332.8"/>
						<path fill="#3C3C3B" d="M964.4,323.6"/>
					</g>
				</g>
			</g>
		</g>
		<g id="CIUTAT_VELLA">
			<g>
				<path
					fill="#FBCC9A"
					d="M1043.7,521.4c-9-9-23.6-9-32.5,0c-8.9,9-8.9,23.5,0,32.4l4.7,4.7c11.5,11.5,22.9,23.2,34.1,34.9
				c11.2,11.7,22.4,23.5,32.7,35.3c2.5,2.9,5.1,5.9,7.4,8.7l0.3,0.4l-2.5,3.8c-8.6,12.4-18.6,25.3-28.6,37.8l-11.9,14.7l35.5,29.1
				l12.3-15.2c10.4-13.1,20.6-26,30.7-40.6l1.9-2.8l2.4-3.7c2.1-3.5,4.3-7,5.9-10.6c1-1.8,1.5-3.6,2.2-5.5c0.5-1.8,0.8-3.7,1-5.6
				l0.2-2.8l0.1-1.4c0-0.5-0.2-0.9-0.3-1.4c-0.5-1.9-0.8-3.6-1.3-5.5l-0.9-2.7c-0.3-0.9-0.6-1.8-1.1-2.6c-1-1.7-1.9-3.4-3.1-5.1
				l-3.6-4.9c-0.6-0.8-1.2-1.6-1.8-2.4l-1.6-2c-2.9-3.5-5.7-6.8-8.5-10c-11.3-12.8-22.7-24.8-34.1-36.8
				c-11.5-11.9-23-23.7-34.7-35.4L1043.7,521.4z"/>
				<path
					fill="#FBCC9A"
					d="M889.5,521.4c9-9,23.6-9,32.5,0c8.9,9,8.9,23.5,0,32.4l-4.7,4.7c-11.5,11.5-22.9,23.2-34.1,34.9
				c-11.2,11.7-22.4,23.5-32.7,35.3c-2.5,2.9-5.1,5.9-7.4,8.7l-0.3,0.4l2.5,3.8c8.6,12.4,18.6,25.3,28.6,37.8l11.9,14.7l-35.5,29.1
				L838,708c-10.4-13.1-20.6-26-30.7-40.6l-1.9-2.8l-2.4-3.7c-2.1-3.5-4.3-7-5.9-10.6c-1-1.8-1.5-3.6-2.2-5.5
				c-0.5-1.8-0.8-3.7-1-5.6l-0.2-2.8l-0.1-1.4c0-0.5,0.2-0.9,0.3-1.4c0.5-1.9,0.8-3.6,1.3-5.5l0.9-2.7c0.3-0.9,0.6-1.8,1.1-2.6
				c1-1.7,1.9-3.4,3.1-5.1l3.6-4.9c0.6-0.8,1.2-1.6,1.8-2.4l1.6-2c2.9-3.5,5.7-6.8,8.5-10c11.3-12.8,22.7-24.8,34.1-36.8
				c11.5-11.9,23-23.7,34.7-35.4L889.5,521.4z"/>
				<path fill="#968218" d="M1083.5,561.6c-11.5-11.9-23-23.7-34.7-35.4l-4.7-4.8c-9-9-23.6-9-32.5,0c-8.9,9-8.9,23.5,0,32.4l4.7,4.7
				c11.5,11.5,22.9,23.2,34.1,34.9"/>
				<path fill="#968218" d="M883.1,593c11.2-11.6,22.6-23.1,34-34.5l4.7-4.7c8.9-8.9,9-23.3,0.1-32.4c-8.9-9.1-23.5-9.1-32.5-0.1
				l-4.7,4.7c-11.6,11.6-23.1,23.2-34.6,35.1"/>
				<path fill="#968218" d="M1028.5,514.1c-15.1-3.4-38.4-7.5-62.7-7.5c-24.3,0-47.7,4.1-62.9,7.5c-9.6,2.1-17.2,12.3-17.2,22.1
				v159.9h160V536.2C1045.7,526.4,1038,516.2,1028.5,514.1z"/>
				<path fill="#FBCC9A" d="M1057.7,887.5l-13.2-194.3h-160l-11.1,194.3l65,10.6l9.9-157.5c0.4-6.5,6-11.8,12.6-11.8h9.1
				c6.5,0,12.2,5.3,12.6,11.8l10.1,157.5L1057.7,887.5z"/>
				<path fill="#3C3C3B" d="M1065.3,788.5l-20.8-95.2h-160l-16.7,96.5l81.8,5.9l-1.3-55c0.4-6.5,6-11.8,12.6-11.8h9.1
				c6.5,0,12.2,5.3,12.6,11.8l-1.4,55.1L1065.3,788.5z"/>
				<path fill="#FBCC9A" d="M1011.7,511.1c-13.3-2.3-29.4-4.5-45.9-4.5c-16.6,0-32.7,1.9-46,4.2l43.2,12.4c0.7,0.8,1.7,1.3,2.7,1.3
				l0,0c1.1,0,2.1-0.5,2.7-1.3L1011.7,511.1z"/>
				<path fill="#FBCC9A" d="M998.5,491.4l2.4,17.8c0,0-15.1,18.4-35.2,18.4c-20.1,0-35.2-18.4-35.2-18.4l2.5-17.8L998.5,491.4z"/>
				<path fill="#FBCC9A" d="M1081.1,725.4l2.2-2.7l-35-29.1l-2.1,2.6c-7.8,9.7-6.6,24,3,32.2C1058.6,736.7,1073,735.3,1081.1,725.4z"/>
				<path fill="#FBCC9A" d="M886.9,696.2l-2.1-2.7l-35.7,28.3l2.1,2.7c7.8,10.1,22.2,11.8,31.9,3.8
				C892.9,720.3,894.6,706,886.9,696.2z"/>
				<path fill="#ACCCCE" d="M885.8,696.8"/>
				<path fill="#FBCC9A" d="M890.2,702.2c-3.3,2.6-7.3,2.8-9,0.6c-1.7-2.2-0.4-6.1,2.8-8.7c3.3-2.6,7.3-2.8,9-0.6
				C894.8,695.8,893.5,699.7,890.2,702.2z"/>
				<path fill="#FBCC9A" d="M1042.6,702.2c3.3,2.6,7.3,2.8,9,0.6c1.7-2.2,0.4-6.1-2.8-8.7c-3.3-2.6-7.3-2.8-9-0.6
				C1038.1,695.8,1039.4,699.7,1042.6,702.2z"/>

				<ellipse transform="matrix(1 2.940567e-04 -2.940567e-04 1 0.115 -0.3164)" fill="#CC9966" cx="1075.9" cy="391.1" rx="20.7" ry="26.7"/>

				<ellipse transform="matrix(-1 -2.941211e-04 2.941211e-04 -1 1704.4291 782.2538)" fill="#FBCC9A" cx="852.3" cy="391" rx="20.7" ry="26.7"/>
				<path fill="#FBCC9A" d="M944.3,502.9c-50.1,0-90.6-41.1-90.6-91.8l0-96.9c0-50.7,40.6-91.7,90.7-91.7l22.2,0l-0.1,280.4
				L944.3,502.9z"/>
				<path fill="#CC9966" d="M983.8,502.9c50.1,0,90.7-41.1,90.7-91.7l0-96.9c0-50.7-40.6-91.8-90.6-91.8l-19.7,0l-0.1,280.4
				L983.8,502.9z"/>
				<path fill="#27190E" d="M964.1,355.1"/>
				<line fill="none" x1="964.1" y1="355.1" x2="802.8" y2="355.1"/>
				<circle fill="#FBCC9A" cx="966.3" cy="408" r="13.9"/>
				<path
					fill="#3C3C3B"
					d="M950.5,212.2c-1.3,0.4-4.1-0.5-5.4-0.6c-4.8-0.4-9.5-0.4-14.3-0.2c-6.7,0.3-13.4,1-20,2.3
				c-7.7,1.6-15.3,3.9-22.4,7.2c-7.9,3.6-15.2,8.4-21.6,14.3c-7.3,6.7-13.2,14.8-17.6,23.7c-5.5,11.1-8.7,23.2-10.4,35.4
				c-1.8,13.1-1.8,26.3-0.9,39.5c0.6,7.8,7.2,11.8,10,18.3c2.6,6,4.9,13.3,3.2,19.9c-2.1,8.2-4.7,23.4,5.8,27.3
				c-0.2,2.2-1.1,4.1-0.6,6.3c0.7,3.5,4.9,0.3,6.3-0.9c2.8-2.2,5.8-5.1,6.3-8.9c0.5-4.1-2.5-7.3-3.7-11c-0.6-1.9-1-3.8-1-5.8
				c-0.1-4.6,1.6-9.1,4.4-12.7c1.8-2.4,4.6-4.2,6.2-6.9c2-3.2,3.3-6.8,4.7-10.3c6.5-15.5,10.9-32.1,11.4-48.9
				c0.1-3.8,0-7.6-0.3-11.3c-0.2-1.9-0.4-3.8-0.7-5.7c-0.2-1.1-0.3-5.1-1.1-5.7c0,0,9.1,7.7,17.9,0c0,0,86.3,71.7,117,74.6
				c-1.7,6.8-3,13.8-4.1,20.7c-2.2,13.4-3.7,27.2-2.8,40.9c0.5,8.3,2.4,16.7,6.6,23.9c1.4,2.4,2.6,5,3.9,7.4
				c5.1,9.9,10.3,19.7,15.4,29.6c2,3.9,4.1,7.8,6.1,11.7c0.9,1.8,3.2,4.1,5.1,4.8c3.5,1.3,4.3-3.1,4.7-5.6c0.6-4.1,1-8,1.8-12.1
				c1.7-8,3.3-16,4.8-24.1c2.1-11.7,4-23.5,5.6-35.3c1.8-13.8,3.3-27.7,4.2-41.7c0.9-14.4,1.3-28.9,0.7-43.3
				c-0.6-13.5-0.8-26.3-3.9-39.5c-2.6-11.3-7.6-23.3-13.9-33.1c-0.6-0.9-1.2-1.9-1.9-2.8C1012.7,193.9,950.5,212.2,950.5,212.2z"/>
				<path fill="none" stroke="#3C3C3B" stroke-width="2" stroke-miterlimit="10" d="M955.6,426.8c0,0,10.5-26.5,20.2,0"/>
				<ellipse fill="#3C3C3B" stroke="#3C3C3B" stroke-width="0.5" stroke-miterlimit="10" cx="975.8" cy="426.8" rx="2.6" ry="2.7"/>
				<ellipse fill="#3C3C3B" stroke="#3C3C3B" stroke-width="0.5" stroke-miterlimit="10" cx="956.1" cy="426.8" rx="2.6" ry="2.7"/>
				<polygon fill="#968218" points="938.4,905.4 867.3,905.4 867.3,893.5 873.4,882.6 940.9,873.5 			"/>
				<polyline fill="#968218" points="873.4,882.6 859.6,846.1 904.1,836.5 902.3,887.4 			"/>
				<polygon fill="#968218" points="992.9,905.4 1064.1,905.4 1064.1,893.5 1058,882.6 990.5,873.5 			"/>
				<polyline fill="#968218" points="1058,882.6 1071.8,846.1 1027.3,836.5 1029.1,887.4 			"/>
				<path
					fill="#EACE04"
					stroke="#EACE04"
					stroke-miterlimit="10"
					d="M905.8,614.4c0.1-33.1,27.1-60.7,61-60.6
				c31.8,0.1,60.9,25.1,60.6,61.3c-0.2,35.9-29.5,60.5-60.3,60.6C933.4,675.8,905.7,648.5,905.8,614.4z M1025.4,614.6
				c0.1-32.6-26.9-58.9-58.6-58.8c-33.2,0.1-58.4,26.4-58.9,57.8c-0.5,35.2,28.1,59.7,57.9,59.9
				C999.3,673.9,1025.8,646.4,1025.4,614.6z"/>
				<path fill="#EACE04" stroke="#EACE04" stroke-miterlimit="10" d="M957.3,543.6h16.5l44.5,139.5h-18.8l-10.2-33.4h-47.8L931,683.1
				h-18.2L957.3,543.6z M982.7,628.1l-17.5-55.4l-17.3,55.4H982.7z"/>
			</g>
		</g>
		<g id="SANTS_MONTJUIC">
			<g>
				<path
					fill="#3C3C3B"
					d="M1057.6,633h40.7c0,0,10.6-7,0-33.1c0,0,14-24.8,1.4-49.3c0,0,24.6-56.1,5.3-97.5
				c0,0,15.8-47.6-3.9-101.3c0,0,30.4-99.4-69.3-130.2c0,0-157.7-108.3-196.5,132.6c0,0-28.4,45.1-9.3,109.4c0,0-17.7,68.6,0,99.5
				c0,0-17.5,72.2,14.2,69.8l38.6,0.1"/>
				<g>
					<polygon fill="#3C3E92" points="939.7,903.5 870.7,903.5 870.7,891.9 876.7,881.4 939.7,891.7 				"/>
					<polygon fill="#3C3E92" points="991.4,904.1 1060.5,905.4 1061.1,893.9 1055.2,881.5 992.3,889.8 				"/>
				</g>
				<polyline fill="#3C3C3B" points="992.2,891.8 1055.2,881.5 1042.4,693.2 887.4,693.2 876.6,881.5 939.7,891.8 			"/>
				<circle fill="#872812" cx="941" cy="877.3" r="6.9"/>
				<circle fill="#872812" cx="965.9" cy="877.3" r="6.9"/>
				<circle fill="#872812" cx="986.8" cy="870.4" r="6.9"/>
				<circle fill="#872812" cx="1002.1" cy="855.3" r="6.9"/>
				<circle fill="#872812" cx="1016" cy="833.8" r="6.9"/>
				<circle fill="#872812" cx="1022.9" cy="815.3" r="6.9"/>
				<circle fill="#872812" cx="1029.9" cy="792.5" r="6.9"/>
				<circle fill="#872812" cx="1034.6" cy="769.7" r="6.9"/>
				<g>
					<path
						fill="#3C3E92"
						d="M1041.9,526.8c-8.7-8.8-22.9-8.7-31.5,0c-8.6,8.8-8.6,22.7,0,31.4l4.5,4.5
					c11.1,11.2,22.2,22.4,33.1,33.8c10.8,11.3,21.7,22.7,31.7,34.2c2.5,2.8,4.9,5.7,7.2,8.4l0.3,0.4l-2.4,3.7
					c-8.3,12.1-18,24.5-27.7,36.6l-11.6,14.3l34.4,28.2l11.9-14.7c10.1-12.7,20-25.2,29.7-39.3l1.8-2.7l2.3-3.6
					c2-3.4,4.1-6.8,5.7-10.3c0.9-1.7,1.4-3.5,2.1-5.3c0.5-1.8,0.7-3.6,0.9-5.4l0.2-2.7l0.1-1.4c0-0.5-0.2-0.9-0.2-1.4
					c-0.4-1.8-0.8-3.5-1.3-5.3l-0.9-2.6c-0.3-0.9-0.5-1.7-1.1-2.6c-1-1.7-1.9-3.3-3-5l-3.5-4.8c-0.6-0.8-1.2-1.6-1.8-2.3l-1.6-1.9
					c-2.8-3.4-5.5-6.6-8.2-9.7c-10.9-12.4-22-24.1-33.1-35.7c-11.1-11.6-22.3-23-33.6-34.3L1041.9,526.8z"/>
					<path
						fill="#3C3E92"
						d="M923.5,558.1c8.6-8.6,8.7-22.6,0.1-31.4c-8.6-8.8-22.7-8.8-31.5-0.1l-4.6,4.6
					c-11.2,11.2-22.4,22.5-33.5,34c-11.1,11.5-22.1,23-33,35.3c-2.7,3.1-5.5,6.2-8.2,9.5l-2.6,3.2c-1.2,1.5-2.3,3.1-3.5,4.7
					l-1.7,2.4l-1.5,2.5c-1,1.6-2.1,3.3-2.5,5l-0.9,2.6l-0.6,2.6c-0.3,1.7-1.1,3.6-0.7,5.4c0.2,3.6,0.6,7.2,2.1,10.7
					c1.4,3.5,3.2,7,5.2,10.4c0.5,0.9,1,1.7,1.5,2.5l1.2,2l1.8,2.8c9.4,14.3,18.9,27,28.7,39.8l11.6,15l35-27.4l-11.2-14.5
					c-9.4-12.3-18.8-24.9-26.7-37l-1.8-2.8l1.1-1.4c2.3-2.8,4.7-5.6,7.3-8.4c10.1-11.3,20.9-22.6,31.7-33.9
					c10.9-11.2,21.9-22.4,33-33.5L923.5,558.1z"/>
					<path fill="#3C3E92" d="M1026.8,519.6c-14.7-3.3-37.3-7.2-60.8-7.2c-23.6,0-46.2,4-60.9,7.2c-9.3,2.1-16.7,11.9-16.7,21.4V696
					h155V541.1C1043.5,531.6,1036.1,521.7,1026.8,519.6z"/>
				</g>
				<g>
					<path fill="#FEDA97" d="M1011.3,515.9c-12.9-2.2-28.5-4.4-44.5-4.4c-16,0-31.7,1.9-44.6,4.1l41.9,12c0.6,0.8,1.6,1.3,2.6,1.3
					l0,0c1,0,2-0.5,2.6-1.3L1011.3,515.9z"/>
					<path fill="#FEDA97" d="M998.6,496.8l2.4,17.2c0,0-14.6,17.9-34.1,17.9c-19.5,0-34.1-17.8-34.1-17.8l2.4-17.2H998.6z"/>
					<path fill="#ACCCCE" d="M889.4,695.8"/>
					<g>
						<ellipse fill="#F9C87A" cx="1073.5" cy="399.6" rx="20.1" ry="25.8"/>
						<ellipse fill="#FEDA97" cx="856.8" cy="399.6" rx="20.1" ry="25.8"/>
						<path fill="#FEDA97" d="M946,508c-48.5,0-87.9-39.8-87.9-88.9v-93.9c0-49.1,39.3-88.9,87.9-88.9h21.5V508H946z"/>
						<path fill="#F9C87A" d="M984.3,508c48.5,0,87.9-39.8,87.9-88.9v-93.9c0-49.1-39.3-88.9-87.9-88.9h-19.1V508H984.3z"/>
					</g>
					<path fill="#27190E" d="M965.2,364.8"/>
					<line fill="none" x1="965.2" y1="364.8" x2="808.9" y2="364.8"/>
					<circle fill="#FEDA97" cx="967.3" cy="416" r="13.5"/>
					<path fill="#FEDA97" d="M1078.2,724.8l2.1-2.6l-34-28.2l-2.1,2.6c-7.6,9.4-6.3,23.2,2.9,31.2
					C1056.4,735.7,1070.4,734.4,1078.2,724.8z"/>
					<path fill="#FEDA97" d="M886.9,696l-2-2.6l-34.6,27.4l2.1,2.7c7.6,9.8,21.5,11.4,31,3.7C892.7,719.3,894.3,705.5,886.9,696z"/>
					<path fill="#FEDA97" d="M890,701.8c-3.2,2.5-7.1,2.7-8.7,0.6c-1.7-2.2-0.4-5.9,2.7-8.4c3.2-2.5,7.1-2.7,8.7-0.6
					C894.4,695.6,893.2,699.3,890,701.8z"/>
					<path fill="#FEDA97" d="M1041,702.3c3.2,2.5,7.1,2.7,8.7,0.6c1.7-2.2,0.4-5.9-2.7-8.4c-3.2-2.5-7.1-2.7-8.7-0.6
					C1036.6,696.1,1037.8,699.8,1041,702.3z"/>
				</g>
				<g>
					<g>
						<circle fill="#B57B35" stroke="#B57B35" stroke-width="0.5" stroke-miterlimit="10" cx="1009.4" cy="422.7" r="1.6"/>
						<circle fill="#B57B35" stroke="#B57B35" stroke-width="0.5" stroke-miterlimit="10" cx="1002.2" cy="434" r="1.6"/>
						<circle fill="#B57B35" stroke="#B57B35" stroke-width="0.5" stroke-miterlimit="10" cx="1023" cy="424.3" r="1.6"/>
						<circle fill="#B57B35" stroke="#B57B35" stroke-width="0.5" stroke-miterlimit="10" cx="1016.5" cy="434" r="1.6"/>
						<circle fill="#B57B35" stroke="#B57B35" stroke-width="0.5" stroke-miterlimit="10" cx="1018.1" cy="443.4" r="1.6"/>
						<circle fill="#B57B35" stroke="#B57B35" stroke-width="0.5" stroke-miterlimit="10" cx="1007.8" cy="447.4" r="1.6"/>
						<circle fill="#B57B35" stroke="#B57B35" stroke-width="0.5" stroke-miterlimit="10" cx="1026.2" cy="435.6" r="1.6"/>
						<circle fill="#B57B35" stroke="#B57B35" stroke-width="0.5" stroke-miterlimit="10" cx="1026.2" cy="444.2" r="1.6"/>
						<circle fill="#B57B35" stroke="#B57B35" stroke-width="0.5" stroke-miterlimit="10" cx="1034.3" cy="427.5" r="1.6"/>
						<circle fill="#B57B35" stroke="#B57B35" stroke-width="0.5" stroke-miterlimit="10" cx="1035.1" cy="437.2" r="1.6"/>
						<circle fill="#B57B35" stroke="#B57B35" stroke-width="0.5" stroke-miterlimit="10" cx="1035.1" cy="444.2" r="1.6"/>
					</g>
					<g>
						<circle fill="#B57B35" stroke="#B57B35" stroke-width="0.5" stroke-miterlimit="10" cx="921.1" cy="421.6" r="1.6"/>
						<circle fill="#B57B35" stroke="#B57B35" stroke-width="0.5" stroke-miterlimit="10" cx="928.2" cy="432.9" r="1.6"/>
						<circle fill="#B57B35" stroke="#B57B35" stroke-width="0.5" stroke-miterlimit="10" cx="907.5" cy="423.2" r="1.6"/>
						<circle fill="#B57B35" stroke="#B57B35" stroke-width="0.5" stroke-miterlimit="10" cx="914" cy="432.9" r="1.6"/>
						<circle fill="#B57B35" stroke="#B57B35" stroke-width="0.5" stroke-miterlimit="10" cx="912.3" cy="442.3" r="1.6"/>
						<circle fill="#B57B35" stroke="#B57B35" stroke-width="0.5" stroke-miterlimit="10" cx="922.7" cy="446.4" r="1.6"/>
						<circle fill="#B57B35" stroke="#B57B35" stroke-width="0.5" stroke-miterlimit="10" cx="904.2" cy="434.5" r="1.6"/>
						<circle fill="#B57B35" stroke="#B57B35" stroke-width="0.5" stroke-miterlimit="10" cx="904.2" cy="443.1" r="1.6"/>
						<circle fill="#B57B35" stroke="#B57B35" stroke-width="0.5" stroke-miterlimit="10" cx="896.1" cy="426.4" r="1.6"/>
						<circle fill="#B57B35" stroke="#B57B35" stroke-width="0.5" stroke-miterlimit="10" cx="895.3" cy="436.1" r="1.6"/>
						<circle fill="#B57B35" stroke="#B57B35" stroke-width="0.5" stroke-miterlimit="10" cx="895.3" cy="443.1" r="1.6"/>
					</g>
				</g>
				<g id="gafas6_10_">
					<g>
						<g>
							<path
								fill="#3C3C3B"
								d="M1074.6,367c0-0.7-0.4-1.2-1-1.3c-0.5-0.1-0.9-0.3-1.4-0.3c-6.7-1.1-13.4-2.2-20.2-2.7
							c-5.4-0.4-10.8-0.6-16.2-0.9c-10.4-0.5-20.8-0.3-31.2,1.1c-6.3,0.8-12.6,2-18.7,4.1c-3.1,1-6.1,2.3-9.2,3.3
							c-4.8,1.6-9.7,2.3-14.7,1.3c-3-0.6-6-1.5-8.9-2.5c-5.3-1.8-10.5-3.6-16-4.6c-10.6-2.1-21.3-3-31.3-2.9
							c-8.1,0-15.4,0.3-22.7,1.2c-6,0.8-11.9,1.6-17.9,2.4c-1.3,0.2-2.5,0.6-3.7,0.9c-0.7,0.2-1.1,0.6-1.1,1.4
							c-0.1,3.7-0.2,7.4-0.3,11.1c0,0.6,0.1,1.1,0.2,1.7c0.1,0.5,0.3,0.8,0.7,1c0.5,0.2,0.9,0.4,1.3,0.7c2,1.4,2.9,3.6,3.6,5.9
							c0.5,1.6,0.9,3.3,1.3,4.9c0.3,1,0.6,2,0.9,3.1c1,4.8,2,9.7,3.1,14.5c1,4.6,2.3,9.1,4.4,13.3c2.3,4.7,5.7,8.3,10.4,10.4
							c2.9,1.3,5.8,2.1,8.9,2.6c5.5,0.9,11,1,16.5,0.6c5.6-0.4,11.1-1.3,16.5-3c4-1.3,7.8-3,11-5.9c4.9-4.4,8.8-9.6,11.8-15.6
							c3-6,5.1-12.3,7-18.8c0.5-1.8,1.1-3.7,1.7-5.5c0.9-2.7,2.8-4.3,5.5-4.8c0.9-0.1,1.8-0.2,2.6-0.1c2,0.1,4,0.6,5.3,2.4
							c0.6,0.8,1.1,1.6,1.5,2.5c0.7,1.8,1.4,3.6,2,5.4c2.4,8,5.5,15.5,9.6,22.7c3.3,6,7.7,10.8,13.5,14.1c4.1,2.4,8.5,3.9,13.1,4.8
							c6.9,1.4,13.8,1.7,20.8,1.4c4.2-0.2,8.4-0.8,12.5-2c4.2-1.3,7.8-3.5,10.6-7.1c1.8-2.4,3.1-5,4.2-7.8
							c2.3-5.8,3.7-11.9,5.1-18.1c0.6-3,1.3-6,2-9c0.4-1.6,0.8-3.1,1.2-4.7c0.4-1.5,0.7-2.9,1.6-4.2c0.9-1.3,1.8-2.5,3.2-3
							c0.6-0.2,1-0.7,1.1-1.3c0.1-0.5,0.2-1,0.2-1.5c0-2.2,0-4.4-0.1-6.6C1074.9,370.2,1074.7,368.6,1074.6,367 M948.7,397.4
							c-1.4,6.5-3.8,12.5-7,18.3c-1.7,3.1-3.7,6.1-6.2,8.6c-3.3,3.3-7.3,5.3-11.6,6.5c-8.8,2.4-17.8,3-26.8,1.6
							c-1.8-0.3-3.5-0.8-5.3-1.2c-3.6-1-6.3-3.2-8.4-6.4c-2.3-3.6-3.7-7.5-4.6-11.7c-1.2-5.4-1.9-11-2.4-16.5
							c-0.3-3.2-0.2-6.4,0.1-9.6c0.2-1.6,0.3-3.3,0.7-4.8c1.2-5.6,4.5-9.2,9.8-10.7c4.8-1.3,9.8-2.1,14.8-2.6
							c3.7-0.3,7.4-0.5,9.8-0.6c8.5,0.1,15.6,0.7,22.7,2.4c2.9,0.7,5.8,1.3,8.4,2.8c1.3,0.7,2.5,1.6,3.7,2.6
							c1.9,1.6,2.8,3.8,3.2,6.3C950.3,387.4,949.8,392.4,948.7,397.4 M1058.8,395c-0.2,7.8-1.4,15.4-4.1,22.8
							c-1.1,3-2.5,5.7-4.7,7.9c-2.4,2.5-5.5,3.8-8.7,4.7c-4,1.2-8.2,1.4-12.3,1.5c-6.3,0.1-12.5-0.8-18.6-2.1
							c-6.1-1.4-10.9-4.7-14.8-9.8c-4.9-6.5-8.1-13.9-9.9-22c-0.8-3.7-1.5-7.5-1.4-11.4c0-1.7,0.2-3.3,0.5-5
							c0.7-4.1,3.1-6.7,6.7-8.3c3.6-1.5,7.4-2.5,11.2-3.3c4.2-0.9,8.5-1.5,12.8-1.8c3.4-0.2,6.7-0.3,9-0.4c9,0.5,16.9,1.2,24.5,3.5
							c1.4,0.4,2.8,1.1,4.1,1.8c1.3,0.6,2.2,1.6,2.9,3c0.7,1.5,1.4,2.9,1.9,4.4c0.6,1.8,0.8,3.7,0.8,5.6
							C1058.7,389.1,1058.8,392.1,1058.8,395 M1065.9,374"/>
						</g>
					</g>
				</g>
				<path fill="#3C3C3B" d="M1102.5,361c0,0,30.4-99.4-69.3-130.2c0,0-157.7-108.3-196.5,132.6V394l62.5-28.5
				c0,0,105.5-36.1,128.1-80.1c0,0-11.5,55.6,5.9,75.6c0,0,24,54.2,37.1,65.4C1070.4,426.4,1099.5,412.2,1102.5,361z"/>
			</g>
		</g>
		<g id="LES_CORTS">
			<g>
				<g>
					<path
						fill="#3C3C3B"
						d="M1060.2,586.1c23.3-50.6,90-267.4-2.1-344.2c-0.1-0.1-0.3-0.2-0.4-0.3c-5.7-3.8-11.8-7.1-17.9-10.2
					c-12.6-6.5-26-11.9-39.8-15.9c-16.5-4.8-34-7.6-51.4-6.7c-19.2,1.1-37.6,7-52.9,17.6c-20.7,14.3-34.5,35.3-44.2,56.9
					c-8.1,18.1-13.6,37.2-17.5,56.4c-2,9.5-1.4,19.5-1.5,29.2c-0.1,10.3,0,20.7,0.2,31c0.6,39.4,2.6,78.9,7.5,118.1
					c3,23.8,6.8,47.7,13.4,71"/>
				</g>
				<g>
					<g>
						<path
							fill="#FEDA97"
							d="M1041.3,527.6c-8.7-8.8-22.9-8.7-31.5,0c-8.6,8.8-8.6,22.7,0,31.4l4.5,4.5
						c11.1,11.2,22.2,22.4,33.1,33.8c10.8,11.3,21.7,22.7,31.7,34.2c2.5,2.8,4.9,5.7,7.2,8.4l0.3,0.4l-2.4,3.7
						c-8.3,12.1-18,24.5-27.7,36.6l-11.6,14.3l34.4,28.2l11.9-14.7c10.1-12.7,20-25.2,29.7-39.3l1.8-2.7l2.3-3.6
						c2-3.4,4.1-6.8,5.7-10.3c0.9-1.7,1.4-3.5,2.1-5.3c0.5-1.8,0.7-3.6,0.9-5.4l0.2-2.7l0.1-1.4c0-0.5-0.2-0.9-0.2-1.4
						c-0.4-1.8-0.8-3.5-1.3-5.3l-0.9-2.6c-0.3-0.9-0.5-1.7-1.1-2.6c-1-1.7-1.9-3.3-3-5l-3.5-4.8c-0.6-0.8-1.2-1.6-1.8-2.3l-1.6-1.9
						c-2.8-3.4-5.5-6.6-8.2-9.7c-10.9-12.4-22-24.1-33.1-35.7c-11.1-11.6-22.3-23-33.6-34.3L1041.3,527.6z"/>
					</g>
					<g>
						<path
							fill="#FEDA97"
							d="M891.9,527.6c8.7-8.8,22.9-8.7,31.5,0c8.6,8.8,8.6,22.7,0,31.4l-4.5,4.5
						c-11.1,11.2-22.2,22.4-33.1,33.8c-10.8,11.3-21.7,22.7-31.7,34.2c-2.5,2.8-4.9,5.7-7.2,8.4l-0.3,0.4l2.4,3.7
						c8.3,12.1,18,24.5,27.7,36.6l11.6,14.3l-34.4,28.2L842,708.4c-10.1-12.7-20-25.2-29.7-39.3l-1.8-2.7l-2.3-3.6
						c-2-3.4-4.1-6.8-5.7-10.3c-0.9-1.7-1.4-3.5-2.1-5.3c-0.5-1.8-0.7-3.6-0.9-5.4l-0.2-2.7l-0.1-1.4c0-0.5,0.2-0.9,0.2-1.4
						c0.4-1.8,0.8-3.5,1.3-5.3l0.9-2.6c0.3-0.9,0.5-1.7,1.1-2.6c1-1.7,1.9-3.3,3-5l3.5-4.8c0.6-0.8,1.2-1.6,1.8-2.3l1.6-1.9
						c2.8-3.4,5.5-6.6,8.2-9.7c10.9-12.4,22-24.1,33.1-35.7c11.1-11.6,22.3-23,33.6-34.3L891.9,527.6z"/>
					</g>
				</g>
				<g>
					<path fill="#FEDA97" d="M1055.7,882.3l-12.8-188.2h-155l-10.7,188.2l63,10.3l9.6-152.6c0.4-6.3,5.9-11.5,12.2-11.5h8.8
					c6.3,0,11.8,5.1,12.2,11.4l9.8,152.6L1055.7,882.3z"/>
				</g>
				<path fill="#FEDA97" d="M1011.1,517.6c-12.9-2.2-28.5-4.4-44.5-4.4c-16,0-31.7,1.9-44.6,4.1l41.9,12c0.6,0.8,1.6,1.3,2.6,1.3l0,0
				c1,0,2-0.5,2.6-1.3L1011.1,517.6z"/>
				<path fill="#FEDA97" d="M998.3,498.5l2.4,17.2c0,0-14.6,17.9-34.1,17.9c-19.5,0-34.1-17.8-34.1-17.8l2.4-17.2H998.3z"/>
				<path fill="#FEDA97" d="M1077.1,725.7l2.1-2.6l-34-28.2l-2.1,2.6c-7.6,9.4-6.3,23.2,2.9,31.2
				C1055.3,736.6,1069.3,735.3,1077.1,725.7z"/>
				<path fill="#FEDA97" d="M889.9,697.6l-2-2.6l-34.6,27.4l2.1,2.7c7.6,9.8,21.5,11.4,31,3.7C895.7,721,897.3,707.1,889.9,697.6z"/>
				<path fill="#ACCCCE" d="M889.2,697.5"/>
				<path fill="#FEDA97" d="M893.1,703.5c-3.2,2.5-7.1,2.7-8.7,0.6c-1.7-2.2-0.4-5.9,2.7-8.4c3.2-2.5,7.1-2.7,8.7-0.6
				C897.5,697.2,896.2,701,893.1,703.5z"/>
				<path fill="#FEDA97" d="M1039.8,703.2c3.2,2.5,7.1,2.7,8.7,0.6s0.4-5.9-2.7-8.4c-3.2-2.5-7.1-2.7-8.7-0.6
				C1035.4,696.9,1036.6,700.7,1039.8,703.2z"/>
				<g>
					<ellipse fill="#F9C87A" cx="1073.3" cy="401.2" rx="20.1" ry="25.8"/>
					<ellipse fill="#FEDA97" cx="856.6" cy="401.2" rx="20.1" ry="25.8"/>
					<path fill="#FEDA97" d="M945.8,509.7c-48.5,0-87.9-39.8-87.9-88.9v-93.9c0-49.1,39.3-88.9,87.9-88.9h21.5v271.7H945.8z"/>
					<path fill="#F9C87A" d="M984.1,509.7c48.5,0,87.9-39.8,87.9-88.9v-93.9c0-49.1-39.3-88.9-87.9-88.9H965v271.7H984.1z"/>
				</g>
				<path fill="#27190E" d="M965,366.4"/>
				<circle fill="#FEDA97" cx="967.1" cy="417.7" r="13.5"/>
				<g>
					<g>
						<g>
							<path
								fill="#3C3E92"
								d="M1120.5,612.3c-0.6-0.8-1.2-1.6-1.8-2.3l-1.6-1.9c-2.8-3.4-5.5-6.6-8.2-9.7
							c-10.9-12.4-22-24.1-33.1-35.7c-11.1-11.6-22.3-23-33.6-34.3l-4.6-4.6c-8.7-8.8-22.9-8.7-31.5,0c-8.6,8.8-8.6,22.7,0,31.4
							l4.5,4.5c11.1,11.2,22.2,22.4,33.1,33.8"/>
							<path fill="#3C3E92" d="M1041.3,691"/>
							<path fill="#3C3E92" d="M881.8,593.1c10.9-11.2,21.9-22.4,33-33.5l4.5-4.5c8.6-8.6,8.7-22.6,0.1-31.4
							c-8.6-8.8-22.7-8.8-31.5-0.1l-4.6,4.6c-11.2,11.2-22.4,22.5-33.5,34c-11.1,11.5-22.1,23-33,35.3"/>
							<path fill="#3C3E92" d="M1022.6,516.6c-14.7-3.3-37.3-7.2-60.8-7.2c-23.6,0-46.2,4-60.9,7.2c-9.3,2.1-16.7,11.9-16.7,21.4
							v154.9h155V538C1039.3,528.5,1031.9,518.6,1022.6,516.6z"/>
						</g>
						<polyline fill="#3C3E92" points="884.2,692.9 847.7,847.9 1092.5,847.9 1039.3,692.9 					"/>
					</g>
				</g>
				<g>
					<g>
						<polygon fill="#3C3C3B" points="940.2,905.4 871.2,905.4 871.2,893.9 877.2,883.3 940.2,893.6 					"/>
						<polygon fill="#3C3C3B" points="992.7,905.4 1061.7,905.4 1061.7,893.9 1055.7,883.3 992.7,893.6 					"/>
					</g>
					<polyline fill="#3C3C3B" points="877.2,885.2 867.3,856.8 897.7,856.8 893.8,887.9 				"/>
					<polyline fill="#3C3C3B" points="1055.6,885.2 1065.5,856.8 1035.1,856.8 1039,887.9 				"/>
				</g>
				<g>
					<path fill="none" stroke="#3C3C3B" stroke-width="4" stroke-miterlimit="10" d="M942,399.9H873c-4.2,0-7.6-3.4-7.6-7.6v-13.8
					c0-4.2,3.4-7.6,7.6-7.6H942c4.2,0,7.6,3.4,7.6,7.6v13.8C949.5,396.5,946.1,399.9,942,399.9z"/>
					<path fill="none" stroke="#3C3C3B" stroke-width="4" stroke-miterlimit="10" d="M1044,399.9h-64.7c-4.2,0-7.6-3.4-7.6-7.6v-13.8
					c0-4.2,3.4-7.6,7.6-7.6h64.7c4.2,0,7.6,3.4,7.6,7.6v13.8C1051.6,396.5,1048.1,399.9,1044,399.9z"/>
					<line fill="none" stroke="#3C3C3B" stroke-width="4" stroke-miterlimit="10" x1="949.5" y1="385.4" x2="971.7" y2="385.4"/>
					<line fill="none" stroke="#3C3C3B" stroke-width="4" stroke-miterlimit="10" x1="1051.6" y1="385.4" x2="1067" y2="385.4"/>
				</g>
				<g>
					<circle fill="#E9C6E0" stroke="#E9C6E0" stroke-width="0.5" stroke-miterlimit="10" cx="1017.8" cy="427.5" r="20.3"/>
					<circle fill="#E9C6E0" stroke="#E9C6E0" stroke-width="0.5" stroke-miterlimit="10" cx="905.7" cy="427.5" r="20.3"/>
				</g>
				<g>
					<path
						fill="#3C3C3B"
						d="M1051.3,241.7c-5.2-3.8-10.8-7.1-16.4-10.2c-11.6-6.5-23.7-11.9-36.3-15.9c-15.1-4.8-31.1-7.6-47-6.7
					c-17.5,1.1-34.3,7-48.4,17.6c-18.9,14.3-31.6,35.3-40.4,56.9c-7.4,18.1-12.4,37.2-16,56.4c-1.8,9.5-1.3,19.5-1.3,29.2
					c-0.1,10.3,6.6-90.2,6.7-79.9c0.5,39.4,2.4,78.9,6.8,118.1c2.7,23.8,6.2,47.7,12.2,71c1,3.8,6.3,3.9,7.4,0.2
					c13-44.1,47.7-84.1,37.4-190.4c-0.3-3.5,3.8-5.6,6.4-3.2c21.7,20.2,93.6,70.7,117.6,79.6c1.7,0.6,2.7,2.3,2.4,4.1
					c-3.2,22.9-21.1,88.5-11.7,142.2c0.7,3.8,5.8,4.3,7.3,0.8c17.8-42.3,60.5-69.4,41.4-189.9c-3.8-23.8-19.5-47.4-27.8-79.6
					C1051.6,241.8,1051.4,241.8,1051.3,241.7z"/>
				</g>
			</g>
		</g>
		<g id="GRACIA">
			<g>
				<path fill="#FEDA97" d="M887.1,687.3l-2-2.6l-34.6,27.4l2.1,2.7c7.6,9.8,21.5,11.4,31,3.7C893,710.7,894.5,696.8,887.1,687.3z"/>
				<path fill="#FEDA97" d="M890.3,693.2c-3.2,2.5-7.1,2.7-8.7,0.6c-1.7-2.2-0.4-5.9,2.7-8.4c3.2-2.5,7.1-2.7,8.7-0.6
				C894.7,686.9,893.5,690.7,890.3,693.2z"/>
				<g>
					<polygon fill="#6D8028" points="932.8,905.4 863.9,905.4 863.9,893.9 869.8,883.3 932.8,893.6 				"/>
					<polygon fill="#6D8028" points="985.4,905.4 1054.3,905.4 1054.3,893.9 1048.4,883.3 985.4,893.6 				"/>
				</g>
				<path fill="#8E888C" d="M905.1,513.9c0,0,65.5-80.9,121.7,0L905.1,513.9z"/>
				<g>
					<path fill="#FEDA97" d="M1010.4,508.3c-12.9-2.2-28.5-4.4-44.5-4.4c-16,0-31.7,1.9-44.6,4.1l41.9,12c0.6,0.8,1.6,1.3,2.6,1.3
					l0,0c1,0,2-0.5,2.6-1.3L1010.4,508.3z"/>
					<path fill="#FEDA97" d="M997.6,489.2l2.4,17.2c0,0-14.6,17.9-34.1,17.9c-19.5,0-34.1-17.8-34.1-17.8l2.4-17.2H997.6z"/>
					<path fill="#ACCCCE" d="M888.5,688.2"/>
					<g>
						<ellipse fill="#F9C87A" cx="1072.5" cy="391.9" rx="20.1" ry="25.8"/>
						<ellipse fill="#FEDA97" cx="855.9" cy="391.9" rx="20.1" ry="25.8"/>
						<path fill="#FEDA97" d="M945.1,500.4c-48.5,0-87.9-39.8-87.9-88.9v-93.9c0-49.1,39.3-88.9,87.9-88.9h21.5v271.7H945.1z"/>
						<path fill="#F9C87A" d="M983.3,500.4c48.5,0,87.9-39.8,87.9-88.9v-93.9c0-49.1-39.3-88.9-87.9-88.9h-19.1v271.7H983.3z"/>
					</g>
					<path fill="#27190E" d="M964.3,357.1"/>
					<line fill="none" x1="964.3" y1="357.1" x2="807.9" y2="357.1"/>
					<circle fill="#FEDA97" cx="966.4" cy="408.4" r="13.5"/>
				</g>
				<g>
					<path
						fill="#6D8028"
						d="M1041.9,517.3c-8.7-8.8-22.9-8.7-31.5,0c-8.6,8.8-8.6,22.7,0,31.4l4.5,4.5
					c11.1,11.2,22.2,22.4,33.1,33.8c10.8,11.3,21.7,22.7,31.7,34.2c2.5,2.8,4.9,5.7,7.2,8.4l0.3,0.4l-2.4,3.7
					c-8.3,12.1-18,24.5-27.7,36.6l-11.6,14.3l34.4,28.2l11.9-14.7c10.1-12.7,20-25.2,29.7-39.3l1.8-2.7l2.3-3.6
					c2-3.4,4.1-6.8,5.7-10.3c0.9-1.7,1.4-3.5,2.1-5.3c0.5-1.8,0.7-3.6,0.9-5.4l0.2-2.7l0.1-1.4c0-0.5-0.2-0.9-0.2-1.4
					c-0.4-1.8-0.8-3.5-1.3-5.3l-0.9-2.6c-0.3-0.9-0.5-1.7-1.1-2.6c-1-1.7-1.9-3.3-3-5l-3.5-4.8c-0.6-0.8-1.2-1.6-1.8-2.3l-1.6-1.9
					c-2.8-3.4-5.5-6.6-8.2-9.7c-10.9-12.4-22-24.1-33.1-35.7c-11.1-11.6-22.3-23-33.6-34.3L1041.9,517.3z"/>
					<path
						fill="#6D8028"
						d="M923.5,548.6c8.6-8.6,8.7-22.6,0.1-31.4c-8.6-8.8-22.7-8.8-31.5-0.1l-4.6,4.6
					c-11.2,11.2-22.4,22.5-33.5,34c-11.1,11.5-22.1,23-33,35.3c-2.7,3.1-5.5,6.2-8.2,9.5l-2.6,3.2c-1.2,1.5-2.3,3.1-3.5,4.7
					l-1.7,2.4l-1.5,2.5c-1,1.6-2.1,3.3-2.5,5l-0.9,2.6l-0.6,2.6c-0.3,1.7-1.1,3.6-0.7,5.4c0.2,3.6,0.6,7.2,2.1,10.7
					c1.4,3.5,3.2,7,5.2,10.4c0.5,0.9,1,1.7,1.5,2.5l1.2,2l1.8,2.8c9.4,14.3,18.9,27,28.7,39.8l11.6,15l35-27.4L874.3,670
					c-9.4-12.3-18.8-24.9-26.7-37l-1.8-2.8l1.1-1.4c2.3-2.8,4.7-5.6,7.3-8.4c10.1-11.3,20.9-22.6,31.7-33.9
					c10.9-11.2,21.9-22.4,33-33.5L923.5,548.6z"/>
					<path fill="#6D8028" d="M1026.8,510.1c-14.7-3.3-37.3-7.2-60.8-7.2c-23.6,0-46.2,4-60.9,7.2c-9.3,2.1-16.7,11.9-16.7,21.4v154.9
					h155V531.6C1043.5,522.1,1036.1,512.2,1026.8,510.1z"/>
				</g>
				<g>
					<g>
						<path
							fill="#8E888C"
							d="M906.6,510.2c-0.3,4.2,2.1,7.1,4.8,10c2.8,3.2,5.1,6.3,6.7,10.2c0.9,2.2,1.4,4.7,1.1,7
						c-0.2,1.5-2,3.3-2.9,4.5c-6.7,9.1,1,20.6,7,27.5c0.5,0.6,1.4-0.3,0.9-0.9c-4.6-5.2-8.6-10.7-9-17.8c-0.4-6.1,4.7-8.9,5.5-14.3
						c0.5-3.6-1.8-7.8-3.4-10.8c-2.8-5.2-9.7-8.9-9.3-15.4C907.9,509.4,906.7,509.4,906.6,510.2L906.6,510.2z"/>
					</g>
				</g>
				<g>
					<g>
						<path
							fill="#8E888C"
							d="M1023.8,510.2c0.4,5.8-5.3,9.7-8.4,14c-2.5,3.5-4.1,7.8-4.3,12.1c-0.1,1.6,0.8,2.9,1.6,4.1
						c1.9,3,3.5,5.1,3.9,8.9c0.8,7.4-4.4,14.1-9,19.3c-0.5,0.6,0.3,1.5,0.9,0.9c6.4-7.3,12.2-16.4,7.8-26.2
						c-0.6-1.3-1.6-2.4-2.4-3.5c-1.9-2.4-1.4-5-0.6-7.8c1.1-4,3.5-7.6,6.2-10.7c2.9-3.3,6.1-6.4,5.8-11.1
						C1025,509.4,1023.7,509.4,1023.8,510.2L1023.8,510.2z"/>
					</g>
				</g>
				<g>
					<g>
						<path
							fill="#6D8028"
							d="M1072.9,357c0-0.7-0.4-1.2-1-1.3c-0.5-0.1-0.9-0.3-1.4-0.3c-6.7-1.1-13.4-2.2-20.2-2.7
						c-5.4-0.4-10.8-0.6-16.2-0.9c-10.4-0.5-20.8-0.3-31.2,1.1c-6.3,0.8-12.6,2-18.7,4.1c-3.1,1-6.1,2.3-9.2,3.3
						c-4.8,1.6-9.7,2.3-14.7,1.3c-3-0.6-6-1.5-8.9-2.5c-5.3-1.8-10.5-3.6-16-4.6c-10.6-2.1-21.3-3-31.3-2.9
						c-8.1,0-15.4,0.3-22.7,1.2c-6,0.8-11.9,1.6-17.9,2.4c-1.3,0.2-2.5,0.6-3.7,0.9c-0.7,0.2-1.1,0.6-1.1,1.4
						c-0.1,3.7-0.2,7.4-0.3,11.1c0,0.6,0.1,1.1,0.2,1.7c0.1,0.5,0.3,0.8,0.7,1c0.5,0.2,0.9,0.4,1.3,0.7c2,1.4,2.9,3.6,3.6,5.9
						c0.5,1.6,0.9,3.3,1.3,4.9c0.3,1,0.6,2,0.9,3.1c1,4.8,2,9.7,3.1,14.5c1,4.6,2.3,9.1,4.4,13.3c2.3,4.7,5.7,8.3,10.4,10.4
						c2.9,1.3,5.8,2.1,8.9,2.6c5.5,0.9,11,1,16.5,0.6c5.6-0.4,11.1-1.3,16.5-3c4-1.3,7.8-3,11-5.9c4.9-4.4,8.8-9.6,11.8-15.6
						c3-6,5.1-12.3,7-18.8c0.5-1.8,1.1-3.7,1.7-5.5c0.9-2.7,2.8-4.3,5.5-4.8c0.9-0.1,1.8-0.2,2.6-0.1c2,0.1,4,0.6,5.3,2.4
						c0.6,0.8,1.1,1.6,1.5,2.5c0.7,1.8,1.4,3.6,2,5.4c2.4,8,5.5,15.5,9.6,22.7c3.3,6,7.7,10.8,13.5,14.1c4.1,2.4,8.5,3.9,13.1,4.8
						c6.9,1.4,13.8,1.7,20.8,1.4c4.2-0.2,8.4-0.8,12.5-2c4.2-1.3,7.8-3.5,10.6-7.1c1.8-2.4,3.1-5,4.2-7.8c2.3-5.8,3.7-11.9,5.1-18.1
						c0.6-3,1.3-6,2-9c0.4-1.6,0.8-3.1,1.2-4.7c0.4-1.5,0.7-2.9,1.6-4.2c0.9-1.3,1.8-2.5,3.2-3c0.6-0.2,1-0.7,1.1-1.3
						c0.1-0.5,0.2-1,0.2-1.5c0-2.2,0-4.4-0.1-6.6C1073.1,360.1,1073,358.6,1072.9,357 M867.4,364 M900,358.8 M1056.9,376
						c0.1,3,0.3,6,0.2,9 M1051.2,363.1 M1013.6,358.3c3.4-0.2,6.7-0.3,9-0.4 M989.7,363.4 M1057,385 M1064.1,364"/>
					</g>
				</g>
				<path fill="#3C3C3B" d="M1069.4,896.5l-26.6-210h-155l-28.1,208.1l94,1.9l-4-162.5c0.4-6.5,8.6-2.1,14.9-2.1h8.8
				c6.3,0,9.1-4.4,9.5,2.1l-10.9,162.5H1069.4z"/>
				<circle fill="#3C3C3B" cx="929" cy="440.4" r="4"/>
				<path fill="#FEDA97" d="M1077.2,714.6l2.1-2.6l-34-28.2l-2.1,2.6c-7.6,9.4-6.3,23.2,2.9,31.2
				C1055.5,725.5,1069.4,724.2,1077.2,714.6z"/>
				<path fill="#FEDA97" d="M1040,692.2c3.2,2.5,7.1,2.7,8.7,0.6c1.7-2.2,0.4-5.9-2.7-8.4s-7.1-2.7-8.7-0.6
				C1035.6,685.9,1036.8,689.7,1040,692.2z"/>
				<path
					fill="#2C0D0F"
					d="M913.1,235.9c0,0-62.4-10.2-64,94.7c0,0-4.2,68.5,26.5,19.7l44.3-55.8c0,0,5.5-8.3,10.9,0.8
				c0,0,35.8,42.2,83.3,47.1c0,0-9.7,158.9,22.8,176.1c0,2,22.3,11,25,12.4c6.1,3,12.2,6,18.2,9c2.4,1.2,9.5,7.3,11.9,6.5
				c6.5-2,2.8-15.9,2.2-20.4c-0.6-4.2-0.5-7.8,0.2-11.9c1.3-7.9,2.6-15.8,3.7-23.7c4.1-28.1,7.4-56.3,9.7-84.6
				c2.8-35,4.1-70.2,2.2-105.3c-1.4-25.9-4.5-51.5-12-76.4c-4.6-15.5-12-37.3-30.2-40.9c-17.1-3.4-36.1,5.4-50.7,13.3
				c-5.6,3-11,6.4-16.3,9.9C1000.8,206.5,955.5,177.2,913.1,235.9z"/>
				<path fill="#6D8028" d="M1038.7,225l20.5,20.5C1059.1,245.5,1071.1,218.1,1038.7,225z"/>
			</g>
		</g>
		<g id="HORTA_GUINARDO">
			<g>
				<path fill="#512A11" d="M842.2,343.7c0,0,11-144.7,125.9-138.2c0,0,140.7-20.4,124.2,221.2l-9,193.5c0,0-28.9,79.7-125.3,48.8
				c0,0-102.6-28.2-125.8-57.9C809,581.4,841.4,350.2,842.2,343.7z"/>
				<g>
					<path fill="#FEDA97" d="M1011.3,518.7c-12.9-2.2-28.5-4.4-44.5-4.4c-16,0-31.7,1.9-44.6,4.1l41.9,12c0.6,0.8,1.6,1.3,2.6,1.3
					l0,0c1,0,2-0.5,2.6-1.3L1011.3,518.7z"/>
					<path fill="#FEDA97" d="M998.5,499.6l2.4,17.2c0,0-14.6,17.9-34.1,17.9c-19.5,0-34.1-17.8-34.1-17.8l2.4-17.2H998.5z"/>
					<path fill="#ACCCCE" d="M889.4,698.6"/>
					<g>
						<ellipse fill="#F9C87A" cx="1073.5" cy="402.3" rx="20.1" ry="25.8"/>
						<ellipse fill="#FEDA97" cx="856.8" cy="402.3" rx="20.1" ry="25.8"/>
						<path fill="#FEDA97" d="M946,510.7c-48.5,0-87.9-39.8-87.9-88.9v-93.9c0-49.1,39.3-88.9,87.9-88.9h21.5v271.7H946z"/>
						<path fill="#F9C87A" d="M984.3,510.7c48.5,0,87.9-39.8,87.9-88.9v-93.9c0-49.1-39.3-88.9-87.9-88.9h-19.1v271.7H984.3z"/>
					</g>
					<path fill="#27190E" d="M965.2,367.5"/>
					<line fill="none" x1="965.2" y1="367.5" x2="808.9" y2="367.5"/>
					<circle fill="#FEDA97" cx="967.3" cy="418.8" r="13.5"/>
				</g>
				<path fill="#512A11" d="M901.9,243.2c0,0,71.7,106.2,95.8,118.7c24.1,12.5,93.3,3.4,93.3,3.4s-7.9-92.6-29-101.1
				c-21-8.6-71.2-47.8-92.1-39.6"/>
				<path
					id="gafas_3_4_"
					fill="#93AA2D"
					d="M1072,374.5c-0.7-1-2-0.7-2.6-3.1c-0.6-2.4-6.5-18.3-13-22c-6.5-3.6-18.9-9.9-49.1-12
				c-23.3-0.6-37.4-1.1-41.5-1.2v0c0,0-0.2,0-0.6,0c-0.4,0-0.6,0-0.6,0v0c-4,0.1-18.1,0.6-41.5,1.2c-30.2,2.1-42.6,8.4-49.1,12
				c-6.5,3.6-12.4,19.6-13,22c-0.6,2.4-1.9,2.1-2.6,3.1c-0.7,1,0.1,6.6,2.4,10.3c2.5,20.5,10.9,32.2,16.1,38.4
				c5.2,6.2,19.7,9.2,29.8,8.8c22.2-3.9,26-10.7,35.6-20.4c9.6-9.6,17.2-36,18.4-39c0.8-2.3,3.3-3.1,4.5-3.3c1.2,0.3,3.6,1,4.5,3.3
				c1.1,3,8.7,29.4,18.4,39c9.6,9.6,13.4,16.5,35.6,20.4c10.1,0.4,24.5-2.6,29.7-8.8c5.2-6.2,13.6-17.9,16.1-38.4
				C1071.9,381.1,1072.7,375.5,1072,374.5z M953.4,378.4c-1.7,7.7-7.5,23.4-14.3,30.9c-6.7,7.5-11.1,14.2-28,18
				c-9.7,1.3-24.2,0.2-30.9-7.9c-6.7-8.1-13.4-21.1-13.4-33.4c0-12.3,0.8-16.8,0.8-16.8s4-13.9,14.5-18.4
				c10.5-4.5,27.2-7.5,45.5-6.2c18.2,1.3,24.3,4.3,25.8,8.4C954.9,356.9,955.1,370.6,953.4,378.4z M1050.1,419.3
				c-6.7,8.1-21.2,9.2-30.9,7.9c-16.9-3.8-21.3-10.5-28-18c-6.7-7.5-12.6-23.2-14.2-30.9c-1.7-7.7-1.5-21.4,0-25.5
				c1.5-4.1,7.5-7.1,25.8-8.4c18.2-1.3,35,1.7,45.5,6.2c10.5,4.5,14.5,18.4,14.5,18.4s0.8,4.5,0.8,16.8
				C1063.5,398.2,1056.8,411.2,1050.1,419.3z"/>
				<g>
					<path fill="#3C3C3B" d="M1058.9,882.4l-12.8-188.2H891l-10.7,188.2l63,10.3l9.6-152.6c0.4-6.3,5.9-11.5,12.2-11.5h8.8
					c6.3,0,11.8,5.1,12.2,11.4l9.8,152.6L1058.9,882.4z"/>
				</g>
				<g>
					<g>
						<path fill="#233F1D" d="M1026.8,521.2c-14.7-3.3-37.3-7.2-60.8-7.2c-23.6,0-46.2,4-60.9,7.2c-9.3,2.1-16.7,11.9-16.7,21.4
						v154.9h155V542.6C1043.5,533.1,1036.1,523.2,1026.8,521.2z"/>
						<g>
							<path
								fill="#93AA2D"
								d="M1041.9,528.7c-8.7-8.8-22.9-8.7-31.5,0c-8.6,8.8-8.6,22.7,0,31.4l4.5,4.5
							c11.1,11.2,22.2,22.4,33.1,33.8c10.8,11.3,21.7,22.7,31.7,34.2c2.5,2.8,4.9,5.7,7.2,8.4l0.3,0.4l-2.4,3.7
							c-8.3,12.1-18,24.5-27.7,36.6l-11.6,14.3l34.4,28.2l11.9-14.7c10.1-12.7,20-25.2,29.7-39.3l1.8-2.7l2.3-3.6
							c2-3.4,4.1-6.8,5.7-10.3c0.9-1.7,1.4-3.5,2.1-5.3c0.5-1.8,0.7-3.6,0.9-5.4l0.2-2.7l0.1-1.4c0-0.5-0.2-0.9-0.2-1.4
							c-0.4-1.8-0.8-3.5-1.3-5.3l-0.9-2.6c-0.3-0.9-0.5-1.7-1.1-2.6c-1-1.7-1.9-3.3-3-5l-3.5-4.8c-0.6-0.8-1.2-1.6-1.8-2.3l-1.6-1.9
							c-2.8-3.4-5.5-6.6-8.2-9.7c-10.9-12.4-22-24.1-33.1-35.7c-11.1-11.6-22.3-23-33.6-34.3L1041.9,528.7z"/>
							<path
								fill="#93AA2D"
								d="M923.5,560.1c8.6-8.6,8.7-22.6,0.1-31.4c-8.6-8.8-22.7-8.8-31.5-0.1l-4.6,4.6
							c-11.2,11.2-22.4,22.5-33.5,34c-11.1,11.5-22.1,23-33,35.3c-2.7,3.1-5.5,6.2-8.2,9.5l-2.6,3.2c-1.2,1.5-2.3,3.1-3.5,4.7
							l-1.7,2.4l-1.5,2.5c-1,1.6-2.1,3.3-2.5,5l-0.9,2.6l-0.6,2.6c-0.3,1.7-1.1,3.6-0.7,5.4c0.2,3.6,0.6,7.2,2.1,10.7
							c1.4,3.5,3.2,7,5.2,10.4c0.5,0.9,1,1.7,1.5,2.5l1.2,2l1.8,2.8c9.4,14.3,18.9,27,28.7,39.8l11.6,15l35-27.4l-11.2-14.5
							c-9.4-12.3-18.8-24.9-26.7-37l-1.8-2.8l1.1-1.4c2.3-2.8,4.7-5.6,7.3-8.4c10.1-11.3,20.9-22.6,31.7-33.9
							c10.9-11.2,21.9-22.4,33-33.5L923.5,560.1z"/>
							<path fill="#93AA2D" d="M941.9,515.2c-23.6,0-25,2.5-38.9,6.6c-9.1,2.7-14.6,11.8-14.6,21.3v155.8l54.3,72.8V515.5"/>
							<path fill="#93AA2D" d="M992.8,515.5c23.6,0,23.3,1.6,37.6,6c9.1,2.8,16.7,11.9,16.7,21.4l-0.7,156.2l-48.5,72.4L992.8,515.5"/>
						</g>
					</g>
				</g>
				<g>
					<g>
						<polygon fill="#233F1D" points="943.4,905.4 874.4,905.4 874.4,893.9 880.3,882.4 943.4,892.7 					"/>
						<polygon fill="#233F1D" points="995.9,905.4 1064.9,905.4 1064.9,893.9 1058.9,882.4 995.9,892.7 					"/>
					</g>
					<polyline fill="#233F1D" points="880.3,893.5 870.5,865.1 900.9,865.1 897,896.2 				"/>
					<polyline fill="#233F1D" points="1058.8,893.5 1068.7,865.1 1038.3,865.1 1042.2,896.2 				"/>
				</g>
				<path fill="#FEDA97" d="M1077.2,726.8l2.1-2.6l-34-28.2l-2.1,2.6c-7.6,9.4-6.3,23.2,2.9,31.2
				C1055.5,737.7,1069.4,736.4,1077.2,726.8z"/>
				<path fill="#FEDA97" d="M887,698.2l-2-2.6L850.4,723l2.1,2.7c7.6,9.8,21.5,11.4,31,3.7C892.8,721.6,894.4,707.7,887,698.2z"/>
				<path fill="#FEDA97" d="M890.1,704.1c-3.2,2.5-7.1,2.7-8.7,0.6c-1.7-2.2-0.4-5.9,2.7-8.4c3.2-2.5,7.1-2.7,8.7-0.6
				C894.5,697.8,893.3,701.6,890.1,704.1z"/>
				<path fill="#FEDA97" d="M1040,704.3c3.2,2.5,7.1,2.7,8.7,0.6c1.7-2.2,0.4-5.9-2.7-8.4c-3.2-2.5-7.1-2.7-8.7-0.6
				C1035.6,698,1036.8,701.8,1040,704.3z"/>
			</g>
		</g>
		<g id="SANT_ANDREU">
			<g>
				<g>
					<g>
						<polygon fill="#FEDA97" points="939.2,903.8 870.2,903.8 870.2,892.3 876.2,881.7 939.2,892 					"/>
						<polygon fill="#FEDA97" points="991.7,903.8 1060.7,903.8 1060.7,892.3 1054.7,881.7 991.7,892 					"/>
					</g>
					<g>
						<polyline fill="#3C3C3B" points="939.2,899.3 939.2,905.2 869.5,905.2 869.5,899.4 					"/>
					</g>
					<polyline fill="#3C3C3B" points="869.5,905.2 869.5,892.9 875.5,881.7 880.5,882.6 871.7,900.1 				"/>
					<g>
						<polyline fill="#3C3C3B" points="991.7,898.9 991.7,905.4 1060.7,905.4 1060.7,899.1 					"/>
					</g>
					<polyline fill="#3C3C3B" points="1060.7,904.9 1060.7,892.3 1054.7,880.8 1049.7,881.7 1058.5,899.7 				"/>
					<polyline fill="#3C3C3B" points="880.5,882.5 895,901.6 901.5,901.6 888.2,883.7 				"/>
					<polyline fill="#3C3C3B" points="1053.4,881 1039,900.3 1032.4,900.3 1045.8,882.4 				"/>
				</g>
				<g>
					<g>
						<path fill="#E2850B" d="M966.9,234.4c0,0-140.8-75.5-134.8,194.2l-0.2,57.2h130.8L966.9,234.4z"/>
						<path fill="#E2850B" d="M962.7,234.4c0,0,140.8-75.5,134.8,194.2l0.2,57.2h-135V234.4z"/>
					</g>
				</g>
				<g>
					<g>
						<path
							fill="#FEDA97"
							d="M1042.2,528.4c-8.7-8.8-22.9-8.7-31.5,0c-8.6,8.8-8.6,22.7,0,31.4l4.5,4.5
						c11.1,11.2,22.2,22.4,33.1,33.8c10.8,11.3,21.7,22.7,31.7,34.2c2.5,2.8,4.9,5.7,7.2,8.4l0.3,0.4l-2.4,3.7
						c-8.3,12.1-18,24.5-27.7,36.6l-11.6,14.3l34.4,28.2l11.9-14.7c10.1-12.7,20-25.2,29.7-39.3l1.8-2.7l2.3-3.6
						c2-3.4,4.1-6.8,5.7-10.3c0.9-1.7,1.4-3.5,2.1-5.3c0.5-1.8,0.7-3.6,0.9-5.4l0.2-2.7l0.1-1.4c0-0.5-0.2-0.9-0.2-1.4
						c-0.4-1.8-0.8-3.5-1.3-5.3l-0.9-2.6c-0.3-0.9-0.5-1.7-1.1-2.6c-1-1.7-1.9-3.3-3-5l-3.5-4.8c-0.6-0.8-1.2-1.6-1.8-2.3l-1.6-1.9
						c-2.8-3.4-5.5-6.6-8.2-9.7c-10.9-12.4-22-24.1-33.1-35.7c-11.1-11.6-22.3-23-33.6-34.3L1042.2,528.4z"/>
					</g>
					<g>
						<path
							fill="#FEDA97"
							d="M891,527.5c8.7-8.8,22.9-8.7,31.5,0c8.6,8.8,8.6,22.7,0,31.4l-4.5,4.5c-11.1,11.2-22.2,22.4-33.1,33.8
						c-10.8,11.3-21.7,22.7-31.7,34.2c-2.5,2.8-4.9,5.7-7.2,8.4l-0.3,0.4l2.4,3.7c8.3,12.1,18,24.5,27.7,36.6l11.6,14.3l-34.4,28.2
						l-11.9-14.7c-10.1-12.7-20-25.2-29.7-39.3l-1.8-2.7l-2.3-3.6c-2-3.4-4.1-6.8-5.7-10.3c-0.9-1.7-1.4-3.5-2.1-5.3
						c-0.5-1.8-0.7-3.6-0.9-5.4l-0.2-2.7l-0.1-1.4c0-0.5,0.2-0.9,0.2-1.4c0.4-1.8,0.8-3.5,1.3-5.3l0.9-2.6c0.3-0.9,0.5-1.7,1.1-2.6
						c1-1.7,1.9-3.3,3-5l3.5-4.8c0.6-0.8,1.2-1.6,1.8-2.3l1.6-1.9c2.8-3.4,5.5-6.6,8.2-9.7c10.9-12.4,22-24.1,33.1-35.7
						c11.1-11.6,22.3-23,33.6-34.3L891,527.5z"/>
					</g>
				</g>
				<g>
					<g>
						<g>
							<path fill="#7B170F" d="M1079.6,566.5c-11.1-11.6-21.9-25.2-33.1-36.5l-5.6-2.4c-8.7-8.8-22.9-8.7-31.5,0
							c-8.6,8.8-8.6,22.7,0,31.4l4.5,4.5c11.1,11.2,22.2,22.4,33.1,33.8"/>
							<path fill="#7B170F" d="M884.9,597.2c10.9-11.2,21.9-22.6,33-33.7l4.5-4.5c8.6-8.6,8.7-22.6,0.1-31.4
							c-8.6-8.8-22.7-8.8-31.5-0.1l-4.6,4.6c-11.2,11.2-22.4,22.5-33.5,34"/>
							<path fill="#7B170F" d="M1025.7,520.4c16.2,3.6-6.8-7.2-60.8-7.2c-23.6,0-46.2,4-60.9,7.2c-9.3,2.1-16.7,11.9-16.7,21.4v154.9
							h155V541.9C1042.4,532.4,1035,522.5,1025.7,520.4z"/>
						</g>
					</g>
					<path fill="#FEDA97" d="M928.2,516c0,0,87.1,154.2,123.9,22.1C1052.1,538.1,1043.4,501.9,928.2,516z"/>
				</g>
				<rect x="887.3" y="642.6" fill="#3C3C3B" width="155" height="53.2"/>
				<polyline fill="#3C3C3B" points="971.9,642.6 1003.5,627.1 1033.9,642.6 			"/>
				<path fill="#706F6F" d="M1054.7,880.8l-12.8-185h-155l-11.4,185.9l63.7,12.6l9.6-152.6c0.4-6.3,5.9-11.5,12.2-11.5h8.8
				c6.3,0,11.8,5.1,12.2,11.4l9.8,152.6L1054.7,880.8z"/>
				<g>
					<path fill="#FEDA97" d="M998.1,500.2l2.4,17.2c0,0-14.6,17.9-34.1,17.9c-19.5,0-34.1-17.8-34.1-17.8l2.4-17.2H998.1z"/>
					<path fill="#FEDA97" d="M1078.1,726.5l2.1-2.6l-34-28.2l-2.1,2.6c-7.6,9.4-6.3,23.2,2.9,31.2
					C1056.3,737.4,1070.3,736.1,1078.1,726.5z"/>
					<path fill="#FEDA97" d="M889,697.4l-2-2.6l-34.6,27.4l2.1,2.7c7.6,9.8,21.5,11.4,31,3.7C894.9,720.8,896.4,707,889,697.4z"/>
					<path fill="#ACCCCE" d="M889,699.2"/>
					<path fill="#FEDA97" d="M892.2,703.3c-3.2,2.5-7.1,2.7-8.7,0.6c-1.7-2.2-0.4-5.9,2.7-8.4c3.2-2.5,7.1-2.7,8.7-0.6
					C896.6,697.1,895.4,700.8,892.2,703.3z"/>
					<path fill="#FEDA97" d="M1040.9,704.1c3.2,2.5,7.1,2.7,8.7,0.6c1.7-2.2,0.4-5.9-2.7-8.4c-3.2-2.5-7.1-2.7-8.7-0.6
					C1036.5,697.8,1037.7,701.6,1040.9,704.1z"/>
					<g>
						<ellipse fill="#F9C87A" cx="1073.1" cy="402.9" rx="20.1" ry="25.8"/>
						<ellipse fill="#FEDA97" cx="856.4" cy="402.9" rx="20.1" ry="25.8"/>
						<path fill="#FEDA97" d="M945.6,511.4c-48.5,0-87.9-39.8-87.9-88.9v-93.9c0-49.1,39.3-88.9,87.9-88.9h21.5v271.7H945.6z"/>
						<path fill="#F9C87A" d="M983.9,511.4c48.5,0,87.9-39.8,87.9-88.9v-93.9c0-49.1-39.3-88.9-87.9-88.9h-19.1v271.7H983.9z"/>
					</g>
					<path fill="#27190E" d="M964.8,368.1"/>
					<line fill="none" x1="964.8" y1="368.1" x2="808.5" y2="368.1"/>
					<circle fill="#FEDA97" cx="966.9" cy="419.4" r="13.5"/>
				</g>
				<path
					id="gafas6_9_"
					fill="#3C3C3B"
					stroke="#3C3C3B"
					stroke-miterlimit="10"
					d="M1071.7,360.4c0,0-3.5-0.7-49.2,2.3
				c-38.3,2.5-52.9,14.3-56.7,14.4c-3.7,0-18.3-11.8-56.7-14.4c-45.7-3-51.4-2.3-51.4-2.3v17c1.3,2.4,3.4,21.7,4.3,28
				c1,6.3,3,18.3,9.8,25.1c6.8,6.8,17.6,11.3,29.5,12.5c16.3,0.8,21.4-0.1,33.4-7.3c12-7.1,19.8-28.8,21.1-32.8
				c1.3-4,3.1-10.2,4.4-12.4c1.1-1.7,3-2.2,4.5-2.4v0.1c0,0,0.4-0.1,1-0.1c0.6,0,1,0.1,1,0.1v-0.1c1.5,0.1,3.4,0.6,4.5,2.4
				c1.3,2.1,3.1,8.4,4.4,12.4c1.3,4,9,25.7,21.1,32.8c12,7.1,17.1,8.1,33.4,7.3c11.9-1.3,22.7-5.7,29.5-12.5
				c6.8-6.8,8.9-18.7,9.8-25.1c1-6.3,1.1-26.2,2.9-28.3L1071.7,360.4z M949.7,392.9c-1.1,5.7-3.3,24.1-14.6,33.8
				c-5.6,4.9-12.2,10.2-24.6,10.5c-8.9,0.2-26.9-2.1-33.7-10.8c-3.2-4.9-7.9-10.4-8.1-24c-0.2-13.6-0.2-24.5,2.4-27.1
				c0,0,4.4-5.6,9.4-6.7c4.9-1.1,18.9-1.9,32.9,1c14,2.9,27.3,7.3,30.8,10.3C947.6,382.9,950.8,387.2,949.7,392.9z M1063,402.4
				c-0.2,13.6-4.9,19.1-8.1,24c-6.8,8.7-24.8,11-33.7,10.8c-12.4-0.3-19-5.6-24.6-10.5c-11.3-9.7-13.5-28.1-14.6-33.8
				c-1.1-5.7,2.1-10,5.6-13c3.5-3,16.8-7.5,30.8-10.3c14-2.9,27.9-2.1,32.9-1c4.9,1.1,9.4,6.7,9.4,6.7
				C1063.1,377.9,1063.1,388.8,1063,402.4z"/>
				<path fill="#E2850B" d="M964.7,269.6c16.4,42.6,107.1,67.5,107.1,67.5C1091.5,221.6,965,233.3,965,233.3s-126.9-11.1-107.2,104.3
				c0,0,90.7-25.2,107.2-67.8"/>
				<path fill="#3C3C3B" stroke="#3C3C3B" stroke-miterlimit="10" d="M847,265.4c0,0-20.7,53.2,20.3,63.8c0,0,110,33.3,209.3-6.2
				c0,0,21.6-15.4,4.9-57.5C1081.4,265.4,1016.6,292.8,847,265.4z"/>
				<path fill="#7B170F" d="M1081.4,265.4c7.4-2.2-10.6-12.3-10.6-12.3c11.4-23-11.1-80.3-11.8-82.1c-17.4-45.8-92.3-45.4-137.3-15.3
				c-31,20.7-51.6,54.2-66,87c-0.5,1.2-8.7,22.8-8.7,22.7C847,265.4,990.2,292.3,1081.4,265.4z"/>
			</g>
		</g>
		<g id="EIXAMPLE">
			<g>
				<path
					fill="#3C3C3B"
					stroke="#3C3C3B"
					stroke-miterlimit="10"
					d="M1057.3,509.2c-0.4,4.5,1.2,9,0.1,13.5c-0.3,1.2-0.6,1.4-2,1.3
				c-2.3-0.1-5.1-1.9-7-3.2c0,0-10.9-7.5-10.9-7.5c0.7,0.5,0.1,4.2,0,4.9c0,1.4,0.2,4.9-2.4,3.8c-2.3-1-4.8-2.1-6.5-3.4
				c-4.2-2.9-7.8-6.7-11.2-10.6c-3.5-4-8.4-8.1-10-13.3c-0.1-0.3-0.2-0.6-0.2-0.9c-0.9-5.2,3.3-10.9,6.5-14.7
				c4.7-5.5,12.6-7.5,19.6-6.3c7.8,1.4,12.1,6.6,17,12c1.1,1.3,2.5,2.4,3.7,3.5c2.4,2.3,4.8,4.5,7.1,6.8c1.5,1.4,3.1,3.6,4.9,4.5
				c2.2,1.1,5.7,0.2,7.6,2c2.2,2.1-3.6,7.8-5.8,8.5c-1.7,0.6-3.6,0.6-5.3,0.3C1060.9,510.3,1058.8,509.1,1057.3,509.2z"/>
				<g>
					<g>
						<path
							fill="#FEDA97"
							d="M1041.3,526.1c-8.7-8.8-22.9-8.7-31.5,0c-8.6,8.8-8.6,22.7,0,31.4l4.5,4.5
						c11.1,11.2,22.2,22.4,33.1,33.8c10.8,11.3,21.7,22.7,31.7,34.2c2.5,2.8,4.9,5.7,7.2,8.4l0.3,0.4l-2.4,3.7
						c-8.3,12.1-18,24.5-27.7,36.6l-11.6,14.3l34.4,28.2l11.9-14.7c10.1-12.7,20-25.2,29.7-39.3l1.8-2.7l2.3-3.6
						c2-3.4,4.1-6.8,5.7-10.3c0.9-1.7,1.4-3.5,2.1-5.3c0.5-1.8,0.7-3.6,0.9-5.4l0.2-2.7l0.1-1.4c0-0.5-0.2-0.9-0.2-1.4
						c-0.4-1.8-0.8-3.5-1.3-5.3l-0.9-2.6c-0.3-0.9-0.5-1.7-1.1-2.6c-1-1.7-1.9-3.3-3-5l-3.5-4.8c-0.6-0.8-1.2-1.6-1.8-2.3l-1.6-1.9
						c-2.8-3.4-5.5-6.6-8.2-9.7c-10.9-12.4-22-24.1-33.1-35.7c-11.1-11.6-22.3-23-33.6-34.3L1041.3,526.1z"/>
					</g>
					<g>
						<path
							fill="#FEDA97"
							d="M891.9,526.1c8.7-8.8,22.9-8.7,31.5,0c8.6,8.8,8.6,22.7,0,31.4l-4.5,4.5
						c-11.1,11.2-22.2,22.4-33.1,33.8c-10.8,11.3-21.7,22.7-31.7,34.2c-2.5,2.8-4.9,5.7-7.2,8.4l-0.3,0.4l2.4,3.7
						c8.3,12.1,18,24.5,27.7,36.6l11.6,14.3l-34.4,28.2L842,706.9c-10.1-12.7-20-25.2-29.7-39.3l-1.8-2.7l-2.3-3.6
						c-2-3.4-4.1-6.8-5.7-10.3c-0.9-1.7-1.4-3.5-2.1-5.3c-0.5-1.8-0.7-3.6-0.9-5.4l-0.2-2.7l-0.1-1.4c0-0.5,0.2-0.9,0.2-1.4
						c0.4-1.8,0.8-3.5,1.3-5.3l0.9-2.6c0.3-0.9,0.5-1.7,1.1-2.6c1-1.7,1.9-3.3,3-5l3.5-4.8c0.6-0.8,1.2-1.6,1.8-2.3l1.6-1.9
						c2.8-3.4,5.5-6.6,8.2-9.7c10.9-12.4,22.6-23.9,33.7-35.5c11.1-11.6,21.7-23.1,33-34.5L891.9,526.1z"/>
					</g>
				</g>
				<g>
					<path fill="#FEDA97" d="M1011.1,516.1c-12.9-2.2-28.5-4.4-44.5-4.4c-16,0-31.7,1.9-44.6,4.1l41.9,12c0.6,0.8,1.6,1.3,2.6,1.3
					l0,0c1,0,2-0.5,2.6-1.3L1011.1,516.1z"/>
					<path fill="#FEDA97" d="M998.3,497l2.4,17.2c0,0-14.6,17.9-34.1,17.9c-19.5,0-34.1-17.8-34.1-17.8l2.4-17.2H998.3z"/>
					<path fill="#ACCCCE" d="M889.2,696"/>
					<g>
						<ellipse fill="#F9C87A" cx="1073.3" cy="399.8" rx="20.1" ry="25.8"/>
						<ellipse fill="#FEDA97" cx="856.6" cy="399.8" rx="20.1" ry="25.8"/>
						<path fill="#FEDA97" d="M945.8,508.2c-48.5,0-87.9-39.8-87.9-88.9v-93.9c0-49.1,39.3-88.9,87.9-88.9h21.5v271.7H945.8z"/>
						<path fill="#F9C87A" d="M984.1,508.2c48.5,0,87.9-39.8,87.9-88.9v-93.9c0-49.1-39.3-88.9-87.9-88.9H965v271.7H984.1z"/>
					</g>
					<path fill="#27190E" d="M965,365"/>
					<line fill="none" x1="965" y1="365" x2="808.7" y2="365"/>
					<circle fill="#FEDA97" cx="967.1" cy="416.2" r="13.5"/>
				</g>
				<path fill="#3C3C3B" stroke="#3C3C3B" stroke-miterlimit="10" d="M911.4,240.9c0,0-94.5-14.9-57.4,137.2c0,0,68.5-28.6,70.5-86.2
				c0,0,53.9,76.1,141.7,93.3c0,0,82.7-102.2-64.7-173C1001.6,212.1,937.8,195.2,911.4,240.9z"/>
				<g>
					<path
						fill="#3C3C3B"
						stroke="#3C3C3B"
						stroke-miterlimit="10"
						d="M1071,388.3c-0.7-1-2-0.7-2.6-3.1c-0.6-2.4-6.5-18.3-13-22
					c-6.5-3.6-18.9-9.9-49.1-12c-23.3-0.6-37.4-1.1-41.5-1.2v0c0,0-0.2,0-0.6,0c-0.4,0-0.6,0-0.6,0v0c-4,0.1-18.1,0.6-41.5,1.2
					c-30.2,2.1-42.6,8.4-49.1,12c-6.5,3.6-12.4,19.6-13,22c-0.6,2.4-1.9,2.1-2.6,3.1c-0.7,1,0.1,6.6,2.4,10.3
					c2.5,20.5,10.9,32.2,16.1,38.4c5.2,6.2,19.7,9.2,29.8,8.8c22.2-3.9,26-10.7,35.6-20.4c9.6-9.6,17.2-36,18.4-39
					c0.8-2.3,3.3-3.1,4.5-3.3c1.2,0.3,3.6,1,4.5,3.3c1.1,3,8.7,29.4,18.4,39c9.6,9.6,13.4,16.5,35.6,20.4
					c10.1,0.4,24.5-2.6,29.7-8.8c5.2-6.2,13.6-17.9,16.1-38.4C1070.9,394.9,1071.8,389.3,1071,388.3z M952.5,392.2
					c-1.7,7.7-7.5,23.4-14.3,30.9c-6.7,7.5-11.1,14.2-28,18c-9.7,1.3-24.2,0.2-30.9-7.9C872.7,425,866,412,866,399.7
					c0-12.3,0.8-16.8,0.8-16.8s4-13.9,14.5-18.4c10.5-4.5,27.2-7.5,45.5-6.2c18.2,1.3,24.3,4.3,25.8,8.4
					C954,370.7,954.2,384.4,952.5,392.2z M1049.1,433.1c-6.7,8.1-21.2,9.2-30.9,7.9c-16.9-3.8-21.3-10.5-28-18
					c-6.7-7.5-12.6-23.2-14.2-30.9c-1.7-7.7-1.5-21.4,0-25.5c1.5-4.1,7.5-7.1,25.8-8.4c18.2-1.3,35,1.7,45.5,6.2
					c10.5,4.5,14.5,18.4,14.5,18.4s0.8,4.5,0.8,16.8C1062.6,412,1055.9,425,1049.1,433.1z"/>
				</g>
				<path fill="#3C3C3B" stroke="#3C3C3B" stroke-miterlimit="10" d="M1056.7,875.2L1043.8,687H890.1l-12,188.2l63,10.3l9.6-152.6
				c0.4-6.3,5.9-11.5,12.2-11.5h8.8c6.3,0,11.8,5.1,12.2,11.4l9.8,152.6L1056.7,875.2z"/>
				<g>
					<g>
						<g>
							<path
								fill="#9B4416"
								stroke="#9B4416"
								stroke-miterlimit="10"
								d="M1041.3,525.8c-8.7-8.8-22.9-8.7-31.5,0
							c-8.6,8.8-8.6,22.7,0,31.4l4.5,4.5c11.1,11.2,22.2,22.4,33.1,33.8c10.8,11.3,21.7,22.7,31.7,34.2c2.5,2.8,4.9,5.7,7.2,8.4
							l0.3,0.4l-2.4,3.7c-8.3,12.1-18,24.5-27.7,36.6l-11.6,14.3l34.4,28.2l11.9-14.7c10.1-12.7,20-25.2,29.7-39.3l1.8-2.7l2.3-3.6
							c2-3.4,4.1-6.8,5.7-10.3c0.9-1.7,1.4-3.5,2.1-5.3c0.5-1.8,0.7-3.6,0.9-5.4l0.2-2.7l0.1-1.4c0-0.5-0.2-0.9-0.2-1.4
							c-0.4-1.8-0.8-3.5-1.3-5.3l-0.9-2.6c-0.3-0.9-0.5-1.7-1.1-2.6c-1-1.7-1.9-3.3-3-5l-3.5-4.8c-0.6-0.8-1.2-1.6-1.8-2.3l-1.6-1.9
							c-2.8-3.4-5.5-6.6-8.2-9.7c-10.9-12.4-22-24.1-33.1-35.7c-11.1-11.6-22.3-23-33.6-34.3L1041.3,525.8z"/>
							<path
								fill="#9B4416"
								stroke="#9B4416"
								stroke-miterlimit="10"
								d="M924.3,557.6c8.6-8.6,8.7-22.6,0.1-31.4
							c-8.6-8.8-21.4-10.9-30.2-2.1l-7.3,7c-11.2,11.2-21,22.1-32.1,33.6c-11.1,11.5-22.1,23-33,35.3c-2.7,3.1-5.5,6.2-8.2,9.5
							l-2.6,3.2c-1.2,1.5-2.3,3.1-3.5,4.7l-1.7,2.4l-1.5,2.5c-1,1.6-2.1,3.3-2.5,5l-0.9,2.6l-0.6,2.6c-0.3,1.7-1.1,3.6-0.7,5.4
							c0.2,3.6,0.6,7.2,2.1,10.7c1.4,3.5,3.2,7,5.2,10.4c0.5,0.9,1,1.7,1.5,2.5l1.2,2l1.8,2.8c9.4,14.3,18.9,27,28.7,39.8l11.6,15
							l35.7-29.1l-11.9-14.7c-9.4-12.3-18.8-23-26.7-35.1l-1.8-2.8l1.1-1.4c2.3-2.8,4.7-5.6,7.3-8.4c10.1-11.3,20.9-22.6,31.7-33.9
							c10.9-11.2,21.9-22.4,33-33.5L924.3,557.6z"/>
							<path fill="#9B4416" stroke="#9B4416" stroke-miterlimit="10" d="M1027.5,519.1c-14.7-3.3-37.3-7.2-60.8-7.2
							c-23.6,0-46.2,4-60.9,7.2c-9.3,2.1-16.7,11.9-16.7,21.4v154.9h155V540.5C1044.2,531,1036.8,521.1,1027.5,519.1z"/>
						</g>
						<polyline fill="#9B4416" stroke="#9B4416" stroke-miterlimit="10" points="889.2,695.5 841.8,793 1086.6,793 1044.2,695.5
											"/>
					</g>
				</g>
				<g>
					<line fill="#9B4416" x1="958.9" y1="882" x2="967.7" y2="882"/>
					<g>
						<polygon fill="#9B4416" points="941.4,897 872.5,905.4 872.5,885.5 878.4,875 941.4,885.3 					"/>
						<polygon fill="#9B4416" points="994,897 1062.9,905.4 1062.9,885.5 1057,875 994,885.3 					"/>
					</g>
					<polyline fill="#9B4416" points="921,892.5 921,905.4 941.4,905.4 941.4,897 				"/>
					<polyline fill="#9B4416" points="1014.4,892.5 1014.4,905.4 994,905.4 994,897 				"/>
				</g>
				<circle fill="#CD183B" cx="966.7" cy="483.1" r="10.5"/>
				<path fill="#FEDA97" d="M1077.1,724.2l2.1-2.6l-34-28.2l-2.1,2.6c-7.6,9.4-6.3,23.2,2.9,31.2
				C1055.3,735.1,1069.3,733.8,1077.1,724.2z"/>
				<path fill="#FEDA97" d="M889.9,696.2l-2-2.6L853.3,721l2.1,2.7c7.6,9.8,21.5,11.4,31,3.7C895.7,719.5,897.3,705.7,889.9,696.2z"/>
				<path fill="#FEDA97" d="M893.1,702c-3.2,2.5-7.1,2.7-8.7,0.6c-1.7-2.2-0.4-5.9,2.7-8.4c3.2-2.5,7.1-2.7,8.7-0.6
				C897.5,695.8,896.2,699.5,893.1,702z"/>
				<path fill="#FEDA97" d="M1039.8,701.7c3.2,2.5,7.1,2.7,8.7,0.6c1.7-2.2,0.4-5.9-2.7-8.4s-7.1-2.7-8.7-0.6
				C1035.4,695.5,1036.6,699.2,1039.8,701.7z"/>
			</g>
		</g>
		<g id="NOU_BARRIS">
			<g>
				<path fill="#FEDA97" d="M1055.9,883.8l-12.8-188.2H888l-10.7,188.2l63,10.3l9.6-152.6c0.4-6.3-5.4-13.9,0.9-13.9l27.5,1.3
				c6.3,0,5.9,5.6,6.3,11.9l8.3,153.3L1055.9,883.8z"/>
				<path
					fill="#7F5D37"
					d="M1041.9,522.9c-8.7-8.8-22.9-8.7-31.5,0c-8.6,8.8-8.6,22.7,0,31.4l4.5,4.5c11.1,11.2,22.2,22.4,33.1,33.8
				c10.8,11.3,21.7,22.7,31.7,34.2c2.5,2.8,4.9,5.7,7.2,8.4l0.3,0.4l-2.4,3.7c-8.3,12.1-18,24.5-27.7,36.6l-11.6,14.3l34.4,28.2
				l11.9-14.7c10.1-12.7,20-25.2,29.7-39.3l1.8-2.7l2.3-3.6c2-3.4,4.1-6.8,5.7-10.3c0.9-1.7,1.4-3.5,2.1-5.3
				c0.5-1.8,0.7-3.6,0.9-5.4l0.2-2.7l0.1-1.4c0-0.5-0.2-0.9-0.2-1.4c-0.4-1.8-0.8-3.5-1.3-5.3l-0.9-2.6c-0.3-0.9-0.5-1.7-1.1-2.6
				c-1-1.7-1.9-3.3-3-5l-3.5-4.8c-0.6-0.8-1.2-1.6-1.8-2.3l-1.6-1.9c-2.8-3.4-5.5-6.6-8.2-9.7c-10.9-12.4-22-24.1-33.1-35.7
				c-11.1-11.6-22.3-23-33.6-34.3L1041.9,522.9z"/>
				<path
					fill="#7F5D37"
					d="M923.5,554.3c8.6-8.6,8.7-22.6,0.1-31.4c-8.6-8.8-22.7-8.8-31.5-0.1l-4.6,4.6
				c-11.2,11.2-22.4,22.5-33.5,34c-11.1,11.5-22.1,23-33,35.3c-2.7,3.1-5.5,6.2-8.2,9.5l-2.6,3.2c-1.2,1.5-2.3,3.1-3.5,4.7l-1.7,2.4
				l-1.5,2.5c-1,1.6-2.1,3.3-2.5,5l-0.9,2.6l-0.6,2.6c-0.3,1.7-1.1,3.6-0.7,5.4c0.2,3.6,0.6,7.2,2.1,10.7c1.4,3.5,3.2,7,5.2,10.4
				c0.5,0.9,1,1.7,1.5,2.5l1.2,2l1.8,2.8c9.4,14.3,18.9,27,28.7,39.8l11.6,15l35-27.4l-11.2-14.5c-9.4-12.3-18.8-24.9-26.7-37
				l-1.8-2.8l1.1-1.4c2.3-2.8,4.7-5.6,7.3-8.4c10.1-11.3,20.9-22.6,31.7-33.9c10.9-11.2,21.9-22.4,33-33.5L923.5,554.3z"/>
				<path fill="#7F5D37" d="M1026.8,515.8c-14.7-3.3-37.3-7.2-60.8-7.2c-23.6,0-46.2,4-60.9,7.2c-9.3,2.1-16.7,11.9-16.7,21.4v154.9
				h155V537.2C1043.5,527.7,1036.1,517.8,1026.8,515.8z"/>
				<path fill="#512A11" d="M892.2,522.8c0,0,13.8-12.9,28.7-10.1l-1.9,46.1l91.1-1.1l0.9-45.1c0,0,22.5,1.8,30.9,10.3l10,285.1
				l-64.2-2.9l-4.3-67.1c-0.4-6.3-5.9-7.6-12.2-7.6h-8.8c-6.3,0-11.8,1.3-12.2,7.6l-4,64.2l-65.5,1.4L892.2,522.8z"/>
				<polygon fill="#7F5D37" points="920.5,609 1010.6,609.7 1010.6,692.2 920.5,692.2 			"/>
				<g>
					<g>
						<polygon fill="#FEDA97" points="940.3,904.9 871.4,904.9 871.4,893.4 877.3,882.9 940.3,893.2 					"/>
						<polygon fill="#FEDA97" points="992.9,904.9 1061.8,904.9 1061.8,893.4 1055.9,882.9 992.9,893.2 					"/>
					</g>
					<g>
						<polyline fill="#644F2F" points="940.3,899.1 940.3,904.9 871.4,904.9 871.4,899.2 					"/>
					</g>
					<polyline fill="#644F2F" points="871.4,904.9 871.4,893.4 877.3,882.9 882.4,883.7 873.5,900.2 				"/>
					<g>
						<polyline fill="#644F2F" points="992.9,899.5 992.9,905.4 1061.8,905.4 1061.8,899.6 					"/>
					</g>
					<polyline fill="#644F2F" points="1061.8,905.4 1061.8,893.9 1055.9,883.3 1050.8,884.1 1059.7,900.6 				"/>
				</g>
				<g>
					<path fill="#FEDA97" d="M1009.4,512.9c-12.9-2.2-28.5-4.4-44.5-4.4c-16,0-31.7,1.9-44.6,4.1l41.9,12c0.6,0.8,1.6,1.3,2.6,1.3
					l0,0c1,0,2-0.5,2.6-1.3L1009.4,512.9z"/>
					<path fill="#FEDA97" d="M996.6,493.8L999,511c0,0-14.6,17.9-34.1,17.9c-19.5,0-34.1-17.8-34.1-17.8l2.4-17.2H996.6z"/>
					<path fill="#FEDA97" d="M1078,721l2.1-2.6l-34-28.2l-2.1,2.6c-7.6,9.4-6.3,23.2,2.9,31.2C1056.2,731.9,1070.2,730.6,1078,721z"/>
					<path fill="#FEDA97" d="M887.2,692.9l-2-2.6l-34.6,27.4l2.1,2.7c7.6,9.8,21.5,11.4,31,3.7C893,716.3,894.6,702.5,887.2,692.9z"/>
					<path fill="#ACCCCE" d="M887.5,692.8"/>
					<path fill="#FEDA97" d="M890.3,698.8c-3.2,2.5-7.1,2.7-8.7,0.6c-1.7-2.2-0.4-5.9,2.7-8.4c3.2-2.5,7.1-2.7,8.7-0.6
					C894.7,692.6,893.5,696.3,890.3,698.8z"/>
					<path fill="#FEDA97" d="M1040.7,698.5c3.2,2.5,7.1,2.7,8.7,0.6c1.7-2.2,0.4-5.9-2.7-8.4c-3.2-2.5-7.1-2.7-8.7-0.6
					C1036.3,692.3,1037.6,696,1040.7,698.5z"/>
					<g>
						<ellipse fill="#F9C87A" cx="1071.6" cy="396.5" rx="20.1" ry="25.8"/>
						<ellipse fill="#FEDA97" cx="854.9" cy="396.5" rx="20.1" ry="25.8"/>
						<path fill="#FEDA97" d="M944.1,505c-48.5,0-87.9-39.8-87.9-88.9v-93.9c0-49.1,39.3-88.9,87.9-88.9h21.5V505H944.1z"/>
						<path fill="#F9C87A" d="M982.4,505c48.5,0,87.9-39.8,87.9-88.9v-93.9c0-49.1-39.3-88.9-87.9-88.9h-19.1V505H982.4z"/>
					</g>
					<path fill="#27190E" d="M963.3,361.8"/>
					<line fill="none" x1="963.3" y1="361.8" x2="807" y2="361.8"/>
					<circle fill="#FEDA97" cx="965.4" cy="413" r="13.5"/>
				</g>
				<path
					id="gafas_2_15_"
					fill="#3C3C3B"
					d="M856.3,370.7c2.6,0.7,10,23,14,34.1c4,11.1,9.9,15.4,19.2,18.4
				c18.6,3.7,36.5-1.1,41.9-3.3c5.4-2.2,9.2-8.2,12.8-15.1c3.6-6.8,12.1-28.9,14.2-33.4l10.3,0c2.1,4.5,10.6,26.5,14.2,33.4
				c3.6,6.8,7.4,12.9,12.8,15.1c5.4,2.2,23.3,7,41.9,3.3c9.3-3,15.2-7.3,19.2-18.4c4-11.1,11.1-30.9,12.1-33.6
				c0.6-1.5,1.4-1.2,1.4-1.2v-17.6c0,0-5.8-3.5-18.8-4.2c-12.9-0.7-41.2-1.4-53.7-0.1c-12.5,1.2-15,2.1-17,3.7
				c-1.9,1.6-2.8,4-6.4,4.6h-21.9c-3.6-0.6-4.4-3-6.4-4.6c-2-1.6-4.5-2.5-17-3.7c-12.5-1.2-40.7-0.6-53.7,0.1
				c-12.9,0.8-19.4,6-19.4,6 M946.1,387.5c-3.8,13.2-7.7,23-15,27c-7.3,3.9-35.2,10.7-48,0.5c-2.5-2-9.9-10.3-11.2-26.3
				c-1.3-16-2.8-24.5,6.1-29.1c0,0,17.9-6.5,32.1-6.4c16.1,0.1,30.3,2.8,33.6,7.4C946.8,365.2,950.6,370.9,946.1,387.5z
				 M1055.1,388.7c-1.3,16-8.7,24.3-11.2,26.3c-12.8,10.2-40.7,3.4-48-0.5c-7.3-3.9-11.2-13.8-15-27c-4.6-16.6-0.8-22.3,2.4-26.9
				c3.2-4.6,17.4-7.3,33.6-7.4c14.3-0.1,32.1,6.4,32.1,6.4C1057.9,364.2,1056.4,372.7,1055.1,388.7z"/>
				<g>
					<g>
						<g>
							<path
								fill="#3C3C3B"
								d="M1086.5,314.2c0,0-8.8-83.3-106.4-83.3c0,0-11.1-1.1-15.3,5.7c-4.2-6.8-15.3-5.7-15.3-5.7
							c-97.6,0-106.4,83.3-106.4,83.3c-4.4,42.1,25.2,22.5,48.2,9.4c6.6,28.1,36.2-15.9,40.6-22.5c8.8,18.7,26.3,1.9,31.8-10.3
							c0.4-0.8,0.7-1.6,1-2.4c0.3,0.8,0.7,1.6,1,2.4c5.5,12.2,23,29,31.8,10.3c4.4,6.6,34,50.6,40.6,22.5
							C1061.3,336.7,1090.9,356.3,1086.5,314.2z"/>
						</g>
						<g>
							<path fill="#3C3C3B" d="M900.8,239.3c-17.5-21.5,8.8-40.3,35.1-30c1.1-10.3,2.2-17.8,15.4-20.6c13.2-2.8,24.1,3.7,25.2,14
							c18.6-9.4,52.6,1.9,38.4,22.5c12.1,0.9,25.2,8.4,17.5,19.7"/>
						</g>
					</g>
				</g>
				<path
					fill="#631120"
					d="M924.7,463.2C924.7,463.2,924.6,463.2,924.7,463.2c-0.1,0.1-0.2,0.2-0.2,0.3c0,0.1-0.1,0.1-0.1,0.2
				c0,0,0,0,0,0c0,0.1,0,0.2,0,0.3c0,0,0,0.1,0,0.1c0,0,0,0,0,0c0,0.2,0.1,0.3,0.2,0.5c0.2,0.2,16.7,16.6,39.4,16.6l0,0
				c13.3,0,26.1-5.6,38.1-16.6c0,0,0,0,0,0c0,0,0-0.1,0.1-0.1c0.1-0.1,0.1-0.2,0.2-0.3c0,0,0,0,0,0c0-0.1,0-0.1,0-0.2
				c0-0.1,0-0.2,0-0.3c0,0,0,0,0,0c0-0.1-0.1-0.1-0.1-0.2c-0.1-0.1-0.1-0.2-0.2-0.2c0,0,0,0,0-0.1"/>
			</g>
		</g>
	</g>
	<g id="NOM_SANT_MARTI">
		<path
			opacity="0.4"
			fill="#FFFFFF"
			d="M1212.8,485.1l35.7-43.5c3.2-3.9,4.9-8.7,4.9-13.7v-49.4c0-7.9,6.4-14.3,14.3-14.3h360.9
		c7.6,0,13.7,6.1,13.7,13.7v102.2c0,7.5-4.4,13-11.9,13h-329c-7.5,0-13.7,5.8-13.7-1.7l0,1.7c0-7.1-6.5-1.7-13.4-0.1l-49.7,11.1
		C1213.6,506.8,1205.7,493.9,1212.8,485.1z"/>
		<path
			fill="none"
			stroke="#3D3D3C"
			stroke-width="11"
			stroke-linecap="round"
			stroke-miterlimit="10"
			d="M1214.6,485.1l35.7-43.5
		c3.2-3.9,4.9-8.7,4.9-13.7v-49.4c0-7.9,6.4-14.3,14.3-14.3h360.9c7.6,0,13.7,6.1,13.7,13.7v100.2c0,7.5-4.2,12.7-13.3,12.6
		l-327.4,2.1l0,0l0,0l-27.3,0.1l-49.7,11.1C1215.4,506.8,1207.4,493.9,1214.6,485.1z"/>
		<text transform="matrix(1 0 0 1 1299.3291 446.9335)" fill="#3D3D3B" font-family="'FuturaStd-Bold'" font-size="45.4336">SANT MART</text>
	</g>
	<g id="NOM_SERRIA_SANT_GERVASI">
		<path
			opacity="0.4"
			fill="#FFFFFF"
			d="M1212.8,658.1l35.7-43.5c3.2-3.9,4.9-8.7,4.9-13.7v-49.4c0-7.9,6.4-14.3,14.3-14.3h612
		c7.6,0,13.7,6.1,13.7,13.7v102.2c0,7.5-4.4,13-11.9,13h-580.1c-7.5,0-13.7,5.8-13.7-1.7l0,1.7c0-7.1-6.5-1.7-13.4-0.1l-49.7,11.1
		C1213.6,679.7,1205.7,666.8,1212.8,658.1z"/>
		<path
			fill="none"
			stroke="#3D3D3C"
			stroke-width="11"
			stroke-linecap="round"
			stroke-miterlimit="10"
			d="M1214.6,658.1l35.7-43.5
		c3.2-3.9,4.9-8.7,4.9-13.7v-49.4c0-7.9,6.4-14.3,14.3-14.3h612c7.6,0,13.7,6.1,13.7,13.7v100.2c0,7.5-4.2,12.7-13.3,12.6
		l-578.5,2.1l0,0l0,0l-27.3,0.1l-49.7,11.1C1215.4,679.7,1207.4,666.8,1214.6,658.1z"/>
		<text transform="matrix(1 0 0 1 1299.3291 619.8549)" fill="#3D3D3B" font-family="'FuturaStd-Bold'" font-size="45.4336">SERRI - SANT GERVASI</text>
	</g>
	<g id="NOM_CIUTAT_VELLA">
		<path
			opacity="0.4"
			fill="#FFFFFF"
			d="M1212.8,485.1l35.7-43.5c3.2-3.9,4.9-8.7,4.9-13.7v-49.4c0-7.9,6.4-14.3,14.3-14.3h360.9
		c7.6,0,13.7,6.1,13.7,13.7v102.2c0,7.5-4.4,13-11.9,13h-329c-7.5,0-13.7,5.8-13.7-1.7l0,1.7c0-7.1-6.5-1.7-13.4-0.1l-49.7,11.1
		C1213.6,506.8,1205.7,493.9,1212.8,485.1z"/>
		<path
			fill="none"
			stroke="#3D3D3C"
			stroke-width="11"
			stroke-linecap="round"
			stroke-miterlimit="10"
			d="M1214.6,485.1l35.7-43.5
		c3.2-3.9,4.9-8.7,4.9-13.7v-49.4c0-7.9,6.4-14.3,14.3-14.3h360.9c7.6,0,13.7,6.1,13.7,13.7v100.2c0,7.5-4.2,12.7-13.3,12.6
		l-327.4,2.1l0,0l0,0l-27.3,0.1l-49.7,11.1C1215.4,506.8,1207.4,493.9,1214.6,485.1z"/>
		<text transform="matrix(1 0 0 1 1299.3291 446.9335)" fill="#3D3D3B" font-family="'FuturaStd-Bold'" font-size="45.4336">CIUTAT VELLA</text>
	</g>
	<g id="NOM_SANTS_MONTJUIC">
		<path
			opacity="0.4"
			fill="#FFFFFF"
			d="M1212.8,658.1l35.7-43.5c3.2-3.9,4.9-8.7,4.9-13.7v-49.4c0-7.9,6.4-14.3,14.3-14.3h514.6
		c7.6,0,13.7,6.1,13.7,13.7v102.2c0,7.5-4.4,13-11.9,13h-482.7c-7.5,0-13.7,5.8-13.7-1.7l0,1.7c0-7.1-6.5-1.7-13.4-0.1l-49.7,11.1
		C1213.6,679.7,1205.7,666.8,1212.8,658.1z"/>
		<path
			fill="none"
			stroke="#3D3D3C"
			stroke-width="11"
			stroke-linecap="round"
			stroke-miterlimit="10"
			d="M1214.6,658.1l35.7-43.5
		c3.2-3.9,4.9-8.7,4.9-13.7v-49.4c0-7.9,6.4-14.3,14.3-14.3H1784c7.6,0,13.7,6.1,13.7,13.7v100.2c0,7.5-4.2,12.7-13.3,12.6
		l-481.1,2.1l0,0l0,0l-27.3,0.1l-49.7,11.1C1215.4,679.7,1207.4,666.8,1214.6,658.1z"/>
		<text transform="matrix(1 0 0 1 1299.3291 619.8549)" fill="#3D3D3B" font-family="'FuturaStd-Bold'" font-size="45.4336">SANTS - MONTJUC</text>
	</g>
	<g id="NOM_LES_CORTS">
		<path
			opacity="0.4"
			fill="#FFFFFF"
			d="M1212.8,307.5l35.7-43.5c3.2-3.9,4.9-8.7,4.9-13.7V201c0-7.9,6.4-14.3,14.3-14.3h289.1
		c7.6,0,13.7,6.1,13.7,13.7v102.2c0,7.5-4.4,13-11.9,13h-257.2c-7.5,0-13.7,5.8-13.7-1.7l0,1.7c0-7.1-6.5-1.7-13.4-0.1l-49.7,11.1
		C1213.6,329.1,1205.7,316.2,1212.8,307.5z"/>
		<path
			fill="none"
			stroke="#3D3D3C"
			stroke-width="11"
			stroke-linecap="round"
			stroke-miterlimit="10"
			d="M1214.6,307.5l35.7-43.5
		c3.2-3.9,4.9-8.7,4.9-13.7V201c0-7.9,6.4-14.3,14.3-14.3h289.1c7.6,0,13.7,6.1,13.7,13.7v100.2c0,7.5-4.2,12.7-13.3,12.6
		l-255.6,2.1l0,0l0,0l-27.3,0.1l-49.7,11.1C1215.4,329.1,1207.4,316.2,1214.6,307.5z"/>
		<text transform="matrix(1 0 0 1 1299.3291 269.2782)" fill="#3D3D3B" font-family="'FuturaStd-Bold'" font-size="45.4336">LES CORTS</text>
	</g>
	<g id="NOM_GRACIA">
		<path
			opacity="0.4"
			fill="#FFFFFF"
			d="M1212.8,307.5l35.7-43.5c3.2-3.9,4.9-8.7,4.9-13.7V201c0-7.9,6.4-14.3,14.3-14.3h289.1
		c7.6,0,13.7,6.1,13.7,13.7v102.2c0,7.5-4.4,13-11.9,13h-257.2c-7.5,0-13.7,5.8-13.7-1.7l0,1.7c0-7.1-6.5-1.7-13.4-0.1l-49.7,11.1
		C1213.6,329.1,1205.7,316.2,1212.8,307.5z"/>
		<path
			fill="none"
			stroke="#3D3D3C"
			stroke-width="11"
			stroke-linecap="round"
			stroke-miterlimit="10"
			d="M1214.6,307.5l35.7-43.5
		c3.2-3.9,4.9-8.7,4.9-13.7V201c0-7.9,6.4-14.3,14.3-14.3h289.1c7.6,0,13.7,6.1,13.7,13.7v100.2c0,7.5-4.2,12.7-13.3,12.6
		l-255.6,2.1l0,0l0,0l-27.3,0.1l-49.7,11.1C1215.4,329.1,1207.4,316.2,1214.6,307.5z"/>
		<text transform="matrix(1 0 0 1 1299.3291 269.2782)" fill="#3D3D3B" font-family="'FuturaStd-Bold'" font-size="45.4336">GRCIA</text>
	</g>
	<g id="NOM_HORTA_GUINARDO">
		<path
			opacity="0.4"
			fill="#FFFFFF"
			d="M1212.8,658.1l35.7-43.5c3.2-3.9,4.9-8.7,4.9-13.7v-49.4c0-7.9,6.4-14.3,14.3-14.3h532.4
		c7.6,0,13.7,6.1,13.7,13.7v102.2c0,7.5-4.4,13-11.9,13h-500.4c-7.5,0-13.7,5.8-13.7-1.7l0,1.7c0-7.1-6.5-1.7-13.4-0.1l-49.7,11.1
		C1213.6,679.7,1205.7,666.8,1212.8,658.1z"/>
		<path
			fill="none"
			stroke="#3D3D3C"
			stroke-width="11"
			stroke-linecap="round"
			stroke-miterlimit="10"
			d="M1214.6,658.1l35.7-43.5
		c3.2-3.9,4.9-8.7,4.9-13.7v-49.4c0-7.9,6.4-14.3,14.3-14.3h532.4c7.6,0,13.7,6.1,13.7,13.7v100.2c0,7.5-4.2,12.7-13.3,12.6
		l-498.8,2.1l0,0l0,0l-27.3,0.1l-49.7,11.1C1215.4,679.7,1207.4,666.8,1214.6,658.1z"/>
		<text transform="matrix(1 0 0 1 1299.3291 619.8549)" fill="#3D3D3B" font-family="'FuturaStd-Bold'" font-size="45.4336">HORTA - GUINARD</text>
	</g>
	<g id="NOM_SANT_ANDREU">
		<path
			opacity="0.4"
			fill="#FFFFFF"
			d="M1212.8,485.1l35.7-43.5c3.2-3.9,4.9-8.7,4.9-13.7v-49.4c0-7.9,6.4-14.3,14.3-14.3h390.5
		c7.6,0,13.7,6.1,13.7,13.7v102.2c0,7.5-4.4,13-11.9,13h-358.6c-7.5,0-13.7,5.8-13.7-1.7l0,1.7c0-7.1-6.5-1.7-13.4-0.1l-49.7,11.1
		C1213.6,506.8,1205.7,493.9,1212.8,485.1z"/>
		<path
			fill="none"
			stroke="#3D3D3C"
			stroke-width="11"
			stroke-linecap="round"
			stroke-miterlimit="10"
			d="M1214.6,485.1l35.7-43.5
		c3.2-3.9,4.9-8.7,4.9-13.7v-49.4c0-7.9,6.4-14.3,14.3-14.3h390.5c7.6,0,13.7,6.1,13.7,13.7v100.2c0,7.5-4.2,12.7-13.3,12.6
		l-357,2.1l0,0l0,0l-27.3,0.1l-49.7,11.1C1215.4,506.8,1207.4,493.9,1214.6,485.1z"/>
		<text transform="matrix(1 0 0 1 1299.3291 446.9335)" fill="#3D3D3B" font-family="'FuturaStd-Bold'" font-size="45.4336">SANT ANDREU</text>
	</g>
	<g id="NOM_EIXAMPLE">
		<path
			opacity="0.4"
			fill="#FFFFFF"
			d="M1212.8,307.5l35.7-43.5c3.2-3.9,4.9-8.7,4.9-13.7V201c0-7.9,6.4-14.3,14.3-14.3h289.1
		c7.6,0,13.7,6.1,13.7,13.7v102.2c0,7.5-4.4,13-11.9,13h-257.2c-7.5,0-13.7,5.8-13.7-1.7l0,1.7c0-7.1-6.5-1.7-13.4-0.1l-49.7,11.1
		C1213.6,329.1,1205.7,316.2,1212.8,307.5z"/>
		<path
			fill="none"
			stroke="#3D3D3C"
			stroke-width="11"
			stroke-linecap="round"
			stroke-miterlimit="10"
			d="M1214.6,307.5l35.7-43.5
		c3.2-3.9,4.9-8.7,4.9-13.7V201c0-7.9,6.4-14.3,14.3-14.3h289.1c7.6,0,13.7,6.1,13.7,13.7v100.2c0,7.5-4.2,12.7-13.3,12.6
		l-255.6,2.1l0,0l0,0l-27.3,0.1l-49.7,11.1C1215.4,329.1,1207.4,316.2,1214.6,307.5z"/>
		<text transform="matrix(1 0 0 1 1299.3291 269.2782)" fill="#3D3D3B" font-family="'FuturaStd-Bold'" font-size="45.4336">EIXAMPLE</text>
	</g>
	<g id="NOM_NOU_BARRIS">
		<path
			opacity="0.4"
			fill="#FFFFFF"
			d="M1212.8,485.1l35.7-43.5c3.2-3.9,4.9-8.7,4.9-13.7v-49.4c0-7.9,6.4-14.3,14.3-14.3h359.2
		c7.6,0,13.7,6.1,13.7,13.7v102.2c0,7.5-4.4,13-11.9,13h-327.3c-7.5,0-13.7,5.8-13.7-1.7l0,1.7c0-7.1-6.5-1.7-13.4-0.1l-49.7,11.1
		C1213.6,506.8,1205.7,493.9,1212.8,485.1z"/>
		<path
			fill="none"
			stroke="#3D3D3C"
			stroke-width="11"
			stroke-linecap="round"
			stroke-miterlimit="10"
			d="M1214.6,485.1l35.7-43.5
		c3.2-3.9,4.9-8.7,4.9-13.7v-49.4c0-7.9,6.4-14.3,14.3-14.3h359.2c7.6,0,13.7,6.1,13.7,13.7v100.2c0,7.5-4.2,12.7-13.3,12.6
		l-325.7,2.1l0,0l0,0l-27.3,0.1l-49.7,11.1C1215.4,506.8,1207.4,493.9,1214.6,485.1z"/>
		<text transform="matrix(1 0 0 1 1299.3291 446.9335)" fill="#3D3D3B" font-family="'FuturaStd-Bold'" font-size="45.4336">NOU BARRIS</text>
	</g>
	<g id="PREGUNTA_CAST" display="none">
		<path
			display="inline"
			opacity="0.4"
			fill="#FFFFFF"
			d="M753.3,428.8l-35.7-43.5c-3.2-3.9-4.9-8.7-4.9-13.7v-49.4
		c0-7.9-6.4-14.3-14.3-14.3H172.8c-7.6,0-13.7,6.1-13.7,13.7v291.6c0,7.5,6,13.5,13.5,13.5h492c7.5,0,13.6-6.1,13.6-13.6V447.6
		c0-7.1,6.6-12.4,13.6-10.9l49.7,11.1C752.5,450.4,760.4,437.5,753.3,428.8z"/>
		<path
			display="inline"
			fill="none"
			stroke="#3D3D3C"
			stroke-width="11"
			stroke-miterlimit="10"
			d="M753.3,431.5L717.6,388
		c-3.2-3.9-4.9-8.7-4.9-13.7v-49.4c0-7.9-6.4-14.3-14.3-14.3H172.8c-7.6,0-13.7,6.1-13.7,13.7V616c0,7.5,6,13.5,13.5,13.5h492
		c7.5,0,13.6-6.1,13.6-13.6V450.3c0-7.1,6.6-12.4,13.6-10.9l49.7,11.1C752.5,453.1,760.4,440.2,753.3,431.5z"/>

		<line display="inline" fill="none" stroke="#3D3D3C" stroke-width="11" stroke-linecap="round" stroke-miterlimit="10" x1="193.4" y1="418.5" x2="335.3" y2="418.5"/>
		<rect x="187.5" y="346" display="inline" fill="none" width="486.9" height="258"/>
		<text transform="matrix(1 0 0 1 187.4713 389.3755)" display="inline">
			<tspan x="0" y="0" fill="#3D3D3B" font-family="'FuturaStd-Medium'" font-size="50">ME AYUDAS ?</tspan>
			<tspan x="0" y="157.2" fill="#3D3D3B" font-family="'FuturaStd-Bold'" font-size="41">DE QUE
			</tspan>
			<tspan x="0" y="206.4" fill="#3D3D3B" font-family="'FuturaStd-Bold'" font-size="41">DISTRITO SOY?</tspan>
		</text>
	</g>
	<g id="PREGUNTA_CAT">
		<path
			opacity="0.4"
			fill="#FFFFFF"
			d="M752.4,427.6l-35.7-43.5c-3.2-3.9-4.9-8.7-4.9-13.7v-49.4c0-7.9-6.4-14.3-14.3-14.3H172
		c-7.6,0-13.7,6.1-13.7,13.7v291.6c0,7.5,6,13.5,13.5,13.5h492c7.5,0,13.6-6.1,13.6-13.6V446.4c0-7.1,6.6-12.4,13.6-10.9l49.7,11.1
		C751.6,449.2,759.5,436.3,752.4,427.6z"/>
		<path
			fill="none"
			stroke="#3D3D3C"
			stroke-width="11"
			stroke-miterlimit="10"
			d="M752.4,430.3l-35.7-43.5
		c-3.2-3.9-4.9-8.7-4.9-13.7v-49.4c0-7.9-6.4-14.3-14.3-14.3H172c-7.6,0-13.7,6.1-13.7,13.7v291.6c0,7.5,6,13.5,13.5,13.5h492
		c7.5,0,13.6-6.1,13.6-13.6V449.1c0-7.1,6.6-12.4,13.6-10.9l49.7,11.1C751.6,451.9,759.5,439,752.4,430.3z"/>
		<rect x="187.5" y="346" fill="none" width="486.9" height="258"/>
		<text transform="matrix(1 0 0 1 187.4713 389.3755)">
			<tspan x="0" y="0" fill="#3D3D3B" font-family="'FuturaStd-Medium'" font-size="50">MAJUDES ?</tspan>
			<tspan x="0" y="157.2" fill="#3D3D3B" font-family="'FuturaStd-Bold'" font-size="41">DE QUIN</tspan>
			<tspan x="0" y="206.4" fill="#3D3D3B" font-family="'FuturaStd-Bold'" font-size="41">DISTRICTE SC?</tspan>
		</text>

		<line fill="none" stroke="#3D3D3C" stroke-width="11" stroke-linecap="round" stroke-miterlimit="10" x1="192.5" y1="417.3" x2="334.4" y2="417.3"/>
	</g>
</svg>
