<?xml version="1.0" encoding="utf-8"?>
<!-- Generator: Adobe Illustrator 18.0.0, SVG Export Plug-In . SVG Version: 6.00 Build 0)  -->
<!DOCTYPE svg PUBLIC "-//W3C//DTD SVG 1.1//EN" "http://www.w3.org/Graphics/SVG/1.1/DTD/svg11.dtd">
<svg version="1.1" xmlns="http://www.w3.org/2000/svg" xmlns:xlink="http://www.w3.org/1999/xlink" x="0px" y="0px" viewBox="0 0 1920.1 1081" enable-background="new 0 0 1920.1 1081" xml:space="preserve">
	<g id="FONS">
		<rect x="-1" y="-0.5" fill="#F39669" width="1920.1" height="1080"/>
		<path opacity="0.8" fill="#E5E6E5" d="M1377.2,983.5l-320-984.2H871.7l-320,984.2c-2.4,3.7-3.7,7.5-3.7,11.3
		c0,47.1,186.5,85.3,416.5,85.3s416.5-38.1,416.5-85.2C1380.9,990.9,1379.7,987.2,1377.2,983.5z"/>
	</g>
	<g id="BAFARADA_SABATES">
		<path
			fill="#FFFFFF"
			d="M1552.8,430v11.6c0,6.7,2.1,144.7,5.8,149.5l36.1,46.5c7.7,9.9,7.7,26,0,35.9l-32.5,41.9
		c-3.7,4.8-5.8,11.2-5.8,18l-1.2,153.2c0,14-8.8,25.4-19.7,25.4h-352.3c-10.9,0-19.7-11.3-19.7-25.3V430c0-14.1,7.9-21.9,18.8-21.9
		h349.9C1543,408.2,1552.8,415.9,1552.8,430z"/>
		<path
			fill="#858686"
			d="M1535.4,917.4h-351.2c-13.9,0-25.2-13.8-25.2-30.8V430c0-8.6,2.6-15.8,7.5-20.7c4.3-4.4,10.2-6.6,16.8-6.6
		h348.9c13,0,26.2,9.4,26.2,27.3v11.6c0,14.9,2.2,134.4,5.1,146.7l35.6,45.8c9.3,12,9.3,30.7,0,42.7l-32.5,41.9
		c-2.9,3.8-4.6,9.1-4.6,14.6l-1.2,153.3C1560.6,903.6,1549.3,917.4,1535.4,917.4z M1183.3,413.7c-3.7,0-6.8,1.2-9,3.4
		c-2.8,2.8-4.3,7.3-4.3,12.9v456.6c0,10.7,6.5,19.8,14.2,19.8h351.2c7.7,0,14.2-9.1,14.2-19.9l1.2-153.3c0-8,2.5-15.5,6.9-21.3
		l32.5-41.9c6.1-7.9,6.1-21.3,0-29.2l-36.1-46.5c-1.7-2.2-3.4-4.4-5.4-77.2c-1-35.9-1.5-72.3-1.5-75.6V430
		c0-11.3-7.6-16.3-15.2-16.3H1183.3z"/>
		<polygon fill="#FBCC9A" points="1212.7,472.4 1208.8,479.3 1208.8,486.9 1253.8,486.9 1253.8,479.2 	"/>
		<polygon fill="#645030" points="1208.8,483.1 1208.8,486.9 1253.8,486.9 1253.8,483 	"/>
		<polygon fill="#FBCC9A" points="1273.4,487 1318,487 1318,479.7 1314.1,473 1273.4,479.5 	"/>
		<polygon fill="#645030" points="1273.4,483.4 1273.4,487.3 1318.7,487.3 1318.7,483.5 	"/>
		<polygon fill="#645030" points="1314.8,472.8 1311.4,473.4 1317.2,484.2 1318.7,487.3 1318.7,479.7 	"/>
		<g>
			<polygon fill="#FBCC9A" points="1212.7,561.4 1208.8,568.1 1208.8,575.5 1253.8,575.5 1253.8,568 		"/>
			<polygon fill="#40572C" points="1208.8,571.8 1208.8,575.5 1253.8,575.5 1253.8,571.7 		"/>
			<polygon fill="#40572C" points="1212.6,561.4 1208.8,568.1 1208.8,575.5 1210.2,572.5 1215.9,561.9 		"/>
			<polygon fill="#40572C" points="1220.8,562.7 1215.9,561.9 1225.1,573.2 1229.3,573.2 		"/>
		</g>
		<polygon fill="#FBCC9A" points="1314.4,561.1 1273.1,567.7 1273.1,575.2 1318.2,575.2 1318.2,567.8 	"/>
		<polygon fill="#40572C" points="1273.1,571.7 1273.1,575.5 1318.2,575.5 1318.2,571.8 	"/>
		<polygon fill="#40572C" points="1314.4,561.1 1311.2,561.6 1316.9,572.2 1318.2,575.2 1318.2,567.8 	"/>
		<polygon fill="#40572C" points="1308.7,562 1300.1,572.5 1304.4,572.5 1313.6,561.2 	"/>
		<polygon fill="#3D3D3B" points="1434.4,487.1 1387.9,487.1 1387.9,479.3 1391.9,472.2 1434.4,479.1 	"/>
		<polygon fill="#3D3D3B" points="1454.1,486.9 1500.9,487.1 1500.9,481.7 1497.3,474.4 1454.5,478.9 	"/>
		<polygon fill="#3D3F91" points="1391.9,561.3 1387.9,568.4 1387.9,576.1 1434.4,576.1 1434.4,568.2 	"/>
		<polygon fill="#3D3F91" points="1454.1,575.9 1500.9,576.1 1500.9,570.8 1497.3,563.4 1454.5,568 	"/>
		<polygon fill="#3D3D3B" points="1273.4,849.6 1322,849.8 1322,842.1 1318,835 1273.4,828.8 	"/>
		<g>
			<polygon fill="#3D3D3B" points="1230.3,815.3 1205.4,820.6 1210.3,835 1206.3,842.1 1206.3,849.8 1253.4,849.9 1253.4,828.8
			1229.5,832.2 		"/>
			<polygon fill="#3D3D3B" points="1297.2,815.2 1298.3,838.1 1318,835.2 1322.1,821 		"/>
		</g>
		<polygon fill="#4BB1B3" points="1434.9,765.3 1387.9,765.3 1387.9,757.4 1391.9,750.2 1435.2,750.2 	"/>
		<polygon fill="#4BB1B3" points="1455.1,765.2 1502.1,765.2 1502.1,757.4 1498.1,750.2 1455.1,750.2 	"/>
		<polygon fill="#531E53" points="1433.3,847.8 1387.9,847.8 1387.9,840.2 1391.8,833.2 1434.9,818.5 	"/>
		<polygon fill="#531E53" points="1458.1,847.8 1503.6,847.8 1503.6,840.2 1499.7,833.2 1456.5,818.4 	"/>
		<polygon fill="#958218" points="1253,671.6 1207.5,671.6 1207.5,664 1211.4,657 1253,663.8 	"/>
		<polygon fill="#958218" points="1272.6,671.6 1318.1,671.6 1318.1,664 1314.2,657 1272.6,663.8 	"/>
		<g>
			<polygon fill="#958218" points="1211.4,658.3 1222.4,660.1 1224.9,639.5 1204.9,639.5 		"/>
			<polygon fill="#958218" points="1300.6,639.5 1303.2,660.1 1314.1,658.3 1320.6,639.5 		"/>
		</g>
		<g>
			<g>
				<polygon fill="#9B4517" points="1428.5,666.7 1387.3,671.7 1387.3,659.8 1390.8,653.5 1428.5,659.7 			"/>
				<polygon fill="#9B4517" points="1460,666.7 1501.3,671.7 1501.3,659.8 1497.7,653.5 1460,659.7 			"/>
			</g>
			<polygon fill="#9B4517" points="1416.3,664 1416.3,671.7 1428.5,671.7 1428.5,666.7 		"/>
			<polygon fill="#9B4517" points="1460,666.7 1460,671.7 1472.2,671.7 1472.2,664 		"/>
		</g>
		<polygon fill="#253E1E" points="1248,764.3 1207.2,764.3 1207.2,757.4 1210.7,750.7 1248,756.8 	"/>
		<polygon fill="#253E1E" points="1271.8,764.3 1312.6,764.3 1312.6,757.4 1309.1,750.7 1271.8,756.8 	"/>
		<g>
			<polygon fill="#253E1E" points="1210.7,757.2 1220.6,758.8 1222.9,740.4 1204.9,740.4 		"/>
			<polygon fill="#253E1E" points="1296.8,740.4 1299.1,758.8 1309,757.2 1314.8,740.4 		"/>
		</g>
		<polygon fill="#645030" points="1212.6,472.4 1215.9,473 1210.1,483.8 1208.7,486.9 1208.7,479.3 	"/>
	</g>
	<g id="BAFARADA_PANTALO">
		<path
			fill="#FFFFFF"
			d="M1552.8,90.6v226.2c0,6.7,2.1,13.2,5.8,18l36.1,46.5c7.7,9.9,7.7,26,0,35.9l-32.5,41.9
		c-3.7,4.8-5.8,11.2-5.8,18v493.5c0,14-8.8,25.4-19.7,25.4h-352.3c-10.9,0-19.7-11.3-19.7-25.3l-1.2-880c0-14.1,7.9-21.9,18.8-21.9
		h349.9C1543,68.8,1552.8,76.5,1552.8,90.6z"/>
		<path
			fill="#858686"
			d="M1536.6,1001.4h-352.3c-13.9,0-25.2-13.8-25.2-30.8l-1.2-880c0-8.6,2.6-15.8,7.5-20.7
		c4.3-4.4,10.2-6.7,16.8-6.7h349.9c13,0,26.2,9.4,26.2,27.3v226.2c0,5.5,1.7,10.8,4.6,14.6l36.1,46.5c9.3,12,9.3,30.7,0,42.7
		l-32.5,41.9c-2.9,3.8-4.6,9.1-4.6,14.6v493.5C1561.9,987.6,1550.5,1001.4,1536.6,1001.4z M1182.2,74.3c-3.7,0-6.8,1.2-9,3.4
		c-2.8,2.8-4.3,7.3-4.3,12.9l1.2,880c0,10.7,6.5,19.8,14.2,19.8h352.3c7.7,0,14.2-9.1,14.2-19.9V477c0-8,2.5-15.6,6.9-21.3
		l32.5-41.9c6.1-7.9,6.1-21.3,0-29.2l-36.1-46.5c-4.5-5.8-6.9-13.3-6.9-21.3V90.6c0-11.3-7.6-16.3-15.2-16.3H1182.2z"/>
		<path fill="#70706F" d="M1322.8,912l-11.2-51h-85.7l-8.9,51.7l43.8,3.2l-0.7-29.5c0.2-3.5,3.2-6.3,6.7-6.3h4.9
		c3.5,0,6.5,2.8,6.7,6.3l-0.7,29.5L1322.8,912z"/>
		<path fill="#512A14" d="M1227.8,118.9c0,0,8.5-8,16.7-6.4v4.3v23v5.8v18.8l49.6,0.6v-52.5c0,0,12.4,1,17,5.6l7.9,196.9l-34.7,5.7
		l-5.4-84.1c-0.2-3.5-3.2-6.3-6.7-6.3h-4.8c-3.5,0-6.5,2.8-6.7,6.3l-5.3,84.1l-34.7-5.7l5.6-154.3L1227.8,118.9z"/>
		<path id="pantalones_2_2_" fill="#5F64AA" d="M1320.4,750.6l-7.2-106.5h-87.7l-6.1,106.5l35.7,5.8l5.4-86.3
		c0.2-3.6,3.3-6.5,6.9-6.5h5c3.6,0,6.7,2.9,6.9,6.5l5.5,86.3L1320.4,750.6z"/>
		<path fill="#CCCC99" d="M1495.5,921.9l-6.6-75.5H1446h-44.3l-4.3,76.1h37.3l1.8-50.2c0.2-3.6,3.3-6.5,6.9-6.5h4.9
		c3.6,0,6.6,2.9,6.9,6.5l2.9,50.1L1495.5,921.9z"/>
		<path fill="#9A6633" d="M1490.3,650.4h-88.7l-4.2,73.4l-1,18.4h36.5l4.1-65.5c0.2-3.6,3.4-6.6,7-6.6h5c3.6,0,6.8,2.9,7,6.6
		l4.2,65.5h36.4L1490.3,650.4z"/>
		<polygon fill="#CB9866" points="1397.1,728.9 1396.4,742.2 1432.9,742.2 1433.7,728.9 	"/>
		<polygon fill="#CB9866" points="1495.6,728.9 1496.6,742.2 1460.2,742.2 1459.3,728.9 	"/>
		<polyline fill="#9ACDCD" points="1462.4,294 1500.4,287.8 1492.7,174.2 1399.1,174.2 1392.6,287.8 1430.7,294 	"/>
		<circle fill="#3D64AD" cx="1428.5" cy="282.3" r="4.2"/>
		<circle fill="#3D64AD" cx="1443.5" cy="282.3" r="4.2"/>
		<circle fill="#3D64AD" cx="1456.1" cy="278.1" r="4.2"/>
		<circle fill="#3D64AD" cx="1465.3" cy="269" r="4.2"/>
		<circle fill="#3D64AD" cx="1473.7" cy="256.1" r="4.2"/>
		<circle fill="#3D64AD" cx="1477.9" cy="244.9" r="4.2"/>
		<circle fill="#3D64AD" cx="1482.1" cy="231.1" r="4.2"/>
		<circle fill="#3D64AD" cx="1485" cy="217.4" r="4.2"/>
		<path fill="#33245E" d="M1255.7,519.7l-35,0.8l1.2-80.9l87.4-1.9l5.2,79l-19.9-15.8c-1.2-1-3-1.1-4.3-0.3L1258,519
		C1257.3,519.4,1256.5,519.6,1255.7,519.7z"/>
		<polygon fill="#CCCAE6" points="1475.7,434.8 1400.7,434.8 1383,509.7 1501.4,509.7 	"/>
	</g>
	<g id="BAFARADA_SAMARRETA">
		<path
			fill="#FFFFFF"
			d="M1552.8,75.7v11.6c0,6.7,2.1,13.2,5.8,18l36.1,46.5c7.7,9.9,7.7,26,0,35.9l-32.5,41.9
		c-3.7,4.8-5.8,11.2-5.8,18V818c0,14-8.8,25.4-19.7,25.4h-352.3c-10.9,0-19.7-11.3-19.7-25.3l-1.2-742.3c0-14.1,7.9-21.9,18.8-21.9
		h349.9C1543,53.9,1552.8,61.6,1552.8,75.7z"/>
		<path
			fill="#858686"
			d="M1536.6,848.9h-352.3c-13.9,0-25.2-13.8-25.2-30.8l-1.2-742.3c0-8.6,2.6-15.8,7.5-20.7
		c4.3-4.4,10.2-6.6,16.8-6.6h349.9c13,0,26.2,9.4,26.2,27.3v11.6c0,5.5,1.7,10.8,4.6,14.6l36.1,46.5c9.3,12,9.3,30.7,0,42.7
		l-32.5,41.9c-2.9,3.8-4.6,9.1-4.6,14.6V818C1561.9,835,1550.5,848.9,1536.6,848.9z M1182.2,59.4c-3.7,0-6.8,1.2-9,3.4
		c-2.8,2.8-4.3,7.3-4.3,12.9l1.2,742.3c0,10.7,6.5,19.8,14.2,19.8h352.3c7.7,0,14.2-9.1,14.2-19.9V247.5c0-8,2.5-15.6,6.9-21.3
		l32.5-41.9c6.1-7.9,6.1-21.3,0-29.2l-36.1-46.5c-4.5-5.8-6.9-13.3-6.9-21.3V75.7c0-11.3-7.6-16.3-15.2-16.3H1182.2z"/>
		<g>
			<path
				fill="#E9CD02"
				d="M1497,731.7c-4.5-4.6-8.9-9.2-13.4-13.7l-1.8-1.8c-1.4-1.4-3.2-2.2-5-2.5c-0.4-0.1-0.7-0.3-1.1-0.3
			c-5.9-1.3-14.9-2.9-24.3-2.9c-9.4,0-18.5,1.6-24.4,2.9c-0.7,0.1-1.3,0.4-1.9,0.7c-1.2,0.4-2.3,1.1-3.2,2.1l-1.8,1.8
			c-4.5,4.5-9,9-13.4,13.6l12.8,12.4c0.3-0.3,0.7-0.7,1-1v41h62.1v-41.7c0.6,0.6,1.2,1.3,1.8,1.9L1497,731.7z"/>
			<path
				fill="#E9CD02"
				d="M1482.8,784.4h-63.1v-40.3l-0.5,0.5l-13.5-13.1l0.3-0.4c4.1-4.2,8.5-8.7,13.4-13.6l1.8-1.8
			c1-1,2.1-1.7,3.4-2.2c0.6-0.3,1.3-0.6,2-0.8c6-1.3,15.1-2.9,24.5-2.9c9.4,0,18.5,1.6,24.4,2.9c0.3,0.1,0.7,0.2,1.1,0.3
			c2,0.3,3.8,1.2,5.2,2.6l1.8,1.8c5,5,9.4,9.5,13.5,13.7l0.3,0.4l-13.6,13l-0.3-0.4c-0.3-0.3-0.6-0.7-1-1V784.4z M1420.7,783.4h61.1
			v-42.5l1.7,1.7c0.2,0.2,0.5,0.5,0.7,0.7l12.1-11.6c-3.9-4.1-8.2-8.5-13.1-13.4l-1.8-1.8c-1.3-1.3-2.9-2.1-4.7-2.4l-0.1,0
			c-0.4-0.1-0.7-0.3-1-0.3c-5.9-1.3-14.9-2.9-24.2-2.9c-9.4,0-18.4,1.6-24.3,2.9c-0.6,0.1-1.2,0.4-1.8,0.7c-1.2,0.5-2.3,1.1-3.1,2
			l-1.8,1.8c-4.8,4.8-9.1,9.1-13.1,13.2l12.1,11.7l1.5-1.5V783.4z"/>
		</g>
		<path
			fill="#805E39"
			d="M1334.4,328.6c-0.2-0.7-0.3-1.4-0.5-2.1l-0.4-1c-0.1-0.3-0.2-0.7-0.4-1c-0.4-0.6-0.7-1.3-1.2-1.9l-1.4-1.9
		c-0.2-0.3-0.5-0.6-0.7-0.9l-0.6-0.7c-1.1-1.3-2.1-2.5-3.2-3.8c-4.2-4.8-8.5-9.3-12.8-13.8c-4.3-4.5-8.7-8.9-13-13.3l-1.8-1.8
		c-1.4-1.4-3.1-2.2-4.8-2.4c-0.3-0.1-0.7-0.3-1-0.3c-5.7-1.3-14.5-2.8-23.6-2.8c-9.1,0-17.9,1.5-23.6,2.8c-0.7,0.1-1.3,0.4-1.9,0.7
		c-1.1,0.4-2.2,1.1-3.1,2l-1.8,1.8c-4.4,4.4-8.7,8.7-13,13.2c-4.3,4.5-8.6,8.9-12.8,13.7c-1.1,1.2-2.1,2.4-3.2,3.7l-1,1.3
		c-0.5,0.6-0.9,1.2-1.4,1.8l-0.7,0.9l-0.6,1c-0.4,0.6-0.8,1.3-1,1.9l-0.4,1l-0.2,1c-0.1,0.7-0.4,1.4-0.3,2.1
		c0.1,1.4,0.2,2.8,0.8,4.2c0.6,1.4,1.2,2.7,2,4c0.2,0.3,0.4,0.7,0.6,1l0.5,0.8l0.7,1.1c3.6,5.6,7.4,10.5,11.1,15.5l4.5,5.8
		l13.6-10.6l-4.4-5.6c-3.6-4.8-7.3-9.7-10.4-14.4l-0.7-1.1l0.4-0.5c0.9-1.1,1.8-2.2,2.8-3.3c3.9-4.4,8.1-8.8,12.3-13.1
		c0.3-0.3,0.6-0.6,0.9-1v39.7h60.2v-40.5c0.6,0.6,1.2,1.2,1.8,1.8c4.2,4.4,8.4,8.8,12.3,13.3c1,1.1,1.9,2.2,2.8,3.3l0.1,0.2
		l-0.9,1.4c-3.2,4.7-7,9.5-10.8,14.2l-4.5,5.5l13.3,10.9l4.6-5.7c3.9-4.9,7.8-9.8,11.5-15.3l0.7-1l0.9-1.4c0.8-1.3,1.6-2.6,2.2-4
		c0.4-0.7,0.6-1.4,0.8-2.1c0.2-0.7,0.3-1.4,0.4-2.1l0.1-1.1l0-0.5C1334.5,329,1334.5,328.8,1334.4,328.6z"/>
		<path
			fill="#3D3F91"
			d="M1334.7,614.2c-0.2-0.7-0.3-1.4-0.5-2.1l-0.4-1c-0.1-0.3-0.2-0.7-0.4-1c-0.4-0.6-0.7-1.3-1.2-1.9l-1.4-1.9
		c-0.2-0.3-0.5-0.6-0.7-0.9l-0.6-0.7c-1.1-1.3-2.1-2.5-3.2-3.8c-4.2-4.8-8.5-9.3-12.8-13.8c-4.3-4.5-8.7-8.9-13-13.3l-1.8-1.8
		c-1.4-1.4-3.1-2.2-4.8-2.4c-0.3-0.1-0.7-0.3-1-0.3c-5.7-1.3-14.5-2.8-23.6-2.8c-9.1,0-17.9,1.5-23.6,2.8c-0.7,0.1-1.3,0.4-1.9,0.7
		c-1.1,0.4-2.2,1.1-3.1,2l-1.8,1.8c-4.4,4.4-8.7,8.7-13,13.2c-4.3,4.5-8.6,8.9-12.8,13.7c-1.1,1.2-2.1,2.4-3.2,3.7l-1,1.3
		c-0.5,0.6-0.9,1.2-1.4,1.8l-0.7,0.9l-0.6,1c-0.4,0.6-0.8,1.3-1,1.9l-0.4,1l-0.2,1c-0.1,0.7-0.4,1.4-0.3,2.1
		c0.1,1.4,0.2,2.8,0.8,4.2c0.6,1.4,1.2,2.7,2,4c0.2,0.3,0.4,0.7,0.6,1l0.5,0.8l0.7,1.1c3.6,5.6,7.4,10.5,11.1,15.5l4.5,5.8
		l13.6-10.6l-4.4-5.6c-3.6-4.8-7.3-9.7-10.4-14.4l-0.7-1.1l0.4-0.5c0.9-1.1,1.8-2.2,2.8-3.3c3.9-4.4,8.1-8.8,12.3-13.1
		c0.3-0.3,0.6-0.6,0.9-1v39.7h60.2v-40.5c0.6,0.6,1.2,1.2,1.8,1.8c4.2,4.4,8.4,8.8,12.3,13.3c1,1.1,1.9,2.2,2.8,3.3l0.1,0.2
		l-0.9,1.4c-3.2,4.7-7,9.5-10.8,14.2l-4.5,5.5l13.3,10.9l4.6-5.7c3.9-4.9,7.8-9.8,11.5-15.3l0.7-1l0.9-1.4c0.8-1.3,1.6-2.6,2.2-4
		c0.4-0.7,0.6-1.4,0.8-2.1c0.2-0.7,0.3-1.4,0.4-2.1l0.1-1.1l0-0.5C1334.8,614.6,1334.7,614.4,1334.7,614.2z"/>
		<path
			fill="#9294C9"
			d="M1505.1,466.4c-4.2-4.8-6.5-7.2-10.8-11.7c-4.3-4.5-8.7-8.9-13-13.3l-1.8-1.8c-1.4-1.4-3.1-2.2-4.8-2.4
		c-0.3-0.1-0.7-0.3-1-0.3c-5.7-1.3-14.5-2.8-23.6-2.8c-9.1,0-17.9,1.5-23.6,2.8c-0.3,0.1-0.6,0.2-0.8,0.3c-1.9,0.2-3.7,1-5.1,2.5
		l-1.8,1.8c-4.4,4.4-8.7,8.7-13,13.2c-4.3,4.5-7.1,7-11.3,11.8h23.3c0.8-0.8,1.5-1.5,2.3-2.3v41.3h60.2v-40.6
		c0.6,0.6,1.1,1.1,1.7,1.7H1505.1z"/>
		<path
			fill="#6F8128"
			d="M1335,474.5c-0.2-0.7-0.3-1.4-0.5-2l-0.4-1c-0.1-0.3-0.2-0.7-0.4-1c-0.4-0.6-0.7-1.3-1.2-1.9l-1.4-1.9
		c-0.2-0.3-0.5-0.6-0.7-0.9l-0.6-0.7c-1.1-1.3-2.1-2.5-3.2-3.8c-4.2-4.8-8.5-9.3-12.8-13.8c-4.3-4.5-8.7-8.9-13-13.3l-1.8-1.8
		c-1.4-1.4-3.1-2.2-4.8-2.4c-0.3-0.1-0.7-0.3-1-0.3c-5.7-1.3-14.5-2.8-23.6-2.8c-9.1,0-17.9,1.5-23.6,2.8c-0.7,0.1-1.3,0.4-1.9,0.7
		c-1.1,0.4-2.2,1.1-3.1,2l-1.8,1.8c-4.4,4.4-8.7,8.7-13,13.2c-4.3,4.5-8.6,8.9-12.8,13.7c-1.1,1.2-2.1,2.4-3.2,3.7l-1,1.3
		c-0.5,0.6-0.9,1.2-1.4,1.8l-0.7,0.9l-0.6,1c-0.4,0.6-0.8,1.3-1,1.9l-0.4,1l-0.2,1c-0.1,0.7-0.4,1.4-0.3,2.1
		c0.1,1.4,0.2,2.8,0.8,4.2c0.6,1.4,1.2,2.7,2,4c0.2,0.3,0.4,0.7,0.6,1l0.5,0.8l0.7,1.1c3.6,5.6,7.4,10.5,11.1,15.5l4.5,5.8
		l13.6-10.6l-4.4-5.6c-3.6-4.8-7.3-9.7-10.4-14.4l-0.7-1.1l0.4-0.5c0.9-1.1,1.8-2.2,2.8-3.3c3.9-4.4,8.1-8.8,12.3-13.1
		c0.3-0.3,0.6-0.6,0.9-1V498h60.2v-40.5c0.6,0.6,1.2,1.2,1.8,1.8c4.2,4.4,8.4,8.8,12.3,13.3c1,1.1,1.9,2.2,2.8,3.3l0.1,0.2l-0.9,1.4
		c-3.2,4.7-7,9.5-10.8,14.2l-4.5,5.5l13.3,10.9l4.6-5.7c3.9-4.9,7.8-9.8,11.5-15.3l0.7-1l0.9-1.4c0.8-1.3,1.6-2.6,2.2-4
		c0.4-0.7,0.6-1.4,0.8-2.1c0.2-0.7,0.3-1.4,0.4-2.1l0.1-1.1l0-0.5C1335.1,474.8,1335,474.7,1335,474.5z"/>
		<path
			fill="#8E888C"
			d="M1251.8,428.4c0.1,1.2,0.1,1.8,0.9,2.9c2.9,3.6,4.5,6,2.3,10.6c-1.7,3.4,1.3,7.4,3.4,9.8
		c0.5,0.6,1.4-0.3,0.9-0.9c-2.4-2.8-4.8-6.7-1.9-10.5c0.8-1.1,0.6-1.6,0.5-2.9c-0.1-3.6-4.5-5.5-4.8-9
		C1253,427.6,1251.8,427.6,1251.8,428.4L1251.8,428.4z"/>
		<path
			fill="#8E888C"
			d="M1286.6,428.7c-0.2,2.9-3.9,5.9-4.8,8.8c-0.2,0.6-0.3,1.5,0,2.1c2.3,4.3,1.6,7.9-1.4,11.4
		c-0.5,0.6,0.4,1.5,0.9,0.9c2.5-3,4.2-5.7,3.5-9.7c-0.2-0.9-0.8-1.6-1.3-2.3c-1.7-2.3,1.3-5.9,2.7-7.3c1.2-1.3,1.6-2.3,1.8-4
		C1287.9,427.9,1286.6,427.9,1286.6,428.7L1286.6,428.7z"/>
		<g>
			<path
				fill="#0C7A9A"
				d="M1328.7,764.8l1.2-1.7c0.8-1.3,1.5-2.2,2.1-3.6c0.3-0.7,0.5-1.4,0.8-2.1c0.2-0.7,0.3-1.4,0.3-2.1l0.1-1.1
			l0-0.5c0-0.2-0.1-0.3-0.1-0.5c-0.2-0.7-0.3-1.4-0.5-2l-0.4-1c-0.1-0.3-0.2-0.7-0.5-1c-0.4-0.6-0.8-1.3-1.2-1.9l-1.4-1.8
			c-0.2-0.3-0.5-0.6-0.7-0.9l-0.6-0.7c-1.1-1.3-2.2-2.5-3.3-3.7c-4.3-4.7-8.7-9.1-13.1-13.5c-4.4-4.4-8.9-8.7-13.3-13l-1.8-1.7
			c-3.5-3.3-8.9-3.2-12.2,0.3c-3.3,3.5-3.1,8.9,0.3,12.2l1.8,1.7c4.4,4.2,8.8,8.5,13.1,12.8c4.3,4.3,8.6,8.6,12.6,13
			c1,1.1,2.9,2.8,3.8,3.8l0,0l-0.9,1.5"/>
			<path
				fill="#0C7A9A"
				d="M1219.7,758.4l1-0.6l0.9-0.9c0.9-1.1,1.8-2.2,2.7-3.3c3.8-4.5,7.9-9,12-13.4c4.1-4.4,8.3-8.9,12.5-13.3
			l1.7-1.8c3.3-3.4,3.2-8.8-0.2-12.2c-3.4-3.3-8.9-3.2-12.2,0.2l-1.7,1.8c-4.3,4.5-8.5,8.9-12.7,13.5c-4.2,4.5-8.4,9.1-12.5,14
			c-1,1.2-2.1,2.5-3.1,3.8l-1,1.3c-0.5,0.6-0.9,1.2-1.3,1.8l-0.7,0.9l-0.6,1c-0.4,0.6-0.8,1.3-0.9,2l-0.3,1l-0.2,1
			c-0.1,0.7-0.4,1.4-0.2,2.1c0.1,1.4,0.3,2.8,0.9,4.1c0.6,1.4,1.4,2.6,2.2,3.9c0.2,0.3,0.8,1.1,1,1.4l0.5,0.6"/>
			<g>
				<path fill="#0C7A9A" d="M1290.3,709.3c-5.7-1.1-14.5-2.5-23.6-2.3c-4.2,0.1-11.9,1.3-17.4,2.2c-3.2,0.5-5.6,1-6.2,1.1
				c-3.6,0.9-6.4,4.8-6.3,8.5l1.3,60.1l60.1-1.3l-1.3-60.1C1296.8,713.8,1293.9,710,1290.3,709.3z"/>
				<path
					fill="#0C7A9A"
					d="M1237.6,779.4l0-0.5l-1.3-60.1c-0.1-4,2.9-8,6.7-9c0.6-0.2,3.1-0.6,6.2-1.2c3.7-0.6,12.7-2.1,17.5-2.2
				c9.2-0.2,18.1,1.2,23.7,2.3c3.8,0.8,7,4.6,7.1,8.7l1.3,60.6L1237.6,779.4z M1268.5,707.5c-0.6,0-1.2,0-1.8,0
				c-4.7,0.1-13.7,1.6-17.3,2.2c-3,0.5-5.5,1-6.1,1.1c-3.3,0.8-6,4.5-5.9,8l1.3,59.6l59.1-1.3l-1.3-59.6c-0.1-3.5-2.9-7-6.2-7.7
				C1284.9,708.7,1276.9,707.5,1268.5,707.5z"/>
			</g>
			<path fill="#4BB1B3" d="M1247.4,709.1l12.4,15.1l5.4-17.2C1265.2,707.1,1248.4,708.1,1247.4,709.1z"/>
			<path fill="#4BB1B3" d="M1291.5,708.9l-11.7,14.9l-6.1-16.9C1273.7,706.9,1290.5,707.9,1291.5,708.9z"/>
			<polygon fill="#4BB1B3" points="1223.3,761.9 1209.7,770.5 1206.8,766.7 1220.6,757.8 		"/>
			<polygon fill="#4BB1B3" points="1313,759.8 1326,768.8 1328.7,764.8 1315.6,755.7 		"/>
			<path fill="#4BB1B3" d="M1283.6,733.8l-0.9,0c-0.9,0-1.7-0.7-1.7-1.6l0,0c0-0.9,0.7-1.7,1.6-1.7l0.9,0c0.9,0,1.7,0.7,1.7,1.6l0,0
			C1285.3,733.1,1284.5,733.8,1283.6,733.8z"/>
		</g>
		<g>
			<path
				fill="#9B4517"
				d="M1333.8,151.8c-0.2-0.7-0.3-1.4-0.5-2l-0.4-1c-0.1-0.3-0.2-0.7-0.4-1c-0.4-0.6-0.7-1.3-1.2-1.9l-1.4-1.9
			c-0.2-0.3-0.5-0.6-0.7-0.9l-0.6-0.7c-1.1-1.3-2.1-2.5-3.2-3.8c-4.2-4.8-8.5-9.3-12.8-13.8c-4.3-4.5-8.7-8.9-13-13.3l-1.8-1.8
			c-1.3-1.3-3-2.1-4.7-2.4c-0.2-0.1-0.5-0.1-0.7-0.2c-5.7-1.3-14.5-2.8-23.6-2.8c-8.6,0-16.9,1.4-22.6,2.6c-2-0.1-3.9,0.6-5.5,2.2
			l-2.8,2.7c-4.4,4.4-8.2,8.6-12.5,13c-4.3,4.5-8.6,8.9-12.8,13.7c-1.1,1.2-2.1,2.4-3.2,3.7l-1,1.3c-0.5,0.6-0.9,1.2-1.4,1.8
			l-0.7,0.9l-0.6,1c-0.4,0.6-0.8,1.3-1,1.9l-0.4,1l-0.2,1c-0.1,0.7-0.4,1.4-0.3,2.1c0.1,1.4,0.2,2.8,0.8,4.2c0.6,1.4,1.2,2.7,2,4
			c0.2,0.3,0.4,0.7,0.6,1l0.5,0.8l0.7,1.1c3.6,5.6,7.4,10.5,11.1,15.5l4.5,5.8l13.8-11.3l-4.6-5.7c-3.6-4.8-7.3-8.9-10.4-13.6
			l-0.7-1.1l0.4-0.5c0.9-1.1,1.8-2.2,2.8-3.3c3.9-4.4,8.1-8.8,12.3-13.1c0.3-0.3,0.6-0.6,0.9-1v39.7l-18.4,37.8h95l-16.4-37.8v-40.1
			c0.4,0.4,0.8,0.9,1.3,1.3c4.2,4.4,8.4,8.8,12.3,13.3c1,1.1,1.9,2.2,2.8,3.3l0.1,0.2l-0.9,1.4c-3.2,4.7-7,9.5-10.8,14.2l-4.5,5.5
			l13.3,10.9l4.6-5.7c3.9-4.9,7.8-9.8,11.5-15.3l0.7-1l0.9-1.4c0.8-1.3,1.6-2.6,2.2-4c0.4-0.7,0.6-1.4,0.8-2.1
			c0.2-0.7,0.3-1.4,0.4-2.1l0.1-1.1l0-0.5C1333.9,152.2,1333.8,152,1333.8,151.8z"/>
			<path
				fill="#9B4517"
				d="M1316.2,213.8h-96.5l18.7-38.5v-0.9l-14.3,11.6l-4.8-6.2c-4.2-5.5-7.7-10.1-11.2-15.5l-1.2-1.8
			c-0.2-0.3-0.4-0.7-0.6-1c-0.8-1.4-1.5-2.8-2-4.1c-0.6-1.5-0.7-2.9-0.8-4.3c-0.1-0.6,0-1.2,0.2-1.7c0-0.2,0.1-0.3,0.1-0.5l0.2-1
			l0.4-1.1c0.2-0.6,0.5-1.2,0.9-1.8l0.7-1.2l0.7-1c0.2-0.2,0.3-0.5,0.5-0.7c0.3-0.4,0.6-0.8,0.9-1.2l1-1.3c1-1.1,2-2.3,3.2-3.7
			c4-4.5,8.1-8.8,12.8-13.7c1.7-1.8,3.4-3.6,5-5.3c2.4-2.5,4.8-5.1,7.4-7.7l2.8-2.7c1.6-1.6,3.6-2.4,5.8-2.3
			c5.5-1.2,14-2.6,22.7-2.6c9.1,0,17.9,1.5,23.7,2.8c0.3,0.1,0.5,0.1,0.7,0.2c1.8,0.3,3.5,1.2,4.9,2.5l1.8,1.8
			c4.9,4.9,9.1,9.3,13,13.3c3.9,4.1,8.5,8.9,12.9,13.9c1,1.1,2.1,2.4,3.2,3.8l0.6,0.7c0.2,0.3,0.5,0.6,0.7,0.9l1.4,1.9
			c0.3,0.4,0.5,0.9,0.8,1.3c0.1,0.2,0.3,0.5,0.4,0.7c0.2,0.3,0.3,0.6,0.4,0.9l0.4,1.2c0.1,0.5,0.2,0.9,0.3,1.4
			c0.1,0.2,0.1,0.5,0.2,0.7c0,0.1,0,0.1,0,0.2c0,0.1,0.1,0.3,0.1,0.5l-0.1,1.6c-0.1,0.8-0.2,1.5-0.4,2.2c-0.1,0.2-0.1,0.4-0.2,0.6
			c-0.2,0.5-0.4,1.1-0.7,1.6c-0.6,1.3-1.3,2.5-2.1,3.8l-1.1,1.6l-0.7,1.1c-3.7,5.4-7.4,10.1-11.6,15.3l-4.9,6.1l-13.2-10.8
			L1316.2,213.8z M1221.2,212.8h93.4l-16.2-37.2v-41.4l2.1,2.2c4.1,4.2,8.3,8.8,12.3,13.3c0.9,1,1.9,2.2,2.8,3.3l0.4,0.4l-1.2,1.7
			c-3.3,4.7-7.1,9.6-10.8,14.2l-4.2,5.2l12.6,10.3l4.3-5.3c4.1-5.2,7.8-9.9,11.5-15.2l1.7-2.6c0.7-1.2,1.5-2.4,2-3.7
			c0.3-0.5,0.4-1,0.6-1.5c0.1-0.2,0.1-0.4,0.2-0.5c0.1-0.6,0.3-1.2,0.3-2l0.1-1.6c0,0,0-0.1,0-0.2c0-0.1,0-0.2-0.1-0.2
			c-0.1-0.2-0.1-0.5-0.2-0.7c-0.1-0.4-0.2-0.9-0.3-1.3l-0.4-1.1c-0.1-0.3-0.2-0.5-0.3-0.7c-0.2-0.3-0.3-0.5-0.4-0.7
			c-0.2-0.4-0.5-0.8-0.7-1.2l-1.3-1.8c-0.2-0.3-0.4-0.6-0.7-0.9l-0.6-0.7c-1.1-1.4-2.2-2.6-3.2-3.8c-4.4-5-8.9-9.7-12.8-13.8
			c-3.9-4.1-8.2-8.4-13-13.3l-1.8-1.8c-1.2-1.2-2.7-2-4.4-2.3c-0.3-0.1-0.5-0.2-0.7-0.2c-5.7-1.3-14.4-2.8-23.5-2.8
			c-8.7,0-17,1.4-22.5,2.6l-0.1,0l-0.1,0c-1.9-0.1-3.7,0.6-5.1,2l-2.8,2.7c-2.6,2.6-4.9,5.1-7.4,7.7c-1.6,1.7-3.3,3.5-5,5.3
			c-4.8,4.9-8.8,9.1-12.8,13.7c-1.2,1.4-2.2,2.5-3.2,3.7l-1,1.2c-0.3,0.4-0.6,0.7-0.8,1.1c-0.2,0.2-0.3,0.5-0.5,0.7l-0.7,0.9
			l-0.7,1.2c-0.3,0.5-0.6,1-0.8,1.5l-0.4,1l-0.2,1c0,0.2-0.1,0.3-0.1,0.5c-0.1,0.5-0.2,0.9-0.2,1.4c0.1,1.4,0.2,2.7,0.8,4.1
			c0.5,1.3,1.2,2.6,2,4c0.2,0.3,0.4,0.7,0.6,1l1.2,1.8c3.5,5.3,6.9,9.9,11.1,15.4l4.2,5.4l13.1-10.7l-4.3-5.3
			c-1.2-1.6-2.5-3.2-3.7-4.7c-2.4-3-4.7-5.9-6.7-9l-0.9-1.4l0.7-0.8c0.8-1,1.8-2.1,2.8-3.3c4.1-4.6,8.5-9.2,12.3-13.2l1.8-1.9
			l0,41.2L1221.2,212.8z M1222.9,153.7l0.5,0.8c2,3.1,4.3,5.9,6.7,8.9c1.2,1.5,2.4,3.1,3.7,4.7l4.5,5.6V137l-0.1,0.1
			c-3.8,3.9-8.2,8.6-12.3,13.1c-1,1.2-2,2.2-2.8,3.2L1222.9,153.7z M1299.5,136.6v36.9l3.9-4.8c3.7-4.6,7.5-9.5,10.7-14.2l0.7-1.1
			c-0.9-1-1.8-2.2-2.7-3.1c-4-4.5-8.2-9-12.3-13.2L1299.5,136.6z"/>
		</g>
		<g>
			<g>
				<path fill="#253E1E" d="M1473.4,115.4c-5.7-1.3-14.5-2.8-23.6-2.8c-9.1,0-17.9,1.5-23.6,2.8c-3.6,0.8-6.5,4.6-6.5,8.3v60.1h60.2
				v-60.1C1479.8,120.1,1477,116.2,1473.4,115.4z"/>
				<g>
					<path
						fill="#92AA2D"
						d="M1479.2,118.4c-3.4-3.4-8.9-3.4-12.2,0c-3.3,3.4-3.3,8.8,0,12.2l1.8,1.8c4.3,4.3,8.6,8.7,12.8,13.1
					c4.2,4.4,8.4,8.8,12.3,13.3c1,1.1,1.9,2.2,2.8,3.3l0.1,0.2l-0.9,1.4c-3.2,4.7-7,9.5-10.8,14.2l-4.5,5.5l13.3,10.9l4.6-5.7
					c3.9-4.9,7.8-9.8,11.5-15.3l0.7-1l0.9-1.4c0.8-1.3,1.6-2.6,2.2-4c0.4-0.7,0.6-1.4,0.8-2.1c0.2-0.7,0.3-1.4,0.4-2.1l0.1-1.1
					l0-0.5c0-0.2-0.1-0.4-0.1-0.5c-0.2-0.7-0.3-1.4-0.5-2.1l-0.4-1c-0.1-0.3-0.2-0.7-0.4-1c-0.4-0.6-0.7-1.3-1.2-1.9l-1.4-1.9
					c-0.2-0.3-0.5-0.6-0.7-0.9l-0.6-0.7c-1.1-1.3-2.1-2.5-3.2-3.8c-4.2-4.8-8.5-9.3-12.8-13.8c-4.3-4.5-8.7-8.9-13-13.3
					L1479.2,118.4z"/>
					<path
						fill="#92AA2D"
						d="M1433.3,130.5c3.4-3.3,3.4-8.8,0-12.2c-3.3-3.4-8.8-3.4-12.2,0l-1.8,1.8c-4.4,4.4-8.7,8.7-13,13.2
					c-4.3,4.5-8.6,8.9-12.8,13.7c-1.1,1.2-2.1,2.4-3.2,3.7l-1,1.3c-0.5,0.6-0.9,1.2-1.4,1.8l-0.7,0.9l-0.6,1c-0.4,0.6-0.8,1.3-1,1.9
					l-0.4,1l-0.2,1c-0.1,0.7-0.4,1.4-0.3,2.1c0.1,1.4,0.2,2.8,0.8,4.2c0.6,1.4,1.2,2.7,2,4c0.2,0.3,0.4,0.7,0.6,1l0.5,0.8l0.7,1.1
					c3.6,5.6,7.4,10.5,11.1,15.5l4.5,5.8l13.6-10.6l-4.4-5.6c-3.6-4.8-7.3-9.7-10.4-14.4l-0.7-1.1l0.4-0.5c0.9-1.1,1.8-2.2,2.8-3.3
					c3.9-4.4,8.1-8.8,12.3-13.1c4.2-4.4,8.5-8.7,12.8-13L1433.3,130.5z"/>
					<path fill="#92AA2D" d="M1440.4,113.1c-9.1,0-9.7,1-15.1,2.6c-3.5,1-5.7,4.6-5.7,8.2v60.4l21.1,28.3v-99.4"/>
					<path fill="#92AA2D" d="M1460.2,113.3c9.1,0,9,0.6,14.6,2.3c3.5,1.1,6.5,4.6,6.5,8.3l-0.3,60.6l-18.8,28.1L1460.2,113.3"/>
				</g>
			</g>
		</g>
		<path
			fill="#CDCCCC"
			d="M1494.5,318c-4.3-4.5-8.7-8.9-13-13.3l-1.8-1.8c-1.4-1.4-3.1-2.2-4.8-2.4c-0.3-0.1-0.7-0.3-1-0.3
		c-5.7-1.3-14.5-2.8-23.6-2.8c-9.1,0-17.9,1.5-23.6,2.8c-0.7,0.1-1.3,0.4-1.9,0.7c-1.1,0.4-2.2,1.1-3.1,2l-1.8,1.8
		c-4.4,4.4-8.7,8.7-13,13.2l12.4,12c0.3-0.3,0.6-0.6,0.9-1v39.7h60.2v-40.5c0.6,0.6,1.2,1.2,1.8,1.8L1494.5,318z"/>
		<path
			fill="#651511"
			d="M1495.8,585.5c-4.5-4.8-9.1-9.5-13.7-14.1l-1.9-2c-1.4-1.4-3.2-2.2-5-2.5c-0.4-0.2-0.8-0.3-1.2-0.4
		c-6-1.3-15.3-3-24.9-3c-9.6,0-18.9,1.6-25,3c-0.7,0.2-1.4,0.4-2,0.8c-1.2,0.4-2.3,1.1-3.3,2.1l-1.9,1.9c-4.6,4.6-9.1,9.2-13.6,13.9
		l13.2,12.6c0.3-0.3,0.5-0.5,0.8-0.8v41.8h63.5v-42.5c0.6,0.6,1.2,1.2,1.8,1.8L1495.8,585.5z"/>
		<rect x="1417.3" y="617.3" fill="#3D3D3B" width="63.5" height="21.8"/>
		<polyline fill="#3D3D3B" points="1451.7,617.3 1464.7,610.9 1477.1,617.3 	"/>
	</g>
	<g id="BAFARADA_LLABIS">
		<path
			fill="#FFFFFF"
			d="M332.6,502.6v315.6c0,6.7-2.1,13.2-5.8,18l-36.1,46.5c-7.7,9.9-7.7,26,0,35.9l32.5,41.9
		c3.7,4.8,5.8,11.2,5.8,18l1.2,1c0,14,8.8,25.4,19.7,25.4h352.3c10.9,0,19.7-11.3,19.7-25.3l0-476.9c0-14.1-7.9-21.9-18.8-21.9
		H353.2C342.3,480.8,332.6,488.5,332.6,502.6z"/>
		<ellipse fill="#CB6566" cx="450.3" cy="573.6" rx="18.4" ry="15.8"/>
		<path
			fill="#641122"
			d="M499.8,766.3C499.8,766.3,499.8,766.2,499.8,766.3c0-0.1,0-0.2,0-0.2c0-0.1,0-0.2,0-0.3c0,0,0,0,0-0.1
		c0-0.1-0.1-0.1-0.1-0.2c-0.1-0.1-0.1-0.2-0.2-0.2c0,0,0,0-0.1-0.1c-0.8-0.4-20.3-10-36.3-10c-5.2,0-9.5,1-12.8,3.1
		c-3.3-2-7.5-3.1-12.7-3.1c-16,0-35.5,9.6-36.3,10c0,0,0,0-0.1,0.1c-0.1,0.1-0.2,0.1-0.2,0.2c0,0.1-0.1,0.1-0.1,0.2c0,0,0,0,0,0
		c0,0.1,0,0.2,0,0.3c0,0,0,0.1,0,0.2c0,0,0,0,0,0c0,0.2,0.1,0.4,0.3,0.5c0.2,0.2,21.3,18.1,50.1,18.1l0,0c16.9,0,33.2-6.1,48.4-18.1
		c0,0,0,0,0,0c0,0,0.1-0.1,0.1-0.1C499.7,766.5,499.8,766.4,499.8,766.3z"/>
		<path
			fill="#641122"
			d="M395.1,652.3C395.1,652.3,395.1,652.4,395.1,652.3c-0.2,0.1-0.2,0.2-0.3,0.3c0,0.1-0.1,0.1-0.1,0.2
		c0,0,0,0,0,0.1c0,0.1,0,0.3,0,0.4c0,0.1,0,0.1,0,0.2c0,0,0,0,0,0c0,0.2,0.2,0.4,0.3,0.6c0.2,0.2,23.9,20.4,56.3,20.4l0,0
		c19,0,37.3-6.8,54.4-20.3c0,0,0,0,0,0c0,0,0.1-0.1,0.1-0.1c0.1-0.1,0.2-0.2,0.2-0.4c0,0,0,0,0,0c0-0.1,0-0.1,0-0.2
		c0-0.1,0-0.2,0-0.3c0,0,0,0,0-0.1c0-0.1-0.1-0.1-0.1-0.2c-0.1-0.1-0.1-0.2-0.2-0.3c0,0,0-0.1-0.1-0.1"/>
		<g>
			<ellipse fill="#F29799" cx="488.2" cy="910.6" rx="26" ry="22.3"/>
			<ellipse fill="#F29799" cx="416.3" cy="910.6" rx="26" ry="22.3"/>
		</g>
		<path
			fill="#858686"
			d="M702.2,1010.3H350c-13.2,0-24-12.4-25.1-28.3l-1.3-1.1v-2.6c0-5.5-1.7-10.8-4.6-14.6l-32.5-41.9
		c-9.3-12-9.3-30.7,0-42.7l36.1-46.5c2.9-3.8,4.6-9.1,4.6-14.6V502.6c0-17.9,13.2-27.3,26.2-27.3h349.9c6.7,0,12.5,2.3,16.8,6.7
		c4.9,4.9,7.5,12.1,7.5,20.7v476.8C727.4,996.5,716.1,1010.3,702.2,1010.3z M334.4,975.7l1.3,1.1v2.6c0,10.8,6.5,19.9,14.2,19.9
		h352.3c7.7,0,14.2-9.1,14.2-19.8V502.6c0-5.6-1.5-10.1-4.3-12.9c-2.2-2.2-5.4-3.4-9-3.4H353.2c-7.5,0-15.2,5-15.2,16.3v315.6
		c0,8-2.5,15.6-6.9,21.3L295,886c-6.1,7.9-6.1,21.3,0,29.2l32.5,41.9C331.5,962.2,333.9,968.7,334.4,975.7z"/>
		<g>
			<g>
				<path fill="#837F80" d="M619.7,954.5c-27.1,0-49.1-22-49.1-49.1s22-49.1,49.1-49.1s49.1,22,49.1,49.1S646.7,954.5,619.7,954.5z
				 M619.7,867.4c-21,0-38.1,17.1-38.1,38.1s17.1,38.1,38.1,38.1s38.1-17.1,38.1-38.1S640.7,867.4,619.7,867.4z"/>
			</g>

			<rect x="615.1" y="863.2" transform="matrix(0.5789 0.8154 -0.8154 0.5789 1000.6297 -124.2357)" fill="#837F80" width="11" height="87.1"/>
		</g>
		<circle fill="#3D3D3B" cx="621.1" cy="569.4" r="12.4"/>
		<g>
			<circle fill="#B57C36" cx="627" cy="733.1" r="2.9"/>
			<path fill="#B57C36" d="M627,736.3c-1.8,0-3.2-1.4-3.2-3.2s1.4-3.2,3.2-3.2s3.2,1.4,3.2,3.2S628.8,736.3,627,736.3z M627,730.4
			c-1.5,0-2.7,1.2-2.7,2.7c0,1.5,1.2,2.7,2.7,2.7c1.5,0,2.7-1.2,2.7-2.7C629.7,731.6,628.5,730.4,627,730.4z"/>
		</g>
		<g>
			<circle fill="#B57C36" cx="634.6" cy="752.8" r="2.9"/>
			<path fill="#B57C36" d="M634.6,756c-1.8,0-3.2-1.4-3.2-3.2s1.4-3.2,3.2-3.2s3.2,1.4,3.2,3.2S636.4,756,634.6,756z M634.6,750.1
			c-1.5,0-2.7,1.2-2.7,2.7c0,1.5,1.2,2.7,2.7,2.7c1.5,0,2.7-1.2,2.7-2.7C637.3,751.3,636.1,750.1,634.6,750.1z"/>
		</g>
		<g>
			<circle fill="#B57C36" cx="602.1" cy="736" r="2.9"/>
			<path fill="#B57C36" d="M602.1,739.2c-1.8,0-3.2-1.4-3.2-3.2s1.4-3.2,3.2-3.2s3.2,1.4,3.2,3.2S603.9,739.2,602.1,739.2z
			 M602.1,733.3c-1.5,0-2.7,1.2-2.7,2.7c0,1.5,1.2,2.7,2.7,2.7s2.7-1.2,2.7-2.7C604.8,734.5,603.6,733.3,602.1,733.3z"/>
		</g>
		<g>
			<circle fill="#B57C36" cx="616.9" cy="746.8" r="2.9"/>
			<path fill="#B57C36" d="M616.9,750c-1.8,0-3.2-1.4-3.2-3.2s1.4-3.2,3.2-3.2s3.2,1.4,3.2,3.2S618.7,750,616.9,750z M616.9,744.1
			c-1.5,0-2.7,1.2-2.7,2.7c0,1.5,1.2,2.7,2.7,2.7c1.5,0,2.7-1.2,2.7-2.7C619.6,745.3,618.4,744.1,616.9,744.1z"/>
		</g>
		<g>
			<circle fill="#B57C36" cx="618.9" cy="765.5" r="2.9"/>
			<path fill="#B57C36" d="M618.9,768.7c-1.8,0-3.2-1.4-3.2-3.2s1.4-3.2,3.2-3.2s3.2,1.4,3.2,3.2S620.7,768.7,618.9,768.7z
			 M618.9,762.8c-1.5,0-2.7,1.2-2.7,2.7s1.2,2.7,2.7,2.7c1.5,0,2.7-1.2,2.7-2.7S620.4,762.8,618.9,762.8z"/>
		</g>
		<g>
			<circle fill="#B57C36" cx="605" cy="777.5" r="2.9"/>
			<path fill="#B57C36" d="M605,780.7c-1.8,0-3.2-1.4-3.2-3.2s1.4-3.2,3.2-3.2s3.2,1.4,3.2,3.2S606.8,780.7,605,780.7z M605,774.8
			c-1.5,0-2.7,1.2-2.7,2.7c0,1.5,1.2,2.7,2.7,2.7s2.7-1.2,2.7-2.7C607.7,776,606.5,774.8,605,774.8z"/>
		</g>
		<g>
			<circle fill="#B57C36" cx="602.1" cy="755.8" r="2.9"/>
			<path fill="#B57C36" d="M602.1,759c-1.8,0-3.2-1.4-3.2-3.2s1.4-3.2,3.2-3.2s3.2,1.4,3.2,3.2S603.9,759,602.1,759z M602.1,753.1
			c-1.5,0-2.7,1.2-2.7,2.7s1.2,2.7,2.7,2.7s2.7-1.2,2.7-2.7S603.6,753.1,602.1,753.1z"/>
		</g>
		<g>
			<circle fill="#B57C36" cx="637.6" cy="771.4" r="2.9"/>
			<path fill="#B57C36" d="M637.6,774.6c-1.8,0-3.2-1.4-3.2-3.2s1.4-3.2,3.2-3.2s3.2,1.4,3.2,3.2S639.3,774.6,637.6,774.6z
			 M637.6,768.7c-1.5,0-2.7,1.2-2.7,2.7c0,1.5,1.2,2.7,2.7,2.7c1.5,0,2.7-1.2,2.7-2.7C640.3,769.9,639.1,768.7,637.6,768.7z"/>
		</g>
		<g>
			<circle fill="#B57C36" cx="587.3" cy="746.8" r="2.9"/>
			<path fill="#B57C36" d="M587.3,750c-1.8,0-3.2-1.4-3.2-3.2s1.4-3.2,3.2-3.2s3.2,1.4,3.2,3.2S589,750,587.3,750z M587.3,744.1
			c-1.5,0-2.7,1.2-2.7,2.7c0,1.5,1.2,2.7,2.7,2.7s2.7-1.2,2.7-2.7C590,745.3,588.8,744.1,587.3,744.1z"/>
		</g>
		<g>
			<circle fill="#B57C36" cx="590.2" cy="764.6" r="2.9"/>
			<path fill="#B57C36" d="M590.2,767.8c-1.8,0-3.2-1.4-3.2-3.2s1.4-3.2,3.2-3.2s3.2,1.4,3.2,3.2S592,767.8,590.2,767.8z
			 M590.2,761.9c-1.5,0-2.7,1.2-2.7,2.7c0,1.5,1.2,2.7,2.7,2.7c1.5,0,2.7-1.2,2.7-2.7C592.9,763.1,591.7,761.9,590.2,761.9z"/>
		</g>
		<g>
			<circle fill="#B57C36" cx="643.5" cy="742.3" r="2.9"/>
			<path fill="#B57C36" d="M643.5,745.4c-1.8,0-3.2-1.4-3.2-3.2s1.4-3.2,3.2-3.2s3.2,1.4,3.2,3.2S645.2,745.4,643.5,745.4z
			 M643.5,739.6c-1.5,0-2.7,1.2-2.7,2.7c0,1.5,1.2,2.7,2.7,2.7s2.7-1.2,2.7-2.7C646.2,740.8,645,739.6,643.5,739.6z"/>
		</g>
		<g>
			<circle fill="#B57C36" cx="646.4" cy="760" r="2.9"/>
			<path fill="#B57C36" d="M646.4,763.2c-1.8,0-3.2-1.4-3.2-3.2s1.4-3.2,3.2-3.2s3.2,1.4,3.2,3.2S648.2,763.2,646.4,763.2z
			 M646.4,757.3c-1.5,0-2.7,1.2-2.7,2.7c0,1.5,1.2,2.7,2.7,2.7c1.5,0,2.7-1.2,2.7-2.7C649.1,758.5,647.9,757.3,646.4,757.3z"/>
		</g>
		<g>
			<circle fill="#B57C36" cx="624.1" cy="782.5" r="2.9"/>
			<path fill="#B57C36" d="M624.1,785.7c-1.8,0-3.2-1.4-3.2-3.2s1.4-3.2,3.2-3.2s3.2,1.4,3.2,3.2S625.8,785.7,624.1,785.7z
			 M624.1,779.8c-1.5,0-2.7,1.2-2.7,2.7s1.2,2.7,2.7,2.7c1.5,0,2.7-1.2,2.7-2.7S625.5,779.8,624.1,779.8z"/>
		</g>
		<path fill="#3D3D3B" d="M604.6,669l-3.9-1.6c0.9-2.3,9.2-22.3,21-22.3c0,0,0.1,0,0.1,0c7.2,0.1,13.4,7.4,18.9,22.4l-4,1.5
		c-4.7-12.7-9.8-19.5-15-19.6c0,0-0.1,0-0.1,0C614.1,649.3,606.8,663.5,604.6,669z"/>
		<g>
			<ellipse fill="#3D3D3B" cx="638.7" cy="668.2" rx="4.6" ry="4.8"/>
			<path fill="#3D3D3B" d="M638.7,673.2c-2.7,0-4.8-2.3-4.8-5.1s2.2-5.1,4.8-5.1s4.8,2.3,4.8,5.1S641.4,673.2,638.7,673.2z
			 M638.7,663.6c-2.4,0-4.3,2-4.3,4.6s1.9,4.6,4.3,4.6c2.4,0,4.3-2,4.3-4.6S641.1,663.6,638.7,663.6z"/>
		</g>
		<g>
			<ellipse fill="#3D3D3B" cx="603.4" cy="668.2" rx="4.6" ry="4.8"/>
			<path fill="#3D3D3B" d="M603.4,673.2c-2.7,0-4.8-2.3-4.8-5.1s2.2-5.1,4.8-5.1s4.8,2.3,4.8,5.1S606.1,673.2,603.4,673.2z
			 M603.4,663.6c-2.4,0-4.3,2-4.3,4.6s1.9,4.6,4.3,4.6c2.4,0,4.3-2,4.3-4.6S605.8,663.6,603.4,663.6z"/>
		</g>
	</g>
	<g id="BAFARADA_ULLERES">
		<path
			fill="#FFFFFF"
			d="M332.6,237.6v334.9c0,6.7-2.1,13.2-5.8,18l-36.1,46.5c-7.7,9.9-7.7,26,0,35.9l32.5,41.9
		c3.7,4.8,5.8,11.2,5.8,18l1.2,142.1c0,14,8.8,25.4,19.7,25.4h352.3c10.9,0,19.7-11.3,19.7-25.3l0-637.1c0-14.1-7.9-21.9-18.8-21.9
		H353.2C342.3,215.8,332.6,223.6,332.6,237.6z"/>
		<g>
			<g>
				<path
					fill="#837F80"
					d="M613.4,854.5c-24.3,0-44.1-19.8-44.1-44.1c0-24.3,19.8-44.1,44.1-44.1s44.1,19.8,44.1,44.1
				C657.5,834.7,637.7,854.5,613.4,854.5z M613.4,777.3c-18.2,0-33.1,14.8-33.1,33.1c0,18.2,14.8,33.1,33.1,33.1
				s33.1-14.8,33.1-33.1C646.5,792.1,631.7,777.3,613.4,777.3z"/>
			</g>

			<rect x="608.7" y="772.9" transform="matrix(0.5789 0.8154 -0.8154 0.5789 920.3068 -159.1304)" fill="#837F80" width="11" height="77.1"/>
		</g>
		<path
			fill="none"
			stroke="#858686"
			stroke-width="11"
			stroke-miterlimit="10"
			d="M332.6,237.6v334.9c0,6.7-2.1,13.2-5.8,18
		l-36.1,46.5c-7.7,9.9-7.7,26,0,35.9l32.5,41.9c3.7,4.8,5.8,11.2,5.8,18l1.2,142.1c0,14,8.8,25.4,19.7,25.4h352.3
		c10.9,0,19.7-11.3,19.7-25.3l0-637.1c0-14.1-7.9-21.9-18.8-21.9H353.2C342.3,215.8,332.6,223.6,332.6,237.6z"/>
		<path
			fill="#CC6667"
			d="M513.2,285.7c0,0-3-0.5-33.6,1.5c-25.7,1.7-35.5,9.6-38,9.6c-2.5,0-12.3-7.9-38-9.6
		c-30.7-2-33.6-1.5-33.6-1.5s-0.9,10.5,0,12.1c0.9,1.6,1.4,13.7,2,18c0.6,4.3,2,12.2,6.6,16.8c4.6,4.6,11.8,7.6,19.8,8.4
		c11,0.5,14.4-0.1,22.4-4.9c8.1-4.8,13.3-19.4,14.1-22c0.9-2.7,2.1-6.9,2.9-8.3c0.7-1.2,2-1.5,3-1.6v0c0,0,0.3,0,0.7-0.1
		c0.4,0,0.7,0.1,0.7,0.1v0c1,0.1,2.3,0.4,3,1.6c0.9,1.4,2.1,5.6,2.9,8.3c0.9,2.7,6.1,17.2,14.1,22c8.1,4.8,11.5,5.4,22.4,4.9
		c8-0.9,15.2-3.8,19.8-8.4c4.6-4.6,6-12.6,6.6-16.8c0.6-4.3,1.2-16.4,2-18C514.1,296.2,513.2,285.7,513.2,285.7z M430.7,307.4
		c-0.7,3.8-2.2,16.2-9.8,22.7c-3.7,3.3-8.2,6.8-16.5,7c-6,0.1-18-1.4-22.6-7.2c-2.1-3.3-5.3-7-5.4-16.1c-0.1-9.1-0.1-16.4,1.6-18.2
		c0,0,3-3.7,6.3-4.5c3.3-0.7,12.7-1.3,22,0.6c9.4,1.9,18.3,4.9,20.7,6.9C429.4,300.7,431.5,303.6,430.7,307.4z M506.8,313.8
		c-0.1,9.1-3.3,12.8-5.4,16.1c-4.6,5.9-16.6,7.3-22.6,7.2c-8.3-0.2-12.8-3.7-16.5-7c-7.6-6.5-9-18.8-9.8-22.7
		c-0.7-3.8,1.4-6.7,3.7-8.7c2.3-2,11.3-5,20.7-6.9c9.4-1.9,18.7-1.4,22-0.6c3.3,0.7,6.3,4.5,6.3,4.5
		C506.9,297.4,506.9,304.6,506.8,313.8z"/>
		<path
			id="gafas_2_1_"
			fill="#669999"
			d="M543.7,545.3c1.6,0.4,6.3,14.4,8.9,21.5c2.5,7.1,6.3,9.8,12.3,11.7
		c11.9,2.4,23.3-0.7,26.8-2.1c3.5-1.4,5.9-5.3,8.2-9.6c2.3-4.4,7.7-18.5,9.1-21.4l6.6,0c1.3,2.9,6.8,17,9.1,21.3
		c2.3,4.4,4.7,8.2,8.2,9.6c3.5,1.4,14.9,4.5,26.8,2.1c5.9-1.9,9.7-4.6,12.3-11.7c2.5-7.1,7.1-19.7,7.8-21.5c0.4-1,1-0.8,1-0.8v-11.2
		c0,0-3.8-2.2-12.1-2.7c-8.3-0.5-26.3-0.9-34.3-0.1c-8,0.8-9.6,1.4-10.9,2.4c-1.2,1-1.8,2.6-4.1,2.9h-14c-2.3-0.4-2.8-1.9-4.1-2.9
		c-1.2-1-2.9-1.6-10.9-2.4c-8-0.8-26-0.4-34.3,0.1c-8.3,0.5-12.2,3.8-12.2,3.8 M601.1,555.7c-2.4,8.4-4.9,14.7-9.6,17.2
		c-4.7,2.5-22.5,6.9-30.7,0.3c-1.6-1.3-6.3-6.6-7.2-16.8c-0.9-10.3-1.8-15.7,3.9-18.6c0,0,11.4-4.1,20.5-4.1
		c10.3,0,19.4,1.8,21.5,4.7C601.6,541.4,604,545.1,601.1,555.7z M670.8,556.5c-0.9,10.3-5.6,15.5-7.2,16.8c-8.2,6.5-26,2.2-30.7-0.3
		c-4.7-2.5-7.1-8.8-9.6-17.2c-2.9-10.6-0.5-14.3,1.6-17.2c2.1-2.9,11.1-4.7,21.5-4.7c9.1,0,20.5,4.1,20.5,4.1
		C672.6,540.8,671.6,546.2,670.8,556.5z"/>
		<path
			id="gafas_3_1_"
			fill="#99CC99"
			d="M508.7,809.4c-0.5-0.6-1.3-0.5-1.7-2c-0.4-1.5-4.2-11.9-8.5-14.3c-4.2-2.4-12.3-6.4-32-7.8
		c-15.2-0.4-24.4-0.7-27-0.8v0c0,0-0.1,0-0.4,0c-0.3,0-0.4,0-0.4,0v0c-2.6,0.1-11.8,0.4-27,0.8c-19.7,1.4-27.8,5.5-32,7.8
		c-4.2,2.4-8.1,12.8-8.5,14.3c-0.4,1.5-1.2,1.4-1.7,2c-0.5,0.6,0.1,4.3,1.6,6.7c1.6,13.3,7.1,21,10.5,25c3.4,4.1,12.8,6,19.4,5.7
		c14.5-2.5,16.9-7,23.2-13.3c6.3-6.3,11.2-23.5,12-25.4c0.6-1.5,2.2-2,2.9-2.2c0.7,0.2,2.4,0.7,2.9,2.2c0.7,2,5.7,19.1,12,25.4
		c6.3,6.3,8.7,10.8,23.2,13.3c6.6,0.3,16-1.7,19.4-5.7c3.4-4.1,8.9-11.7,10.5-25C508.6,813.7,509.2,810,508.7,809.4z M431.4,811.9
		c-1.1,5-4.9,15.2-9.3,20.1c-4.4,4.9-7.2,9.3-18.3,11.7c-6.3,0.8-15.7,0.1-20.1-5.2c-4.4-5.3-8.7-13.7-8.7-21.7
		c0-8,0.5-10.9,0.5-10.9s2.6-9.1,9.4-12c6.8-2.9,17.7-4.9,29.6-4.1c11.9,0.8,15.8,2.8,16.8,5.4C432.4,797.9,432.5,806.9,431.4,811.9
		z M494.4,838.6c-4.4,5.3-13.8,6-20.1,5.2c-11-2.5-13.9-6.8-18.3-11.7c-4.4-4.9-8.2-15.1-9.3-20.1c-1.1-5-1-14,0-16.6
		c1-2.7,4.9-4.6,16.8-5.4c11.9-0.8,22.8,1.1,29.6,4.1c6.8,2.9,9.4,12,9.4,12s0.5,2.9,0.5,10.9C503.1,824.8,498.8,833.3,494.4,838.6z
		"/>
		<g>
			<path
				fill="#9A6633"
				d="M599.6,442.5H560c-4.2,0-7.7-3.4-7.7-7.7v-6.2c0-4.2,3.4-7.7,7.7-7.7h39.6c4.2,0,7.7,3.4,7.7,7.7v6.2
			C607.3,439.1,603.8,442.5,599.6,442.5z M560,424.9c-2,0-3.7,1.6-3.7,3.7v6.2c0,2,1.6,3.7,3.7,3.7h39.6c2,0,3.7-1.6,3.7-3.7v-6.2
			c0-2-1.6-3.7-3.7-3.7H560z"/>
			<path
				fill="#9A6633"
				d="M661.5,442.5h-37.1c-4.2,0-7.7-3.4-7.7-7.7v-6.2c0-4.2,3.4-7.7,7.7-7.7h37.1c4.2,0,7.7,3.4,7.7,7.7v6.2
			C669.1,439.1,665.7,442.5,661.5,442.5z M624.4,424.9c-2,0-3.7,1.6-3.7,3.7v6.2c0,2,1.6,3.7,3.7,3.7h37.1c2,0,3.7-1.6,3.7-3.7v-6.2
			c0-2-1.6-3.7-3.7-3.7H624.4z"/>
			<rect x="605.3" y="429.7" fill="#9A6633" width="13.4" height="4"/>
			<rect x="667.1" y="429.7" fill="#9A6633" width="9.4" height="4"/>
			<rect x="546.9" y="429.7" fill="#9A6633" width="7.4" height="4"/>
		</g>
		<path
			fill="#65140F"
			d="M496.1,661.1c0-0.4-0.2-0.7-0.6-0.8c-0.3-0.1-0.5-0.2-0.8-0.2c-4-0.7-7.9-1.3-11.9-1.6
		c-3.2-0.2-6.4-0.4-9.6-0.5c-6.2-0.3-12.3-0.2-18.5,0.7c-3.8,0.5-7.5,1.2-11.1,2.4c-1.8,0.6-3.6,1.3-5.4,2c-2.8,1-5.8,1.4-8.7,0.8
		c-1.8-0.4-3.5-0.9-5.3-1.5c-3.1-1.1-6.2-2.1-9.5-2.7c-6.3-1.2-12.6-1.8-18.5-1.7c-4.8,0-9.1,0.2-13.5,0.7
		c-3.5,0.4-7.1,0.9-10.6,1.4c-0.7,0.1-1.5,0.3-2.2,0.5c-0.4,0.1-0.7,0.4-0.7,0.8c-0.1,2.2-0.1,4.4-0.2,6.6c0,0.3,0.1,0.7,0.1,1
		c0,0.3,0.2,0.5,0.4,0.6c0.3,0.1,0.5,0.2,0.8,0.4c1.2,0.9,1.7,2.1,2.2,3.5c0.3,1,0.5,2,0.8,2.9c0.2,0.6,0.4,1.2,0.5,1.8
		c0.6,2.9,1.2,5.7,1.8,8.6c0.6,2.7,1.4,5.4,2.6,7.9c1.4,2.8,3.4,4.9,6.2,6.2c1.7,0.7,3.5,1.2,5.3,1.5c3.2,0.5,6.5,0.6,9.8,0.4
		c3.3-0.3,6.6-0.8,9.8-1.8c2.4-0.8,4.6-1.8,6.5-3.5c2.9-2.6,5.2-5.7,7-9.2c1.8-3.5,3-7.3,4.2-11.1c0.3-1.1,0.6-2.2,1-3.3
		c0.6-1.6,1.6-2.6,3.2-2.8c0.5-0.1,1-0.1,1.6-0.1c1.2,0.1,2.4,0.3,3.2,1.4c0.3,0.5,0.7,1,0.9,1.5c0.4,1,0.9,2.1,1.2,3.2
		c1.4,4.7,3.3,9.2,5.7,13.5c2,3.5,4.6,6.4,8,8.4c2.4,1.4,5,2.3,7.7,2.8c4.1,0.8,8.2,1,12.3,0.8c2.5-0.1,5-0.5,7.4-1.2
		c2.5-0.8,4.6-2,6.3-4.2c1-1.4,1.8-3,2.5-4.6c1.3-3.5,2.2-7.1,3-10.7c0.4-1.8,0.8-3.6,1.2-5.3c0.2-0.9,0.5-1.8,0.7-2.8
		c0.2-0.9,0.4-1.7,0.9-2.5c0.5-0.7,1.1-1.5,1.9-1.8c0.4-0.1,0.6-0.4,0.7-0.8c0.1-0.3,0.1-0.6,0.1-0.9c0-1.3,0-2.6,0-3.9
		C496.3,663,496.2,662.1,496.1,661.1 M374.3,665.3 M393.6,662.2 M486.6,672.4c0.1,1.8,0.1,3.6,0.1,5.3 M483.3,664.7 M461,661.9
		c2-0.1,4-0.2,5.3-0.3 M446.8,664.9 M486.7,677.7 M490.9,665.3"/>
		<g>
			<path
				fill="#3D3F91"
				d="M502.7,535.4c0-0.4-0.2-0.7-0.6-0.8c-0.3-0.1-0.6-0.2-0.9-0.2c-4.1-0.7-8.3-1.3-12.4-1.7
			c-3.3-0.2-6.7-0.4-10-0.6c-6.4-0.3-12.8-0.2-19.2,0.7c-3.9,0.5-7.8,1.3-11.5,2.5c-1.9,0.6-3.8,1.4-5.7,2c-3,1-6,1.4-9.1,0.8
			c-1.8-0.4-3.7-0.9-5.5-1.5c-3.2-1.1-6.5-2.2-9.8-2.8c-6.5-1.3-13.1-1.9-19.3-1.8c-5,0-9.5,0.2-14,0.8c-3.7,0.5-7.3,1-11,1.5
			c-0.8,0.1-1.5,0.4-2.3,0.6c-0.4,0.1-0.7,0.4-0.7,0.9c-0.1,2.3-0.1,4.6-0.2,6.8c0,0.3,0.1,0.7,0.1,1c0,0.3,0.2,0.5,0.5,0.6
			c0.3,0.1,0.6,0.3,0.8,0.4c1.2,0.9,1.8,2.2,2.2,3.6c0.3,1,0.5,2,0.8,3c0.2,0.6,0.4,1.2,0.5,1.9c0.6,3,1.2,6,1.9,8.9
			c0.6,2.8,1.4,5.6,2.7,8.2c1.4,2.9,3.5,5.1,6.4,6.4c1.8,0.8,3.6,1.3,5.5,1.6c3.4,0.6,6.8,0.6,10.2,0.4c3.4-0.3,6.8-0.8,10.2-1.9
			c2.5-0.8,4.8-1.9,6.8-3.6c3-2.7,5.4-5.9,7.3-9.6c1.9-3.7,3.2-7.6,4.3-11.6c0.3-1.1,0.7-2.3,1-3.4c0.6-1.6,1.7-2.7,3.4-2.9
			c0.5-0.1,1.1-0.1,1.6-0.1c1.3,0.1,2.5,0.4,3.3,1.5c0.4,0.5,0.7,1,0.9,1.6c0.5,1.1,0.9,2.2,1.2,3.3c1.5,4.9,3.4,9.6,5.9,14
			c2,3.7,4.7,6.7,8.3,8.7c2.5,1.5,5.2,2.4,8,3c4.2,0.9,8.5,1.1,12.8,0.9c2.6-0.1,5.2-0.5,7.7-1.3c2.6-0.8,4.8-2.1,6.5-4.4
			c1.1-1.5,1.9-3.1,2.6-4.8c1.4-3.6,2.3-7.4,3.1-11.1c0.4-1.9,0.8-3.7,1.2-5.5c0.2-1,0.5-1.9,0.8-2.9c0.2-0.9,0.4-1.8,1-2.6
			c0.5-0.8,1.1-1.5,2-1.9c0.4-0.1,0.6-0.4,0.7-0.8c0.1-0.3,0.1-0.6,0.1-0.9c0-1.4,0-2.7,0-4.1C502.8,537.4,502.7,536.4,502.7,535.4
			 M425.1,554.2c-0.9,4-2.4,7.7-4.3,11.3c-1.1,1.9-2.3,3.7-3.8,5.3c-2,2-4.5,3.3-7.2,4c-5.4,1.5-10.9,1.9-16.5,1
			c-1.1-0.2-2.2-0.5-3.2-0.8c-2.2-0.6-3.9-2-5.2-4c-1.4-2.2-2.3-4.6-2.9-7.2c-0.8-3.4-1.2-6.8-1.5-10.2c-0.2-2-0.2-4,0.1-5.9
			c0.1-1,0.2-2,0.4-3c0.8-3.5,2.8-5.7,6.1-6.6c3-0.8,6-1.3,9.1-1.6c2.3-0.2,4.6-0.3,6-0.4c5.2,0.1,9.6,0.4,14,1.5
			c1.8,0.4,3.6,0.8,5.2,1.7c0.8,0.4,1.6,1,2.3,1.6c1.1,1,1.7,2.4,2,3.9C426.1,548,425.8,551.1,425.1,554.2 M492.9,552.7
			c-0.1,4.8-0.9,9.5-2.5,14c-0.7,1.8-1.6,3.5-2.9,4.9c-1.5,1.5-3.4,2.3-5.3,2.9c-2.5,0.7-5,0.9-7.6,0.9c-3.9,0-7.7-0.5-11.5-1.3
			c-3.7-0.8-6.7-2.9-9.1-6c-3-4-5-8.6-6.1-13.6c-0.5-2.3-0.9-4.6-0.9-7c0-1,0.1-2.1,0.3-3.1c0.4-2.5,1.9-4.2,4.1-5.1
			c2.2-0.9,4.5-1.5,6.9-2c2.6-0.5,5.2-1,7.9-1.1c2.1-0.1,4.1-0.2,5.5-0.3c5.5,0.3,10.4,0.7,15.1,2.1c0.9,0.3,1.7,0.7,2.5,1.1
			c0.8,0.4,1.4,1,1.8,1.8c0.4,0.9,0.9,1.8,1.2,2.7c0.4,1.1,0.5,2.3,0.5,3.4C492.9,549,493,550.9,492.9,552.7 M497.3,539.8"/>
		</g>
		<path
			fill="#9A3515"
			d="M544.4,303.1c0,0,9.5-0.2,11.8,9.2c0,0,4.5,22.9,23.8,22c17.1,0.8,22.6-17,23.6-21.2
		c2.2-8.2,8.5-8.8,9.8-8.8c1.3,0,7.7,0.6,9.8,8.8c1,4.1,6.5,22,23.6,21.2c19.4,0.9,23.8-22,23.8-22c2.3-9.4,11.7-8.9,11.7-8.9v-8.6
		l-0.9,0.1c-1,0-7.8-0.4-10-9.1l0.2,0.9l-0.3-0.9c0,0-26.6-18.7-52.3,4.8l-5.7-0.1l-5.7,0.1c-25.7-23.4-52.3-4.8-52.3-4.8
		c-2.2,8.7-9.9,9.1-11,9.1 M600.4,313.3c0,0-3.7,17-19.8,16.4c-13.9,0.6-18.6-12.2-19.5-15.6v0l0,0c-0.1-0.5-0.2-0.8-0.2-0.8
		l0.2,0.8l0,0c-1.5-5.3-0.2-13.2-0.2-13.2s3.7-17,19.8-16.4c14.9-0.6,19.2,14.1,19.7,16.1l0,0c0,0,1.4,4.8-0.2,13.5L600.4,313.3z
		 M613.2,304.3c0,0,0.1,0,0.2,0H613.2z M613.6,304.3c0.1,0,0.2,0,0.2,0H613.6z M667.3,312.8c0,0-3.7,17-19.8,16.4
		c-13.9,0.6-18.6-12.2-19.5-15.6l0,0l0,0c-0.1-0.5-0.2-0.8-0.2-0.8l0.2,0.8l0,0c-1.5-5.3-0.2-13.2-0.2-13.2s3.7-17,19.8-16.4
		c14.9-0.6,19.2,14.1,19.7,16.1l0,0c0,0,1.4,4.8-0.2,13.5L667.3,312.8z"/>
		<path fill="#261911" d="M439.5,330.7"/>
		<path
			fill="#3D3D3B"
			d="M669.2,673.1c-0.4-0.6-1.1-0.4-1.5-1.8c-0.4-1.4-3.7-10.6-7.5-12.7c-3.7-2.1-10.9-5.7-28.3-6.9
		c-13.4-0.3-21.6-0.6-23.9-0.7v0c0,0-0.1,0-0.3,0c-0.2,0-0.3,0-0.3,0v0c-2.3,0.1-10.4,0.4-23.9,0.7c-17.4,1.2-24.5,4.8-28.3,6.9
		c-3.7,2.1-7.1,11.3-7.5,12.7c-0.4,1.4-1.1,1.2-1.5,1.8c-0.4,0.6,0.1,3.8,1.4,5.9c1.4,11.8,6.3,18.5,9.3,22.1
		c3,3.6,11.3,5.3,17.1,5.1c12.8-2.2,15-6.2,20.5-11.7c5.5-5.6,9.9-20.7,10.6-22.5c0.5-1.3,1.9-1.8,2.6-1.9c0.7,0.1,2.1,0.6,2.6,1.9
		c0.6,1.7,5,16.9,10.6,22.5c5.6,5.6,7.7,9.5,20.5,11.7c5.8,0.2,14.1-1.5,17.1-5.1c3-3.6,7.8-10.3,9.3-22.1
		C669.2,676.9,669.6,673.7,669.2,673.1z M601,675.3c-1,4.4-4.3,13.5-8.2,17.8c-3.9,4.3-6.4,8.2-16.1,10.4
		c-5.6,0.7-13.9,0.1-17.8-4.6c-3.9-4.7-7.7-12.1-7.7-19.2c0-7.1,0.5-9.7,0.5-9.7s2.3-8,8.3-10.6c6-2.6,15.7-4.3,26.2-3.6
		c10.5,0.7,14,2.5,14.8,4.8C601.8,663,601.9,670.9,601,675.3z M656.6,698.9c-3.9,4.7-12.2,5.3-17.8,4.6c-9.7-2.2-12.3-6-16.1-10.4
		c-3.9-4.3-7.2-13.3-8.2-17.8c-1-4.4-0.8-12.3,0-14.7c0.8-2.3,4.3-4.1,14.8-4.8c10.5-0.7,20.1,1,26.2,3.6c6,2.6,8.3,10.6,8.3,10.6
		s0.5,2.6,0.5,9.7C664.3,686.8,660.5,694.2,656.6,698.9z"/>
		<g>
			<path
				fill="#9A9999"
				d="M658,698.9c-4,4.8-12.7,5.4-18.5,4.7c-10.1-2.2-12.8-6.2-16.8-10.6c-4-4.4-7.5-13.7-8.5-18.2
			c-1-4.6-0.9-12.7,0-15.1c0.9-2.4,4.5-4.2,15.5-4.9c10.9-0.8,21,1,27.3,3.7c6.3,2.7,8.7,10.9,8.7,10.9s0.5,2.7,0.5,9.9
			C666,686.4,662,694.1,658,698.9z"/>
			<path
				fill="#3D3D3B"
				d="M643.7,704.3c-1.5,0-2.9-0.1-4.3-0.3c-9.3-2-12.4-5.5-15.9-9.5c-0.4-0.4-0.8-0.9-1.2-1.3
			c-4-4.4-7.6-13.5-8.7-18.5c-1-4.7-0.9-12.9,0-15.4c1.1-3,5.8-4.6,15.9-5.3c10-0.7,20.5,0.7,27.5,3.7c6.4,2.7,8.9,10.9,9,11.2
			c0,0.2,0.5,2.8,0.5,10.1c0,7.6-4.2,15.3-8.2,20C654.6,703.7,647.6,704.3,643.7,704.3z M634.7,655c-1.7,0-3.4,0.1-5.1,0.2
			c-9.5,0.7-14.1,2.1-15,4.6c-0.8,2.3-1,10.3,0,14.8c1.1,4.8,4.6,13.8,8.4,18c0.4,0.4,0.8,0.9,1.2,1.3c3.4,3.9,6.4,7.2,15.4,9.2
			c1.3,0.2,2.7,0.3,4.1,0.3c6.3,0,11.4-1.7,13.9-4.8c3.8-4.6,7.9-12.1,7.9-19.4c0-7.1-0.5-9.8-0.5-9.8c0,0-2.4-8-8.4-10.5
			C650.9,656.4,642.9,655,634.7,655z"/>
		</g>
		<g>
			<path
				fill="#9A9999"
				d="M549.7,679.2c0-7.3,0.5-9.9,0.5-9.9s2.4-8.2,8.6-10.9c6.3-2.7,16.3-4.4,27.2-3.7
			c10.9,0.8,14.5,2.5,15.4,4.9c0.9,2.4,1,10.5,0,15.1c-1,4.6-4.5,13.8-8.5,18.2c-4,4.4-6.6,8.4-16.7,10.6
			c-5.8,0.8-14.4,0.1-18.4-4.7C553.7,694.1,549.7,686.4,549.7,679.2z"/>
			<path
				fill="#3D3D3B"
				d="M571.9,704.3c-3.9,0-10.9-0.7-14.6-5.1c-3.9-4.7-8.1-12.5-8.1-20c0-7.2,0.5-9.9,0.5-10
			c0.1-0.4,2.5-8.5,8.9-11.3c7-3,17.4-4.4,27.4-3.7c10,0.7,14.7,2.3,15.8,5.3c0.9,2.4,1.1,10.6,0,15.3c-1.1,4.9-4.7,14.1-8.6,18.5
			c-0.4,0.4-0.8,0.9-1.2,1.3c-3.5,4-6.6,7.5-15.8,9.5C574.8,704.2,573.4,704.3,571.9,704.3z M550.7,669.4c0,0-0.5,2.7-0.5,9.8
			c0,7.3,4.1,14.8,7.9,19.4c2.5,3,7.6,4.8,13.8,4.8c1.4,0,2.8-0.1,4.2-0.3c8.9-2,11.9-5.3,15.3-9.2c0.4-0.4,0.8-0.9,1.2-1.3
			c3.8-4.2,7.3-13.2,8.4-18c1-4.5,0.9-12.5,0-14.8c-0.9-2.5-5.5-4-15-4.6c-9.8-0.7-20.1,0.7-26.9,3.6
			C553.1,661.3,550.7,669.3,550.7,669.4L550.7,669.4z"/>
		</g>
		<g>
			<path fill="#261911" d="M439.5,431.1"/>
			<path fill="#3D3D3B" d="M379.3,437.4c-0.3-4.8-9.3-3.5-9.3-3.5v-6l9.7-1.9"/>
			<path
				fill="#3D3D3B"
				d="M406.6,460.8c-15.8,0-28.7-13-28.7-29s12.9-29,28.7-29c15.8,0,28.7,13,28.7,29S422.5,460.8,406.6,460.8z
			 M406.6,406.1c-14,0-25.3,11.5-25.3,25.6c0,14.1,11.4,25.6,25.3,25.6c14,0,25.3-11.5,25.3-25.6
			C431.9,417.6,420.6,406.1,406.6,406.1z"/>
			<path fill="#3D3D3B" d="M500,437.4c0.3-4.8,9.1-3.3,9.1-3.3l0-6.2l-9.4-1.9"/>
			<path
				fill="#3D3D3B"
				d="M472.5,460.8c-15.8,0-28.7-13-28.7-29s12.9-29,28.7-29c15.8,0,28.7,13,28.7,29S488.3,460.8,472.5,460.8z
			 M472.5,406.1c-14,0-25.3,11.5-25.3,25.6c0,14.1,11.4,25.6,25.3,25.6c14,0,25.3-11.5,25.3-25.6
			C497.8,417.6,486.4,406.1,472.5,406.1z"/>
			<g>
				<polyline fill="#3D3D3B" points="432.4,432.4 439.3,432.4 438.6,432.4 445.5,432.4 445.5,427.4 438.6,427.4 439.3,427.4
				432.4,427.4 			"/>
			</g>
		</g>
	</g>
	<g id="BAFARADA_CABELL">
		<path
			fill="#FFFFFF"
			d="M332.6,86.7v225.8c0,6.7-2.1,13.2-5.8,18L290.7,377c-7.7,9.9-7.7,26,0,35.9l32.5,41.9
		c3.7,4.8,5.8,11.2,5.8,18v409.7c0,14,8.8,25.4,19.7,25.4H701c10.9,0,19.7-11.3,19.7-25.3L722,86.8c0-14.1-7.9-21.9-18.8-21.9H353.2
		C342.3,64.9,332.6,72.7,332.6,86.7z"/>
		<path
			fill="#858686"
			d="M701,913.3H348.7c-13.9,0-25.2-13.9-25.2-30.9V472.7c0-5.5-1.7-10.8-4.6-14.6l-32.5-41.9
		c-9.3-12-9.3-30.7,0-42.7l36.1-46.5c2.9-3.8,4.6-9.1,4.6-14.6V86.7c0-13.6,9-27.3,26.2-27.3h349.9c6.7,0,12.5,2.3,16.8,6.7
		c4.9,4.9,7.5,12.1,7.5,20.7l-1.2,795.7C726.2,899.4,714.9,913.3,701,913.3z M353.2,70.4c-7.5,0-15.2,5-15.2,16.3v225.8
		c0,8-2.5,15.6-6.9,21.3L295,380.3c-6.1,7.9-6.1,21.3,0,29.2l32.5,41.9c4.5,5.8,6.9,13.3,6.9,21.3v409.7c0,10.8,6.5,19.9,14.2,19.9
		H701c7.7,0,14.2-9.1,14.2-19.8l1.2-795.7c0-5.6-1.5-10.1-4.3-12.9c-2.2-2.2-5.4-3.4-9-3.4H353.2z"/>
		<g>
			<path fill="#837F80" d="M602.6,871.5c-22.2,0-40.2-18-40.2-40.2s18-40.2,40.2-40.2s40.2,18,40.2,40.2S624.8,871.5,602.6,871.5z
			 M602.6,802.1c-16.1,0-29.2,13.1-29.2,29.2s13.1,29.2,29.2,29.2s29.2-13.1,29.2-29.2S618.7,802.1,602.6,802.1z"/>
		</g>

		<rect x="597.8" y="797.6" transform="matrix(0.5789 0.8154 -0.8154 0.5789 932.673 -141.485)" fill="#837F80" width="11" height="69.4"/>
		<path
			fill="#3D3D3B"
			d="M431.3,109.6c-0.5,0.1-1.4-0.2-1.8-0.2c-1.6-0.1-3.2-0.1-4.8-0.1c-2.3,0.1-4.5,0.3-6.7,0.8
		c-2.6,0.5-5.1,1.3-7.5,2.4c-2.7,1.2-5.1,2.8-7.3,4.8c-2.5,2.3-4.4,5-5.9,8c-1.9,3.7-2.9,7.8-3.5,11.9c-0.6,4.4-0.6,8.9-0.3,13.3
		c0.2,2.6,2.4,4,3.4,6.2c0.9,2,1.7,4.5,1.1,6.7c-0.7,2.8-1.6,7.9,2,9.2c-0.1,0.7-0.4,1.4-0.2,2.1c0.2,1.2,1.6,0.1,2.1-0.3
		c1-0.8,2-1.7,2.1-3c0.2-1.4-0.8-2.5-1.3-3.7c-0.2-0.6-0.3-1.3-0.3-2c0-1.6,0.5-3,1.5-4.3c0.6-0.8,1.5-1.4,2.1-2.3
		c0.7-1.1,1.1-2.3,1.6-3.5c2.2-5.2,3.7-10.8,3.8-16.5c0-1.3,0-2.5-0.1-3.8c-0.1-0.6-0.1-1.3-0.2-1.9c-0.1-0.4-0.1-1.7-0.4-1.9
		c0,0,3.1,2.6,6,0c0,0,29,24.2,39.4,25.1c-0.6,2.3-1,4.6-1.4,7c-0.7,4.5-1.2,9.2-1,13.8c0.2,2.8,0.8,5.6,2.2,8.1
		c0.5,0.8,0.9,1.7,1.3,2.5c1.7,3.3,3.5,6.6,5.2,10c0.7,1.3,1.4,2.6,2,3.9c0.3,0.6,1.1,1.4,1.7,1.6c1.2,0.4,1.5-1,1.6-1.9
		c0.2-1.4,0.3-2.7,0.6-4.1c0.6-2.7,1.1-5.4,1.6-8.1c0.7-3.9,1.3-7.9,1.9-11.9c0.6-4.7,1.1-9.3,1.4-14c0.3-4.9,0.4-9.7,0.2-14.6
		c-0.2-4.5-0.3-8.9-1.3-13.3c-0.9-3.8-2.5-7.9-4.7-11.2c-0.2-0.3-0.4-0.6-0.6-0.9C452.2,103.4,431.3,109.6,431.3,109.6z"/>
		<g>
			<path
				fill="#805E39"
				d="M479.5,841c0,0-3-28.1-35.8-28.1c0,0-3.7-0.4-5.1,1.9c-1.4-2.3-5.1-1.9-5.1-1.9
			c-32.9,0-35.8,28.1-35.8,28.1c-1.5,14.2,8.5,7.6,16.2,3.2c2.2,9.5,12.2-5.4,13.7-7.6c3,6.3,8.9,0.6,10.7-3.5
			c0.1-0.3,0.2-0.5,0.3-0.8c0.1,0.3,0.2,0.5,0.3,0.8c1.8,4.1,7.8,9.8,10.7,3.5c1.5,2.2,11.4,17,13.7,7.6
			C471,848.6,481,855.2,479.5,841z"/>
		</g>
		<g>
			<path fill="#805E39" d="M417,815.8c-5.9-7.3,3-13.6,11.8-10.1c0.4-3.5,0.7-6,5.2-6.9c4.4-0.9,8.1,1.3,8.5,4.7
			c6.3-3.2,17.7,0.6,12.9,7.6c4.1,0.3,8.5,2.8,5.9,6.6"/>
		</g>
		<path fill="#FFCC07" d="M631.4,719.2h10.8c0,0,2.8-1.9,0-8.8c0,0,3.7-6.6,0.4-13.1c0,0,6.5-14.9,1.4-25.9c0,0,4.2-12.6-1-26.9
		c0,0,8.1-26.4-18.4-34.6c0,0-41.9-28.7-52.2,35.2c0,0-7.5,12-2.5,29.1c0,0-4.7,18.2,0,26.4c0,0-4.6,19.2,3.8,18.5l10.2,0"/>
		<path fill="#FDCC68" d="M643.3,647c0,0,8.1-26.4-18.4-34.6c0,0-41.9-28.7-52.2,35.2v8.1l16.6-7.6c0,0,28-9.6,34-21.3
		c0,0-3.1,14.8,1.6,20.1c0,0,6.4,14.4,9.9,17.4C634.8,664.4,642.5,660.6,643.3,647z"/>
		<path
			fill="#2B1012"
			d="M419.2,273.9c0,0-21-3.4-21.6,31.9c0,0-1.4,23.1,8.9,6.6l14.9-18.8c0,0,1.8-2.8,3.7,0.3
		c0,0,12,14.2,28,15.9c0,0-3.3,53.5,7.7,59.3c0,0.7,7.5,3.7,8.4,4.2c2,1,4.1,2,6.1,3c0.8,0.4,3.2,2.5,4,2.2c2.2-0.7,0.9-5.3,0.7-6.9
		c-0.2-1.4-0.2-2.6,0.1-4c0.5-2.6,0.9-5.3,1.3-8c1.4-9.5,2.5-19,3.3-28.5c0.9-11.8,1.4-23.6,0.7-35.5c-0.5-8.7-1.5-17.3-4-25.7
		c-1.6-5.2-4-12.6-10.2-13.8c-5.8-1.1-12.2,1.8-17.1,4.5c-1.9,1-3.7,2.1-5.5,3.3C448.7,264,433.5,254.2,419.2,273.9z"/>
		<path fill="#6F8128" d="M461.5,270.3l6.9,6.9C468.4,277.2,472.4,268,461.5,270.3z"/>
		<path fill="#E3850D" d="M442.9,443.7c0,0-47.4-25.4-45.4,65.4l-0.1,19.3h44L442.9,443.7z"/>
		<path fill="#E3850D" d="M441.5,443.7c0,0,47.4-25.4,45.4,65.4l0.1,19.3h-45.5V443.7z"/>
		<path fill="#CC9A32" d="M442.2,455.5c5.5,14.3,36.1,22.7,36.1,22.7c6.6-38.9-36-34.9-36-34.9s-42.7-3.7-36.1,35.1
		C406.2,478.4,436.7,469.9,442.2,455.5"/>
		<path
			id="XMLID_13_"
			fill="#2D0E0F"
			d="M584.8,363.2
		c-4.4-15.6-0.8-42.9,9.7-61.2l0-0.1c4.7,10.3,25.2,18.1,35.9,17.9c0.6,0,1.2-0.1,1.8-0.2c4.1,7.7,13.1,44.9,13.1,44.9l3.5-9.1
		c0,0,11.9-28,0.4-52.2c-2.2-19.7-22.5-33.7-40.2-32.8l0,0c-5.9,0.3-11.8,2.3-17.3,6.4c-2,2.5-2,6.2-2,6.2
		c-22.5-3.9-21.2,35.9-20.5,40.2C569.3,323,559.2,352.1,584.8,363.2z"/>
		<g>
			<path
				fill="#3D3D3B"
				d="M630.4,212c-0.1,1.5,0.4,3,0,4.6c-0.1,0.4-0.2,0.5-0.7,0.5c-0.8,0-1.7-0.6-2.4-1.1c0,0-3.7-2.5-3.7-2.5
			c0.2,0.2,0,1.4,0,1.6c0,0.5,0.1,1.7-0.8,1.3c-0.8-0.3-1.6-0.7-2.2-1.1c-1.4-1-2.6-2.3-3.8-3.6c-1.2-1.4-2.8-2.7-3.4-4.5
			c0-0.1-0.1-0.2-0.1-0.3c-0.3-1.8,1.1-3.7,2.2-5c1.6-1.9,4.2-2.5,6.6-2.1c2.6,0.5,4.1,2.2,5.7,4c0.4,0.4,0.8,0.8,1.2,1.2
			c0.8,0.8,1.6,1.5,2.4,2.3c0.5,0.5,1,1.2,1.7,1.5c0.7,0.4,1.9,0.1,2.6,0.7c0.8,0.7-1.2,2.6-1.9,2.9c-0.6,0.2-1.2,0.2-1.8,0.1
			C631.6,212.4,630.9,212,630.4,212z"/>
			<path
				fill="#3D3D3B"
				d="M629.9,217.6l-0.2,0c-0.9,0-1.8-0.6-2.6-1.2l0,0c-0.3-0.2-1-0.7-2.8-1.9c0,0.1,0,0.3,0,0.4
			c0,0.1,0,0.2,0,0.3l0,0.1c0,0.5,0,1.7-1,1.7c-0.2,0-0.3,0-0.5-0.1c-0.8-0.3-1.6-0.7-2.3-1.2c-1.6-1.1-2.9-2.5-3.9-3.6
			c-0.3-0.3-0.6-0.7-0.9-1c-1-1.1-2.1-2.2-2.6-3.7c0-0.1-0.1-0.2-0.1-0.4c-0.4-2,1.2-4,2.3-5.4c1.3-1.5,3.3-2.4,5.6-2.4
			c0.5,0,1,0,1.5,0.1c2.6,0.5,4.1,2.1,5.7,3.8l0.3,0.4c0.3,0.3,0.5,0.5,0.8,0.8l2.8,2.6c0.2,0.1,0.3,0.3,0.5,0.5
			c0.3,0.4,0.7,0.8,1.1,0.9c0.2,0.1,0.6,0.1,0.9,0.2c0.6,0.1,1.2,0.1,1.7,0.6c0.3,0.3,0.4,0.6,0.3,1c-0.2,1.1-1.7,2.4-2.4,2.7
			c-0.6,0.2-1.3,0.2-2,0.1c-0.3,0-0.6-0.1-0.8-0.2c-0.1,0-0.3-0.1-0.4-0.1c0,0.4,0,0.8,0.1,1.3c0.1,0.9,0.2,1.8-0.1,2.8
			C630.8,217.2,630.6,217.6,629.9,217.6z M624,213c0,0,3.6,2.5,3.7,2.5c0.4,0.3,1.4,1,2.1,1l0.1,0c0,0,0,0,0,0c0,0,0,0,0-0.1
			c0.2-0.8,0.1-1.6,0-2.5c-0.1-0.7-0.1-1.3-0.1-2l0-0.4l0.4,0c0.4,0,0.8,0.1,1.2,0.3c0.2,0.1,0.5,0.2,0.7,0.2
			c0.5,0.1,1.1,0.1,1.5-0.1c0.4-0.1,1.4-1,1.7-1.7c0.1-0.2,0.1-0.3,0.1-0.3c-0.2-0.2-0.7-0.3-1.1-0.3c-0.4,0-0.9-0.1-1.3-0.3
			c-0.5-0.3-0.9-0.7-1.3-1.1c-0.2-0.2-0.3-0.3-0.4-0.5l-2.8-2.6c-0.3-0.3-0.6-0.6-0.9-0.9l-0.3-0.4c-1.5-1.7-2.8-3.1-5.1-3.5
			c-0.4-0.1-0.9-0.1-1.3-0.1c-2,0-3.7,0.7-4.9,2c-1,1.2-2.4,3-2.1,4.5c0,0.1,0,0.2,0.1,0.2c0.4,1.2,1.4,2.3,2.3,3.3
			c0.3,0.3,0.6,0.7,0.9,1c0.9,1.1,2.2,2.4,3.7,3.5c0.6,0.4,1.4,0.8,2.1,1.1c0.1,0,0.1,0,0.1,0c0-0.1,0-0.6,0-0.7l0-0.1
			c0-0.1,0-0.2,0-0.3c0-0.2,0.1-0.9,0-1c0,0,0,0.1,0.1,0.1L624,213z"/>
		</g>
		<g>
			<path fill="#3D3D3B" d="M581.3,121.7c0,0-31.8-5-19.3,46.2c0,0,23.1-9.6,23.7-29c0,0,18.1,25.6,47.7,31.4c0,0,27.8-34.4-21.8-58.3
			C611.7,112,590.2,106.3,581.3,121.7z"/>
			<path
				fill="#3D3D3B"
				d="M633.6,170.8l-0.3-0.1c-25.9-5.1-43.3-25.6-47.2-30.5c-1.7,18.6-23.7,28-24,28.1l-0.5,0.2l-0.1-0.6
			c-4.6-18.7-3.8-32.2,2.3-39.9c4.8-6.1,11.6-7,15.3-7c0.9,0,1.6,0.1,2,0.1c5.3-8.8,14.6-10.7,21.6-10.7c5.2,0,9,1,9.2,1.1
			c16.8,8,26.5,18.1,29.2,29.9c3.5,15.7-7.1,29-7.2,29.1L633.6,170.8z M585.3,137.4l0.9,1.2c0.2,0.3,18.3,25.3,47.1,31.1
			c1.4-1.8,10-14,6.8-28c-2.6-11.5-12.2-21.3-28.6-29.2c0,0,0,0,0,0c-0.1,0-21-5.5-29.7,9.5l-0.2,0.3l-0.3-0.1c0,0-0.8-0.1-2.1-0.1
			c-3.5,0-10,0.9-14.5,6.6c-5.8,7.4-6.6,20.4-2.3,38.5c3.4-1.6,22.3-11.1,22.9-28.3L585.3,137.4z"/>
		</g>
		<path fill="#512A14" d="M410.5,643.8c0,0,2.9-38.4,33.4-36.7c0,0,37.4-5.4,33,58.7l-2.4,51.4c0,0-7.7,21.2-33.3,13
		c0,0-27.2-7.5-33.4-15.4C401.7,706.9,410.3,645.5,410.5,643.8z"/>
		<path fill="#2D0E0F" d="M426.4,617.1c0,0,19,28.2,25.4,31.5s24.8,0.9,24.8,0.9s-3.4-19.4-7.7-26.8c-2.4-4.1-5-11.2-27.4-10.9
		C436.8,611.9,426.4,617.1,426.4,617.1z"/>
		<path fill="#3D3D3B" d="M578.5,534.4h-13.7c0,0-3.6-1.6,0-7.8c0,0-4.7-5.8-0.5-11.6c0,0-8.3-13.2-1.8-22.9c0,0-5.3-11.2,1.3-23.8
		c0,0-8.3-18.9,25.3-26.2c0,0,51.2-29.9,64.2,26.7c0,0,9.6,10.6,3.1,25.7c0,0,6,16.1,0,23.4c0,0,5.9,17-4.8,16.4l-13,0"/>
		<path fill="#676767" d="M567.1,482.7c0,0-9.3-33.5,21.1-43.8c0,0,48.1-36.4,59.9,44.6v10.3l-19-9.6c0,0-32.1-12.1-39-27
		c0,0,3.5,18.7-1.8,25.4c0,0-7.3,18.2-11.3,22C576.8,504.7,568,499.9,567.1,482.7z"/>
		<g>
			<path fill="#3D3D3B" d="M402.4,456.9c0,0-7.1,18.3,7,21.9c0,0,37.8,11.5,72-2.1c0,0,7.4-5.3,1.7-19.8
			C483,456.9,460.7,466.4,402.4,456.9z"/>
			<path
				fill="#3D3D3B"
				d="M443.8,483.9c-19.4,0-34.4-4.5-34.6-4.5c-3.6-0.9-6.2-2.9-7.6-5.8c-3.5-6.8,0.2-16.4,0.4-16.8l0.1-0.4
			l0.4,0.1c17.2,2.8,32.9,4.2,46.7,4.2c23.5,0,33.5-4.1,33.6-4.1l0.5-0.2l0.2,0.5c5.8,14.7-1.5,20.1-1.8,20.4l-0.1,0.1
			C470.4,481.6,457.7,483.9,443.8,483.9z M402.7,457.5c-0.6,1.8-3.2,10-0.3,15.6c1.4,2.6,3.7,4.4,7,5.3c0.2,0.1,15.1,4.5,34.3,4.5
			c13.7,0,26.3-2.2,37.3-6.6c0.6-0.5,6.7-5.6,1.6-18.7c-2.3,0.8-12.4,4-33.5,4C435.4,461.6,419.8,460.2,402.7,457.5z"/>
		</g>
		<path fill="#7B1812" d="M483,456.9c2.5-0.7-3.6-4.2-3.6-4.2c3.9-7.9-3.8-27.6-4.1-28.2c-6-15.8-31.7-15.6-47.2-5.3
		c-10.7,7.1-17.7,18.6-22.7,29.9c-0.2,0.4-3,7.8-3,7.8C402.4,456.9,451.6,466.2,483,456.9z"/>
		<path
			fill="#201621"
			d="M649.6,441.3c-4.5-2.1-9.5-3.9-9.5-3.9s-1.1-6.3-2.9-10.3c-1.8-3.9-4.7-10.3-9-11.9
		c-6.8-2.6-21.3-2.6-21.3-2.6s-13.4,0-21.3,2.6c-4.4,1.4-7.3,8-9,11.9c-1.8,3.9-2.9,10.3-2.9,10.3s-5,1.8-9.5,3.9
		c-4.5,2.1-7.7,5.7-8.7,9.7c1.5,12.1,16.4,17.2,16.4,17.2s1.7-10,2.5-13.4c0.8-3.5,2.6-5,9.5-7.5c6.9-2.6,23.1-3.5,23.1-3.5
		s16.1,0.9,23.1,3.5c6.9,2.6,8.7,4.1,9.5,7.5c0.8,3.5,2.5,13.4,2.5,13.4s14.9-5.1,16.4-17.2C657.4,447,654.1,443.4,649.6,441.3z"/>
		<path fill="#531E53" d="M640.1,437.4c0,0-1.1-6.3-2.9-10.3c-1.8-3.9-4.7-10.3-9-11.9c-6.8-2.6-21.3-2.6-21.3-2.6s-13.4,0-21.3,2.6
		c-4.4,1.4-7.3,8-9,11.9c-1.8,3.9-2.9,10.3-2.9,10.3S608.7,428,640.1,437.4z"/>
	</g>
	<g id="BAFARADA_CAPS">
		<path
			fill="#FFFFFF"
			d="M332.6,81.7v11.6c0,6.7-2.1,13.2-5.8,18l-36.1,46.5c-7.7,9.9-7.7,26,0,35.9l32.5,41.9
		c3.7,4.8,5.8,11.2,5.8,18v371.6c0,14,8.8,25.4,19.7,25.4H701c10.9,0,19.7-11.3,19.7-25.3L722,81.7c0-14.1-7.9-21.9-18.8-21.9H353.2
		C342.3,59.9,332.6,67.6,332.6,81.7z"/>
		<path
			fill="#858686"
			d="M701,656H348.7c-13.9,0-25.2-13.9-25.2-30.9V253.5c0-5.5-1.7-10.8-4.6-14.6L286.3,197
		c-9.3-12-9.3-30.7,0-42.7l36.1-46.5c2.9-3.8,4.6-9.1,4.6-14.6V81.7c0-13.6,9-27.3,26.2-27.3h349.9c6.7,0,12.5,2.3,16.8,6.7
		c4.9,4.9,7.5,12.1,7.5,20.7l-1.2,543.4C726.2,642.2,714.9,656,701,656z M353.2,65.4c-7.5,0-15.2,5-15.2,16.3v11.6
		c0,8-2.5,15.6-6.9,21.3L295,161.1c-6.1,7.9-6.1,21.3,0,29.2l32.5,41.9c4.5,5.8,6.9,13.3,6.9,21.3v371.6c0,10.8,6.5,19.9,14.2,19.9
		H701c7.7,0,14.2-9.1,14.2-19.8l1.2-543.4c0-5.6-1.5-10.1-4.3-12.9c-2.2-2.2-5.4-3.4-9-3.4H353.2z"/>
		<g>
			<path
				fill="#F2E8D4"
				d="M497.2,190.7c-0.3,0-0.5,0-0.8,0c-1.4,20-16.3,36.2-35.6,39.3l0.6,4.6c0.3,0,0.5,0.1,0.8,0.1
			c0.4,0.1,0.8,0.1,1.3,0.2c0.3,0.1,0.7,0.1,1,0.2c0.5,0.1,0.9,0.1,1.4,0.2c0.2,0,0.4,0.1,0.6,0.1l0,0c2.8,0.5,5.3,1,7.5,1.5
			c4.4,1,7.9,5.8,7.9,10.3h-73.7c0-4.6,3.5-9.3,7.9-10.3c2.2-0.5,4.7-1,7.5-1.5l0,0c0,0,0,0,0,0c0.7-0.1,1.4-0.2,2.1-0.3
			c0.2,0,0.5-0.1,0.7-0.1c0.5-0.1,1-0.2,1.5-0.2c0.2,0,0.4-0.1,0.6-0.1l0.6-4.6c-19.3-3-34.2-19.3-35.6-39.3c-0.3,0-0.5,0-0.8,0
			c-5.3,0-9.7-5.6-9.7-12.4c0-6.9,4.3-12.4,9.7-12.4c0.2,0,0.4,0,0.7,0v-23.4c0-23.6,18.9-42.8,42.3-42.8h9.2h1.1h8.1
			c23.4,0,42.3,19.2,42.3,42.8v23.4c0.2,0,0.4,0,0.7,0c5.3,0,9.7,5.6,9.7,12.4C506.9,185.1,502.5,190.7,497.2,190.7z"/>
			<g>
				<defs>
					<rect id="SVGID_1_" x="444.4" y="75.8" width="67" height="180.8"/>
				</defs>
				<clipPath id="SVGID_2_">
					<use xlink:href="#SVGID_1_" overflow="visible"/>
				</clipPath>
				<path
					clip-path="url(#SVGID_2_)"
					fill="#CB9866"
					d="M496.5,190.4c-0.3,0-0.5,0-0.8,0c-1.4,20-16.3,36.2-35.6,39.3l0.6,4.6
				c0.3,0,0.5,0.1,0.8,0.1c0.4,0.1,0.8,0.1,1.3,0.2c0.3,0.1,0.7,0.1,1,0.2c0.5,0.1,0.9,0.1,1.4,0.2c0.2,0,0.4,0.1,0.6,0.1l0,0
				c2.8,0.5,5.3,1,7.5,1.5c4.4,1,7.9,5.8,7.9,10.3h-73.7c0-4.6,3.5-9.3,7.9-10.3c2.2-0.5,4.7-1,7.5-1.5l0,0l0,0
				c0.7-0.1,1.4-0.2,2.1-0.3c0.2,0,0.5-0.1,0.7-0.1c0.5-0.1,1-0.2,1.5-0.2c0.2,0,0.4-0.1,0.6-0.1l0.6-4.6
				c-19.3-3-34.2-19.3-35.6-39.3c-0.3,0-0.5,0-0.8,0c-5.3,0-9.7-5.6-9.7-12.4c0-6.9,4.3-12.4,9.7-12.4c0.2,0,0.4,0,0.7,0v-23.4
				c0-23.6,18.9-42.8,42.3-42.8h9.2h1.1h8.1c23.4,0,42.3,19.2,42.3,42.8v23.4c0.2,0,0.4,0,0.7,0c5.3,0,9.7,5.6,9.7,12.4
				C506.2,184.9,501.9,190.4,496.5,190.4z"/>
			</g>
		</g>
		<g>
			<path
				fill="#E3C8B2"
				d="M661,190.7c-0.3,0-0.5,0-0.8,0c-1.4,20-16.3,36.2-35.6,39.3l0.6,4.6c0.3,0,0.5,0.1,0.8,0.1
			c0.4,0.1,0.8,0.1,1.3,0.2c0.3,0.1,0.7,0.1,1,0.2c0.5,0.1,0.9,0.1,1.4,0.2c0.2,0,0.4,0.1,0.6,0.1l0,0c2.8,0.5,5.3,1,7.5,1.5
			c4.4,1,7.9,5.8,7.9,10.3H572c0-4.6,3.5-9.3,7.9-10.3c2.2-0.5,4.7-1,7.5-1.5l0,0c0,0,0,0,0,0c0.7-0.1,1.4-0.2,2.1-0.3
			c0.2,0,0.5-0.1,0.7-0.1c0.5-0.1,1-0.2,1.5-0.2c0.2,0,0.4-0.1,0.6-0.1l0.6-4.6c-19.3-3-34.2-19.3-35.6-39.3c-0.3,0-0.5,0-0.8,0
			c-5.3,0-9.7-5.6-9.7-12.4c0-6.9,4.3-12.4,9.7-12.4c0.2,0,0.4,0,0.7,0v-23.4c0-23.6,18.9-42.8,42.3-42.8h9.2h1.1h8.1
			c23.4,0,42.3,19.2,42.3,42.8v23.4c0.2,0,0.4,0,0.7,0c5.3,0,9.7,5.6,9.7,12.4C670.7,185.1,666.3,190.7,661,190.7z"/>
			<g>
				<defs>
					<rect id="SVGID_3_" x="608.6" y="75.8" width="67" height="180.8"/>
				</defs>
				<clipPath id="SVGID_4_">
					<use xlink:href="#SVGID_3_" overflow="visible"/>
				</clipPath>
				<path
					clip-path="url(#SVGID_4_)"
					fill="#BA8A69"
					d="M660.8,190.4c-0.3,0-0.5,0-0.8,0c-1.4,20-16.3,36.2-35.6,39.3l0.6,4.6
				c0.3,0,0.5,0.1,0.8,0.1c0.4,0.1,0.8,0.1,1.3,0.2c0.3,0.1,0.7,0.1,1,0.2c0.5,0.1,0.9,0.1,1.4,0.2c0.2,0,0.4,0.1,0.6,0.1l0,0
				c2.8,0.5,5.3,1,7.5,1.5c4.4,1,7.9,5.8,7.9,10.3h-73.7c0-4.6,3.5-9.3,7.9-10.3c2.2-0.5,4.7-1,7.5-1.5l0,0l0,0
				c0.7-0.1,1.4-0.2,2.1-0.3c0.2,0,0.5-0.1,0.7-0.1c0.5-0.1,1-0.2,1.5-0.2c0.2,0,0.4-0.1,0.6-0.1l0.6-4.6
				c-19.3-3-34.2-19.3-35.6-39.3c-0.3,0-0.5,0-0.8,0c-5.3,0-9.7-5.6-9.7-12.4c0-6.9,4.3-12.4,9.7-12.4c0.2,0,0.4,0,0.7,0v-23.4
				c0-23.6,18.9-42.8,42.3-42.8h9.2h1.1h8.1c23.4,0,42.3,19.2,42.3,42.8v23.4c0.2,0,0.4,0,0.7,0c5.3,0,9.7,5.6,9.7,12.4
				C670.5,184.9,666.1,190.4,660.8,190.4z"/>
			</g>
		</g>
		<g>
			<path
				fill="#E5BEA1"
				d="M504,384.7c-0.3,0-0.5,0-0.8,0c-1.4,20-16.3,36.2-35.6,39.3l0.6,4.6c0.3,0,0.5,0.1,0.8,0.1
			c0.4,0.1,0.8,0.1,1.3,0.2c0.3,0.1,0.7,0.1,1,0.2c0.5,0.1,0.9,0.1,1.4,0.2c0.2,0,0.4,0.1,0.6,0.1l0,0c2.8,0.5,5.3,1,7.5,1.5
			c4.4,1,7.9,5.8,7.9,10.3H415c0-4.6,3.5-9.3,7.9-10.3c2.2-0.5,4.7-1,7.5-1.5l0,0c0,0,0,0,0,0c0.7-0.1,1.4-0.2,2.1-0.3
			c0.2,0,0.5-0.1,0.7-0.1c0.5-0.1,1-0.2,1.5-0.2c0.2,0,0.4-0.1,0.6-0.1l0.6-4.6c-19.3-3-34.2-19.3-35.6-39.3c-0.3,0-0.5,0-0.8,0
			c-5.3,0-9.7-5.6-9.7-12.4c0-6.9,4.3-12.4,9.7-12.4c0.2,0,0.4,0,0.7,0v-23.4c0-23.6,18.9-42.8,42.3-42.8h9.2h1.1h8.1
			c23.4,0,42.3,19.2,42.3,42.8v23.4c0.2,0,0.4,0,0.7,0c5.3,0,9.7,5.6,9.7,12.4C513.7,379.1,509.3,384.7,504,384.7z"/>
			<g>
				<defs>
					<rect id="SVGID_5_" x="451.8" y="270" width="67" height="180.8"/>
				</defs>
				<clipPath id="SVGID_6_">
					<use xlink:href="#SVGID_5_" overflow="visible"/>
				</clipPath>
				<path
					clip-path="url(#SVGID_6_)"
					fill="#9D7355"
					d="M504,384.7c-0.3,0-0.5,0-0.8,0c-1.4,20-16.3,36.2-35.6,39.3l0.6,4.6
				c0.3,0,0.5,0.1,0.8,0.1c0.4,0.1,0.8,0.1,1.3,0.2c0.3,0.1,0.7,0.1,1,0.2c0.5,0.1,0.9,0.1,1.4,0.2c0.2,0,0.4,0.1,0.6,0.1l0,0
				c2.8,0.5,5.3,1,7.5,1.5c4.4,1,7.9,5.8,7.9,10.3H415c0-4.6,3.5-9.3,7.9-10.3c2.2-0.5,4.7-1,7.5-1.5l0,0l0,0
				c0.7-0.1,1.4-0.2,2.1-0.3c0.2,0,0.5-0.1,0.7-0.1c0.5-0.1,1-0.2,1.5-0.2c0.2,0,0.4-0.1,0.6-0.1l0.6-4.6
				c-19.3-3-34.2-19.3-35.6-39.3c-0.3,0-0.5,0-0.8,0c-5.3,0-9.7-5.6-9.7-12.4c0-6.9,4.3-12.4,9.7-12.4c0.2,0,0.4,0,0.7,0v-23.4
				c0-23.6,18.9-42.8,42.3-42.8h9.2h1.1h8.1c23.4,0,42.3,19.2,42.3,42.8v23.4c0.2,0,0.4,0,0.7,0c5.3,0,9.7,5.6,9.7,12.4
				C513.7,379.1,509.3,384.7,504,384.7z"/>
			</g>
		</g>
		<g>
			<path
				fill="#84674E"
				d="M504.1,561.2c-0.3,0-0.5,0-0.8,0c-1.4,20-16.3,36.2-35.6,39.3l0.6,4.6c0.3,0,0.5,0.1,0.8,0.1
			c0.4,0.1,0.8,0.1,1.3,0.2c0.3,0.1,0.7,0.1,1,0.2c0.5,0.1,0.9,0.1,1.4,0.2c0.2,0,0.4,0.1,0.6,0.1l0,0c2.8,0.5,5.3,1,7.5,1.5
			c4.4,1,7.9,5.8,7.9,10.3h-73.7c0-4.6,3.5-9.3,7.9-10.3c2.2-0.5,4.7-1,7.5-1.5l0,0c0,0,0,0,0,0c0.7-0.1,1.4-0.2,2.1-0.3
			c0.2,0,0.5-0.1,0.7-0.1c0.5-0.1,1-0.2,1.5-0.2c0.2,0,0.4-0.1,0.6-0.1l0.6-4.6c-19.3-3-34.2-19.3-35.6-39.3c-0.3,0-0.5,0-0.8,0
			c-5.3,0-9.7-5.6-9.7-12.4c0-6.9,4.3-12.4,9.7-12.4c0.2,0,0.4,0,0.7,0v-23.4c0-23.6,18.9-42.8,42.3-42.8h9.2h1.1h8.1
			c23.4,0,42.3,19.2,42.3,42.8v23.4c0.2,0,0.4,0,0.7,0c5.3,0,9.7,5.6,9.7,12.4C513.8,555.6,509.5,561.2,504.1,561.2z"/>
			<g>
				<defs>
					<rect id="SVGID_7_" x="452" y="446.6" width="67" height="180.8"/>
				</defs>
				<clipPath id="SVGID_8_">
					<use xlink:href="#SVGID_7_" overflow="visible"/>
				</clipPath>
				<path
					clip-path="url(#SVGID_8_)"
					fill="#64442B"
					d="M504.1,561.2c-0.3,0-0.5,0-0.8,0c-1.4,20-16.3,36.2-35.6,39.3l0.6,4.6
				c0.3,0,0.5,0.1,0.8,0.1c0.4,0.1,0.8,0.1,1.3,0.2c0.3,0.1,0.7,0.1,1,0.2c0.5,0.1,0.9,0.1,1.4,0.2c0.2,0,0.4,0.1,0.6,0.1l0,0
				c2.8,0.5,5.3,1,7.5,1.5c4.4,1,7.9,5.8,7.9,10.3h-73.7c0-4.6,3.5-9.3,7.9-10.3c2.2-0.5,4.7-1,7.5-1.5l0,0l0,0
				c0.7-0.1,1.4-0.2,2.1-0.3c0.2,0,0.5-0.1,0.7-0.1c0.5-0.1,1-0.2,1.5-0.2c0.2,0,0.4-0.1,0.6-0.1l0.6-4.6
				c-19.3-3-34.2-19.3-35.6-39.3c-0.3,0-0.5,0-0.8,0c-5.3,0-9.7-5.6-9.7-12.4c0-6.9,4.3-12.4,9.7-12.4c0.2,0,0.4,0,0.7,0v-23.4
				c0-23.6,18.9-42.8,42.3-42.8h9.2h1.1h8.1c23.4,0,42.3,19.2,42.3,42.8v23.4c0.2,0,0.4,0,0.7,0c5.3,0,9.7,5.6,9.7,12.4
				C513.8,555.6,509.4,561.2,504.1,561.2z"/>
			</g>
		</g>
		<g>
			<path
				fill="#704D29"
				d="M667.9,561.2c-0.3,0-0.5,0-0.8,0c-1.4,20-16.3,36.2-35.6,39.3l0.6,4.6c0.3,0,0.5,0.1,0.8,0.1
			c0.4,0.1,0.8,0.1,1.3,0.2c0.3,0.1,0.7,0.1,1,0.2c0.5,0.1,0.9,0.1,1.4,0.2c0.2,0,0.4,0.1,0.6,0.1l0,0c2.8,0.5,5.3,1,7.5,1.5
			c4.4,1,7.9,5.8,7.9,10.3h-73.7c0-4.6,3.5-9.3,7.9-10.3c2.2-0.5,4.7-1,7.5-1.5l0,0c0,0,0,0,0,0c0.7-0.1,1.4-0.2,2.1-0.3
			c0.2,0,0.5-0.1,0.7-0.1c0.5-0.1,1-0.2,1.5-0.2c0.2,0,0.4-0.1,0.6-0.1l0.6-4.6c-19.3-3-34.2-19.3-35.6-39.3c-0.3,0-0.5,0-0.8,0
			c-5.3,0-9.7-5.6-9.7-12.4c0-6.9,4.3-12.4,9.7-12.4c0.2,0,0.4,0,0.7,0v-23.4c0-23.6,18.9-42.8,42.3-42.8h9.2h1.1h8.1
			c23.4,0,42.3,19.2,42.3,42.8v23.4c0.2,0,0.4,0,0.7,0c5.3,0,9.7,5.6,9.7,12.4C677.6,555.6,673.3,561.2,667.9,561.2z"/>
			<g>
				<defs>
					<rect id="SVGID_9_" x="615.8" y="446.5" width="67" height="180.8"/>
				</defs>
				<clipPath id="SVGID_10_">
					<use xlink:href="#SVGID_9_" overflow="visible"/>
				</clipPath>
				<path
					clip-path="url(#SVGID_10_)"
					fill="#422915"
					d="M667.9,561.1c-0.3,0-0.5,0-0.8,0c-1.4,20-16.3,36.2-35.6,39.3l0.6,4.6
				c0.3,0,0.5,0.1,0.8,0.1c0.4,0.1,0.8,0.1,1.3,0.2c0.3,0.1,0.7,0.1,1,0.2c0.5,0.1,0.9,0.1,1.4,0.2c0.2,0,0.4,0.1,0.6,0.1l0,0
				c2.8,0.5,5.3,1,7.5,1.5c4.4,1,7.9,5.8,7.9,10.3h-73.7c0-4.6,3.5-9.3,7.9-10.3c2.2-0.5,4.7-1,7.5-1.5l0,0c0,0,0,0,0,0
				c0.7-0.1,1.4-0.2,2.1-0.3c0.2,0,0.5-0.1,0.7-0.1c0.5-0.1,1-0.2,1.5-0.2c0.2,0,0.4-0.1,0.6-0.1l0.6-4.6
				c-19.3-3-34.2-19.3-35.6-39.3c-0.3,0-0.5,0-0.8,0c-5.3,0-9.7-5.6-9.7-12.4c0-6.9,4.3-12.4,9.7-12.4c0.2,0,0.4,0,0.7,0v-23.4
				c0-23.6,18.9-42.8,42.3-42.8h9.2h1.1h8.1c23.4,0,42.3,19.2,42.3,42.8v23.4c0.2,0,0.4,0,0.7,0c5.3,0,9.7,5.6,9.7,12.4
				C677.6,555.6,673.3,561.1,667.9,561.1z"/>
			</g>
		</g>
		<g>
			<path
				fill="#DDDD89"
				d="M667.8,384.7c-0.3,0-0.5,0-0.8,0c-1.4,20-16.3,36.2-35.6,39.3l0.6,4.6c0.3,0,0.5,0.1,0.8,0.1
			c0.4,0.1,0.8,0.1,1.3,0.2c0.3,0.1,0.7,0.1,1,0.2c0.5,0.1,0.9,0.1,1.4,0.2c0.2,0,0.4,0.1,0.6,0.1l0,0c2.8,0.5,5.3,1,7.5,1.5
			c4.4,1,7.9,5.8,7.9,10.3h-73.7c0-4.6,3.5-9.3,7.9-10.3c2.2-0.5,4.7-1,7.5-1.5l0,0c0,0,0,0,0,0c0.7-0.1,1.4-0.2,2.1-0.3
			c0.2,0,0.5-0.1,0.7-0.1c0.5-0.1,1-0.2,1.5-0.2c0.2,0,0.4-0.1,0.6-0.1l0.6-4.6c-19.3-3-34.2-19.3-35.6-39.3c-0.3,0-0.5,0-0.8,0
			c-5.3,0-9.7-5.6-9.7-12.4c0-6.9,4.3-12.4,9.7-12.4c0.2,0,0.4,0,0.7,0v-23.4c0-23.6,18.9-42.8,42.3-42.8h9.2h1.1h8.1
			c23.4,0,42.3,19.2,42.3,42.8v23.4c0.2,0,0.4,0,0.7,0c5.3,0,9.7,5.6,9.7,12.4C677.5,379.1,673.1,384.7,667.8,384.7z"/>
			<g>
				<defs>
					<rect id="SVGID_11_" x="615.6" y="270" width="67" height="180.8"/>
				</defs>
				<clipPath id="SVGID_12_">
					<use xlink:href="#SVGID_11_" overflow="visible"/>
				</clipPath>
				<path
					clip-path="url(#SVGID_12_)"
					fill="#C0BE60"
					d="M667.8,384.6c-0.3,0-0.5,0-0.8,0c-1.4,20-16.3,36.2-35.6,39.3l0.6,4.6
				c0.3,0,0.5,0.1,0.8,0.1c0.4,0.1,0.8,0.1,1.3,0.2c0.3,0.1,0.7,0.1,1,0.2c0.5,0.1,0.9,0.1,1.4,0.2c0.2,0,0.4,0.1,0.6,0.1l0,0
				c2.8,0.5,5.3,1,7.5,1.5c4.4,1,7.9,5.8,7.9,10.3h-73.7c0-4.6,3.5-9.3,7.9-10.3c2.2-0.5,4.7-1,7.5-1.5l0,0c0,0,0,0,0,0
				c0.7-0.1,1.4-0.2,2.1-0.3c0.2,0,0.5-0.1,0.7-0.1c0.5-0.1,1-0.2,1.5-0.2c0.2,0,0.4-0.1,0.6-0.1l0.6-4.6
				c-19.3-3-34.2-19.3-35.6-39.3c-0.3,0-0.5,0-0.8,0c-5.3,0-9.7-5.6-9.7-12.4c0-6.9,4.3-12.4,9.7-12.4c0.2,0,0.4,0,0.7,0v-23.4
				c0-23.6,18.9-42.8,42.3-42.8h9.2h1.1h8.1c23.4,0,42.3,19.2,42.3,42.8v23.4c0.2,0,0.4,0,0.7,0c5.3,0,9.7,5.6,9.7,12.4
				C677.5,379.1,673.1,384.6,667.8,384.6z"/>
			</g>
		</g>
	</g>
	<g id="NOM">
		<path fill="#9ACDCD" d="M1060.3,1004.8H863.9c-14.9,0-27-12.1-27-27l0,0c0-14.9,12.1-27,27-27h196.4c14.9,0,27,12.1,27,27l0,0
		C1087.3,992.7,1075.2,1004.8,1060.3,1004.8z"/>
	</g>
	<g id="BOTO_VALIDACIO">
		<g>
			<g>
				<g>
					<g>
						<g>
							<path fill="#E0E07F" d="M1723.5,917.7l-25.1,3.3c0,0,0.1,4,0.8,10.2c1.1,10.3,6.6,16.7,15.1,15.5c10.1-1.4,12.3-8.6,11.2-19
							C1724.8,921.5,1723.5,917.7,1723.5,917.7z"/>
							<path
								fill="#858686"
								d="M1712.3,952.4C1712.3,952.4,1712.3,952.4,1712.3,952.4c-10.1,0-17.2-7.9-18.6-20.6
							c-0.7-6.4-0.8-10.6-0.8-10.7l-0.1-4.9l34.5-4.5l1.4,4.4c0.1,0.2,1.4,4.4,2.2,11.2c1.6,14.9-3.7,23.3-15.9,25
							C1714.1,952.3,1713.2,952.4,1712.3,952.4z M1704.2,925.8c0.1,1.4,0.3,3,0.5,4.8c1.1,9.7,5.7,10.8,7.6,10.8c0,0,0,0,0,0
							c0.4,0,0.8,0,1.3-0.1c4.3-0.6,7.7-2,6.5-12.9c-0.2-1.8-0.4-3.3-0.7-4.6L1704.2,925.8z"/>
						</g>
						<g>
							<path fill="#E0E07F" d="M1737,814.1c-47,0-85.1,38.1-85.1,85.1c0,47,38.1,85.1,85.1,85.1c47,0,85.1-38.1,85.1-85.1
							C1822.1,852.2,1784,814.1,1737,814.1z"/>
							<path
								fill="#858686"
								d="M1737,989.7c-49.9,0-90.6-40.6-90.6-90.6c0-49.9,40.6-90.6,90.6-90.6s90.6,40.6,90.6,90.6
							C1827.6,949.1,1787,989.7,1737,989.7z M1737,819.6c-43.9,0-79.6,35.7-79.6,79.6c0,43.9,35.7,79.6,79.6,79.6
							s79.6-35.7,79.6-79.6C1816.6,855.3,1780.9,819.6,1737,819.6z"/>
						</g>
					</g>
				</g>
			</g>
			<path
				fill="#FFFFFF"
				d="M1687.1,924.3c12.5,11.1,25,22.1,37.4,33.2c3.3,2.9,8.7,2.7,11-1.4c15.4-27.9,30.7-55.7,46.1-83.6
			c2.2-4,4.4-8,6.6-12c4.4-7.9-7.7-15-12.1-7.1c-15.4,27.9-30.7,55.7-46.1,83.6c-2.2,4-4.4,8-6.6,12c3.7-0.5,7.3-0.9,11-1.4
			c-12.5-11.1-25-22.1-37.4-33.2C1690.3,908.5,1680.4,918.3,1687.1,924.3L1687.1,924.3z"/>
		</g>
	</g>
	<g id="BOTO_SABATES">
		<g>
			<path fill="#837F80" d="M1711.2,613.3c-6.9,0.4-24.6,11.3-16,53.1c0.3,1.4,1.2,2.7,3,2.3c6.3-1.5,16.2-1.9,22.1-0.5
			c2.1,0.5,3.1-0.4,4-3c2-6.4,5.2-14.1,4.5-24C1727.3,619.1,1718.1,612.9,1711.2,613.3z"/>
			<path fill="#837F80" d="M1723.5,679.6l-25.1,3.3c0,0,0.1,4,0.8,10.2c1.1,10.3,6.6,16.7,15.1,15.5c10.1-1.4,12.3-8.6,11.2-19
			C1724.8,683.4,1723.5,679.6,1723.5,679.6z"/>
			<path fill="#837F80" d="M1748.6,689.7c-1.1,10.3,1.1,17.5,11.2,19c8.5,1.2,14-5.2,15.1-15.5c0.7-6.3,0.7-10.2,0.7-10.2l-25.1-3.3
			C1750.5,679.6,1749.3,683.4,1748.6,689.7z"/>
			<path fill="#837F80" d="M1762.9,613.3c-6.9-0.4-16,5.7-17.5,27.9c-0.7,9.9,2.5,17.6,4.5,24c0.8,2.6,1.8,3.5,4,3
			c5.9-1.4,15.7-1,22.1,0.5c1.8,0.4,2.7-0.9,3-2.3C1787.4,624.7,1769.7,613.7,1762.9,613.3z"/>
			<path
				fill="#FFFFFF"
				d="M1737,576c-47,0-85.1,38.1-85.1,85.1c0,47,38.1,85.1,85.1,85.1c47,0,85.1-38.1,85.1-85.1
			C1822.1,614.1,1784,576,1737,576z M1748.6,689.7c0.7-6.3,1.9-10.1,1.9-10.1l25.1,3.3c0,0-0.1,4-0.7,10.2
			c-1.1,10.3-6.6,16.7-15.1,15.5C1749.7,707.2,1747.5,700,1748.6,689.7z M1778.8,666.4c-0.3,1.4-1.2,2.7-3,2.3
			c-6.3-1.5-16.2-1.9-22.1-0.5c-2.1,0.5-3.1-0.4-4-3c-2-6.4-5.2-14.1-4.5-24c1.5-22.1,10.7-28.3,17.5-27.9
			C1769.7,613.7,1787.4,624.7,1778.8,666.4z M1698.4,682.9l25.1-3.3c0,0,1.2,3.8,1.9,10.1c1.1,10.3-1.1,17.5-11.2,19
			c-8.5,1.2-14-5.2-15.1-15.5C1698.5,686.9,1698.4,682.9,1698.4,682.9z M1724.3,665.2c-0.8,2.6-1.8,3.5-4,3
			c-5.9-1.4-15.7-1-22.1,0.5c-1.7,0.4-2.7-0.9-3-2.3c-8.6-41.7,9.1-52.7,16-53.1c6.9-0.4,16,5.7,17.5,27.9
			C1729.5,651.1,1726.3,658.8,1724.3,665.2z"/>
		</g>
	</g>
	<g id="BOTO_PANTALO">
		<g>
			<path fill="#837F80" d="M1700.7,360.9l-5,87l29.1,4.8l4.4-70.6c0.2-2.9,2.7-5.3,5.6-5.3h4.1c2.9,0,5.5,2.4,5.6,5.3l4.5,70.6
			l29.1-4.8l-5.9-87H1700.7z"/>
			<path
				fill="#FFFFFF"
				d="M1737,321c-47,0-85.1,38.1-85.1,85.1c0,47,38.1,85.1,85.1,85.1c47,0,85.1-38.1,85.1-85.1
			C1822.1,359.1,1784,321,1737,321z M1749.2,452.7l-4.5-70.6c-0.2-2.9-2.7-5.3-5.6-5.3h-4.1c-2.9,0-5.5,2.4-5.6,5.3l-4.4,70.6
			l-29.1-4.8l5-87h71.7l5.9,87L1749.2,452.7z"/>
		</g>
	</g>
	<g id="BOTO._CAP">
		<g>
			<path
				fill="#837F80"
				d="M221.9,138.7c-0.2,0-0.3,0-0.5,0v-17.9c0-18.1-14.5-32.7-32.3-32.7h-6.2h-0.9H175
			c-17.8,0-32.3,14.6-32.3,32.7v17.9c-0.2,0-0.3,0-0.5,0c-4.1,0-7.4,4.3-7.4,9.5c0,5.2,3.3,9.5,7.4,9.5c0.2,0,0.4,0,0.6,0
			c1,15.3,12.5,27.7,27.2,30l-0.5,3.5c-0.2,0-0.3,0-0.5,0.1c-0.4,0.1-0.8,0.1-1.2,0.2c-0.2,0-0.4,0.1-0.6,0.1
			c-0.5,0.1-1.1,0.2-1.6,0.3c0,0,0,0,0,0l0,0c-2.1,0.4-4.1,0.8-5.7,1.1c-3.4,0.8-6.1,4.4-6.1,7.9h56.3c0-3.5-2.7-7.1-6.1-7.9
			c-1.7-0.4-3.6-0.8-5.7-1.1l0,0c-0.2,0-0.3-0.1-0.5-0.1c-0.3-0.1-0.7-0.1-1-0.2c-0.2,0-0.5-0.1-0.8-0.1c-0.3,0-0.6-0.1-1-0.1
			c-0.2,0-0.4-0.1-0.6-0.1l-0.5-3.5c14.7-2.3,26.2-14.7,27.2-30c0.2,0,0.4,0,0.6,0c4.1,0,7.4-4.3,7.4-9.5
			C229.3,143,226,138.7,221.9,138.7z"/>
			<path
				fill="#FFFFFF"
				d="M182,61c-47,0-85.1,38.1-85.1,85.1c0,47,38.1,85.1,85.1,85.1s85.1-38.1,85.1-85.1
			C267.1,99.1,229,61,182,61z M221.9,157.7c-0.2,0-0.4,0-0.6,0c-1,15.3-12.5,27.7-27.2,30l0.5,3.5c0.2,0,0.4,0.1,0.6,0.1
			c0.3,0,0.6,0.1,1,0.1c0.3,0,0.5,0.1,0.8,0.1c0.4,0.1,0.7,0.1,1,0.2c0.2,0,0.3,0.1,0.5,0.1l0,0c2.1,0.4,4.1,0.8,5.7,1.1
			c3.4,0.8,6.1,4.4,6.1,7.9h-56.3c0-3.5,2.7-7.1,6.1-7.9c1.7-0.4,3.6-0.8,5.7-1.1c0,0,0,0,0,0c0.5-0.1,1.1-0.2,1.6-0.3
			c0.2,0,0.4-0.1,0.6-0.1c0.4-0.1,0.8-0.1,1.2-0.2c0.2,0,0.3,0,0.5-0.1l0.5-3.5c-14.7-2.3-26.2-14.7-27.2-30c-0.2,0-0.4,0-0.6,0
			c-4.1,0-7.4-4.3-7.4-9.5c0-5.2,3.3-9.5,7.4-9.5c0.2,0,0.3,0,0.5,0v-17.9c0-18.1,14.5-32.7,32.3-32.7h7.1h0.9h6.2
			c17.8,0,32.3,14.6,32.3,32.7v17.9c0.2,0,0.3,0,0.5,0c4.1,0,7.4,4.3,7.4,9.5C229.3,153.5,226,157.7,221.9,157.7z"/>
		</g>
	</g>
	<g id="BOTO._CABEL">
		<g>
			<path
				fill="#837F80"
				d="M234,393.6c-5.5-2.6-11.6-4.8-11.6-4.8h0c0,0-1.4-7.7-3.5-12.5c-2.2-4.8-5.7-12.5-11-14.5
			c-8.3-3.1-26-3.1-26-3.1l0,0h0c0,0-16.3,0-26,3.1c-5.4,1.8-8.9,9.8-11,14.5c-2.2,4.8-3.5,12.5-3.5,12.5s-6.1,2.2-11.6,4.8
			c-5.5,2.6-9.4,7-10.6,11.8c1.8,14.7,20,21,20,21s2.1-12.2,3.1-16.4c1-4.2,3.1-6.1,11.6-9.2c8.5-3.1,28.1-4.2,28.1-4.2
			s19.7,1.1,28.1,4.2c8.5,3.1,10.6,5,11.6,9.2c1,4.2,3.1,16.4,3.1,16.4s18.2-6.3,20-21C243.4,400.6,239.5,396.1,234,393.6z"/>
			<path
				fill="#FFFFFF"
				d="M182,311c-47,0-85.1,38.1-85.1,85.1c0,47,38.1,85.1,85.1,85.1s85.1-38.1,85.1-85.1
			C267.1,349.1,229,311,182,311z M221.6,410c-1-4.2-3.2-6.1-11.6-9.2c-8.5-3.1-28.1-4.2-28.1-4.2s-19.7,1.1-28.1,4.2
			c-8.5,3.1-10.6,5-11.6,9.2c-1,4.2-3.1,16.4-3.1,16.4s-18.2-6.3-20-21c1.2-4.8,5.1-9.2,10.6-11.8c5.5-2.6,11.6-4.8,11.6-4.8
			s1.4-7.7,3.5-12.5c2.2-4.8,5.6-12.8,11-14.5c9.6-3.1,26-3.1,26-3.1h0c0,0,17.7,0,26,3.1c5.3,2,8.9,9.8,11,14.5
			c2.2,4.8,3.5,12.5,3.5,12.5h0c0,0,6.1,2.2,11.6,4.8c5.5,2.6,9.4,7,10.6,11.8c-1.8,14.7-20,21-20,21S222.6,414.2,221.6,410z"/>
		</g>
	</g>
	<g id="BOTO_ULLERES">
		<g>
			<path
				fill="#837F80"
				d="M242.6,635.7c0-0.9-0.1-1.8-0.2-2.7c0-0.4-0.2-0.7-0.6-0.8c-0.3-0.1-0.5-0.1-0.8-0.2
			c-3.8-0.6-7.6-1.2-11.4-1.5c-3.1-0.2-6.1-0.4-9.2-0.5c-5.9-0.3-11.8-0.1-17.7,0.6c-3.6,0.5-7.1,1.2-10.6,2.3
			c-1.7,0.6-3.5,1.3-5.2,1.9c-2.7,0.9-5.5,1.3-8.3,0.8c-1.7-0.3-3.4-0.8-5-1.4c-3-1-6-2-9-2.6c-6-1.2-12.1-1.7-17.7-1.6
			c-4.6,0-8.7,0.2-12.9,0.7c-3.4,0.4-6.7,0.9-10.1,1.4c-0.7,0.1-1.4,0.3-2.1,0.5c-0.4,0.1-0.6,0.4-0.6,0.8c-0.1,2.1-0.1,4.2-0.2,6.3
			c0,0.3,0.1,0.6,0.1,0.9c0,0.3,0.2,0.5,0.4,0.6c0.3,0.1,0.5,0.2,0.8,0.4c1.1,0.8,1.6,2,2.1,3.3c0.3,0.9,0.5,1.9,0.7,2.8
			c0.2,0.6,0.4,1.1,0.5,1.7c0.6,2.7,1.1,5.5,1.7,8.2c0.6,2.6,1.3,5.2,2.5,7.5c1.3,2.7,3.2,4.7,5.9,5.9c1.6,0.7,3.3,1.2,5,1.5
			c3.1,0.5,6.2,0.6,9.3,0.3c3.2-0.2,6.3-0.7,9.3-1.7c2.3-0.7,4.4-1.7,6.2-3.3c2.8-2.5,5-5.4,6.7-8.8c1.7-3.4,2.9-7,4-10.6
			c0.3-1,0.6-2.1,1-3.1c0.5-1.5,1.6-2.4,3.1-2.7c0.5-0.1,1-0.1,1.5-0.1c1.1,0.1,2.3,0.3,3,1.3c0.3,0.4,0.6,0.9,0.9,1.4
			c0.4,1,0.8,2,1.1,3.1c1.4,4.5,3.1,8.8,5.4,12.9c1.9,3.4,4.4,6.1,7.6,8c2.3,1.3,4.8,2.2,7.4,2.7c3.9,0.8,7.8,1,11.8,0.8
			c2.4-0.1,4.8-0.4,7.1-1.2c2.4-0.7,4.4-2,6-4c1-1.3,1.7-2.8,2.4-4.4c1.3-3.3,2.1-6.8,2.9-10.2c0.4-1.7,0.7-3.4,1.1-5.1
			c0.2-0.9,0.5-1.8,0.7-2.6c0.2-0.8,0.4-1.7,0.9-2.4c0.5-0.7,1-1.4,1.8-1.7c0.4-0.1,0.5-0.4,0.6-0.8c0.1-0.3,0.1-0.6,0.1-0.8
			C242.7,638.2,242.7,636.9,242.6,635.7z"/>
			<path
				fill="#FFFFFF"
				d="M182,561c-47,0-85.1,38.1-85.1,85.1c0,47,38.1,85.1,85.1,85.1s85.1-38.1,85.1-85.1
			C267.1,599.1,229,561,182,561z M219.1,672.7c-4,0.2-7.9,0-11.8-0.8c-2.6-0.5-5.1-1.4-7.4-2.7c-3.3-1.9-5.8-4.6-7.6-8
			c-2.3-4.1-4.1-8.4-5.4-12.9c-0.3-1-0.7-2.1-1.1-3.1c-0.2-0.5-0.5-1-0.9-1.4c-0.8-1-1.9-1.3-3-1.3c-0.5,0-1,0-1.5,0.1
			c-1.5,0.2-2.6,1.2-3.1,2.7c-0.4,1-0.7,2.1-1,3.1c-1.1,3.6-2.3,7.2-4,10.6c-1.7,3.4-3.9,6.3-6.7,8.8c-1.8,1.6-3.9,2.6-6.2,3.3
			c-3,1-6.2,1.5-9.3,1.7c-3.1,0.2-6.2,0.2-9.3-0.3c-1.7-0.3-3.4-0.7-5-1.5c-2.7-1.2-4.6-3.2-5.9-5.9c-1.2-2.4-1.9-4.9-2.5-7.5
			c-0.6-2.7-1.1-5.5-1.7-8.2c-0.1-0.6-0.3-1.2-0.5-1.7c-0.2-0.9-0.4-1.9-0.7-2.8c-0.4-1.3-1-2.5-2.1-3.3c-0.2-0.2-0.5-0.3-0.8-0.4
			c-0.2-0.1-0.4-0.3-0.4-0.6c0-0.3-0.1-0.6-0.1-0.9c0-2.1,0.1-4.2,0.2-6.3c0-0.4,0.3-0.7,0.6-0.8c0.7-0.2,1.4-0.4,2.1-0.5
			c3.4-0.5,6.7-1,10.1-1.4c4.1-0.5,8.3-0.7,12.9-0.7c5.6-0.1,11.7,0.5,17.7,1.6c3.1,0.6,6.1,1.6,9,2.6c1.6,0.6,3.3,1.1,5,1.4
			c2.8,0.6,5.6,0.1,8.3-0.8c1.7-0.6,3.5-1.3,5.2-1.9c3.4-1.2,7-1.9,10.6-2.3c5.9-0.8,11.8-0.9,17.7-0.6c3.1,0.1,6.1,0.3,9.2,0.5
			c3.8,0.3,7.6,0.9,11.4,1.5c0.3,0,0.5,0.1,0.8,0.2c0.4,0.1,0.6,0.4,0.6,0.8c0.1,0.9,0.1,1.8,0.2,2.7c0,1.3,0,2.5,0,3.8
			c0,0.3-0.1,0.6-0.1,0.8c-0.1,0.4-0.3,0.6-0.6,0.8c-0.8,0.3-1.3,1-1.8,1.7c-0.5,0.7-0.7,1.5-0.9,2.4c-0.2,0.9-0.5,1.7-0.7,2.6
			c-0.4,1.7-0.8,3.4-1.1,5.1c-0.7,3.5-1.6,6.9-2.9,10.2c-0.6,1.6-1.4,3.1-2.4,4.4c-1.5,2.1-3.6,3.3-6,4
			C223.9,672.3,221.5,672.6,219.1,672.7z"/>
		</g>
	</g>
	<g id="BOTO_BARBA">
		<g>
			<path
				fill="#837F80"
				d="M238.4,894.3c0,0-10.9,18.3-20.3,1.7c-4.8-8.4-10.8-7-14-7.5c-4.9-0.7-14.8,3.8-19.8,3.6
			c-5.4-0.1-13.1-4.1-18.4-3.4c-4.1,0.5-12.3,2.3-16.9,10c-7.6,12.6-19.6,0.2-21.1-5c-1.3,3.4-0.9,27.3,19.3,22.8
			c5.6-1.3,3.9-8.4,12.4-13.9c5.8-3.8,14.5-4.5,24.2-4.5c9.1,0,20.9,0.8,27.4,5.6c3.1,2.3,7.8,15.4,16,12.6
			C240.3,911.9,238.4,894.3,238.4,894.3z"/>
			<path
				fill="#FFFFFF"
				d="M183,811.4c-47,0-85.1,38.1-85.1,85.1s38.1,85.1,85.1,85.1s85.1-38.1,85.1-85.1S230,811.4,183,811.4z
			 M210.9,903.8c-6.5-4.9-18.2-5.6-27.4-5.6c-9.7,0-18.4,0.8-24.2,4.5c-8.4,5.4-6.7,12.6-12.4,13.9c-20.2,4.5-20.6-19.5-19.3-22.8
			c1.5,5.2,13.5,17.6,21.1,5c4.7-7.7,12.9-9.4,16.9-10c5.4-0.7,13,3.2,18.4,3.4c5,0.1,14.9-4.4,19.8-3.6c3.2,0.5,9.3-0.9,14,7.5
			c9.5,16.7,20.3-1.7,20.3-1.7s1.9,17.5-11.4,22.1C218.7,919.2,214,906.1,210.9,903.8z"/>
		</g>
	</g>
	<g id="BOTO_SAMARRETA">
		<g>
			<path
				fill="#837F80"
				d="M1779,112.1l-2.4-2.4c-1.8-1.8-4.1-2.9-6.4-3.3c-0.5-0.2-0.9-0.3-1.4-0.4c-7.5-1.7-19.2-3.8-31.3-3.8
			c-12.1,0-23.8,2.1-31.4,3.8c-0.9,0.2-1.7,0.5-2.5,1c-1.5,0.6-3,1.4-4.2,2.7l-2.4,2.4c-5.8,5.9-11.5,11.7-17.3,17.7l16.5,16.1
			c0.4-0.4,0.8-0.9,1.3-1.3v53.4h79.9v-54.4c0.8,0.8,1.6,1.6,2.4,2.5l16.5-16.1C1790.5,123.9,1784.8,118,1779,112.1z"/>
			<path
				fill="#FFFFFF"
				d="M1738,65c-47,0-85.1,38.1-85.1,85.1c0,47,38.1,85.1,85.1,85.1c47,0,85.1-38.1,85.1-85.1
			C1823.1,103.1,1785,65,1738,65z M1777.4,143.6v54.4h-79.9v-53.4c-0.4,0.4-0.8,0.9-1.3,1.3l-16.5-16.1c5.7-6,11.5-11.9,17.3-17.7
			l2.4-2.4c1.2-1.2,2.7-2.1,4.2-2.7c0.8-0.4,1.6-0.8,2.5-1c7.6-1.7,19.3-3.8,31.4-3.8c12.1,0,23.8,2.1,31.3,3.8
			c0.5,0.1,0.9,0.3,1.4,0.4c2.3,0.4,4.6,1.4,6.4,3.3l2.4,2.4c5.8,5.9,11.6,11.9,17.3,17.9l-16.5,16.1
			C1779,145.2,1778.2,144.4,1777.4,143.6z"/>
		</g>
	</g>
	<g id="NOI" display="none"></g>
	<g id="NOIA" display="none"></g>
</svg>
